G04*
G04 #@! TF.GenerationSoftware,Altium Limited,Altium Designer,21.3.2 (30)*
G04*
G04 Layer_Physical_Order=1*
G04 Layer_Color=255*
%FSLAX25Y25*%
%MOIN*%
G70*
G04*
G04 #@! TF.SameCoordinates,D336144A-5441-4EE2-8883-8E06B423CE8D*
G04*
G04*
G04 #@! TF.FilePolarity,Positive*
G04*
G01*
G75*
%ADD18C,0.01000*%
%ADD19C,0.00800*%
%ADD20C,0.02000*%
%ADD21C,0.05906*%
%ADD22R,0.05906X0.05906*%
%ADD23C,0.02559*%
%ADD24O,0.03937X0.07087*%
%ADD25O,0.03937X0.08268*%
%ADD26C,0.02400*%
%ADD27C,0.02598*%
%ADD28C,0.02598*%
G36*
X153248Y71777D02*
Y57972D01*
Y57265D01*
X153524Y55877D01*
X153787Y55243D01*
X153509Y54827D01*
X152559D01*
X151776Y54724D01*
X151046Y54422D01*
X150419Y53941D01*
X149939Y53314D01*
X149636Y52584D01*
X149533Y51801D01*
Y-19980D01*
X149636Y-20763D01*
X149939Y-21493D01*
X150419Y-22120D01*
X151046Y-22601D01*
X151776Y-22903D01*
X152559Y-23006D01*
X173668D01*
X173668Y-51378D01*
X159135D01*
X157747Y-51654D01*
X156439Y-52196D01*
X155262Y-52982D01*
X154262Y-53983D01*
X153475Y-55160D01*
X152934Y-56467D01*
X152657Y-57855D01*
Y-58563D01*
Y-71777D01*
X-152264Y-71777D01*
Y-57874D01*
Y-57166D01*
X-152540Y-55778D01*
X-153082Y-54471D01*
X-153868Y-53294D01*
X-154869Y-52293D01*
X-156045Y-51507D01*
X-157353Y-50965D01*
X-158741Y-50689D01*
X-172643D01*
X-172643Y-36490D01*
X-171732D01*
X-170949Y-36387D01*
X-170219Y-36085D01*
X-169592Y-35604D01*
X-169111Y-34977D01*
X-168809Y-34248D01*
X-168706Y-33465D01*
Y33465D01*
X-168809Y34248D01*
X-169111Y34977D01*
X-169592Y35604D01*
X-170219Y36085D01*
X-170949Y36387D01*
X-171732Y36490D01*
X-172643D01*
Y51378D01*
X-158151D01*
X-156763Y51654D01*
X-155455Y52196D01*
X-154278Y52982D01*
X-153277Y53983D01*
X-152491Y55160D01*
X-151949Y56467D01*
X-151673Y57855D01*
Y58563D01*
Y71777D01*
X153248Y71777D01*
D02*
G37*
G36*
X-101753Y89607D02*
X-101683D01*
X-101607Y89600D01*
X-101523Y89593D01*
X-101343Y89572D01*
X-101163Y89538D01*
X-100982Y89496D01*
X-100892Y89468D01*
X-100816Y89434D01*
X-100809D01*
X-100802Y89427D01*
X-100753Y89406D01*
X-100698Y89371D01*
X-100621Y89323D01*
X-100552Y89260D01*
X-100496Y89191D01*
X-100448Y89107D01*
X-100441Y89059D01*
X-100434Y89010D01*
Y89003D01*
Y88989D01*
X-100441Y88962D01*
X-100448Y88927D01*
X-100462Y88885D01*
X-100476Y88844D01*
X-100503Y88802D01*
X-100538Y88760D01*
X-100545Y88753D01*
X-100559Y88747D01*
X-100580Y88726D01*
X-100608Y88712D01*
X-100684Y88670D01*
X-100725Y88663D01*
X-100774Y88656D01*
X-100788D01*
X-100809Y88663D01*
X-100843Y88670D01*
X-100885Y88677D01*
X-100941Y88698D01*
X-101003Y88719D01*
X-101079Y88753D01*
X-101086Y88760D01*
X-101121Y88774D01*
X-101163Y88788D01*
X-101218Y88809D01*
X-101281Y88837D01*
X-101350Y88858D01*
X-101419Y88871D01*
X-101482Y88885D01*
Y88878D01*
Y88871D01*
X-101489Y88851D01*
Y88823D01*
X-101496Y88781D01*
X-101503Y88740D01*
X-101510Y88691D01*
X-101517Y88635D01*
X-101531Y88504D01*
X-101551Y88344D01*
X-101572Y88170D01*
X-101593Y87976D01*
X-101614Y87761D01*
X-101635Y87539D01*
X-101655Y87296D01*
X-101669Y87053D01*
X-101683Y86796D01*
X-101697Y86533D01*
X-101704Y86005D01*
Y85998D01*
Y85977D01*
Y85936D01*
Y85887D01*
X-101697Y85811D01*
Y85728D01*
X-101690Y85624D01*
X-101683Y85505D01*
X-101676Y85367D01*
X-101669Y85214D01*
X-101655Y85048D01*
X-101648Y84853D01*
X-101628Y84645D01*
X-101614Y84423D01*
X-101586Y84173D01*
X-101565Y83909D01*
X-101558D01*
X-101531Y83902D01*
X-101482D01*
X-101426Y83895D01*
X-101357Y83889D01*
X-101274Y83882D01*
X-101183Y83875D01*
X-101079Y83868D01*
X-100871Y83847D01*
X-100642Y83833D01*
X-100427Y83826D01*
X-100323Y83819D01*
X-100143D01*
X-100080Y83826D01*
X-100004D01*
X-99914Y83833D01*
X-99816Y83847D01*
X-99712Y83861D01*
X-99483Y83895D01*
X-99247Y83951D01*
X-99018Y84034D01*
X-98914Y84083D01*
X-98810Y84138D01*
X-98803Y84145D01*
X-98782Y84173D01*
X-98755Y84229D01*
X-98720Y84298D01*
X-98685Y84402D01*
X-98664Y84458D01*
X-98643Y84527D01*
X-98630Y84603D01*
X-98609Y84687D01*
X-98588Y84777D01*
X-98574Y84874D01*
Y84881D01*
Y84888D01*
X-98567Y84930D01*
X-98553Y84992D01*
X-98546Y85068D01*
X-98526Y85145D01*
X-98512Y85214D01*
X-98498Y85283D01*
X-98477Y85325D01*
X-98470Y85332D01*
X-98463Y85353D01*
X-98442Y85374D01*
X-98414Y85408D01*
X-98380Y85436D01*
X-98331Y85457D01*
X-98269Y85478D01*
X-98199Y85485D01*
X-98185D01*
X-98144Y85478D01*
X-98081Y85457D01*
X-98012Y85422D01*
X-97984Y85395D01*
X-97949Y85360D01*
X-97915Y85318D01*
X-97887Y85270D01*
X-97866Y85214D01*
X-97845Y85145D01*
X-97838Y85068D01*
X-97831Y84978D01*
Y84964D01*
Y84936D01*
X-97838Y84881D01*
Y84819D01*
X-97852Y84735D01*
X-97866Y84638D01*
X-97880Y84534D01*
X-97908Y84423D01*
X-97936Y84305D01*
X-97977Y84187D01*
X-98026Y84062D01*
X-98088Y83944D01*
X-98158Y83826D01*
X-98234Y83715D01*
X-98331Y83611D01*
X-98435Y83514D01*
Y83500D01*
X-98442Y83493D01*
X-98463Y83486D01*
X-98491Y83472D01*
X-98539Y83444D01*
X-98595Y83424D01*
X-98664Y83396D01*
X-98747Y83361D01*
X-98845Y83333D01*
X-98956Y83299D01*
X-99081Y83271D01*
X-99212Y83236D01*
X-99365Y83215D01*
X-99525Y83195D01*
X-99698Y83174D01*
X-99886Y83167D01*
X-100087Y83160D01*
X-100358D01*
X-100489Y83167D01*
X-100649Y83174D01*
X-100823D01*
X-101017Y83188D01*
X-101218Y83195D01*
X-101426Y83208D01*
X-101850Y83243D01*
X-102065Y83271D01*
X-102266Y83292D01*
X-102467Y83326D01*
X-102648Y83361D01*
X-102662D01*
X-102690Y83375D01*
X-102738Y83382D01*
X-102801Y83403D01*
X-102925Y83444D01*
X-102988Y83472D01*
X-103036Y83500D01*
X-103043Y83507D01*
X-103057Y83514D01*
X-103071Y83542D01*
X-103092Y83569D01*
X-103120Y83604D01*
X-103134Y83653D01*
X-103147Y83708D01*
X-103154Y83771D01*
Y83784D01*
X-103147Y83812D01*
X-103134Y83861D01*
X-103106Y83909D01*
X-103064Y83958D01*
X-102995Y84007D01*
X-102946Y84020D01*
X-102898Y84034D01*
X-102842Y84048D01*
X-102703D01*
X-102648Y84041D01*
X-102578Y84034D01*
X-102495Y84027D01*
X-102405Y84013D01*
X-102301Y83993D01*
Y84007D01*
X-102308Y84048D01*
Y84104D01*
X-102315Y84187D01*
X-102329Y84291D01*
X-102336Y84409D01*
X-102342Y84541D01*
X-102356Y84687D01*
X-102363Y84839D01*
X-102377Y84999D01*
X-102391Y85332D01*
X-102405Y85672D01*
X-102412Y85832D01*
Y85991D01*
Y85998D01*
Y86005D01*
Y86026D01*
Y86054D01*
Y86089D01*
Y86130D01*
Y86227D01*
X-102405Y86359D01*
Y86505D01*
X-102398Y86678D01*
X-102391Y86866D01*
X-102377Y87074D01*
X-102363Y87303D01*
X-102349Y87539D01*
X-102336Y87789D01*
X-102308Y88052D01*
X-102287Y88323D01*
X-102225Y88878D01*
X-102405Y88858D01*
X-102447D01*
X-102481Y88864D01*
X-102537Y88878D01*
X-102599Y88899D01*
X-102662Y88941D01*
X-102710Y88996D01*
X-102752Y89080D01*
X-102759Y89128D01*
X-102766Y89184D01*
Y89198D01*
Y89225D01*
X-102752Y89267D01*
X-102738Y89316D01*
X-102717Y89371D01*
X-102682Y89427D01*
X-102634Y89482D01*
X-102565Y89524D01*
X-102558Y89531D01*
X-102530Y89538D01*
X-102481Y89552D01*
X-102412Y89572D01*
X-102322Y89586D01*
X-102217Y89600D01*
X-102086Y89607D01*
X-101933Y89614D01*
X-101815D01*
X-101753Y89607D01*
D02*
G37*
G36*
X-116681Y89343D02*
X-116590D01*
X-116486Y89336D01*
X-116375D01*
X-116257Y89329D01*
X-116000Y89309D01*
X-115723Y89288D01*
X-115438Y89260D01*
X-115161Y89218D01*
X-114883Y89170D01*
X-114626Y89107D01*
X-114508Y89073D01*
X-114397Y89038D01*
X-114293Y88996D01*
X-114196Y88955D01*
X-114120Y88906D01*
X-114050Y88851D01*
X-113995Y88795D01*
X-113953Y88740D01*
X-113925Y88677D01*
X-113918Y88608D01*
Y88601D01*
Y88587D01*
X-113925Y88559D01*
X-113932Y88524D01*
X-113946Y88483D01*
X-113967Y88441D01*
X-113995Y88399D01*
X-114029Y88358D01*
X-114036Y88351D01*
X-114050Y88344D01*
X-114071Y88323D01*
X-114099Y88302D01*
X-114168Y88268D01*
X-114210Y88254D01*
X-114258Y88247D01*
X-114293D01*
X-114321Y88254D01*
X-114390Y88268D01*
X-114474Y88302D01*
X-114480Y88309D01*
X-114501Y88316D01*
X-114529Y88330D01*
X-114564Y88344D01*
X-114626Y88379D01*
X-114654Y88393D01*
X-114675Y88399D01*
X-114682D01*
X-114696Y88406D01*
X-114723Y88413D01*
X-114765Y88427D01*
X-114821Y88434D01*
X-114890Y88448D01*
X-114973Y88469D01*
X-115077Y88483D01*
X-115188Y88504D01*
X-115320Y88517D01*
X-115466Y88538D01*
X-115633Y88559D01*
X-115820Y88580D01*
X-116021Y88594D01*
X-116243Y88615D01*
X-116486Y88629D01*
Y88622D01*
Y88608D01*
Y88587D01*
Y88559D01*
Y88517D01*
X-116479Y88469D01*
Y88358D01*
Y88219D01*
X-116472Y88066D01*
Y87886D01*
X-116465Y87705D01*
X-116458Y87504D01*
Y87303D01*
X-116452Y86901D01*
Y86706D01*
X-116445Y86519D01*
Y86345D01*
Y86193D01*
Y86186D01*
Y86179D01*
Y86151D01*
Y86123D01*
Y86089D01*
Y86047D01*
Y85936D01*
Y85811D01*
Y85658D01*
X-116452Y85485D01*
Y85304D01*
X-116458Y85103D01*
Y84895D01*
X-116472Y84465D01*
X-116493Y84034D01*
X-116500Y83819D01*
X-116514Y83618D01*
Y83611D01*
Y83604D01*
X-116521Y83562D01*
X-116528Y83500D01*
X-116535Y83430D01*
X-116569Y83264D01*
X-116597Y83195D01*
X-116625Y83132D01*
X-116632Y83125D01*
X-116639Y83104D01*
X-116667Y83083D01*
X-116694Y83056D01*
X-116736Y83021D01*
X-116791Y83000D01*
X-116854Y82979D01*
X-116923Y82972D01*
X-116937D01*
X-116979Y82979D01*
X-117027Y83000D01*
X-117090Y83028D01*
X-117152Y83083D01*
X-117187Y83125D01*
X-117208Y83167D01*
X-117229Y83222D01*
X-117250Y83285D01*
X-117256Y83354D01*
X-117263Y83437D01*
Y83458D01*
Y83472D01*
Y83493D01*
X-117256Y83528D01*
Y83569D01*
Y83618D01*
X-117250Y83680D01*
X-117243Y83764D01*
Y83854D01*
X-117236Y83965D01*
X-117229Y84090D01*
X-117215Y84236D01*
X-117208Y84402D01*
Y84416D01*
Y84444D01*
X-117201Y84492D01*
Y84562D01*
X-117194Y84652D01*
X-117187Y84749D01*
Y84860D01*
X-117180Y84992D01*
X-117173Y85124D01*
X-117166Y85270D01*
Y85429D01*
X-117159Y85589D01*
X-117152Y85922D01*
Y86269D01*
Y86276D01*
Y86297D01*
Y86331D01*
Y86380D01*
Y86442D01*
Y86533D01*
Y86630D01*
X-117159Y86755D01*
Y86901D01*
Y87074D01*
X-117166Y87268D01*
Y87483D01*
Y87601D01*
X-117173Y87726D01*
Y87865D01*
Y88004D01*
X-117180Y88150D01*
Y88302D01*
X-117187Y88469D01*
Y88635D01*
X-117243D01*
X-117312Y88629D01*
X-117402D01*
X-117506Y88622D01*
X-117631Y88615D01*
X-117770Y88601D01*
X-117916Y88587D01*
X-118221Y88545D01*
X-118534Y88490D01*
X-118679Y88455D01*
X-118818Y88413D01*
X-118943Y88372D01*
X-119054Y88316D01*
Y88309D01*
X-119061Y88288D01*
Y88254D01*
X-119068Y88205D01*
X-119082Y88150D01*
X-119096Y88087D01*
X-119137Y87962D01*
X-119193Y87830D01*
X-119228Y87768D01*
X-119269Y87713D01*
X-119318Y87671D01*
X-119373Y87629D01*
X-119429Y87608D01*
X-119498Y87601D01*
X-119512D01*
X-119547Y87608D01*
X-119595Y87622D01*
X-119644Y87657D01*
X-119699Y87713D01*
X-119727Y87747D01*
X-119748Y87789D01*
X-119769Y87837D01*
X-119783Y87900D01*
X-119790Y87969D01*
X-119797Y88046D01*
Y88052D01*
Y88080D01*
Y88115D01*
X-119790Y88164D01*
X-119783Y88219D01*
X-119776Y88288D01*
X-119741Y88434D01*
X-119685Y88594D01*
X-119651Y88670D01*
X-119609Y88747D01*
X-119554Y88816D01*
X-119491Y88878D01*
X-119422Y88934D01*
X-119345Y88982D01*
X-119339Y88989D01*
X-119311Y88996D01*
X-119262Y89017D01*
X-119200Y89038D01*
X-119116Y89066D01*
X-119019Y89100D01*
X-118894Y89135D01*
X-118756Y89170D01*
X-118603Y89198D01*
X-118422Y89232D01*
X-118228Y89267D01*
X-118013Y89295D01*
X-117784Y89316D01*
X-117527Y89336D01*
X-117256Y89343D01*
X-116965Y89350D01*
X-116764D01*
X-116681Y89343D01*
D02*
G37*
G36*
X-85714Y88323D02*
X-85686Y88316D01*
X-85652Y88302D01*
X-85617Y88282D01*
X-85575Y88254D01*
X-85527Y88212D01*
X-85478Y88164D01*
X-85430Y88101D01*
X-85374Y88025D01*
X-85319Y87934D01*
X-85270Y87830D01*
X-85215Y87705D01*
X-85166Y87560D01*
X-85117Y87393D01*
X-85110Y87400D01*
X-85097Y87428D01*
X-85076Y87463D01*
X-85048Y87504D01*
X-85006Y87560D01*
X-84958Y87622D01*
X-84902Y87685D01*
X-84840Y87754D01*
X-84770Y87823D01*
X-84687Y87886D01*
X-84597Y87948D01*
X-84500Y88004D01*
X-84396Y88046D01*
X-84278Y88087D01*
X-84160Y88108D01*
X-84028Y88115D01*
X-83965D01*
X-83903Y88108D01*
X-83820Y88094D01*
X-83729Y88073D01*
X-83632Y88046D01*
X-83542Y88004D01*
X-83452Y87948D01*
X-83445Y87941D01*
X-83417Y87921D01*
X-83382Y87879D01*
X-83334Y87830D01*
X-83292Y87775D01*
X-83258Y87699D01*
X-83230Y87615D01*
X-83223Y87525D01*
Y87518D01*
Y87504D01*
X-83230Y87476D01*
Y87442D01*
X-83258Y87372D01*
X-83278Y87331D01*
X-83306Y87296D01*
X-83313Y87289D01*
X-83320Y87282D01*
X-83362Y87254D01*
X-83424Y87220D01*
X-83466Y87213D01*
X-83507Y87206D01*
X-83521D01*
X-83542Y87213D01*
X-83570Y87220D01*
X-83605Y87234D01*
X-83653Y87261D01*
X-83702Y87289D01*
X-83764Y87331D01*
X-83771Y87338D01*
X-83792Y87352D01*
X-83827Y87372D01*
X-83861Y87400D01*
X-83958Y87442D01*
X-84014Y87456D01*
X-84062Y87463D01*
X-84076D01*
X-84118Y87456D01*
X-84180Y87449D01*
X-84264Y87428D01*
X-84347Y87386D01*
X-84444Y87331D01*
X-84534Y87261D01*
X-84576Y87213D01*
X-84618Y87157D01*
X-84625Y87143D01*
X-84652Y87102D01*
X-84680Y87039D01*
X-84722Y86942D01*
X-84756Y86831D01*
X-84791Y86692D01*
X-84819Y86526D01*
X-84826Y86345D01*
Y85880D01*
Y85873D01*
Y85846D01*
Y85804D01*
Y85748D01*
X-84833Y85686D01*
Y85603D01*
X-84840Y85519D01*
X-84847Y85429D01*
X-84868Y85228D01*
X-84895Y85020D01*
X-84937Y84812D01*
X-84965Y84714D01*
X-84992Y84624D01*
Y84617D01*
X-84999Y84603D01*
X-85006Y84583D01*
X-85020Y84555D01*
X-85055Y84485D01*
X-85097Y84409D01*
X-85159Y84333D01*
X-85228Y84263D01*
X-85263Y84236D01*
X-85305Y84215D01*
X-85346Y84201D01*
X-85395Y84194D01*
X-85409D01*
X-85444Y84201D01*
X-85499Y84208D01*
X-85555Y84236D01*
X-85610Y84270D01*
X-85666Y84326D01*
X-85700Y84409D01*
X-85707Y84458D01*
X-85714Y84513D01*
Y84520D01*
Y84527D01*
X-85707Y84555D01*
X-85700Y84596D01*
X-85693Y84659D01*
X-85673Y84742D01*
X-85659Y84791D01*
X-85652Y84846D01*
X-85631Y84916D01*
X-85617Y84985D01*
Y84992D01*
X-85610Y85006D01*
Y85027D01*
X-85603Y85054D01*
X-85589Y85096D01*
X-85582Y85138D01*
X-85562Y85242D01*
X-85548Y85360D01*
X-85527Y85492D01*
X-85520Y85624D01*
X-85513Y85762D01*
Y85776D01*
Y85804D01*
Y85860D01*
X-85520Y85929D01*
Y86012D01*
X-85527Y86109D01*
X-85534Y86220D01*
X-85548Y86338D01*
X-85562Y86463D01*
X-85582Y86595D01*
X-85638Y86866D01*
X-85707Y87123D01*
X-85756Y87248D01*
X-85804Y87366D01*
X-85811Y87372D01*
X-85818Y87393D01*
X-85832Y87421D01*
X-85853Y87463D01*
X-85888Y87532D01*
X-85936Y87615D01*
X-85964Y87671D01*
X-85999Y87733D01*
X-86006Y87740D01*
X-86013Y87761D01*
X-86027Y87796D01*
X-86047Y87830D01*
X-86082Y87921D01*
X-86089Y87969D01*
X-86096Y88011D01*
Y88018D01*
Y88032D01*
X-86089Y88052D01*
X-86082Y88080D01*
X-86068Y88115D01*
X-86047Y88150D01*
X-86020Y88191D01*
X-85985Y88226D01*
X-85978Y88233D01*
X-85964Y88240D01*
X-85943Y88261D01*
X-85915Y88282D01*
X-85839Y88316D01*
X-85798Y88323D01*
X-85749Y88330D01*
X-85735D01*
X-85714Y88323D01*
D02*
G37*
G36*
X-90926Y88941D02*
X-90878Y88927D01*
X-90815Y88892D01*
X-90753Y88844D01*
X-90725Y88809D01*
X-90697Y88760D01*
X-90676Y88712D01*
X-90662Y88656D01*
X-90655Y88587D01*
X-90649Y88511D01*
Y88504D01*
Y88490D01*
Y88462D01*
X-90655Y88420D01*
X-90662Y88372D01*
X-90669Y88309D01*
X-90676Y88233D01*
X-90697Y88143D01*
X-90711Y88046D01*
X-90739Y87928D01*
X-90767Y87803D01*
X-90801Y87657D01*
X-90843Y87504D01*
X-90891Y87331D01*
X-90954Y87143D01*
X-91016Y86942D01*
X-91023Y86928D01*
X-91030Y86893D01*
X-91051Y86838D01*
X-91086Y86762D01*
X-91120Y86658D01*
X-91169Y86540D01*
X-91225Y86394D01*
X-91294Y86234D01*
X-91370Y86054D01*
X-91461Y85860D01*
X-91565Y85644D01*
X-91669Y85415D01*
X-91794Y85172D01*
X-91926Y84909D01*
X-92071Y84638D01*
X-92231Y84347D01*
Y84340D01*
X-92238Y84333D01*
X-92245Y84312D01*
X-92259Y84284D01*
X-92293Y84215D01*
X-92342Y84124D01*
X-92391Y84013D01*
X-92453Y83895D01*
X-92515Y83771D01*
X-92585Y83639D01*
X-92592Y83625D01*
X-92613Y83597D01*
X-92647Y83548D01*
X-92689Y83500D01*
X-92744Y83451D01*
X-92807Y83403D01*
X-92876Y83375D01*
X-92953Y83361D01*
X-92974D01*
X-92994Y83368D01*
X-93029Y83375D01*
X-93064Y83389D01*
X-93098Y83410D01*
X-93140Y83437D01*
X-93182Y83472D01*
X-93189Y83479D01*
X-93195Y83493D01*
X-93209Y83514D01*
X-93230Y83542D01*
X-93265Y83618D01*
X-93272Y83659D01*
X-93279Y83708D01*
Y83722D01*
X-93272Y83757D01*
X-93265Y83812D01*
X-93237Y83895D01*
X-93203Y84000D01*
X-93147Y84131D01*
X-93071Y84291D01*
X-93022Y84381D01*
X-92967Y84478D01*
Y84485D01*
X-92960Y84492D01*
X-92932Y84534D01*
X-92897Y84596D01*
X-92856Y84680D01*
X-92800Y84770D01*
X-92738Y84881D01*
X-92668Y84999D01*
X-92599Y85117D01*
X-92467Y85353D01*
X-92404Y85464D01*
X-92349Y85561D01*
X-92293Y85644D01*
X-92259Y85714D01*
X-92231Y85762D01*
X-92224Y85776D01*
X-92217Y85783D01*
X-92224Y85797D01*
X-92245Y85825D01*
X-92286Y85873D01*
X-92335Y85943D01*
X-92391Y86026D01*
X-92460Y86130D01*
X-92536Y86241D01*
X-92620Y86359D01*
X-92703Y86491D01*
X-92793Y86630D01*
X-92980Y86928D01*
X-93161Y87240D01*
X-93327Y87546D01*
Y87553D01*
X-93341Y87574D01*
X-93355Y87608D01*
X-93376Y87650D01*
X-93404Y87705D01*
X-93432Y87768D01*
X-93487Y87900D01*
X-93550Y88046D01*
X-93605Y88191D01*
X-93640Y88323D01*
X-93647Y88379D01*
X-93654Y88427D01*
Y88434D01*
Y88441D01*
X-93647Y88476D01*
X-93640Y88531D01*
X-93612Y88594D01*
X-93577Y88649D01*
X-93522Y88705D01*
X-93445Y88740D01*
X-93404Y88753D01*
X-93341D01*
X-93313Y88747D01*
X-93279Y88733D01*
X-93223Y88712D01*
X-93168Y88670D01*
X-93105Y88608D01*
X-93071Y88573D01*
X-93029Y88524D01*
X-92994Y88476D01*
X-92960Y88413D01*
Y88406D01*
X-92953Y88399D01*
X-92939Y88379D01*
X-92932Y88351D01*
X-92897Y88275D01*
X-92848Y88177D01*
X-92800Y88066D01*
X-92738Y87934D01*
X-92675Y87803D01*
X-92613Y87657D01*
X-92606Y87650D01*
X-92599Y87629D01*
X-92578Y87594D01*
X-92557Y87546D01*
X-92529Y87490D01*
X-92495Y87421D01*
X-92453Y87345D01*
X-92404Y87261D01*
X-92300Y87074D01*
X-92182Y86873D01*
X-92044Y86658D01*
X-91898Y86442D01*
Y86449D01*
X-91884Y86470D01*
X-91870Y86512D01*
X-91856Y86560D01*
X-91828Y86623D01*
X-91808Y86699D01*
X-91780Y86782D01*
X-91745Y86873D01*
X-91710Y86977D01*
X-91676Y87088D01*
X-91606Y87331D01*
X-91537Y87594D01*
X-91474Y87865D01*
Y87872D01*
X-91467Y87900D01*
X-91461Y87934D01*
X-91447Y87983D01*
X-91433Y88046D01*
X-91419Y88108D01*
X-91391Y88254D01*
X-91363Y88393D01*
X-91350Y88462D01*
X-91336Y88524D01*
X-91322Y88573D01*
X-91315Y88615D01*
X-91308Y88635D01*
Y88649D01*
Y88656D01*
X-91301Y88663D01*
X-91287Y88698D01*
X-91266Y88747D01*
X-91225Y88802D01*
X-91183Y88851D01*
X-91127Y88899D01*
X-91058Y88934D01*
X-91023Y88948D01*
X-90968D01*
X-90926Y88941D01*
D02*
G37*
G36*
X-95902Y88483D02*
X-95867D01*
X-95819Y88476D01*
X-95708Y88455D01*
X-95576Y88420D01*
X-95430Y88365D01*
X-95278Y88288D01*
X-95111Y88191D01*
X-95035Y88136D01*
X-94951Y88066D01*
X-94875Y87997D01*
X-94799Y87914D01*
X-94722Y87823D01*
X-94653Y87719D01*
X-94583Y87608D01*
X-94521Y87490D01*
X-94466Y87358D01*
X-94410Y87220D01*
X-94362Y87067D01*
X-94327Y86907D01*
X-94292Y86727D01*
X-94271Y86540D01*
X-94257Y86338D01*
X-94250Y86123D01*
Y86109D01*
Y86082D01*
Y86026D01*
X-94257Y85957D01*
Y85866D01*
X-94264Y85755D01*
X-94271Y85637D01*
X-94285Y85499D01*
X-94299Y85353D01*
X-94320Y85193D01*
X-94348Y85020D01*
X-94375Y84846D01*
X-94403Y84659D01*
X-94445Y84465D01*
X-94542Y84069D01*
Y84062D01*
X-94549Y84048D01*
X-94556Y84020D01*
X-94570Y83986D01*
X-94597Y83902D01*
X-94646Y83805D01*
X-94709Y83701D01*
X-94778Y83618D01*
X-94819Y83583D01*
X-94868Y83555D01*
X-94917Y83542D01*
X-94965Y83535D01*
X-94979D01*
X-95014Y83542D01*
X-95056Y83555D01*
X-95111Y83576D01*
X-95166Y83618D01*
X-95208Y83673D01*
X-95243Y83757D01*
X-95250Y83812D01*
X-95257Y83868D01*
Y83882D01*
Y83909D01*
X-95250Y83944D01*
X-95243Y83972D01*
X-95250D01*
X-95257Y83965D01*
X-95278Y83951D01*
X-95305Y83944D01*
X-95382Y83909D01*
X-95479Y83875D01*
X-95590Y83840D01*
X-95722Y83805D01*
X-95860Y83784D01*
X-96006Y83777D01*
X-96076D01*
X-96117Y83784D01*
X-96180Y83791D01*
X-96249Y83798D01*
X-96319Y83812D01*
X-96402Y83826D01*
X-96575Y83875D01*
X-96756Y83944D01*
X-96846Y83986D01*
X-96929Y84041D01*
X-97013Y84097D01*
X-97089Y84166D01*
X-97096Y84173D01*
X-97103Y84187D01*
X-97124Y84208D01*
X-97151Y84236D01*
X-97179Y84277D01*
X-97214Y84326D01*
X-97249Y84381D01*
X-97283Y84451D01*
X-97318Y84520D01*
X-97353Y84603D01*
X-97387Y84694D01*
X-97415Y84791D01*
X-97443Y84902D01*
X-97464Y85013D01*
X-97471Y85131D01*
X-97478Y85263D01*
Y85270D01*
Y85297D01*
Y85332D01*
X-97471Y85381D01*
X-97464Y85443D01*
X-97457Y85513D01*
X-97443Y85589D01*
X-97422Y85672D01*
X-97373Y85852D01*
X-97339Y85950D01*
X-97304Y86040D01*
X-97255Y86137D01*
X-97200Y86227D01*
X-97137Y86311D01*
X-97061Y86394D01*
X-97054Y86401D01*
X-97040Y86415D01*
X-97019Y86436D01*
X-96985Y86463D01*
X-96943Y86491D01*
X-96888Y86526D01*
X-96832Y86567D01*
X-96763Y86609D01*
X-96686Y86644D01*
X-96603Y86685D01*
X-96513Y86720D01*
X-96409Y86755D01*
X-96305Y86775D01*
X-96194Y86796D01*
X-96069Y86810D01*
X-95944Y86817D01*
X-95888D01*
X-95840Y86810D01*
X-95791Y86803D01*
X-95729Y86796D01*
X-95659Y86782D01*
X-95590Y86769D01*
X-95430Y86720D01*
X-95340Y86685D01*
X-95257Y86651D01*
X-95166Y86602D01*
X-95083Y86546D01*
X-95000Y86484D01*
X-94917Y86415D01*
Y86422D01*
Y86428D01*
Y86449D01*
X-94924Y86477D01*
X-94930Y86546D01*
X-94944Y86637D01*
X-94965Y86741D01*
X-94993Y86859D01*
X-95028Y86991D01*
X-95076Y87123D01*
X-95132Y87248D01*
X-95201Y87379D01*
X-95291Y87497D01*
X-95389Y87601D01*
X-95507Y87692D01*
X-95645Y87761D01*
X-95715Y87789D01*
X-95798Y87810D01*
X-95881Y87817D01*
X-95972Y87823D01*
X-96013D01*
X-96055Y87817D01*
X-96110Y87810D01*
X-96187Y87789D01*
X-96263Y87768D01*
X-96353Y87733D01*
X-96443Y87692D01*
X-96457Y87685D01*
X-96485Y87671D01*
X-96527Y87650D01*
X-96575Y87629D01*
X-96686Y87587D01*
X-96735Y87574D01*
X-96770Y87567D01*
X-96790D01*
X-96811Y87574D01*
X-96846Y87581D01*
X-96915Y87608D01*
X-96957Y87629D01*
X-96992Y87664D01*
X-96999Y87671D01*
X-97006Y87685D01*
X-97019Y87699D01*
X-97033Y87726D01*
X-97068Y87803D01*
X-97075Y87844D01*
X-97082Y87893D01*
Y87900D01*
X-97075Y87928D01*
X-97068Y87969D01*
X-97040Y88025D01*
X-97006Y88087D01*
X-96950Y88150D01*
X-96874Y88219D01*
X-96825Y88254D01*
X-96770Y88288D01*
X-96763D01*
X-96756Y88295D01*
X-96735Y88309D01*
X-96707Y88323D01*
X-96638Y88351D01*
X-96548Y88393D01*
X-96430Y88427D01*
X-96298Y88462D01*
X-96145Y88483D01*
X-95978Y88490D01*
X-95937D01*
X-95902Y88483D01*
D02*
G37*
G36*
X-88074Y88698D02*
X-88011Y88691D01*
X-87942Y88677D01*
X-87859Y88663D01*
X-87775Y88642D01*
X-87685Y88622D01*
X-87588Y88587D01*
X-87491Y88552D01*
X-87394Y88504D01*
X-87296Y88448D01*
X-87199Y88386D01*
X-87102Y88309D01*
X-87012Y88226D01*
X-87005Y88219D01*
X-86991Y88205D01*
X-86970Y88177D01*
X-86936Y88143D01*
X-86901Y88094D01*
X-86866Y88039D01*
X-86825Y87969D01*
X-86776Y87893D01*
X-86734Y87810D01*
X-86693Y87719D01*
X-86658Y87622D01*
X-86616Y87511D01*
X-86589Y87400D01*
X-86568Y87275D01*
X-86554Y87143D01*
X-86547Y87011D01*
Y87005D01*
Y86998D01*
Y86977D01*
X-86554Y86949D01*
X-86561Y86887D01*
X-86582Y86803D01*
X-86610Y86713D01*
X-86658Y86623D01*
X-86721Y86533D01*
X-86811Y86456D01*
X-86818D01*
X-86839Y86442D01*
X-86880Y86429D01*
X-86908Y86415D01*
X-86943Y86401D01*
X-86984Y86387D01*
X-87040Y86373D01*
X-87095Y86359D01*
X-87165Y86338D01*
X-87241Y86317D01*
X-87331Y86297D01*
X-87428Y86276D01*
X-87539Y86255D01*
X-87546D01*
X-87574Y86248D01*
X-87616Y86241D01*
X-87678Y86227D01*
X-87748Y86213D01*
X-87824Y86199D01*
X-87921Y86186D01*
X-88018Y86172D01*
X-88233Y86144D01*
X-88469Y86116D01*
X-88705Y86095D01*
X-88927Y86089D01*
X-89025D01*
X-89101Y86095D01*
X-89191D01*
X-89302Y86102D01*
X-89420Y86109D01*
X-89552Y86123D01*
Y86116D01*
Y86109D01*
Y86089D01*
Y86068D01*
X-89545Y85998D01*
X-89538Y85908D01*
X-89517Y85811D01*
X-89496Y85693D01*
X-89469Y85568D01*
X-89420Y85443D01*
X-89372Y85318D01*
X-89302Y85193D01*
X-89219Y85075D01*
X-89122Y84978D01*
X-89004Y84888D01*
X-88865Y84819D01*
X-88789Y84798D01*
X-88705Y84777D01*
X-88615Y84770D01*
X-88525Y84763D01*
X-88476D01*
X-88428Y84770D01*
X-88358Y84784D01*
X-88282Y84805D01*
X-88192Y84832D01*
X-88108Y84867D01*
X-88018Y84923D01*
X-88011Y84930D01*
X-87998Y84936D01*
X-87963Y84964D01*
X-87921Y84999D01*
X-87866Y85048D01*
X-87789Y85117D01*
X-87706Y85200D01*
X-87602Y85304D01*
X-87595Y85311D01*
X-87581Y85325D01*
X-87560Y85339D01*
X-87533Y85367D01*
X-87463Y85401D01*
X-87422Y85415D01*
X-87380Y85422D01*
X-87352D01*
X-87324Y85415D01*
X-87290Y85408D01*
X-87248Y85395D01*
X-87206Y85374D01*
X-87158Y85346D01*
X-87116Y85304D01*
X-87109Y85297D01*
X-87095Y85283D01*
X-87081Y85263D01*
X-87061Y85228D01*
X-87040Y85186D01*
X-87019Y85138D01*
X-87012Y85089D01*
X-87005Y85027D01*
Y85020D01*
Y85006D01*
X-87012Y84978D01*
X-87019Y84943D01*
X-87033Y84909D01*
X-87047Y84867D01*
X-87075Y84819D01*
X-87109Y84777D01*
X-87116Y84770D01*
X-87137Y84749D01*
X-87172Y84714D01*
X-87220Y84673D01*
X-87276Y84624D01*
X-87345Y84569D01*
X-87428Y84506D01*
X-87519Y84444D01*
X-87623Y84381D01*
X-87734Y84319D01*
X-87852Y84263D01*
X-87984Y84215D01*
X-88116Y84173D01*
X-88261Y84138D01*
X-88407Y84118D01*
X-88560Y84111D01*
X-88601D01*
X-88636Y84118D01*
X-88671D01*
X-88719Y84124D01*
X-88823Y84145D01*
X-88955Y84173D01*
X-89101Y84215D01*
X-89254Y84277D01*
X-89413Y84360D01*
X-89573Y84465D01*
X-89649Y84527D01*
X-89726Y84596D01*
X-89802Y84673D01*
X-89871Y84756D01*
X-89941Y84846D01*
X-90003Y84950D01*
X-90059Y85054D01*
X-90107Y85172D01*
X-90156Y85304D01*
X-90191Y85443D01*
X-90225Y85589D01*
X-90246Y85748D01*
X-90260Y85915D01*
X-90267Y86095D01*
Y86109D01*
Y86144D01*
X-90260Y86193D01*
Y86269D01*
X-90253Y86352D01*
X-90239Y86456D01*
X-90218Y86574D01*
X-90197Y86699D01*
X-90170Y86831D01*
X-90135Y86977D01*
X-90093Y87123D01*
X-90038Y87268D01*
X-89975Y87421D01*
X-89906Y87567D01*
X-89823Y87719D01*
X-89726Y87858D01*
X-89719Y87865D01*
X-89698Y87893D01*
X-89663Y87934D01*
X-89614Y87990D01*
X-89552Y88052D01*
X-89483Y88129D01*
X-89399Y88205D01*
X-89302Y88282D01*
X-89198Y88358D01*
X-89080Y88434D01*
X-88955Y88511D01*
X-88816Y88573D01*
X-88671Y88629D01*
X-88518Y88670D01*
X-88358Y88698D01*
X-88192Y88705D01*
X-88122D01*
X-88074Y88698D01*
D02*
G37*
G36*
X-108790Y88434D02*
X-108734Y88427D01*
X-108672Y88399D01*
X-108609Y88358D01*
X-108547Y88302D01*
X-108505Y88219D01*
X-108498Y88164D01*
X-108491Y88108D01*
X-108477Y87893D01*
X-108470Y87900D01*
X-108457Y87914D01*
X-108436Y87934D01*
X-108401Y87955D01*
X-108359Y87990D01*
X-108304Y88025D01*
X-108248Y88060D01*
X-108179Y88101D01*
X-108103Y88143D01*
X-108019Y88177D01*
X-107929Y88212D01*
X-107832Y88247D01*
X-107721Y88268D01*
X-107610Y88288D01*
X-107492Y88302D01*
X-107367Y88309D01*
X-107291D01*
X-107235Y88302D01*
X-107166Y88295D01*
X-107082Y88282D01*
X-106992Y88261D01*
X-106902Y88240D01*
X-106798Y88212D01*
X-106694Y88177D01*
X-106583Y88129D01*
X-106472Y88080D01*
X-106368Y88018D01*
X-106257Y87941D01*
X-106159Y87858D01*
X-106062Y87761D01*
X-106055Y87754D01*
X-106042Y87733D01*
X-106014Y87705D01*
X-105986Y87657D01*
X-105944Y87601D01*
X-105903Y87539D01*
X-105854Y87456D01*
X-105806Y87365D01*
X-105764Y87261D01*
X-105715Y87150D01*
X-105674Y87025D01*
X-105632Y86893D01*
X-105604Y86748D01*
X-105577Y86595D01*
X-105563Y86436D01*
X-105556Y86262D01*
Y86255D01*
Y86220D01*
Y86172D01*
X-105563Y86109D01*
X-105570Y86033D01*
X-105583Y85943D01*
X-105604Y85839D01*
X-105625Y85735D01*
X-105653Y85617D01*
X-105687Y85499D01*
X-105736Y85374D01*
X-105785Y85249D01*
X-105847Y85131D01*
X-105923Y85013D01*
X-106007Y84895D01*
X-106104Y84791D01*
X-106111Y84784D01*
X-106132Y84770D01*
X-106159Y84742D01*
X-106201Y84707D01*
X-106257Y84666D01*
X-106326Y84617D01*
X-106402Y84569D01*
X-106493Y84520D01*
X-106590Y84471D01*
X-106701Y84423D01*
X-106826Y84374D01*
X-106951Y84333D01*
X-107089Y84298D01*
X-107242Y84270D01*
X-107402Y84256D01*
X-107568Y84249D01*
X-107617D01*
X-107659Y84256D01*
X-107700D01*
X-107756Y84263D01*
X-107818Y84270D01*
X-107887Y84277D01*
X-108040Y84305D01*
X-108207Y84347D01*
X-108387Y84402D01*
X-108568Y84478D01*
Y84471D01*
X-108575Y84444D01*
Y84402D01*
X-108581Y84347D01*
X-108589Y84277D01*
X-108595Y84208D01*
X-108616Y84041D01*
X-108644Y83861D01*
X-108665Y83694D01*
X-108679Y83618D01*
X-108686Y83548D01*
X-108700Y83493D01*
X-108706Y83451D01*
X-108713Y83437D01*
X-108727Y83403D01*
X-108748Y83347D01*
X-108783Y83292D01*
X-108824Y83236D01*
X-108887Y83181D01*
X-108956Y83146D01*
X-108998Y83139D01*
X-109040Y83132D01*
X-109060D01*
X-109088Y83139D01*
X-109123Y83146D01*
X-109206Y83174D01*
X-109248Y83195D01*
X-109289Y83229D01*
X-109296Y83236D01*
X-109303Y83243D01*
X-109324Y83264D01*
X-109338Y83292D01*
X-109380Y83361D01*
X-109387Y83410D01*
X-109394Y83458D01*
Y83465D01*
Y83479D01*
X-109387Y83507D01*
Y83535D01*
X-109380Y83562D01*
X-109373Y83597D01*
Y83646D01*
X-109366Y83694D01*
X-109359Y83757D01*
X-109345Y83833D01*
X-109338Y83916D01*
Y83923D01*
Y83944D01*
X-109331Y83972D01*
X-109324Y84013D01*
X-109317Y84062D01*
X-109310Y84124D01*
X-109303Y84194D01*
X-109296Y84270D01*
X-109289Y84360D01*
X-109283Y84451D01*
X-109262Y84652D01*
X-109241Y84881D01*
X-109227Y85117D01*
Y85131D01*
Y85158D01*
X-109220Y85207D01*
Y85277D01*
X-109213Y85367D01*
X-109206Y85471D01*
X-109199Y85589D01*
X-109192Y85721D01*
Y85860D01*
X-109185Y86019D01*
X-109178Y86186D01*
X-109171Y86359D01*
Y86540D01*
X-109165Y86734D01*
Y87129D01*
Y87136D01*
Y87171D01*
Y87213D01*
Y87275D01*
Y87345D01*
X-109171Y87428D01*
Y87518D01*
X-109178Y87622D01*
Y87636D01*
Y87664D01*
Y87713D01*
Y87768D01*
X-109185Y87830D01*
Y87886D01*
Y87928D01*
Y87962D01*
Y87969D01*
Y87983D01*
Y88004D01*
X-109178Y88039D01*
X-109165Y88115D01*
X-109144Y88205D01*
X-109102Y88288D01*
X-109040Y88365D01*
X-109005Y88399D01*
X-108956Y88420D01*
X-108908Y88434D01*
X-108845Y88441D01*
X-108831D01*
X-108790Y88434D01*
D02*
G37*
G36*
X-111732Y88733D02*
X-111677D01*
X-111600Y88719D01*
X-111517Y88705D01*
X-111427Y88691D01*
X-111323Y88663D01*
X-111212Y88635D01*
X-111101Y88594D01*
X-110990Y88545D01*
X-110872Y88483D01*
X-110761Y88413D01*
X-110643Y88337D01*
X-110539Y88240D01*
X-110434Y88136D01*
X-110428Y88129D01*
X-110414Y88108D01*
X-110386Y88073D01*
X-110351Y88025D01*
X-110310Y87969D01*
X-110268Y87893D01*
X-110219Y87810D01*
X-110164Y87713D01*
X-110115Y87608D01*
X-110067Y87490D01*
X-110025Y87358D01*
X-109983Y87220D01*
X-109949Y87067D01*
X-109921Y86907D01*
X-109907Y86734D01*
X-109900Y86554D01*
Y86540D01*
Y86505D01*
X-109907Y86449D01*
Y86380D01*
X-109921Y86290D01*
X-109935Y86186D01*
X-109949Y86075D01*
X-109976Y85950D01*
X-110011Y85818D01*
X-110053Y85679D01*
X-110101Y85540D01*
X-110164Y85401D01*
X-110233Y85263D01*
X-110317Y85124D01*
X-110407Y84999D01*
X-110518Y84874D01*
X-110525Y84867D01*
X-110546Y84846D01*
X-110580Y84819D01*
X-110629Y84777D01*
X-110691Y84728D01*
X-110768Y84680D01*
X-110858Y84617D01*
X-110955Y84562D01*
X-111066Y84506D01*
X-111191Y84451D01*
X-111330Y84395D01*
X-111476Y84347D01*
X-111635Y84305D01*
X-111802Y84277D01*
X-111982Y84256D01*
X-112170Y84249D01*
X-112204D01*
X-112253Y84256D01*
X-112308D01*
X-112385Y84270D01*
X-112468Y84277D01*
X-112558Y84298D01*
X-112655Y84326D01*
X-112759Y84354D01*
X-112870Y84395D01*
X-112981Y84437D01*
X-113093Y84492D01*
X-113204Y84562D01*
X-113315Y84638D01*
X-113412Y84728D01*
X-113509Y84832D01*
X-113516Y84839D01*
X-113530Y84860D01*
X-113551Y84895D01*
X-113585Y84936D01*
X-113620Y84999D01*
X-113662Y85068D01*
X-113703Y85158D01*
X-113745Y85256D01*
X-113794Y85360D01*
X-113835Y85485D01*
X-113877Y85617D01*
X-113911Y85762D01*
X-113946Y85915D01*
X-113967Y86082D01*
X-113981Y86262D01*
X-113988Y86449D01*
Y86463D01*
Y86498D01*
X-113981Y86554D01*
Y86630D01*
X-113967Y86720D01*
X-113960Y86824D01*
X-113939Y86942D01*
X-113911Y87067D01*
X-113884Y87206D01*
X-113842Y87345D01*
X-113800Y87483D01*
X-113745Y87622D01*
X-113675Y87761D01*
X-113599Y87900D01*
X-113509Y88025D01*
X-113405Y88143D01*
X-113398Y88150D01*
X-113377Y88170D01*
X-113342Y88198D01*
X-113301Y88233D01*
X-113238Y88282D01*
X-113169Y88330D01*
X-113086Y88386D01*
X-112988Y88441D01*
X-112884Y88497D01*
X-112766Y88552D01*
X-112635Y88601D01*
X-112489Y88649D01*
X-112336Y88684D01*
X-112176Y88712D01*
X-112003Y88733D01*
X-111816Y88740D01*
X-111781D01*
X-111732Y88733D01*
D02*
G37*
%LPC*%
G36*
X80457Y69621D02*
X79582D01*
X78773Y69286D01*
X78155Y68668D01*
X77820Y67859D01*
Y66984D01*
X78155Y66175D01*
X78773Y65556D01*
X79582Y65221D01*
X80457D01*
X81266Y65556D01*
X81885Y66175D01*
X82220Y66984D01*
Y67859D01*
X81885Y68668D01*
X81266Y69286D01*
X80457Y69621D01*
D02*
G37*
G36*
X114611Y69523D02*
X113736D01*
X112927Y69188D01*
X112308Y68569D01*
X111973Y67760D01*
Y66885D01*
X112308Y66077D01*
X112927Y65458D01*
X113736Y65123D01*
X114611D01*
X115419Y65458D01*
X116038Y66077D01*
X116373Y66885D01*
Y67760D01*
X116038Y68569D01*
X115419Y69188D01*
X114611Y69523D01*
D02*
G37*
G36*
X-101629Y65948D02*
X-102505D01*
X-103313Y65613D01*
X-103932Y64994D01*
X-104267Y64186D01*
Y63310D01*
X-103932Y62502D01*
X-103313Y61883D01*
X-102505Y61548D01*
X-101629D01*
X-100821Y61883D01*
X-100202Y62502D01*
X-99867Y63310D01*
Y64186D01*
X-100202Y64994D01*
X-100821Y65613D01*
X-101629Y65948D01*
D02*
G37*
G36*
X-22003D02*
X-22879D01*
X-23687Y65613D01*
X-24306Y64994D01*
X-24641Y64186D01*
Y63310D01*
X-24306Y62502D01*
X-23879Y62075D01*
X-24306Y61648D01*
X-24641Y60839D01*
Y59964D01*
X-24306Y59155D01*
X-23687Y58536D01*
X-22879Y58202D01*
X-22003D01*
X-21195Y58536D01*
X-20859Y58872D01*
X-14480D01*
X-12159Y56551D01*
Y44783D01*
X-12043Y44198D01*
X-11711Y43702D01*
X-8501Y40491D01*
X-8692Y40029D01*
X-23918D01*
X-24254Y40365D01*
X-25062Y40700D01*
X-25938D01*
X-26746Y40365D01*
X-27365Y39746D01*
X-27700Y38938D01*
Y38062D01*
X-27365Y37254D01*
X-26746Y36635D01*
X-25938Y36300D01*
X-25062D01*
X-24254Y36635D01*
X-23918Y36971D01*
X-6634D01*
X-1529Y31866D01*
Y-11867D01*
X-5633Y-15971D01*
X-38000D01*
X-38585Y-16087D01*
X-39081Y-16419D01*
X-46581Y-23919D01*
X-46913Y-24415D01*
X-47029Y-25000D01*
Y-50418D01*
X-47365Y-50754D01*
X-47700Y-51562D01*
Y-52438D01*
X-47365Y-53246D01*
X-46746Y-53865D01*
X-45938Y-54200D01*
X-45062D01*
X-44254Y-53865D01*
X-43635Y-53246D01*
X-43300Y-52438D01*
Y-51562D01*
X-43635Y-50754D01*
X-43971Y-50418D01*
Y-25633D01*
X-37367Y-19029D01*
X-27469D01*
X-27191Y-19445D01*
X-27298Y-19703D01*
Y-20579D01*
X-26963Y-21387D01*
X-26345Y-22006D01*
X-25536Y-22341D01*
X-24661D01*
X-23852Y-22006D01*
X-23233Y-21387D01*
X-22898Y-20579D01*
Y-19703D01*
X-23005Y-19445D01*
X-22728Y-19029D01*
X-13166D01*
X-12959Y-19529D01*
X-13381Y-19951D01*
X-13716Y-20760D01*
Y-21635D01*
X-13381Y-22444D01*
X-12762Y-23063D01*
X-11953Y-23398D01*
X-11479D01*
X-10990Y-23886D01*
X-11479Y-24375D01*
X-11953D01*
X-12762Y-24710D01*
X-13381Y-25329D01*
X-13716Y-26137D01*
Y-27012D01*
X-13381Y-27821D01*
X-12762Y-28440D01*
X-11953Y-28775D01*
X-11078D01*
X-10270Y-28440D01*
X-9651Y-27821D01*
X-9316Y-27012D01*
Y-26538D01*
X-8994Y-26216D01*
X-7090D01*
X-5663Y-27642D01*
Y-31174D01*
X-5547Y-31760D01*
X-5215Y-32256D01*
X-2900Y-34571D01*
X-2404Y-34903D01*
X-1819Y-35019D01*
X1300D01*
Y-35025D01*
X2370Y-34884D01*
X3368Y-34471D01*
X3871Y-34085D01*
X4371Y-34332D01*
Y-38943D01*
X4365D01*
X4506Y-40014D01*
X4919Y-41011D01*
X5576Y-41868D01*
X6432Y-42525D01*
X7430Y-42938D01*
X8500Y-43079D01*
X9570Y-42938D01*
X10568Y-42525D01*
X11424Y-41868D01*
X11785Y-41398D01*
X12415D01*
X12776Y-41868D01*
X13632Y-42525D01*
X14630Y-42938D01*
X15700Y-43079D01*
X16770Y-42938D01*
X17768Y-42525D01*
X18624Y-41868D01*
X19281Y-41011D01*
X19694Y-40014D01*
X19835Y-38943D01*
X19829D01*
Y-35019D01*
X28813D01*
X29399Y-34903D01*
X29895Y-34571D01*
X33866Y-30600D01*
X34290Y-30883D01*
X34217Y-31058D01*
Y-31934D01*
X34552Y-32742D01*
X35171Y-33361D01*
X35980Y-33696D01*
X36855D01*
X37663Y-33361D01*
X38282Y-32742D01*
X38617Y-31934D01*
Y-31459D01*
X39118Y-30959D01*
X45465D01*
X45801Y-31294D01*
X46348Y-31521D01*
Y-32062D01*
X45801Y-32289D01*
X45182Y-32907D01*
X44847Y-33716D01*
Y-34591D01*
X45182Y-35400D01*
X45518Y-35735D01*
Y-36473D01*
X43011Y-38979D01*
X42484D01*
X42191Y-38686D01*
X41383Y-38351D01*
X40507D01*
X39699Y-38686D01*
X39080Y-39305D01*
X38745Y-40114D01*
Y-40989D01*
X39080Y-41797D01*
X39699Y-42416D01*
X40507Y-42751D01*
X41383D01*
X42191Y-42416D01*
X42569Y-42038D01*
X43645D01*
X44230Y-41922D01*
X44726Y-41590D01*
X48129Y-38188D01*
X48460Y-37692D01*
X48577Y-37106D01*
Y-35735D01*
X48912Y-35400D01*
X49247Y-34591D01*
Y-33716D01*
X48912Y-32907D01*
X48293Y-32289D01*
X47747Y-32062D01*
Y-31521D01*
X48293Y-31294D01*
X48912Y-30675D01*
X49247Y-29867D01*
Y-28991D01*
X48912Y-28183D01*
X48293Y-27564D01*
X47485Y-27229D01*
X46610D01*
X45801Y-27564D01*
X45465Y-27900D01*
X38484D01*
X37899Y-28016D01*
X37403Y-28348D01*
X36454Y-29296D01*
X35980D01*
X35805Y-29369D01*
X35521Y-28945D01*
X38747Y-25719D01*
X39079Y-25223D01*
X39195Y-24638D01*
Y-3224D01*
X41775Y-644D01*
X56495D01*
X57080Y-527D01*
X57577Y-196D01*
X60405Y2633D01*
X60737Y3129D01*
X60853Y3715D01*
Y7796D01*
X60859D01*
X60718Y8866D01*
X60305Y9864D01*
X59919Y10367D01*
X60166Y10867D01*
X62724D01*
Y10861D01*
X63794Y11002D01*
X64792Y11415D01*
X65648Y12072D01*
X66305Y12928D01*
X66718Y13926D01*
X66859Y14996D01*
X66718Y16066D01*
X66305Y17064D01*
X65648Y17920D01*
X65178Y18281D01*
Y18911D01*
X65648Y19272D01*
X66305Y20128D01*
X66718Y21126D01*
X66859Y22196D01*
X66718Y23266D01*
X66305Y24264D01*
X65648Y25120D01*
X64792Y25777D01*
X63794Y26191D01*
X62724Y26331D01*
Y26326D01*
X60166D01*
X59919Y26825D01*
X60305Y27328D01*
X60718Y28326D01*
X60859Y29396D01*
X60853D01*
Y34701D01*
X60987Y34835D01*
X61461D01*
X62270Y35169D01*
X62889Y35788D01*
X63224Y36597D01*
Y37472D01*
X62889Y38281D01*
X62549Y38620D01*
X62756Y39120D01*
X83753D01*
X84088Y38785D01*
X84897Y38450D01*
X85772D01*
X86581Y38785D01*
X87200Y39403D01*
X87535Y40212D01*
Y40265D01*
X87628Y40334D01*
X88035Y40453D01*
X89368Y39119D01*
X89865Y38787D01*
X90450Y38671D01*
X92775D01*
X93361Y38787D01*
X93857Y39119D01*
X95294Y40556D01*
X95626Y41052D01*
X95742Y41637D01*
Y45377D01*
X96204Y45569D01*
X96654Y45119D01*
X97150Y44787D01*
X97736Y44671D01*
X105200D01*
X105785Y44787D01*
X106281Y45119D01*
X108239Y47076D01*
X109392Y48230D01*
X109724Y48726D01*
X109840Y49311D01*
Y49948D01*
X110302Y50139D01*
X111533Y48909D01*
X112029Y48577D01*
X112614Y48461D01*
X114647D01*
X115232Y48577D01*
X115728Y48909D01*
X117373Y50553D01*
X117704Y51049D01*
X117821Y51634D01*
Y53667D01*
X117704Y54252D01*
X117373Y54748D01*
X117113Y55009D01*
X117304Y55471D01*
X121300D01*
Y55062D01*
X121635Y54254D01*
X122254Y53635D01*
X123062Y53300D01*
X123938D01*
X124746Y53635D01*
X125365Y54254D01*
X125700Y55062D01*
Y55938D01*
X125365Y56746D01*
X124746Y57365D01*
X124349Y57529D01*
Y58071D01*
X124746Y58235D01*
X125365Y58854D01*
X125700Y59662D01*
Y60538D01*
X125365Y61346D01*
X124746Y61965D01*
X123938Y62300D01*
X123062D01*
X122254Y61965D01*
X121635Y61346D01*
X121300Y60538D01*
Y60129D01*
X117083D01*
X115163Y62050D01*
X114666Y62381D01*
X114081Y62498D01*
X112049D01*
X111463Y62381D01*
X110967Y62050D01*
X109323Y60405D01*
X108991Y59909D01*
X108875Y59324D01*
Y57407D01*
X106957D01*
X106372Y57290D01*
X105876Y56959D01*
X104232Y55314D01*
X103900Y54818D01*
X103784Y54233D01*
Y52200D01*
X103900Y51615D01*
X104232Y51119D01*
X104962Y50388D01*
X103904Y49329D01*
X99342D01*
Y52363D01*
X99226Y52948D01*
X98894Y53444D01*
X97457Y54881D01*
X96961Y55213D01*
X96376Y55329D01*
X94050D01*
X93465Y55213D01*
X92968Y54881D01*
X91613Y53526D01*
X90257Y54881D01*
X89761Y55213D01*
X89175Y55329D01*
X86850D01*
X86265Y55213D01*
X85769Y54881D01*
X84331Y53444D01*
X84000Y52948D01*
X83883Y52363D01*
Y49329D01*
X78200D01*
Y49738D01*
X77865Y50546D01*
X77246Y51165D01*
X76438Y51500D01*
X75562D01*
X74754Y51165D01*
X74135Y50546D01*
X73800Y49738D01*
Y48862D01*
X74135Y48054D01*
X74754Y47435D01*
X75151Y47271D01*
Y46729D01*
X74754Y46565D01*
X74135Y45946D01*
X73800Y45138D01*
Y44262D01*
X74135Y43454D01*
X74754Y42835D01*
X75130Y42679D01*
X75031Y42179D01*
X39428D01*
X39300Y42474D01*
X39274Y42679D01*
X39849Y43254D01*
X40184Y44062D01*
Y44938D01*
X39849Y45746D01*
X39230Y46365D01*
X38422Y46700D01*
X38254Y47000D01*
X38422Y47300D01*
X39230Y47635D01*
X39849Y48254D01*
X40184Y49062D01*
Y49938D01*
X39849Y50746D01*
X39230Y51365D01*
X38422Y51700D01*
X37547D01*
X36738Y51365D01*
X36119Y50746D01*
X35784Y49938D01*
Y49463D01*
X35651Y49329D01*
X31599D01*
Y50200D01*
X31605D01*
X31464Y51270D01*
X31051Y52268D01*
X30393Y53124D01*
X29537Y53781D01*
X28540Y54194D01*
X27469Y54335D01*
X26399Y54194D01*
X25402Y53781D01*
X24545Y53124D01*
X24184Y52654D01*
X23554D01*
X23193Y53124D01*
X22337Y53781D01*
X21340Y54194D01*
X20269Y54335D01*
X19199Y54194D01*
X18202Y53781D01*
X17345Y53124D01*
X16984Y52654D01*
X16354D01*
X15993Y53124D01*
X15137Y53781D01*
X14140Y54194D01*
X13069Y54335D01*
X11999Y54194D01*
X11002Y53781D01*
X10145Y53124D01*
X9488Y52268D01*
X9075Y51270D01*
X8934Y50200D01*
X8940D01*
Y49329D01*
X6030D01*
X4529Y50830D01*
Y55772D01*
X4619D01*
X5427Y56107D01*
X6046Y56726D01*
X6381Y57535D01*
Y58410D01*
X6046Y59219D01*
X5427Y59838D01*
X4619Y60172D01*
X3743D01*
X2935Y59838D01*
X2527Y59429D01*
X2200Y59274D01*
X1873Y59429D01*
X1465Y59838D01*
X656Y60172D01*
X-219D01*
X-402Y60096D01*
X-902Y60431D01*
Y60910D01*
X-1237Y61719D01*
X-1856Y62337D01*
X-2665Y62673D01*
X-3540D01*
X-4349Y62337D01*
X-4967Y61719D01*
X-5302Y60910D01*
Y60035D01*
X-4967Y59226D01*
X-4349Y58607D01*
X-3540Y58272D01*
X-2665D01*
X-2481Y58349D01*
X-1981Y58014D01*
Y57535D01*
X-1646Y56726D01*
X-1027Y56107D01*
X-219Y55772D01*
X-129D01*
Y49534D01*
X-13Y48949D01*
X319Y48453D01*
X319Y48453D01*
X3653Y45119D01*
X4149Y44787D01*
X4734Y44671D01*
X9469D01*
Y44665D01*
X10540Y44805D01*
X11537Y45219D01*
X12040Y45605D01*
X12540Y45358D01*
Y44850D01*
X12534D01*
X12675Y43779D01*
X13088Y42782D01*
X13206Y42627D01*
X12985Y42179D01*
X-5863D01*
X-9100Y45417D01*
Y57185D01*
X-9217Y57770D01*
X-9549Y58267D01*
X-12765Y61483D01*
X-13261Y61814D01*
X-13847Y61931D01*
X-20440D01*
X-20647Y62431D01*
X-20576Y62502D01*
X-20241Y63310D01*
Y64186D01*
X-20576Y64994D01*
X-21195Y65613D01*
X-22003Y65948D01*
D02*
G37*
G36*
X-14649Y46169D02*
X-15524D01*
X-16333Y45834D01*
X-16952Y45215D01*
X-17287Y44406D01*
Y43531D01*
X-16952Y42722D01*
X-16333Y42103D01*
X-15524Y41769D01*
X-14649D01*
X-13840Y42103D01*
X-13221Y42722D01*
X-12887Y43531D01*
Y44406D01*
X-13221Y45215D01*
X-13840Y45834D01*
X-14649Y46169D01*
D02*
G37*
G36*
X-85291Y44621D02*
X-86166D01*
X-86975Y44286D01*
X-87593Y43668D01*
X-87928Y42859D01*
Y41984D01*
X-87593Y41175D01*
X-86975Y40556D01*
X-86166Y40221D01*
X-85291D01*
X-84482Y40556D01*
X-83863Y41175D01*
X-83528Y41984D01*
Y42859D01*
X-83863Y43668D01*
X-84482Y44286D01*
X-85291Y44621D01*
D02*
G37*
G36*
X-133421Y43538D02*
X-134296D01*
X-134684Y43378D01*
X-136614D01*
X-137395Y43222D01*
X-138056Y42780D01*
X-142428Y38409D01*
X-142870Y37747D01*
X-143025Y36967D01*
Y-9935D01*
X-142870Y-10716D01*
X-142428Y-11377D01*
X-134999Y-18806D01*
X-134999Y-18806D01*
X-134338Y-19248D01*
X-133557Y-19403D01*
X-97369D01*
X-95764Y-21007D01*
X-95680Y-21211D01*
X-95061Y-21830D01*
X-94253Y-22165D01*
X-93377D01*
X-92569Y-21830D01*
X-91950Y-21211D01*
X-91615Y-20402D01*
Y-19527D01*
X-91950Y-18718D01*
X-92569Y-18100D01*
X-93142Y-17862D01*
X-94961Y-16043D01*
X-93323Y-14406D01*
X-92750Y-14168D01*
X-92131Y-13549D01*
X-91796Y-12741D01*
Y-11866D01*
X-92131Y-11057D01*
X-92750Y-10438D01*
X-93559Y-10103D01*
X-94434D01*
X-95242Y-10438D01*
X-95861Y-11057D01*
X-95945Y-11260D01*
X-97410Y-12725D01*
X-131636D01*
X-136347Y-8014D01*
Y34884D01*
X-135879Y35351D01*
X-134673D01*
X-134284Y35190D01*
X-133409D01*
X-132601Y35525D01*
X-131982Y36144D01*
X-131647Y36952D01*
Y37828D01*
X-131982Y38636D01*
X-132389Y39043D01*
X-132552Y39357D01*
X-132389Y39697D01*
X-131993Y40092D01*
X-131658Y40901D01*
Y41776D01*
X-131993Y42585D01*
X-132612Y43204D01*
X-133421Y43538D01*
D02*
G37*
G36*
X-70429Y41078D02*
X-71304D01*
X-72112Y40743D01*
X-72731Y40124D01*
X-73066Y39316D01*
Y38440D01*
X-72731Y37632D01*
X-72395Y37296D01*
Y34751D01*
X-72731Y34416D01*
X-73066Y33607D01*
Y32732D01*
X-72731Y31923D01*
X-72112Y31304D01*
X-71304Y30969D01*
X-70429D01*
X-69620Y31304D01*
X-69001Y31923D01*
X-68666Y32732D01*
Y33607D01*
X-69001Y34416D01*
X-69337Y34751D01*
Y37296D01*
X-69001Y37632D01*
X-68666Y38440D01*
Y39316D01*
X-69001Y40124D01*
X-69620Y40743D01*
X-70429Y41078D01*
D02*
G37*
G36*
X-14649Y35168D02*
X-15524D01*
X-16333Y34834D01*
X-16952Y34215D01*
X-17287Y33406D01*
Y32531D01*
X-16952Y31722D01*
X-16333Y31103D01*
X-15524Y30768D01*
X-14649D01*
X-13840Y31103D01*
X-13221Y31722D01*
X-12887Y32531D01*
Y33406D01*
X-13221Y34215D01*
X-13840Y34834D01*
X-14649Y35168D01*
D02*
G37*
G36*
X-52011Y32602D02*
X-52886D01*
X-53695Y32267D01*
X-54314Y31648D01*
X-54649Y30839D01*
Y29964D01*
X-54314Y29155D01*
X-53695Y28536D01*
X-52886Y28202D01*
X-52011D01*
X-51203Y28536D01*
X-50584Y29155D01*
X-50249Y29964D01*
Y30839D01*
X-50584Y31648D01*
X-51203Y32267D01*
X-52011Y32602D01*
D02*
G37*
G36*
X-98054Y25200D02*
X-98930D01*
X-99738Y24865D01*
X-100357Y24246D01*
X-100692Y23438D01*
Y22562D01*
X-100357Y21754D01*
X-99738Y21135D01*
X-98930Y20800D01*
X-98054D01*
X-97246Y21135D01*
X-96627Y21754D01*
X-96292Y22562D01*
Y23438D01*
X-96627Y24246D01*
X-97246Y24865D01*
X-98054Y25200D01*
D02*
G37*
G36*
X-89523Y23165D02*
X-90398D01*
X-91207Y22830D01*
X-91826Y22211D01*
X-92161Y21402D01*
Y20527D01*
X-91826Y19718D01*
X-91207Y19099D01*
X-90398Y18765D01*
X-89523D01*
X-88714Y19099D01*
X-88096Y19718D01*
X-87761Y20527D01*
Y21402D01*
X-88096Y22211D01*
X-88714Y22830D01*
X-89523Y23165D01*
D02*
G37*
G36*
X-83363Y20569D02*
X-84238D01*
X-85047Y20234D01*
X-85666Y19615D01*
X-86001Y18807D01*
Y17932D01*
X-85666Y17123D01*
X-85047Y16504D01*
X-84238Y16169D01*
X-83363D01*
X-82555Y16504D01*
X-81936Y17123D01*
X-81601Y17932D01*
Y18807D01*
X-81936Y19615D01*
X-82555Y20234D01*
X-83363Y20569D01*
D02*
G37*
G36*
X-63244Y19424D02*
X-64119D01*
X-64927Y19090D01*
X-65546Y18471D01*
X-65881Y17662D01*
Y16787D01*
X-65546Y15978D01*
X-65377Y15809D01*
X-65584Y15309D01*
X-109442D01*
X-109777Y15645D01*
X-110586Y15980D01*
X-111461D01*
X-112270Y15645D01*
X-112889Y15026D01*
X-113224Y14217D01*
Y13342D01*
X-112889Y12533D01*
X-112493Y12138D01*
X-112323Y11811D01*
X-112493Y11484D01*
X-112889Y11089D01*
X-113224Y10280D01*
Y9405D01*
X-112889Y8596D01*
X-112493Y8201D01*
X-112323Y7874D01*
X-112493Y7547D01*
X-112889Y7152D01*
X-113224Y6343D01*
Y5468D01*
X-112889Y4659D01*
X-112493Y4264D01*
X-112323Y3937D01*
X-112493Y3610D01*
X-112889Y3215D01*
X-113224Y2406D01*
Y1531D01*
X-112889Y722D01*
X-112493Y327D01*
X-112323Y0D01*
X-112493Y-327D01*
X-112889Y-722D01*
X-113224Y-1531D01*
Y-2406D01*
X-112889Y-3215D01*
X-112493Y-3610D01*
X-112323Y-3937D01*
X-112493Y-4264D01*
X-112889Y-4659D01*
X-113224Y-5468D01*
Y-6343D01*
X-112889Y-7152D01*
X-112270Y-7771D01*
X-111461Y-8106D01*
X-110586D01*
X-109777Y-7771D01*
X-109442Y-7435D01*
X-44137D01*
X-41239Y-10333D01*
X-40743Y-10665D01*
X-40157Y-10781D01*
X-24902D01*
X-24316Y-10665D01*
X-23820Y-10333D01*
X-20922Y-7435D01*
X-6602D01*
X-6266Y-7771D01*
X-5457Y-8106D01*
X-4582D01*
X-3774Y-7771D01*
X-3155Y-7152D01*
X-2820Y-6343D01*
Y-5468D01*
X-3155Y-4659D01*
X-3550Y-4264D01*
X-3720Y-3937D01*
X-3550Y-3610D01*
X-3155Y-3215D01*
X-2820Y-2406D01*
Y-1531D01*
X-3155Y-722D01*
X-3531Y-346D01*
X-3698Y24D01*
X-3531Y307D01*
X-3115Y722D01*
X-2780Y1531D01*
Y2406D01*
X-3115Y3215D01*
X-3531Y3630D01*
X-3698Y3913D01*
X-3531Y4283D01*
X-3155Y4659D01*
X-2820Y5468D01*
Y6343D01*
X-3155Y7152D01*
X-3531Y7528D01*
X-3698Y7898D01*
X-3531Y8181D01*
X-3115Y8596D01*
X-2780Y9405D01*
Y10280D01*
X-3115Y11089D01*
X-3511Y11484D01*
X-3680Y11811D01*
X-3511Y12138D01*
X-3115Y12533D01*
X-2780Y13342D01*
Y14217D01*
X-3115Y15026D01*
X-3734Y15645D01*
X-4543Y15980D01*
X-5418D01*
X-6227Y15645D01*
X-6562Y15309D01*
X-20429D01*
X-23525Y18404D01*
X-24021Y18736D01*
X-24606Y18852D01*
X-40059D01*
X-40644Y18736D01*
X-41140Y18404D01*
X-44236Y15309D01*
X-61778D01*
X-61985Y15809D01*
X-61816Y15978D01*
X-61481Y16787D01*
Y17662D01*
X-61816Y18471D01*
X-62435Y19090D01*
X-63244Y19424D01*
D02*
G37*
G36*
X-55370Y-8233D02*
X-56245D01*
X-57053Y-8568D01*
X-57628Y-9143D01*
X-58203Y-8568D01*
X-59011Y-8233D01*
X-59886D01*
X-60695Y-8568D01*
X-61005Y-8878D01*
X-61331Y-9171D01*
X-61658Y-8878D01*
X-61968Y-8568D01*
X-62776Y-8233D01*
X-63652D01*
X-64460Y-8568D01*
X-65079Y-9187D01*
X-65414Y-9995D01*
Y-10871D01*
X-65079Y-11679D01*
X-64460Y-12298D01*
X-63652Y-12633D01*
X-63459D01*
Y-14468D01*
X-66167Y-17176D01*
X-66476Y-17639D01*
X-66585Y-18185D01*
X-66585Y-18185D01*
Y-21358D01*
Y-25131D01*
X-67857D01*
Y-25126D01*
X-68823Y-25254D01*
X-69723Y-25626D01*
X-70496Y-26219D01*
X-71089Y-26992D01*
X-71462Y-27892D01*
X-71589Y-28858D01*
X-71462Y-29824D01*
X-71089Y-30724D01*
X-70496Y-31497D01*
X-69723Y-32090D01*
X-68823Y-32463D01*
X-67857Y-32590D01*
Y-32586D01*
X-66101D01*
X-65854Y-33086D01*
X-66089Y-33392D01*
X-66462Y-34292D01*
X-66589Y-35258D01*
X-66585D01*
Y-38594D01*
X-66585Y-38594D01*
X-66476Y-39140D01*
X-66167Y-39603D01*
X-64899Y-40872D01*
X-64899Y-40872D01*
X-63447Y-42323D01*
X-62984Y-42633D01*
X-62437Y-42742D01*
X-62437Y-42742D01*
X-57810D01*
Y-42834D01*
X-57475Y-43643D01*
X-56856Y-44262D01*
X-56048Y-44597D01*
X-55173D01*
X-54364Y-44262D01*
X-53745Y-43643D01*
X-53410Y-42834D01*
Y-41959D01*
X-53745Y-41151D01*
X-54282Y-40614D01*
X-53745Y-40078D01*
X-53410Y-39269D01*
Y-38394D01*
X-53745Y-37585D01*
X-54364Y-36966D01*
X-55173Y-36632D01*
X-56048D01*
X-56856Y-36966D01*
X-57475Y-37585D01*
X-57810Y-38394D01*
Y-38487D01*
X-61266D01*
X-62330Y-37423D01*
Y-35786D01*
X-61058D01*
Y-35790D01*
X-60092Y-35663D01*
X-59192Y-35290D01*
X-58419Y-34697D01*
X-57825Y-33924D01*
X-57453Y-33024D01*
X-57326Y-32058D01*
X-57453Y-31092D01*
X-57825Y-30192D01*
X-58419Y-29419D01*
X-59192Y-28826D01*
X-60092Y-28454D01*
X-61058Y-28326D01*
Y-28331D01*
X-62814D01*
X-63061Y-27831D01*
X-62826Y-27524D01*
X-62453Y-26624D01*
X-62326Y-25658D01*
X-62330D01*
Y-21358D01*
Y-19356D01*
X-59622Y-16648D01*
X-59622Y-16648D01*
X-59313Y-16185D01*
X-59204Y-15639D01*
Y-12633D01*
X-59011D01*
X-58203Y-12298D01*
X-57628Y-11723D01*
X-57053Y-12298D01*
X-56245Y-12633D01*
X-55370D01*
X-54561Y-12298D01*
X-53942Y-11679D01*
X-53607Y-10871D01*
Y-9995D01*
X-53942Y-9187D01*
X-54561Y-8568D01*
X-55370Y-8233D01*
D02*
G37*
G36*
X56461Y-10458D02*
X55586D01*
X54778Y-10793D01*
X54442Y-11128D01*
X47606D01*
X47270Y-10793D01*
X46461Y-10458D01*
X45586D01*
X44778Y-10793D01*
X44159Y-11411D01*
X43824Y-12220D01*
Y-13095D01*
X44159Y-13904D01*
X44778Y-14523D01*
X45586Y-14858D01*
X46461D01*
X47270Y-14523D01*
X47606Y-14187D01*
X48781D01*
X49042Y-14687D01*
X48784Y-15310D01*
Y-16186D01*
X49119Y-16994D01*
X49738Y-17613D01*
X50547Y-17948D01*
X51422D01*
X52230Y-17613D01*
X52566Y-17277D01*
X59442D01*
X59778Y-17613D01*
X60586Y-17948D01*
X61461D01*
X62270Y-17613D01*
X62889Y-16994D01*
X63224Y-16186D01*
Y-15310D01*
X62889Y-14502D01*
X62270Y-13883D01*
X61461Y-13548D01*
X60586D01*
X59778Y-13883D01*
X59442Y-14219D01*
X58227D01*
X57966Y-13719D01*
X58224Y-13095D01*
Y-12220D01*
X57889Y-11411D01*
X57270Y-10793D01*
X56461Y-10458D01*
D02*
G37*
G36*
X64709Y-19552D02*
X63834D01*
X63025Y-19887D01*
X62690Y-20223D01*
X44594D01*
X44258Y-19887D01*
X43449Y-19552D01*
X42574D01*
X41766Y-19887D01*
X41147Y-20506D01*
X40812Y-21314D01*
Y-22190D01*
X41147Y-22998D01*
X41766Y-23617D01*
X42574Y-23952D01*
X43449D01*
X44258Y-23617D01*
X44594Y-23281D01*
X47962D01*
X48296Y-23781D01*
X48095Y-24267D01*
Y-25142D01*
X48430Y-25951D01*
X49049Y-26570D01*
X49858Y-26905D01*
X50733D01*
X51542Y-26570D01*
X51877Y-26234D01*
X69445D01*
X71896Y-28685D01*
Y-39665D01*
X72012Y-40251D01*
X72344Y-40747D01*
X75887Y-44290D01*
X76383Y-44622D01*
X76968Y-44738D01*
X82670D01*
X83006Y-45074D01*
X83814Y-45409D01*
X84690D01*
X85498Y-45074D01*
X86117Y-44455D01*
X86452Y-43646D01*
Y-42771D01*
X86117Y-41963D01*
X85498Y-41344D01*
X84690Y-41009D01*
X83814D01*
X83006Y-41344D01*
X82670Y-41679D01*
X77602D01*
X74955Y-39032D01*
Y-28051D01*
X74838Y-27466D01*
X74507Y-26970D01*
X71160Y-23623D01*
X70664Y-23292D01*
X70079Y-23175D01*
X66605D01*
X66271Y-22675D01*
X66472Y-22190D01*
Y-21314D01*
X66137Y-20506D01*
X65518Y-19887D01*
X64709Y-19552D01*
D02*
G37*
G36*
X-58763Y-20733D02*
X-59638D01*
X-60447Y-21068D01*
X-61066Y-21687D01*
X-61401Y-22496D01*
Y-23371D01*
X-61066Y-24179D01*
X-60447Y-24798D01*
X-59638Y-25133D01*
X-58763D01*
X-57955Y-24798D01*
X-57336Y-24179D01*
X-57001Y-23371D01*
Y-22496D01*
X-57336Y-21687D01*
X-57955Y-21068D01*
X-58763Y-20733D01*
D02*
G37*
G36*
X106737Y-26934D02*
X105862D01*
X105053Y-27269D01*
X104434Y-27888D01*
X104099Y-28696D01*
Y-29572D01*
X104434Y-30380D01*
X105053Y-30999D01*
X105862Y-31334D01*
X106737D01*
X107545Y-30999D01*
X108164Y-30380D01*
X108499Y-29572D01*
Y-28696D01*
X108164Y-27888D01*
X107545Y-27269D01*
X106737Y-26934D01*
D02*
G37*
G36*
X-94759Y-31186D02*
X-95635D01*
X-96065Y-31364D01*
X-110142D01*
X-110488Y-31221D01*
X-111363D01*
X-112171Y-31556D01*
X-112790Y-32175D01*
X-113125Y-32984D01*
Y-33859D01*
X-112790Y-34668D01*
X-112171Y-35286D01*
X-111363Y-35621D01*
X-110488D01*
X-110056Y-35443D01*
X-95980D01*
X-95635Y-35586D01*
X-94759D01*
X-93951Y-35251D01*
X-93332Y-34632D01*
X-92997Y-33823D01*
Y-32948D01*
X-93332Y-32140D01*
X-93951Y-31521D01*
X-94759Y-31186D01*
D02*
G37*
G36*
X146304Y-31013D02*
X145429D01*
X144620Y-31348D01*
X144001Y-31966D01*
X143666Y-32775D01*
Y-33650D01*
X144001Y-34459D01*
X144620Y-35078D01*
X145429Y-35413D01*
X146304D01*
X147112Y-35078D01*
X147731Y-34459D01*
X148066Y-33650D01*
Y-32775D01*
X147731Y-31966D01*
X147112Y-31348D01*
X146304Y-31013D01*
D02*
G37*
G36*
X84591Y-33044D02*
X83716D01*
X82907Y-33379D01*
X82288Y-33998D01*
X81954Y-34806D01*
Y-35682D01*
X82288Y-36490D01*
X82907Y-37109D01*
X83716Y-37444D01*
X84591D01*
X85400Y-37109D01*
X86019Y-36490D01*
X86353Y-35682D01*
Y-34806D01*
X86019Y-33998D01*
X85400Y-33379D01*
X84591Y-33044D01*
D02*
G37*
G36*
X-94759Y-39139D02*
X-95635D01*
X-96023Y-39299D01*
X-110099D01*
X-110488Y-39139D01*
X-111363D01*
X-112171Y-39474D01*
X-112790Y-40092D01*
X-113125Y-40901D01*
Y-41776D01*
X-112790Y-42585D01*
X-112171Y-43204D01*
X-111363Y-43539D01*
X-110488D01*
X-110099Y-43378D01*
X-96023D01*
X-95635Y-43539D01*
X-94759D01*
X-93951Y-43204D01*
X-93332Y-42585D01*
X-92997Y-41776D01*
Y-40901D01*
X-93332Y-40092D01*
X-93951Y-39474D01*
X-94759Y-39139D01*
D02*
G37*
G36*
X114489Y-37194D02*
X113614D01*
X112805Y-37528D01*
X112186Y-38147D01*
X111851Y-38956D01*
Y-39831D01*
X112186Y-40640D01*
X112805Y-41259D01*
X113614Y-41594D01*
X114489D01*
X114877Y-41433D01*
X132048D01*
X132436Y-41594D01*
X133312D01*
X134120Y-41259D01*
X134739Y-40640D01*
X135074Y-39831D01*
Y-38956D01*
X134739Y-38147D01*
X134120Y-37528D01*
X133312Y-37194D01*
X132436D01*
X132048Y-37354D01*
X114877D01*
X114489Y-37194D01*
D02*
G37*
G36*
X2898Y-40320D02*
X2023D01*
X1214Y-40655D01*
X596Y-41273D01*
X261Y-42082D01*
Y-42957D01*
X596Y-43766D01*
X1214Y-44385D01*
X2023Y-44720D01*
X2898D01*
X3707Y-44385D01*
X4326Y-43766D01*
X4661Y-42957D01*
Y-42082D01*
X4326Y-41273D01*
X3707Y-40655D01*
X2898Y-40320D01*
D02*
G37*
G36*
X97190Y-42190D02*
X96314D01*
X95506Y-42525D01*
X94887Y-43144D01*
X94552Y-43952D01*
Y-44827D01*
X94887Y-45636D01*
X95506Y-46255D01*
X96314Y-46590D01*
X97190D01*
X97998Y-46255D01*
X98617Y-45636D01*
X98952Y-44827D01*
Y-43952D01*
X98617Y-43144D01*
X97998Y-42525D01*
X97190Y-42190D01*
D02*
G37*
G36*
X126914Y-50261D02*
X126039D01*
X125230Y-50596D01*
X124793Y-51033D01*
X122550D01*
X122112Y-50596D01*
X121304Y-50261D01*
X120429D01*
X119620Y-50596D01*
X119001Y-51214D01*
X118666Y-52023D01*
Y-52898D01*
X119001Y-53707D01*
X119620Y-54326D01*
X120429Y-54661D01*
X121304D01*
X122112Y-54326D01*
X122550Y-53888D01*
X124793D01*
X125230Y-54326D01*
X126039Y-54661D01*
X126914D01*
X127723Y-54326D01*
X128341Y-53707D01*
X128676Y-52898D01*
Y-52023D01*
X128341Y-51214D01*
X127723Y-50596D01*
X126914Y-50261D01*
D02*
G37*
G36*
X135331Y-47151D02*
X134424D01*
X133587Y-47499D01*
X132945Y-48140D01*
X132598Y-48978D01*
Y-49884D01*
X132945Y-50722D01*
X133587Y-51363D01*
X134424Y-51710D01*
X135331D01*
X136169Y-51363D01*
X136810Y-50722D01*
X137157Y-49884D01*
Y-48978D01*
X136810Y-48140D01*
X136169Y-47499D01*
X135331Y-47151D01*
D02*
G37*
G36*
X112575Y-47151D02*
X111669D01*
X110831Y-47499D01*
X110189Y-48140D01*
X109842Y-48978D01*
Y-49885D01*
X110189Y-50722D01*
X110831Y-51363D01*
X111669Y-51710D01*
X112575D01*
X113413Y-51363D01*
X114054Y-50722D01*
X114401Y-49885D01*
Y-48978D01*
X114054Y-48140D01*
X113413Y-47499D01*
X112575Y-47151D01*
D02*
G37*
G36*
X87101Y-211D02*
X86226D01*
X85417Y-546D01*
X84798Y-1165D01*
X84463Y-1974D01*
Y-2849D01*
X84798Y-3658D01*
X85417Y-4276D01*
X86226Y-4611D01*
X86700D01*
X88136Y-6047D01*
Y-48382D01*
X81551Y-54967D01*
X53354D01*
X53018Y-54631D01*
X52209Y-54296D01*
X51334D01*
X50525Y-54631D01*
X49907Y-55250D01*
X49572Y-56059D01*
Y-56934D01*
X49907Y-57742D01*
X50525Y-58361D01*
X51334Y-58696D01*
X52209D01*
X53018Y-58361D01*
X53354Y-58025D01*
X82185D01*
X82770Y-57909D01*
X83267Y-57578D01*
X90747Y-50097D01*
X91078Y-49601D01*
X91195Y-49016D01*
Y-5413D01*
X91078Y-4828D01*
X90747Y-4332D01*
X88863Y-2448D01*
Y-1974D01*
X88528Y-1165D01*
X87910Y-546D01*
X87101Y-211D01*
D02*
G37*
G36*
X-66901Y-61500D02*
X-67942D01*
X-68947Y-61769D01*
X-69848Y-62290D01*
X-70584Y-63026D01*
X-71097Y-63915D01*
X-71206Y-63941D01*
X-71510D01*
X-71619Y-63915D01*
X-72132Y-63026D01*
X-72868Y-62290D01*
X-73770Y-61769D01*
X-74775Y-61500D01*
X-75816D01*
X-76821Y-61769D01*
X-77722Y-62290D01*
X-78458Y-63026D01*
X-78716Y-63473D01*
X-79216Y-63339D01*
Y-61500D01*
X-87122D01*
Y-69406D01*
X-79216D01*
Y-67567D01*
X-78716Y-67432D01*
X-78458Y-67880D01*
X-77722Y-68616D01*
X-76821Y-69136D01*
X-75816Y-69406D01*
X-74775D01*
X-73770Y-69136D01*
X-72868Y-68616D01*
X-72132Y-67880D01*
X-71619Y-66991D01*
X-71510Y-66965D01*
X-71206D01*
X-71097Y-66991D01*
X-70584Y-67880D01*
X-69848Y-68616D01*
X-68947Y-69136D01*
X-67942Y-69406D01*
X-66901D01*
X-65896Y-69136D01*
X-64994Y-68616D01*
X-64258Y-67880D01*
X-63738Y-66979D01*
X-63468Y-65973D01*
Y-64932D01*
X-63738Y-63927D01*
X-64258Y-63026D01*
X-64994Y-62290D01*
X-65896Y-61769D01*
X-66901Y-61500D01*
D02*
G37*
G36*
X99418Y-65973D02*
X98543D01*
X97734Y-66308D01*
X97115Y-66927D01*
X96780Y-67736D01*
Y-68611D01*
X97115Y-69419D01*
X97734Y-70038D01*
X98543Y-70373D01*
X99418D01*
X100226Y-70038D01*
X100845Y-69419D01*
X101180Y-68611D01*
Y-67736D01*
X100845Y-66927D01*
X100226Y-66308D01*
X99418Y-65973D01*
D02*
G37*
G36*
X59690Y-66304D02*
X58814D01*
X58006Y-66639D01*
X57387Y-67258D01*
X57052Y-68066D01*
Y-68941D01*
X57387Y-69750D01*
X58006Y-70369D01*
X58814Y-70704D01*
X59690D01*
X60498Y-70369D01*
X61117Y-69750D01*
X61452Y-68941D01*
Y-68066D01*
X61117Y-67258D01*
X60498Y-66639D01*
X59690Y-66304D01*
D02*
G37*
G36*
X23568D02*
X22692D01*
X21884Y-66639D01*
X21265Y-67258D01*
X20930Y-68066D01*
Y-68941D01*
X21265Y-69750D01*
X21884Y-70369D01*
X22692Y-70704D01*
X23568D01*
X24376Y-70369D01*
X24995Y-69750D01*
X25330Y-68941D01*
Y-68066D01*
X24995Y-67258D01*
X24376Y-66639D01*
X23568Y-66304D01*
D02*
G37*
%LPD*%
G36*
X-22833Y8761D02*
X-22337Y8429D01*
X-21752Y8313D01*
X-6562D01*
X-6469Y8220D01*
X-6302Y7850D01*
X-6469Y7567D01*
X-6602Y7435D01*
X-41929D01*
Y8696D01*
X-41832Y8761D01*
X-38737Y11856D01*
X-25929D01*
X-22833Y8761D01*
D02*
G37*
G36*
X-6469Y346D02*
X-6302Y-24D01*
X-6469Y-307D01*
X-6602Y-439D01*
X-22047D01*
X-22633Y-556D01*
X-23129Y-887D01*
X-26322Y-4081D01*
X-38540D01*
X-41479Y-1142D01*
X-41831Y-787D01*
Y439D01*
X-6562D01*
X-6469Y346D01*
D02*
G37*
%LPC*%
G36*
X-95840Y86207D02*
X-95881D01*
X-95923Y86199D01*
X-95985Y86193D01*
X-96055Y86179D01*
X-96138Y86158D01*
X-96221Y86130D01*
X-96305Y86095D01*
X-96395Y86047D01*
X-96478Y85984D01*
X-96561Y85908D01*
X-96631Y85825D01*
X-96693Y85721D01*
X-96735Y85596D01*
X-96763Y85457D01*
X-96777Y85297D01*
Y85290D01*
Y85256D01*
X-96770Y85214D01*
X-96763Y85158D01*
X-96749Y85089D01*
X-96728Y85013D01*
X-96700Y84930D01*
X-96659Y84846D01*
X-96610Y84756D01*
X-96548Y84673D01*
X-96471Y84596D01*
X-96381Y84534D01*
X-96277Y84471D01*
X-96152Y84430D01*
X-96013Y84402D01*
X-95847Y84388D01*
X-95805D01*
X-95777Y84395D01*
X-95708Y84402D01*
X-95618Y84416D01*
X-95513Y84444D01*
X-95409Y84485D01*
X-95305Y84548D01*
X-95215Y84624D01*
X-95208Y84638D01*
X-95180Y84666D01*
X-95139Y84721D01*
X-95097Y84798D01*
X-95056Y84888D01*
X-95014Y85006D01*
X-94986Y85138D01*
X-94979Y85290D01*
Y85304D01*
Y85332D01*
X-94986Y85374D01*
X-94993Y85436D01*
X-95007Y85505D01*
X-95028Y85582D01*
X-95048Y85665D01*
X-95083Y85748D01*
X-95132Y85832D01*
X-95187Y85915D01*
X-95257Y85991D01*
X-95340Y86061D01*
X-95437Y86123D01*
X-95555Y86165D01*
X-95687Y86199D01*
X-95840Y86207D01*
D02*
G37*
G36*
X-88122Y88052D02*
X-88164D01*
X-88199Y88046D01*
X-88240D01*
X-88289Y88039D01*
X-88400Y88011D01*
X-88525Y87969D01*
X-88664Y87914D01*
X-88802Y87830D01*
X-88872Y87775D01*
X-88941Y87719D01*
X-88948Y87713D01*
X-88955Y87705D01*
X-88976Y87685D01*
X-89004Y87657D01*
X-89031Y87622D01*
X-89066Y87581D01*
X-89108Y87532D01*
X-89149Y87476D01*
X-89191Y87407D01*
X-89233Y87338D01*
X-89281Y87261D01*
X-89323Y87178D01*
X-89406Y86984D01*
X-89483Y86769D01*
X-89469D01*
X-89441Y86762D01*
X-89385D01*
X-89323Y86755D01*
X-89240Y86748D01*
X-89149D01*
X-89052Y86741D01*
X-88879D01*
X-88823Y86748D01*
X-88754D01*
X-88678Y86755D01*
X-88580Y86762D01*
X-88476Y86769D01*
X-88358Y86782D01*
X-88226Y86796D01*
X-88088Y86817D01*
X-87942Y86838D01*
X-87782Y86866D01*
X-87616Y86893D01*
X-87442Y86928D01*
X-87262Y86970D01*
Y86977D01*
Y86991D01*
X-87269Y87019D01*
Y87053D01*
X-87276Y87095D01*
X-87283Y87143D01*
X-87304Y87254D01*
X-87338Y87386D01*
X-87387Y87518D01*
X-87449Y87643D01*
X-87526Y87761D01*
X-87539Y87775D01*
X-87567Y87810D01*
X-87616Y87851D01*
X-87685Y87907D01*
X-87775Y87962D01*
X-87880Y88004D01*
X-87990Y88039D01*
X-88122Y88052D01*
D02*
G37*
G36*
X-107422Y87657D02*
X-107499D01*
X-107554Y87650D01*
X-107624Y87643D01*
X-107700Y87629D01*
X-107867Y87587D01*
X-107957Y87560D01*
X-108047Y87525D01*
X-108137Y87483D01*
X-108221Y87428D01*
X-108297Y87365D01*
X-108359Y87296D01*
X-108422Y87213D01*
X-108464Y87116D01*
Y86762D01*
Y86755D01*
Y86727D01*
Y86678D01*
Y86616D01*
Y86546D01*
Y86456D01*
Y86359D01*
X-108470Y86248D01*
Y86123D01*
Y85998D01*
X-108477Y85721D01*
X-108491Y85422D01*
X-108505Y85124D01*
X-108498D01*
X-108484Y85117D01*
X-108457Y85103D01*
X-108429Y85089D01*
X-108387Y85075D01*
X-108332Y85054D01*
X-108214Y85013D01*
X-108075Y84971D01*
X-107915Y84936D01*
X-107749Y84909D01*
X-107568Y84902D01*
X-107506D01*
X-107464Y84909D01*
X-107416Y84916D01*
X-107353Y84923D01*
X-107214Y84943D01*
X-107062Y84985D01*
X-106902Y85054D01*
X-106826Y85089D01*
X-106749Y85138D01*
X-106680Y85193D01*
X-106611Y85256D01*
X-106604Y85263D01*
X-106597Y85270D01*
X-106576Y85290D01*
X-106555Y85318D01*
X-106534Y85360D01*
X-106500Y85401D01*
X-106472Y85457D01*
X-106437Y85513D01*
X-106409Y85582D01*
X-106375Y85658D01*
X-106347Y85742D01*
X-106326Y85832D01*
X-106298Y85929D01*
X-106284Y86033D01*
X-106277Y86151D01*
X-106271Y86269D01*
Y86276D01*
Y86297D01*
Y86331D01*
X-106277Y86380D01*
Y86436D01*
X-106284Y86498D01*
X-106298Y86567D01*
X-106305Y86644D01*
X-106347Y86810D01*
X-106402Y86977D01*
X-106472Y87143D01*
X-106520Y87220D01*
X-106576Y87289D01*
Y87296D01*
X-106590Y87303D01*
X-106611Y87324D01*
X-106631Y87345D01*
X-106701Y87407D01*
X-106798Y87476D01*
X-106916Y87539D01*
X-107062Y87601D01*
X-107228Y87643D01*
X-107325Y87650D01*
X-107422Y87657D01*
D02*
G37*
G36*
X-111927Y88087D02*
X-111982D01*
X-112051Y88073D01*
X-112135Y88060D01*
X-112239Y88039D01*
X-112350Y88004D01*
X-112475Y87948D01*
X-112600Y87886D01*
X-112725Y87796D01*
X-112850Y87692D01*
X-112961Y87560D01*
X-113016Y87483D01*
X-113065Y87400D01*
X-113106Y87310D01*
X-113148Y87213D01*
X-113183Y87109D01*
X-113217Y86998D01*
X-113238Y86873D01*
X-113259Y86741D01*
X-113266Y86602D01*
X-113273Y86456D01*
Y86449D01*
Y86422D01*
Y86387D01*
X-113266Y86331D01*
Y86269D01*
X-113259Y86199D01*
X-113245Y86116D01*
X-113238Y86033D01*
X-113204Y85846D01*
X-113148Y85651D01*
X-113079Y85471D01*
X-113030Y85381D01*
X-112981Y85304D01*
X-112975Y85297D01*
X-112968Y85290D01*
X-112954Y85270D01*
X-112926Y85242D01*
X-112864Y85179D01*
X-112766Y85103D01*
X-112648Y85027D01*
X-112503Y84964D01*
X-112419Y84936D01*
X-112336Y84923D01*
X-112239Y84909D01*
X-112142Y84902D01*
X-112072D01*
X-112024Y84909D01*
X-111961Y84916D01*
X-111892Y84923D01*
X-111816Y84936D01*
X-111732Y84957D01*
X-111552Y85006D01*
X-111462Y85040D01*
X-111371Y85082D01*
X-111274Y85131D01*
X-111191Y85193D01*
X-111101Y85256D01*
X-111024Y85332D01*
X-111018Y85339D01*
X-111004Y85353D01*
X-110990Y85381D01*
X-110962Y85415D01*
X-110927Y85457D01*
X-110892Y85513D01*
X-110858Y85575D01*
X-110816Y85651D01*
X-110782Y85728D01*
X-110747Y85818D01*
X-110712Y85922D01*
X-110677Y86026D01*
X-110650Y86144D01*
X-110636Y86269D01*
X-110622Y86408D01*
X-110615Y86546D01*
Y86554D01*
Y86581D01*
Y86616D01*
X-110622Y86664D01*
X-110629Y86727D01*
X-110636Y86796D01*
X-110643Y86873D01*
X-110657Y86956D01*
X-110698Y87143D01*
X-110761Y87331D01*
X-110802Y87421D01*
X-110851Y87511D01*
X-110906Y87594D01*
X-110969Y87678D01*
X-110976Y87685D01*
X-110983Y87699D01*
X-111004Y87713D01*
X-111031Y87740D01*
X-111066Y87775D01*
X-111108Y87810D01*
X-111163Y87844D01*
X-111219Y87886D01*
X-111281Y87921D01*
X-111357Y87955D01*
X-111517Y88025D01*
X-111614Y88052D01*
X-111712Y88066D01*
X-111816Y88080D01*
X-111927Y88087D01*
D02*
G37*
%LPD*%
D18*
X28469Y48800D02*
G03*
X31069Y46200I2600J0D01*
G01*
X28469Y50200D02*
G03*
X26469Y50200I-1000J0D01*
G01*
X21269Y44850D02*
G03*
X26469Y44850I2600J0D01*
G01*
X21269Y50200D02*
G03*
X19269Y50200I-1000J0D01*
G01*
X14069Y44850D02*
G03*
X19269Y44850I2600J0D01*
G01*
X14069Y50200D02*
G03*
X12069Y50200I-1000J0D01*
G01*
X9469Y46200D02*
G03*
X12069Y48800I0J2600D01*
G01*
X30069D02*
G03*
X31069Y47800I1000J0D01*
G01*
X30069Y50200D02*
G03*
X24869Y50200I-2600J0D01*
G01*
X22869Y44850D02*
G03*
X24869Y44850I1000J0D01*
G01*
X22869Y50200D02*
G03*
X17669Y50200I-2600J0D01*
G01*
X15669Y44850D02*
G03*
X17669Y44850I1000J0D01*
G01*
X15669Y50200D02*
G03*
X10469Y50200I-2600J0D01*
G01*
X9469Y47800D02*
G03*
X10469Y48800I0J1000D01*
G01*
X19300Y-33490D02*
G03*
X18300Y-34490I0J-1000D01*
G01*
X13100Y-38943D02*
G03*
X18300Y-38943I2600J0D01*
G01*
X13100Y-29533D02*
G03*
X11100Y-29533I-1000J0D01*
G01*
X5900Y-38943D02*
G03*
X11100Y-38943I2600J0D01*
G01*
X5900Y-28490D02*
G03*
X3900Y-28490I-1000J0D01*
G01*
X1300Y-33490D02*
G03*
X3900Y-30890I0J2600D01*
G01*
X19300Y-31890D02*
G03*
X16700Y-34490I0J-2600D01*
G01*
X14700Y-38943D02*
G03*
X16700Y-38943I1000J0D01*
G01*
X14700Y-29533D02*
G03*
X9500Y-29533I-2600J0D01*
G01*
X7500Y-38943D02*
G03*
X9500Y-38943I1000J0D01*
G01*
X7500Y-28490D02*
G03*
X2300Y-28490I-2600J0D01*
G01*
X1300Y-31890D02*
G03*
X2300Y-30890I0J1000D01*
G01*
X56724Y26796D02*
G03*
X59324Y29396I0J2600D01*
G01*
X54324Y26796D02*
G03*
X54324Y24796I0J-1000D01*
G01*
X62724Y19596D02*
G03*
X62724Y24796I0J2600D01*
G01*
X54324Y19596D02*
G03*
X54324Y17596I0J-1000D01*
G01*
X62724Y12396D02*
G03*
X62724Y17596I0J2600D01*
G01*
X54324Y12396D02*
G03*
X54324Y10396I0J-1000D01*
G01*
X59324Y7796D02*
G03*
X56724Y10396I-2600J0D01*
G01*
Y28396D02*
G03*
X57724Y29396I0J1000D01*
G01*
X54324Y28396D02*
G03*
X54324Y23196I0J-2600D01*
G01*
X62724Y21196D02*
G03*
X62724Y23196I0J1000D01*
G01*
X54324Y21196D02*
G03*
X54324Y15996I0J-2600D01*
G01*
X62724Y13996D02*
G03*
X62724Y15996I0J1000D01*
G01*
X54324Y13996D02*
G03*
X54324Y8796I0J-2600D01*
G01*
X57724Y7796D02*
G03*
X56724Y8796I-1000J0D01*
G01*
X-31201Y1969D02*
X-14961D01*
X-47441Y5906D02*
X-30413D01*
X-14961Y1969D02*
X-4980D01*
X-111024D02*
X-31201D01*
X-30413Y5906D02*
X-5020D01*
X-111024D02*
X-47441D01*
X-111024Y-1969D02*
X-42815D01*
X-39173Y-5610D01*
X-25689D01*
X-111024Y13780D02*
X-43602D01*
X-40059Y17323D02*
X-24606D01*
X-43602Y13780D02*
X-40059Y17323D01*
X-21063Y13780D02*
X-4980D01*
X-24606Y17323D02*
X-21063Y13780D01*
X-39370Y13386D02*
X-25295D01*
X-21752Y9843D01*
X-4980D01*
X-42913D02*
X-39370Y13386D01*
X-25689Y-5610D02*
X-22047Y-1969D01*
X-43504Y-5906D02*
X-40157Y-9252D01*
X-24902D02*
X-21555Y-5906D01*
X-40157Y-9252D02*
X-24902D01*
X-111024Y-5906D02*
X-43504D01*
X-22047Y-1969D02*
X-5020D01*
X-21555Y-5906D02*
X-5020D01*
X-111024Y9843D02*
X-42913D01*
X-5020Y-5906D02*
X-5020Y-5906D01*
X6102Y-23425D02*
Y-1476D01*
X0Y-12500D02*
Y32500D01*
X-5000Y-17500D02*
X0Y-12500D01*
X-6000Y38500D02*
X0Y32500D01*
X31069Y46200D02*
X34350D01*
X28469Y48800D02*
Y50200D01*
X26469Y44850D02*
Y50200D01*
X21269Y44850D02*
Y50200D01*
X19269Y44850D02*
Y50200D01*
X14069Y44850D02*
Y50200D01*
X12069Y48800D02*
Y50200D01*
X8169Y46200D02*
X9469D01*
X31069Y47800D02*
X34350D01*
X30069Y48800D02*
Y50200D01*
X24869Y44850D02*
Y50200D01*
X22869Y44850D02*
Y50200D01*
X17669Y44850D02*
Y50200D01*
X15669Y44850D02*
Y50200D01*
X10469Y48800D02*
Y50200D01*
X8169Y47800D02*
X9469D01*
X34350Y46200D02*
X34449D01*
X6201D02*
X8169D01*
X34350Y47800D02*
X34449D01*
X6201D02*
X8169D01*
X19300Y-33490D02*
X24409D01*
X18300Y-38943D02*
Y-34490D01*
X13100Y-38943D02*
Y-29533D01*
X11100Y-38943D02*
Y-29533D01*
X5900Y-38943D02*
Y-28490D01*
X3900Y-30890D02*
Y-28490D01*
X0Y-33490D02*
X1300D01*
X19300Y-31890D02*
X24409D01*
X16700Y-38943D02*
Y-34490D01*
X14700Y-38943D02*
Y-29533D01*
X9500Y-38943D02*
Y-29533D01*
X7500Y-38943D02*
Y-28490D01*
X2300Y-30890D02*
Y-28490D01*
X0Y-31890D02*
X1300D01*
X24409Y-33490D02*
X28813D01*
X-1819D02*
X0D01*
X24409Y-31890D02*
X28151D01*
X-1156D02*
X0D01*
X59324Y29396D02*
Y33760D01*
X54324Y26796D02*
X56724D01*
X54324Y24796D02*
X62724D01*
X54324Y19596D02*
X62724D01*
X54324Y17596D02*
X62724D01*
X54324Y12396D02*
X62724D01*
X54324Y10396D02*
X56724D01*
X59324Y6496D02*
Y7796D01*
X57724Y29396D02*
Y33760D01*
X54324Y28396D02*
X56724D01*
X54324Y23196D02*
X62724D01*
X54324Y21196D02*
X62724D01*
X54324Y15996D02*
X62724D01*
X54324Y13996D02*
X62724D01*
X54324Y8796D02*
X56724D01*
X57724Y6496D02*
Y7796D01*
X59324Y33760D02*
Y35335D01*
Y3715D02*
Y6496D01*
X57724Y33760D02*
Y35335D01*
Y4377D02*
Y6496D01*
X55832Y2486D02*
X57724Y4377D01*
X56495Y886D02*
X59324Y3715D01*
X40479Y2486D02*
X55832D01*
X37666Y-24638D02*
Y-2590D01*
X41142Y886D02*
X56495D01*
X37666Y-2590D02*
X41142Y886D01*
X36066Y-23975D02*
Y-1928D01*
X40479Y2486D01*
X28813Y-33490D02*
X37666Y-24638D01*
X28151Y-31890D02*
X36066Y-23975D01*
X-5793Y-23086D02*
X-2534Y-26346D01*
X-9627Y-23086D02*
X-5793D01*
X-2534Y-30512D02*
Y-26346D01*
Y-30512D02*
X-1156Y-31890D01*
X-11516Y-21198D02*
X-9627Y-23086D01*
X56024Y37034D02*
X57724Y35335D01*
X-6456Y-24686D02*
X-4134Y-27008D01*
Y-31174D02*
Y-27008D01*
Y-31174D02*
X-1819Y-33490D01*
X-9627Y-24686D02*
X-6456D01*
X59324Y35335D02*
X61024Y37034D01*
X-11516Y-26575D02*
X-9627Y-24686D01*
X34449Y47800D02*
X36284D01*
X37984Y49500D01*
X4181Y57868D02*
Y57972D01*
X3000Y56687D02*
X4181Y57868D01*
X3000Y50197D02*
X5397Y47800D01*
X6201D01*
X3000Y50197D02*
Y56687D01*
X36284Y46200D02*
X37984Y44500D01*
X34449Y46200D02*
X36284D01*
X1400Y49534D02*
X4734Y46200D01*
X219Y57868D02*
X1400Y56687D01*
X219Y57868D02*
Y57972D01*
X1400Y49534D02*
X1400Y49534D01*
X1400D02*
X1400D01*
X1400Y49534D02*
Y56687D01*
X4734Y46200D02*
X6201D01*
X115787Y57000D02*
X121346D01*
X113418Y59368D02*
X115787Y57000D01*
X112711Y59368D02*
X113418D01*
X112004Y58661D02*
X112711Y59368D01*
X112004Y57954D02*
Y58661D01*
Y57954D02*
X116291Y53667D01*
Y51634D02*
Y53667D01*
X114647Y49990D02*
X116291Y51634D01*
X112614Y49990D02*
X114647D01*
X108327Y54277D02*
X112614Y49990D01*
X107620Y54277D02*
X108327D01*
X106913Y53570D02*
X107620Y54277D01*
X106913Y52863D02*
Y53570D01*
Y52863D02*
X108311Y51465D01*
Y49311D02*
Y51465D01*
X107158Y48158D02*
X108311Y49311D01*
X116449Y58600D02*
X119746D01*
X114081Y60968D02*
X116449Y58600D01*
X112049Y60968D02*
X114081D01*
X110404Y59324D02*
X112049Y60968D01*
X110404Y57291D02*
Y59324D01*
Y57291D02*
X114691Y53004D01*
Y52297D02*
Y53004D01*
X113984Y51590D02*
X114691Y52297D01*
X113277Y51590D02*
X113984D01*
X108990Y55877D02*
X113277Y51590D01*
X106957Y55877D02*
X108990D01*
X105313Y54233D02*
X106957Y55877D01*
X105313Y52200D02*
Y54233D01*
Y52200D02*
X106711Y50802D01*
Y49974D02*
Y50802D01*
X106026Y49289D02*
X106711Y49974D01*
X121346Y57000D02*
X122000D01*
X105200Y46200D02*
X107158Y48158D01*
X119746Y58600D02*
X122000D01*
X104537Y47800D02*
X106026Y49289D01*
X97736Y46200D02*
X99803D01*
X96213Y47723D02*
X97736Y46200D01*
X96213Y47723D02*
Y51700D01*
X95713Y52200D02*
X96213Y51700D01*
X94713Y52200D02*
X95713D01*
X94213Y51700D02*
X94713Y52200D01*
X94213Y41637D02*
Y51700D01*
X92775Y40200D02*
X94213Y41637D01*
X90450Y40200D02*
X92775D01*
X89013Y41637D02*
X90450Y40200D01*
X89013Y41637D02*
Y51700D01*
X88513Y52200D02*
X89013Y51700D01*
X87513Y52200D02*
X88513D01*
X87013Y51700D02*
X87513Y52200D01*
X87013Y47723D02*
Y51700D01*
X85490Y46200D02*
X87013Y47723D01*
X83858Y46200D02*
X85490D01*
X98399Y47800D02*
X99803D01*
X97813Y48386D02*
X98399Y47800D01*
X97813Y48386D02*
Y52363D01*
X96376Y53800D02*
X97813Y52363D01*
X94050Y53800D02*
X96376D01*
X92613Y52363D02*
X94050Y53800D01*
X92613Y42300D02*
Y52363D01*
X92113Y41800D02*
X92613Y42300D01*
X91113Y41800D02*
X92113D01*
X90613Y42300D02*
X91113Y41800D01*
X90613Y42300D02*
Y52363D01*
X89175Y53800D02*
X90613Y52363D01*
X86850Y53800D02*
X89175D01*
X85413Y52363D02*
X86850Y53800D01*
X85413Y48386D02*
Y52363D01*
X84827Y47800D02*
X85413Y48386D01*
X83858Y47800D02*
X84827D01*
X99803Y46200D02*
X105200D01*
X77500D02*
X83858D01*
X99803Y47800D02*
X104537D01*
X77500D02*
X83858D01*
X-10630Y44783D02*
X-6496Y40650D01*
X85335D01*
X-10630Y44783D02*
Y57185D01*
X-22441Y60402D02*
X-13847D01*
X-10630Y57185D01*
X-25500Y38500D02*
X-6000D01*
X-70866Y33169D02*
Y38878D01*
X-70866Y38878D02*
X-70866Y38878D01*
X-38000Y-17500D02*
X-5000D01*
X-45500Y-25000D02*
X-38000Y-17500D01*
X-45500Y-52000D02*
Y-25000D01*
X76000Y49300D02*
X77500Y47800D01*
X76000Y44700D02*
X77500Y46200D01*
X122000Y58600D02*
X123500Y60100D01*
X122000Y57000D02*
X123500Y55500D01*
X51772Y-56496D02*
X82185D01*
X89665Y-49016D02*
Y-5413D01*
X82185Y-56496D02*
X89665Y-49016D01*
X86663Y-2411D02*
X89665Y-5413D01*
X50295Y-24705D02*
X70079D01*
X73425Y-39665D02*
Y-28051D01*
X70079Y-24705D02*
X73425Y-28051D01*
Y-39665D02*
X76968Y-43209D01*
X84252D01*
X43012Y-21752D02*
X64272D01*
X43645Y-40509D02*
X47047Y-37106D01*
X40987Y-40509D02*
X43645D01*
X40945Y-40551D02*
X40987Y-40509D01*
X47047Y-37106D02*
Y-34154D01*
X36417Y-31496D02*
X38484Y-29429D01*
X47047D01*
X9827Y-23425D02*
Y-1476D01*
X50984Y-15748D02*
X61024D01*
X46024Y-12658D02*
X56024D01*
D19*
X-62858Y-32958D02*
G03*
X-65158Y-35258I0J-2300D01*
G01*
X-61058Y-32958D02*
G03*
X-61058Y-31158I0J900D01*
G01*
X-67857Y-26558D02*
G03*
X-67857Y-31158I0J-2300D01*
G01*
X-66057Y-26558D02*
G03*
X-65158Y-25658I0J900D01*
G01*
X-62858Y-34358D02*
G03*
X-63757Y-35258I0J-900D01*
G01*
X-61058Y-34358D02*
G03*
X-61058Y-29758I0J2300D01*
G01*
X-67857Y-27958D02*
G03*
X-67857Y-29758I0J-900D01*
G01*
X-66057Y-27958D02*
G03*
X-63757Y-25658I0J2300D01*
G01*
X120866Y-52461D02*
X126476D01*
X-65158Y-38594D02*
X-63889Y-39862D01*
X-65158Y-38594D02*
Y-35258D01*
X-62858Y-32958D02*
X-61058D01*
X-67857Y-31158D02*
X-61058D01*
X-67857Y-26558D02*
X-66057D01*
X-65158Y-25658D02*
Y-21358D01*
X-61910Y-39862D02*
X-61909Y-39862D01*
X-63757Y-38014D02*
X-61909Y-39862D01*
X-63757Y-38014D02*
Y-35258D01*
X-62858Y-34358D02*
X-61058D01*
X-67857Y-29758D02*
X-61058D01*
X-67857Y-27958D02*
X-66057D01*
X-63757Y-25658D02*
Y-21358D01*
X-63889Y-39862D02*
X-62437Y-41314D01*
X-65158Y-21358D02*
Y-18185D01*
X-61909Y-39862D02*
X-61857Y-39914D01*
X-63757Y-21358D02*
Y-18765D01*
X-61857Y-39914D02*
X-56879D01*
X-63757Y-18765D02*
X-60632Y-15639D01*
X-65158Y-18185D02*
X-62032Y-15059D01*
X-55796Y-38831D02*
X-55610D01*
X-56879Y-39914D02*
X-55796Y-38831D01*
X-59449Y-10519D02*
Y-10433D01*
X-60632Y-11702D02*
X-59449Y-10519D01*
X-60632Y-15639D02*
Y-11702D01*
X-56879Y-41314D02*
X-55796Y-42397D01*
X-55610D01*
X-63214Y-10519D02*
X-62032Y-11702D01*
Y-15059D02*
Y-11702D01*
X-62437Y-41314D02*
X-56879D01*
X-63214Y-10519D02*
Y-10433D01*
D20*
X-140986Y-9935D02*
Y36967D01*
X-133557Y-17364D02*
X-96524D01*
X-140986Y-9935D02*
X-133557Y-17364D01*
X-138386Y-8858D02*
Y35728D01*
X-132480Y-14764D02*
X-96565D01*
X-138386Y-8858D02*
X-132480Y-14764D01*
X-136724Y37390D02*
X-133847D01*
X-138386Y35728D02*
X-136724Y37390D01*
X-140986Y36967D02*
X-136614Y41339D01*
X-133858D01*
X-93923Y-19965D02*
X-93815D01*
X-96524Y-17364D02*
X-93923Y-19965D01*
X-96565Y-14764D02*
X-94104Y-12303D01*
X-93996D01*
X-110925Y-41339D02*
X-95197D01*
X-110907Y-33404D02*
X-95215D01*
X-95197Y-33386D01*
X-110925Y-33421D02*
X-110907Y-33404D01*
X114051Y-39394D02*
X132874D01*
D21*
X-59547Y-65453D02*
D03*
X-67421D02*
D03*
X-75295D02*
D03*
D22*
X-83169D02*
D03*
D23*
X112122Y-49431D02*
D03*
X134878Y-49431D02*
D03*
D24*
X106492Y-63801D02*
D03*
X140508Y-63801D02*
D03*
D25*
X106492Y-47463D02*
D03*
X140508Y-47463D02*
D03*
D26*
X144783Y-10039D02*
D03*
X143799Y69291D02*
D03*
X148917Y64862D02*
D03*
X126279Y34154D02*
D03*
X126575Y41831D02*
D03*
X135630D02*
D03*
X144685D02*
D03*
X107874Y-2854D02*
D03*
X98671D02*
D03*
Y6791D02*
D03*
Y34154D02*
D03*
Y25787D02*
D03*
X135482Y34154D02*
D03*
Y25787D02*
D03*
X117077Y-2854D02*
D03*
X126279D02*
D03*
X135482D02*
D03*
X144685D02*
D03*
X89468Y6791D02*
D03*
X135482D02*
D03*
X144685D02*
D03*
X89468Y16929D02*
D03*
X98671D02*
D03*
X135482D02*
D03*
X144685D02*
D03*
X89468Y25787D02*
D03*
X107874D02*
D03*
X117077D02*
D03*
X126279D02*
D03*
X144685D02*
D03*
X89468Y34154D02*
D03*
X107874D02*
D03*
X117077D02*
D03*
X144685D02*
D03*
X8790Y-70374D02*
D03*
X-1316D02*
D03*
X-11423D02*
D03*
X-21531D02*
D03*
X-31638D02*
D03*
X-41745D02*
D03*
X-51852D02*
D03*
X-61959D02*
D03*
X-72066D02*
D03*
X-82173D02*
D03*
X-92280D02*
D03*
X-102387D02*
D03*
X-112494D02*
D03*
X-122601D02*
D03*
X-132708D02*
D03*
X-142815D02*
D03*
X18898D02*
D03*
X-46798Y69488D02*
D03*
X-36556D02*
D03*
X-26314D02*
D03*
X-16072D02*
D03*
X-5830D02*
D03*
X4412D02*
D03*
X14654D02*
D03*
X24896D02*
D03*
X35138D02*
D03*
X-138976D02*
D03*
X-128734D02*
D03*
X-118492D02*
D03*
X-108250D02*
D03*
X-98008D02*
D03*
X-87766D02*
D03*
X-77524D02*
D03*
X-67282D02*
D03*
X-57040D02*
D03*
X162500Y-49409D02*
D03*
X155512D02*
D03*
X150394Y-53051D02*
D03*
X148327Y-57972D02*
D03*
Y-64026D02*
D03*
Y-70079D02*
D03*
X-148031Y57284D02*
D03*
X-155217Y48720D02*
D03*
X-162205D02*
D03*
X-169193D02*
D03*
X-150098Y52362D02*
D03*
X-148031Y63337D02*
D03*
Y69390D02*
D03*
X-170177Y-47736D02*
D03*
X-164124D02*
D03*
X-153150Y-49803D02*
D03*
X-149508Y-68898D02*
D03*
Y-61910D02*
D03*
Y-54921D02*
D03*
X-158071Y-47736D02*
D03*
X-164469Y-40846D02*
D03*
Y-30598D02*
D03*
Y-20349D02*
D03*
Y-10101D02*
D03*
Y148D02*
D03*
Y10396D02*
D03*
Y20645D02*
D03*
Y30893D02*
D03*
Y41142D02*
D03*
X169291Y-26181D02*
D03*
Y-48819D02*
D03*
Y-41273D02*
D03*
Y-33727D02*
D03*
X149606Y57579D02*
D03*
X74902Y-61614D02*
D03*
X72441Y-52362D02*
D03*
X96752Y-44390D02*
D03*
X-14469Y27657D02*
D03*
X-59646Y17126D02*
D03*
X-63681Y17224D02*
D03*
X-52362Y-35236D02*
D03*
X-109941Y23819D02*
D03*
X-114469D02*
D03*
X-118996D02*
D03*
X-30906Y42717D02*
D03*
X-31841Y9646D02*
D03*
X-26870D02*
D03*
X-36811D02*
D03*
X-26673Y-886D02*
D03*
X-31791D02*
D03*
X-36909D02*
D03*
X-55905Y35335D02*
D03*
X-64764Y38484D02*
D03*
X-85827Y38189D02*
D03*
X-5020Y-1969D02*
D03*
X-4980Y9843D02*
D03*
X-5020Y-5906D02*
D03*
Y5906D02*
D03*
X-4980Y13780D02*
D03*
Y1969D02*
D03*
X6102Y-1476D02*
D03*
X-111024Y5906D02*
D03*
X-11516Y-21198D02*
D03*
X56024Y37034D02*
D03*
X61024D02*
D03*
X-11516Y-26575D02*
D03*
X37984Y49500D02*
D03*
X4181Y57972D02*
D03*
X37984Y44500D02*
D03*
X219Y57972D02*
D03*
X76000Y44700D02*
D03*
Y49300D02*
D03*
X-22441Y60402D02*
D03*
X-15087Y43968D02*
D03*
X85335Y40650D02*
D03*
X-70866Y38878D02*
D03*
X-85728Y42421D02*
D03*
X-45500Y-52000D02*
D03*
X-25098Y-20141D02*
D03*
X-25500Y38500D02*
D03*
X123500Y60100D02*
D03*
Y55500D02*
D03*
X-83801Y18369D02*
D03*
X-89961Y20965D02*
D03*
X-55807Y-10433D02*
D03*
X-55610Y-38831D02*
D03*
Y-42397D02*
D03*
X-63214Y-10433D02*
D03*
X-59449D02*
D03*
X-98492Y23000D02*
D03*
X-111024Y-5906D02*
D03*
Y-1969D02*
D03*
Y1969D02*
D03*
Y9843D02*
D03*
Y13780D02*
D03*
X-52449Y30402D02*
D03*
X86663Y-2411D02*
D03*
X51772Y-56496D02*
D03*
X84252Y-43209D02*
D03*
X50295Y-24705D02*
D03*
X64272Y-21752D02*
D03*
X43012D02*
D03*
X40945Y-40551D02*
D03*
X36417Y-31496D02*
D03*
X-133847Y37390D02*
D03*
X-133858Y41339D02*
D03*
X-93815Y-19965D02*
D03*
X-93996Y-12303D02*
D03*
X-95197Y-41339D02*
D03*
X-110925D02*
D03*
Y-33421D02*
D03*
X-95197Y-33386D02*
D03*
X-15087Y32969D02*
D03*
X-70866Y33169D02*
D03*
X-3102Y60473D02*
D03*
X6102Y-23425D02*
D03*
X9827D02*
D03*
Y-1476D02*
D03*
X36374Y30752D02*
D03*
X114173Y67323D02*
D03*
X145866Y-33213D02*
D03*
X-59201Y-22933D02*
D03*
X-22441Y63748D02*
D03*
X-102067D02*
D03*
X2461Y-42520D02*
D03*
X18406Y11516D02*
D03*
X31532Y-14405D02*
D03*
X106299Y-29134D02*
D03*
X47047Y-29429D02*
D03*
X50984Y-15748D02*
D03*
X61024D02*
D03*
X56024Y-12658D02*
D03*
X46024D02*
D03*
X47047Y-34154D02*
D03*
X23130Y-68504D02*
D03*
X80020Y67421D02*
D03*
X0Y-25492D02*
D03*
X16043D02*
D03*
X13583Y-10138D02*
D03*
X16634Y-19488D02*
D03*
X84153Y-35244D02*
D03*
X59252Y-68504D02*
D03*
X126476Y-52461D02*
D03*
X120866D02*
D03*
X98980Y-68173D02*
D03*
X132874Y-39394D02*
D03*
X114051Y-39394D02*
D03*
D27*
X65425Y-40453D02*
D03*
X60925Y-44953D02*
D03*
X56425Y-40453D02*
D03*
X60925Y-35953D02*
D03*
X56425D02*
D03*
D28*
X60925Y-40453D02*
D03*
X56425Y-44953D02*
D03*
X65425Y-35953D02*
D03*
Y-44953D02*
D03*
M02*
