G04*
G04 #@! TF.GenerationSoftware,Altium Limited,Altium Designer,21.3.2 (30)*
G04*
G04 Layer_Color=128*
%FSLAX25Y25*%
%MOIN*%
G70*
G04*
G04 #@! TF.SameCoordinates,D336144A-5441-4EE2-8883-8E06B423CE8D*
G04*
G04*
G04 #@! TF.FilePolarity,Positive*
G04*
G01*
G75*
%ADD55R,0.03500X0.05900*%
%ADD64R,0.03000X0.01000*%
%ADD65R,0.04700X0.07500*%
%ADD106R,0.02759X0.02562*%
%ADD107R,0.07090X0.03192*%
%ADD108R,0.02562X0.02759*%
%ADD109R,0.00280X0.00280*%
%ADD110R,0.04728X0.02759*%
%ADD111R,0.03861X0.04058*%
%ADD112R,0.02562X0.06106*%
%ADD113R,0.01381X0.06106*%
%ADD114R,0.07578X0.14058*%
%ADD115R,0.05121X0.04137*%
%ADD116R,0.04137X0.07287*%
%ADD117R,0.02562X0.04531*%
%ADD118R,0.08861X0.02562*%
%ADD119R,0.02759X0.02956*%
%ADD120R,0.05121X0.02956*%
%ADD121R,0.06100X0.03700*%
%ADD122R,0.03700X0.03700*%
%ADD123R,0.13979X0.13979*%
%ADD124O,0.01302X0.03743*%
%ADD125O,0.03743X0.01302*%
%ADD126R,0.04531X0.02562*%
%ADD127R,0.06200X0.06200*%
%ADD128R,0.04058X0.03861*%
%ADD129R,0.04137X0.08074*%
%ADD130R,0.02169X0.06499*%
%ADD131R,0.08468X0.12011*%
%ADD132R,0.11224X0.07287*%
%ADD133R,0.08861X0.02562*%
%ADD134R,0.03192X0.07090*%
G36*
X65059Y-38288D02*
X63090Y-38288D01*
X63090Y-36319D01*
X65059D01*
Y-38288D01*
D02*
G37*
G36*
X61909Y-38288D02*
X59941D01*
Y-36319D01*
X61909D01*
Y-38288D01*
D02*
G37*
G36*
X58760D02*
X56791Y-38288D01*
Y-36319D01*
X58760D01*
X58760Y-38288D01*
D02*
G37*
G36*
X65059Y-41437D02*
X63090D01*
Y-39469D01*
X65059D01*
Y-41437D01*
D02*
G37*
G36*
X61909D02*
X59941D01*
Y-39469D01*
X61909D01*
Y-41437D01*
D02*
G37*
G36*
X58760D02*
X56791D01*
Y-39469D01*
X58760D01*
Y-41437D01*
D02*
G37*
G36*
X65059Y-42618D02*
Y-44587D01*
X63090D01*
X63090Y-42618D01*
X65059Y-42618D01*
D02*
G37*
G36*
X61909Y-44587D02*
X59941D01*
Y-42618D01*
X61909D01*
Y-44587D01*
D02*
G37*
G36*
X58760D02*
X56791D01*
Y-42618D01*
X58760Y-42618D01*
X58760Y-44587D01*
D02*
G37*
D55*
X146871Y-18504D02*
D03*
X141871Y-18504D02*
D03*
X136871Y-18504D02*
D03*
X131871D02*
D03*
X126871D02*
D03*
X121871D02*
D03*
X116871Y-18504D02*
D03*
X111871Y-18504D02*
D03*
X106871D02*
D03*
X101871D02*
D03*
X96871D02*
D03*
X91871Y-18504D02*
D03*
X86871Y-18504D02*
D03*
X81871D02*
D03*
X146871Y50394D02*
D03*
X141871Y50394D02*
D03*
X136871Y50394D02*
D03*
X131871D02*
D03*
X126871D02*
D03*
X121871D02*
D03*
X116871Y50394D02*
D03*
X111871Y50394D02*
D03*
X106871D02*
D03*
X101871D02*
D03*
X96871D02*
D03*
X91871Y50394D02*
D03*
X86871Y50394D02*
D03*
X81871D02*
D03*
D64*
X-74161Y34157D02*
D03*
Y32189D02*
D03*
Y30220D02*
D03*
X-83761D02*
D03*
Y32189D02*
D03*
Y34157D02*
D03*
Y36126D02*
D03*
X-74161D02*
D03*
D65*
X-78961Y33173D02*
D03*
D106*
X-3102Y57276D02*
D03*
Y53929D02*
D03*
X46024Y27965D02*
D03*
Y31311D02*
D03*
X51024Y27965D02*
D03*
Y31311D02*
D03*
X56024D02*
D03*
Y27965D02*
D03*
X61024Y31311D02*
D03*
Y27965D02*
D03*
X5400Y45500D02*
D03*
Y48846D02*
D03*
X11200D02*
D03*
X11200Y45500D02*
D03*
X17000Y48847D02*
D03*
X17000Y45500D02*
D03*
X22800Y48847D02*
D03*
Y45500D02*
D03*
X28600Y48847D02*
D03*
Y45500D02*
D03*
X34400Y48847D02*
D03*
Y45500D02*
D03*
X100000Y-49827D02*
D03*
Y-53173D02*
D03*
X-89961Y38780D02*
D03*
Y35433D02*
D03*
X-89976Y28532D02*
D03*
Y25185D02*
D03*
X-40780Y35047D02*
D03*
Y38394D02*
D03*
X-30937Y35047D02*
D03*
Y38394D02*
D03*
X-59201Y-28626D02*
D03*
Y-31972D02*
D03*
X-53417Y-28614D02*
D03*
X-53417Y-31961D02*
D03*
X15992Y-31949D02*
D03*
Y-28602D02*
D03*
X25000Y-45827D02*
D03*
Y-49173D02*
D03*
X40945Y-33169D02*
D03*
Y-29823D02*
D03*
X82000Y-64827D02*
D03*
Y-68173D02*
D03*
X88500Y-64827D02*
D03*
Y-68173D02*
D03*
X95500Y-68173D02*
D03*
Y-64827D02*
D03*
X156693Y-36122D02*
D03*
Y-39469D02*
D03*
X-10102Y53929D02*
D03*
Y57276D02*
D03*
X-98339Y60402D02*
D03*
Y63748D02*
D03*
X-25850Y60402D02*
D03*
Y63748D02*
D03*
X-8Y-28602D02*
D03*
Y-31949D02*
D03*
X147000Y-53173D02*
D03*
Y-49827D02*
D03*
X-69193Y-40453D02*
D03*
Y-37106D02*
D03*
D107*
X69090Y44500D02*
D03*
X69090Y49500D02*
D03*
X42910Y44500D02*
D03*
X42910Y49500D02*
D03*
D108*
X-9154Y-9154D02*
D03*
X-12500D02*
D03*
X-55795Y21500D02*
D03*
X-52449Y21500D02*
D03*
X-102071Y34000D02*
D03*
X-105417D02*
D03*
Y28500D02*
D03*
X-102071D02*
D03*
X-78150Y42421D02*
D03*
X-81496D02*
D03*
X138591Y-33213D02*
D03*
X141937Y-33213D02*
D03*
X138591Y-27713D02*
D03*
X141937Y-27713D02*
D03*
X-70866Y42421D02*
D03*
X-67520D02*
D03*
X83669Y67362D02*
D03*
X87016D02*
D03*
X117669D02*
D03*
X121016D02*
D03*
X-52461Y-2551D02*
D03*
X-55807D02*
D03*
X-52461Y3937D02*
D03*
X-55807D02*
D03*
X-55807Y9449D02*
D03*
X-52461Y9449D02*
D03*
X-52461Y15157D02*
D03*
X-55807Y15157D02*
D03*
X-52449Y27000D02*
D03*
X-55795Y27000D02*
D03*
X-86661Y-15965D02*
D03*
X-90008D02*
D03*
X-86661Y-23445D02*
D03*
X-90008D02*
D03*
X-102071Y17717D02*
D03*
X-105417D02*
D03*
X-105417Y23000D02*
D03*
X-102071D02*
D03*
X-102071Y-49878D02*
D03*
X-105417D02*
D03*
X-102071Y-44378D02*
D03*
X-105417D02*
D03*
Y-38878D02*
D03*
X-102071D02*
D03*
X-105417Y-33378D02*
D03*
X-102071D02*
D03*
X-105417Y-27878D02*
D03*
X-102071D02*
D03*
X-105417Y-22378D02*
D03*
X-102071D02*
D03*
X-102071Y-10000D02*
D03*
X-105417D02*
D03*
X-105417Y-16878D02*
D03*
X-102071D02*
D03*
X-86327Y8500D02*
D03*
X-89673D02*
D03*
X-77264Y18516D02*
D03*
X-80610D02*
D03*
X-80665Y50221D02*
D03*
X-84012D02*
D03*
X-42878Y50221D02*
D03*
X-39531D02*
D03*
X-18685Y27468D02*
D03*
X-22031D02*
D03*
X-18685Y32969D02*
D03*
X-22031D02*
D03*
X-22031Y38469D02*
D03*
X-18685D02*
D03*
X-18685Y43968D02*
D03*
X-22031D02*
D03*
X-12500Y-4626D02*
D03*
X-9154Y-4626D02*
D03*
X-12461Y-11D02*
D03*
X-9114Y-11D02*
D03*
X6102Y-12894D02*
D03*
X9449D02*
D03*
X27114Y-68500D02*
D03*
X30461Y-68500D02*
D03*
X27114Y-61500D02*
D03*
X30461Y-61500D02*
D03*
X-21752Y-17500D02*
D03*
X-25098D02*
D03*
X-21752Y-12008D02*
D03*
X-25098Y-12008D02*
D03*
X-80610Y24016D02*
D03*
X-77264D02*
D03*
X-9114Y9033D02*
D03*
X-12461Y9033D02*
D03*
X-9154Y13583D02*
D03*
X-12500D02*
D03*
X-9154Y4528D02*
D03*
X-12500Y4528D02*
D03*
D109*
X-32000Y4500D02*
D03*
D110*
X-80642Y-23445D02*
D03*
Y-15965D02*
D03*
X-69028Y-19705D02*
D03*
D111*
X90335Y-47441D02*
D03*
X84272D02*
D03*
X94811Y67362D02*
D03*
X100874D02*
D03*
X128811D02*
D03*
X134874D02*
D03*
X25469Y-9748D02*
D03*
X31532D02*
D03*
X25469Y-2748D02*
D03*
X31532D02*
D03*
X25469Y23248D02*
D03*
X31532D02*
D03*
X25469Y30752D02*
D03*
X31532D02*
D03*
X6795Y-19500D02*
D03*
X12858D02*
D03*
X42819Y-68500D02*
D03*
X36756Y-68500D02*
D03*
X42819Y-61500D02*
D03*
X36756Y-61500D02*
D03*
X63894Y-68500D02*
D03*
X69957D02*
D03*
X63894Y-61500D02*
D03*
X69957D02*
D03*
X7500Y11516D02*
D03*
X13563D02*
D03*
D112*
X110902Y-44657D02*
D03*
X114051D02*
D03*
X132949D02*
D03*
X136099D02*
D03*
D113*
X116610D02*
D03*
X118579D02*
D03*
X120547D02*
D03*
X122516D02*
D03*
X124484D02*
D03*
X126453D02*
D03*
X128421D02*
D03*
X130390D02*
D03*
D114*
X-88591Y-3000D02*
D03*
X-73409D02*
D03*
D115*
X-77559Y-55413D02*
D03*
X-89173D02*
D03*
Y-44291D02*
D03*
X-77559D02*
D03*
X-77527Y-33386D02*
D03*
X-89142D02*
D03*
D116*
X-40780Y27220D02*
D03*
X-30937D02*
D03*
D117*
X32240Y5528D02*
D03*
X28500D02*
D03*
X24760D02*
D03*
Y14976D02*
D03*
X32240D02*
D03*
X6087Y3449D02*
D03*
X9827D02*
D03*
X13567D02*
D03*
Y-6000D02*
D03*
X9827D02*
D03*
X6087D02*
D03*
D118*
X-44917Y-43114D02*
D03*
Y-38114D02*
D03*
Y-33114D02*
D03*
Y-28114D02*
D03*
X-26020Y-43114D02*
D03*
Y-38114D02*
D03*
Y-33114D02*
D03*
Y-28114D02*
D03*
D119*
X9665Y-33031D02*
D03*
Y-27520D02*
D03*
X6319Y-33031D02*
D03*
Y-27520D02*
D03*
D120*
X32921Y-27760D02*
D03*
Y-35240D02*
D03*
X23079Y-31500D02*
D03*
X33079Y-51240D02*
D03*
Y-43760D02*
D03*
X42921Y-47500D02*
D03*
D121*
X76948Y-6555D02*
D03*
Y-1555D02*
D03*
Y3445D02*
D03*
X76948Y8445D02*
D03*
X76948Y13445D02*
D03*
Y18445D02*
D03*
X76948Y23445D02*
D03*
X76948Y28445D02*
D03*
Y33445D02*
D03*
Y38445D02*
D03*
D122*
X117974Y4511D02*
D03*
Y10023D02*
D03*
Y15534D02*
D03*
X112462Y4511D02*
D03*
Y10023D02*
D03*
Y15535D02*
D03*
X123486Y4511D02*
D03*
Y10023D02*
D03*
Y15534D02*
D03*
D123*
X60925Y-40553D02*
D03*
D124*
X54035Y-30413D02*
D03*
X56005D02*
D03*
X57975D02*
D03*
X59945D02*
D03*
X61905D02*
D03*
X63875D02*
D03*
X65845D02*
D03*
X67815D02*
D03*
Y-50493D02*
D03*
X65845D02*
D03*
X63875D02*
D03*
X61905D02*
D03*
X59945D02*
D03*
X57975D02*
D03*
X56005D02*
D03*
X54035D02*
D03*
D125*
X70965Y-33563D02*
D03*
Y-35533D02*
D03*
Y-37503D02*
D03*
Y-39473D02*
D03*
Y-41433D02*
D03*
Y-43403D02*
D03*
Y-45373D02*
D03*
Y-47343D02*
D03*
X50885D02*
D03*
Y-45373D02*
D03*
Y-43403D02*
D03*
Y-41433D02*
D03*
Y-39473D02*
D03*
Y-37503D02*
D03*
Y-35533D02*
D03*
Y-33563D02*
D03*
D126*
X97374Y-31504D02*
D03*
Y-35244D02*
D03*
Y-38984D02*
D03*
X87925D02*
D03*
Y-35244D02*
D03*
Y-31504D02*
D03*
D127*
X125197Y-29134D02*
D03*
X111697D02*
D03*
D128*
X164000Y-42244D02*
D03*
Y-36181D02*
D03*
X-10102Y40071D02*
D03*
Y46134D02*
D03*
X-3102Y40071D02*
D03*
Y46134D02*
D03*
D129*
X-72984Y60417D02*
D03*
X-91882D02*
D03*
X-50965D02*
D03*
X-32067D02*
D03*
X-26551Y-58000D02*
D03*
X-45449D02*
D03*
D130*
X2461Y-47791D02*
D03*
X-2460Y-47791D02*
D03*
D131*
X-12500Y-59209D02*
D03*
X12500D02*
D03*
D132*
X-135728Y54331D02*
D03*
Y-54331D02*
D03*
D133*
X-127067Y-45276D02*
D03*
Y-41339D02*
D03*
Y-37402D02*
D03*
Y-33465D02*
D03*
Y-29528D02*
D03*
Y-25591D02*
D03*
Y-21654D02*
D03*
Y-17717D02*
D03*
Y-13780D02*
D03*
Y-9843D02*
D03*
Y-5906D02*
D03*
Y-1969D02*
D03*
Y1969D02*
D03*
Y5906D02*
D03*
Y9843D02*
D03*
Y13780D02*
D03*
Y17717D02*
D03*
Y21654D02*
D03*
Y25591D02*
D03*
Y29528D02*
D03*
Y33465D02*
D03*
Y37402D02*
D03*
Y41339D02*
D03*
Y45276D02*
D03*
D134*
X46024Y-6594D02*
D03*
X51024D02*
D03*
X56024D02*
D03*
X61024D02*
D03*
X46024Y19587D02*
D03*
X51024D02*
D03*
X56024D02*
D03*
X61024D02*
D03*
M02*
