G04*
G04 #@! TF.GenerationSoftware,Altium Limited,Altium Designer,18.1.9 (240)*
G04*
G04 Layer_Color=2752767*
%FSLAX25Y25*%
%MOIN*%
G70*
G01*
G75*
%ADD18C,0.00800*%
%ADD139C,0.00500*%
%ADD144C,0.00200*%
%ADD145C,0.01500*%
%ADD146C,0.00700*%
D18*
X138340Y187079D02*
Y182880D01*
X136940Y187079D02*
X139740D01*
X140240Y184479D02*
X142639D01*
Y184879D01*
X142439Y185279D01*
X142239Y185479D01*
X141839Y185679D01*
X141239D01*
X140839Y185479D01*
X140439Y185079D01*
X140240Y184479D01*
Y184080D01*
X140439Y183480D01*
X140839Y183080D01*
X141239Y182880D01*
X141839D01*
X142239Y183080D01*
X142639Y183480D01*
X143539Y185679D02*
Y182880D01*
Y184879D02*
X144139Y185479D01*
X144539Y185679D01*
X145139D01*
X145538Y185479D01*
X145738Y184879D01*
Y182880D01*
Y184879D02*
X146338Y185479D01*
X146738Y185679D01*
X147338D01*
X147738Y185479D01*
X147938Y184879D01*
Y182880D01*
X149258Y185679D02*
Y181480D01*
Y185079D02*
X149657Y185479D01*
X150057Y185679D01*
X150657D01*
X151057Y185479D01*
X151457Y185079D01*
X151657Y184479D01*
Y184080D01*
X151457Y183480D01*
X151057Y183080D01*
X150657Y182880D01*
X150057D01*
X149657Y183080D01*
X149258Y183480D01*
X152557Y187079D02*
Y182880D01*
X155836Y185679D02*
Y182880D01*
Y185079D02*
X155436Y185479D01*
X155036Y185679D01*
X154437D01*
X154037Y185479D01*
X153637Y185079D01*
X153437Y184479D01*
Y184080D01*
X153637Y183480D01*
X154037Y183080D01*
X154437Y182880D01*
X155036D01*
X155436Y183080D01*
X155836Y183480D01*
X157556Y187079D02*
Y183680D01*
X157756Y183080D01*
X158156Y182880D01*
X158556D01*
X156956Y185679D02*
X158356D01*
X159155Y184479D02*
X161555D01*
Y184879D01*
X161355Y185279D01*
X161155Y185479D01*
X160755Y185679D01*
X160155D01*
X159755Y185479D01*
X159355Y185079D01*
X159155Y184479D01*
Y184080D01*
X159355Y183480D01*
X159755Y183080D01*
X160155Y182880D01*
X160755D01*
X161155Y183080D01*
X161555Y183480D01*
X99757Y184879D02*
X101556D01*
X102156Y185079D01*
X102356Y185279D01*
X102556Y185679D01*
Y186279D01*
X102356Y186679D01*
X102156Y186879D01*
X101556Y187079D01*
X99757D01*
Y182880D01*
X105895Y185679D02*
Y182880D01*
Y185079D02*
X105496Y185479D01*
X105096Y185679D01*
X104496D01*
X104096Y185479D01*
X103696Y185079D01*
X103496Y184479D01*
Y184080D01*
X103696Y183480D01*
X104096Y183080D01*
X104496Y182880D01*
X105096D01*
X105496Y183080D01*
X105895Y183480D01*
X109415Y187079D02*
Y182880D01*
Y185079D02*
X109015Y185479D01*
X108615Y185679D01*
X108015D01*
X107615Y185479D01*
X107215Y185079D01*
X107015Y184479D01*
Y184080D01*
X107215Y183480D01*
X107615Y183080D01*
X108015Y182880D01*
X108615D01*
X109015Y183080D01*
X109415Y183480D01*
X116633Y186479D02*
X116233Y186879D01*
X115633Y187079D01*
X114833D01*
X114234Y186879D01*
X113834Y186479D01*
Y186079D01*
X114034Y185679D01*
X114234Y185479D01*
X114634Y185279D01*
X115833Y184879D01*
X116233Y184679D01*
X116433Y184479D01*
X116633Y184080D01*
Y183480D01*
X116233Y183080D01*
X115633Y182880D01*
X114833D01*
X114234Y183080D01*
X113834Y183480D01*
X117573Y187079D02*
Y182880D01*
Y184879D02*
X118173Y185479D01*
X118573Y185679D01*
X119173D01*
X119572Y185479D01*
X119773Y184879D01*
Y182880D01*
X123272Y185679D02*
Y182880D01*
Y185079D02*
X122872Y185479D01*
X122472Y185679D01*
X121872D01*
X121472Y185479D01*
X121072Y185079D01*
X120872Y184479D01*
Y184080D01*
X121072Y183480D01*
X121472Y183080D01*
X121872Y182880D01*
X122472D01*
X122872Y183080D01*
X123272Y183480D01*
X124391Y185679D02*
Y181480D01*
Y185079D02*
X124791Y185479D01*
X125191Y185679D01*
X125791D01*
X126191Y185479D01*
X126591Y185079D01*
X126791Y184479D01*
Y184080D01*
X126591Y183480D01*
X126191Y183080D01*
X125791Y182880D01*
X125191D01*
X124791Y183080D01*
X124391Y183480D01*
X127691Y184479D02*
X130090D01*
Y184879D01*
X129890Y185279D01*
X129690Y185479D01*
X129290Y185679D01*
X128691D01*
X128291Y185479D01*
X127891Y185079D01*
X127691Y184479D01*
Y184080D01*
X127891Y183480D01*
X128291Y183080D01*
X128691Y182880D01*
X129290D01*
X129690Y183080D01*
X130090Y183480D01*
X71371Y187079D02*
X72971Y182880D01*
X74571Y187079D02*
X72971Y182880D01*
X75511Y187079D02*
X75710Y186879D01*
X75910Y187079D01*
X75710Y187279D01*
X75511Y187079D01*
X75710Y185679D02*
Y182880D01*
X79050Y185679D02*
Y182880D01*
Y185079D02*
X78650Y185479D01*
X78250Y185679D01*
X77650D01*
X77250Y185479D01*
X76850Y185079D01*
X76650Y184479D01*
Y184080D01*
X76850Y183480D01*
X77250Y183080D01*
X77650Y182880D01*
X78250D01*
X78650Y183080D01*
X79050Y183480D01*
X80169Y182280D02*
X82969Y187079D01*
X83249Y184879D02*
X85048D01*
X85648Y185079D01*
X85848Y185279D01*
X86048Y185679D01*
Y186279D01*
X85848Y186679D01*
X85648Y186879D01*
X85048Y187079D01*
X83249D01*
Y182880D01*
X89388Y185679D02*
Y182880D01*
Y185079D02*
X88988Y185479D01*
X88588Y185679D01*
X87988D01*
X87588Y185479D01*
X87188Y185079D01*
X86988Y184479D01*
Y184080D01*
X87188Y183480D01*
X87588Y183080D01*
X87988Y182880D01*
X88588D01*
X88988Y183080D01*
X89388Y183480D01*
X92907Y187079D02*
Y182880D01*
Y185079D02*
X92507Y185479D01*
X92107Y185679D01*
X91507D01*
X91107Y185479D01*
X90707Y185079D01*
X90507Y184479D01*
Y184080D01*
X90707Y183480D01*
X91107Y183080D01*
X91507Y182880D01*
X92107D01*
X92507Y183080D01*
X92907Y183480D01*
X-365Y187079D02*
Y182880D01*
Y187079D02*
X1035D01*
X1635Y186879D01*
X2035Y186479D01*
X2235Y186079D01*
X2435Y185479D01*
Y184479D01*
X2235Y183880D01*
X2035Y183480D01*
X1635Y183080D01*
X1035Y182880D01*
X-365D01*
X3375Y185679D02*
Y182880D01*
Y184479D02*
X3575Y185079D01*
X3974Y185479D01*
X4374Y185679D01*
X4974D01*
X5754Y187079D02*
X5954Y186879D01*
X6154Y187079D01*
X5954Y187279D01*
X5754Y187079D01*
X5954Y185679D02*
Y182880D01*
X6894Y187079D02*
Y182880D01*
X7774Y187079D02*
Y182880D01*
X11953Y187079D02*
Y182880D01*
X14352D01*
X17212Y185679D02*
Y182880D01*
Y185079D02*
X16812Y185479D01*
X16412Y185679D01*
X15812D01*
X15412Y185479D01*
X15012Y185079D01*
X14812Y184479D01*
Y184080D01*
X15012Y183480D01*
X15412Y183080D01*
X15812Y182880D01*
X16412D01*
X16812Y183080D01*
X17212Y183480D01*
X18531Y185679D02*
X19731Y182880D01*
X20931Y185679D02*
X19731Y182880D01*
X19331Y182080D01*
X18931Y181680D01*
X18531Y181480D01*
X18331D01*
X21631Y184479D02*
X24030D01*
Y184879D01*
X23830Y185279D01*
X23630Y185479D01*
X23230Y185679D01*
X22630D01*
X22231Y185479D01*
X21831Y185079D01*
X21631Y184479D01*
Y184080D01*
X21831Y183480D01*
X22231Y183080D01*
X22630Y182880D01*
X23230D01*
X23630Y183080D01*
X24030Y183480D01*
X24930Y185679D02*
Y182880D01*
Y184479D02*
X25130Y185079D01*
X25530Y185479D01*
X25930Y185679D01*
X26530D01*
X30209Y184879D02*
X32008D01*
X32608Y185079D01*
X32808Y185279D01*
X33008Y185679D01*
Y186279D01*
X32808Y186679D01*
X32608Y186879D01*
X32008Y187079D01*
X30209D01*
Y182880D01*
X36348Y185679D02*
Y182880D01*
Y185079D02*
X35948Y185479D01*
X35548Y185679D01*
X34948D01*
X34548Y185479D01*
X34148Y185079D01*
X33948Y184479D01*
Y184080D01*
X34148Y183480D01*
X34548Y183080D01*
X34948Y182880D01*
X35548D01*
X35948Y183080D01*
X36348Y183480D01*
X37867Y187079D02*
X38067Y186879D01*
X38267Y187079D01*
X38067Y187279D01*
X37867Y187079D01*
X38067Y185679D02*
Y182880D01*
X39007Y185679D02*
Y182880D01*
Y184479D02*
X39207Y185079D01*
X39607Y185479D01*
X40007Y185679D01*
X40607D01*
X-34469Y187079D02*
Y182880D01*
X-31669Y187079D02*
Y182880D01*
X-34469Y185079D02*
X-31669D01*
X-29510Y185679D02*
X-29910Y185479D01*
X-30310Y185079D01*
X-30510Y184479D01*
Y184080D01*
X-30310Y183480D01*
X-29910Y183080D01*
X-29510Y182880D01*
X-28910D01*
X-28510Y183080D01*
X-28110Y183480D01*
X-27910Y184080D01*
Y184479D01*
X-28110Y185079D01*
X-28510Y185479D01*
X-28910Y185679D01*
X-29510D01*
X-26990Y187079D02*
Y182880D01*
X-26111Y184479D02*
X-23711D01*
Y184879D01*
X-23911Y185279D01*
X-24111Y185479D01*
X-24511Y185679D01*
X-25111D01*
X-25511Y185479D01*
X-25911Y185079D01*
X-26111Y184479D01*
Y184080D01*
X-25911Y183480D01*
X-25511Y183080D01*
X-25111Y182880D01*
X-24511D01*
X-24111Y183080D01*
X-23711Y183480D01*
X-18112Y187079D02*
Y182880D01*
X-19512Y187079D02*
X-16713D01*
X-16013Y185679D02*
X-14813Y182880D01*
X-13613Y185679D02*
X-14813Y182880D01*
X-15213Y182080D01*
X-15613Y181680D01*
X-16013Y181480D01*
X-16213D01*
X-12913Y185679D02*
Y181480D01*
Y185079D02*
X-12514Y185479D01*
X-12113Y185679D01*
X-11514D01*
X-11114Y185479D01*
X-10714Y185079D01*
X-10514Y184479D01*
Y184080D01*
X-10714Y183480D01*
X-11114Y183080D01*
X-11514Y182880D01*
X-12113D01*
X-12514Y183080D01*
X-12913Y183480D01*
X-9614Y184479D02*
X-7215D01*
Y184879D01*
X-7414Y185279D01*
X-7615Y185479D01*
X-8014Y185679D01*
X-8614D01*
X-9014Y185479D01*
X-9414Y185079D01*
X-9614Y184479D01*
Y184080D01*
X-9414Y183480D01*
X-9014Y183080D01*
X-8614Y182880D01*
X-8014D01*
X-7615Y183080D01*
X-7215Y183480D01*
X-57355Y184879D02*
X-55556D01*
X-54956Y185079D01*
X-54756Y185279D01*
X-54556Y185679D01*
Y186279D01*
X-54756Y186679D01*
X-54956Y186879D01*
X-55556Y187079D01*
X-57355D01*
Y182880D01*
X-53616Y187079D02*
Y182880D01*
X-50337Y185679D02*
Y182880D01*
Y185079D02*
X-50737Y185479D01*
X-51137Y185679D01*
X-51736D01*
X-52136Y185479D01*
X-52536Y185079D01*
X-52736Y184479D01*
Y184080D01*
X-52536Y183480D01*
X-52136Y183080D01*
X-51736Y182880D01*
X-51137D01*
X-50737Y183080D01*
X-50337Y183480D01*
X-48617Y187079D02*
Y183680D01*
X-48417Y183080D01*
X-48017Y182880D01*
X-47617D01*
X-49217Y185679D02*
X-47817D01*
X-47017Y184479D02*
X-44618D01*
Y184879D01*
X-44818Y185279D01*
X-45018Y185479D01*
X-45418Y185679D01*
X-46018D01*
X-46418Y185479D01*
X-46818Y185079D01*
X-47017Y184479D01*
Y184080D01*
X-46818Y183480D01*
X-46418Y183080D01*
X-46018Y182880D01*
X-45418D01*
X-45018Y183080D01*
X-44618Y183480D01*
X-41319Y187079D02*
Y182880D01*
Y185079D02*
X-41719Y185479D01*
X-42119Y185679D01*
X-42718D01*
X-43118Y185479D01*
X-43518Y185079D01*
X-43718Y184479D01*
Y184080D01*
X-43518Y183480D01*
X-43118Y183080D01*
X-42718Y182880D01*
X-42119D01*
X-41719Y183080D01*
X-41319Y183480D01*
X-112795Y187079D02*
Y182880D01*
X-109995Y187079D02*
Y182880D01*
X-112795Y185079D02*
X-109995D01*
X-107836Y185679D02*
X-108236Y185479D01*
X-108636Y185079D01*
X-108836Y184479D01*
Y184080D01*
X-108636Y183480D01*
X-108236Y183080D01*
X-107836Y182880D01*
X-107236D01*
X-106836Y183080D01*
X-106436Y183480D01*
X-106236Y184080D01*
Y184479D01*
X-106436Y185079D01*
X-106836Y185479D01*
X-107236Y185679D01*
X-107836D01*
X-105316Y187079D02*
Y182880D01*
X-104437Y184479D02*
X-102037D01*
Y184879D01*
X-102237Y185279D01*
X-102437Y185479D01*
X-102837Y185679D01*
X-103437D01*
X-103837Y185479D01*
X-104237Y185079D01*
X-104437Y184479D01*
Y184080D01*
X-104237Y183480D01*
X-103837Y183080D01*
X-103437Y182880D01*
X-102837D01*
X-102437Y183080D01*
X-102037Y183480D01*
X-95039Y186479D02*
X-95438Y186879D01*
X-96038Y187079D01*
X-96838D01*
X-97438Y186879D01*
X-97838Y186479D01*
Y186079D01*
X-97638Y185679D01*
X-97438Y185479D01*
X-97038Y185279D01*
X-95838Y184879D01*
X-95438Y184679D01*
X-95239Y184479D01*
X-95039Y184080D01*
Y183480D01*
X-95438Y183080D01*
X-96038Y182880D01*
X-96838D01*
X-97438Y183080D01*
X-97838Y183480D01*
X-93699Y187079D02*
X-93499Y186879D01*
X-93299Y187079D01*
X-93499Y187279D01*
X-93699Y187079D01*
X-93499Y185679D02*
Y182880D01*
X-90360Y185679D02*
X-92559Y182880D01*
Y185679D02*
X-90360D01*
X-92559Y182880D02*
X-90360D01*
X-89480Y184479D02*
X-87080D01*
Y184879D01*
X-87280Y185279D01*
X-87480Y185479D01*
X-87880Y185679D01*
X-88480D01*
X-88880Y185479D01*
X-89280Y185079D01*
X-89480Y184479D01*
Y184080D01*
X-89280Y183480D01*
X-88880Y183080D01*
X-88480Y182880D01*
X-87880D01*
X-87480Y183080D01*
X-87080Y183480D01*
X-138591Y186079D02*
X-138791Y186479D01*
X-139190Y186879D01*
X-139590Y187079D01*
X-140390D01*
X-140790Y186879D01*
X-141190Y186479D01*
X-141390Y186079D01*
X-141590Y185479D01*
Y184479D01*
X-141390Y183880D01*
X-141190Y183480D01*
X-140790Y183080D01*
X-140390Y182880D01*
X-139590D01*
X-139190Y183080D01*
X-138791Y183480D01*
X-138591Y183880D01*
X-136411Y185679D02*
X-136811Y185479D01*
X-137211Y185079D01*
X-137411Y184479D01*
Y184080D01*
X-137211Y183480D01*
X-136811Y183080D01*
X-136411Y182880D01*
X-135811D01*
X-135411Y183080D01*
X-135011Y183480D01*
X-134811Y184080D01*
Y184479D01*
X-135011Y185079D01*
X-135411Y185479D01*
X-135811Y185679D01*
X-136411D01*
X-133892D02*
Y183680D01*
X-133692Y183080D01*
X-133292Y182880D01*
X-132692D01*
X-132292Y183080D01*
X-131692Y183680D01*
Y185679D02*
Y182880D01*
X-130592Y185679D02*
Y182880D01*
Y184879D02*
X-129992Y185479D01*
X-129593Y185679D01*
X-128993D01*
X-128593Y185479D01*
X-128393Y184879D01*
Y182880D01*
X-126693Y187079D02*
Y183680D01*
X-126493Y183080D01*
X-126093Y182880D01*
X-125693D01*
X-127293Y185679D02*
X-125893D01*
X-165216Y186479D02*
X-165616Y186879D01*
X-166216Y187079D01*
X-167016D01*
X-167616Y186879D01*
X-168016Y186479D01*
Y186079D01*
X-167816Y185679D01*
X-167616Y185479D01*
X-167216Y185279D01*
X-166016Y184879D01*
X-165616Y184679D01*
X-165416Y184479D01*
X-165216Y184080D01*
Y183480D01*
X-165616Y183080D01*
X-166216Y182880D01*
X-167016D01*
X-167616Y183080D01*
X-168016Y183480D01*
X-164077Y185679D02*
X-162877Y182880D01*
X-161677Y185679D02*
X-162877Y182880D01*
X-163277Y182080D01*
X-163677Y181680D01*
X-164077Y181480D01*
X-164277D01*
X-160977Y185679D02*
Y182880D01*
Y184879D02*
X-160377Y185479D01*
X-159977Y185679D01*
X-159378D01*
X-158978Y185479D01*
X-158778Y184879D01*
Y182880D01*
Y184879D02*
X-158178Y185479D01*
X-157778Y185679D01*
X-157178D01*
X-156778Y185479D01*
X-156578Y184879D01*
Y182880D01*
X-155259Y187079D02*
Y182880D01*
Y185079D02*
X-154859Y185479D01*
X-154459Y185679D01*
X-153859D01*
X-153459Y185479D01*
X-153059Y185079D01*
X-152859Y184479D01*
Y184080D01*
X-153059Y183480D01*
X-153459Y183080D01*
X-153859Y182880D01*
X-154459D01*
X-154859Y183080D01*
X-155259Y183480D01*
X-150959Y185679D02*
X-151359Y185479D01*
X-151759Y185079D01*
X-151959Y184479D01*
Y184080D01*
X-151759Y183480D01*
X-151359Y183080D01*
X-150959Y182880D01*
X-150359D01*
X-149960Y183080D01*
X-149560Y183480D01*
X-149360Y184080D01*
Y184479D01*
X-149560Y185079D01*
X-149960Y185479D01*
X-150359Y185679D01*
X-150959D01*
X-148440Y187079D02*
Y182880D01*
D139*
X-165915Y158574D02*
G03*
X-165915Y158574I-1945J0D01*
G01*
X-169804Y175102D02*
X-168832D01*
X-169804D02*
Y177047D01*
X-168832D01*
Y178019D01*
X-166887D01*
Y177047D02*
Y178019D01*
Y177047D02*
X-165915D01*
Y175102D02*
Y177047D01*
X-166887Y175102D02*
X-165915D01*
X-166887Y174130D02*
Y175102D01*
X-168832Y174130D02*
X-166887D01*
X-168832D02*
Y175102D01*
X-169804Y165380D02*
X-167859Y166352D01*
X-165915Y165380D01*
X-166887Y167324D02*
X-165915Y165380D01*
X-166887Y167324D02*
X-165915Y169269D01*
X-167859Y168297D02*
X-165915Y169269D01*
X-169804D02*
X-167859Y168297D01*
X-169804Y169269D02*
X-168832Y167324D01*
X-169804Y165380D02*
X-168832Y167324D01*
X-167859Y147880D02*
X-165915Y151769D01*
X-169804D02*
X-165915D01*
X-169804D02*
X-167859Y147880D01*
X-169804Y139130D02*
X-165915D01*
Y143019D01*
X-169804D02*
X-165915D01*
X-169804Y139130D02*
Y143019D01*
X-168832Y131352D02*
X-167859Y130380D01*
X-169804Y131352D02*
X-168832D01*
X-169804D02*
X-168832Y132324D01*
X-169804Y133297D02*
X-168832Y132324D01*
X-169804Y133297D02*
X-168832D01*
X-167859Y134269D01*
X-166887Y133297D01*
X-165915D01*
X-166887Y132324D02*
X-165915Y133297D01*
X-166887Y132324D02*
X-165915Y131352D01*
X-166887D02*
X-165915D01*
X-167859Y130380D02*
X-166887Y131352D01*
X136940Y176463D02*
X137940Y174130D01*
X138940Y176463D02*
X137940Y174130D01*
X141506Y177129D02*
X141339Y177462D01*
X140839Y177629D01*
X140506D01*
X140006Y177462D01*
X139673Y176963D01*
X139506Y176129D01*
Y175296D01*
X139673Y174630D01*
X140006Y174296D01*
X140506Y174130D01*
X140673D01*
X141173Y174296D01*
X141506Y174630D01*
X141673Y175130D01*
Y175296D01*
X141506Y175796D01*
X141173Y176129D01*
X140673Y176296D01*
X140506D01*
X140006Y176129D01*
X139673Y175796D01*
X139506Y175296D01*
X142439Y176963D02*
X142772Y177129D01*
X143272Y177629D01*
Y174130D01*
X145005Y177629D02*
Y174130D01*
Y175796D02*
X145505Y176296D01*
X145838Y176463D01*
X146338D01*
X146671Y176296D01*
X146838Y175796D01*
Y174130D01*
X148088Y177629D02*
X149921D01*
X148921Y176296D01*
X149421D01*
X149754Y176129D01*
X149921Y175963D01*
X150087Y175463D01*
Y175130D01*
X149921Y174630D01*
X149588Y174296D01*
X149088Y174130D01*
X148588D01*
X148088Y174296D01*
X147921Y174463D01*
X147755Y174796D01*
X151870Y177629D02*
X151371Y177462D01*
X151037Y176963D01*
X150871Y176129D01*
Y175629D01*
X151037Y174796D01*
X151371Y174296D01*
X151870Y174130D01*
X152204D01*
X152703Y174296D01*
X153037Y174796D01*
X153203Y175629D01*
Y176129D01*
X153037Y176963D01*
X152703Y177462D01*
X152204Y177629D01*
X151870D01*
X153987Y176463D02*
Y174130D01*
Y175796D02*
X154487Y176296D01*
X154820Y176463D01*
X155320D01*
X155653Y176296D01*
X155820Y175796D01*
Y174130D01*
Y175796D02*
X156319Y176296D01*
X156653Y176463D01*
X157153D01*
X157486Y176296D01*
X157652Y175796D01*
Y174130D01*
X159752Y177629D02*
X159252Y177462D01*
X158919Y176963D01*
X158752Y176129D01*
Y175629D01*
X158919Y174796D01*
X159252Y174296D01*
X159752Y174130D01*
X160085D01*
X160585Y174296D01*
X160918Y174796D01*
X161085Y175629D01*
Y176129D01*
X160918Y176963D01*
X160585Y177462D01*
X160085Y177629D01*
X159752D01*
X161868Y176463D02*
Y174130D01*
Y175796D02*
X162368Y176296D01*
X162701Y176463D01*
X163201D01*
X163535Y176296D01*
X163701Y175796D01*
Y174130D01*
Y175796D02*
X164201Y176296D01*
X164534Y176463D01*
X165034D01*
X165367Y176296D01*
X165534Y175796D01*
Y174130D01*
X166634Y176463D02*
X168467Y174130D01*
Y176463D02*
X166634Y174130D01*
X170200Y177629D02*
X169700Y177462D01*
X169367Y176963D01*
X169200Y176129D01*
Y175629D01*
X169367Y174796D01*
X169700Y174296D01*
X170200Y174130D01*
X170533D01*
X171033Y174296D01*
X171366Y174796D01*
X171533Y175629D01*
Y176129D01*
X171366Y176963D01*
X171033Y177462D01*
X170533Y177629D01*
X170200D01*
X138107Y169546D02*
X137773Y169212D01*
X137440Y168712D01*
X137107Y168046D01*
X136940Y167213D01*
Y166546D01*
X137107Y165713D01*
X137440Y165047D01*
X137773Y164547D01*
X138107Y164213D01*
X137773Y169212D02*
X137440Y168546D01*
X137274Y168046D01*
X137107Y167213D01*
Y166546D01*
X137274Y165713D01*
X137440Y165213D01*
X137773Y164547D01*
X138773Y168879D02*
Y165380D01*
Y168879D02*
X140106Y165380D01*
X141439Y168879D02*
X140106Y165380D01*
X141439Y168879D02*
Y165380D01*
X142772Y168879D02*
X142939Y168712D01*
X143106Y168879D01*
X142939Y169046D01*
X142772Y168879D01*
X142939Y167713D02*
Y165380D01*
X143722Y167713D02*
X145555Y165380D01*
Y167713D02*
X143722Y165380D01*
X146288Y166713D02*
X148288D01*
Y167046D01*
X148121Y167379D01*
X147955Y167546D01*
X147621Y167713D01*
X147121D01*
X146788Y167546D01*
X146455Y167213D01*
X146288Y166713D01*
Y166380D01*
X146455Y165880D01*
X146788Y165547D01*
X147121Y165380D01*
X147621D01*
X147955Y165547D01*
X148288Y165880D01*
X151037Y168879D02*
Y165380D01*
Y167213D02*
X150704Y167546D01*
X150371Y167713D01*
X149871D01*
X149538Y167546D01*
X149204Y167213D01*
X149038Y166713D01*
Y166380D01*
X149204Y165880D01*
X149538Y165547D01*
X149871Y165380D01*
X150371D01*
X150704Y165547D01*
X151037Y165880D01*
X151970Y169546D02*
X152304Y169212D01*
X152637Y168712D01*
X152970Y168046D01*
X153137Y167213D01*
Y166546D01*
X152970Y165713D01*
X152637Y165047D01*
X152304Y164547D01*
X151970Y164213D01*
X152304Y169212D02*
X152637Y168546D01*
X152804Y168046D01*
X152970Y167213D01*
Y166546D01*
X152804Y165713D01*
X152637Y165213D01*
X152304Y164547D01*
X136940Y158963D02*
Y156630D01*
Y157963D02*
X137107Y158463D01*
X137440Y158796D01*
X137773Y158963D01*
X138273D01*
X138590Y159463D02*
X138923Y159629D01*
X139423Y160129D01*
Y156630D01*
X142156Y160129D02*
X141656Y159962D01*
X141323Y159463D01*
X141156Y158629D01*
Y158130D01*
X141323Y157296D01*
X141656Y156797D01*
X142156Y156630D01*
X142489D01*
X142989Y156797D01*
X143322Y157296D01*
X143489Y158130D01*
Y158629D01*
X143322Y159463D01*
X142989Y159962D01*
X142489Y160129D01*
X142156D01*
X145272D02*
X144772Y159962D01*
X144439Y159463D01*
X144272Y158629D01*
Y158130D01*
X144439Y157296D01*
X144772Y156797D01*
X145272Y156630D01*
X145605D01*
X146105Y156797D01*
X146438Y157296D01*
X146605Y158130D01*
Y158629D01*
X146438Y159463D01*
X146105Y159962D01*
X145605Y160129D01*
X145272D01*
X147388Y155463D02*
X150054D01*
X150504Y159463D02*
X150837Y159629D01*
X151337Y160129D01*
Y156630D01*
X153903Y160129D02*
X153403Y159962D01*
X153237Y159629D01*
Y159296D01*
X153403Y158963D01*
X153737Y158796D01*
X154403Y158629D01*
X154903Y158463D01*
X155236Y158130D01*
X155403Y157796D01*
Y157296D01*
X155236Y156963D01*
X155070Y156797D01*
X154570Y156630D01*
X153903D01*
X153403Y156797D01*
X153237Y156963D01*
X153070Y157296D01*
Y157796D01*
X153237Y158130D01*
X153570Y158463D01*
X154070Y158629D01*
X154736Y158796D01*
X155070Y158963D01*
X155236Y159296D01*
Y159629D01*
X155070Y159962D01*
X154570Y160129D01*
X153903D01*
X157186D02*
X156686Y159962D01*
X156353Y159463D01*
X156186Y158629D01*
Y158130D01*
X156353Y157296D01*
X156686Y156797D01*
X157186Y156630D01*
X157519D01*
X158019Y156797D01*
X158352Y157296D01*
X158519Y158130D01*
Y158629D01*
X158352Y159463D01*
X158019Y159962D01*
X157519Y160129D01*
X157186D01*
X159302D02*
Y156630D01*
Y158296D02*
X159802Y158796D01*
X160135Y158963D01*
X160635D01*
X160968Y158796D01*
X161135Y158296D01*
Y156630D01*
X164051Y159629D02*
X163884Y159962D01*
X163385Y160129D01*
X163051D01*
X162551Y159962D01*
X162218Y159463D01*
X162052Y158629D01*
Y157796D01*
X162218Y157130D01*
X162551Y156797D01*
X163051Y156630D01*
X163218D01*
X163718Y156797D01*
X164051Y157130D01*
X164218Y157630D01*
Y157796D01*
X164051Y158296D01*
X163718Y158629D01*
X163218Y158796D01*
X163051D01*
X162551Y158629D01*
X162218Y158296D01*
X162052Y157796D01*
X165984Y160129D02*
X165484Y159962D01*
X165151Y159463D01*
X164984Y158629D01*
Y158130D01*
X165151Y157296D01*
X165484Y156797D01*
X165984Y156630D01*
X166317D01*
X166817Y156797D01*
X167150Y157296D01*
X167317Y158130D01*
Y158629D01*
X167150Y159463D01*
X166817Y159962D01*
X166317Y160129D01*
X165984D01*
X168100Y155463D02*
X170766D01*
X171216Y159463D02*
X171549Y159629D01*
X172049Y160129D01*
Y156630D01*
X175449Y160129D02*
X173782Y157796D01*
X176282D01*
X175449Y160129D02*
Y156630D01*
X177898Y160129D02*
X177398Y159962D01*
X177065Y159463D01*
X176898Y158629D01*
Y158130D01*
X177065Y157296D01*
X177398Y156797D01*
X177898Y156630D01*
X178231D01*
X178731Y156797D01*
X179065Y157296D01*
X179231Y158130D01*
Y158629D01*
X179065Y159463D01*
X178731Y159962D01*
X178231Y160129D01*
X177898D01*
X180014Y158963D02*
Y156630D01*
Y157963D02*
X180181Y158463D01*
X180514Y158796D01*
X180848Y158963D01*
X181347D01*
X181664Y159463D02*
X181997Y159629D01*
X182497Y160129D01*
Y156630D01*
X185230Y160129D02*
X184730Y159962D01*
X184397Y159463D01*
X184230Y158629D01*
Y158130D01*
X184397Y157296D01*
X184730Y156797D01*
X185230Y156630D01*
X185563D01*
X186063Y156797D01*
X186396Y157296D01*
X186563Y158130D01*
Y158629D01*
X186396Y159463D01*
X186063Y159962D01*
X185563Y160129D01*
X185230D01*
X188346D02*
X187846Y159962D01*
X187513Y159463D01*
X187346Y158629D01*
Y158130D01*
X187513Y157296D01*
X187846Y156797D01*
X188346Y156630D01*
X188679D01*
X189179Y156797D01*
X189512Y157296D01*
X189679Y158130D01*
Y158629D01*
X189512Y159463D01*
X189179Y159962D01*
X188679Y160129D01*
X188346D01*
X136940Y150213D02*
Y147880D01*
Y149213D02*
X137107Y149713D01*
X137440Y150046D01*
X137773Y150213D01*
X138273D01*
X138590Y150713D02*
X138923Y150879D01*
X139423Y151379D01*
Y147880D01*
X142156Y151379D02*
X141656Y151213D01*
X141323Y150713D01*
X141156Y149879D01*
Y149380D01*
X141323Y148546D01*
X141656Y148047D01*
X142156Y147880D01*
X142489D01*
X142989Y148047D01*
X143322Y148546D01*
X143489Y149380D01*
Y149879D01*
X143322Y150713D01*
X142989Y151213D01*
X142489Y151379D01*
X142156D01*
X145272D02*
X144772Y151213D01*
X144439Y150713D01*
X144272Y149879D01*
Y149380D01*
X144439Y148546D01*
X144772Y148047D01*
X145272Y147880D01*
X145605D01*
X146105Y148047D01*
X146438Y148546D01*
X146605Y149380D01*
Y149879D01*
X146438Y150713D01*
X146105Y151213D01*
X145605Y151379D01*
X145272D01*
X147388Y146713D02*
X150054D01*
X150671Y150546D02*
Y150713D01*
X150837Y151046D01*
X151004Y151213D01*
X151337Y151379D01*
X152004D01*
X152337Y151213D01*
X152504Y151046D01*
X152670Y150713D01*
Y150379D01*
X152504Y150046D01*
X152170Y149546D01*
X150504Y147880D01*
X152837D01*
X153620Y150713D02*
X153953Y150879D01*
X154453Y151379D01*
Y147880D01*
X157186Y151379D02*
X156686Y151213D01*
X156353Y150713D01*
X156186Y149879D01*
Y149380D01*
X156353Y148546D01*
X156686Y148047D01*
X157186Y147880D01*
X157519D01*
X158019Y148047D01*
X158352Y148546D01*
X158519Y149380D01*
Y149879D01*
X158352Y150713D01*
X158019Y151213D01*
X157519Y151379D01*
X157186D01*
X159302D02*
Y147880D01*
Y149546D02*
X159802Y150046D01*
X160135Y150213D01*
X160635D01*
X160968Y150046D01*
X161135Y149546D01*
Y147880D01*
X164051Y150879D02*
X163884Y151213D01*
X163385Y151379D01*
X163051D01*
X162551Y151213D01*
X162218Y150713D01*
X162052Y149879D01*
Y149046D01*
X162218Y148380D01*
X162551Y148047D01*
X163051Y147880D01*
X163218D01*
X163718Y148047D01*
X164051Y148380D01*
X164218Y148880D01*
Y149046D01*
X164051Y149546D01*
X163718Y149879D01*
X163218Y150046D01*
X163051D01*
X162551Y149879D01*
X162218Y149546D01*
X162052Y149046D01*
X165984Y151379D02*
X165484Y151213D01*
X165151Y150713D01*
X164984Y149879D01*
Y149380D01*
X165151Y148546D01*
X165484Y148047D01*
X165984Y147880D01*
X166317D01*
X166817Y148047D01*
X167150Y148546D01*
X167317Y149380D01*
Y149879D01*
X167150Y150713D01*
X166817Y151213D01*
X166317Y151379D01*
X165984D01*
X168100Y146713D02*
X170766D01*
X171216Y150713D02*
X171549Y150879D01*
X172049Y151379D01*
Y147880D01*
X176115Y151379D02*
X174449Y147880D01*
X173782Y151379D02*
X176115D01*
X177898D02*
X177398Y151213D01*
X177065Y150713D01*
X176898Y149879D01*
Y149380D01*
X177065Y148546D01*
X177398Y148047D01*
X177898Y147880D01*
X178231D01*
X178731Y148047D01*
X179065Y148546D01*
X179231Y149380D01*
Y149879D01*
X179065Y150713D01*
X178731Y151213D01*
X178231Y151379D01*
X177898D01*
X180014Y150213D02*
Y147880D01*
Y149213D02*
X180181Y149713D01*
X180514Y150046D01*
X180848Y150213D01*
X181347D01*
X181664Y150713D02*
X181997Y150879D01*
X182497Y151379D01*
Y147880D01*
X185230Y151379D02*
X184730Y151213D01*
X184397Y150713D01*
X184230Y149879D01*
Y149380D01*
X184397Y148546D01*
X184730Y148047D01*
X185230Y147880D01*
X185563D01*
X186063Y148047D01*
X186396Y148546D01*
X186563Y149380D01*
Y149879D01*
X186396Y150713D01*
X186063Y151213D01*
X185563Y151379D01*
X185230D01*
X188346D02*
X187846Y151213D01*
X187513Y150713D01*
X187346Y149879D01*
Y149380D01*
X187513Y148546D01*
X187846Y148047D01*
X188346Y147880D01*
X188679D01*
X189179Y148047D01*
X189512Y148546D01*
X189679Y149380D01*
Y149879D01*
X189512Y150713D01*
X189179Y151213D01*
X188679Y151379D01*
X188346D01*
X138940Y140963D02*
X138607Y141296D01*
X138273Y141463D01*
X137773D01*
X137440Y141296D01*
X137107Y140963D01*
X136940Y140463D01*
Y140130D01*
X137107Y139630D01*
X137440Y139296D01*
X137773Y139130D01*
X138273D01*
X138607Y139296D01*
X138940Y139630D01*
X141689Y142129D02*
X141523Y142463D01*
X141023Y142629D01*
X140690D01*
X140190Y142463D01*
X139856Y141963D01*
X139690Y141129D01*
Y140296D01*
X139856Y139630D01*
X140190Y139296D01*
X140690Y139130D01*
X140856D01*
X141356Y139296D01*
X141689Y139630D01*
X141856Y140130D01*
Y140296D01*
X141689Y140796D01*
X141356Y141129D01*
X140856Y141296D01*
X140690D01*
X140190Y141129D01*
X139856Y140796D01*
X139690Y140296D01*
X144622Y142629D02*
X142956D01*
X142789Y141129D01*
X142956Y141296D01*
X143456Y141463D01*
X143955D01*
X144455Y141296D01*
X144789Y140963D01*
X144955Y140463D01*
Y140130D01*
X144789Y139630D01*
X144455Y139296D01*
X143955Y139130D01*
X143456D01*
X142956Y139296D01*
X142789Y139463D01*
X142622Y139796D01*
X145738Y142629D02*
Y139130D01*
Y140796D02*
X146238Y141296D01*
X146572Y141463D01*
X147071D01*
X147405Y141296D01*
X147571Y140796D01*
Y139130D01*
X148488Y141463D02*
Y139130D01*
Y140796D02*
X148988Y141296D01*
X149321Y141463D01*
X149821D01*
X150154Y141296D01*
X150321Y140796D01*
Y139130D01*
X153237Y142129D02*
X153070Y142463D01*
X152570Y142629D01*
X152237D01*
X151737Y142463D01*
X151404Y141963D01*
X151237Y141129D01*
Y140296D01*
X151404Y139630D01*
X151737Y139296D01*
X152237Y139130D01*
X152404D01*
X152903Y139296D01*
X153237Y139630D01*
X153403Y140130D01*
Y140296D01*
X153237Y140796D01*
X152903Y141129D01*
X152404Y141296D01*
X152237D01*
X151737Y141129D01*
X151404Y140796D01*
X151237Y140296D01*
X156169Y142629D02*
X154503D01*
X154337Y141129D01*
X154503Y141296D01*
X155003Y141463D01*
X155503D01*
X156003Y141296D01*
X156336Y140963D01*
X156503Y140463D01*
Y140130D01*
X156336Y139630D01*
X156003Y139296D01*
X155503Y139130D01*
X155003D01*
X154503Y139296D01*
X154337Y139463D01*
X154170Y139796D01*
X138107Y134546D02*
X137773Y134212D01*
X137440Y133712D01*
X137107Y133046D01*
X136940Y132213D01*
Y131546D01*
X137107Y130713D01*
X137440Y130047D01*
X137773Y129547D01*
X138107Y129213D01*
X137773Y134212D02*
X137440Y133546D01*
X137274Y133046D01*
X137107Y132213D01*
Y131546D01*
X137274Y130713D01*
X137440Y130213D01*
X137773Y129547D01*
X138773Y133879D02*
Y130380D01*
Y133879D02*
X140106Y130380D01*
X141439Y133879D02*
X140106Y130380D01*
X141439Y133879D02*
Y130380D01*
X142772Y133879D02*
X142939Y133712D01*
X143106Y133879D01*
X142939Y134046D01*
X142772Y133879D01*
X142939Y132713D02*
Y130380D01*
X143722Y132713D02*
X145555Y130380D01*
Y132713D02*
X143722Y130380D01*
X146288Y131713D02*
X148288D01*
Y132046D01*
X148121Y132379D01*
X147955Y132546D01*
X147621Y132713D01*
X147121D01*
X146788Y132546D01*
X146455Y132213D01*
X146288Y131713D01*
Y131380D01*
X146455Y130880D01*
X146788Y130546D01*
X147121Y130380D01*
X147621D01*
X147955Y130546D01*
X148288Y130880D01*
X151037Y133879D02*
Y130380D01*
Y132213D02*
X150704Y132546D01*
X150371Y132713D01*
X149871D01*
X149538Y132546D01*
X149204Y132213D01*
X149038Y131713D01*
Y131380D01*
X149204Y130880D01*
X149538Y130546D01*
X149871Y130380D01*
X150371D01*
X150704Y130546D01*
X151037Y130880D01*
X151970Y134546D02*
X152304Y134212D01*
X152637Y133712D01*
X152970Y133046D01*
X153137Y132213D01*
Y131546D01*
X152970Y130713D01*
X152637Y130047D01*
X152304Y129547D01*
X151970Y129213D01*
X152304Y134212D02*
X152637Y133546D01*
X152804Y133046D01*
X152970Y132213D01*
Y131546D01*
X152804Y130713D01*
X152637Y130213D01*
X152304Y129547D01*
X99757Y177629D02*
Y174130D01*
Y177629D02*
X101256D01*
X101756Y177462D01*
X101923Y177296D01*
X102090Y176963D01*
Y176629D01*
X101923Y176296D01*
X101756Y176129D01*
X101256Y175963D01*
X99757D01*
X100923D02*
X102090Y174130D01*
X103706Y176463D02*
X103373Y176296D01*
X103039Y175963D01*
X102873Y175463D01*
Y175130D01*
X103039Y174630D01*
X103373Y174296D01*
X103706Y174130D01*
X104206D01*
X104539Y174296D01*
X104872Y174630D01*
X105039Y175130D01*
Y175463D01*
X104872Y175963D01*
X104539Y176296D01*
X104206Y176463D01*
X103706D01*
X105805D02*
Y174796D01*
X105972Y174296D01*
X106305Y174130D01*
X106805D01*
X107139Y174296D01*
X107638Y174796D01*
Y176463D02*
Y174130D01*
X108555Y176463D02*
Y174130D01*
Y175796D02*
X109055Y176296D01*
X109388Y176463D01*
X109888D01*
X110221Y176296D01*
X110388Y175796D01*
Y174130D01*
X113304Y177629D02*
Y174130D01*
Y175963D02*
X112971Y176296D01*
X112637Y176463D01*
X112137D01*
X111804Y176296D01*
X111471Y175963D01*
X111304Y175463D01*
Y175130D01*
X111471Y174630D01*
X111804Y174296D01*
X112137Y174130D01*
X112637D01*
X112971Y174296D01*
X113304Y174630D01*
X114237Y175463D02*
X116236D01*
Y175796D01*
X116070Y176129D01*
X115903Y176296D01*
X115570Y176463D01*
X115070D01*
X114737Y176296D01*
X114404Y175963D01*
X114237Y175463D01*
Y175130D01*
X114404Y174630D01*
X114737Y174296D01*
X115070Y174130D01*
X115570D01*
X115903Y174296D01*
X116236Y174630D01*
X118986Y177629D02*
Y174130D01*
Y175963D02*
X118653Y176296D01*
X118319Y176463D01*
X117819D01*
X117486Y176296D01*
X117153Y175963D01*
X116986Y175463D01*
Y175130D01*
X117153Y174630D01*
X117486Y174296D01*
X117819Y174130D01*
X118319D01*
X118653Y174296D01*
X118986Y174630D01*
X99757Y168879D02*
Y165380D01*
Y168879D02*
X101256D01*
X101756Y168712D01*
X101923Y168546D01*
X102090Y168213D01*
Y167879D01*
X101923Y167546D01*
X101756Y167379D01*
X101256Y167213D01*
X99757D01*
X100923D02*
X102090Y165380D01*
X103706Y167713D02*
X103373Y167546D01*
X103039Y167213D01*
X102873Y166713D01*
Y166380D01*
X103039Y165880D01*
X103373Y165547D01*
X103706Y165380D01*
X104206D01*
X104539Y165547D01*
X104872Y165880D01*
X105039Y166380D01*
Y166713D01*
X104872Y167213D01*
X104539Y167546D01*
X104206Y167713D01*
X103706D01*
X105805D02*
Y166046D01*
X105972Y165547D01*
X106305Y165380D01*
X106805D01*
X107139Y165547D01*
X107638Y166046D01*
Y167713D02*
Y165380D01*
X108555Y167713D02*
Y165380D01*
Y167046D02*
X109055Y167546D01*
X109388Y167713D01*
X109888D01*
X110221Y167546D01*
X110388Y167046D01*
Y165380D01*
X113304Y168879D02*
Y165380D01*
Y167213D02*
X112971Y167546D01*
X112637Y167713D01*
X112137D01*
X111804Y167546D01*
X111471Y167213D01*
X111304Y166713D01*
Y166380D01*
X111471Y165880D01*
X111804Y165547D01*
X112137Y165380D01*
X112637D01*
X112971Y165547D01*
X113304Y165880D01*
X114237Y166713D02*
X116236D01*
Y167046D01*
X116070Y167379D01*
X115903Y167546D01*
X115570Y167713D01*
X115070D01*
X114737Y167546D01*
X114404Y167213D01*
X114237Y166713D01*
Y166380D01*
X114404Y165880D01*
X114737Y165547D01*
X115070Y165380D01*
X115570D01*
X115903Y165547D01*
X116236Y165880D01*
X118986Y168879D02*
Y165380D01*
Y167213D02*
X118653Y167546D01*
X118319Y167713D01*
X117819D01*
X117486Y167546D01*
X117153Y167213D01*
X116986Y166713D01*
Y166380D01*
X117153Y165880D01*
X117486Y165547D01*
X117819Y165380D01*
X118319D01*
X118653Y165547D01*
X118986Y165880D01*
X99757Y160129D02*
Y156630D01*
Y160129D02*
X101256D01*
X101756Y159962D01*
X101923Y159796D01*
X102090Y159463D01*
Y159129D01*
X101923Y158796D01*
X101756Y158629D01*
X101256Y158463D01*
X99757D01*
X100923D02*
X102090Y156630D01*
X103706Y158963D02*
X103373Y158796D01*
X103039Y158463D01*
X102873Y157963D01*
Y157630D01*
X103039Y157130D01*
X103373Y156797D01*
X103706Y156630D01*
X104206D01*
X104539Y156797D01*
X104872Y157130D01*
X105039Y157630D01*
Y157963D01*
X104872Y158463D01*
X104539Y158796D01*
X104206Y158963D01*
X103706D01*
X105805D02*
Y157296D01*
X105972Y156797D01*
X106305Y156630D01*
X106805D01*
X107139Y156797D01*
X107638Y157296D01*
Y158963D02*
Y156630D01*
X108555Y158963D02*
Y156630D01*
Y158296D02*
X109055Y158796D01*
X109388Y158963D01*
X109888D01*
X110221Y158796D01*
X110388Y158296D01*
Y156630D01*
X113304Y160129D02*
Y156630D01*
Y158463D02*
X112971Y158796D01*
X112637Y158963D01*
X112137D01*
X111804Y158796D01*
X111471Y158463D01*
X111304Y157963D01*
Y157630D01*
X111471Y157130D01*
X111804Y156797D01*
X112137Y156630D01*
X112637D01*
X112971Y156797D01*
X113304Y157130D01*
X114237Y157963D02*
X116236D01*
Y158296D01*
X116070Y158629D01*
X115903Y158796D01*
X115570Y158963D01*
X115070D01*
X114737Y158796D01*
X114404Y158463D01*
X114237Y157963D01*
Y157630D01*
X114404Y157130D01*
X114737Y156797D01*
X115070Y156630D01*
X115570D01*
X115903Y156797D01*
X116236Y157130D01*
X118986Y160129D02*
Y156630D01*
Y158463D02*
X118653Y158796D01*
X118319Y158963D01*
X117819D01*
X117486Y158796D01*
X117153Y158463D01*
X116986Y157963D01*
Y157630D01*
X117153Y157130D01*
X117486Y156797D01*
X117819Y156630D01*
X118319D01*
X118653Y156797D01*
X118986Y157130D01*
X99757Y151379D02*
Y147880D01*
Y151379D02*
X101256D01*
X101756Y151213D01*
X101923Y151046D01*
X102090Y150713D01*
Y150379D01*
X101923Y150046D01*
X101756Y149879D01*
X101256Y149713D01*
X99757D01*
X100923D02*
X102090Y147880D01*
X103706Y150213D02*
X103373Y150046D01*
X103039Y149713D01*
X102873Y149213D01*
Y148880D01*
X103039Y148380D01*
X103373Y148047D01*
X103706Y147880D01*
X104206D01*
X104539Y148047D01*
X104872Y148380D01*
X105039Y148880D01*
Y149213D01*
X104872Y149713D01*
X104539Y150046D01*
X104206Y150213D01*
X103706D01*
X105805D02*
Y148546D01*
X105972Y148047D01*
X106305Y147880D01*
X106805D01*
X107139Y148047D01*
X107638Y148546D01*
Y150213D02*
Y147880D01*
X108555Y150213D02*
Y147880D01*
Y149546D02*
X109055Y150046D01*
X109388Y150213D01*
X109888D01*
X110221Y150046D01*
X110388Y149546D01*
Y147880D01*
X113304Y151379D02*
Y147880D01*
Y149713D02*
X112971Y150046D01*
X112637Y150213D01*
X112137D01*
X111804Y150046D01*
X111471Y149713D01*
X111304Y149213D01*
Y148880D01*
X111471Y148380D01*
X111804Y148047D01*
X112137Y147880D01*
X112637D01*
X112971Y148047D01*
X113304Y148380D01*
X114237Y149213D02*
X116236D01*
Y149546D01*
X116070Y149879D01*
X115903Y150046D01*
X115570Y150213D01*
X115070D01*
X114737Y150046D01*
X114404Y149713D01*
X114237Y149213D01*
Y148880D01*
X114404Y148380D01*
X114737Y148047D01*
X115070Y147880D01*
X115570D01*
X115903Y148047D01*
X116236Y148380D01*
X118986Y151379D02*
Y147880D01*
Y149713D02*
X118653Y150046D01*
X118319Y150213D01*
X117819D01*
X117486Y150046D01*
X117153Y149713D01*
X116986Y149213D01*
Y148880D01*
X117153Y148380D01*
X117486Y148047D01*
X117819Y147880D01*
X118319D01*
X118653Y148047D01*
X118986Y148380D01*
X99757Y142629D02*
Y139130D01*
Y142629D02*
X101256D01*
X101756Y142463D01*
X101923Y142296D01*
X102090Y141963D01*
Y141629D01*
X101923Y141296D01*
X101756Y141129D01*
X101256Y140963D01*
X99757D01*
X100923D02*
X102090Y139130D01*
X103706Y141463D02*
X103373Y141296D01*
X103039Y140963D01*
X102873Y140463D01*
Y140130D01*
X103039Y139630D01*
X103373Y139296D01*
X103706Y139130D01*
X104206D01*
X104539Y139296D01*
X104872Y139630D01*
X105039Y140130D01*
Y140463D01*
X104872Y140963D01*
X104539Y141296D01*
X104206Y141463D01*
X103706D01*
X105805D02*
Y139796D01*
X105972Y139296D01*
X106305Y139130D01*
X106805D01*
X107139Y139296D01*
X107638Y139796D01*
Y141463D02*
Y139130D01*
X108555Y141463D02*
Y139130D01*
Y140796D02*
X109055Y141296D01*
X109388Y141463D01*
X109888D01*
X110221Y141296D01*
X110388Y140796D01*
Y139130D01*
X113304Y142629D02*
Y139130D01*
Y140963D02*
X112971Y141296D01*
X112637Y141463D01*
X112137D01*
X111804Y141296D01*
X111471Y140963D01*
X111304Y140463D01*
Y140130D01*
X111471Y139630D01*
X111804Y139296D01*
X112137Y139130D01*
X112637D01*
X112971Y139296D01*
X113304Y139630D01*
X114237Y140463D02*
X116236D01*
Y140796D01*
X116070Y141129D01*
X115903Y141296D01*
X115570Y141463D01*
X115070D01*
X114737Y141296D01*
X114404Y140963D01*
X114237Y140463D01*
Y140130D01*
X114404Y139630D01*
X114737Y139296D01*
X115070Y139130D01*
X115570D01*
X115903Y139296D01*
X116236Y139630D01*
X118986Y142629D02*
Y139130D01*
Y140963D02*
X118653Y141296D01*
X118319Y141463D01*
X117819D01*
X117486Y141296D01*
X117153Y140963D01*
X116986Y140463D01*
Y140130D01*
X117153Y139630D01*
X117486Y139296D01*
X117819Y139130D01*
X118319D01*
X118653Y139296D01*
X118986Y139630D01*
X100923Y134546D02*
X100590Y134212D01*
X100257Y133712D01*
X99923Y133046D01*
X99757Y132213D01*
Y131546D01*
X99923Y130713D01*
X100257Y130047D01*
X100590Y129547D01*
X100923Y129213D01*
X100590Y134212D02*
X100257Y133546D01*
X100090Y133046D01*
X99923Y132213D01*
Y131546D01*
X100090Y130713D01*
X100257Y130213D01*
X100590Y129547D01*
X101590Y133879D02*
Y130380D01*
Y133879D02*
X102923Y130380D01*
X104256Y133879D02*
X102923Y130380D01*
X104256Y133879D02*
Y130380D01*
X105589Y133879D02*
X105755Y133712D01*
X105922Y133879D01*
X105755Y134046D01*
X105589Y133879D01*
X105755Y132713D02*
Y130380D01*
X106539Y132713D02*
X108372Y130380D01*
Y132713D02*
X106539Y130380D01*
X109105Y131713D02*
X111104D01*
Y132046D01*
X110938Y132379D01*
X110771Y132546D01*
X110438Y132713D01*
X109938D01*
X109605Y132546D01*
X109271Y132213D01*
X109105Y131713D01*
Y131380D01*
X109271Y130880D01*
X109605Y130546D01*
X109938Y130380D01*
X110438D01*
X110771Y130546D01*
X111104Y130880D01*
X113854Y133879D02*
Y130380D01*
Y132213D02*
X113521Y132546D01*
X113187Y132713D01*
X112687D01*
X112354Y132546D01*
X112021Y132213D01*
X111854Y131713D01*
Y131380D01*
X112021Y130880D01*
X112354Y130546D01*
X112687Y130380D01*
X113187D01*
X113521Y130546D01*
X113854Y130880D01*
X114787Y134546D02*
X115120Y134212D01*
X115453Y133712D01*
X115787Y133046D01*
X115953Y132213D01*
Y131546D01*
X115787Y130713D01*
X115453Y130047D01*
X115120Y129547D01*
X114787Y129213D01*
X115120Y134212D02*
X115453Y133546D01*
X115620Y133046D01*
X115787Y132213D01*
Y131546D01*
X115620Y130713D01*
X115453Y130213D01*
X115120Y129547D01*
X71371Y177629D02*
X72704Y174130D01*
X74037Y177629D02*
X72704Y174130D01*
X74821Y177629D02*
X74987Y177462D01*
X75154Y177629D01*
X74987Y177796D01*
X74821Y177629D01*
X74987Y176463D02*
Y174130D01*
X77770Y176463D02*
Y174130D01*
Y175963D02*
X77437Y176296D01*
X77104Y176463D01*
X76604D01*
X76270Y176296D01*
X75937Y175963D01*
X75770Y175463D01*
Y175130D01*
X75937Y174630D01*
X76270Y174296D01*
X76604Y174130D01*
X77104D01*
X77437Y174296D01*
X77770Y174630D01*
X71371Y168879D02*
X72704Y165380D01*
X74037Y168879D02*
X72704Y165380D01*
X74821Y168879D02*
X74987Y168712D01*
X75154Y168879D01*
X74987Y169046D01*
X74821Y168879D01*
X74987Y167713D02*
Y165380D01*
X77770Y167713D02*
Y165380D01*
Y167213D02*
X77437Y167546D01*
X77104Y167713D01*
X76604D01*
X76270Y167546D01*
X75937Y167213D01*
X75770Y166713D01*
Y166380D01*
X75937Y165880D01*
X76270Y165547D01*
X76604Y165380D01*
X77104D01*
X77437Y165547D01*
X77770Y165880D01*
X71371Y158296D02*
X72871D01*
X73371Y158463D01*
X73537Y158629D01*
X73704Y158963D01*
Y159463D01*
X73537Y159796D01*
X73371Y159962D01*
X72871Y160129D01*
X71371D01*
Y156630D01*
X76487Y158963D02*
Y156630D01*
Y158463D02*
X76154Y158796D01*
X75820Y158963D01*
X75321D01*
X74987Y158796D01*
X74654Y158463D01*
X74487Y157963D01*
Y157630D01*
X74654Y157130D01*
X74987Y156797D01*
X75321Y156630D01*
X75820D01*
X76154Y156797D01*
X76487Y157130D01*
X79420Y160129D02*
Y156630D01*
Y158463D02*
X79086Y158796D01*
X78753Y158963D01*
X78253D01*
X77920Y158796D01*
X77587Y158463D01*
X77420Y157963D01*
Y157630D01*
X77587Y157130D01*
X77920Y156797D01*
X78253Y156630D01*
X78753D01*
X79086Y156797D01*
X79420Y157130D01*
X71371Y149546D02*
X72871D01*
X73371Y149713D01*
X73537Y149879D01*
X73704Y150213D01*
Y150713D01*
X73537Y151046D01*
X73371Y151213D01*
X72871Y151379D01*
X71371D01*
Y147880D01*
X76487Y150213D02*
Y147880D01*
Y149713D02*
X76154Y150046D01*
X75820Y150213D01*
X75321D01*
X74987Y150046D01*
X74654Y149713D01*
X74487Y149213D01*
Y148880D01*
X74654Y148380D01*
X74987Y148047D01*
X75321Y147880D01*
X75820D01*
X76154Y148047D01*
X76487Y148380D01*
X79420Y151379D02*
Y147880D01*
Y149713D02*
X79086Y150046D01*
X78753Y150213D01*
X78253D01*
X77920Y150046D01*
X77587Y149713D01*
X77420Y149213D01*
Y148880D01*
X77587Y148380D01*
X77920Y148047D01*
X78253Y147880D01*
X78753D01*
X79086Y148047D01*
X79420Y148380D01*
X71371Y140796D02*
X72871D01*
X73371Y140963D01*
X73537Y141129D01*
X73704Y141463D01*
Y141963D01*
X73537Y142296D01*
X73371Y142463D01*
X72871Y142629D01*
X71371D01*
Y139130D01*
X76487Y141463D02*
Y139130D01*
Y140963D02*
X76154Y141296D01*
X75820Y141463D01*
X75321D01*
X74987Y141296D01*
X74654Y140963D01*
X74487Y140463D01*
Y140130D01*
X74654Y139630D01*
X74987Y139296D01*
X75321Y139130D01*
X75820D01*
X76154Y139296D01*
X76487Y139630D01*
X79420Y142629D02*
Y139130D01*
Y140963D02*
X79086Y141296D01*
X78753Y141463D01*
X78253D01*
X77920Y141296D01*
X77587Y140963D01*
X77420Y140463D01*
Y140130D01*
X77587Y139630D01*
X77920Y139296D01*
X78253Y139130D01*
X78753D01*
X79086Y139296D01*
X79420Y139630D01*
X71371Y132046D02*
X72871D01*
X73371Y132213D01*
X73537Y132379D01*
X73704Y132713D01*
Y133213D01*
X73537Y133546D01*
X73371Y133712D01*
X72871Y133879D01*
X71371D01*
Y130380D01*
X76487Y132713D02*
Y130380D01*
Y132213D02*
X76154Y132546D01*
X75820Y132713D01*
X75321D01*
X74987Y132546D01*
X74654Y132213D01*
X74487Y131713D01*
Y131380D01*
X74654Y130880D01*
X74987Y130546D01*
X75321Y130380D01*
X75820D01*
X76154Y130546D01*
X76487Y130880D01*
X79420Y133879D02*
Y130380D01*
Y132213D02*
X79086Y132546D01*
X78753Y132713D01*
X78253D01*
X77920Y132546D01*
X77587Y132213D01*
X77420Y131713D01*
Y131380D01*
X77587Y130880D01*
X77920Y130546D01*
X78253Y130380D01*
X78753D01*
X79086Y130546D01*
X79420Y130880D01*
X802Y177629D02*
Y174130D01*
X-365Y177629D02*
X1968D01*
X3218Y176463D02*
X2885Y176296D01*
X2551Y175963D01*
X2385Y175463D01*
Y175130D01*
X2551Y174630D01*
X2885Y174296D01*
X3218Y174130D01*
X3718D01*
X4051Y174296D01*
X4384Y174630D01*
X4551Y175130D01*
Y175463D01*
X4384Y175963D01*
X4051Y176296D01*
X3718Y176463D01*
X3218D01*
X5317D02*
Y172963D01*
Y175963D02*
X5651Y176296D01*
X5984Y176463D01*
X6484D01*
X6817Y176296D01*
X7151Y175963D01*
X7317Y175463D01*
Y175130D01*
X7151Y174630D01*
X6817Y174296D01*
X6484Y174130D01*
X5984D01*
X5651Y174296D01*
X5317Y174630D01*
X10816Y177629D02*
Y174130D01*
X12816D01*
X15199Y176463D02*
Y174130D01*
Y175963D02*
X14865Y176296D01*
X14532Y176463D01*
X14032D01*
X13699Y176296D01*
X13366Y175963D01*
X13199Y175463D01*
Y175130D01*
X13366Y174630D01*
X13699Y174296D01*
X14032Y174130D01*
X14532D01*
X14865Y174296D01*
X15199Y174630D01*
X16298Y176463D02*
X17298Y174130D01*
X18298Y176463D02*
X17298Y174130D01*
X16965Y173463D01*
X16632Y173130D01*
X16298Y172963D01*
X16132D01*
X18881Y175463D02*
X20881D01*
Y175796D01*
X20714Y176129D01*
X20548Y176296D01*
X20214Y176463D01*
X19714D01*
X19381Y176296D01*
X19048Y175963D01*
X18881Y175463D01*
Y175130D01*
X19048Y174630D01*
X19381Y174296D01*
X19714Y174130D01*
X20214D01*
X20548Y174296D01*
X20881Y174630D01*
X21631Y176463D02*
Y174130D01*
Y175463D02*
X21797Y175963D01*
X22131Y176296D01*
X22464Y176463D01*
X22964D01*
X26030Y175629D02*
X29029D01*
X32812Y177629D02*
Y174130D01*
Y177629D02*
X34311D01*
X34811Y177462D01*
X34978Y177296D01*
X35144Y176963D01*
Y176629D01*
X34978Y176296D01*
X34811Y176129D01*
X34311Y175963D01*
X32812D02*
X34311D01*
X34811Y175796D01*
X34978Y175629D01*
X35144Y175296D01*
Y174796D01*
X34978Y174463D01*
X34811Y174296D01*
X34311Y174130D01*
X32812D01*
X36761Y176463D02*
X36428Y176296D01*
X36094Y175963D01*
X35928Y175463D01*
Y175130D01*
X36094Y174630D01*
X36428Y174296D01*
X36761Y174130D01*
X37261D01*
X37594Y174296D01*
X37927Y174630D01*
X38094Y175130D01*
Y175463D01*
X37927Y175963D01*
X37594Y176296D01*
X37261Y176463D01*
X36761D01*
X39360Y177629D02*
Y174796D01*
X39527Y174296D01*
X39860Y174130D01*
X40193D01*
X38860Y176463D02*
X40027D01*
X41193Y177629D02*
Y174796D01*
X41360Y174296D01*
X41693Y174130D01*
X42026D01*
X40693Y176463D02*
X41860D01*
X43359D02*
X43026Y176296D01*
X42693Y175963D01*
X42526Y175463D01*
Y175130D01*
X42693Y174630D01*
X43026Y174296D01*
X43359Y174130D01*
X43859D01*
X44192Y174296D01*
X44526Y174630D01*
X44692Y175130D01*
Y175463D01*
X44526Y175963D01*
X44192Y176296D01*
X43859Y176463D01*
X43359D01*
X45459D02*
Y174130D01*
Y175796D02*
X45959Y176296D01*
X46292Y176463D01*
X46792D01*
X47125Y176296D01*
X47292Y175796D01*
Y174130D01*
Y175796D02*
X47792Y176296D01*
X48125Y176463D01*
X48625D01*
X48958Y176296D01*
X49125Y175796D01*
Y174130D01*
X52974Y177629D02*
Y174130D01*
X54974D01*
X57356Y176463D02*
Y174130D01*
Y175963D02*
X57023Y176296D01*
X56690Y176463D01*
X56190D01*
X55857Y176296D01*
X55523Y175963D01*
X55357Y175463D01*
Y175130D01*
X55523Y174630D01*
X55857Y174296D01*
X56190Y174130D01*
X56690D01*
X57023Y174296D01*
X57356Y174630D01*
X58456Y176463D02*
X59456Y174130D01*
X60456Y176463D02*
X59456Y174130D01*
X59123Y173463D01*
X58789Y173130D01*
X58456Y172963D01*
X58289D01*
X61039Y175463D02*
X63038D01*
Y175796D01*
X62872Y176129D01*
X62705Y176296D01*
X62372Y176463D01*
X61872D01*
X61539Y176296D01*
X61206Y175963D01*
X61039Y175463D01*
Y175130D01*
X61206Y174630D01*
X61539Y174296D01*
X61872Y174130D01*
X62372D01*
X62705Y174296D01*
X63038Y174630D01*
X63788Y176463D02*
Y174130D01*
Y175463D02*
X63955Y175963D01*
X64288Y176296D01*
X64622Y176463D01*
X65121D01*
X802Y168879D02*
Y165380D01*
X-365Y168879D02*
X1968D01*
X3218Y167713D02*
X2885Y167546D01*
X2551Y167213D01*
X2385Y166713D01*
Y166380D01*
X2551Y165880D01*
X2885Y165547D01*
X3218Y165380D01*
X3718D01*
X4051Y165547D01*
X4384Y165880D01*
X4551Y166380D01*
Y166713D01*
X4384Y167213D01*
X4051Y167546D01*
X3718Y167713D01*
X3218D01*
X5317D02*
Y164213D01*
Y167213D02*
X5651Y167546D01*
X5984Y167713D01*
X6484D01*
X6817Y167546D01*
X7151Y167213D01*
X7317Y166713D01*
Y166380D01*
X7151Y165880D01*
X6817Y165547D01*
X6484Y165380D01*
X5984D01*
X5651Y165547D01*
X5317Y165880D01*
X10816Y168879D02*
Y165380D01*
X12816D01*
X15199Y167713D02*
Y165380D01*
Y167213D02*
X14865Y167546D01*
X14532Y167713D01*
X14032D01*
X13699Y167546D01*
X13366Y167213D01*
X13199Y166713D01*
Y166380D01*
X13366Y165880D01*
X13699Y165547D01*
X14032Y165380D01*
X14532D01*
X14865Y165547D01*
X15199Y165880D01*
X16298Y167713D02*
X17298Y165380D01*
X18298Y167713D02*
X17298Y165380D01*
X16965Y164713D01*
X16632Y164380D01*
X16298Y164213D01*
X16132D01*
X18881Y166713D02*
X20881D01*
Y167046D01*
X20714Y167379D01*
X20548Y167546D01*
X20214Y167713D01*
X19714D01*
X19381Y167546D01*
X19048Y167213D01*
X18881Y166713D01*
Y166380D01*
X19048Y165880D01*
X19381Y165547D01*
X19714Y165380D01*
X20214D01*
X20548Y165547D01*
X20881Y165880D01*
X21631Y167713D02*
Y165380D01*
Y166713D02*
X21797Y167213D01*
X22131Y167546D01*
X22464Y167713D01*
X22964D01*
X26030Y166879D02*
X29029D01*
X32812Y168879D02*
Y165380D01*
Y168879D02*
X34311D01*
X34811Y168712D01*
X34978Y168546D01*
X35144Y168213D01*
Y167879D01*
X34978Y167546D01*
X34811Y167379D01*
X34311Y167213D01*
X32812D02*
X34311D01*
X34811Y167046D01*
X34978Y166879D01*
X35144Y166546D01*
Y166046D01*
X34978Y165713D01*
X34811Y165547D01*
X34311Y165380D01*
X32812D01*
X36761Y167713D02*
X36428Y167546D01*
X36094Y167213D01*
X35928Y166713D01*
Y166380D01*
X36094Y165880D01*
X36428Y165547D01*
X36761Y165380D01*
X37261D01*
X37594Y165547D01*
X37927Y165880D01*
X38094Y166380D01*
Y166713D01*
X37927Y167213D01*
X37594Y167546D01*
X37261Y167713D01*
X36761D01*
X39360Y168879D02*
Y166046D01*
X39527Y165547D01*
X39860Y165380D01*
X40193D01*
X38860Y167713D02*
X40027D01*
X41193Y168879D02*
Y166046D01*
X41360Y165547D01*
X41693Y165380D01*
X42026D01*
X40693Y167713D02*
X41860D01*
X43359D02*
X43026Y167546D01*
X42693Y167213D01*
X42526Y166713D01*
Y166380D01*
X42693Y165880D01*
X43026Y165547D01*
X43359Y165380D01*
X43859D01*
X44192Y165547D01*
X44526Y165880D01*
X44692Y166380D01*
Y166713D01*
X44526Y167213D01*
X44192Y167546D01*
X43859Y167713D01*
X43359D01*
X45459D02*
Y165380D01*
Y167046D02*
X45959Y167546D01*
X46292Y167713D01*
X46792D01*
X47125Y167546D01*
X47292Y167046D01*
Y165380D01*
Y167046D02*
X47792Y167546D01*
X48125Y167713D01*
X48625D01*
X48958Y167546D01*
X49125Y167046D01*
Y165380D01*
X52974Y168879D02*
Y165380D01*
X54974D01*
X57356Y167713D02*
Y165380D01*
Y167213D02*
X57023Y167546D01*
X56690Y167713D01*
X56190D01*
X55857Y167546D01*
X55523Y167213D01*
X55357Y166713D01*
Y166380D01*
X55523Y165880D01*
X55857Y165547D01*
X56190Y165380D01*
X56690D01*
X57023Y165547D01*
X57356Y165880D01*
X58456Y167713D02*
X59456Y165380D01*
X60456Y167713D02*
X59456Y165380D01*
X59123Y164713D01*
X58789Y164380D01*
X58456Y164213D01*
X58289D01*
X61039Y166713D02*
X63038D01*
Y167046D01*
X62872Y167379D01*
X62705Y167546D01*
X62372Y167713D01*
X61872D01*
X61539Y167546D01*
X61206Y167213D01*
X61039Y166713D01*
Y166380D01*
X61206Y165880D01*
X61539Y165547D01*
X61872Y165380D01*
X62372D01*
X62705Y165547D01*
X63038Y165880D01*
X63788Y167713D02*
Y165380D01*
Y166713D02*
X63955Y167213D01*
X64288Y167546D01*
X64622Y167713D01*
X65121D01*
X802Y160129D02*
Y156630D01*
X-365Y160129D02*
X1968D01*
X3218Y158963D02*
X2885Y158796D01*
X2551Y158463D01*
X2385Y157963D01*
Y157630D01*
X2551Y157130D01*
X2885Y156797D01*
X3218Y156630D01*
X3718D01*
X4051Y156797D01*
X4384Y157130D01*
X4551Y157630D01*
Y157963D01*
X4384Y158463D01*
X4051Y158796D01*
X3718Y158963D01*
X3218D01*
X5317D02*
Y155463D01*
Y158463D02*
X5651Y158796D01*
X5984Y158963D01*
X6484D01*
X6817Y158796D01*
X7151Y158463D01*
X7317Y157963D01*
Y157630D01*
X7151Y157130D01*
X6817Y156797D01*
X6484Y156630D01*
X5984D01*
X5651Y156797D01*
X5317Y157130D01*
X10816Y160129D02*
Y156630D01*
X12816D01*
X15199Y158963D02*
Y156630D01*
Y158463D02*
X14865Y158796D01*
X14532Y158963D01*
X14032D01*
X13699Y158796D01*
X13366Y158463D01*
X13199Y157963D01*
Y157630D01*
X13366Y157130D01*
X13699Y156797D01*
X14032Y156630D01*
X14532D01*
X14865Y156797D01*
X15199Y157130D01*
X16298Y158963D02*
X17298Y156630D01*
X18298Y158963D02*
X17298Y156630D01*
X16965Y155963D01*
X16632Y155630D01*
X16298Y155463D01*
X16132D01*
X18881Y157963D02*
X20881D01*
Y158296D01*
X20714Y158629D01*
X20548Y158796D01*
X20214Y158963D01*
X19714D01*
X19381Y158796D01*
X19048Y158463D01*
X18881Y157963D01*
Y157630D01*
X19048Y157130D01*
X19381Y156797D01*
X19714Y156630D01*
X20214D01*
X20548Y156797D01*
X20881Y157130D01*
X21631Y158963D02*
Y156630D01*
Y157963D02*
X21797Y158463D01*
X22131Y158796D01*
X22464Y158963D01*
X22964D01*
X26030Y158130D02*
X29029D01*
X32812Y160129D02*
Y156630D01*
Y160129D02*
X34311D01*
X34811Y159962D01*
X34978Y159796D01*
X35144Y159463D01*
Y159129D01*
X34978Y158796D01*
X34811Y158629D01*
X34311Y158463D01*
X32812D02*
X34311D01*
X34811Y158296D01*
X34978Y158130D01*
X35144Y157796D01*
Y157296D01*
X34978Y156963D01*
X34811Y156797D01*
X34311Y156630D01*
X32812D01*
X36761Y158963D02*
X36428Y158796D01*
X36094Y158463D01*
X35928Y157963D01*
Y157630D01*
X36094Y157130D01*
X36428Y156797D01*
X36761Y156630D01*
X37261D01*
X37594Y156797D01*
X37927Y157130D01*
X38094Y157630D01*
Y157963D01*
X37927Y158463D01*
X37594Y158796D01*
X37261Y158963D01*
X36761D01*
X39360Y160129D02*
Y157296D01*
X39527Y156797D01*
X39860Y156630D01*
X40193D01*
X38860Y158963D02*
X40027D01*
X41193Y160129D02*
Y157296D01*
X41360Y156797D01*
X41693Y156630D01*
X42026D01*
X40693Y158963D02*
X41860D01*
X43359D02*
X43026Y158796D01*
X42693Y158463D01*
X42526Y157963D01*
Y157630D01*
X42693Y157130D01*
X43026Y156797D01*
X43359Y156630D01*
X43859D01*
X44192Y156797D01*
X44526Y157130D01*
X44692Y157630D01*
Y157963D01*
X44526Y158463D01*
X44192Y158796D01*
X43859Y158963D01*
X43359D01*
X45459D02*
Y156630D01*
Y158296D02*
X45959Y158796D01*
X46292Y158963D01*
X46792D01*
X47125Y158796D01*
X47292Y158296D01*
Y156630D01*
Y158296D02*
X47792Y158796D01*
X48125Y158963D01*
X48625D01*
X48958Y158796D01*
X49125Y158296D01*
Y156630D01*
X52974Y160129D02*
Y156630D01*
X54974D01*
X57356Y158963D02*
Y156630D01*
Y158463D02*
X57023Y158796D01*
X56690Y158963D01*
X56190D01*
X55857Y158796D01*
X55523Y158463D01*
X55357Y157963D01*
Y157630D01*
X55523Y157130D01*
X55857Y156797D01*
X56190Y156630D01*
X56690D01*
X57023Y156797D01*
X57356Y157130D01*
X58456Y158963D02*
X59456Y156630D01*
X60456Y158963D02*
X59456Y156630D01*
X59123Y155963D01*
X58789Y155630D01*
X58456Y155463D01*
X58289D01*
X61039Y157963D02*
X63038D01*
Y158296D01*
X62872Y158629D01*
X62705Y158796D01*
X62372Y158963D01*
X61872D01*
X61539Y158796D01*
X61206Y158463D01*
X61039Y157963D01*
Y157630D01*
X61206Y157130D01*
X61539Y156797D01*
X61872Y156630D01*
X62372D01*
X62705Y156797D01*
X63038Y157130D01*
X63788Y158963D02*
Y156630D01*
Y157963D02*
X63955Y158463D01*
X64288Y158796D01*
X64622Y158963D01*
X65121D01*
X802Y151379D02*
Y147880D01*
X-365Y151379D02*
X1968D01*
X3218Y150213D02*
X2885Y150046D01*
X2551Y149713D01*
X2385Y149213D01*
Y148880D01*
X2551Y148380D01*
X2885Y148047D01*
X3218Y147880D01*
X3718D01*
X4051Y148047D01*
X4384Y148380D01*
X4551Y148880D01*
Y149213D01*
X4384Y149713D01*
X4051Y150046D01*
X3718Y150213D01*
X3218D01*
X5317D02*
Y146713D01*
Y149713D02*
X5651Y150046D01*
X5984Y150213D01*
X6484D01*
X6817Y150046D01*
X7151Y149713D01*
X7317Y149213D01*
Y148880D01*
X7151Y148380D01*
X6817Y148047D01*
X6484Y147880D01*
X5984D01*
X5651Y148047D01*
X5317Y148380D01*
X10816Y151379D02*
Y147880D01*
X12816D01*
X15199Y150213D02*
Y147880D01*
Y149713D02*
X14865Y150046D01*
X14532Y150213D01*
X14032D01*
X13699Y150046D01*
X13366Y149713D01*
X13199Y149213D01*
Y148880D01*
X13366Y148380D01*
X13699Y148047D01*
X14032Y147880D01*
X14532D01*
X14865Y148047D01*
X15199Y148380D01*
X16298Y150213D02*
X17298Y147880D01*
X18298Y150213D02*
X17298Y147880D01*
X16965Y147213D01*
X16632Y146880D01*
X16298Y146713D01*
X16132D01*
X18881Y149213D02*
X20881D01*
Y149546D01*
X20714Y149879D01*
X20548Y150046D01*
X20214Y150213D01*
X19714D01*
X19381Y150046D01*
X19048Y149713D01*
X18881Y149213D01*
Y148880D01*
X19048Y148380D01*
X19381Y148047D01*
X19714Y147880D01*
X20214D01*
X20548Y148047D01*
X20881Y148380D01*
X21631Y150213D02*
Y147880D01*
Y149213D02*
X21797Y149713D01*
X22131Y150046D01*
X22464Y150213D01*
X22964D01*
X26030Y149380D02*
X29029D01*
X32812Y151379D02*
Y147880D01*
Y151379D02*
X34311D01*
X34811Y151213D01*
X34978Y151046D01*
X35144Y150713D01*
Y150379D01*
X34978Y150046D01*
X34811Y149879D01*
X34311Y149713D01*
X32812D02*
X34311D01*
X34811Y149546D01*
X34978Y149380D01*
X35144Y149046D01*
Y148546D01*
X34978Y148213D01*
X34811Y148047D01*
X34311Y147880D01*
X32812D01*
X36761Y150213D02*
X36428Y150046D01*
X36094Y149713D01*
X35928Y149213D01*
Y148880D01*
X36094Y148380D01*
X36428Y148047D01*
X36761Y147880D01*
X37261D01*
X37594Y148047D01*
X37927Y148380D01*
X38094Y148880D01*
Y149213D01*
X37927Y149713D01*
X37594Y150046D01*
X37261Y150213D01*
X36761D01*
X39360Y151379D02*
Y148546D01*
X39527Y148047D01*
X39860Y147880D01*
X40193D01*
X38860Y150213D02*
X40027D01*
X41193Y151379D02*
Y148546D01*
X41360Y148047D01*
X41693Y147880D01*
X42026D01*
X40693Y150213D02*
X41860D01*
X43359D02*
X43026Y150046D01*
X42693Y149713D01*
X42526Y149213D01*
Y148880D01*
X42693Y148380D01*
X43026Y148047D01*
X43359Y147880D01*
X43859D01*
X44192Y148047D01*
X44526Y148380D01*
X44692Y148880D01*
Y149213D01*
X44526Y149713D01*
X44192Y150046D01*
X43859Y150213D01*
X43359D01*
X45459D02*
Y147880D01*
Y149546D02*
X45959Y150046D01*
X46292Y150213D01*
X46792D01*
X47125Y150046D01*
X47292Y149546D01*
Y147880D01*
Y149546D02*
X47792Y150046D01*
X48125Y150213D01*
X48625D01*
X48958Y150046D01*
X49125Y149546D01*
Y147880D01*
X52974Y151379D02*
Y147880D01*
X54974D01*
X57356Y150213D02*
Y147880D01*
Y149713D02*
X57023Y150046D01*
X56690Y150213D01*
X56190D01*
X55857Y150046D01*
X55523Y149713D01*
X55357Y149213D01*
Y148880D01*
X55523Y148380D01*
X55857Y148047D01*
X56190Y147880D01*
X56690D01*
X57023Y148047D01*
X57356Y148380D01*
X58456Y150213D02*
X59456Y147880D01*
X60456Y150213D02*
X59456Y147880D01*
X59123Y147213D01*
X58789Y146880D01*
X58456Y146713D01*
X58289D01*
X61039Y149213D02*
X63038D01*
Y149546D01*
X62872Y149879D01*
X62705Y150046D01*
X62372Y150213D01*
X61872D01*
X61539Y150046D01*
X61206Y149713D01*
X61039Y149213D01*
Y148880D01*
X61206Y148380D01*
X61539Y148047D01*
X61872Y147880D01*
X62372D01*
X62705Y148047D01*
X63038Y148380D01*
X63788Y150213D02*
Y147880D01*
Y149213D02*
X63955Y149713D01*
X64288Y150046D01*
X64622Y150213D01*
X65121D01*
X802Y142629D02*
Y139130D01*
X-365Y142629D02*
X1968D01*
X3218Y141463D02*
X2885Y141296D01*
X2551Y140963D01*
X2385Y140463D01*
Y140130D01*
X2551Y139630D01*
X2885Y139296D01*
X3218Y139130D01*
X3718D01*
X4051Y139296D01*
X4384Y139630D01*
X4551Y140130D01*
Y140463D01*
X4384Y140963D01*
X4051Y141296D01*
X3718Y141463D01*
X3218D01*
X5317D02*
Y137963D01*
Y140963D02*
X5651Y141296D01*
X5984Y141463D01*
X6484D01*
X6817Y141296D01*
X7151Y140963D01*
X7317Y140463D01*
Y140130D01*
X7151Y139630D01*
X6817Y139296D01*
X6484Y139130D01*
X5984D01*
X5651Y139296D01*
X5317Y139630D01*
X10816Y142629D02*
Y139130D01*
X12816D01*
X15199Y141463D02*
Y139130D01*
Y140963D02*
X14865Y141296D01*
X14532Y141463D01*
X14032D01*
X13699Y141296D01*
X13366Y140963D01*
X13199Y140463D01*
Y140130D01*
X13366Y139630D01*
X13699Y139296D01*
X14032Y139130D01*
X14532D01*
X14865Y139296D01*
X15199Y139630D01*
X16298Y141463D02*
X17298Y139130D01*
X18298Y141463D02*
X17298Y139130D01*
X16965Y138463D01*
X16632Y138130D01*
X16298Y137963D01*
X16132D01*
X18881Y140463D02*
X20881D01*
Y140796D01*
X20714Y141129D01*
X20548Y141296D01*
X20214Y141463D01*
X19714D01*
X19381Y141296D01*
X19048Y140963D01*
X18881Y140463D01*
Y140130D01*
X19048Y139630D01*
X19381Y139296D01*
X19714Y139130D01*
X20214D01*
X20548Y139296D01*
X20881Y139630D01*
X21631Y141463D02*
Y139130D01*
Y140463D02*
X21797Y140963D01*
X22131Y141296D01*
X22464Y141463D01*
X22964D01*
X26030Y140629D02*
X29029D01*
X32812Y142629D02*
Y139130D01*
Y142629D02*
X34311D01*
X34811Y142463D01*
X34978Y142296D01*
X35144Y141963D01*
Y141629D01*
X34978Y141296D01*
X34811Y141129D01*
X34311Y140963D01*
X32812D02*
X34311D01*
X34811Y140796D01*
X34978Y140629D01*
X35144Y140296D01*
Y139796D01*
X34978Y139463D01*
X34811Y139296D01*
X34311Y139130D01*
X32812D01*
X36761Y141463D02*
X36428Y141296D01*
X36094Y140963D01*
X35928Y140463D01*
Y140130D01*
X36094Y139630D01*
X36428Y139296D01*
X36761Y139130D01*
X37261D01*
X37594Y139296D01*
X37927Y139630D01*
X38094Y140130D01*
Y140463D01*
X37927Y140963D01*
X37594Y141296D01*
X37261Y141463D01*
X36761D01*
X39360Y142629D02*
Y139796D01*
X39527Y139296D01*
X39860Y139130D01*
X40193D01*
X38860Y141463D02*
X40027D01*
X41193Y142629D02*
Y139796D01*
X41360Y139296D01*
X41693Y139130D01*
X42026D01*
X40693Y141463D02*
X41860D01*
X43359D02*
X43026Y141296D01*
X42693Y140963D01*
X42526Y140463D01*
Y140130D01*
X42693Y139630D01*
X43026Y139296D01*
X43359Y139130D01*
X43859D01*
X44192Y139296D01*
X44526Y139630D01*
X44692Y140130D01*
Y140463D01*
X44526Y140963D01*
X44192Y141296D01*
X43859Y141463D01*
X43359D01*
X45459D02*
Y139130D01*
Y140796D02*
X45959Y141296D01*
X46292Y141463D01*
X46792D01*
X47125Y141296D01*
X47292Y140796D01*
Y139130D01*
Y140796D02*
X47792Y141296D01*
X48125Y141463D01*
X48625D01*
X48958Y141296D01*
X49125Y140796D01*
Y139130D01*
X52974Y142629D02*
Y139130D01*
X54974D01*
X57356Y141463D02*
Y139130D01*
Y140963D02*
X57023Y141296D01*
X56690Y141463D01*
X56190D01*
X55857Y141296D01*
X55523Y140963D01*
X55357Y140463D01*
Y140130D01*
X55523Y139630D01*
X55857Y139296D01*
X56190Y139130D01*
X56690D01*
X57023Y139296D01*
X57356Y139630D01*
X58456Y141463D02*
X59456Y139130D01*
X60456Y141463D02*
X59456Y139130D01*
X59123Y138463D01*
X58789Y138130D01*
X58456Y137963D01*
X58289D01*
X61039Y140463D02*
X63038D01*
Y140796D01*
X62872Y141129D01*
X62705Y141296D01*
X62372Y141463D01*
X61872D01*
X61539Y141296D01*
X61206Y140963D01*
X61039Y140463D01*
Y140130D01*
X61206Y139630D01*
X61539Y139296D01*
X61872Y139130D01*
X62372D01*
X62705Y139296D01*
X63038Y139630D01*
X63788Y141463D02*
Y139130D01*
Y140463D02*
X63955Y140963D01*
X64288Y141296D01*
X64622Y141463D01*
X65121D01*
X802Y133879D02*
Y130380D01*
X-365Y133879D02*
X1968D01*
X3218Y132713D02*
X2885Y132546D01*
X2551Y132213D01*
X2385Y131713D01*
Y131380D01*
X2551Y130880D01*
X2885Y130546D01*
X3218Y130380D01*
X3718D01*
X4051Y130546D01*
X4384Y130880D01*
X4551Y131380D01*
Y131713D01*
X4384Y132213D01*
X4051Y132546D01*
X3718Y132713D01*
X3218D01*
X5317D02*
Y129213D01*
Y132213D02*
X5651Y132546D01*
X5984Y132713D01*
X6484D01*
X6817Y132546D01*
X7151Y132213D01*
X7317Y131713D01*
Y131380D01*
X7151Y130880D01*
X6817Y130546D01*
X6484Y130380D01*
X5984D01*
X5651Y130546D01*
X5317Y130880D01*
X10816Y133879D02*
Y130380D01*
X12816D01*
X15199Y132713D02*
Y130380D01*
Y132213D02*
X14865Y132546D01*
X14532Y132713D01*
X14032D01*
X13699Y132546D01*
X13366Y132213D01*
X13199Y131713D01*
Y131380D01*
X13366Y130880D01*
X13699Y130546D01*
X14032Y130380D01*
X14532D01*
X14865Y130546D01*
X15199Y130880D01*
X16298Y132713D02*
X17298Y130380D01*
X18298Y132713D02*
X17298Y130380D01*
X16965Y129713D01*
X16632Y129380D01*
X16298Y129213D01*
X16132D01*
X18881Y131713D02*
X20881D01*
Y132046D01*
X20714Y132379D01*
X20548Y132546D01*
X20214Y132713D01*
X19714D01*
X19381Y132546D01*
X19048Y132213D01*
X18881Y131713D01*
Y131380D01*
X19048Y130880D01*
X19381Y130546D01*
X19714Y130380D01*
X20214D01*
X20548Y130546D01*
X20881Y130880D01*
X21631Y132713D02*
Y130380D01*
Y131713D02*
X21797Y132213D01*
X22131Y132546D01*
X22464Y132713D01*
X22964D01*
X26030Y131879D02*
X29029D01*
X32812Y133879D02*
Y130380D01*
Y133879D02*
X34311D01*
X34811Y133712D01*
X34978Y133546D01*
X35144Y133213D01*
Y132879D01*
X34978Y132546D01*
X34811Y132379D01*
X34311Y132213D01*
X32812D02*
X34311D01*
X34811Y132046D01*
X34978Y131879D01*
X35144Y131546D01*
Y131046D01*
X34978Y130713D01*
X34811Y130546D01*
X34311Y130380D01*
X32812D01*
X36761Y132713D02*
X36428Y132546D01*
X36094Y132213D01*
X35928Y131713D01*
Y131380D01*
X36094Y130880D01*
X36428Y130546D01*
X36761Y130380D01*
X37261D01*
X37594Y130546D01*
X37927Y130880D01*
X38094Y131380D01*
Y131713D01*
X37927Y132213D01*
X37594Y132546D01*
X37261Y132713D01*
X36761D01*
X39360Y133879D02*
Y131046D01*
X39527Y130546D01*
X39860Y130380D01*
X40193D01*
X38860Y132713D02*
X40027D01*
X41193Y133879D02*
Y131046D01*
X41360Y130546D01*
X41693Y130380D01*
X42026D01*
X40693Y132713D02*
X41860D01*
X43359D02*
X43026Y132546D01*
X42693Y132213D01*
X42526Y131713D01*
Y131380D01*
X42693Y130880D01*
X43026Y130546D01*
X43359Y130380D01*
X43859D01*
X44192Y130546D01*
X44526Y130880D01*
X44692Y131380D01*
Y131713D01*
X44526Y132213D01*
X44192Y132546D01*
X43859Y132713D01*
X43359D01*
X45459D02*
Y130380D01*
Y132046D02*
X45959Y132546D01*
X46292Y132713D01*
X46792D01*
X47125Y132546D01*
X47292Y132046D01*
Y130380D01*
Y132046D02*
X47792Y132546D01*
X48125Y132713D01*
X48625D01*
X48958Y132546D01*
X49125Y132046D01*
Y130380D01*
X52974Y133879D02*
Y130380D01*
X54974D01*
X57356Y132713D02*
Y130380D01*
Y132213D02*
X57023Y132546D01*
X56690Y132713D01*
X56190D01*
X55857Y132546D01*
X55523Y132213D01*
X55357Y131713D01*
Y131380D01*
X55523Y130880D01*
X55857Y130546D01*
X56190Y130380D01*
X56690D01*
X57023Y130546D01*
X57356Y130880D01*
X58456Y132713D02*
X59456Y130380D01*
X60456Y132713D02*
X59456Y130380D01*
X59123Y129713D01*
X58789Y129380D01*
X58456Y129213D01*
X58289D01*
X61039Y131713D02*
X63038D01*
Y132046D01*
X62872Y132379D01*
X62705Y132546D01*
X62372Y132713D01*
X61872D01*
X61539Y132546D01*
X61206Y132213D01*
X61039Y131713D01*
Y131380D01*
X61206Y130880D01*
X61539Y130546D01*
X61872Y130380D01*
X62372D01*
X62705Y130546D01*
X63038Y130880D01*
X63788Y132713D02*
Y130380D01*
Y131713D02*
X63955Y132213D01*
X64288Y132546D01*
X64622Y132713D01*
X65121D01*
X-34469Y177629D02*
Y174130D01*
Y177629D02*
X-32969D01*
X-32469Y177462D01*
X-32302Y177296D01*
X-32136Y176963D01*
Y176629D01*
X-32302Y176296D01*
X-32469Y176129D01*
X-32969Y175963D01*
X-34469D01*
X-33302D02*
X-32136Y174130D01*
X-30520Y176463D02*
X-30853Y176296D01*
X-31186Y175963D01*
X-31353Y175463D01*
Y175130D01*
X-31186Y174630D01*
X-30853Y174296D01*
X-30520Y174130D01*
X-30020D01*
X-29686Y174296D01*
X-29353Y174630D01*
X-29186Y175130D01*
Y175463D01*
X-29353Y175963D01*
X-29686Y176296D01*
X-30020Y176463D01*
X-30520D01*
X-28420D02*
Y174796D01*
X-28253Y174296D01*
X-27920Y174130D01*
X-27420D01*
X-27087Y174296D01*
X-26587Y174796D01*
Y176463D02*
Y174130D01*
X-25671Y176463D02*
Y174130D01*
Y175796D02*
X-25171Y176296D01*
X-24837Y176463D01*
X-24338D01*
X-24004Y176296D01*
X-23838Y175796D01*
Y174130D01*
X-20922Y177629D02*
Y174130D01*
Y175963D02*
X-21255Y176296D01*
X-21588Y176463D01*
X-22088D01*
X-22421Y176296D01*
X-22755Y175963D01*
X-22921Y175463D01*
Y175130D01*
X-22755Y174630D01*
X-22421Y174296D01*
X-22088Y174130D01*
X-21588D01*
X-21255Y174296D01*
X-20922Y174630D01*
X-34469Y168879D02*
Y165380D01*
Y168879D02*
X-32969D01*
X-32469Y168712D01*
X-32302Y168546D01*
X-32136Y168213D01*
Y167879D01*
X-32302Y167546D01*
X-32469Y167379D01*
X-32969Y167213D01*
X-34469D01*
X-33302D02*
X-32136Y165380D01*
X-30520Y167713D02*
X-30853Y167546D01*
X-31186Y167213D01*
X-31353Y166713D01*
Y166380D01*
X-31186Y165880D01*
X-30853Y165547D01*
X-30520Y165380D01*
X-30020D01*
X-29686Y165547D01*
X-29353Y165880D01*
X-29186Y166380D01*
Y166713D01*
X-29353Y167213D01*
X-29686Y167546D01*
X-30020Y167713D01*
X-30520D01*
X-28420D02*
Y166046D01*
X-28253Y165547D01*
X-27920Y165380D01*
X-27420D01*
X-27087Y165547D01*
X-26587Y166046D01*
Y167713D02*
Y165380D01*
X-25671Y167713D02*
Y165380D01*
Y167046D02*
X-25171Y167546D01*
X-24837Y167713D01*
X-24338D01*
X-24004Y167546D01*
X-23838Y167046D01*
Y165380D01*
X-20922Y168879D02*
Y165380D01*
Y167213D02*
X-21255Y167546D01*
X-21588Y167713D01*
X-22088D01*
X-22421Y167546D01*
X-22755Y167213D01*
X-22921Y166713D01*
Y166380D01*
X-22755Y165880D01*
X-22421Y165547D01*
X-22088Y165380D01*
X-21588D01*
X-21255Y165547D01*
X-20922Y165880D01*
X-32136Y159629D02*
X-32469Y159962D01*
X-32969Y160129D01*
X-33636D01*
X-34135Y159962D01*
X-34469Y159629D01*
Y159296D01*
X-34302Y158963D01*
X-34135Y158796D01*
X-33802Y158629D01*
X-32802Y158296D01*
X-32469Y158130D01*
X-32302Y157963D01*
X-32136Y157630D01*
Y157130D01*
X-32469Y156797D01*
X-32969Y156630D01*
X-33636D01*
X-34135Y156797D01*
X-34469Y157130D01*
X-31353Y160129D02*
Y156630D01*
X-29786Y158963D02*
X-30120Y158796D01*
X-30453Y158463D01*
X-30620Y157963D01*
Y157630D01*
X-30453Y157130D01*
X-30120Y156797D01*
X-29786Y156630D01*
X-29287D01*
X-28953Y156797D01*
X-28620Y157130D01*
X-28453Y157630D01*
Y157963D01*
X-28620Y158463D01*
X-28953Y158796D01*
X-29287Y158963D01*
X-29786D01*
X-27187Y160129D02*
Y157296D01*
X-27020Y156797D01*
X-26687Y156630D01*
X-26354D01*
X-27687Y158963D02*
X-26520D01*
X-32136Y150879D02*
X-32469Y151213D01*
X-32969Y151379D01*
X-33636D01*
X-34135Y151213D01*
X-34469Y150879D01*
Y150546D01*
X-34302Y150213D01*
X-34135Y150046D01*
X-33802Y149879D01*
X-32802Y149546D01*
X-32469Y149380D01*
X-32302Y149213D01*
X-32136Y148880D01*
Y148380D01*
X-32469Y148047D01*
X-32969Y147880D01*
X-33636D01*
X-34135Y148047D01*
X-34469Y148380D01*
X-31353Y151379D02*
Y147880D01*
X-29786Y150213D02*
X-30120Y150046D01*
X-30453Y149713D01*
X-30620Y149213D01*
Y148880D01*
X-30453Y148380D01*
X-30120Y148047D01*
X-29786Y147880D01*
X-29287D01*
X-28953Y148047D01*
X-28620Y148380D01*
X-28453Y148880D01*
Y149213D01*
X-28620Y149713D01*
X-28953Y150046D01*
X-29287Y150213D01*
X-29786D01*
X-27187Y151379D02*
Y148546D01*
X-27020Y148047D01*
X-26687Y147880D01*
X-26354D01*
X-27687Y150213D02*
X-26520D01*
X-34469Y142629D02*
Y139130D01*
Y142629D02*
X-32969D01*
X-32469Y142463D01*
X-32302Y142296D01*
X-32136Y141963D01*
Y141629D01*
X-32302Y141296D01*
X-32469Y141129D01*
X-32969Y140963D01*
X-34469D01*
X-33302D02*
X-32136Y139130D01*
X-30520Y141463D02*
X-30853Y141296D01*
X-31186Y140963D01*
X-31353Y140463D01*
Y140130D01*
X-31186Y139630D01*
X-30853Y139296D01*
X-30520Y139130D01*
X-30020D01*
X-29686Y139296D01*
X-29353Y139630D01*
X-29186Y140130D01*
Y140463D01*
X-29353Y140963D01*
X-29686Y141296D01*
X-30020Y141463D01*
X-30520D01*
X-28420D02*
Y139796D01*
X-28253Y139296D01*
X-27920Y139130D01*
X-27420D01*
X-27087Y139296D01*
X-26587Y139796D01*
Y141463D02*
Y139130D01*
X-25671Y141463D02*
Y139130D01*
Y140796D02*
X-25171Y141296D01*
X-24837Y141463D01*
X-24338D01*
X-24004Y141296D01*
X-23838Y140796D01*
Y139130D01*
X-20922Y142629D02*
Y139130D01*
Y140963D02*
X-21255Y141296D01*
X-21588Y141463D01*
X-22088D01*
X-22421Y141296D01*
X-22755Y140963D01*
X-22921Y140463D01*
Y140130D01*
X-22755Y139630D01*
X-22421Y139296D01*
X-22088Y139130D01*
X-21588D01*
X-21255Y139296D01*
X-20922Y139630D01*
X-34469Y133879D02*
Y130380D01*
Y133879D02*
X-32969D01*
X-32469Y133712D01*
X-32302Y133546D01*
X-32136Y133213D01*
Y132879D01*
X-32302Y132546D01*
X-32469Y132379D01*
X-32969Y132213D01*
X-34469D01*
X-33302D02*
X-32136Y130380D01*
X-30520Y132713D02*
X-30853Y132546D01*
X-31186Y132213D01*
X-31353Y131713D01*
Y131380D01*
X-31186Y130880D01*
X-30853Y130546D01*
X-30520Y130380D01*
X-30020D01*
X-29686Y130546D01*
X-29353Y130880D01*
X-29186Y131380D01*
Y131713D01*
X-29353Y132213D01*
X-29686Y132546D01*
X-30020Y132713D01*
X-30520D01*
X-28420D02*
Y131046D01*
X-28253Y130546D01*
X-27920Y130380D01*
X-27420D01*
X-27087Y130546D01*
X-26587Y131046D01*
Y132713D02*
Y130380D01*
X-25671Y132713D02*
Y130380D01*
Y132046D02*
X-25171Y132546D01*
X-24837Y132713D01*
X-24338D01*
X-24004Y132546D01*
X-23838Y132046D01*
Y130380D01*
X-20922Y133879D02*
Y130380D01*
Y132213D02*
X-21255Y132546D01*
X-21588Y132713D01*
X-22088D01*
X-22421Y132546D01*
X-22755Y132213D01*
X-22921Y131713D01*
Y131380D01*
X-22755Y130880D01*
X-22421Y130546D01*
X-22088Y130380D01*
X-21588D01*
X-21255Y130546D01*
X-20922Y130880D01*
X-57355Y175796D02*
X-55856D01*
X-55356Y175963D01*
X-55189Y176129D01*
X-55023Y176463D01*
Y176963D01*
X-55189Y177296D01*
X-55356Y177462D01*
X-55856Y177629D01*
X-57355D01*
Y174130D01*
X-53073Y177629D02*
Y174130D01*
X-54239Y177629D02*
X-51907D01*
X-51490D02*
Y174130D01*
X-49157Y177629D02*
Y174130D01*
X-51490Y175963D02*
X-49157D01*
X-57355Y167046D02*
X-55856D01*
X-55356Y167213D01*
X-55189Y167379D01*
X-55023Y167713D01*
Y168213D01*
X-55189Y168546D01*
X-55356Y168712D01*
X-55856Y168879D01*
X-57355D01*
Y165380D01*
X-53073Y168879D02*
Y165380D01*
X-54239Y168879D02*
X-51907D01*
X-51490D02*
Y165380D01*
X-49157Y168879D02*
Y165380D01*
X-51490Y167213D02*
X-49157D01*
X-57355Y158296D02*
X-55856D01*
X-55356Y158463D01*
X-55189Y158629D01*
X-55023Y158963D01*
Y159463D01*
X-55189Y159796D01*
X-55356Y159962D01*
X-55856Y160129D01*
X-57355D01*
Y156630D01*
X-53073Y160129D02*
Y156630D01*
X-54239Y160129D02*
X-51907D01*
X-51490D02*
Y156630D01*
X-49157Y160129D02*
Y156630D01*
X-51490Y158463D02*
X-49157D01*
X-57355Y149546D02*
X-55856D01*
X-55356Y149713D01*
X-55189Y149879D01*
X-55023Y150213D01*
Y150713D01*
X-55189Y151046D01*
X-55356Y151213D01*
X-55856Y151379D01*
X-57355D01*
Y147880D01*
X-53073Y151379D02*
Y147880D01*
X-54239Y151379D02*
X-51907D01*
X-51490D02*
Y147880D01*
X-49157Y151379D02*
Y147880D01*
X-51490Y149713D02*
X-49157D01*
X-57355Y142629D02*
Y139130D01*
Y142629D02*
X-55023Y139130D01*
Y142629D02*
Y139130D01*
X-54056Y140796D02*
X-52556D01*
X-52056Y140963D01*
X-51890Y141129D01*
X-51723Y141463D01*
Y141963D01*
X-51890Y142296D01*
X-52056Y142463D01*
X-52556Y142629D01*
X-54056D01*
Y139130D01*
X-49774Y142629D02*
Y139130D01*
X-50940Y142629D02*
X-48607D01*
X-48191D02*
Y139130D01*
X-45858Y142629D02*
Y139130D01*
X-48191Y140963D02*
X-45858D01*
X-57355Y132046D02*
X-55856D01*
X-55356Y132213D01*
X-55189Y132379D01*
X-55023Y132713D01*
Y133213D01*
X-55189Y133546D01*
X-55356Y133712D01*
X-55856Y133879D01*
X-57355D01*
Y130380D01*
X-53073Y133879D02*
Y130380D01*
X-54239Y133879D02*
X-51907D01*
X-51490D02*
Y130380D01*
X-49157Y133879D02*
Y130380D01*
X-51490Y132213D02*
X-49157D01*
X-112795Y176963D02*
X-112461Y177129D01*
X-111962Y177629D01*
Y174130D01*
X-110062Y176796D02*
Y176963D01*
X-109895Y177296D01*
X-109729Y177462D01*
X-109396Y177629D01*
X-108729D01*
X-108396Y177462D01*
X-108229Y177296D01*
X-108063Y176963D01*
Y176629D01*
X-108229Y176296D01*
X-108562Y175796D01*
X-110229Y174130D01*
X-107896D01*
X-106946Y174463D02*
X-107113Y174296D01*
X-106946Y174130D01*
X-106779Y174296D01*
X-106946Y174463D01*
X-105013Y177629D02*
X-105513Y177462D01*
X-105846Y176963D01*
X-106013Y176129D01*
Y175629D01*
X-105846Y174796D01*
X-105513Y174296D01*
X-105013Y174130D01*
X-104680D01*
X-104180Y174296D01*
X-103847Y174796D01*
X-103680Y175629D01*
Y176129D01*
X-103847Y176963D01*
X-104180Y177462D01*
X-104680Y177629D01*
X-105013D01*
X-101897D02*
X-102397Y177462D01*
X-102730Y176963D01*
X-102897Y176129D01*
Y175629D01*
X-102730Y174796D01*
X-102397Y174296D01*
X-101897Y174130D01*
X-101564D01*
X-101064Y174296D01*
X-100731Y174796D01*
X-100564Y175629D01*
Y176129D01*
X-100731Y176963D01*
X-101064Y177462D01*
X-101564Y177629D01*
X-101897D01*
X-99781Y176463D02*
Y174130D01*
Y175796D02*
X-99281Y176296D01*
X-98948Y176463D01*
X-98448D01*
X-98115Y176296D01*
X-97948Y175796D01*
Y174130D01*
Y175796D02*
X-97448Y176296D01*
X-97115Y176463D01*
X-96615D01*
X-96282Y176296D01*
X-96115Y175796D01*
Y174130D01*
X-94682Y177629D02*
X-94515Y177462D01*
X-94349Y177629D01*
X-94515Y177796D01*
X-94682Y177629D01*
X-94515Y176463D02*
Y174130D01*
X-93732Y177629D02*
Y174130D01*
X-89083Y178296D02*
X-89416Y177962D01*
X-89750Y177462D01*
X-90083Y176796D01*
X-90250Y175963D01*
Y175296D01*
X-90083Y174463D01*
X-89750Y173797D01*
X-89416Y173297D01*
X-89083Y172963D01*
X-89416Y177962D02*
X-89750Y177296D01*
X-89916Y176796D01*
X-90083Y175963D01*
Y175296D01*
X-89916Y174463D01*
X-89750Y173963D01*
X-89416Y173297D01*
X-87417Y177629D02*
X-87917Y177462D01*
X-88250Y176963D01*
X-88417Y176129D01*
Y175629D01*
X-88250Y174796D01*
X-87917Y174296D01*
X-87417Y174130D01*
X-87084D01*
X-86584Y174296D01*
X-86251Y174796D01*
X-86084Y175629D01*
Y176129D01*
X-86251Y176963D01*
X-86584Y177462D01*
X-87084Y177629D01*
X-87417D01*
X-85134Y174463D02*
X-85301Y174296D01*
X-85134Y174130D01*
X-84967Y174296D01*
X-85134Y174463D01*
X-83868Y177629D02*
X-82035D01*
X-83034Y176296D01*
X-82535D01*
X-82201Y176129D01*
X-82035Y175963D01*
X-81868Y175463D01*
Y175130D01*
X-82035Y174630D01*
X-82368Y174296D01*
X-82868Y174130D01*
X-83368D01*
X-83868Y174296D01*
X-84034Y174463D01*
X-84201Y174796D01*
X-80085Y177629D02*
X-80585Y177462D01*
X-80918Y176963D01*
X-81085Y176129D01*
Y175629D01*
X-80918Y174796D01*
X-80585Y174296D01*
X-80085Y174130D01*
X-79752D01*
X-79252Y174296D01*
X-78919Y174796D01*
X-78752Y175629D01*
Y176129D01*
X-78919Y176963D01*
X-79252Y177462D01*
X-79752Y177629D01*
X-80085D01*
X-75969D02*
X-77636D01*
X-77802Y176129D01*
X-77636Y176296D01*
X-77136Y176463D01*
X-76636D01*
X-76136Y176296D01*
X-75803Y175963D01*
X-75636Y175463D01*
Y175130D01*
X-75803Y174630D01*
X-76136Y174296D01*
X-76636Y174130D01*
X-77136D01*
X-77636Y174296D01*
X-77802Y174463D01*
X-77969Y174796D01*
X-74853Y176463D02*
Y174130D01*
Y175796D02*
X-74353Y176296D01*
X-74020Y176463D01*
X-73520D01*
X-73187Y176296D01*
X-73020Y175796D01*
Y174130D01*
Y175796D02*
X-72520Y176296D01*
X-72187Y176463D01*
X-71687D01*
X-71354Y176296D01*
X-71187Y175796D01*
Y174130D01*
X-70087Y176463D02*
Y174130D01*
Y175796D02*
X-69587Y176296D01*
X-69254Y176463D01*
X-68754D01*
X-68421Y176296D01*
X-68254Y175796D01*
Y174130D01*
Y175796D02*
X-67754Y176296D01*
X-67421Y176463D01*
X-66921D01*
X-66588Y176296D01*
X-66421Y175796D01*
Y174130D01*
X-65322Y178296D02*
X-64988Y177962D01*
X-64655Y177462D01*
X-64322Y176796D01*
X-64155Y175963D01*
Y175296D01*
X-64322Y174463D01*
X-64655Y173797D01*
X-64988Y173297D01*
X-65322Y172963D01*
X-64988Y177962D02*
X-64655Y177296D01*
X-64489Y176796D01*
X-64322Y175963D01*
Y175296D01*
X-64489Y174463D01*
X-64655Y173963D01*
X-64988Y173297D01*
X-112795Y168213D02*
X-112461Y168379D01*
X-111962Y168879D01*
Y165380D01*
X-110062Y168046D02*
Y168213D01*
X-109895Y168546D01*
X-109729Y168712D01*
X-109396Y168879D01*
X-108729D01*
X-108396Y168712D01*
X-108229Y168546D01*
X-108063Y168213D01*
Y167879D01*
X-108229Y167546D01*
X-108562Y167046D01*
X-110229Y165380D01*
X-107896D01*
X-106946Y165713D02*
X-107113Y165547D01*
X-106946Y165380D01*
X-106779Y165547D01*
X-106946Y165713D01*
X-103847Y167713D02*
X-104013Y167213D01*
X-104347Y166879D01*
X-104847Y166713D01*
X-105013D01*
X-105513Y166879D01*
X-105846Y167213D01*
X-106013Y167713D01*
Y167879D01*
X-105846Y168379D01*
X-105513Y168712D01*
X-105013Y168879D01*
X-104847D01*
X-104347Y168712D01*
X-104013Y168379D01*
X-103847Y167713D01*
Y166879D01*
X-104013Y166046D01*
X-104347Y165547D01*
X-104847Y165380D01*
X-105180D01*
X-105680Y165547D01*
X-105846Y165880D01*
X-100731Y167713D02*
X-100897Y167213D01*
X-101231Y166879D01*
X-101731Y166713D01*
X-101897D01*
X-102397Y166879D01*
X-102730Y167213D01*
X-102897Y167713D01*
Y167879D01*
X-102730Y168379D01*
X-102397Y168712D01*
X-101897Y168879D01*
X-101731D01*
X-101231Y168712D01*
X-100897Y168379D01*
X-100731Y167713D01*
Y166879D01*
X-100897Y166046D01*
X-101231Y165547D01*
X-101731Y165380D01*
X-102064D01*
X-102564Y165547D01*
X-102730Y165880D01*
X-99781Y167713D02*
Y165380D01*
Y167046D02*
X-99281Y167546D01*
X-98948Y167713D01*
X-98448D01*
X-98115Y167546D01*
X-97948Y167046D01*
Y165380D01*
Y167046D02*
X-97448Y167546D01*
X-97115Y167713D01*
X-96615D01*
X-96282Y167546D01*
X-96115Y167046D01*
Y165380D01*
X-94682Y168879D02*
X-94515Y168712D01*
X-94349Y168879D01*
X-94515Y169046D01*
X-94682Y168879D01*
X-94515Y167713D02*
Y165380D01*
X-93732Y168879D02*
Y165380D01*
X-89083Y169546D02*
X-89416Y169212D01*
X-89750Y168712D01*
X-90083Y168046D01*
X-90250Y167213D01*
Y166546D01*
X-90083Y165713D01*
X-89750Y165047D01*
X-89416Y164547D01*
X-89083Y164213D01*
X-89416Y169212D02*
X-89750Y168546D01*
X-89916Y168046D01*
X-90083Y167213D01*
Y166546D01*
X-89916Y165713D01*
X-89750Y165213D01*
X-89416Y164547D01*
X-87417Y168879D02*
X-87917Y168712D01*
X-88250Y168213D01*
X-88417Y167379D01*
Y166879D01*
X-88250Y166046D01*
X-87917Y165547D01*
X-87417Y165380D01*
X-87084D01*
X-86584Y165547D01*
X-86251Y166046D01*
X-86084Y166879D01*
Y167379D01*
X-86251Y168213D01*
X-86584Y168712D01*
X-87084Y168879D01*
X-87417D01*
X-85134Y165713D02*
X-85301Y165547D01*
X-85134Y165380D01*
X-84967Y165547D01*
X-85134Y165713D01*
X-83868Y168879D02*
X-82035D01*
X-83034Y167546D01*
X-82535D01*
X-82201Y167379D01*
X-82035Y167213D01*
X-81868Y166713D01*
Y166380D01*
X-82035Y165880D01*
X-82368Y165547D01*
X-82868Y165380D01*
X-83368D01*
X-83868Y165547D01*
X-84034Y165713D01*
X-84201Y166046D01*
X-80752Y168879D02*
X-78919D01*
X-79918Y167546D01*
X-79419D01*
X-79085Y167379D01*
X-78919Y167213D01*
X-78752Y166713D01*
Y166380D01*
X-78919Y165880D01*
X-79252Y165547D01*
X-79752Y165380D01*
X-80252D01*
X-80752Y165547D01*
X-80918Y165713D01*
X-81085Y166046D01*
X-76969Y168879D02*
X-77469Y168712D01*
X-77802Y168213D01*
X-77969Y167379D01*
Y166879D01*
X-77802Y166046D01*
X-77469Y165547D01*
X-76969Y165380D01*
X-76636D01*
X-76136Y165547D01*
X-75803Y166046D01*
X-75636Y166879D01*
Y167379D01*
X-75803Y168213D01*
X-76136Y168712D01*
X-76636Y168879D01*
X-76969D01*
X-74853Y167713D02*
Y165380D01*
Y167046D02*
X-74353Y167546D01*
X-74020Y167713D01*
X-73520D01*
X-73187Y167546D01*
X-73020Y167046D01*
Y165380D01*
Y167046D02*
X-72520Y167546D01*
X-72187Y167713D01*
X-71687D01*
X-71354Y167546D01*
X-71187Y167046D01*
Y165380D01*
X-70087Y167713D02*
Y165380D01*
Y167046D02*
X-69587Y167546D01*
X-69254Y167713D01*
X-68754D01*
X-68421Y167546D01*
X-68254Y167046D01*
Y165380D01*
Y167046D02*
X-67754Y167546D01*
X-67421Y167713D01*
X-66921D01*
X-66588Y167546D01*
X-66421Y167046D01*
Y165380D01*
X-65322Y169546D02*
X-64988Y169212D01*
X-64655Y168712D01*
X-64322Y168046D01*
X-64155Y167213D01*
Y166546D01*
X-64322Y165713D01*
X-64655Y165047D01*
X-64988Y164547D01*
X-65322Y164213D01*
X-64988Y169212D02*
X-64655Y168546D01*
X-64489Y168046D01*
X-64322Y167213D01*
Y166546D01*
X-64489Y165713D01*
X-64655Y165213D01*
X-64988Y164547D01*
X-112628Y159296D02*
Y159463D01*
X-112461Y159796D01*
X-112295Y159962D01*
X-111962Y160129D01*
X-111295D01*
X-110962Y159962D01*
X-110795Y159796D01*
X-110629Y159463D01*
Y159129D01*
X-110795Y158796D01*
X-111128Y158296D01*
X-112795Y156630D01*
X-110462D01*
X-109345Y160129D02*
X-107513D01*
X-108512Y158796D01*
X-108012D01*
X-107679Y158629D01*
X-107513Y158463D01*
X-107346Y157963D01*
Y157630D01*
X-107513Y157130D01*
X-107846Y156797D01*
X-108346Y156630D01*
X-108846D01*
X-109345Y156797D01*
X-109512Y156963D01*
X-109679Y157296D01*
X-106396Y156963D02*
X-106563Y156797D01*
X-106396Y156630D01*
X-106229Y156797D01*
X-106396Y156963D01*
X-103463Y159629D02*
X-103630Y159962D01*
X-104130Y160129D01*
X-104463D01*
X-104963Y159962D01*
X-105296Y159463D01*
X-105463Y158629D01*
Y157796D01*
X-105296Y157130D01*
X-104963Y156797D01*
X-104463Y156630D01*
X-104297D01*
X-103797Y156797D01*
X-103463Y157130D01*
X-103297Y157630D01*
Y157796D01*
X-103463Y158296D01*
X-103797Y158629D01*
X-104297Y158796D01*
X-104463D01*
X-104963Y158629D01*
X-105296Y158296D01*
X-105463Y157796D01*
X-102364Y159296D02*
Y159463D01*
X-102197Y159796D01*
X-102030Y159962D01*
X-101697Y160129D01*
X-101031D01*
X-100697Y159962D01*
X-100531Y159796D01*
X-100364Y159463D01*
Y159129D01*
X-100531Y158796D01*
X-100864Y158296D01*
X-102530Y156630D01*
X-100198D01*
X-99414Y158963D02*
Y156630D01*
Y158296D02*
X-98914Y158796D01*
X-98581Y158963D01*
X-98081D01*
X-97748Y158796D01*
X-97581Y158296D01*
Y156630D01*
Y158296D02*
X-97082Y158796D01*
X-96748Y158963D01*
X-96248D01*
X-95915Y158796D01*
X-95749Y158296D01*
Y156630D01*
X-94315Y160129D02*
X-94149Y159962D01*
X-93982Y160129D01*
X-94149Y160296D01*
X-94315Y160129D01*
X-94149Y158963D02*
Y156630D01*
X-93366Y160129D02*
Y156630D01*
X-88717Y160796D02*
X-89050Y160462D01*
X-89383Y159962D01*
X-89716Y159296D01*
X-89883Y158463D01*
Y157796D01*
X-89716Y156963D01*
X-89383Y156297D01*
X-89050Y155797D01*
X-88717Y155463D01*
X-89050Y160462D02*
X-89383Y159796D01*
X-89550Y159296D01*
X-89716Y158463D01*
Y157796D01*
X-89550Y156963D01*
X-89383Y156463D01*
X-89050Y155797D01*
X-87050Y160129D02*
X-87550Y159962D01*
X-87884Y159463D01*
X-88050Y158629D01*
Y158130D01*
X-87884Y157296D01*
X-87550Y156797D01*
X-87050Y156630D01*
X-86717D01*
X-86217Y156797D01*
X-85884Y157296D01*
X-85717Y158130D01*
Y158629D01*
X-85884Y159463D01*
X-86217Y159962D01*
X-86717Y160129D01*
X-87050D01*
X-84768Y156963D02*
X-84934Y156797D01*
X-84768Y156630D01*
X-84601Y156797D01*
X-84768Y156963D01*
X-81835Y159629D02*
X-82001Y159962D01*
X-82501Y160129D01*
X-82835D01*
X-83334Y159962D01*
X-83668Y159463D01*
X-83834Y158629D01*
Y157796D01*
X-83668Y157130D01*
X-83334Y156797D01*
X-82835Y156630D01*
X-82668D01*
X-82168Y156797D01*
X-81835Y157130D01*
X-81668Y157630D01*
Y157796D01*
X-81835Y158296D01*
X-82168Y158629D01*
X-82668Y158796D01*
X-82835D01*
X-83334Y158629D01*
X-83668Y158296D01*
X-83834Y157796D01*
X-79902Y160129D02*
X-80402Y159962D01*
X-80735Y159463D01*
X-80902Y158629D01*
Y158130D01*
X-80735Y157296D01*
X-80402Y156797D01*
X-79902Y156630D01*
X-79569D01*
X-79069Y156797D01*
X-78735Y157296D01*
X-78569Y158130D01*
Y158629D01*
X-78735Y159463D01*
X-79069Y159962D01*
X-79569Y160129D01*
X-79902D01*
X-76786D02*
X-77286Y159962D01*
X-77619Y159463D01*
X-77786Y158629D01*
Y158130D01*
X-77619Y157296D01*
X-77286Y156797D01*
X-76786Y156630D01*
X-76453D01*
X-75953Y156797D01*
X-75619Y157296D01*
X-75453Y158130D01*
Y158629D01*
X-75619Y159463D01*
X-75953Y159962D01*
X-76453Y160129D01*
X-76786D01*
X-74670Y158963D02*
Y156630D01*
Y158296D02*
X-74170Y158796D01*
X-73836Y158963D01*
X-73337D01*
X-73003Y158796D01*
X-72837Y158296D01*
Y156630D01*
Y158296D02*
X-72337Y158796D01*
X-72004Y158963D01*
X-71504D01*
X-71170Y158796D01*
X-71004Y158296D01*
Y156630D01*
X-69904Y158963D02*
Y156630D01*
Y158296D02*
X-69404Y158796D01*
X-69071Y158963D01*
X-68571D01*
X-68238Y158796D01*
X-68071Y158296D01*
Y156630D01*
Y158296D02*
X-67571Y158796D01*
X-67238Y158963D01*
X-66738D01*
X-66405Y158796D01*
X-66238Y158296D01*
Y156630D01*
X-65138Y160796D02*
X-64805Y160462D01*
X-64472Y159962D01*
X-64139Y159296D01*
X-63972Y158463D01*
Y157796D01*
X-64139Y156963D01*
X-64472Y156297D01*
X-64805Y155797D01*
X-65138Y155463D01*
X-64805Y160462D02*
X-64472Y159796D01*
X-64305Y159296D01*
X-64139Y158463D01*
Y157796D01*
X-64305Y156963D01*
X-64472Y156463D01*
X-64805Y155797D01*
X-112628Y150546D02*
Y150713D01*
X-112461Y151046D01*
X-112295Y151213D01*
X-111962Y151379D01*
X-111295D01*
X-110962Y151213D01*
X-110795Y151046D01*
X-110629Y150713D01*
Y150379D01*
X-110795Y150046D01*
X-111128Y149546D01*
X-112795Y147880D01*
X-110462D01*
X-109345Y151379D02*
X-107513D01*
X-108512Y150046D01*
X-108012D01*
X-107679Y149879D01*
X-107513Y149713D01*
X-107346Y149213D01*
Y148880D01*
X-107513Y148380D01*
X-107846Y148047D01*
X-108346Y147880D01*
X-108846D01*
X-109345Y148047D01*
X-109512Y148213D01*
X-109679Y148546D01*
X-106396Y148213D02*
X-106563Y148047D01*
X-106396Y147880D01*
X-106229Y148047D01*
X-106396Y148213D01*
X-103463Y150879D02*
X-103630Y151213D01*
X-104130Y151379D01*
X-104463D01*
X-104963Y151213D01*
X-105296Y150713D01*
X-105463Y149879D01*
Y149046D01*
X-105296Y148380D01*
X-104963Y148047D01*
X-104463Y147880D01*
X-104297D01*
X-103797Y148047D01*
X-103463Y148380D01*
X-103297Y148880D01*
Y149046D01*
X-103463Y149546D01*
X-103797Y149879D01*
X-104297Y150046D01*
X-104463D01*
X-104963Y149879D01*
X-105296Y149546D01*
X-105463Y149046D01*
X-102364Y150546D02*
Y150713D01*
X-102197Y151046D01*
X-102030Y151213D01*
X-101697Y151379D01*
X-101031D01*
X-100697Y151213D01*
X-100531Y151046D01*
X-100364Y150713D01*
Y150379D01*
X-100531Y150046D01*
X-100864Y149546D01*
X-102530Y147880D01*
X-100198D01*
X-99414Y150213D02*
Y147880D01*
Y149546D02*
X-98914Y150046D01*
X-98581Y150213D01*
X-98081D01*
X-97748Y150046D01*
X-97581Y149546D01*
Y147880D01*
Y149546D02*
X-97082Y150046D01*
X-96748Y150213D01*
X-96248D01*
X-95915Y150046D01*
X-95749Y149546D01*
Y147880D01*
X-94315Y151379D02*
X-94149Y151213D01*
X-93982Y151379D01*
X-94149Y151546D01*
X-94315Y151379D01*
X-94149Y150213D02*
Y147880D01*
X-93366Y151379D02*
Y147880D01*
X-88717Y152046D02*
X-89050Y151712D01*
X-89383Y151213D01*
X-89716Y150546D01*
X-89883Y149713D01*
Y149046D01*
X-89716Y148213D01*
X-89383Y147547D01*
X-89050Y147047D01*
X-88717Y146713D01*
X-89050Y151712D02*
X-89383Y151046D01*
X-89550Y150546D01*
X-89716Y149713D01*
Y149046D01*
X-89550Y148213D01*
X-89383Y147713D01*
X-89050Y147047D01*
X-87050Y151379D02*
X-87550Y151213D01*
X-87884Y150713D01*
X-88050Y149879D01*
Y149380D01*
X-87884Y148546D01*
X-87550Y148047D01*
X-87050Y147880D01*
X-86717D01*
X-86217Y148047D01*
X-85884Y148546D01*
X-85717Y149380D01*
Y149879D01*
X-85884Y150713D01*
X-86217Y151213D01*
X-86717Y151379D01*
X-87050D01*
X-84768Y148213D02*
X-84934Y148047D01*
X-84768Y147880D01*
X-84601Y148047D01*
X-84768Y148213D01*
X-81835Y150879D02*
X-82001Y151213D01*
X-82501Y151379D01*
X-82835D01*
X-83334Y151213D01*
X-83668Y150713D01*
X-83834Y149879D01*
Y149046D01*
X-83668Y148380D01*
X-83334Y148047D01*
X-82835Y147880D01*
X-82668D01*
X-82168Y148047D01*
X-81835Y148380D01*
X-81668Y148880D01*
Y149046D01*
X-81835Y149546D01*
X-82168Y149879D01*
X-82668Y150046D01*
X-82835D01*
X-83334Y149879D01*
X-83668Y149546D01*
X-83834Y149046D01*
X-79902Y151379D02*
X-80402Y151213D01*
X-80735Y150713D01*
X-80902Y149879D01*
Y149380D01*
X-80735Y148546D01*
X-80402Y148047D01*
X-79902Y147880D01*
X-79569D01*
X-79069Y148047D01*
X-78735Y148546D01*
X-78569Y149380D01*
Y149879D01*
X-78735Y150713D01*
X-79069Y151213D01*
X-79569Y151379D01*
X-79902D01*
X-76786D02*
X-77286Y151213D01*
X-77619Y150713D01*
X-77786Y149879D01*
Y149380D01*
X-77619Y148546D01*
X-77286Y148047D01*
X-76786Y147880D01*
X-76453D01*
X-75953Y148047D01*
X-75619Y148546D01*
X-75453Y149380D01*
Y149879D01*
X-75619Y150713D01*
X-75953Y151213D01*
X-76453Y151379D01*
X-76786D01*
X-74670Y150213D02*
Y147880D01*
Y149546D02*
X-74170Y150046D01*
X-73836Y150213D01*
X-73337D01*
X-73003Y150046D01*
X-72837Y149546D01*
Y147880D01*
Y149546D02*
X-72337Y150046D01*
X-72004Y150213D01*
X-71504D01*
X-71170Y150046D01*
X-71004Y149546D01*
Y147880D01*
X-69904Y150213D02*
Y147880D01*
Y149546D02*
X-69404Y150046D01*
X-69071Y150213D01*
X-68571D01*
X-68238Y150046D01*
X-68071Y149546D01*
Y147880D01*
Y149546D02*
X-67571Y150046D01*
X-67238Y150213D01*
X-66738D01*
X-66405Y150046D01*
X-66238Y149546D01*
Y147880D01*
X-65138Y152046D02*
X-64805Y151712D01*
X-64472Y151213D01*
X-64139Y150546D01*
X-63972Y149713D01*
Y149046D01*
X-64139Y148213D01*
X-64472Y147547D01*
X-64805Y147047D01*
X-65138Y146713D01*
X-64805Y151712D02*
X-64472Y151046D01*
X-64305Y150546D01*
X-64139Y149713D01*
Y149046D01*
X-64305Y148213D01*
X-64472Y147713D01*
X-64805Y147047D01*
X-112628Y141796D02*
Y141963D01*
X-112461Y142296D01*
X-112295Y142463D01*
X-111962Y142629D01*
X-111295D01*
X-110962Y142463D01*
X-110795Y142296D01*
X-110629Y141963D01*
Y141629D01*
X-110795Y141296D01*
X-111128Y140796D01*
X-112795Y139130D01*
X-110462D01*
X-107679Y142629D02*
X-109345D01*
X-109512Y141129D01*
X-109345Y141296D01*
X-108846Y141463D01*
X-108346D01*
X-107846Y141296D01*
X-107513Y140963D01*
X-107346Y140463D01*
Y140130D01*
X-107513Y139630D01*
X-107846Y139296D01*
X-108346Y139130D01*
X-108846D01*
X-109345Y139296D01*
X-109512Y139463D01*
X-109679Y139796D01*
X-106396Y139463D02*
X-106563Y139296D01*
X-106396Y139130D01*
X-106229Y139296D01*
X-106396Y139463D01*
X-103463Y142629D02*
X-105130D01*
X-105296Y141129D01*
X-105130Y141296D01*
X-104630Y141463D01*
X-104130D01*
X-103630Y141296D01*
X-103297Y140963D01*
X-103130Y140463D01*
Y140130D01*
X-103297Y139630D01*
X-103630Y139296D01*
X-104130Y139130D01*
X-104630D01*
X-105130Y139296D01*
X-105296Y139463D01*
X-105463Y139796D01*
X-100181Y141463D02*
X-100347Y140963D01*
X-100681Y140629D01*
X-101181Y140463D01*
X-101347D01*
X-101847Y140629D01*
X-102180Y140963D01*
X-102347Y141463D01*
Y141629D01*
X-102180Y142129D01*
X-101847Y142463D01*
X-101347Y142629D01*
X-101181D01*
X-100681Y142463D01*
X-100347Y142129D01*
X-100181Y141463D01*
Y140629D01*
X-100347Y139796D01*
X-100681Y139296D01*
X-101181Y139130D01*
X-101514D01*
X-102014Y139296D01*
X-102180Y139630D01*
X-99231Y141463D02*
Y139130D01*
Y140796D02*
X-98731Y141296D01*
X-98398Y141463D01*
X-97898D01*
X-97565Y141296D01*
X-97398Y140796D01*
Y139130D01*
Y140796D02*
X-96898Y141296D01*
X-96565Y141463D01*
X-96065D01*
X-95732Y141296D01*
X-95565Y140796D01*
Y139130D01*
X-94132Y142629D02*
X-93966Y142463D01*
X-93799Y142629D01*
X-93966Y142796D01*
X-94132Y142629D01*
X-93966Y141463D02*
Y139130D01*
X-93182Y142629D02*
Y139130D01*
X-88533Y143296D02*
X-88867Y142962D01*
X-89200Y142463D01*
X-89533Y141796D01*
X-89700Y140963D01*
Y140296D01*
X-89533Y139463D01*
X-89200Y138797D01*
X-88867Y138297D01*
X-88533Y137963D01*
X-88867Y142962D02*
X-89200Y142296D01*
X-89367Y141796D01*
X-89533Y140963D01*
Y140296D01*
X-89367Y139463D01*
X-89200Y138963D01*
X-88867Y138297D01*
X-86867Y142629D02*
X-87367Y142463D01*
X-87700Y141963D01*
X-87867Y141129D01*
Y140629D01*
X-87700Y139796D01*
X-87367Y139296D01*
X-86867Y139130D01*
X-86534D01*
X-86034Y139296D01*
X-85701Y139796D01*
X-85534Y140629D01*
Y141129D01*
X-85701Y141963D01*
X-86034Y142463D01*
X-86534Y142629D01*
X-86867D01*
X-84584Y139463D02*
X-84751Y139296D01*
X-84584Y139130D01*
X-84417Y139296D01*
X-84584Y139463D01*
X-81652Y142129D02*
X-81818Y142463D01*
X-82318Y142629D01*
X-82651D01*
X-83151Y142463D01*
X-83484Y141963D01*
X-83651Y141129D01*
Y140296D01*
X-83484Y139630D01*
X-83151Y139296D01*
X-82651Y139130D01*
X-82485D01*
X-81985Y139296D01*
X-81652Y139630D01*
X-81485Y140130D01*
Y140296D01*
X-81652Y140796D01*
X-81985Y141129D01*
X-82485Y141296D01*
X-82651D01*
X-83151Y141129D01*
X-83484Y140796D01*
X-83651Y140296D01*
X-78719Y142629D02*
X-80385D01*
X-80552Y141129D01*
X-80385Y141296D01*
X-79885Y141463D01*
X-79385D01*
X-78885Y141296D01*
X-78552Y140963D01*
X-78386Y140463D01*
Y140130D01*
X-78552Y139630D01*
X-78885Y139296D01*
X-79385Y139130D01*
X-79885D01*
X-80385Y139296D01*
X-80552Y139463D01*
X-80718Y139796D01*
X-76603Y142629D02*
X-77102Y142463D01*
X-77436Y141963D01*
X-77602Y141129D01*
Y140629D01*
X-77436Y139796D01*
X-77102Y139296D01*
X-76603Y139130D01*
X-76269D01*
X-75769Y139296D01*
X-75436Y139796D01*
X-75270Y140629D01*
Y141129D01*
X-75436Y141963D01*
X-75769Y142463D01*
X-76269Y142629D01*
X-76603D01*
X-74486Y141463D02*
Y139130D01*
Y140796D02*
X-73986Y141296D01*
X-73653Y141463D01*
X-73153D01*
X-72820Y141296D01*
X-72653Y140796D01*
Y139130D01*
Y140796D02*
X-72154Y141296D01*
X-71820Y141463D01*
X-71320D01*
X-70987Y141296D01*
X-70820Y140796D01*
Y139130D01*
X-69721Y141463D02*
Y139130D01*
Y140796D02*
X-69221Y141296D01*
X-68888Y141463D01*
X-68388D01*
X-68054Y141296D01*
X-67888Y140796D01*
Y139130D01*
Y140796D02*
X-67388Y141296D01*
X-67055Y141463D01*
X-66555D01*
X-66221Y141296D01*
X-66055Y140796D01*
Y139130D01*
X-64955Y143296D02*
X-64622Y142962D01*
X-64289Y142463D01*
X-63955Y141796D01*
X-63789Y140963D01*
Y140296D01*
X-63955Y139463D01*
X-64289Y138797D01*
X-64622Y138297D01*
X-64955Y137963D01*
X-64622Y142962D02*
X-64289Y142296D01*
X-64122Y141796D01*
X-63955Y140963D01*
Y140296D01*
X-64122Y139463D01*
X-64289Y138963D01*
X-64622Y138297D01*
X-112461Y133879D02*
X-110629D01*
X-111628Y132546D01*
X-111128D01*
X-110795Y132379D01*
X-110629Y132213D01*
X-110462Y131713D01*
Y131380D01*
X-110629Y130880D01*
X-110962Y130546D01*
X-111462Y130380D01*
X-111962D01*
X-112461Y130546D01*
X-112628Y130713D01*
X-112795Y131046D01*
X-107679Y133879D02*
X-109345D01*
X-109512Y132379D01*
X-109345Y132546D01*
X-108846Y132713D01*
X-108346D01*
X-107846Y132546D01*
X-107513Y132213D01*
X-107346Y131713D01*
Y131380D01*
X-107513Y130880D01*
X-107846Y130546D01*
X-108346Y130380D01*
X-108846D01*
X-109345Y130546D01*
X-109512Y130713D01*
X-109679Y131046D01*
X-106396Y130713D02*
X-106563Y130546D01*
X-106396Y130380D01*
X-106229Y130546D01*
X-106396Y130713D01*
X-103797Y133879D02*
X-105463Y131546D01*
X-102964D01*
X-103797Y133879D02*
Y130380D01*
X-102014Y133879D02*
X-100181D01*
X-101181Y132546D01*
X-100681D01*
X-100347Y132379D01*
X-100181Y132213D01*
X-100014Y131713D01*
Y131380D01*
X-100181Y130880D01*
X-100514Y130546D01*
X-101014Y130380D01*
X-101514D01*
X-102014Y130546D01*
X-102180Y130713D01*
X-102347Y131046D01*
X-99231Y132713D02*
Y130380D01*
Y132046D02*
X-98731Y132546D01*
X-98398Y132713D01*
X-97898D01*
X-97565Y132546D01*
X-97398Y132046D01*
Y130380D01*
Y132046D02*
X-96898Y132546D01*
X-96565Y132713D01*
X-96065D01*
X-95732Y132546D01*
X-95565Y132046D01*
Y130380D01*
X-94132Y133879D02*
X-93966Y133712D01*
X-93799Y133879D01*
X-93966Y134046D01*
X-94132Y133879D01*
X-93966Y132713D02*
Y130380D01*
X-93182Y133879D02*
Y130380D01*
X-88533Y134546D02*
X-88867Y134212D01*
X-89200Y133712D01*
X-89533Y133046D01*
X-89700Y132213D01*
Y131546D01*
X-89533Y130713D01*
X-89200Y130047D01*
X-88867Y129547D01*
X-88533Y129213D01*
X-88867Y134212D02*
X-89200Y133546D01*
X-89367Y133046D01*
X-89533Y132213D01*
Y131546D01*
X-89367Y130713D01*
X-89200Y130213D01*
X-88867Y129547D01*
X-86867Y133879D02*
X-87367Y133712D01*
X-87700Y133213D01*
X-87867Y132379D01*
Y131879D01*
X-87700Y131046D01*
X-87367Y130546D01*
X-86867Y130380D01*
X-86534D01*
X-86034Y130546D01*
X-85701Y131046D01*
X-85534Y131879D01*
Y132379D01*
X-85701Y133213D01*
X-86034Y133712D01*
X-86534Y133879D01*
X-86867D01*
X-84584Y130713D02*
X-84751Y130546D01*
X-84584Y130380D01*
X-84417Y130546D01*
X-84584Y130713D01*
X-81485Y132713D02*
X-81652Y132213D01*
X-81985Y131879D01*
X-82485Y131713D01*
X-82651D01*
X-83151Y131879D01*
X-83484Y132213D01*
X-83651Y132713D01*
Y132879D01*
X-83484Y133379D01*
X-83151Y133712D01*
X-82651Y133879D01*
X-82485D01*
X-81985Y133712D01*
X-81652Y133379D01*
X-81485Y132713D01*
Y131879D01*
X-81652Y131046D01*
X-81985Y130546D01*
X-82485Y130380D01*
X-82818D01*
X-83318Y130546D01*
X-83484Y130880D01*
X-79535Y133879D02*
X-80035Y133712D01*
X-80368Y133213D01*
X-80535Y132379D01*
Y131879D01*
X-80368Y131046D01*
X-80035Y130546D01*
X-79535Y130380D01*
X-79202D01*
X-78702Y130546D01*
X-78369Y131046D01*
X-78202Y131879D01*
Y132379D01*
X-78369Y133213D01*
X-78702Y133712D01*
X-79202Y133879D01*
X-79535D01*
X-76419D02*
X-76919Y133712D01*
X-77252Y133213D01*
X-77419Y132379D01*
Y131879D01*
X-77252Y131046D01*
X-76919Y130546D01*
X-76419Y130380D01*
X-76086D01*
X-75586Y130546D01*
X-75253Y131046D01*
X-75086Y131879D01*
Y132379D01*
X-75253Y133213D01*
X-75586Y133712D01*
X-76086Y133879D01*
X-76419D01*
X-74303Y132713D02*
Y130380D01*
Y132046D02*
X-73803Y132546D01*
X-73470Y132713D01*
X-72970D01*
X-72637Y132546D01*
X-72470Y132046D01*
Y130380D01*
Y132046D02*
X-71970Y132546D01*
X-71637Y132713D01*
X-71137D01*
X-70804Y132546D01*
X-70637Y132046D01*
Y130380D01*
X-69537Y132713D02*
Y130380D01*
Y132046D02*
X-69037Y132546D01*
X-68704Y132713D01*
X-68204D01*
X-67871Y132546D01*
X-67704Y132046D01*
Y130380D01*
Y132046D02*
X-67204Y132546D01*
X-66871Y132713D01*
X-66371D01*
X-66038Y132546D01*
X-65872Y132046D01*
Y130380D01*
X-64772Y134546D02*
X-64438Y134212D01*
X-64105Y133712D01*
X-63772Y133046D01*
X-63605Y132213D01*
Y131546D01*
X-63772Y130713D01*
X-64105Y130047D01*
X-64438Y129547D01*
X-64772Y129213D01*
X-64438Y134212D02*
X-64105Y133546D01*
X-63939Y133046D01*
X-63772Y132213D01*
Y131546D01*
X-63939Y130713D01*
X-64105Y130213D01*
X-64438Y129547D01*
X-141423Y124296D02*
Y124463D01*
X-141257Y124796D01*
X-141090Y124962D01*
X-140757Y125129D01*
X-140090D01*
X-139757Y124962D01*
X-139590Y124796D01*
X-139424Y124463D01*
Y124129D01*
X-139590Y123796D01*
X-139924Y123296D01*
X-141590Y121630D01*
X-139257D01*
X-138141Y125129D02*
X-136308D01*
X-137308Y123796D01*
X-136808D01*
X-136474Y123629D01*
X-136308Y123463D01*
X-136141Y122963D01*
Y122630D01*
X-136308Y122130D01*
X-136641Y121797D01*
X-137141Y121630D01*
X-137641D01*
X-138141Y121797D01*
X-138307Y121963D01*
X-138474Y122296D01*
X-133358Y125129D02*
X-135025D01*
X-135191Y123629D01*
X-135025Y123796D01*
X-134525Y123963D01*
X-134025D01*
X-133525Y123796D01*
X-133192Y123463D01*
X-133025Y122963D01*
Y122630D01*
X-133192Y122130D01*
X-133525Y121797D01*
X-134025Y121630D01*
X-134525D01*
X-135025Y121797D01*
X-135191Y121963D01*
X-135358Y122296D01*
X-128326Y125129D02*
Y121630D01*
X-129492Y125129D02*
X-127160D01*
X-125910Y123963D02*
X-126243Y123796D01*
X-126576Y123463D01*
X-126743Y122963D01*
Y122630D01*
X-126576Y122130D01*
X-126243Y121797D01*
X-125910Y121630D01*
X-125410D01*
X-125077Y121797D01*
X-124744Y122130D01*
X-124577Y122630D01*
Y122963D01*
X-124744Y123463D01*
X-125077Y123796D01*
X-125410Y123963D01*
X-125910D01*
X-123310Y125129D02*
Y122296D01*
X-123144Y121797D01*
X-122811Y121630D01*
X-122477D01*
X-123810Y123963D02*
X-122644D01*
X-119978D02*
Y121630D01*
Y123463D02*
X-120311Y123796D01*
X-120644Y123963D01*
X-121144D01*
X-121478Y123796D01*
X-121811Y123463D01*
X-121977Y122963D01*
Y122630D01*
X-121811Y122130D01*
X-121478Y121797D01*
X-121144Y121630D01*
X-120644D01*
X-120311Y121797D01*
X-119978Y122130D01*
X-119045Y125129D02*
Y121630D01*
X-141423Y176796D02*
Y176963D01*
X-141257Y177296D01*
X-141090Y177462D01*
X-140757Y177629D01*
X-140090D01*
X-139757Y177462D01*
X-139590Y177296D01*
X-139424Y176963D01*
Y176629D01*
X-139590Y176296D01*
X-139924Y175796D01*
X-141590Y174130D01*
X-139257D01*
X-138474Y176963D02*
X-138141Y177129D01*
X-137641Y177629D01*
Y174130D01*
X-133908Y177129D02*
X-134075Y177462D01*
X-134575Y177629D01*
X-134908D01*
X-135408Y177462D01*
X-135741Y176963D01*
X-135908Y176129D01*
Y175296D01*
X-135741Y174630D01*
X-135408Y174296D01*
X-134908Y174130D01*
X-134741D01*
X-134241Y174296D01*
X-133908Y174630D01*
X-133742Y175130D01*
Y175296D01*
X-133908Y175796D01*
X-134241Y176129D01*
X-134741Y176296D01*
X-134908D01*
X-135408Y176129D01*
X-135741Y175796D01*
X-135908Y175296D01*
X-139424Y167713D02*
X-139590Y167213D01*
X-139924Y166879D01*
X-140424Y166713D01*
X-140590D01*
X-141090Y166879D01*
X-141423Y167213D01*
X-141590Y167713D01*
Y167879D01*
X-141423Y168379D01*
X-141090Y168712D01*
X-140590Y168879D01*
X-140424D01*
X-139924Y168712D01*
X-139590Y168379D01*
X-139424Y167713D01*
Y166879D01*
X-139590Y166046D01*
X-139924Y165547D01*
X-140424Y165380D01*
X-140757D01*
X-141257Y165547D01*
X-141423Y165880D01*
Y159296D02*
Y159463D01*
X-141257Y159796D01*
X-141090Y159962D01*
X-140757Y160129D01*
X-140090D01*
X-139757Y159962D01*
X-139590Y159796D01*
X-139424Y159463D01*
Y159129D01*
X-139590Y158796D01*
X-139924Y158296D01*
X-141590Y156630D01*
X-139257D01*
X-141423Y150546D02*
Y150713D01*
X-141257Y151046D01*
X-141090Y151213D01*
X-140757Y151379D01*
X-140090D01*
X-139757Y151213D01*
X-139590Y151046D01*
X-139424Y150713D01*
Y150379D01*
X-139590Y150046D01*
X-139924Y149546D01*
X-141590Y147880D01*
X-139257D01*
X-141423Y141796D02*
Y141963D01*
X-141257Y142296D01*
X-141090Y142463D01*
X-140757Y142629D01*
X-140090D01*
X-139757Y142463D01*
X-139590Y142296D01*
X-139424Y141963D01*
Y141629D01*
X-139590Y141296D01*
X-139924Y140796D01*
X-141590Y139130D01*
X-139257D01*
X-139924Y133879D02*
X-141590Y131546D01*
X-139091D01*
X-139924Y133879D02*
Y130380D01*
X-91630Y109673D02*
X-88631D01*
X-91630Y108673D02*
X-88631D01*
X-84848Y111173D02*
Y107674D01*
Y111173D02*
X-83349D01*
X-82849Y111006D01*
X-82682Y110839D01*
X-82516Y110506D01*
Y110173D01*
X-82682Y109840D01*
X-82849Y109673D01*
X-83349Y109506D01*
X-84848D01*
X-83682D02*
X-82516Y107674D01*
X-80899Y110006D02*
X-81233Y109840D01*
X-81566Y109506D01*
X-81732Y109007D01*
Y108673D01*
X-81566Y108173D01*
X-81233Y107840D01*
X-80899Y107674D01*
X-80400D01*
X-80066Y107840D01*
X-79733Y108173D01*
X-79566Y108673D01*
Y109007D01*
X-79733Y109506D01*
X-80066Y109840D01*
X-80400Y110006D01*
X-80899D01*
X-78800D02*
Y108340D01*
X-78633Y107840D01*
X-78300Y107674D01*
X-77800D01*
X-77467Y107840D01*
X-76967Y108340D01*
Y110006D02*
Y107674D01*
X-75551Y111173D02*
Y108340D01*
X-75384Y107840D01*
X-75051Y107674D01*
X-74717D01*
X-76050Y110006D02*
X-74884D01*
X-74217Y109007D02*
X-72218D01*
Y109340D01*
X-72385Y109673D01*
X-72551Y109840D01*
X-72884Y110006D01*
X-73384D01*
X-73718Y109840D01*
X-74051Y109506D01*
X-74217Y109007D01*
Y108673D01*
X-74051Y108173D01*
X-73718Y107840D01*
X-73384Y107674D01*
X-72884D01*
X-72551Y107840D01*
X-72218Y108173D01*
X-69468Y111173D02*
Y107674D01*
Y109506D02*
X-69802Y109840D01*
X-70135Y110006D01*
X-70635D01*
X-70968Y109840D01*
X-71301Y109506D01*
X-71468Y109007D01*
Y108673D01*
X-71301Y108173D01*
X-70968Y107840D01*
X-70635Y107674D01*
X-70135D01*
X-69802Y107840D01*
X-69468Y108173D01*
X-65786Y109340D02*
X-64286D01*
X-63786Y109506D01*
X-63620Y109673D01*
X-63453Y110006D01*
Y110506D01*
X-63620Y110839D01*
X-63786Y111006D01*
X-64286Y111173D01*
X-65786D01*
Y107674D01*
X-60670Y110006D02*
Y107674D01*
Y109506D02*
X-61004Y109840D01*
X-61337Y110006D01*
X-61837D01*
X-62170Y109840D01*
X-62503Y109506D01*
X-62670Y109007D01*
Y108673D01*
X-62503Y108173D01*
X-62170Y107840D01*
X-61837Y107674D01*
X-61337D01*
X-61004Y107840D01*
X-60670Y108173D01*
X-59237Y111173D02*
Y108340D01*
X-59071Y107840D01*
X-58737Y107674D01*
X-58404D01*
X-59737Y110006D02*
X-58571D01*
X-57904Y111173D02*
Y107674D01*
Y109340D02*
X-57404Y109840D01*
X-57071Y110006D01*
X-56571D01*
X-56238Y109840D01*
X-56071Y109340D01*
Y107674D01*
X-52406Y111173D02*
Y107674D01*
X-50406D01*
X-50023Y109007D02*
X-48023D01*
Y109340D01*
X-48190Y109673D01*
X-48356Y109840D01*
X-48690Y110006D01*
X-49189D01*
X-49523Y109840D01*
X-49856Y109506D01*
X-50023Y109007D01*
Y108673D01*
X-49856Y108173D01*
X-49523Y107840D01*
X-49189Y107674D01*
X-48690D01*
X-48356Y107840D01*
X-48023Y108173D01*
X-47273Y110006D02*
Y107674D01*
Y109340D02*
X-46773Y109840D01*
X-46440Y110006D01*
X-45940D01*
X-45607Y109840D01*
X-45440Y109340D01*
Y107674D01*
X-42524Y110006D02*
Y107340D01*
X-42691Y106840D01*
X-42858Y106674D01*
X-43191Y106507D01*
X-43691D01*
X-44024Y106674D01*
X-42524Y109506D02*
X-42858Y109840D01*
X-43191Y110006D01*
X-43691D01*
X-44024Y109840D01*
X-44357Y109506D01*
X-44524Y109007D01*
Y108673D01*
X-44357Y108173D01*
X-44024Y107840D01*
X-43691Y107674D01*
X-43191D01*
X-42858Y107840D01*
X-42524Y108173D01*
X-41091Y111173D02*
Y108340D01*
X-40925Y107840D01*
X-40591Y107674D01*
X-40258D01*
X-41591Y110006D02*
X-40425D01*
X-39758Y111173D02*
Y107674D01*
Y109340D02*
X-39258Y109840D01*
X-38925Y110006D01*
X-38425D01*
X-38092Y109840D01*
X-37925Y109340D01*
Y107674D01*
X-32760Y110673D02*
Y107674D01*
X-34259Y109173D02*
X-31260D01*
X-26311Y111173D02*
Y107674D01*
X-27477Y111173D02*
X-25145D01*
X-23895Y110006D02*
X-24228Y109840D01*
X-24562Y109506D01*
X-24728Y109007D01*
Y108673D01*
X-24562Y108173D01*
X-24228Y107840D01*
X-23895Y107674D01*
X-23395D01*
X-23062Y107840D01*
X-22729Y108173D01*
X-22562Y108673D01*
Y109007D01*
X-22729Y109506D01*
X-23062Y109840D01*
X-23395Y110006D01*
X-23895D01*
X-20962D02*
X-21295Y109840D01*
X-21629Y109506D01*
X-21795Y109007D01*
Y108673D01*
X-21629Y108173D01*
X-21295Y107840D01*
X-20962Y107674D01*
X-20462D01*
X-20129Y107840D01*
X-19796Y108173D01*
X-19629Y108673D01*
Y109007D01*
X-19796Y109506D01*
X-20129Y109840D01*
X-20462Y110006D01*
X-20962D01*
X-18863Y111173D02*
Y107674D01*
X-13047Y110673D02*
X-13381Y111006D01*
X-13880Y111173D01*
X-14547D01*
X-15047Y111006D01*
X-15380Y110673D01*
Y110340D01*
X-15213Y110006D01*
X-15047Y109840D01*
X-14714Y109673D01*
X-13714Y109340D01*
X-13381Y109173D01*
X-13214Y109007D01*
X-13047Y108673D01*
Y108173D01*
X-13381Y107840D01*
X-13880Y107674D01*
X-14547D01*
X-15047Y107840D01*
X-15380Y108173D01*
X-11931Y111173D02*
X-11764Y111006D01*
X-11598Y111173D01*
X-11764Y111339D01*
X-11931Y111173D01*
X-11764Y110006D02*
Y107674D01*
X-9148Y110006D02*
X-10981Y107674D01*
Y110006D02*
X-9148D01*
X-10981Y107674D02*
X-9148D01*
X-8415Y109007D02*
X-6415D01*
Y109340D01*
X-6582Y109673D01*
X-6749Y109840D01*
X-7082Y110006D01*
X-7582D01*
X-7915Y109840D01*
X-8248Y109506D01*
X-8415Y109007D01*
Y108673D01*
X-8248Y108173D01*
X-7915Y107840D01*
X-7582Y107674D01*
X-7082D01*
X-6749Y107840D01*
X-6415Y108173D01*
X-2916Y109673D02*
X83D01*
X-2916Y108673D02*
X83D01*
X6199Y110673D02*
X5865Y111006D01*
X5365Y111173D01*
X4699D01*
X4199Y111006D01*
X3866Y110673D01*
Y110340D01*
X4032Y110006D01*
X4199Y109840D01*
X4532Y109673D01*
X5532Y109340D01*
X5865Y109173D01*
X6032Y109007D01*
X6199Y108673D01*
Y108173D01*
X5865Y107840D01*
X5365Y107674D01*
X4699D01*
X4199Y107840D01*
X3866Y108173D01*
X6982Y111173D02*
Y107674D01*
X8548Y110006D02*
X8215Y109840D01*
X7882Y109506D01*
X7715Y109007D01*
Y108673D01*
X7882Y108173D01*
X8215Y107840D01*
X8548Y107674D01*
X9048D01*
X9381Y107840D01*
X9714Y108173D01*
X9881Y108673D01*
Y109007D01*
X9714Y109506D01*
X9381Y109840D01*
X9048Y110006D01*
X8548D01*
X11147Y111173D02*
Y108340D01*
X11314Y107840D01*
X11647Y107674D01*
X11981D01*
X10648Y110006D02*
X11814D01*
X15230Y111173D02*
Y107674D01*
X15963Y109007D02*
X17963D01*
Y109340D01*
X17796Y109673D01*
X17629Y109840D01*
X17296Y110006D01*
X16796D01*
X16463Y109840D01*
X16130Y109506D01*
X15963Y109007D01*
Y108673D01*
X16130Y108173D01*
X16463Y107840D01*
X16796Y107674D01*
X17296D01*
X17629Y107840D01*
X17963Y108173D01*
X18713Y110006D02*
Y107674D01*
Y109340D02*
X19212Y109840D01*
X19546Y110006D01*
X20046D01*
X20379Y109840D01*
X20546Y109340D01*
Y107674D01*
X23461Y110006D02*
Y107340D01*
X23295Y106840D01*
X23128Y106674D01*
X22795Y106507D01*
X22295D01*
X21962Y106674D01*
X23461Y109506D02*
X23128Y109840D01*
X22795Y110006D01*
X22295D01*
X21962Y109840D01*
X21629Y109506D01*
X21462Y109007D01*
Y108673D01*
X21629Y108173D01*
X21962Y107840D01*
X22295Y107674D01*
X22795D01*
X23128Y107840D01*
X23461Y108173D01*
X24895Y111173D02*
Y108340D01*
X25061Y107840D01*
X25394Y107674D01*
X25728D01*
X24395Y110006D02*
X25561D01*
X26228Y111173D02*
Y107674D01*
Y109340D02*
X26728Y109840D01*
X27061Y110006D01*
X27561D01*
X27894Y109840D01*
X28061Y109340D01*
Y107674D01*
X33726Y110006D02*
Y107674D01*
Y109506D02*
X33393Y109840D01*
X33059Y110006D01*
X32560D01*
X32226Y109840D01*
X31893Y109506D01*
X31726Y109007D01*
Y108673D01*
X31893Y108173D01*
X32226Y107840D01*
X32560Y107674D01*
X33059D01*
X33393Y107840D01*
X33726Y108173D01*
X36492Y109506D02*
X36325Y109840D01*
X35826Y110006D01*
X35326D01*
X34826Y109840D01*
X34659Y109506D01*
X34826Y109173D01*
X35159Y109007D01*
X35992Y108840D01*
X36325Y108673D01*
X36492Y108340D01*
Y108173D01*
X36325Y107840D01*
X35826Y107674D01*
X35326D01*
X34826Y107840D01*
X34659Y108173D01*
X41974Y111173D02*
Y107674D01*
Y109506D02*
X41641Y109840D01*
X41308Y110006D01*
X40808D01*
X40475Y109840D01*
X40141Y109506D01*
X39975Y109007D01*
Y108673D01*
X40141Y108173D01*
X40475Y107840D01*
X40808Y107674D01*
X41308D01*
X41641Y107840D01*
X41974Y108173D01*
X42907Y109007D02*
X44907D01*
Y109340D01*
X44740Y109673D01*
X44574Y109840D01*
X44240Y110006D01*
X43740D01*
X43407Y109840D01*
X43074Y109506D01*
X42907Y109007D01*
Y108673D01*
X43074Y108173D01*
X43407Y107840D01*
X43740Y107674D01*
X44240D01*
X44574Y107840D01*
X44907Y108173D01*
X46990Y111173D02*
X46657D01*
X46323Y111006D01*
X46157Y110506D01*
Y107674D01*
X45657Y110006D02*
X46823D01*
X47823Y111173D02*
X47990Y111006D01*
X48156Y111173D01*
X47990Y111339D01*
X47823Y111173D01*
X47990Y110006D02*
Y107674D01*
X48773Y110006D02*
Y107674D01*
Y109340D02*
X49273Y109840D01*
X49606Y110006D01*
X50106D01*
X50439Y109840D01*
X50606Y109340D01*
Y107674D01*
X51522Y109007D02*
X53522D01*
Y109340D01*
X53355Y109673D01*
X53189Y109840D01*
X52855Y110006D01*
X52355D01*
X52022Y109840D01*
X51689Y109506D01*
X51522Y109007D01*
Y108673D01*
X51689Y108173D01*
X52022Y107840D01*
X52355Y107674D01*
X52855D01*
X53189Y107840D01*
X53522Y108173D01*
X56271Y111173D02*
Y107674D01*
Y109506D02*
X55938Y109840D01*
X55605Y110006D01*
X55105D01*
X54772Y109840D01*
X54438Y109506D01*
X54272Y109007D01*
Y108673D01*
X54438Y108173D01*
X54772Y107840D01*
X55105Y107674D01*
X55605D01*
X55938Y107840D01*
X56271Y108173D01*
X60287Y111173D02*
X60454Y111006D01*
X60620Y111173D01*
X60454Y111339D01*
X60287Y111173D01*
X60454Y110006D02*
Y107674D01*
X61237Y110006D02*
Y107674D01*
Y109340D02*
X61737Y109840D01*
X62070Y110006D01*
X62570D01*
X62903Y109840D01*
X63070Y109340D01*
Y107674D01*
X67235Y111173D02*
Y108340D01*
X67402Y107840D01*
X67735Y107674D01*
X68069D01*
X66736Y110006D02*
X67902D01*
X68568Y111173D02*
Y107674D01*
Y109340D02*
X69068Y109840D01*
X69402Y110006D01*
X69902D01*
X70235Y109840D01*
X70402Y109340D01*
Y107674D01*
X71318Y109007D02*
X73317D01*
Y109340D01*
X73151Y109673D01*
X72984Y109840D01*
X72651Y110006D01*
X72151D01*
X71818Y109840D01*
X71485Y109506D01*
X71318Y109007D01*
Y108673D01*
X71485Y108173D01*
X71818Y107840D01*
X72151Y107674D01*
X72651D01*
X72984Y107840D01*
X73317Y108173D01*
X76817Y109340D02*
X78316D01*
X78816Y109506D01*
X78983Y109673D01*
X79150Y110006D01*
Y110506D01*
X78983Y110839D01*
X78816Y111006D01*
X78316Y111173D01*
X76817D01*
Y107674D01*
X82432Y110340D02*
X82266Y110673D01*
X81932Y111006D01*
X81599Y111173D01*
X80933D01*
X80599Y111006D01*
X80266Y110673D01*
X80099Y110340D01*
X79933Y109840D01*
Y109007D01*
X80099Y108507D01*
X80266Y108173D01*
X80599Y107840D01*
X80933Y107674D01*
X81599D01*
X81932Y107840D01*
X82266Y108173D01*
X82432Y108507D01*
X83415Y111173D02*
Y107674D01*
Y111173D02*
X84915D01*
X85415Y111006D01*
X85582Y110839D01*
X85748Y110506D01*
Y110173D01*
X85582Y109840D01*
X85415Y109673D01*
X84915Y109506D01*
X83415D02*
X84915D01*
X85415Y109340D01*
X85582Y109173D01*
X85748Y108840D01*
Y108340D01*
X85582Y108007D01*
X85415Y107840D01*
X84915Y107674D01*
X83415D01*
X89281Y111173D02*
Y107674D01*
X92014Y110006D02*
Y107674D01*
Y109506D02*
X91680Y109840D01*
X91347Y110006D01*
X90847D01*
X90514Y109840D01*
X90181Y109506D01*
X90014Y109007D01*
Y108673D01*
X90181Y108173D01*
X90514Y107840D01*
X90847Y107674D01*
X91347D01*
X91680Y107840D01*
X92014Y108173D01*
X93113Y110006D02*
X94113Y107674D01*
X95113Y110006D02*
X94113Y107674D01*
X93780Y107007D01*
X93446Y106674D01*
X93113Y106507D01*
X92947D01*
X96529Y110006D02*
X96196Y109840D01*
X95863Y109506D01*
X95696Y109007D01*
Y108673D01*
X95863Y108173D01*
X96196Y107840D01*
X96529Y107674D01*
X97029D01*
X97362Y107840D01*
X97696Y108173D01*
X97862Y108673D01*
Y109007D01*
X97696Y109506D01*
X97362Y109840D01*
X97029Y110006D01*
X96529D01*
X98629D02*
Y108340D01*
X98795Y107840D01*
X99129Y107674D01*
X99629D01*
X99962Y107840D01*
X100462Y108340D01*
Y110006D02*
Y107674D01*
X101878Y111173D02*
Y108340D01*
X102045Y107840D01*
X102378Y107674D01*
X102711D01*
X101378Y110006D02*
X102545D01*
X-74401Y115339D02*
X-71401D01*
X-74401Y114339D02*
X-71401D01*
X-65119Y116005D02*
X-65286Y116339D01*
X-65619Y116672D01*
X-65953Y116838D01*
X-66619D01*
X-66952Y116672D01*
X-67286Y116339D01*
X-67452Y116005D01*
X-67619Y115505D01*
Y114672D01*
X-67452Y114172D01*
X-67286Y113839D01*
X-66952Y113506D01*
X-66619Y113339D01*
X-65953D01*
X-65619Y113506D01*
X-65286Y113839D01*
X-65119Y114172D01*
X-62137Y115672D02*
Y113339D01*
Y115172D02*
X-62470Y115505D01*
X-62803Y115672D01*
X-63303D01*
X-63636Y115505D01*
X-63970Y115172D01*
X-64136Y114672D01*
Y114339D01*
X-63970Y113839D01*
X-63636Y113506D01*
X-63303Y113339D01*
X-62803D01*
X-62470Y113506D01*
X-62137Y113839D01*
X-61204Y116838D02*
Y113339D01*
X-58471Y115172D02*
X-58804Y115505D01*
X-59137Y115672D01*
X-59637D01*
X-59971Y115505D01*
X-60304Y115172D01*
X-60470Y114672D01*
Y114339D01*
X-60304Y113839D01*
X-59971Y113506D01*
X-59637Y113339D01*
X-59137D01*
X-58804Y113506D01*
X-58471Y113839D01*
X-57721Y115672D02*
Y114006D01*
X-57554Y113506D01*
X-57221Y113339D01*
X-56721D01*
X-56388Y113506D01*
X-55888Y114006D01*
Y115672D02*
Y113339D01*
X-54972Y116838D02*
Y113339D01*
X-52239Y115672D02*
Y113339D01*
Y115172D02*
X-52572Y115505D01*
X-52905Y115672D01*
X-53405D01*
X-53738Y115505D01*
X-54072Y115172D01*
X-54238Y114672D01*
Y114339D01*
X-54072Y113839D01*
X-53738Y113506D01*
X-53405Y113339D01*
X-52905D01*
X-52572Y113506D01*
X-52239Y113839D01*
X-50806Y116838D02*
Y114006D01*
X-50639Y113506D01*
X-50306Y113339D01*
X-49973D01*
X-51306Y115672D02*
X-50139D01*
X-49473Y114672D02*
X-47473D01*
Y115006D01*
X-47640Y115339D01*
X-47807Y115505D01*
X-48140Y115672D01*
X-48640D01*
X-48973Y115505D01*
X-49306Y115172D01*
X-49473Y114672D01*
Y114339D01*
X-49306Y113839D01*
X-48973Y113506D01*
X-48640Y113339D01*
X-48140D01*
X-47807Y113506D01*
X-47473Y113839D01*
X-44724Y116838D02*
Y113339D01*
Y115172D02*
X-45057Y115505D01*
X-45390Y115672D01*
X-45890D01*
X-46224Y115505D01*
X-46557Y115172D01*
X-46723Y114672D01*
Y114339D01*
X-46557Y113839D01*
X-46224Y113506D01*
X-45890Y113339D01*
X-45390D01*
X-45057Y113506D01*
X-44724Y113839D01*
X-39708Y116838D02*
X-40042D01*
X-40375Y116672D01*
X-40541Y116172D01*
Y113339D01*
X-41041Y115672D02*
X-39875D01*
X-39208D02*
Y113339D01*
Y114672D02*
X-39042Y115172D01*
X-38708Y115505D01*
X-38375Y115672D01*
X-37875D01*
X-36726D02*
X-37059Y115505D01*
X-37392Y115172D01*
X-37559Y114672D01*
Y114339D01*
X-37392Y113839D01*
X-37059Y113506D01*
X-36726Y113339D01*
X-36226D01*
X-35892Y113506D01*
X-35559Y113839D01*
X-35392Y114339D01*
Y114672D01*
X-35559Y115172D01*
X-35892Y115505D01*
X-36226Y115672D01*
X-36726D01*
X-34626D02*
Y113339D01*
Y115006D02*
X-34126Y115505D01*
X-33793Y115672D01*
X-33293D01*
X-32960Y115505D01*
X-32793Y115006D01*
Y113339D01*
Y115006D02*
X-32293Y115505D01*
X-31960Y115672D01*
X-31460D01*
X-31127Y115505D01*
X-30960Y115006D01*
Y113339D01*
X-26611Y116838D02*
Y114006D01*
X-26444Y113506D01*
X-26111Y113339D01*
X-25778D01*
X-27111Y115672D02*
X-25945D01*
X-24445D02*
X-24778Y115505D01*
X-25111Y115172D01*
X-25278Y114672D01*
Y114339D01*
X-25111Y113839D01*
X-24778Y113506D01*
X-24445Y113339D01*
X-23945D01*
X-23612Y113506D01*
X-23278Y113839D01*
X-23112Y114339D01*
Y114672D01*
X-23278Y115172D01*
X-23612Y115505D01*
X-23945Y115672D01*
X-24445D01*
X-21512D02*
X-21845Y115505D01*
X-22179Y115172D01*
X-22345Y114672D01*
Y114339D01*
X-22179Y113839D01*
X-21845Y113506D01*
X-21512Y113339D01*
X-21012D01*
X-20679Y113506D01*
X-20346Y113839D01*
X-20179Y114339D01*
Y114672D01*
X-20346Y115172D01*
X-20679Y115505D01*
X-21012Y115672D01*
X-21512D01*
X-19413Y116838D02*
Y113339D01*
X-14097Y115172D02*
X-14264Y115505D01*
X-14764Y115672D01*
X-15263D01*
X-15763Y115505D01*
X-15930Y115172D01*
X-15763Y114839D01*
X-15430Y114672D01*
X-14597Y114506D01*
X-14264Y114339D01*
X-14097Y114006D01*
Y113839D01*
X-14264Y113506D01*
X-14764Y113339D01*
X-15263D01*
X-15763Y113506D01*
X-15930Y113839D01*
X-12864Y116838D02*
Y114006D01*
X-12697Y113506D01*
X-12364Y113339D01*
X-12031D01*
X-13364Y115672D02*
X-12197D01*
X-9531D02*
Y113339D01*
Y115172D02*
X-9865Y115505D01*
X-10198Y115672D01*
X-10698D01*
X-11031Y115505D01*
X-11364Y115172D01*
X-11531Y114672D01*
Y114339D01*
X-11364Y113839D01*
X-11031Y113506D01*
X-10698Y113339D01*
X-10198D01*
X-9865Y113506D01*
X-9531Y113839D01*
X-8598Y115672D02*
Y113339D01*
Y114672D02*
X-8432Y115172D01*
X-8098Y115505D01*
X-7765Y115672D01*
X-7265D01*
X-6449Y116838D02*
Y114006D01*
X-6282Y113506D01*
X-5949Y113339D01*
X-5615D01*
X-6949Y115672D02*
X-5782D01*
X-367Y115172D02*
X-700Y115505D01*
X-1033Y115672D01*
X-1533D01*
X-1866Y115505D01*
X-2200Y115172D01*
X-2366Y114672D01*
Y114339D01*
X-2200Y113839D01*
X-1866Y113506D01*
X-1533Y113339D01*
X-1033D01*
X-700Y113506D01*
X-367Y113839D01*
X383Y114672D02*
X2383D01*
Y115006D01*
X2216Y115339D01*
X2049Y115505D01*
X1716Y115672D01*
X1216D01*
X883Y115505D01*
X550Y115172D01*
X383Y114672D01*
Y114339D01*
X550Y113839D01*
X883Y113506D01*
X1216Y113339D01*
X1716D01*
X2049Y113506D01*
X2383Y113839D01*
X3133Y115672D02*
Y113339D01*
Y115006D02*
X3633Y115505D01*
X3966Y115672D01*
X4466D01*
X4799Y115505D01*
X4966Y115006D01*
Y113339D01*
X6382Y116838D02*
Y114006D01*
X6549Y113506D01*
X6882Y113339D01*
X7215D01*
X5882Y115672D02*
X7048D01*
X7715D02*
Y113339D01*
Y114672D02*
X7882Y115172D01*
X8215Y115505D01*
X8548Y115672D01*
X9048D01*
X9365Y114672D02*
X11364D01*
Y115006D01*
X11197Y115339D01*
X11031Y115505D01*
X10698Y115672D01*
X10198D01*
X9865Y115505D01*
X9531Y115172D01*
X9365Y114672D01*
Y114339D01*
X9531Y113839D01*
X9865Y113506D01*
X10198Y113339D01*
X10698D01*
X11031Y113506D01*
X11364Y113839D01*
X14863Y115672D02*
Y112173D01*
Y115172D02*
X15197Y115505D01*
X15530Y115672D01*
X16030D01*
X16363Y115505D01*
X16696Y115172D01*
X16863Y114672D01*
Y114339D01*
X16696Y113839D01*
X16363Y113506D01*
X16030Y113339D01*
X15530D01*
X15197Y113506D01*
X14863Y113839D01*
X18446Y115672D02*
X18113Y115505D01*
X17779Y115172D01*
X17613Y114672D01*
Y114339D01*
X17779Y113839D01*
X18113Y113506D01*
X18446Y113339D01*
X18946D01*
X19279Y113506D01*
X19612Y113839D01*
X19779Y114339D01*
Y114672D01*
X19612Y115172D01*
X19279Y115505D01*
X18946Y115672D01*
X18446D01*
X22378Y115172D02*
X22212Y115505D01*
X21712Y115672D01*
X21212D01*
X20712Y115505D01*
X20546Y115172D01*
X20712Y114839D01*
X21045Y114672D01*
X21879Y114506D01*
X22212Y114339D01*
X22378Y114006D01*
Y113839D01*
X22212Y113506D01*
X21712Y113339D01*
X21212D01*
X20712Y113506D01*
X20546Y113839D01*
X23445Y116838D02*
X23611Y116672D01*
X23778Y116838D01*
X23611Y117005D01*
X23445Y116838D01*
X23611Y115672D02*
Y113339D01*
X24895Y116838D02*
Y114006D01*
X25061Y113506D01*
X25394Y113339D01*
X25728D01*
X24395Y115672D02*
X25561D01*
X26561Y116838D02*
X26728Y116672D01*
X26894Y116838D01*
X26728Y117005D01*
X26561Y116838D01*
X26728Y115672D02*
Y113339D01*
X28344Y115672D02*
X28011Y115505D01*
X27677Y115172D01*
X27511Y114672D01*
Y114339D01*
X27677Y113839D01*
X28011Y113506D01*
X28344Y113339D01*
X28844D01*
X29177Y113506D01*
X29510Y113839D01*
X29677Y114339D01*
Y114672D01*
X29510Y115172D01*
X29177Y115505D01*
X28844Y115672D01*
X28344D01*
X30443D02*
Y113339D01*
Y115006D02*
X30943Y115505D01*
X31277Y115672D01*
X31776D01*
X32110Y115505D01*
X32276Y115006D01*
Y113339D01*
X36442Y116838D02*
Y114006D01*
X36609Y113506D01*
X36942Y113339D01*
X37275D01*
X35942Y115672D02*
X37109D01*
X38608D02*
X38275Y115505D01*
X37942Y115172D01*
X37775Y114672D01*
Y114339D01*
X37942Y113839D01*
X38275Y113506D01*
X38608Y113339D01*
X39108D01*
X39441Y113506D01*
X39775Y113839D01*
X39941Y114339D01*
Y114672D01*
X39775Y115172D01*
X39441Y115505D01*
X39108Y115672D01*
X38608D01*
X43957Y116838D02*
Y114006D01*
X44124Y113506D01*
X44457Y113339D01*
X44790D01*
X43457Y115672D02*
X44624D01*
X46123D02*
X45790Y115505D01*
X45457Y115172D01*
X45290Y114672D01*
Y114339D01*
X45457Y113839D01*
X45790Y113506D01*
X46123Y113339D01*
X46623D01*
X46957Y113506D01*
X47290Y113839D01*
X47456Y114339D01*
Y114672D01*
X47290Y115172D01*
X46957Y115505D01*
X46623Y115672D01*
X46123D01*
X49056D02*
X48723Y115505D01*
X48390Y115172D01*
X48223Y114672D01*
Y114339D01*
X48390Y113839D01*
X48723Y113506D01*
X49056Y113339D01*
X49556D01*
X49889Y113506D01*
X50222Y113839D01*
X50389Y114339D01*
Y114672D01*
X50222Y115172D01*
X49889Y115505D01*
X49556Y115672D01*
X49056D01*
X51156Y116838D02*
Y113339D01*
X54638Y114672D02*
X56638D01*
Y115006D01*
X56471Y115339D01*
X56305Y115505D01*
X55971Y115672D01*
X55471D01*
X55138Y115505D01*
X54805Y115172D01*
X54638Y114672D01*
Y114339D01*
X54805Y113839D01*
X55138Y113506D01*
X55471Y113339D01*
X55971D01*
X56305Y113506D01*
X56638Y113839D01*
X57388Y115672D02*
Y113339D01*
Y115006D02*
X57888Y115505D01*
X58221Y115672D01*
X58721D01*
X59054Y115505D01*
X59220Y115006D01*
Y113339D01*
X62137Y116838D02*
Y113339D01*
Y115172D02*
X61803Y115505D01*
X61470Y115672D01*
X60970D01*
X60637Y115505D01*
X60304Y115172D01*
X60137Y114672D01*
Y114339D01*
X60304Y113839D01*
X60637Y113506D01*
X60970Y113339D01*
X61470D01*
X61803Y113506D01*
X62137Y113839D01*
X67819Y115172D02*
X67485Y115505D01*
X67152Y115672D01*
X66652D01*
X66319Y115505D01*
X65986Y115172D01*
X65819Y114672D01*
Y114339D01*
X65986Y113839D01*
X66319Y113506D01*
X66652Y113339D01*
X67152D01*
X67485Y113506D01*
X67819Y113839D01*
X68568Y114672D02*
X70568D01*
Y115006D01*
X70402Y115339D01*
X70235Y115505D01*
X69902Y115672D01*
X69402D01*
X69068Y115505D01*
X68735Y115172D01*
X68568Y114672D01*
Y114339D01*
X68735Y113839D01*
X69068Y113506D01*
X69402Y113339D01*
X69902D01*
X70235Y113506D01*
X70568Y113839D01*
X71318Y115672D02*
Y113339D01*
Y115006D02*
X71818Y115505D01*
X72151Y115672D01*
X72651D01*
X72984Y115505D01*
X73151Y115006D01*
Y113339D01*
X74567Y116838D02*
Y114006D01*
X74734Y113506D01*
X75067Y113339D01*
X75400D01*
X74067Y115672D02*
X75234D01*
X75900D02*
Y113339D01*
Y114672D02*
X76067Y115172D01*
X76400Y115505D01*
X76733Y115672D01*
X77233D01*
X77550Y114672D02*
X79549D01*
Y115006D01*
X79383Y115339D01*
X79216Y115505D01*
X78883Y115672D01*
X78383D01*
X78050Y115505D01*
X77717Y115172D01*
X77550Y114672D01*
Y114339D01*
X77717Y113839D01*
X78050Y113506D01*
X78383Y113339D01*
X78883D01*
X79216Y113506D01*
X79549Y113839D01*
X83049Y115672D02*
Y112173D01*
Y115172D02*
X83382Y115505D01*
X83715Y115672D01*
X84215D01*
X84548Y115505D01*
X84882Y115172D01*
X85048Y114672D01*
Y114339D01*
X84882Y113839D01*
X84548Y113506D01*
X84215Y113339D01*
X83715D01*
X83382Y113506D01*
X83049Y113839D01*
X86631Y115672D02*
X86298Y115505D01*
X85965Y115172D01*
X85798Y114672D01*
Y114339D01*
X85965Y113839D01*
X86298Y113506D01*
X86631Y113339D01*
X87131D01*
X87464Y113506D01*
X87798Y113839D01*
X87964Y114339D01*
Y114672D01*
X87798Y115172D01*
X87464Y115505D01*
X87131Y115672D01*
X86631D01*
X90564Y115172D02*
X90397Y115505D01*
X89897Y115672D01*
X89397D01*
X88898Y115505D01*
X88731Y115172D01*
X88898Y114839D01*
X89231Y114672D01*
X90064Y114506D01*
X90397Y114339D01*
X90564Y114006D01*
Y113839D01*
X90397Y113506D01*
X89897Y113339D01*
X89397D01*
X88898Y113506D01*
X88731Y113839D01*
X91630Y116838D02*
X91797Y116672D01*
X91963Y116838D01*
X91797Y117005D01*
X91630Y116838D01*
X91797Y115672D02*
Y113339D01*
X93080Y116838D02*
Y114006D01*
X93247Y113506D01*
X93580Y113339D01*
X93913D01*
X92580Y115672D02*
X93747D01*
X94746Y116838D02*
X94913Y116672D01*
X95079Y116838D01*
X94913Y117005D01*
X94746Y116838D01*
X94913Y115672D02*
Y113339D01*
X96529Y115672D02*
X96196Y115505D01*
X95863Y115172D01*
X95696Y114672D01*
Y114339D01*
X95863Y113839D01*
X96196Y113506D01*
X96529Y113339D01*
X97029D01*
X97362Y113506D01*
X97696Y113839D01*
X97862Y114339D01*
Y114672D01*
X97696Y115172D01*
X97362Y115505D01*
X97029Y115672D01*
X96529D01*
X98629D02*
Y113339D01*
Y115006D02*
X99129Y115505D01*
X99462Y115672D01*
X99962D01*
X100295Y115505D01*
X100462Y115006D01*
Y113339D01*
X101545Y113672D02*
X101378Y113506D01*
X101545Y113339D01*
X101711Y113506D01*
X101545Y113672D01*
D144*
X141508Y-63801D02*
G03*
X141508Y-63801I-1000J0D01*
G01*
X107492Y-63801D02*
G03*
X107492Y-63801I-1000J0D01*
G01*
X64425Y-45953D02*
X65425Y-45453D01*
X66425Y-45953D01*
X65925Y-44953D02*
X66425Y-45953D01*
X65925Y-44953D02*
X66425Y-43953D01*
X65425Y-44453D02*
X66425Y-43953D01*
X64425D02*
X65425Y-44453D01*
X64425Y-43953D02*
X64925Y-44953D01*
X64425Y-45953D02*
X64925Y-44953D01*
X64425Y-36953D02*
X65425Y-36453D01*
X66425Y-36953D01*
X65925Y-35953D02*
X66425Y-36953D01*
X65925Y-35953D02*
X66425Y-34953D01*
X65425Y-35453D02*
X66425Y-34953D01*
X64425D02*
X65425Y-35453D01*
X64425Y-34953D02*
X64925Y-35953D01*
X64425Y-36953D02*
X64925Y-35953D01*
X55425Y-36953D02*
X56425Y-36453D01*
X57425Y-36953D01*
X56925Y-35953D02*
X57425Y-36953D01*
X56925Y-35953D02*
X57425Y-34953D01*
X56425Y-35453D02*
X57425Y-34953D01*
X55425D02*
X56425Y-35453D01*
X55425Y-34953D02*
X55925Y-35953D01*
X55425Y-36953D02*
X55925Y-35953D01*
X55425Y-45953D02*
X56425Y-45453D01*
X57425Y-45953D01*
X56925Y-44953D02*
X57425Y-45953D01*
X56925Y-44953D02*
X57425Y-43953D01*
X56425Y-44453D02*
X57425Y-43953D01*
X55425D02*
X56425Y-44453D01*
X55425Y-43953D02*
X55925Y-44953D01*
X55425Y-45953D02*
X55925Y-44953D01*
X59925Y-41453D02*
X60925Y-40953D01*
X61925Y-41453D01*
X61425Y-40453D02*
X61925Y-41453D01*
X61425Y-40453D02*
X61925Y-39453D01*
X60925Y-39953D02*
X61925Y-39453D01*
X59925D02*
X60925Y-39953D01*
X59925Y-39453D02*
X60425Y-40453D01*
X59925Y-41453D02*
X60425Y-40453D01*
X59925Y-36953D02*
X60925Y-36453D01*
X61925Y-36953D01*
X61425Y-35953D02*
X61925Y-36953D01*
X61425Y-35953D02*
X61925Y-34953D01*
X60925Y-35453D02*
X61925Y-34953D01*
X59925D02*
X60925Y-35453D01*
X59925Y-34953D02*
X60425Y-35953D01*
X59925Y-36953D02*
X60425Y-35953D01*
X55425Y-41453D02*
X56425Y-40953D01*
X57425Y-41453D01*
X56925Y-40453D02*
X57425Y-41453D01*
X56925Y-40453D02*
X57425Y-39453D01*
X56425Y-39953D02*
X57425Y-39453D01*
X55425D02*
X56425Y-39953D01*
X55425Y-39453D02*
X55925Y-40453D01*
X55425Y-41453D02*
X55925Y-40453D01*
X59925Y-45953D02*
X60925Y-45453D01*
X61925Y-45953D01*
X61425Y-44953D02*
X61925Y-45953D01*
X61425Y-44953D02*
X61925Y-43953D01*
X60925Y-44453D02*
X61925Y-43953D01*
X59925D02*
X60925Y-44453D01*
X59925Y-43953D02*
X60425Y-44953D01*
X59925Y-45953D02*
X60425Y-44953D01*
X64425Y-41453D02*
X65425Y-40953D01*
X66425Y-41453D01*
X65925Y-40453D02*
X66425Y-41453D01*
X65925Y-40453D02*
X66425Y-39453D01*
X65425Y-39953D02*
X66425Y-39453D01*
X64425D02*
X65425Y-39953D01*
X64425Y-39453D02*
X64925Y-40453D01*
X64425Y-41453D02*
X64925Y-40453D01*
X113051Y-39894D02*
X113551D01*
X113051D02*
Y-38894D01*
X113551D01*
Y-38394D01*
X114551D01*
Y-38894D02*
Y-38394D01*
Y-38894D02*
X115051D01*
Y-39894D02*
Y-38894D01*
X114551Y-39894D02*
X115051D01*
X114551Y-40394D02*
Y-39894D01*
X113551Y-40394D02*
X114551D01*
X113551D02*
Y-39894D01*
X131874Y-39894D02*
X132374D01*
X131874D02*
Y-38894D01*
X132374D01*
Y-38394D01*
X133374D01*
Y-38894D02*
Y-38394D01*
Y-38894D02*
X133874D01*
Y-39894D02*
Y-38894D01*
X133374Y-39894D02*
X133874D01*
X133374Y-40394D02*
Y-39894D01*
X132374Y-40394D02*
X133374D01*
X132374D02*
Y-39894D01*
X97980Y-68673D02*
X98480D01*
X97980D02*
Y-67673D01*
X98480D01*
Y-67173D01*
X99480D01*
Y-67673D02*
Y-67173D01*
Y-67673D02*
X99980D01*
Y-68673D02*
Y-67673D01*
X99480Y-68673D02*
X99980D01*
X99480Y-69173D02*
Y-68673D01*
X98480Y-69173D02*
X99480D01*
X98480D02*
Y-68673D01*
X119866Y-52961D02*
X120366D01*
X119866D02*
Y-51961D01*
X120366D01*
Y-51461D01*
X121366D01*
Y-51961D02*
Y-51461D01*
Y-51961D02*
X121866D01*
Y-52961D02*
Y-51961D01*
X121366Y-52961D02*
X121866D01*
X121366Y-53461D02*
Y-52961D01*
X120366Y-53461D02*
X121366D01*
X120366D02*
Y-52961D01*
X125476D02*
X125976D01*
X125476D02*
Y-51961D01*
X125976D01*
Y-51461D01*
X126976D01*
Y-51961D02*
Y-51461D01*
Y-51961D02*
X127476D01*
Y-52961D02*
Y-51961D01*
X126976Y-52961D02*
X127476D01*
X126976Y-53461D02*
Y-52961D01*
X125976Y-53461D02*
X126976D01*
X125976D02*
Y-52961D01*
X58252Y-69004D02*
X58752D01*
X58252D02*
Y-68004D01*
X58752D01*
Y-67504D01*
X59752D01*
Y-68004D02*
Y-67504D01*
Y-68004D02*
X60252D01*
Y-69004D02*
Y-68004D01*
X59752Y-69004D02*
X60252D01*
X59752Y-69504D02*
Y-69004D01*
X58752Y-69504D02*
X59752D01*
X58752D02*
Y-69004D01*
X83153Y-35744D02*
X83653D01*
X83153D02*
Y-34744D01*
X83653D01*
Y-34244D01*
X84654D01*
Y-34744D02*
Y-34244D01*
Y-34744D02*
X85154D01*
Y-35744D02*
Y-34744D01*
X84654Y-35744D02*
X85154D01*
X84654Y-36244D02*
Y-35744D01*
X83653Y-36244D02*
X84654D01*
X83653D02*
Y-35744D01*
X15634Y-19988D02*
X16134D01*
X15634D02*
Y-18988D01*
X16134D01*
Y-18488D01*
X17134D01*
Y-18988D02*
Y-18488D01*
Y-18988D02*
X17634D01*
Y-19988D02*
Y-18988D01*
X17134Y-19988D02*
X17634D01*
X17134Y-20488D02*
Y-19988D01*
X16134Y-20488D02*
X17134D01*
X16134D02*
Y-19988D01*
X12583Y-10638D02*
X13083D01*
X12583D02*
Y-9638D01*
X13083D01*
Y-9138D01*
X14083D01*
Y-9638D02*
Y-9138D01*
Y-9638D02*
X14583D01*
Y-10638D02*
Y-9638D01*
X14083Y-10638D02*
X14583D01*
X14083Y-11138D02*
Y-10638D01*
X13083Y-11138D02*
X14083D01*
X13083D02*
Y-10638D01*
X15043Y-25992D02*
X15543D01*
X15043D02*
Y-24992D01*
X15543D01*
Y-24492D01*
X16543D01*
Y-24992D02*
Y-24492D01*
Y-24992D02*
X17043D01*
Y-25992D02*
Y-24992D01*
X16543Y-25992D02*
X17043D01*
X16543Y-26492D02*
Y-25992D01*
X15543Y-26492D02*
X16543D01*
X15543D02*
Y-25992D01*
X-1000D02*
X-500D01*
X-1000D02*
Y-24992D01*
X-500D01*
Y-24492D01*
X500D01*
Y-24992D02*
Y-24492D01*
Y-24992D02*
X1000D01*
Y-25992D02*
Y-24992D01*
X500Y-25992D02*
X1000D01*
X500Y-26492D02*
Y-25992D01*
X-500Y-26492D02*
X500D01*
X-500D02*
Y-25992D01*
X79020Y66921D02*
X79520D01*
X79020D02*
Y67921D01*
X79520D01*
Y68421D01*
X80520D01*
Y67921D02*
Y68421D01*
Y67921D02*
X81020D01*
Y66921D02*
Y67921D01*
X80520Y66921D02*
X81020D01*
X80520Y66421D02*
Y66921D01*
X79520Y66421D02*
X80520D01*
X79520D02*
Y66921D01*
X22130Y-69004D02*
X22630D01*
X22130D02*
Y-68004D01*
X22630D01*
Y-67504D01*
X23630D01*
Y-68004D02*
Y-67504D01*
Y-68004D02*
X24130D01*
Y-69004D02*
Y-68004D01*
X23630Y-69004D02*
X24130D01*
X23630Y-69504D02*
Y-69004D01*
X22630Y-69504D02*
X23630D01*
X22630D02*
Y-69004D01*
X46047Y-34653D02*
X46547D01*
X46047D02*
Y-33654D01*
X46547D01*
Y-33154D01*
X47547D01*
Y-33654D02*
Y-33154D01*
Y-33654D02*
X48047D01*
Y-34653D02*
Y-33654D01*
X47547Y-34653D02*
X48047D01*
X47547Y-35153D02*
Y-34653D01*
X46547Y-35153D02*
X47547D01*
X46547D02*
Y-34653D01*
X45024Y-13158D02*
X45524D01*
X45024D02*
Y-12158D01*
X45524D01*
Y-11658D01*
X46524D01*
Y-12158D02*
Y-11658D01*
Y-12158D02*
X47024D01*
Y-13158D02*
Y-12158D01*
X46524Y-13158D02*
X47024D01*
X46524Y-13658D02*
Y-13158D01*
X45524Y-13658D02*
X46524D01*
X45524D02*
Y-13158D01*
X55024D02*
X55524D01*
X55024D02*
Y-12158D01*
X55524D01*
Y-11658D01*
X56524D01*
Y-12158D02*
Y-11658D01*
Y-12158D02*
X57024D01*
Y-13158D02*
Y-12158D01*
X56524Y-13158D02*
X57024D01*
X56524Y-13658D02*
Y-13158D01*
X55524Y-13658D02*
X56524D01*
X55524D02*
Y-13158D01*
X60024Y-16248D02*
X60524D01*
X60024D02*
Y-15248D01*
X60524D01*
Y-14748D01*
X61524D01*
Y-15248D02*
Y-14748D01*
Y-15248D02*
X62024D01*
Y-16248D02*
Y-15248D01*
X61524Y-16248D02*
X62024D01*
X61524Y-16748D02*
Y-16248D01*
X60524Y-16748D02*
X61524D01*
X60524D02*
Y-16248D01*
X49984D02*
X50484D01*
X49984D02*
Y-15248D01*
X50484D01*
Y-14748D01*
X51484D01*
Y-15248D02*
Y-14748D01*
Y-15248D02*
X51984D01*
Y-16248D02*
Y-15248D01*
X51484Y-16248D02*
X51984D01*
X51484Y-16748D02*
Y-16248D01*
X50484Y-16748D02*
X51484D01*
X50484D02*
Y-16248D01*
X46047Y-29929D02*
X46547D01*
X46047D02*
Y-28929D01*
X46547D01*
Y-28429D01*
X47547D01*
Y-28929D02*
Y-28429D01*
Y-28929D02*
X48047D01*
Y-29929D02*
Y-28929D01*
X47547Y-29929D02*
X48047D01*
X47547Y-30429D02*
Y-29929D01*
X46547Y-30429D02*
X47547D01*
X46547D02*
Y-29929D01*
X105299Y-29634D02*
X105799D01*
X105299D02*
Y-28634D01*
X105799D01*
Y-28134D01*
X106799D01*
Y-28634D02*
Y-28134D01*
Y-28634D02*
X107299D01*
Y-29634D02*
Y-28634D01*
X106799Y-29634D02*
X107299D01*
X106799Y-30134D02*
Y-29634D01*
X105799Y-30134D02*
X106799D01*
X105799D02*
Y-29634D01*
X30531Y-14906D02*
X31032D01*
X30531D02*
Y-13905D01*
X31032D01*
Y-13406D01*
X32032D01*
Y-13905D02*
Y-13406D01*
Y-13905D02*
X32531D01*
Y-14906D02*
Y-13905D01*
X32032Y-14906D02*
X32531D01*
X32032Y-15405D02*
Y-14906D01*
X31032Y-15405D02*
X32032D01*
X31032D02*
Y-14906D01*
X17405Y11016D02*
X17906D01*
X17405D02*
Y12016D01*
X17906D01*
Y12516D01*
X18905D01*
Y12016D02*
Y12516D01*
Y12016D02*
X19406D01*
Y11016D02*
Y12016D01*
X18905Y11016D02*
X19406D01*
X18905Y10516D02*
Y11016D01*
X17906Y10516D02*
X18905D01*
X17906D02*
Y11016D01*
X1461Y-43020D02*
X1961D01*
X1461D02*
Y-42020D01*
X1961D01*
Y-41520D01*
X2961D01*
Y-42020D02*
Y-41520D01*
Y-42020D02*
X3461D01*
Y-43020D02*
Y-42020D01*
X2961Y-43020D02*
X3461D01*
X2961Y-43520D02*
Y-43020D01*
X1961Y-43520D02*
X2961D01*
X1961D02*
Y-43020D01*
X-103067Y63248D02*
X-102567D01*
X-103067D02*
Y64248D01*
X-102567D01*
Y64748D01*
X-101567D01*
Y64248D02*
Y64748D01*
Y64248D02*
X-101067D01*
Y63248D02*
Y64248D01*
X-101567Y63248D02*
X-101067D01*
X-101567Y62748D02*
Y63248D01*
X-102567Y62748D02*
X-101567D01*
X-102567D02*
Y63248D01*
X-23441D02*
X-22941D01*
X-23441D02*
Y64248D01*
X-22941D01*
Y64748D01*
X-21941D01*
Y64248D02*
Y64748D01*
Y64248D02*
X-21441D01*
Y63248D02*
Y64248D01*
X-21941Y63248D02*
X-21441D01*
X-21941Y62748D02*
Y63248D01*
X-22941Y62748D02*
X-21941D01*
X-22941D02*
Y63248D01*
X-60201Y-23433D02*
X-59701D01*
X-60201D02*
Y-22433D01*
X-59701D01*
Y-21933D01*
X-58701D01*
Y-22433D02*
Y-21933D01*
Y-22433D02*
X-58201D01*
Y-23433D02*
Y-22433D01*
X-58701Y-23433D02*
X-58201D01*
X-58701Y-23933D02*
Y-23433D01*
X-59701Y-23933D02*
X-58701D01*
X-59701D02*
Y-23433D01*
X144866Y-33713D02*
X145366D01*
X144866D02*
Y-32713D01*
X145366D01*
Y-32213D01*
X146366D01*
Y-32713D02*
Y-32213D01*
Y-32713D02*
X146866D01*
Y-33713D02*
Y-32713D01*
X146366Y-33713D02*
X146866D01*
X146366Y-34213D02*
Y-33713D01*
X145366Y-34213D02*
X146366D01*
X145366D02*
Y-33713D01*
X113173Y66823D02*
X113673D01*
X113173D02*
Y67823D01*
X113673D01*
Y68323D01*
X114673D01*
Y67823D02*
Y68323D01*
Y67823D02*
X115173D01*
Y66823D02*
Y67823D01*
X114673Y66823D02*
X115173D01*
X114673Y66323D02*
Y66823D01*
X113673Y66323D02*
X114673D01*
X113673D02*
Y66823D01*
X35374Y30252D02*
X35874D01*
X35374D02*
Y31252D01*
X35874D01*
Y31752D01*
X36874D01*
Y31252D02*
Y31752D01*
Y31252D02*
X37374D01*
Y30252D02*
Y31252D01*
X36874Y30252D02*
X37374D01*
X36874Y29752D02*
Y30252D01*
X35874Y29752D02*
X36874D01*
X35874D02*
Y30252D01*
X8827Y-1976D02*
X9327D01*
X8827D02*
Y-976D01*
X9327D01*
Y-476D01*
X10327D01*
Y-976D02*
Y-476D01*
Y-976D02*
X10827D01*
Y-1976D02*
Y-976D01*
X10327Y-1976D02*
X10827D01*
X10327Y-2476D02*
Y-1976D01*
X9327Y-2476D02*
X10327D01*
X9327D02*
Y-1976D01*
X8827Y-23925D02*
X9327D01*
X8827D02*
Y-22925D01*
X9327D01*
Y-22425D01*
X10327D01*
Y-22925D02*
Y-22425D01*
Y-22925D02*
X10827D01*
Y-23925D02*
Y-22925D01*
X10327Y-23925D02*
X10827D01*
X10327Y-24425D02*
Y-23925D01*
X9327Y-24425D02*
X10327D01*
X9327D02*
Y-23925D01*
X5102D02*
X5602D01*
X5102D02*
Y-22925D01*
X5602D01*
Y-22425D01*
X6602D01*
Y-22925D02*
Y-22425D01*
Y-22925D02*
X7102D01*
Y-23925D02*
Y-22925D01*
X6602Y-23925D02*
X7102D01*
X6602Y-24425D02*
Y-23925D01*
X5602Y-24425D02*
X6602D01*
X5602D02*
Y-23925D01*
X-4102Y59973D02*
X-3602D01*
X-4102D02*
Y60972D01*
X-3602D01*
Y61472D01*
X-2602D01*
Y60972D02*
Y61472D01*
Y60972D02*
X-2102D01*
Y59973D02*
Y60972D01*
X-2602Y59973D02*
X-2102D01*
X-2602Y59473D02*
Y59973D01*
X-3602Y59473D02*
X-2602D01*
X-3602D02*
Y59973D01*
X-71866Y32669D02*
X-71366D01*
X-71866D02*
Y33669D01*
X-71366D01*
Y34169D01*
X-70366D01*
Y33669D02*
Y34169D01*
Y33669D02*
X-69866D01*
Y32669D02*
Y33669D01*
X-70366Y32669D02*
X-69866D01*
X-70366Y32169D02*
Y32669D01*
X-71366Y32169D02*
X-70366D01*
X-71366D02*
Y32669D01*
X-16087Y32469D02*
X-15587D01*
X-16087D02*
Y33468D01*
X-15587D01*
Y33968D01*
X-14587D01*
Y33468D02*
Y33968D01*
Y33468D02*
X-14087D01*
Y32469D02*
Y33468D01*
X-14587Y32469D02*
X-14087D01*
X-14587Y31969D02*
Y32469D01*
X-15587Y31969D02*
X-14587D01*
X-15587D02*
Y32469D01*
X-96197Y-33886D02*
X-95697D01*
X-96197D02*
Y-32886D01*
X-95697D01*
Y-32386D01*
X-94697D01*
Y-32886D02*
Y-32386D01*
Y-32886D02*
X-94197D01*
Y-33886D02*
Y-32886D01*
X-94697Y-33886D02*
X-94197D01*
X-94697Y-34386D02*
Y-33886D01*
X-95697Y-34386D02*
X-94697D01*
X-95697D02*
Y-33886D01*
X-111925Y-33921D02*
X-111425D01*
X-111925D02*
Y-32921D01*
X-111425D01*
Y-32421D01*
X-110425D01*
Y-32921D02*
Y-32421D01*
Y-32921D02*
X-109925D01*
Y-33921D02*
Y-32921D01*
X-110425Y-33921D02*
X-109925D01*
X-110425Y-34421D02*
Y-33921D01*
X-111425Y-34421D02*
X-110425D01*
X-111425D02*
Y-33921D01*
X-111925Y-41839D02*
X-111425D01*
X-111925D02*
Y-40839D01*
X-111425D01*
Y-40339D01*
X-110425D01*
Y-40839D02*
Y-40339D01*
Y-40839D02*
X-109925D01*
Y-41839D02*
Y-40839D01*
X-110425Y-41839D02*
X-109925D01*
X-110425Y-42339D02*
Y-41839D01*
X-111425Y-42339D02*
X-110425D01*
X-111425D02*
Y-41839D01*
X-96197D02*
X-95697D01*
X-96197D02*
Y-40839D01*
X-95697D01*
Y-40339D01*
X-94697D01*
Y-40839D02*
Y-40339D01*
Y-40839D02*
X-94197D01*
Y-41839D02*
Y-40839D01*
X-94697Y-41839D02*
X-94197D01*
X-94697Y-42339D02*
Y-41839D01*
X-95697Y-42339D02*
X-94697D01*
X-95697D02*
Y-41839D01*
X-94996Y-12803D02*
X-94496D01*
X-94996D02*
Y-11803D01*
X-94496D01*
Y-11303D01*
X-93496D01*
Y-11803D02*
Y-11303D01*
Y-11803D02*
X-92996D01*
Y-12803D02*
Y-11803D01*
X-93496Y-12803D02*
X-92996D01*
X-93496Y-13303D02*
Y-12803D01*
X-94496Y-13303D02*
X-93496D01*
X-94496D02*
Y-12803D01*
X-94815Y-20465D02*
X-94315D01*
X-94815D02*
Y-19465D01*
X-94315D01*
Y-18965D01*
X-93315D01*
Y-19465D02*
Y-18965D01*
Y-19465D02*
X-92815D01*
Y-20465D02*
Y-19465D01*
X-93315Y-20465D02*
X-92815D01*
X-93315Y-20965D02*
Y-20465D01*
X-94315Y-20965D02*
X-93315D01*
X-94315D02*
Y-20465D01*
X-134858Y40839D02*
X-134358D01*
X-134858D02*
Y41838D01*
X-134358D01*
Y42338D01*
X-133358D01*
Y41838D02*
Y42338D01*
Y41838D02*
X-132858D01*
Y40839D02*
Y41838D01*
X-133358Y40839D02*
X-132858D01*
X-133358Y40339D02*
Y40839D01*
X-134358Y40339D02*
X-133358D01*
X-134358D02*
Y40839D01*
X-134847Y36890D02*
X-134347D01*
X-134847D02*
Y37890D01*
X-134347D01*
Y38390D01*
X-133347D01*
Y37890D02*
Y38390D01*
Y37890D02*
X-132847D01*
Y36890D02*
Y37890D01*
X-133347Y36890D02*
X-132847D01*
X-133347Y36390D02*
Y36890D01*
X-134347Y36390D02*
X-133347D01*
X-134347D02*
Y36890D01*
X35417Y-31996D02*
X35917D01*
X35417D02*
Y-30996D01*
X35917D01*
Y-30496D01*
X36917D01*
Y-30996D02*
Y-30496D01*
Y-30996D02*
X37417D01*
Y-31996D02*
Y-30996D01*
X36917Y-31996D02*
X37417D01*
X36917Y-32496D02*
Y-31996D01*
X35917Y-32496D02*
X36917D01*
X35917D02*
Y-31996D01*
X39945Y-41051D02*
X40445D01*
X39945D02*
Y-40051D01*
X40445D01*
Y-39551D01*
X41445D01*
Y-40051D02*
Y-39551D01*
Y-40051D02*
X41945D01*
Y-41051D02*
Y-40051D01*
X41445Y-41051D02*
X41945D01*
X41445Y-41551D02*
Y-41051D01*
X40445Y-41551D02*
X41445D01*
X40445D02*
Y-41051D01*
X42012Y-22252D02*
X42512D01*
X42012D02*
Y-21252D01*
X42512D01*
Y-20752D01*
X43512D01*
Y-21252D02*
Y-20752D01*
Y-21252D02*
X44012D01*
Y-22252D02*
Y-21252D01*
X43512Y-22252D02*
X44012D01*
X43512Y-22752D02*
Y-22252D01*
X42512Y-22752D02*
X43512D01*
X42512D02*
Y-22252D01*
X63272D02*
X63772D01*
X63272D02*
Y-21252D01*
X63772D01*
Y-20752D01*
X64772D01*
Y-21252D02*
Y-20752D01*
Y-21252D02*
X65272D01*
Y-22252D02*
Y-21252D01*
X64772Y-22252D02*
X65272D01*
X64772Y-22752D02*
Y-22252D01*
X63772Y-22752D02*
X64772D01*
X63772D02*
Y-22252D01*
X49295Y-25205D02*
X49795D01*
X49295D02*
Y-24205D01*
X49795D01*
Y-23705D01*
X50795D01*
Y-24205D02*
Y-23705D01*
Y-24205D02*
X51295D01*
Y-25205D02*
Y-24205D01*
X50795Y-25205D02*
X51295D01*
X50795Y-25705D02*
Y-25205D01*
X49795Y-25705D02*
X50795D01*
X49795D02*
Y-25205D01*
X83252Y-43709D02*
X83752D01*
X83252D02*
Y-42709D01*
X83752D01*
Y-42209D01*
X84752D01*
Y-42709D02*
Y-42209D01*
Y-42709D02*
X85252D01*
Y-43709D02*
Y-42709D01*
X84752Y-43709D02*
X85252D01*
X84752Y-44209D02*
Y-43709D01*
X83752Y-44209D02*
X84752D01*
X83752D02*
Y-43709D01*
X50772Y-56996D02*
X51272D01*
X50772D02*
Y-55996D01*
X51272D01*
Y-55496D01*
X52272D01*
Y-55996D02*
Y-55496D01*
Y-55996D02*
X52772D01*
Y-56996D02*
Y-55996D01*
X52272Y-56996D02*
X52772D01*
X52272Y-57496D02*
Y-56996D01*
X51272Y-57496D02*
X52272D01*
X51272D02*
Y-56996D01*
X85663Y-2911D02*
X86163D01*
X85663D02*
Y-1911D01*
X86163D01*
Y-1411D01*
X87163D01*
Y-1911D02*
Y-1411D01*
Y-1911D02*
X87663D01*
Y-2911D02*
Y-1911D01*
X87163Y-2911D02*
X87663D01*
X87163Y-3411D02*
Y-2911D01*
X86163Y-3411D02*
X87163D01*
X86163D02*
Y-2911D01*
X-53449Y29902D02*
X-52949D01*
X-53449D02*
Y30902D01*
X-52949D01*
Y31402D01*
X-51949D01*
Y30902D02*
Y31402D01*
Y30902D02*
X-51449D01*
Y29902D02*
Y30902D01*
X-51949Y29902D02*
X-51449D01*
X-51949Y29402D02*
Y29902D01*
X-52949Y29402D02*
X-51949D01*
X-52949D02*
Y29902D01*
X-112024Y13280D02*
X-111524D01*
X-112024D02*
Y14279D01*
X-111524D01*
Y14780D01*
X-110524D01*
Y14279D02*
Y14780D01*
Y14279D02*
X-110024D01*
Y13280D02*
Y14279D01*
X-110524Y13280D02*
X-110024D01*
X-110524Y12779D02*
Y13280D01*
X-111524Y12779D02*
X-110524D01*
X-111524D02*
Y13280D01*
X-112024Y9342D02*
X-111524D01*
X-112024D02*
Y10343D01*
X-111524D01*
Y10842D01*
X-110524D01*
Y10343D02*
Y10842D01*
Y10343D02*
X-110024D01*
Y9342D02*
Y10343D01*
X-110524Y9342D02*
X-110024D01*
X-110524Y8843D02*
Y9342D01*
X-111524Y8843D02*
X-110524D01*
X-111524D02*
Y9342D01*
X-112024Y1469D02*
X-111524D01*
X-112024D02*
Y2468D01*
X-111524D01*
Y2968D01*
X-110524D01*
Y2468D02*
Y2968D01*
Y2468D02*
X-110024D01*
Y1469D02*
Y2468D01*
X-110524Y1469D02*
X-110024D01*
X-110524Y969D02*
Y1469D01*
X-111524Y969D02*
X-110524D01*
X-111524D02*
Y1469D01*
X-112024Y-2468D02*
X-111524D01*
X-112024D02*
Y-1469D01*
X-111524D01*
Y-969D01*
X-110524D01*
Y-1469D02*
Y-969D01*
Y-1469D02*
X-110024D01*
Y-2468D02*
Y-1469D01*
X-110524Y-2468D02*
X-110024D01*
X-110524Y-2968D02*
Y-2468D01*
X-111524Y-2968D02*
X-110524D01*
X-111524D02*
Y-2468D01*
X-112024Y-6406D02*
X-111524D01*
X-112024D02*
Y-5406D01*
X-111524D01*
Y-4905D01*
X-110524D01*
Y-5406D02*
Y-4905D01*
Y-5406D02*
X-110024D01*
Y-6406D02*
Y-5406D01*
X-110524Y-6406D02*
X-110024D01*
X-110524Y-6905D02*
Y-6406D01*
X-111524Y-6905D02*
X-110524D01*
X-111524D02*
Y-6406D01*
X-99492Y22500D02*
X-98992D01*
X-99492D02*
Y23500D01*
X-98992D01*
Y24000D01*
X-97992D01*
Y23500D02*
Y24000D01*
Y23500D02*
X-97492D01*
Y22500D02*
Y23500D01*
X-97992Y22500D02*
X-97492D01*
X-97992Y22000D02*
Y22500D01*
X-98992Y22000D02*
X-97992D01*
X-98992D02*
Y22500D01*
X-60449Y-10933D02*
X-59949D01*
X-60449D02*
Y-9933D01*
X-59949D01*
Y-9433D01*
X-58949D01*
Y-9933D02*
Y-9433D01*
Y-9933D02*
X-58449D01*
Y-10933D02*
Y-9933D01*
X-58949Y-10933D02*
X-58449D01*
X-58949Y-11433D02*
Y-10933D01*
X-59949Y-11433D02*
X-58949D01*
X-59949D02*
Y-10933D01*
X-64214D02*
X-63714D01*
X-64214D02*
Y-9933D01*
X-63714D01*
Y-9433D01*
X-62714D01*
Y-9933D02*
Y-9433D01*
Y-9933D02*
X-62214D01*
Y-10933D02*
Y-9933D01*
X-62714Y-10933D02*
X-62214D01*
X-62714Y-11433D02*
Y-10933D01*
X-63714Y-11433D02*
X-62714D01*
X-63714D02*
Y-10933D01*
X-56610Y-42897D02*
X-56110D01*
X-56610D02*
Y-41897D01*
X-56110D01*
Y-41397D01*
X-55110D01*
Y-41897D02*
Y-41397D01*
Y-41897D02*
X-54610D01*
Y-42897D02*
Y-41897D01*
X-55110Y-42897D02*
X-54610D01*
X-55110Y-43397D02*
Y-42897D01*
X-56110Y-43397D02*
X-55110D01*
X-56110D02*
Y-42897D01*
X-56610Y-39331D02*
X-56110D01*
X-56610D02*
Y-38331D01*
X-56110D01*
Y-37832D01*
X-55110D01*
Y-38331D02*
Y-37832D01*
Y-38331D02*
X-54610D01*
Y-39331D02*
Y-38331D01*
X-55110Y-39331D02*
X-54610D01*
X-55110Y-39832D02*
Y-39331D01*
X-56110Y-39832D02*
X-55110D01*
X-56110D02*
Y-39331D01*
X-56807Y-10933D02*
X-56307D01*
X-56807D02*
Y-9933D01*
X-56307D01*
Y-9433D01*
X-55307D01*
Y-9933D02*
Y-9433D01*
Y-9933D02*
X-54807D01*
Y-10933D02*
Y-9933D01*
X-55307Y-10933D02*
X-54807D01*
X-55307Y-11433D02*
Y-10933D01*
X-56307Y-11433D02*
X-55307D01*
X-56307D02*
Y-10933D01*
X-90961Y20465D02*
X-90461D01*
X-90961D02*
Y21465D01*
X-90461D01*
Y21965D01*
X-89461D01*
Y21465D02*
Y21965D01*
Y21465D02*
X-88961D01*
Y20465D02*
Y21465D01*
X-89461Y20465D02*
X-88961D01*
X-89461Y19965D02*
Y20465D01*
X-90461Y19965D02*
X-89461D01*
X-90461D02*
Y20465D01*
X-84801Y17869D02*
X-84301D01*
X-84801D02*
Y18869D01*
X-84301D01*
Y19369D01*
X-83301D01*
Y18869D02*
Y19369D01*
Y18869D02*
X-82801D01*
Y17869D02*
Y18869D01*
X-83301Y17869D02*
X-82801D01*
X-83301Y17369D02*
Y17869D01*
X-84301Y17369D02*
X-83301D01*
X-84301D02*
Y17869D01*
X122500Y55000D02*
X123000D01*
X122500D02*
Y56000D01*
X123000D01*
Y56500D01*
X124000D01*
Y56000D02*
Y56500D01*
Y56000D02*
X124500D01*
Y55000D02*
Y56000D01*
X124000Y55000D02*
X124500D01*
X124000Y54500D02*
Y55000D01*
X123000Y54500D02*
X124000D01*
X123000D02*
Y55000D01*
X122500Y59600D02*
X123000D01*
X122500D02*
Y60600D01*
X123000D01*
Y61100D01*
X124000D01*
Y60600D02*
Y61100D01*
Y60600D02*
X124500D01*
Y59600D02*
Y60600D01*
X124000Y59600D02*
X124500D01*
X124000Y59100D02*
Y59600D01*
X123000Y59100D02*
X124000D01*
X123000D02*
Y59600D01*
X-26500Y38000D02*
X-26000D01*
X-26500D02*
Y39000D01*
X-26000D01*
Y39500D01*
X-25000D01*
Y39000D02*
Y39500D01*
Y39000D02*
X-24500D01*
Y38000D02*
Y39000D01*
X-25000Y38000D02*
X-24500D01*
X-25000Y37500D02*
Y38000D01*
X-26000Y37500D02*
X-25000D01*
X-26000D02*
Y38000D01*
X-26098Y-20641D02*
X-25598D01*
X-26098D02*
Y-19641D01*
X-25598D01*
Y-19141D01*
X-24598D01*
Y-19641D02*
Y-19141D01*
Y-19641D02*
X-24098D01*
Y-20641D02*
Y-19641D01*
X-24598Y-20641D02*
X-24098D01*
X-24598Y-21141D02*
Y-20641D01*
X-25598Y-21141D02*
X-24598D01*
X-25598D02*
Y-20641D01*
X-46500Y-52500D02*
X-46000D01*
X-46500D02*
Y-51500D01*
X-46000D01*
Y-51000D01*
X-45000D01*
Y-51500D02*
Y-51000D01*
Y-51500D02*
X-44500D01*
Y-52500D02*
Y-51500D01*
X-45000Y-52500D02*
X-44500D01*
X-45000Y-53000D02*
Y-52500D01*
X-46000Y-53000D02*
X-45000D01*
X-46000D02*
Y-52500D01*
X-86728Y41921D02*
X-86228D01*
X-86728D02*
Y42921D01*
X-86228D01*
Y43421D01*
X-85228D01*
Y42921D02*
Y43421D01*
Y42921D02*
X-84728D01*
Y41921D02*
Y42921D01*
X-85228Y41921D02*
X-84728D01*
X-85228Y41421D02*
Y41921D01*
X-86228Y41421D02*
X-85228D01*
X-86228D02*
Y41921D01*
X-71866Y38378D02*
X-71366D01*
X-71866D02*
Y39378D01*
X-71366D01*
Y39878D01*
X-70366D01*
Y39378D02*
Y39878D01*
Y39378D02*
X-69866D01*
Y38378D02*
Y39378D01*
X-70366Y38378D02*
X-69866D01*
X-70366Y37878D02*
Y38378D01*
X-71366Y37878D02*
X-70366D01*
X-71366D02*
Y38378D01*
X84335Y40150D02*
X84835D01*
X84335D02*
Y41150D01*
X84835D01*
Y41650D01*
X85835D01*
Y41150D02*
Y41650D01*
Y41150D02*
X86335D01*
Y40150D02*
Y41150D01*
X85835Y40150D02*
X86335D01*
X85835Y39650D02*
Y40150D01*
X84835Y39650D02*
X85835D01*
X84835D02*
Y40150D01*
X-16087Y43468D02*
X-15587D01*
X-16087D02*
Y44469D01*
X-15587D01*
Y44969D01*
X-14587D01*
Y44469D02*
Y44969D01*
Y44469D02*
X-14087D01*
Y43468D02*
Y44469D01*
X-14587Y43468D02*
X-14087D01*
X-14587Y42968D02*
Y43468D01*
X-15587Y42968D02*
X-14587D01*
X-15587D02*
Y43468D01*
X-23441Y59902D02*
X-22941D01*
X-23441D02*
Y60902D01*
X-22941D01*
Y61402D01*
X-21941D01*
Y60902D02*
Y61402D01*
Y60902D02*
X-21441D01*
Y59902D02*
Y60902D01*
X-21941Y59902D02*
X-21441D01*
X-21941Y59402D02*
Y59902D01*
X-22941Y59402D02*
X-21941D01*
X-22941D02*
Y59902D01*
X75000Y48800D02*
X75500D01*
X75000D02*
Y49800D01*
X75500D01*
Y50300D01*
X76500D01*
Y49800D02*
Y50300D01*
Y49800D02*
X77000D01*
Y48800D02*
Y49800D01*
X76500Y48800D02*
X77000D01*
X76500Y48300D02*
Y48800D01*
X75500Y48300D02*
X76500D01*
X75500D02*
Y48800D01*
X75000Y44200D02*
X75500D01*
X75000D02*
Y45200D01*
X75500D01*
Y45700D01*
X76500D01*
Y45200D02*
Y45700D01*
Y45200D02*
X77000D01*
Y44200D02*
Y45200D01*
X76500Y44200D02*
X77000D01*
X76500Y43700D02*
Y44200D01*
X75500Y43700D02*
X76500D01*
X75500D02*
Y44200D01*
X-781Y57472D02*
X-281D01*
X-781D02*
Y58472D01*
X-281D01*
Y58972D01*
X719D01*
Y58472D02*
Y58972D01*
Y58472D02*
X1219D01*
Y57472D02*
Y58472D01*
X719Y57472D02*
X1219D01*
X719Y56972D02*
Y57472D01*
X-281Y56972D02*
X719D01*
X-281D02*
Y57472D01*
X36984Y44000D02*
X37484D01*
X36984D02*
Y45000D01*
X37484D01*
Y45500D01*
X38484D01*
Y45000D02*
Y45500D01*
Y45000D02*
X38984D01*
Y44000D02*
Y45000D01*
X38484Y44000D02*
X38984D01*
X38484Y43500D02*
Y44000D01*
X37484Y43500D02*
X38484D01*
X37484D02*
Y44000D01*
X3181Y57472D02*
X3681D01*
X3181D02*
Y58472D01*
X3681D01*
Y58972D01*
X4681D01*
Y58472D02*
Y58972D01*
Y58472D02*
X5181D01*
Y57472D02*
Y58472D01*
X4681Y57472D02*
X5181D01*
X4681Y56972D02*
Y57472D01*
X3681Y56972D02*
X4681D01*
X3681D02*
Y57472D01*
X36984Y49000D02*
X37484D01*
X36984D02*
Y50000D01*
X37484D01*
Y50500D01*
X38484D01*
Y50000D02*
Y50500D01*
Y50000D02*
X38984D01*
Y49000D02*
Y50000D01*
X38484Y49000D02*
X38984D01*
X38484Y48500D02*
Y49000D01*
X37484Y48500D02*
X38484D01*
X37484D02*
Y49000D01*
X-12516Y-27075D02*
X-12016D01*
X-12516D02*
Y-26075D01*
X-12016D01*
Y-25575D01*
X-11016D01*
Y-26075D02*
Y-25575D01*
Y-26075D02*
X-10516D01*
Y-27075D02*
Y-26075D01*
X-11016Y-27075D02*
X-10516D01*
X-11016Y-27575D02*
Y-27075D01*
X-12016Y-27575D02*
X-11016D01*
X-12016D02*
Y-27075D01*
X60024Y36535D02*
X60524D01*
X60024D02*
Y37534D01*
X60524D01*
Y38034D01*
X61524D01*
Y37534D02*
Y38034D01*
Y37534D02*
X62024D01*
Y36535D02*
Y37534D01*
X61524Y36535D02*
X62024D01*
X61524Y36035D02*
Y36535D01*
X60524Y36035D02*
X61524D01*
X60524D02*
Y36535D01*
X55024D02*
X55524D01*
X55024D02*
Y37534D01*
X55524D01*
Y38034D01*
X56524D01*
Y37534D02*
Y38034D01*
Y37534D02*
X57024D01*
Y36535D02*
Y37534D01*
X56524Y36535D02*
X57024D01*
X56524Y36035D02*
Y36535D01*
X55524Y36035D02*
X56524D01*
X55524D02*
Y36535D01*
X-12516Y-21698D02*
X-12016D01*
X-12516D02*
Y-20698D01*
X-12016D01*
Y-20198D01*
X-11016D01*
Y-20698D02*
Y-20198D01*
Y-20698D02*
X-10516D01*
Y-21698D02*
Y-20698D01*
X-11016Y-21698D02*
X-10516D01*
X-11016Y-22198D02*
Y-21698D01*
X-12016Y-22198D02*
X-11016D01*
X-12016D02*
Y-21698D01*
X-112024Y5406D02*
X-111524D01*
X-112024D02*
Y6406D01*
X-111524D01*
Y6905D01*
X-110524D01*
Y6406D02*
Y6905D01*
Y6406D02*
X-110024D01*
Y5406D02*
Y6406D01*
X-110524Y5406D02*
X-110024D01*
X-110524Y4905D02*
Y5406D01*
X-111524Y4905D02*
X-110524D01*
X-111524D02*
Y5406D01*
X5102Y-1976D02*
X5602D01*
X5102D02*
Y-976D01*
X5602D01*
Y-476D01*
X6602D01*
Y-976D02*
Y-476D01*
Y-976D02*
X7102D01*
Y-1976D02*
Y-976D01*
X6602Y-1976D02*
X7102D01*
X6602Y-2476D02*
Y-1976D01*
X5602Y-2476D02*
X6602D01*
X5602D02*
Y-1976D01*
X-5980Y1469D02*
X-5480D01*
X-5980D02*
Y2468D01*
X-5480D01*
Y2968D01*
X-4480D01*
Y2468D02*
Y2968D01*
Y2468D02*
X-3980D01*
Y1469D02*
Y2468D01*
X-4480Y1469D02*
X-3980D01*
X-4480Y969D02*
Y1469D01*
X-5480Y969D02*
X-4480D01*
X-5480D02*
Y1469D01*
X-5980Y13280D02*
X-5480D01*
X-5980D02*
Y14279D01*
X-5480D01*
Y14780D01*
X-4480D01*
Y14279D02*
Y14780D01*
Y14279D02*
X-3980D01*
Y13280D02*
Y14279D01*
X-4480Y13280D02*
X-3980D01*
X-4480Y12779D02*
Y13280D01*
X-5480Y12779D02*
X-4480D01*
X-5480D02*
Y13280D01*
X-6020Y5406D02*
X-5520D01*
X-6020D02*
Y6406D01*
X-5520D01*
Y6905D01*
X-4520D01*
Y6406D02*
Y6905D01*
Y6406D02*
X-4020D01*
Y5406D02*
Y6406D01*
X-4520Y5406D02*
X-4020D01*
X-4520Y4905D02*
Y5406D01*
X-5520Y4905D02*
X-4520D01*
X-5520D02*
Y5406D01*
X-6020Y-6406D02*
X-5520D01*
X-6020D02*
Y-5406D01*
X-5520D01*
Y-4905D01*
X-4520D01*
Y-5406D02*
Y-4905D01*
Y-5406D02*
X-4020D01*
Y-6406D02*
Y-5406D01*
X-4520Y-6406D02*
X-4020D01*
X-4520Y-6905D02*
Y-6406D01*
X-5520Y-6905D02*
X-4520D01*
X-5520D02*
Y-6406D01*
X-5980Y9342D02*
X-5480D01*
X-5980D02*
Y10343D01*
X-5480D01*
Y10842D01*
X-4480D01*
Y10343D02*
Y10842D01*
Y10343D02*
X-3980D01*
Y9342D02*
Y10343D01*
X-4480Y9342D02*
X-3980D01*
X-4480Y8843D02*
Y9342D01*
X-5480Y8843D02*
X-4480D01*
X-5480D02*
Y9342D01*
X-6020Y-2468D02*
X-5520D01*
X-6020D02*
Y-1469D01*
X-5520D01*
Y-969D01*
X-4520D01*
Y-1469D02*
Y-969D01*
Y-1469D02*
X-4020D01*
Y-2468D02*
Y-1469D01*
X-4520Y-2468D02*
X-4020D01*
X-4520Y-2968D02*
Y-2468D01*
X-5520Y-2968D02*
X-4520D01*
X-5520D02*
Y-2468D01*
X-86827Y37689D02*
X-86327D01*
X-86827D02*
Y38689D01*
X-86327D01*
Y39189D01*
X-85327D01*
Y38689D02*
Y39189D01*
Y38689D02*
X-84827D01*
Y37689D02*
Y38689D01*
X-85327Y37689D02*
X-84827D01*
X-85327Y37189D02*
Y37689D01*
X-86327Y37189D02*
X-85327D01*
X-86327D02*
Y37689D01*
X-65764Y37984D02*
X-65264D01*
X-65764D02*
Y38984D01*
X-65264D01*
Y39484D01*
X-64264D01*
Y38984D02*
Y39484D01*
Y38984D02*
X-63764D01*
Y37984D02*
Y38984D01*
X-64264Y37984D02*
X-63764D01*
X-64264Y37484D02*
Y37984D01*
X-65264Y37484D02*
X-64264D01*
X-65264D02*
Y37984D01*
X-56906Y34835D02*
X-56406D01*
X-56906D02*
Y35835D01*
X-56406D01*
Y36335D01*
X-55405D01*
Y35835D02*
Y36335D01*
Y35835D02*
X-54905D01*
Y34835D02*
Y35835D01*
X-55405Y34835D02*
X-54905D01*
X-55405Y34335D02*
Y34835D01*
X-56406Y34335D02*
X-55405D01*
X-56406D02*
Y34835D01*
X-37909Y-1386D02*
X-37409D01*
X-37909D02*
Y-386D01*
X-37409D01*
Y114D01*
X-36409D01*
Y-386D02*
Y114D01*
Y-386D02*
X-35909D01*
Y-1386D02*
Y-386D01*
X-36409Y-1386D02*
X-35909D01*
X-36409Y-1886D02*
Y-1386D01*
X-37409Y-1886D02*
X-36409D01*
X-37409D02*
Y-1386D01*
X-32791D02*
X-32291D01*
X-32791D02*
Y-386D01*
X-32291D01*
Y114D01*
X-31291D01*
Y-386D02*
Y114D01*
Y-386D02*
X-30791D01*
Y-1386D02*
Y-386D01*
X-31291Y-1386D02*
X-30791D01*
X-31291Y-1886D02*
Y-1386D01*
X-32291Y-1886D02*
X-31291D01*
X-32291D02*
Y-1386D01*
X-27673D02*
X-27173D01*
X-27673D02*
Y-386D01*
X-27173D01*
Y114D01*
X-26173D01*
Y-386D02*
Y114D01*
Y-386D02*
X-25673D01*
Y-1386D02*
Y-386D01*
X-26173Y-1386D02*
X-25673D01*
X-26173Y-1886D02*
Y-1386D01*
X-27173Y-1886D02*
X-26173D01*
X-27173D02*
Y-1386D01*
X-37811Y9146D02*
X-37311D01*
X-37811D02*
Y10146D01*
X-37311D01*
Y10646D01*
X-36311D01*
Y10146D02*
Y10646D01*
Y10146D02*
X-35811D01*
Y9146D02*
Y10146D01*
X-36311Y9146D02*
X-35811D01*
X-36311Y8646D02*
Y9146D01*
X-37311Y8646D02*
X-36311D01*
X-37311D02*
Y9146D01*
X-27870D02*
X-27370D01*
X-27870D02*
Y10146D01*
X-27370D01*
Y10646D01*
X-26370D01*
Y10146D02*
Y10646D01*
Y10146D02*
X-25870D01*
Y9146D02*
Y10146D01*
X-26370Y9146D02*
X-25870D01*
X-26370Y8646D02*
Y9146D01*
X-27370Y8646D02*
X-26370D01*
X-27370D02*
Y9146D01*
X-32841D02*
X-32341D01*
X-32841D02*
Y10146D01*
X-32341D01*
Y10646D01*
X-31341D01*
Y10146D02*
Y10646D01*
Y10146D02*
X-30841D01*
Y9146D02*
Y10146D01*
X-31341Y9146D02*
X-30841D01*
X-31341Y8646D02*
Y9146D01*
X-32341Y8646D02*
X-31341D01*
X-32341D02*
Y9146D01*
X-31905Y42217D02*
X-31405D01*
X-31905D02*
Y43216D01*
X-31405D01*
Y43716D01*
X-30406D01*
Y43216D02*
Y43716D01*
Y43216D02*
X-29906D01*
Y42217D02*
Y43216D01*
X-30406Y42217D02*
X-29906D01*
X-30406Y41717D02*
Y42217D01*
X-31405Y41717D02*
X-30406D01*
X-31405D02*
Y42217D01*
X-119996Y23319D02*
X-119496D01*
X-119996D02*
Y24319D01*
X-119496D01*
Y24819D01*
X-118496D01*
Y24319D02*
Y24819D01*
Y24319D02*
X-117996D01*
Y23319D02*
Y24319D01*
X-118496Y23319D02*
X-117996D01*
X-118496Y22819D02*
Y23319D01*
X-119496Y22819D02*
X-118496D01*
X-119496D02*
Y23319D01*
X-115469D02*
X-114969D01*
X-115469D02*
Y24319D01*
X-114969D01*
Y24819D01*
X-113969D01*
Y24319D02*
Y24819D01*
Y24319D02*
X-113469D01*
Y23319D02*
Y24319D01*
X-113969Y23319D02*
X-113469D01*
X-113969Y22819D02*
Y23319D01*
X-114969Y22819D02*
X-113969D01*
X-114969D02*
Y23319D01*
X-110941D02*
X-110441D01*
X-110941D02*
Y24319D01*
X-110441D01*
Y24819D01*
X-109441D01*
Y24319D02*
Y24819D01*
Y24319D02*
X-108941D01*
Y23319D02*
Y24319D01*
X-109441Y23319D02*
X-108941D01*
X-109441Y22819D02*
Y23319D01*
X-110441Y22819D02*
X-109441D01*
X-110441D02*
Y23319D01*
X-53362Y-35736D02*
X-52862D01*
X-53362D02*
Y-34736D01*
X-52862D01*
Y-34236D01*
X-51862D01*
Y-34736D02*
Y-34236D01*
Y-34736D02*
X-51362D01*
Y-35736D02*
Y-34736D01*
X-51862Y-35736D02*
X-51362D01*
X-51862Y-36236D02*
Y-35736D01*
X-52862Y-36236D02*
X-51862D01*
X-52862D02*
Y-35736D01*
X-64681Y16724D02*
X-64181D01*
X-64681D02*
Y17724D01*
X-64181D01*
Y18224D01*
X-63181D01*
Y17724D02*
Y18224D01*
Y17724D02*
X-62681D01*
Y16724D02*
Y17724D01*
X-63181Y16724D02*
X-62681D01*
X-63181Y16224D02*
Y16724D01*
X-64181Y16224D02*
X-63181D01*
X-64181D02*
Y16724D01*
X-60646Y16626D02*
X-60146D01*
X-60646D02*
Y17626D01*
X-60146D01*
Y18126D01*
X-59146D01*
Y17626D02*
Y18126D01*
Y17626D02*
X-58646D01*
Y16626D02*
Y17626D01*
X-59146Y16626D02*
X-58646D01*
X-59146Y16126D02*
Y16626D01*
X-60146Y16126D02*
X-59146D01*
X-60146D02*
Y16626D01*
X-15469Y27158D02*
X-14968D01*
X-15469D02*
Y28157D01*
X-14968D01*
Y28657D01*
X-13969D01*
Y28157D02*
Y28657D01*
Y28157D02*
X-13468D01*
Y27158D02*
Y28157D01*
X-13969Y27158D02*
X-13468D01*
X-13969Y26658D02*
Y27158D01*
X-14968Y26658D02*
X-13969D01*
X-14968D02*
Y27158D01*
X95752Y-44890D02*
X96252D01*
X95752D02*
Y-43890D01*
X96252D01*
Y-43390D01*
X97252D01*
Y-43890D02*
Y-43390D01*
Y-43890D02*
X97752D01*
Y-44890D02*
Y-43890D01*
X97252Y-44890D02*
X97752D01*
X97252Y-45390D02*
Y-44890D01*
X96252Y-45390D02*
X97252D01*
X96252D02*
Y-44890D01*
X71441Y-52862D02*
X71941D01*
X71441D02*
Y-51862D01*
X71941D01*
Y-51362D01*
X72941D01*
Y-51862D02*
Y-51362D01*
Y-51862D02*
X73441D01*
Y-52862D02*
Y-51862D01*
X72941Y-52862D02*
X73441D01*
X72941Y-53362D02*
Y-52862D01*
X71941Y-53362D02*
X72941D01*
X71941D02*
Y-52862D01*
X73902Y-62114D02*
X74402D01*
X73902D02*
Y-61114D01*
X74402D01*
Y-60614D01*
X75402D01*
Y-61114D02*
Y-60614D01*
Y-61114D02*
X75902D01*
Y-62114D02*
Y-61114D01*
X75402Y-62114D02*
X75902D01*
X75402Y-62614D02*
Y-62114D01*
X74402Y-62614D02*
X75402D01*
X74402D02*
Y-62114D01*
X148606Y57079D02*
X149106D01*
X148606D02*
Y58079D01*
X149106D01*
Y58579D01*
X150106D01*
Y58079D02*
Y58579D01*
Y58079D02*
X150606D01*
Y57079D02*
Y58079D01*
X150106Y57079D02*
X150606D01*
X150106Y56579D02*
Y57079D01*
X149106Y56579D02*
X150106D01*
X149106D02*
Y57079D01*
X168291Y-34227D02*
X168791D01*
X168291D02*
Y-33227D01*
X168791D01*
Y-32727D01*
X169791D01*
Y-33227D02*
Y-32727D01*
Y-33227D02*
X170291D01*
Y-34227D02*
Y-33227D01*
X169791Y-34227D02*
X170291D01*
X169791Y-34727D02*
Y-34227D01*
X168791Y-34727D02*
X169791D01*
X168791D02*
Y-34227D01*
X168291Y-41773D02*
X168791D01*
X168291D02*
Y-40773D01*
X168791D01*
Y-40273D01*
X169791D01*
Y-40773D02*
Y-40273D01*
Y-40773D02*
X170291D01*
Y-41773D02*
Y-40773D01*
X169791Y-41773D02*
X170291D01*
X169791Y-42273D02*
Y-41773D01*
X168791Y-42273D02*
X169791D01*
X168791D02*
Y-41773D01*
X168291Y-49319D02*
X168791D01*
X168291D02*
Y-48319D01*
X168791D01*
Y-47819D01*
X169791D01*
Y-48319D02*
Y-47819D01*
Y-48319D02*
X170291D01*
Y-49319D02*
Y-48319D01*
X169791Y-49319D02*
X170291D01*
X169791Y-49819D02*
Y-49319D01*
X168791Y-49819D02*
X169791D01*
X168791D02*
Y-49319D01*
X168291Y-26681D02*
X168791D01*
X168291D02*
Y-25681D01*
X168791D01*
Y-25181D01*
X169791D01*
Y-25681D02*
Y-25181D01*
Y-25681D02*
X170291D01*
Y-26681D02*
Y-25681D01*
X169791Y-26681D02*
X170291D01*
X169791Y-27181D02*
Y-26681D01*
X168791Y-27181D02*
X169791D01*
X168791D02*
Y-26681D01*
X-165469Y40642D02*
X-164969D01*
X-165469D02*
Y41642D01*
X-164969D01*
Y42142D01*
X-163969D01*
Y41642D02*
Y42142D01*
Y41642D02*
X-163469D01*
Y40642D02*
Y41642D01*
X-163969Y40642D02*
X-163469D01*
X-163969Y40142D02*
Y40642D01*
X-164969Y40142D02*
X-163969D01*
X-164969D02*
Y40642D01*
X-165469Y30393D02*
X-164969D01*
X-165469D02*
Y31393D01*
X-164969D01*
Y31893D01*
X-163969D01*
Y31393D02*
Y31893D01*
Y31393D02*
X-163469D01*
Y30393D02*
Y31393D01*
X-163969Y30393D02*
X-163469D01*
X-163969Y29893D02*
Y30393D01*
X-164969Y29893D02*
X-163969D01*
X-164969D02*
Y30393D01*
X-165469Y20145D02*
X-164969D01*
X-165469D02*
Y21145D01*
X-164969D01*
Y21645D01*
X-163969D01*
Y21145D02*
Y21645D01*
Y21145D02*
X-163469D01*
Y20145D02*
Y21145D01*
X-163969Y20145D02*
X-163469D01*
X-163969Y19645D02*
Y20145D01*
X-164969Y19645D02*
X-163969D01*
X-164969D02*
Y20145D01*
X-165469Y9896D02*
X-164969D01*
X-165469D02*
Y10896D01*
X-164969D01*
Y11396D01*
X-163969D01*
Y10896D02*
Y11396D01*
Y10896D02*
X-163469D01*
Y9896D02*
Y10896D01*
X-163969Y9896D02*
X-163469D01*
X-163969Y9396D02*
Y9896D01*
X-164969Y9396D02*
X-163969D01*
X-164969D02*
Y9896D01*
X-165469Y-352D02*
X-164969D01*
X-165469D02*
Y648D01*
X-164969D01*
Y1148D01*
X-163969D01*
Y648D02*
Y1148D01*
Y648D02*
X-163469D01*
Y-352D02*
Y648D01*
X-163969Y-352D02*
X-163469D01*
X-163969Y-852D02*
Y-352D01*
X-164969Y-852D02*
X-163969D01*
X-164969D02*
Y-352D01*
X-165469Y-10601D02*
X-164969D01*
X-165469D02*
Y-9601D01*
X-164969D01*
Y-9101D01*
X-163969D01*
Y-9601D02*
Y-9101D01*
Y-9601D02*
X-163469D01*
Y-10601D02*
Y-9601D01*
X-163969Y-10601D02*
X-163469D01*
X-163969Y-11101D02*
Y-10601D01*
X-164969Y-11101D02*
X-163969D01*
X-164969D02*
Y-10601D01*
X-165469Y-20849D02*
X-164969D01*
X-165469D02*
Y-19849D01*
X-164969D01*
Y-19349D01*
X-163969D01*
Y-19849D02*
Y-19349D01*
Y-19849D02*
X-163469D01*
Y-20849D02*
Y-19849D01*
X-163969Y-20849D02*
X-163469D01*
X-163969Y-21349D02*
Y-20849D01*
X-164969Y-21349D02*
X-163969D01*
X-164969D02*
Y-20849D01*
X-165469Y-31098D02*
X-164969D01*
X-165469D02*
Y-30098D01*
X-164969D01*
Y-29598D01*
X-163969D01*
Y-30098D02*
Y-29598D01*
Y-30098D02*
X-163469D01*
Y-31098D02*
Y-30098D01*
X-163969Y-31098D02*
X-163469D01*
X-163969Y-31598D02*
Y-31098D01*
X-164969Y-31598D02*
X-163969D01*
X-164969D02*
Y-31098D01*
X-165469Y-41346D02*
X-164969D01*
X-165469D02*
Y-40347D01*
X-164969D01*
Y-39847D01*
X-163969D01*
Y-40347D02*
Y-39847D01*
Y-40347D02*
X-163469D01*
Y-41346D02*
Y-40347D01*
X-163969Y-41346D02*
X-163469D01*
X-163969Y-41846D02*
Y-41346D01*
X-164969Y-41846D02*
X-163969D01*
X-164969D02*
Y-41346D01*
X-159071Y-48236D02*
X-158571D01*
X-159071D02*
Y-47236D01*
X-158571D01*
Y-46736D01*
X-157571D01*
Y-47236D02*
Y-46736D01*
Y-47236D02*
X-157071D01*
Y-48236D02*
Y-47236D01*
X-157571Y-48236D02*
X-157071D01*
X-157571Y-48736D02*
Y-48236D01*
X-158571Y-48736D02*
X-157571D01*
X-158571D02*
Y-48236D01*
X-150508Y-55421D02*
X-150008D01*
X-150508D02*
Y-54421D01*
X-150008D01*
Y-53921D01*
X-149008D01*
Y-54421D02*
Y-53921D01*
Y-54421D02*
X-148508D01*
Y-55421D02*
Y-54421D01*
X-149008Y-55421D02*
X-148508D01*
X-149008Y-55921D02*
Y-55421D01*
X-150008Y-55921D02*
X-149008D01*
X-150008D02*
Y-55421D01*
X-150508Y-62410D02*
X-150008D01*
X-150508D02*
Y-61409D01*
X-150008D01*
Y-60909D01*
X-149008D01*
Y-61409D02*
Y-60909D01*
Y-61409D02*
X-148508D01*
Y-62410D02*
Y-61409D01*
X-149008Y-62410D02*
X-148508D01*
X-149008Y-62910D02*
Y-62410D01*
X-150008Y-62910D02*
X-149008D01*
X-150008D02*
Y-62410D01*
X-150508Y-69398D02*
X-150008D01*
X-150508D02*
Y-68398D01*
X-150008D01*
Y-67898D01*
X-149008D01*
Y-68398D02*
Y-67898D01*
Y-68398D02*
X-148508D01*
Y-69398D02*
Y-68398D01*
X-149008Y-69398D02*
X-148508D01*
X-149008Y-69898D02*
Y-69398D01*
X-150008Y-69898D02*
X-149008D01*
X-150008D02*
Y-69398D01*
X-154150Y-50303D02*
X-153650D01*
X-154150D02*
Y-49303D01*
X-153650D01*
Y-48803D01*
X-152650D01*
Y-49303D02*
Y-48803D01*
Y-49303D02*
X-152150D01*
Y-50303D02*
Y-49303D01*
X-152650Y-50303D02*
X-152150D01*
X-152650Y-50803D02*
Y-50303D01*
X-153650Y-50803D02*
X-152650D01*
X-153650D02*
Y-50303D01*
X-165124Y-48236D02*
X-164624D01*
X-165124D02*
Y-47236D01*
X-164624D01*
Y-46736D01*
X-163624D01*
Y-47236D02*
Y-46736D01*
Y-47236D02*
X-163124D01*
Y-48236D02*
Y-47236D01*
X-163624Y-48236D02*
X-163124D01*
X-163624Y-48736D02*
Y-48236D01*
X-164624Y-48736D02*
X-163624D01*
X-164624D02*
Y-48236D01*
X-171177D02*
X-170677D01*
X-171177D02*
Y-47236D01*
X-170677D01*
Y-46736D01*
X-169677D01*
Y-47236D02*
Y-46736D01*
Y-47236D02*
X-169177D01*
Y-48236D02*
Y-47236D01*
X-169677Y-48236D02*
X-169177D01*
X-169677Y-48736D02*
Y-48236D01*
X-170677Y-48736D02*
X-169677D01*
X-170677D02*
Y-48236D01*
X-149031Y68890D02*
X-148531D01*
X-149031D02*
Y69890D01*
X-148531D01*
Y70390D01*
X-147531D01*
Y69890D02*
Y70390D01*
Y69890D02*
X-147031D01*
Y68890D02*
Y69890D01*
X-147531Y68890D02*
X-147031D01*
X-147531Y68390D02*
Y68890D01*
X-148531Y68390D02*
X-147531D01*
X-148531D02*
Y68890D01*
X-149031Y62837D02*
X-148531D01*
X-149031D02*
Y63837D01*
X-148531D01*
Y64337D01*
X-147531D01*
Y63837D02*
Y64337D01*
Y63837D02*
X-147031D01*
Y62837D02*
Y63837D01*
X-147531Y62837D02*
X-147031D01*
X-147531Y62337D02*
Y62837D01*
X-148531Y62337D02*
X-147531D01*
X-148531D02*
Y62837D01*
X-151098Y51862D02*
X-150598D01*
X-151098D02*
Y52862D01*
X-150598D01*
Y53362D01*
X-149598D01*
Y52862D02*
Y53362D01*
Y52862D02*
X-149098D01*
Y51862D02*
Y52862D01*
X-149598Y51862D02*
X-149098D01*
X-149598Y51362D02*
Y51862D01*
X-150598Y51362D02*
X-149598D01*
X-150598D02*
Y51862D01*
X-170193Y48221D02*
X-169693D01*
X-170193D02*
Y49220D01*
X-169693D01*
Y49720D01*
X-168693D01*
Y49220D02*
Y49720D01*
Y49220D02*
X-168193D01*
Y48221D02*
Y49220D01*
X-168693Y48221D02*
X-168193D01*
X-168693Y47721D02*
Y48221D01*
X-169693Y47721D02*
X-168693D01*
X-169693D02*
Y48221D01*
X-163205D02*
X-162705D01*
X-163205D02*
Y49220D01*
X-162705D01*
Y49720D01*
X-161705D01*
Y49220D02*
Y49720D01*
Y49220D02*
X-161205D01*
Y48221D02*
Y49220D01*
X-161705Y48221D02*
X-161205D01*
X-161705Y47721D02*
Y48221D01*
X-162705Y47721D02*
X-161705D01*
X-162705D02*
Y48221D01*
X-156217D02*
X-155717D01*
X-156217D02*
Y49220D01*
X-155717D01*
Y49720D01*
X-154717D01*
Y49220D02*
Y49720D01*
Y49220D02*
X-154217D01*
Y48221D02*
Y49220D01*
X-154717Y48221D02*
X-154217D01*
X-154717Y47721D02*
Y48221D01*
X-155717Y47721D02*
X-154717D01*
X-155717D02*
Y48221D01*
X-149031Y56783D02*
X-148531D01*
X-149031D02*
Y57784D01*
X-148531D01*
Y58284D01*
X-147531D01*
Y57784D02*
Y58284D01*
Y57784D02*
X-147031D01*
Y56783D02*
Y57784D01*
X-147531Y56783D02*
X-147031D01*
X-147531Y56283D02*
Y56783D01*
X-148531Y56283D02*
X-147531D01*
X-148531D02*
Y56783D01*
X147327Y-70579D02*
X147827D01*
X147327D02*
Y-69579D01*
X147827D01*
Y-69079D01*
X148827D01*
Y-69579D02*
Y-69079D01*
Y-69579D02*
X149327D01*
Y-70579D02*
Y-69579D01*
X148827Y-70579D02*
X149327D01*
X148827Y-71079D02*
Y-70579D01*
X147827Y-71079D02*
X148827D01*
X147827D02*
Y-70579D01*
X147327Y-64526D02*
X147827D01*
X147327D02*
Y-63526D01*
X147827D01*
Y-63026D01*
X148827D01*
Y-63526D02*
Y-63026D01*
Y-63526D02*
X149327D01*
Y-64526D02*
Y-63526D01*
X148827Y-64526D02*
X149327D01*
X148827Y-65026D02*
Y-64526D01*
X147827Y-65026D02*
X148827D01*
X147827D02*
Y-64526D01*
X147327Y-58472D02*
X147827D01*
X147327D02*
Y-57472D01*
X147827D01*
Y-56972D01*
X148827D01*
Y-57472D02*
Y-56972D01*
Y-57472D02*
X149327D01*
Y-58472D02*
Y-57472D01*
X148827Y-58472D02*
X149327D01*
X148827Y-58972D02*
Y-58472D01*
X147827Y-58972D02*
X148827D01*
X147827D02*
Y-58472D01*
X149394Y-53551D02*
X149894D01*
X149394D02*
Y-52551D01*
X149894D01*
Y-52051D01*
X150894D01*
Y-52551D02*
Y-52051D01*
Y-52551D02*
X151394D01*
Y-53551D02*
Y-52551D01*
X150894Y-53551D02*
X151394D01*
X150894Y-54051D02*
Y-53551D01*
X149894Y-54051D02*
X150894D01*
X149894D02*
Y-53551D01*
X154512Y-49909D02*
X155012D01*
X154512D02*
Y-48909D01*
X155012D01*
Y-48409D01*
X156012D01*
Y-48909D02*
Y-48409D01*
Y-48909D02*
X156512D01*
Y-49909D02*
Y-48909D01*
X156012Y-49909D02*
X156512D01*
X156012Y-50409D02*
Y-49909D01*
X155012Y-50409D02*
X156012D01*
X155012D02*
Y-49909D01*
X161500D02*
X162000D01*
X161500D02*
Y-48909D01*
X162000D01*
Y-48409D01*
X163000D01*
Y-48909D02*
Y-48409D01*
Y-48909D02*
X163500D01*
Y-49909D02*
Y-48909D01*
X163000Y-49909D02*
X163500D01*
X163000Y-50409D02*
Y-49909D01*
X162000Y-50409D02*
X163000D01*
X162000D02*
Y-49909D01*
X-58040Y68988D02*
X-57540D01*
X-58040D02*
Y69988D01*
X-57540D01*
Y70488D01*
X-56540D01*
Y69988D02*
Y70488D01*
Y69988D02*
X-56040D01*
Y68988D02*
Y69988D01*
X-56540Y68988D02*
X-56040D01*
X-56540Y68488D02*
Y68988D01*
X-57540Y68488D02*
X-56540D01*
X-57540D02*
Y68988D01*
X-68282D02*
X-67782D01*
X-68282D02*
Y69988D01*
X-67782D01*
Y70488D01*
X-66782D01*
Y69988D02*
Y70488D01*
Y69988D02*
X-66282D01*
Y68988D02*
Y69988D01*
X-66782Y68988D02*
X-66282D01*
X-66782Y68488D02*
Y68988D01*
X-67782Y68488D02*
X-66782D01*
X-67782D02*
Y68988D01*
X-78524D02*
X-78024D01*
X-78524D02*
Y69988D01*
X-78024D01*
Y70488D01*
X-77024D01*
Y69988D02*
Y70488D01*
Y69988D02*
X-76524D01*
Y68988D02*
Y69988D01*
X-77024Y68988D02*
X-76524D01*
X-77024Y68488D02*
Y68988D01*
X-78024Y68488D02*
X-77024D01*
X-78024D02*
Y68988D01*
X-88766D02*
X-88266D01*
X-88766D02*
Y69988D01*
X-88266D01*
Y70488D01*
X-87266D01*
Y69988D02*
Y70488D01*
Y69988D02*
X-86766D01*
Y68988D02*
Y69988D01*
X-87266Y68988D02*
X-86766D01*
X-87266Y68488D02*
Y68988D01*
X-88266Y68488D02*
X-87266D01*
X-88266D02*
Y68988D01*
X-99008D02*
X-98508D01*
X-99008D02*
Y69988D01*
X-98508D01*
Y70488D01*
X-97508D01*
Y69988D02*
Y70488D01*
Y69988D02*
X-97008D01*
Y68988D02*
Y69988D01*
X-97508Y68988D02*
X-97008D01*
X-97508Y68488D02*
Y68988D01*
X-98508Y68488D02*
X-97508D01*
X-98508D02*
Y68988D01*
X-109250D02*
X-108750D01*
X-109250D02*
Y69988D01*
X-108750D01*
Y70488D01*
X-107750D01*
Y69988D02*
Y70488D01*
Y69988D02*
X-107250D01*
Y68988D02*
Y69988D01*
X-107750Y68988D02*
X-107250D01*
X-107750Y68488D02*
Y68988D01*
X-108750Y68488D02*
X-107750D01*
X-108750D02*
Y68988D01*
X-119492D02*
X-118992D01*
X-119492D02*
Y69988D01*
X-118992D01*
Y70488D01*
X-117992D01*
Y69988D02*
Y70488D01*
Y69988D02*
X-117492D01*
Y68988D02*
Y69988D01*
X-117992Y68988D02*
X-117492D01*
X-117992Y68488D02*
Y68988D01*
X-118992Y68488D02*
X-117992D01*
X-118992D02*
Y68988D01*
X-129734D02*
X-129234D01*
X-129734D02*
Y69988D01*
X-129234D01*
Y70488D01*
X-128234D01*
Y69988D02*
Y70488D01*
Y69988D02*
X-127734D01*
Y68988D02*
Y69988D01*
X-128234Y68988D02*
X-127734D01*
X-128234Y68488D02*
Y68988D01*
X-129234Y68488D02*
X-128234D01*
X-129234D02*
Y68988D01*
X-139976D02*
X-139476D01*
X-139976D02*
Y69988D01*
X-139476D01*
Y70488D01*
X-138476D01*
Y69988D02*
Y70488D01*
Y69988D02*
X-137976D01*
Y68988D02*
Y69988D01*
X-138476Y68988D02*
X-137976D01*
X-138476Y68488D02*
Y68988D01*
X-139476Y68488D02*
X-138476D01*
X-139476D02*
Y68988D01*
X34138D02*
X34638D01*
X34138D02*
Y69988D01*
X34638D01*
Y70488D01*
X35638D01*
Y69988D02*
Y70488D01*
Y69988D02*
X36138D01*
Y68988D02*
Y69988D01*
X35638Y68988D02*
X36138D01*
X35638Y68488D02*
Y68988D01*
X34638Y68488D02*
X35638D01*
X34638D02*
Y68988D01*
X23896D02*
X24396D01*
X23896D02*
Y69988D01*
X24396D01*
Y70488D01*
X25396D01*
Y69988D02*
Y70488D01*
Y69988D02*
X25896D01*
Y68988D02*
Y69988D01*
X25396Y68988D02*
X25896D01*
X25396Y68488D02*
Y68988D01*
X24396Y68488D02*
X25396D01*
X24396D02*
Y68988D01*
X13654D02*
X14154D01*
X13654D02*
Y69988D01*
X14154D01*
Y70488D01*
X15154D01*
Y69988D02*
Y70488D01*
Y69988D02*
X15654D01*
Y68988D02*
Y69988D01*
X15154Y68988D02*
X15654D01*
X15154Y68488D02*
Y68988D01*
X14154Y68488D02*
X15154D01*
X14154D02*
Y68988D01*
X3412D02*
X3912D01*
X3412D02*
Y69988D01*
X3912D01*
Y70488D01*
X4912D01*
Y69988D02*
Y70488D01*
Y69988D02*
X5412D01*
Y68988D02*
Y69988D01*
X4912Y68988D02*
X5412D01*
X4912Y68488D02*
Y68988D01*
X3912Y68488D02*
X4912D01*
X3912D02*
Y68988D01*
X-6830D02*
X-6330D01*
X-6830D02*
Y69988D01*
X-6330D01*
Y70488D01*
X-5330D01*
Y69988D02*
Y70488D01*
Y69988D02*
X-4830D01*
Y68988D02*
Y69988D01*
X-5330Y68988D02*
X-4830D01*
X-5330Y68488D02*
Y68988D01*
X-6330Y68488D02*
X-5330D01*
X-6330D02*
Y68988D01*
X-17072D02*
X-16572D01*
X-17072D02*
Y69988D01*
X-16572D01*
Y70488D01*
X-15572D01*
Y69988D02*
Y70488D01*
Y69988D02*
X-15072D01*
Y68988D02*
Y69988D01*
X-15572Y68988D02*
X-15072D01*
X-15572Y68488D02*
Y68988D01*
X-16572Y68488D02*
X-15572D01*
X-16572D02*
Y68988D01*
X-27314D02*
X-26814D01*
X-27314D02*
Y69988D01*
X-26814D01*
Y70488D01*
X-25814D01*
Y69988D02*
Y70488D01*
Y69988D02*
X-25314D01*
Y68988D02*
Y69988D01*
X-25814Y68988D02*
X-25314D01*
X-25814Y68488D02*
Y68988D01*
X-26814Y68488D02*
X-25814D01*
X-26814D02*
Y68988D01*
X-37556D02*
X-37056D01*
X-37556D02*
Y69988D01*
X-37056D01*
Y70488D01*
X-36056D01*
Y69988D02*
Y70488D01*
Y69988D02*
X-35556D01*
Y68988D02*
Y69988D01*
X-36056Y68988D02*
X-35556D01*
X-36056Y68488D02*
Y68988D01*
X-37056Y68488D02*
X-36056D01*
X-37056D02*
Y68988D01*
X-47798D02*
X-47298D01*
X-47798D02*
Y69988D01*
X-47298D01*
Y70488D01*
X-46298D01*
Y69988D02*
Y70488D01*
Y69988D02*
X-45798D01*
Y68988D02*
Y69988D01*
X-46298Y68988D02*
X-45798D01*
X-46298Y68488D02*
Y68988D01*
X-47298Y68488D02*
X-46298D01*
X-47298D02*
Y68988D01*
X17898Y-70874D02*
X18398D01*
X17898D02*
Y-69874D01*
X18398D01*
Y-69374D01*
X19398D01*
Y-69874D02*
Y-69374D01*
Y-69874D02*
X19898D01*
Y-70874D02*
Y-69874D01*
X19398Y-70874D02*
X19898D01*
X19398Y-71374D02*
Y-70874D01*
X18398Y-71374D02*
X19398D01*
X18398D02*
Y-70874D01*
X-143815D02*
X-143315D01*
X-143815D02*
Y-69874D01*
X-143315D01*
Y-69374D01*
X-142315D01*
Y-69874D02*
Y-69374D01*
Y-69874D02*
X-141815D01*
Y-70874D02*
Y-69874D01*
X-142315Y-70874D02*
X-141815D01*
X-142315Y-71374D02*
Y-70874D01*
X-143315Y-71374D02*
X-142315D01*
X-143315D02*
Y-70874D01*
X-133708D02*
X-133208D01*
X-133708D02*
Y-69874D01*
X-133208D01*
Y-69374D01*
X-132208D01*
Y-69874D02*
Y-69374D01*
Y-69874D02*
X-131708D01*
Y-70874D02*
Y-69874D01*
X-132208Y-70874D02*
X-131708D01*
X-132208Y-71374D02*
Y-70874D01*
X-133208Y-71374D02*
X-132208D01*
X-133208D02*
Y-70874D01*
X-123601D02*
X-123101D01*
X-123601D02*
Y-69874D01*
X-123101D01*
Y-69374D01*
X-122101D01*
Y-69874D02*
Y-69374D01*
Y-69874D02*
X-121601D01*
Y-70874D02*
Y-69874D01*
X-122101Y-70874D02*
X-121601D01*
X-122101Y-71374D02*
Y-70874D01*
X-123101Y-71374D02*
X-122101D01*
X-123101D02*
Y-70874D01*
X-113494D02*
X-112994D01*
X-113494D02*
Y-69874D01*
X-112994D01*
Y-69374D01*
X-111994D01*
Y-69874D02*
Y-69374D01*
Y-69874D02*
X-111494D01*
Y-70874D02*
Y-69874D01*
X-111994Y-70874D02*
X-111494D01*
X-111994Y-71374D02*
Y-70874D01*
X-112994Y-71374D02*
X-111994D01*
X-112994D02*
Y-70874D01*
X-103387D02*
X-102887D01*
X-103387D02*
Y-69874D01*
X-102887D01*
Y-69374D01*
X-101887D01*
Y-69874D02*
Y-69374D01*
Y-69874D02*
X-101387D01*
Y-70874D02*
Y-69874D01*
X-101887Y-70874D02*
X-101387D01*
X-101887Y-71374D02*
Y-70874D01*
X-102887Y-71374D02*
X-101887D01*
X-102887D02*
Y-70874D01*
X-93280D02*
X-92780D01*
X-93280D02*
Y-69874D01*
X-92780D01*
Y-69374D01*
X-91780D01*
Y-69874D02*
Y-69374D01*
Y-69874D02*
X-91280D01*
Y-70874D02*
Y-69874D01*
X-91780Y-70874D02*
X-91280D01*
X-91780Y-71374D02*
Y-70874D01*
X-92780Y-71374D02*
X-91780D01*
X-92780D02*
Y-70874D01*
X-83173D02*
X-82673D01*
X-83173D02*
Y-69874D01*
X-82673D01*
Y-69374D01*
X-81673D01*
Y-69874D02*
Y-69374D01*
Y-69874D02*
X-81173D01*
Y-70874D02*
Y-69874D01*
X-81673Y-70874D02*
X-81173D01*
X-81673Y-71374D02*
Y-70874D01*
X-82673Y-71374D02*
X-81673D01*
X-82673D02*
Y-70874D01*
X-73066D02*
X-72566D01*
X-73066D02*
Y-69874D01*
X-72566D01*
Y-69374D01*
X-71566D01*
Y-69874D02*
Y-69374D01*
Y-69874D02*
X-71066D01*
Y-70874D02*
Y-69874D01*
X-71566Y-70874D02*
X-71066D01*
X-71566Y-71374D02*
Y-70874D01*
X-72566Y-71374D02*
X-71566D01*
X-72566D02*
Y-70874D01*
X-62959D02*
X-62459D01*
X-62959D02*
Y-69874D01*
X-62459D01*
Y-69374D01*
X-61459D01*
Y-69874D02*
Y-69374D01*
Y-69874D02*
X-60959D01*
Y-70874D02*
Y-69874D01*
X-61459Y-70874D02*
X-60959D01*
X-61459Y-71374D02*
Y-70874D01*
X-62459Y-71374D02*
X-61459D01*
X-62459D02*
Y-70874D01*
X-52852D02*
X-52352D01*
X-52852D02*
Y-69874D01*
X-52352D01*
Y-69374D01*
X-51352D01*
Y-69874D02*
Y-69374D01*
Y-69874D02*
X-50852D01*
Y-70874D02*
Y-69874D01*
X-51352Y-70874D02*
X-50852D01*
X-51352Y-71374D02*
Y-70874D01*
X-52352Y-71374D02*
X-51352D01*
X-52352D02*
Y-70874D01*
X-42745D02*
X-42245D01*
X-42745D02*
Y-69874D01*
X-42245D01*
Y-69374D01*
X-41245D01*
Y-69874D02*
Y-69374D01*
Y-69874D02*
X-40745D01*
Y-70874D02*
Y-69874D01*
X-41245Y-70874D02*
X-40745D01*
X-41245Y-71374D02*
Y-70874D01*
X-42245Y-71374D02*
X-41245D01*
X-42245D02*
Y-70874D01*
X-32638D02*
X-32138D01*
X-32638D02*
Y-69874D01*
X-32138D01*
Y-69374D01*
X-31138D01*
Y-69874D02*
Y-69374D01*
Y-69874D02*
X-30638D01*
Y-70874D02*
Y-69874D01*
X-31138Y-70874D02*
X-30638D01*
X-31138Y-71374D02*
Y-70874D01*
X-32138Y-71374D02*
X-31138D01*
X-32138D02*
Y-70874D01*
X-22531D02*
X-22031D01*
X-22531D02*
Y-69874D01*
X-22031D01*
Y-69374D01*
X-21031D01*
Y-69874D02*
Y-69374D01*
Y-69874D02*
X-20531D01*
Y-70874D02*
Y-69874D01*
X-21031Y-70874D02*
X-20531D01*
X-21031Y-71374D02*
Y-70874D01*
X-22031Y-71374D02*
X-21031D01*
X-22031D02*
Y-70874D01*
X-12423D02*
X-11924D01*
X-12423D02*
Y-69874D01*
X-11924D01*
Y-69374D01*
X-10924D01*
Y-69874D02*
Y-69374D01*
Y-69874D02*
X-10424D01*
Y-70874D02*
Y-69874D01*
X-10924Y-70874D02*
X-10424D01*
X-10924Y-71374D02*
Y-70874D01*
X-11924Y-71374D02*
X-10924D01*
X-11924D02*
Y-70874D01*
X-2317D02*
X-1816D01*
X-2317D02*
Y-69874D01*
X-1816D01*
Y-69374D01*
X-817D01*
Y-69874D02*
Y-69374D01*
Y-69874D02*
X-316D01*
Y-70874D02*
Y-69874D01*
X-817Y-70874D02*
X-316D01*
X-817Y-71374D02*
Y-70874D01*
X-1816Y-71374D02*
X-817D01*
X-1816D02*
Y-70874D01*
X7790D02*
X8291D01*
X7790D02*
Y-69874D01*
X8291D01*
Y-69374D01*
X9290D01*
Y-69874D02*
Y-69374D01*
Y-69874D02*
X9791D01*
Y-70874D02*
Y-69874D01*
X9290Y-70874D02*
X9791D01*
X9290Y-71374D02*
Y-70874D01*
X8291Y-71374D02*
X9290D01*
X8291D02*
Y-70874D01*
X143685Y33654D02*
X144185D01*
X143685D02*
Y34653D01*
X144185D01*
Y35153D01*
X145185D01*
Y34653D02*
Y35153D01*
Y34653D02*
X145685D01*
Y33654D02*
Y34653D01*
X145185Y33654D02*
X145685D01*
X145185Y33154D02*
Y33654D01*
X144185Y33154D02*
X145185D01*
X144185D02*
Y33654D01*
X116077D02*
X116577D01*
X116077D02*
Y34653D01*
X116577D01*
Y35153D01*
X117577D01*
Y34653D02*
Y35153D01*
Y34653D02*
X118077D01*
Y33654D02*
Y34653D01*
X117577Y33654D02*
X118077D01*
X117577Y33154D02*
Y33654D01*
X116577Y33154D02*
X117577D01*
X116577D02*
Y33654D01*
X106874D02*
X107374D01*
X106874D02*
Y34653D01*
X107374D01*
Y35153D01*
X108374D01*
Y34653D02*
Y35153D01*
Y34653D02*
X108874D01*
Y33654D02*
Y34653D01*
X108374Y33654D02*
X108874D01*
X108374Y33154D02*
Y33654D01*
X107374Y33154D02*
X108374D01*
X107374D02*
Y33654D01*
X88468D02*
X88968D01*
X88468D02*
Y34653D01*
X88968D01*
Y35153D01*
X89969D01*
Y34653D02*
Y35153D01*
Y34653D02*
X90469D01*
Y33654D02*
Y34653D01*
X89969Y33654D02*
X90469D01*
X89969Y33154D02*
Y33654D01*
X88968Y33154D02*
X89969D01*
X88968D02*
Y33654D01*
X143685Y25287D02*
X144185D01*
X143685D02*
Y26287D01*
X144185D01*
Y26787D01*
X145185D01*
Y26287D02*
Y26787D01*
Y26287D02*
X145685D01*
Y25287D02*
Y26287D01*
X145185Y25287D02*
X145685D01*
X145185Y24787D02*
Y25287D01*
X144185Y24787D02*
X145185D01*
X144185D02*
Y25287D01*
X125279D02*
X125779D01*
X125279D02*
Y26287D01*
X125779D01*
Y26787D01*
X126779D01*
Y26287D02*
Y26787D01*
Y26287D02*
X127279D01*
Y25287D02*
Y26287D01*
X126779Y25287D02*
X127279D01*
X126779Y24787D02*
Y25287D01*
X125779Y24787D02*
X126779D01*
X125779D02*
Y25287D01*
X116077D02*
X116577D01*
X116077D02*
Y26287D01*
X116577D01*
Y26787D01*
X117577D01*
Y26287D02*
Y26787D01*
Y26287D02*
X118077D01*
Y25287D02*
Y26287D01*
X117577Y25287D02*
X118077D01*
X117577Y24787D02*
Y25287D01*
X116577Y24787D02*
X117577D01*
X116577D02*
Y25287D01*
X106874D02*
X107374D01*
X106874D02*
Y26287D01*
X107374D01*
Y26787D01*
X108374D01*
Y26287D02*
Y26787D01*
Y26287D02*
X108874D01*
Y25287D02*
Y26287D01*
X108374Y25287D02*
X108874D01*
X108374Y24787D02*
Y25287D01*
X107374Y24787D02*
X108374D01*
X107374D02*
Y25287D01*
X88468D02*
X88968D01*
X88468D02*
Y26287D01*
X88968D01*
Y26787D01*
X89969D01*
Y26287D02*
Y26787D01*
Y26287D02*
X90469D01*
Y25287D02*
Y26287D01*
X89969Y25287D02*
X90469D01*
X89969Y24787D02*
Y25287D01*
X88968Y24787D02*
X89969D01*
X88968D02*
Y25287D01*
X143685Y16429D02*
X144185D01*
X143685D02*
Y17429D01*
X144185D01*
Y17929D01*
X145185D01*
Y17429D02*
Y17929D01*
Y17429D02*
X145685D01*
Y16429D02*
Y17429D01*
X145185Y16429D02*
X145685D01*
X145185Y15929D02*
Y16429D01*
X144185Y15929D02*
X145185D01*
X144185D02*
Y16429D01*
X134482D02*
X134982D01*
X134482D02*
Y17429D01*
X134982D01*
Y17929D01*
X135982D01*
Y17429D02*
Y17929D01*
Y17429D02*
X136482D01*
Y16429D02*
Y17429D01*
X135982Y16429D02*
X136482D01*
X135982Y15929D02*
Y16429D01*
X134982Y15929D02*
X135982D01*
X134982D02*
Y16429D01*
X97671D02*
X98171D01*
X97671D02*
Y17429D01*
X98171D01*
Y17929D01*
X99171D01*
Y17429D02*
Y17929D01*
Y17429D02*
X99671D01*
Y16429D02*
Y17429D01*
X99171Y16429D02*
X99671D01*
X99171Y15929D02*
Y16429D01*
X98171Y15929D02*
X99171D01*
X98171D02*
Y16429D01*
X88468D02*
X88968D01*
X88468D02*
Y17429D01*
X88968D01*
Y17929D01*
X89969D01*
Y17429D02*
Y17929D01*
Y17429D02*
X90469D01*
Y16429D02*
Y17429D01*
X89969Y16429D02*
X90469D01*
X89969Y15929D02*
Y16429D01*
X88968Y15929D02*
X89969D01*
X88968D02*
Y16429D01*
X143685Y6291D02*
X144185D01*
X143685D02*
Y7291D01*
X144185D01*
Y7791D01*
X145185D01*
Y7291D02*
Y7791D01*
Y7291D02*
X145685D01*
Y6291D02*
Y7291D01*
X145185Y6291D02*
X145685D01*
X145185Y5791D02*
Y6291D01*
X144185Y5791D02*
X145185D01*
X144185D02*
Y6291D01*
X134482D02*
X134982D01*
X134482D02*
Y7291D01*
X134982D01*
Y7791D01*
X135982D01*
Y7291D02*
Y7791D01*
Y7291D02*
X136482D01*
Y6291D02*
Y7291D01*
X135982Y6291D02*
X136482D01*
X135982Y5791D02*
Y6291D01*
X134982Y5791D02*
X135982D01*
X134982D02*
Y6291D01*
X88468D02*
X88968D01*
X88468D02*
Y7291D01*
X88968D01*
Y7791D01*
X89969D01*
Y7291D02*
Y7791D01*
Y7291D02*
X90469D01*
Y6291D02*
Y7291D01*
X89969Y6291D02*
X90469D01*
X89969Y5791D02*
Y6291D01*
X88968Y5791D02*
X89969D01*
X88968D02*
Y6291D01*
X143685Y-3354D02*
X144185D01*
X143685D02*
Y-2354D01*
X144185D01*
Y-1854D01*
X145185D01*
Y-2354D02*
Y-1854D01*
Y-2354D02*
X145685D01*
Y-3354D02*
Y-2354D01*
X145185Y-3354D02*
X145685D01*
X145185Y-3854D02*
Y-3354D01*
X144185Y-3854D02*
X145185D01*
X144185D02*
Y-3354D01*
X134482D02*
X134982D01*
X134482D02*
Y-2354D01*
X134982D01*
Y-1854D01*
X135982D01*
Y-2354D02*
Y-1854D01*
Y-2354D02*
X136482D01*
Y-3354D02*
Y-2354D01*
X135982Y-3354D02*
X136482D01*
X135982Y-3854D02*
Y-3354D01*
X134982Y-3854D02*
X135982D01*
X134982D02*
Y-3354D01*
X125279D02*
X125779D01*
X125279D02*
Y-2354D01*
X125779D01*
Y-1854D01*
X126779D01*
Y-2354D02*
Y-1854D01*
Y-2354D02*
X127279D01*
Y-3354D02*
Y-2354D01*
X126779Y-3354D02*
X127279D01*
X126779Y-3854D02*
Y-3354D01*
X125779Y-3854D02*
X126779D01*
X125779D02*
Y-3354D01*
X116077D02*
X116577D01*
X116077D02*
Y-2354D01*
X116577D01*
Y-1854D01*
X117577D01*
Y-2354D02*
Y-1854D01*
Y-2354D02*
X118077D01*
Y-3354D02*
Y-2354D01*
X117577Y-3354D02*
X118077D01*
X117577Y-3854D02*
Y-3354D01*
X116577Y-3854D02*
X117577D01*
X116577D02*
Y-3354D01*
X134482Y25287D02*
X134982D01*
X134482D02*
Y26287D01*
X134982D01*
Y26787D01*
X135982D01*
Y26287D02*
Y26787D01*
Y26287D02*
X136482D01*
Y25287D02*
Y26287D01*
X135982Y25287D02*
X136482D01*
X135982Y24787D02*
Y25287D01*
X134982Y24787D02*
X135982D01*
X134982D02*
Y25287D01*
X134482Y33654D02*
X134982D01*
X134482D02*
Y34653D01*
X134982D01*
Y35153D01*
X135982D01*
Y34653D02*
Y35153D01*
Y34653D02*
X136482D01*
Y33654D02*
Y34653D01*
X135982Y33654D02*
X136482D01*
X135982Y33154D02*
Y33654D01*
X134982Y33154D02*
X135982D01*
X134982D02*
Y33654D01*
X97671Y25287D02*
X98171D01*
X97671D02*
Y26287D01*
X98171D01*
Y26787D01*
X99171D01*
Y26287D02*
Y26787D01*
Y26287D02*
X99671D01*
Y25287D02*
Y26287D01*
X99171Y25287D02*
X99671D01*
X99171Y24787D02*
Y25287D01*
X98171Y24787D02*
X99171D01*
X98171D02*
Y25287D01*
X97671Y33654D02*
X98171D01*
X97671D02*
Y34653D01*
X98171D01*
Y35153D01*
X99171D01*
Y34653D02*
Y35153D01*
Y34653D02*
X99671D01*
Y33654D02*
Y34653D01*
X99171Y33654D02*
X99671D01*
X99171Y33154D02*
Y33654D01*
X98171Y33154D02*
X99171D01*
X98171D02*
Y33654D01*
X97671Y6291D02*
X98171D01*
X97671D02*
Y7291D01*
X98171D01*
Y7791D01*
X99171D01*
Y7291D02*
Y7791D01*
Y7291D02*
X99671D01*
Y6291D02*
Y7291D01*
X99171Y6291D02*
X99671D01*
X99171Y5791D02*
Y6291D01*
X98171Y5791D02*
X99171D01*
X98171D02*
Y6291D01*
X97671Y-3354D02*
X98171D01*
X97671D02*
Y-2354D01*
X98171D01*
Y-1854D01*
X99171D01*
Y-2354D02*
Y-1854D01*
Y-2354D02*
X99671D01*
Y-3354D02*
Y-2354D01*
X99171Y-3354D02*
X99671D01*
X99171Y-3854D02*
Y-3354D01*
X98171Y-3854D02*
X99171D01*
X98171D02*
Y-3354D01*
X106874D02*
X107374D01*
X106874D02*
Y-2354D01*
X107374D01*
Y-1854D01*
X108374D01*
Y-2354D02*
Y-1854D01*
Y-2354D02*
X108874D01*
Y-3354D02*
Y-2354D01*
X108374Y-3354D02*
X108874D01*
X108374Y-3854D02*
Y-3354D01*
X107374Y-3854D02*
X108374D01*
X107374D02*
Y-3354D01*
X143685Y41331D02*
X144185D01*
X143685D02*
Y42331D01*
X144185D01*
Y42831D01*
X145185D01*
Y42331D02*
Y42831D01*
Y42331D02*
X145685D01*
Y41331D02*
Y42331D01*
X145185Y41331D02*
X145685D01*
X145185Y40831D02*
Y41331D01*
X144185Y40831D02*
X145185D01*
X144185D02*
Y41331D01*
X134630D02*
X135130D01*
X134630D02*
Y42331D01*
X135130D01*
Y42831D01*
X136130D01*
Y42331D02*
Y42831D01*
Y42331D02*
X136630D01*
Y41331D02*
Y42331D01*
X136130Y41331D02*
X136630D01*
X136130Y40831D02*
Y41331D01*
X135130Y40831D02*
X136130D01*
X135130D02*
Y41331D01*
X125575D02*
X126075D01*
X125575D02*
Y42331D01*
X126075D01*
Y42831D01*
X127075D01*
Y42331D02*
Y42831D01*
Y42331D02*
X127575D01*
Y41331D02*
Y42331D01*
X127075Y41331D02*
X127575D01*
X127075Y40831D02*
Y41331D01*
X126075Y40831D02*
X127075D01*
X126075D02*
Y41331D01*
X125279Y33654D02*
X125779D01*
X125279D02*
Y34653D01*
X125779D01*
Y35153D01*
X126779D01*
Y34653D02*
Y35153D01*
Y34653D02*
X127279D01*
Y33654D02*
Y34653D01*
X126779Y33654D02*
X127279D01*
X126779Y33154D02*
Y33654D01*
X125779Y33154D02*
X126779D01*
X125779D02*
Y33654D01*
X147917Y64362D02*
X148417D01*
X147917D02*
Y65362D01*
X148417D01*
Y65862D01*
X149417D01*
Y65362D02*
Y65862D01*
Y65362D02*
X149917D01*
Y64362D02*
Y65362D01*
X149417Y64362D02*
X149917D01*
X149417Y63862D02*
Y64362D01*
X148417Y63862D02*
X149417D01*
X148417D02*
Y64362D01*
X142799Y68791D02*
X143299D01*
X142799D02*
Y69791D01*
X143299D01*
Y70291D01*
X144299D01*
Y69791D02*
Y70291D01*
Y69791D02*
X144799D01*
Y68791D02*
Y69791D01*
X144299Y68791D02*
X144799D01*
X144299Y68291D02*
Y68791D01*
X143299Y68291D02*
X144299D01*
X143299D02*
Y68791D01*
X143783Y-10539D02*
X144283D01*
X143783D02*
Y-9539D01*
X144283D01*
Y-9039D01*
X145283D01*
Y-9539D02*
Y-9039D01*
Y-9539D02*
X145783D01*
Y-10539D02*
Y-9539D01*
X145283Y-10539D02*
X145783D01*
X145283Y-11039D02*
Y-10539D01*
X144283Y-11039D02*
X145283D01*
X144283D02*
Y-10539D01*
X140508Y-48463D02*
X141508Y-46463D01*
X139508D02*
X141508D01*
X139508D02*
X140508Y-48463D01*
X106492Y-48463D02*
X107492Y-46463D01*
X105492D02*
X107492D01*
X105492D02*
X106492Y-48463D01*
X133878Y-50431D02*
X135878D01*
Y-48431D01*
X133878D02*
X135878D01*
X133878Y-50431D02*
Y-48431D01*
X111122Y-50431D02*
X113122D01*
Y-48431D01*
X111122D02*
X113122D01*
X111122Y-50431D02*
Y-48431D01*
X-83669Y-65953D02*
X-83169Y-66453D01*
X-84169Y-65953D02*
X-83669D01*
X-84169D02*
X-83669Y-65453D01*
X-84169Y-64953D02*
X-83669Y-65453D01*
X-84169Y-64953D02*
X-83669D01*
X-83169Y-64453D01*
X-82669Y-64953D01*
X-82169D01*
X-82669Y-65453D02*
X-82169Y-64953D01*
X-82669Y-65453D02*
X-82169Y-65953D01*
X-82669D02*
X-82169D01*
X-83169Y-66453D02*
X-82669Y-65953D01*
X-75795D02*
X-75295Y-66453D01*
X-76295Y-65953D02*
X-75795D01*
X-76295D02*
X-75795Y-65453D01*
X-76295Y-64953D02*
X-75795Y-65453D01*
X-76295Y-64953D02*
X-75795D01*
X-75295Y-64453D01*
X-74795Y-64953D01*
X-74295D01*
X-74795Y-65453D02*
X-74295Y-64953D01*
X-74795Y-65453D02*
X-74295Y-65953D01*
X-74795D02*
X-74295D01*
X-75295Y-66453D02*
X-74795Y-65953D01*
X-67921D02*
X-67421Y-66453D01*
X-68421Y-65953D02*
X-67921D01*
X-68421D02*
X-67921Y-65453D01*
X-68421Y-64953D02*
X-67921Y-65453D01*
X-68421Y-64953D02*
X-67921D01*
X-67421Y-64453D01*
X-66921Y-64953D01*
X-66421D01*
X-66921Y-65453D02*
X-66421Y-64953D01*
X-66921Y-65453D02*
X-66421Y-65953D01*
X-66921D02*
X-66421D01*
X-67421Y-66453D02*
X-66921Y-65953D01*
X-60047D02*
X-59547Y-66453D01*
X-60547Y-65953D02*
X-60047D01*
X-60547D02*
X-60047Y-65453D01*
X-60547Y-64953D02*
X-60047Y-65453D01*
X-60547Y-64953D02*
X-60047D01*
X-59547Y-64453D01*
X-59047Y-64953D01*
X-58547D01*
X-59047Y-65453D02*
X-58547Y-64953D01*
X-59047Y-65453D02*
X-58547Y-65953D01*
X-59047D02*
X-58547D01*
X-59547Y-66453D02*
X-59047Y-65953D01*
D145*
X-173266Y180255D02*
X195929D01*
X-173266Y127755D02*
X195929D01*
X-173266Y119005D02*
X195929D01*
Y189005D01*
X-173266D02*
X195929D01*
X-173266Y119005D02*
Y189005D01*
X134315Y119005D02*
Y189005D01*
X97132Y119005D02*
Y189005D01*
X68746Y119005D02*
Y189005D01*
X-2990Y119005D02*
Y189005D01*
X-37094Y119005D02*
Y189005D01*
X-59980Y119005D02*
Y189005D01*
X-115420Y119005D02*
Y189005D01*
X-144215Y119005D02*
Y189005D01*
D146*
X-125349Y111173D02*
Y107674D01*
X-123016Y111173D02*
Y107674D01*
X-125349Y109506D02*
X-123016D01*
X-121217Y110006D02*
X-121550Y109840D01*
X-121883Y109506D01*
X-122050Y109007D01*
Y108673D01*
X-121883Y108173D01*
X-121550Y107840D01*
X-121217Y107674D01*
X-120717D01*
X-120383Y107840D01*
X-120050Y108173D01*
X-119884Y108673D01*
Y109007D01*
X-120050Y109506D01*
X-120383Y109840D01*
X-120717Y110006D01*
X-121217D01*
X-119117Y111173D02*
Y107674D01*
X-118384Y109007D02*
X-116384D01*
Y109340D01*
X-116551Y109673D01*
X-116718Y109840D01*
X-117051Y110006D01*
X-117551D01*
X-117884Y109840D01*
X-118217Y109506D01*
X-118384Y109007D01*
Y108673D01*
X-118217Y108173D01*
X-117884Y107840D01*
X-117551Y107674D01*
X-117051D01*
X-116718Y107840D01*
X-116384Y108173D01*
X-112885Y111173D02*
Y107674D01*
X-110886D01*
X-110502Y109007D02*
X-108503D01*
Y109340D01*
X-108669Y109673D01*
X-108836Y109840D01*
X-109169Y110006D01*
X-109669D01*
X-110002Y109840D01*
X-110336Y109506D01*
X-110502Y109007D01*
Y108673D01*
X-110336Y108173D01*
X-110002Y107840D01*
X-109669Y107674D01*
X-109169D01*
X-108836Y107840D01*
X-108503Y108173D01*
X-107753Y110006D02*
Y107674D01*
Y109340D02*
X-107253Y109840D01*
X-106920Y110006D01*
X-106420D01*
X-106087Y109840D01*
X-105920Y109340D01*
Y107674D01*
X-103004Y110006D02*
Y107340D01*
X-103171Y106840D01*
X-103337Y106674D01*
X-103670Y106507D01*
X-104170D01*
X-104504Y106674D01*
X-103004Y109506D02*
X-103337Y109840D01*
X-103670Y110006D01*
X-104170D01*
X-104504Y109840D01*
X-104837Y109506D01*
X-105003Y109007D01*
Y108673D01*
X-104837Y108173D01*
X-104504Y107840D01*
X-104170Y107674D01*
X-103670D01*
X-103337Y107840D01*
X-103004Y108173D01*
X-101571Y111173D02*
Y108340D01*
X-101404Y107840D01*
X-101071Y107674D01*
X-100738D01*
X-102071Y110006D02*
X-100904D01*
X-100238Y111173D02*
Y107674D01*
Y109340D02*
X-99738Y109840D01*
X-99405Y110006D01*
X-98905D01*
X-98571Y109840D01*
X-98405Y109340D01*
Y107674D01*
X-125349Y116838D02*
Y113339D01*
Y116838D02*
X-123849D01*
X-123349Y116672D01*
X-123183Y116505D01*
X-123016Y116172D01*
Y115839D01*
X-123183Y115505D01*
X-123349Y115339D01*
X-123849Y115172D01*
X-125349D01*
X-124183D02*
X-123016Y113339D01*
X-121400Y115672D02*
X-121733Y115505D01*
X-122066Y115172D01*
X-122233Y114672D01*
Y114339D01*
X-122066Y113839D01*
X-121733Y113506D01*
X-121400Y113339D01*
X-120900D01*
X-120567Y113506D01*
X-120234Y113839D01*
X-120067Y114339D01*
Y114672D01*
X-120234Y115172D01*
X-120567Y115505D01*
X-120900Y115672D01*
X-121400D01*
X-119300D02*
Y114006D01*
X-119134Y113506D01*
X-118800Y113339D01*
X-118300D01*
X-117967Y113506D01*
X-117467Y114006D01*
Y115672D02*
Y113339D01*
X-116051Y116838D02*
Y114006D01*
X-115884Y113506D01*
X-115551Y113339D01*
X-115218D01*
X-116551Y115672D02*
X-115384D01*
X-114718Y114672D02*
X-112718D01*
Y115006D01*
X-112885Y115339D01*
X-113052Y115505D01*
X-113385Y115672D01*
X-113885D01*
X-114218Y115505D01*
X-114551Y115172D01*
X-114718Y114672D01*
Y114339D01*
X-114551Y113839D01*
X-114218Y113506D01*
X-113885Y113339D01*
X-113385D01*
X-113052Y113506D01*
X-112718Y113839D01*
X-109969Y116838D02*
Y113339D01*
Y115172D02*
X-110302Y115505D01*
X-110635Y115672D01*
X-111135D01*
X-111469Y115505D01*
X-111802Y115172D01*
X-111969Y114672D01*
Y114339D01*
X-111802Y113839D01*
X-111469Y113506D01*
X-111135Y113339D01*
X-110635D01*
X-110302Y113506D01*
X-109969Y113839D01*
X-106287Y115006D02*
X-104787D01*
X-104287Y115172D01*
X-104120Y115339D01*
X-103954Y115672D01*
Y116172D01*
X-104120Y116505D01*
X-104287Y116672D01*
X-104787Y116838D01*
X-106287D01*
Y113339D01*
X-101171Y115672D02*
Y113339D01*
Y115172D02*
X-101504Y115505D01*
X-101837Y115672D01*
X-102337D01*
X-102671Y115505D01*
X-103004Y115172D01*
X-103171Y114672D01*
Y114339D01*
X-103004Y113839D01*
X-102671Y113506D01*
X-102337Y113339D01*
X-101837D01*
X-101504Y113506D01*
X-101171Y113839D01*
X-99738Y116838D02*
Y114006D01*
X-99571Y113506D01*
X-99238Y113339D01*
X-98905D01*
X-100238Y115672D02*
X-99071D01*
X-98405Y116838D02*
Y113339D01*
Y115006D02*
X-97905Y115505D01*
X-97572Y115672D01*
X-97072D01*
X-96738Y115505D01*
X-96572Y115006D01*
Y113339D01*
X-92906Y116838D02*
Y113339D01*
X-90906D01*
X-90523Y114672D02*
X-88524D01*
Y115006D01*
X-88690Y115339D01*
X-88857Y115505D01*
X-89190Y115672D01*
X-89690D01*
X-90023Y115505D01*
X-90357Y115172D01*
X-90523Y114672D01*
Y114339D01*
X-90357Y113839D01*
X-90023Y113506D01*
X-89690Y113339D01*
X-89190D01*
X-88857Y113506D01*
X-88524Y113839D01*
X-87774Y115672D02*
Y113339D01*
Y115006D02*
X-87274Y115505D01*
X-86941Y115672D01*
X-86441D01*
X-86107Y115505D01*
X-85941Y115006D01*
Y113339D01*
X-83025Y115672D02*
Y113006D01*
X-83191Y112506D01*
X-83358Y112339D01*
X-83691Y112173D01*
X-84191D01*
X-84525Y112339D01*
X-83025Y115172D02*
X-83358Y115505D01*
X-83691Y115672D01*
X-84191D01*
X-84525Y115505D01*
X-84858Y115172D01*
X-85024Y114672D01*
Y114339D01*
X-84858Y113839D01*
X-84525Y113506D01*
X-84191Y113339D01*
X-83691D01*
X-83358Y113506D01*
X-83025Y113839D01*
X-81592Y116838D02*
Y114006D01*
X-81425Y113506D01*
X-81092Y113339D01*
X-80759D01*
X-82092Y115672D02*
X-80925D01*
X-80259Y116838D02*
Y113339D01*
Y115006D02*
X-79759Y115505D01*
X-79426Y115672D01*
X-78926D01*
X-78592Y115505D01*
X-78426Y115006D01*
Y113339D01*
X-165683Y116339D02*
X-166016Y116672D01*
X-166516Y116838D01*
X-167183D01*
X-167683Y116672D01*
X-168016Y116339D01*
Y116005D01*
X-167849Y115672D01*
X-167683Y115505D01*
X-167349Y115339D01*
X-166349Y115006D01*
X-166016Y114839D01*
X-165849Y114672D01*
X-165683Y114339D01*
Y113839D01*
X-166016Y113506D01*
X-166516Y113339D01*
X-167183D01*
X-167683Y113506D01*
X-168016Y113839D01*
X-164900Y116838D02*
Y113339D01*
X-163333Y115672D02*
X-163667Y115505D01*
X-164000Y115172D01*
X-164167Y114672D01*
Y114339D01*
X-164000Y113839D01*
X-163667Y113506D01*
X-163333Y113339D01*
X-162833D01*
X-162500Y113506D01*
X-162167Y113839D01*
X-162000Y114339D01*
Y114672D01*
X-162167Y115172D01*
X-162500Y115505D01*
X-162833Y115672D01*
X-163333D01*
X-160734Y116838D02*
Y114006D01*
X-160567Y113506D01*
X-160234Y113339D01*
X-159901D01*
X-161234Y115672D02*
X-160067D01*
X-154652Y116838D02*
Y113339D01*
Y115172D02*
X-154985Y115505D01*
X-155318Y115672D01*
X-155818D01*
X-156152Y115505D01*
X-156485Y115172D01*
X-156651Y114672D01*
Y114339D01*
X-156485Y113839D01*
X-156152Y113506D01*
X-155818Y113339D01*
X-155318D01*
X-154985Y113506D01*
X-154652Y113839D01*
X-153719Y114672D02*
X-151719D01*
Y115006D01*
X-151886Y115339D01*
X-152052Y115505D01*
X-152386Y115672D01*
X-152886D01*
X-153219Y115505D01*
X-153552Y115172D01*
X-153719Y114672D01*
Y114339D01*
X-153552Y113839D01*
X-153219Y113506D01*
X-152886Y113339D01*
X-152386D01*
X-152052Y113506D01*
X-151719Y113839D01*
X-149636Y116838D02*
X-149970D01*
X-150303Y116672D01*
X-150470Y116172D01*
Y113339D01*
X-150969Y115672D02*
X-149803D01*
X-148803Y116838D02*
X-148637Y116672D01*
X-148470Y116838D01*
X-148637Y117005D01*
X-148803Y116838D01*
X-148637Y115672D02*
Y113339D01*
X-147853Y115672D02*
Y113339D01*
Y115006D02*
X-147353Y115505D01*
X-147020Y115672D01*
X-146520D01*
X-146187Y115505D01*
X-146020Y115006D01*
Y113339D01*
X-144771Y116838D02*
X-144604Y116672D01*
X-144438Y116838D01*
X-144604Y117005D01*
X-144771Y116838D01*
X-144604Y115672D02*
Y113339D01*
X-143321Y116838D02*
Y114006D01*
X-143154Y113506D01*
X-142821Y113339D01*
X-142488D01*
X-143821Y115672D02*
X-142655D01*
X-141655Y116838D02*
X-141488Y116672D01*
X-141322Y116838D01*
X-141488Y117005D01*
X-141655Y116838D01*
X-141488Y115672D02*
Y113339D01*
X-139872Y115672D02*
X-140205Y115505D01*
X-140538Y115172D01*
X-140705Y114672D01*
Y114339D01*
X-140538Y113839D01*
X-140205Y113506D01*
X-139872Y113339D01*
X-139372D01*
X-139039Y113506D01*
X-138705Y113839D01*
X-138539Y114339D01*
Y114672D01*
X-138705Y115172D01*
X-139039Y115505D01*
X-139372Y115672D01*
X-139872D01*
X-137772D02*
Y113339D01*
Y115006D02*
X-137272Y115505D01*
X-136939Y115672D01*
X-136439D01*
X-136106Y115505D01*
X-135939Y115006D01*
Y113339D01*
X-133190Y115172D02*
X-133356Y115505D01*
X-133856Y115672D01*
X-134356D01*
X-134856Y115505D01*
X-135023Y115172D01*
X-134856Y114839D01*
X-134523Y114672D01*
X-133690Y114506D01*
X-133356Y114339D01*
X-133190Y114006D01*
Y113839D01*
X-133356Y113506D01*
X-133856Y113339D01*
X-134356D01*
X-134856Y113506D01*
X-135023Y113839D01*
X-129541Y115672D02*
X-129707Y115505D01*
X-129541Y115339D01*
X-129374Y115505D01*
X-129541Y115672D01*
Y113672D02*
X-129707Y113506D01*
X-129541Y113339D01*
X-129374Y113506D01*
X-129541Y113672D01*
M02*
