G04*
G04 #@! TF.GenerationSoftware,Altium Limited,Altium Designer,18.1.9 (240)*
G04*
G04 Layer_Physical_Order=3*
G04 Layer_Color=128*
%FSLAX25Y25*%
%MOIN*%
G70*
G01*
G75*
%ADD17C,0.01000*%
%ADD29C,0.07543*%
%ADD30C,0.06559*%
%ADD31C,0.05200*%
%ADD32C,0.08000*%
%ADD33R,0.14469X0.14764*%
%ADD34O,0.06362X0.09512*%
%ADD35O,0.06362X0.10693*%
%ADD36C,0.05299*%
G36*
X166605Y68671D02*
X167680Y68226D01*
X168647Y67579D01*
X169470Y66757D01*
X170116Y65789D01*
X170561Y64715D01*
X170788Y63574D01*
Y62992D01*
Y62410D01*
X170561Y61270D01*
X170116Y60195D01*
X169470Y59228D01*
X168647Y58405D01*
X167680Y57759D01*
X166605Y57314D01*
X165464Y57087D01*
X164301D01*
X163160Y57314D01*
X162085Y57759D01*
X161118Y58405D01*
X160295Y59228D01*
X159649Y60195D01*
X159204Y61270D01*
X158977Y62410D01*
Y62992D01*
Y63574D01*
X159204Y64715D01*
X159649Y65789D01*
X160295Y66757D01*
X161118Y67579D01*
X162085Y68226D01*
X163160Y68671D01*
X164301Y68898D01*
X165464D01*
X166605Y68671D01*
D02*
G37*
G36*
X-162135D02*
X-161060Y68226D01*
X-160093Y67579D01*
X-159271Y66757D01*
X-158624Y65789D01*
X-158179Y64715D01*
X-157952Y63574D01*
Y62992D01*
Y62410D01*
X-158179Y61270D01*
X-158624Y60195D01*
X-159271Y59228D01*
X-160093Y58405D01*
X-161060Y57759D01*
X-162135Y57314D01*
X-163276Y57087D01*
X-164439D01*
X-165580Y57314D01*
X-166655Y57759D01*
X-167622Y58405D01*
X-168445Y59228D01*
X-169091Y60195D01*
X-169536Y61270D01*
X-169763Y62410D01*
Y62992D01*
Y63574D01*
X-169536Y64715D01*
X-169091Y65789D01*
X-168445Y66757D01*
X-167622Y67579D01*
X-166655Y68226D01*
X-165580Y68671D01*
X-164439Y68898D01*
X-163276D01*
X-162135Y68671D01*
D02*
G37*
G36*
X166605Y-57314D02*
X167680Y-57759D01*
X168647Y-58405D01*
X169470Y-59228D01*
X170116Y-60195D01*
X170561Y-61270D01*
X170788Y-62410D01*
Y-62992D01*
Y-63574D01*
X170561Y-64715D01*
X170116Y-65789D01*
X169470Y-66757D01*
X168647Y-67579D01*
X167680Y-68226D01*
X166605Y-68671D01*
X165464Y-68898D01*
X164301D01*
X163160Y-68671D01*
X162085Y-68226D01*
X161118Y-67579D01*
X160295Y-66757D01*
X159649Y-65789D01*
X159204Y-64715D01*
X158977Y-63574D01*
Y-62992D01*
Y-62410D01*
X159204Y-61270D01*
X159649Y-60195D01*
X160295Y-59228D01*
X161118Y-58405D01*
X162085Y-57759D01*
X163160Y-57314D01*
X164301Y-57087D01*
X165464D01*
X166605Y-57314D01*
D02*
G37*
G36*
X-162135D02*
X-161060Y-57759D01*
X-160093Y-58405D01*
X-159271Y-59228D01*
X-158624Y-60195D01*
X-158179Y-61270D01*
X-157952Y-62410D01*
Y-62992D01*
Y-63574D01*
X-158179Y-64715D01*
X-158624Y-65789D01*
X-159271Y-66757D01*
X-160093Y-67579D01*
X-161060Y-68226D01*
X-162135Y-68671D01*
X-163276Y-68898D01*
X-164439D01*
X-165580Y-68671D01*
X-166655Y-68226D01*
X-167622Y-67579D01*
X-168445Y-66757D01*
X-169091Y-65789D01*
X-169536Y-64715D01*
X-169763Y-63574D01*
Y-62992D01*
Y-62410D01*
X-169536Y-61270D01*
X-169091Y-60195D01*
X-168445Y-59228D01*
X-167622Y-58405D01*
X-166655Y-57759D01*
X-165580Y-57314D01*
X-164439Y-57087D01*
X-163276D01*
X-162135Y-57314D01*
D02*
G37*
G36*
X-33370Y88122D02*
X-33342Y88115D01*
X-33307Y88101D01*
X-33272Y88080D01*
X-33231Y88052D01*
X-33182Y88011D01*
X-33134Y87962D01*
X-33085Y87900D01*
X-33029Y87823D01*
X-32974Y87733D01*
X-32925Y87629D01*
X-32870Y87504D01*
X-32821Y87358D01*
X-32773Y87192D01*
X-32766Y87199D01*
X-32752Y87227D01*
X-32731Y87261D01*
X-32703Y87303D01*
X-32662Y87358D01*
X-32613Y87421D01*
X-32558Y87483D01*
X-32495Y87553D01*
X-32426Y87622D01*
X-32342Y87685D01*
X-32252Y87747D01*
X-32155Y87803D01*
X-32051Y87844D01*
X-31933Y87886D01*
X-31815Y87907D01*
X-31683Y87914D01*
X-31621D01*
X-31558Y87907D01*
X-31475Y87893D01*
X-31385Y87872D01*
X-31288Y87844D01*
X-31197Y87803D01*
X-31107Y87747D01*
X-31100Y87740D01*
X-31072Y87719D01*
X-31038Y87678D01*
X-30989Y87629D01*
X-30948Y87574D01*
X-30913Y87497D01*
X-30885Y87414D01*
X-30878Y87324D01*
Y87317D01*
Y87303D01*
X-30885Y87275D01*
Y87240D01*
X-30913Y87171D01*
X-30934Y87129D01*
X-30961Y87095D01*
X-30968Y87088D01*
X-30975Y87081D01*
X-31017Y87053D01*
X-31079Y87018D01*
X-31121Y87011D01*
X-31163Y87005D01*
X-31176D01*
X-31197Y87011D01*
X-31225Y87018D01*
X-31260Y87032D01*
X-31308Y87060D01*
X-31357Y87088D01*
X-31419Y87129D01*
X-31426Y87136D01*
X-31447Y87150D01*
X-31482Y87171D01*
X-31517Y87199D01*
X-31614Y87240D01*
X-31669Y87254D01*
X-31718Y87261D01*
X-31732D01*
X-31773Y87254D01*
X-31836Y87248D01*
X-31919Y87227D01*
X-32002Y87185D01*
X-32100Y87129D01*
X-32190Y87060D01*
X-32231Y87011D01*
X-32273Y86956D01*
X-32280Y86942D01*
X-32308Y86901D01*
X-32335Y86838D01*
X-32377Y86741D01*
X-32412Y86630D01*
X-32447Y86491D01*
X-32474Y86325D01*
X-32481Y86144D01*
Y85679D01*
Y85672D01*
Y85644D01*
Y85603D01*
Y85547D01*
X-32488Y85485D01*
Y85401D01*
X-32495Y85318D01*
X-32502Y85228D01*
X-32523Y85027D01*
X-32551Y84819D01*
X-32592Y84610D01*
X-32620Y84513D01*
X-32648Y84423D01*
Y84416D01*
X-32655Y84402D01*
X-32662Y84381D01*
X-32676Y84354D01*
X-32710Y84284D01*
X-32752Y84208D01*
X-32814Y84131D01*
X-32884Y84062D01*
X-32919Y84034D01*
X-32960Y84013D01*
X-33002Y84000D01*
X-33050Y83993D01*
X-33064D01*
X-33099Y84000D01*
X-33154Y84007D01*
X-33210Y84034D01*
X-33266Y84069D01*
X-33321Y84124D01*
X-33356Y84208D01*
X-33363Y84256D01*
X-33370Y84312D01*
Y84319D01*
Y84326D01*
X-33363Y84354D01*
X-33356Y84395D01*
X-33349Y84458D01*
X-33328Y84541D01*
X-33314Y84589D01*
X-33307Y84645D01*
X-33286Y84714D01*
X-33272Y84784D01*
Y84791D01*
X-33266Y84805D01*
Y84825D01*
X-33259Y84853D01*
X-33245Y84895D01*
X-33238Y84936D01*
X-33217Y85040D01*
X-33203Y85158D01*
X-33182Y85290D01*
X-33175Y85422D01*
X-33168Y85561D01*
Y85575D01*
Y85603D01*
Y85658D01*
X-33175Y85728D01*
Y85811D01*
X-33182Y85908D01*
X-33189Y86019D01*
X-33203Y86137D01*
X-33217Y86262D01*
X-33238Y86394D01*
X-33293Y86664D01*
X-33363Y86921D01*
X-33411Y87046D01*
X-33460Y87164D01*
X-33467Y87171D01*
X-33474Y87192D01*
X-33487Y87220D01*
X-33508Y87261D01*
X-33543Y87331D01*
X-33592Y87414D01*
X-33619Y87470D01*
X-33654Y87532D01*
X-33661Y87539D01*
X-33668Y87560D01*
X-33682Y87594D01*
X-33703Y87629D01*
X-33737Y87719D01*
X-33744Y87768D01*
X-33751Y87810D01*
Y87817D01*
Y87830D01*
X-33744Y87851D01*
X-33737Y87879D01*
X-33724Y87914D01*
X-33703Y87948D01*
X-33675Y87990D01*
X-33640Y88025D01*
X-33633Y88032D01*
X-33619Y88039D01*
X-33599Y88060D01*
X-33571Y88080D01*
X-33494Y88115D01*
X-33453Y88122D01*
X-33404Y88129D01*
X-33390D01*
X-33370Y88122D01*
D02*
G37*
G36*
X-51060Y89746D02*
X-50955Y89739D01*
X-50837Y89725D01*
X-50713Y89704D01*
X-50567Y89683D01*
X-50421Y89656D01*
X-50269Y89621D01*
X-50109Y89572D01*
X-49949Y89517D01*
X-49797Y89454D01*
X-49644Y89378D01*
X-49498Y89295D01*
X-49359Y89198D01*
X-49352Y89191D01*
X-49332Y89170D01*
X-49297Y89142D01*
X-49248Y89094D01*
X-49200Y89038D01*
X-49137Y88976D01*
X-49075Y88892D01*
X-49005Y88802D01*
X-48943Y88705D01*
X-48880Y88587D01*
X-48818Y88469D01*
X-48769Y88337D01*
X-48721Y88191D01*
X-48686Y88039D01*
X-48665Y87879D01*
X-48658Y87705D01*
Y87692D01*
Y87664D01*
Y87615D01*
X-48665Y87546D01*
X-48672Y87463D01*
X-48686Y87365D01*
X-48700Y87261D01*
X-48721Y87143D01*
X-48749Y87025D01*
X-48790Y86893D01*
X-48832Y86769D01*
X-48880Y86637D01*
X-48943Y86505D01*
X-49012Y86373D01*
X-49096Y86255D01*
X-49186Y86137D01*
X-49193Y86130D01*
X-49207Y86109D01*
X-49241Y86082D01*
X-49283Y86047D01*
X-49332Y85998D01*
X-49394Y85950D01*
X-49470Y85894D01*
X-49547Y85846D01*
X-49644Y85790D01*
X-49748Y85735D01*
X-49859Y85686D01*
X-49977Y85637D01*
X-50102Y85603D01*
X-50241Y85575D01*
X-50386Y85554D01*
X-50539Y85547D01*
X-50622D01*
X-50664Y85554D01*
X-50720D01*
X-50837Y85568D01*
X-50969Y85589D01*
X-51108Y85624D01*
X-51254Y85665D01*
X-51386Y85721D01*
X-51400Y85728D01*
X-51434Y85748D01*
X-51490Y85790D01*
X-51545Y85832D01*
X-51601Y85894D01*
X-51657Y85957D01*
X-51691Y86033D01*
X-51698Y86068D01*
X-51705Y86109D01*
Y86130D01*
Y86137D01*
Y86158D01*
X-51698Y86186D01*
X-51691Y86220D01*
X-51670Y86304D01*
X-51649Y86345D01*
X-51622Y86387D01*
X-51615Y86394D01*
X-51608Y86408D01*
X-51587Y86422D01*
X-51559Y86442D01*
X-51490Y86484D01*
X-51448Y86491D01*
X-51400Y86498D01*
X-51386D01*
X-51365Y86491D01*
X-51330Y86484D01*
X-51289Y86470D01*
X-51226Y86442D01*
X-51150Y86415D01*
X-51053Y86373D01*
X-51039Y86366D01*
X-51004Y86352D01*
X-50949Y86338D01*
X-50879Y86317D01*
X-50803Y86290D01*
X-50713Y86276D01*
X-50622Y86262D01*
X-50532Y86255D01*
X-50484D01*
X-50449Y86262D01*
X-50407Y86269D01*
X-50359Y86276D01*
X-50248Y86304D01*
X-50123Y86352D01*
X-49984Y86422D01*
X-49922Y86463D01*
X-49852Y86519D01*
X-49790Y86574D01*
X-49727Y86644D01*
X-49720Y86651D01*
X-49713Y86664D01*
X-49699Y86685D01*
X-49679Y86713D01*
X-49651Y86755D01*
X-49623Y86796D01*
X-49595Y86852D01*
X-49561Y86914D01*
X-49533Y86984D01*
X-49505Y87060D01*
X-49450Y87227D01*
X-49415Y87428D01*
X-49401Y87532D01*
Y87643D01*
Y87650D01*
Y87671D01*
Y87705D01*
X-49408Y87747D01*
X-49415Y87803D01*
X-49429Y87858D01*
X-49443Y87928D01*
X-49463Y88004D01*
X-49484Y88080D01*
X-49519Y88164D01*
X-49561Y88247D01*
X-49602Y88330D01*
X-49665Y88413D01*
X-49727Y88497D01*
X-49804Y88573D01*
X-49887Y88649D01*
X-49894Y88656D01*
X-49908Y88663D01*
X-49935Y88684D01*
X-49977Y88712D01*
X-50026Y88740D01*
X-50081Y88774D01*
X-50151Y88809D01*
X-50227Y88844D01*
X-50317Y88878D01*
X-50414Y88913D01*
X-50518Y88948D01*
X-50629Y88976D01*
X-50754Y89003D01*
X-50879Y89024D01*
X-51018Y89031D01*
X-51164Y89038D01*
X-51261D01*
X-51330Y89031D01*
X-51420Y89024D01*
X-51538Y89017D01*
X-51663Y89003D01*
X-51816Y88982D01*
Y88969D01*
Y88934D01*
X-51809Y88885D01*
Y88816D01*
X-51802Y88726D01*
X-51795Y88629D01*
X-51788Y88517D01*
X-51781Y88399D01*
X-51774Y88143D01*
X-51761Y87879D01*
X-51754Y87622D01*
Y87504D01*
Y87393D01*
Y87379D01*
Y87338D01*
Y87275D01*
Y87192D01*
Y87088D01*
Y86963D01*
X-51761Y86824D01*
Y86672D01*
Y86512D01*
X-51767Y86338D01*
X-51774Y85977D01*
X-51788Y85603D01*
X-51809Y85242D01*
Y85228D01*
Y85193D01*
X-51816Y85131D01*
X-51823Y85054D01*
X-51830Y84957D01*
X-51837Y84839D01*
X-51851Y84714D01*
X-51865Y84576D01*
X-51878Y84423D01*
X-51899Y84263D01*
X-51941Y83937D01*
X-52004Y83604D01*
X-52038Y83437D01*
X-52073Y83278D01*
X-52080Y83264D01*
X-52087Y83229D01*
X-52108Y83181D01*
X-52142Y83125D01*
X-52184Y83070D01*
X-52239Y83021D01*
X-52316Y82986D01*
X-52357Y82979D01*
X-52399Y82972D01*
X-52413D01*
X-52455Y82979D01*
X-52517Y83000D01*
X-52586Y83035D01*
X-52621Y83063D01*
X-52656Y83097D01*
X-52684Y83139D01*
X-52718Y83188D01*
X-52739Y83250D01*
X-52760Y83319D01*
X-52767Y83396D01*
X-52774Y83486D01*
Y83493D01*
X-52767Y83507D01*
Y83528D01*
X-52760Y83555D01*
X-52753Y83604D01*
X-52746Y83673D01*
X-52739Y83757D01*
X-52725Y83861D01*
X-52711Y83923D01*
X-52704Y83993D01*
X-52697Y84069D01*
X-52684Y84152D01*
X-52677Y84242D01*
X-52663Y84347D01*
X-52649Y84451D01*
X-52635Y84569D01*
X-52621Y84694D01*
X-52600Y84825D01*
X-52586Y84971D01*
X-52566Y85124D01*
Y85131D01*
X-52559Y85152D01*
Y85186D01*
X-52552Y85228D01*
X-52545Y85290D01*
X-52538Y85360D01*
X-52531Y85443D01*
X-52524Y85533D01*
X-52517Y85637D01*
X-52510Y85748D01*
Y85873D01*
X-52503Y86012D01*
X-52496Y86158D01*
X-52489Y86311D01*
Y86470D01*
Y86644D01*
Y86651D01*
Y86658D01*
Y86699D01*
Y86769D01*
Y86852D01*
Y86963D01*
Y87088D01*
X-52496Y87227D01*
Y87379D01*
Y87546D01*
X-52503Y87719D01*
X-52510Y88073D01*
X-52524Y88434D01*
X-52538Y88608D01*
X-52545Y88774D01*
X-52559Y88767D01*
X-52586Y88747D01*
X-52642Y88719D01*
X-52711Y88670D01*
X-52795Y88615D01*
X-52892Y88538D01*
X-52996Y88455D01*
X-53107Y88351D01*
X-53114Y88344D01*
X-53142Y88316D01*
X-53183Y88282D01*
X-53239Y88240D01*
X-53294Y88198D01*
X-53357Y88164D01*
X-53412Y88136D01*
X-53468Y88129D01*
X-53489D01*
X-53516Y88136D01*
X-53551Y88143D01*
X-53593Y88157D01*
X-53634Y88170D01*
X-53676Y88198D01*
X-53718Y88233D01*
X-53725Y88240D01*
X-53732Y88254D01*
X-53752Y88275D01*
X-53773Y88302D01*
X-53808Y88386D01*
X-53822Y88427D01*
X-53829Y88483D01*
Y88490D01*
X-53822Y88511D01*
X-53815Y88545D01*
X-53794Y88601D01*
X-53752Y88663D01*
X-53704Y88740D01*
X-53627Y88830D01*
X-53586Y88878D01*
X-53530Y88927D01*
X-53523Y88934D01*
X-53489Y88962D01*
X-53440Y89003D01*
X-53378Y89059D01*
X-53287Y89121D01*
X-53183Y89191D01*
X-53065Y89260D01*
X-52926Y89343D01*
X-52774Y89420D01*
X-52600Y89489D01*
X-52413Y89559D01*
X-52212Y89621D01*
X-51990Y89676D01*
X-51761Y89718D01*
X-51511Y89746D01*
X-51254Y89753D01*
X-51136D01*
X-51060Y89746D01*
D02*
G37*
G36*
X-35729Y88497D02*
X-35667Y88490D01*
X-35597Y88476D01*
X-35514Y88462D01*
X-35431Y88441D01*
X-35340Y88420D01*
X-35243Y88386D01*
X-35146Y88351D01*
X-35049Y88302D01*
X-34952Y88247D01*
X-34855Y88184D01*
X-34758Y88108D01*
X-34667Y88025D01*
X-34660Y88018D01*
X-34646Y88004D01*
X-34626Y87976D01*
X-34591Y87941D01*
X-34556Y87893D01*
X-34522Y87837D01*
X-34480Y87768D01*
X-34431Y87692D01*
X-34390Y87608D01*
X-34348Y87518D01*
X-34313Y87421D01*
X-34272Y87310D01*
X-34244Y87199D01*
X-34223Y87074D01*
X-34209Y86942D01*
X-34202Y86810D01*
Y86803D01*
Y86796D01*
Y86775D01*
X-34209Y86748D01*
X-34216Y86685D01*
X-34237Y86602D01*
X-34265Y86512D01*
X-34313Y86422D01*
X-34376Y86331D01*
X-34466Y86255D01*
X-34473D01*
X-34494Y86241D01*
X-34536Y86227D01*
X-34563Y86213D01*
X-34598Y86199D01*
X-34640Y86186D01*
X-34695Y86172D01*
X-34751Y86158D01*
X-34820Y86137D01*
X-34896Y86116D01*
X-34987Y86095D01*
X-35084Y86075D01*
X-35195Y86054D01*
X-35202D01*
X-35230Y86047D01*
X-35271Y86040D01*
X-35334Y86026D01*
X-35403Y86012D01*
X-35479Y85998D01*
X-35577Y85984D01*
X-35674Y85970D01*
X-35889Y85943D01*
X-36125Y85915D01*
X-36361Y85894D01*
X-36583Y85887D01*
X-36680D01*
X-36756Y85894D01*
X-36847D01*
X-36957Y85901D01*
X-37075Y85908D01*
X-37207Y85922D01*
Y85915D01*
Y85908D01*
Y85887D01*
Y85866D01*
X-37200Y85797D01*
X-37194Y85707D01*
X-37173Y85610D01*
X-37152Y85492D01*
X-37124Y85367D01*
X-37075Y85242D01*
X-37027Y85117D01*
X-36957Y84992D01*
X-36874Y84874D01*
X-36777Y84777D01*
X-36659Y84687D01*
X-36520Y84617D01*
X-36444Y84596D01*
X-36361Y84576D01*
X-36270Y84569D01*
X-36180Y84562D01*
X-36132D01*
X-36083Y84569D01*
X-36014Y84583D01*
X-35937Y84603D01*
X-35847Y84631D01*
X-35764Y84666D01*
X-35674Y84721D01*
X-35667Y84728D01*
X-35653Y84735D01*
X-35618Y84763D01*
X-35577Y84798D01*
X-35521Y84846D01*
X-35445Y84916D01*
X-35361Y84999D01*
X-35257Y85103D01*
X-35250Y85110D01*
X-35236Y85124D01*
X-35216Y85138D01*
X-35188Y85166D01*
X-35118Y85200D01*
X-35077Y85214D01*
X-35035Y85221D01*
X-35007D01*
X-34980Y85214D01*
X-34945Y85207D01*
X-34903Y85193D01*
X-34862Y85172D01*
X-34813Y85145D01*
X-34771Y85103D01*
X-34765Y85096D01*
X-34751Y85082D01*
X-34737Y85061D01*
X-34716Y85027D01*
X-34695Y84985D01*
X-34674Y84936D01*
X-34667Y84888D01*
X-34660Y84825D01*
Y84819D01*
Y84805D01*
X-34667Y84777D01*
X-34674Y84742D01*
X-34688Y84707D01*
X-34702Y84666D01*
X-34730Y84617D01*
X-34765Y84576D01*
X-34771Y84569D01*
X-34792Y84548D01*
X-34827Y84513D01*
X-34876Y84471D01*
X-34931Y84423D01*
X-35001Y84367D01*
X-35084Y84305D01*
X-35174Y84242D01*
X-35278Y84180D01*
X-35389Y84118D01*
X-35507Y84062D01*
X-35639Y84013D01*
X-35771Y83972D01*
X-35917Y83937D01*
X-36062Y83916D01*
X-36215Y83909D01*
X-36257D01*
X-36291Y83916D01*
X-36326D01*
X-36375Y83923D01*
X-36479Y83944D01*
X-36610Y83972D01*
X-36756Y84013D01*
X-36909Y84076D01*
X-37069Y84159D01*
X-37228Y84263D01*
X-37304Y84326D01*
X-37381Y84395D01*
X-37457Y84471D01*
X-37527Y84555D01*
X-37596Y84645D01*
X-37659Y84749D01*
X-37714Y84853D01*
X-37763Y84971D01*
X-37811Y85103D01*
X-37846Y85242D01*
X-37881Y85387D01*
X-37901Y85547D01*
X-37915Y85714D01*
X-37922Y85894D01*
Y85908D01*
Y85943D01*
X-37915Y85991D01*
Y86068D01*
X-37908Y86151D01*
X-37894Y86255D01*
X-37874Y86373D01*
X-37853Y86498D01*
X-37825Y86630D01*
X-37790Y86775D01*
X-37749Y86921D01*
X-37693Y87067D01*
X-37631Y87220D01*
X-37561Y87365D01*
X-37478Y87518D01*
X-37381Y87657D01*
X-37374Y87664D01*
X-37353Y87692D01*
X-37318Y87733D01*
X-37270Y87789D01*
X-37207Y87851D01*
X-37138Y87928D01*
X-37055Y88004D01*
X-36957Y88080D01*
X-36853Y88157D01*
X-36735Y88233D01*
X-36610Y88309D01*
X-36472Y88372D01*
X-36326Y88427D01*
X-36173Y88469D01*
X-36014Y88497D01*
X-35847Y88504D01*
X-35778D01*
X-35729Y88497D01*
D02*
G37*
G36*
X-46007Y88531D02*
X-45952D01*
X-45875Y88517D01*
X-45792Y88504D01*
X-45702Y88490D01*
X-45598Y88462D01*
X-45487Y88434D01*
X-45376Y88393D01*
X-45265Y88344D01*
X-45147Y88282D01*
X-45036Y88212D01*
X-44918Y88136D01*
X-44814Y88039D01*
X-44710Y87934D01*
X-44703Y87928D01*
X-44689Y87907D01*
X-44661Y87872D01*
X-44626Y87823D01*
X-44585Y87768D01*
X-44543Y87692D01*
X-44494Y87608D01*
X-44439Y87511D01*
X-44390Y87407D01*
X-44342Y87289D01*
X-44300Y87157D01*
X-44258Y87018D01*
X-44224Y86866D01*
X-44196Y86706D01*
X-44182Y86533D01*
X-44175Y86352D01*
Y86338D01*
Y86304D01*
X-44182Y86248D01*
Y86179D01*
X-44196Y86089D01*
X-44210Y85984D01*
X-44224Y85873D01*
X-44251Y85748D01*
X-44286Y85617D01*
X-44328Y85478D01*
X-44376Y85339D01*
X-44439Y85200D01*
X-44508Y85061D01*
X-44592Y84923D01*
X-44682Y84798D01*
X-44793Y84673D01*
X-44800Y84666D01*
X-44821Y84645D01*
X-44855Y84617D01*
X-44904Y84576D01*
X-44966Y84527D01*
X-45043Y84478D01*
X-45133Y84416D01*
X-45230Y84360D01*
X-45341Y84305D01*
X-45466Y84249D01*
X-45605Y84194D01*
X-45750Y84145D01*
X-45910Y84104D01*
X-46077Y84076D01*
X-46257Y84055D01*
X-46444Y84048D01*
X-46479D01*
X-46528Y84055D01*
X-46583D01*
X-46660Y84069D01*
X-46743Y84076D01*
X-46833Y84097D01*
X-46930Y84124D01*
X-47034Y84152D01*
X-47146Y84194D01*
X-47256Y84236D01*
X-47368Y84291D01*
X-47479Y84360D01*
X-47590Y84437D01*
X-47687Y84527D01*
X-47784Y84631D01*
X-47791Y84638D01*
X-47805Y84659D01*
X-47826Y84694D01*
X-47860Y84735D01*
X-47895Y84798D01*
X-47937Y84867D01*
X-47978Y84957D01*
X-48020Y85054D01*
X-48068Y85158D01*
X-48110Y85283D01*
X-48152Y85415D01*
X-48186Y85561D01*
X-48221Y85714D01*
X-48242Y85880D01*
X-48256Y86061D01*
X-48263Y86248D01*
Y86262D01*
Y86297D01*
X-48256Y86352D01*
Y86428D01*
X-48242Y86519D01*
X-48235Y86623D01*
X-48214Y86741D01*
X-48186Y86866D01*
X-48159Y87005D01*
X-48117Y87143D01*
X-48075Y87282D01*
X-48020Y87421D01*
X-47951Y87560D01*
X-47874Y87699D01*
X-47784Y87823D01*
X-47680Y87941D01*
X-47673Y87948D01*
X-47652Y87969D01*
X-47617Y87997D01*
X-47576Y88032D01*
X-47513Y88080D01*
X-47444Y88129D01*
X-47361Y88184D01*
X-47263Y88240D01*
X-47159Y88295D01*
X-47041Y88351D01*
X-46909Y88399D01*
X-46764Y88448D01*
X-46611Y88483D01*
X-46452Y88511D01*
X-46278Y88531D01*
X-46091Y88538D01*
X-46056D01*
X-46007Y88531D01*
D02*
G37*
G36*
X-43099Y88573D02*
X-43065Y88566D01*
X-43030Y88552D01*
X-42988Y88531D01*
X-42947Y88504D01*
X-42905Y88469D01*
X-42898Y88462D01*
X-42884Y88448D01*
X-42870Y88427D01*
X-42850Y88399D01*
X-42808Y88323D01*
X-42801Y88275D01*
X-42794Y88219D01*
X-42801Y88205D01*
Y88170D01*
X-42808Y88150D01*
X-42815Y88115D01*
X-42822Y88080D01*
X-42829Y88032D01*
X-42836Y87983D01*
X-42843Y87914D01*
X-42856Y87837D01*
X-42870Y87754D01*
Y87747D01*
Y87733D01*
X-42877Y87705D01*
X-42884Y87671D01*
X-42891Y87622D01*
Y87574D01*
X-42898Y87511D01*
X-42905Y87442D01*
X-42919Y87289D01*
X-42933Y87116D01*
X-42940Y86921D01*
X-42947Y86727D01*
Y86720D01*
Y86685D01*
Y86644D01*
X-42940Y86581D01*
Y86505D01*
X-42933Y86422D01*
X-42926Y86325D01*
X-42912Y86213D01*
X-42877Y85984D01*
X-42829Y85748D01*
X-42759Y85505D01*
X-42711Y85395D01*
X-42662Y85283D01*
Y85277D01*
X-42648Y85263D01*
X-42634Y85235D01*
X-42614Y85200D01*
X-42558Y85124D01*
X-42482Y85027D01*
X-42392Y84930D01*
X-42281Y84853D01*
X-42225Y84819D01*
X-42156Y84791D01*
X-42093Y84777D01*
X-42024Y84770D01*
X-42010D01*
X-41982Y84777D01*
X-41934Y84784D01*
X-41871Y84805D01*
X-41802Y84839D01*
X-41725Y84895D01*
X-41649Y84964D01*
X-41580Y85061D01*
Y85068D01*
X-41573Y85075D01*
X-41552Y85117D01*
X-41517Y85179D01*
X-41482Y85270D01*
X-41448Y85381D01*
X-41413Y85513D01*
X-41392Y85665D01*
X-41385Y85832D01*
Y85846D01*
Y85880D01*
Y85936D01*
X-41392Y86012D01*
X-41399Y86116D01*
X-41406Y86234D01*
X-41420Y86373D01*
X-41434Y86526D01*
Y86533D01*
Y86546D01*
X-41441Y86567D01*
Y86595D01*
X-41448Y86678D01*
X-41455Y86769D01*
X-41469Y86873D01*
X-41475Y86977D01*
X-41482Y87074D01*
Y87157D01*
Y87164D01*
Y87178D01*
Y87199D01*
X-41475Y87234D01*
X-41462Y87310D01*
X-41434Y87400D01*
X-41385Y87490D01*
X-41316Y87567D01*
X-41274Y87601D01*
X-41219Y87622D01*
X-41163Y87636D01*
X-41094Y87643D01*
X-41059D01*
X-41031Y87636D01*
X-40969Y87615D01*
X-40892Y87581D01*
X-40858Y87553D01*
X-40816Y87518D01*
X-40782Y87476D01*
X-40754Y87421D01*
X-40726Y87365D01*
X-40705Y87296D01*
X-40698Y87213D01*
X-40691Y87123D01*
Y87116D01*
Y87109D01*
Y87088D01*
Y87060D01*
Y87018D01*
Y86970D01*
X-40698Y86914D01*
Y86845D01*
Y86838D01*
Y86810D01*
Y86775D01*
Y86734D01*
Y86637D01*
Y86588D01*
Y86546D01*
Y86533D01*
Y86505D01*
Y86449D01*
Y86380D01*
Y86304D01*
Y86207D01*
X-40691Y86109D01*
Y86005D01*
Y85783D01*
X-40684Y85672D01*
X-40677Y85575D01*
Y85478D01*
X-40670Y85387D01*
X-40663Y85318D01*
X-40657Y85256D01*
Y85249D01*
X-40650Y85221D01*
X-40643Y85179D01*
X-40629Y85131D01*
X-40608Y85068D01*
X-40580Y84999D01*
X-40518Y84853D01*
X-40476Y84777D01*
X-40428Y84707D01*
X-40372Y84638D01*
X-40303Y84576D01*
X-40233Y84527D01*
X-40150Y84485D01*
X-40060Y84458D01*
X-39963Y84451D01*
X-39928D01*
X-39900Y84458D01*
X-39838Y84471D01*
X-39754Y84499D01*
X-39664Y84541D01*
X-39567Y84603D01*
X-39518Y84645D01*
X-39470Y84701D01*
X-39428Y84756D01*
X-39386Y84819D01*
Y84825D01*
X-39380Y84839D01*
X-39366Y84860D01*
X-39352Y84888D01*
X-39338Y84930D01*
X-39317Y84971D01*
X-39296Y85027D01*
X-39276Y85089D01*
X-39262Y85158D01*
X-39241Y85242D01*
X-39220Y85325D01*
X-39206Y85422D01*
X-39192Y85519D01*
X-39178Y85630D01*
X-39171Y85742D01*
Y85866D01*
Y85873D01*
Y85901D01*
Y85943D01*
Y85998D01*
X-39178Y86068D01*
Y86151D01*
X-39185Y86241D01*
X-39192Y86345D01*
X-39199Y86456D01*
X-39213Y86574D01*
X-39241Y86831D01*
X-39276Y87109D01*
X-39331Y87393D01*
Y87400D01*
X-39338Y87428D01*
X-39345Y87463D01*
X-39359Y87511D01*
X-39366Y87574D01*
X-39380Y87636D01*
X-39407Y87782D01*
X-39442Y87928D01*
X-39456Y87997D01*
X-39463Y88052D01*
X-39477Y88108D01*
X-39484Y88150D01*
X-39491Y88177D01*
Y88191D01*
Y88205D01*
X-39484Y88240D01*
X-39477Y88282D01*
X-39456Y88337D01*
X-39414Y88393D01*
X-39366Y88434D01*
X-39289Y88469D01*
X-39248Y88483D01*
X-39178D01*
X-39137Y88476D01*
X-39074Y88448D01*
X-39039Y88434D01*
X-38998Y88406D01*
X-38963Y88372D01*
X-38915Y88330D01*
X-38873Y88282D01*
X-38831Y88219D01*
X-38783Y88150D01*
X-38741Y88066D01*
X-38699Y87976D01*
X-38665Y87865D01*
Y87858D01*
X-38658Y87837D01*
X-38644Y87796D01*
X-38630Y87747D01*
X-38616Y87685D01*
X-38595Y87601D01*
X-38581Y87511D01*
X-38561Y87400D01*
X-38540Y87282D01*
X-38519Y87150D01*
X-38505Y86998D01*
X-38491Y86838D01*
X-38477Y86664D01*
X-38464Y86484D01*
X-38457Y86283D01*
Y86075D01*
Y86061D01*
Y86026D01*
Y85970D01*
X-38464Y85894D01*
X-38471Y85797D01*
X-38477Y85686D01*
X-38491Y85568D01*
X-38505Y85443D01*
X-38526Y85304D01*
X-38554Y85158D01*
X-38588Y85020D01*
X-38623Y84874D01*
X-38672Y84735D01*
X-38727Y84596D01*
X-38790Y84465D01*
X-38859Y84347D01*
X-38866Y84340D01*
X-38880Y84319D01*
X-38901Y84291D01*
X-38928Y84256D01*
X-38970Y84208D01*
X-39012Y84159D01*
X-39067Y84104D01*
X-39137Y84055D01*
X-39206Y84000D01*
X-39282Y83944D01*
X-39373Y83895D01*
X-39463Y83847D01*
X-39567Y83812D01*
X-39678Y83784D01*
X-39789Y83764D01*
X-39914Y83757D01*
X-39949D01*
X-39990Y83764D01*
X-40053Y83771D01*
X-40115Y83784D01*
X-40198Y83805D01*
X-40282Y83826D01*
X-40372Y83861D01*
X-40469Y83909D01*
X-40573Y83965D01*
X-40670Y84034D01*
X-40768Y84118D01*
X-40865Y84215D01*
X-40955Y84326D01*
X-41031Y84458D01*
X-41108Y84610D01*
X-41115Y84603D01*
X-41129Y84583D01*
X-41149Y84548D01*
X-41184Y84506D01*
X-41219Y84458D01*
X-41267Y84402D01*
X-41323Y84340D01*
X-41385Y84284D01*
X-41524Y84159D01*
X-41600Y84104D01*
X-41684Y84055D01*
X-41767Y84013D01*
X-41857Y83979D01*
X-41947Y83958D01*
X-42045Y83951D01*
X-42072D01*
X-42107Y83958D01*
X-42156Y83965D01*
X-42218Y83972D01*
X-42287Y83993D01*
X-42357Y84013D01*
X-42440Y84041D01*
X-42530Y84083D01*
X-42621Y84131D01*
X-42718Y84194D01*
X-42815Y84263D01*
X-42912Y84347D01*
X-43009Y84451D01*
X-43099Y84562D01*
X-43190Y84694D01*
X-43197Y84701D01*
X-43211Y84728D01*
X-43231Y84777D01*
X-43266Y84839D01*
X-43301Y84916D01*
X-43342Y85013D01*
X-43384Y85124D01*
X-43433Y85256D01*
X-43474Y85395D01*
X-43523Y85554D01*
X-43564Y85728D01*
X-43599Y85915D01*
X-43634Y86109D01*
X-43655Y86325D01*
X-43668Y86554D01*
X-43676Y86789D01*
Y86796D01*
Y86810D01*
Y86831D01*
Y86866D01*
Y86907D01*
X-43668Y86956D01*
Y87067D01*
X-43662Y87206D01*
X-43648Y87358D01*
X-43634Y87518D01*
X-43606Y87685D01*
X-43578Y87851D01*
X-43544Y88011D01*
X-43502Y88164D01*
X-43453Y88302D01*
X-43391Y88413D01*
X-43356Y88462D01*
X-43321Y88504D01*
X-43280Y88538D01*
X-43238Y88559D01*
X-43197Y88573D01*
X-43148Y88580D01*
X-43127D01*
X-43099Y88573D01*
D02*
G37*
%LPC*%
G36*
X-35778Y87851D02*
X-35819D01*
X-35854Y87844D01*
X-35896D01*
X-35944Y87837D01*
X-36055Y87810D01*
X-36180Y87768D01*
X-36319Y87713D01*
X-36458Y87629D01*
X-36527Y87574D01*
X-36597Y87518D01*
X-36604Y87511D01*
X-36610Y87504D01*
X-36631Y87483D01*
X-36659Y87456D01*
X-36687Y87421D01*
X-36722Y87379D01*
X-36763Y87331D01*
X-36805Y87275D01*
X-36847Y87206D01*
X-36888Y87136D01*
X-36937Y87060D01*
X-36978Y86977D01*
X-37062Y86782D01*
X-37138Y86567D01*
X-37124D01*
X-37096Y86560D01*
X-37041D01*
X-36978Y86554D01*
X-36895Y86546D01*
X-36805D01*
X-36708Y86540D01*
X-36534D01*
X-36479Y86546D01*
X-36409D01*
X-36333Y86554D01*
X-36236Y86560D01*
X-36132Y86567D01*
X-36014Y86581D01*
X-35882Y86595D01*
X-35743Y86616D01*
X-35597Y86637D01*
X-35438Y86664D01*
X-35271Y86692D01*
X-35098Y86727D01*
X-34917Y86769D01*
Y86775D01*
Y86789D01*
X-34924Y86817D01*
Y86852D01*
X-34931Y86893D01*
X-34938Y86942D01*
X-34959Y87053D01*
X-34993Y87185D01*
X-35042Y87317D01*
X-35105Y87442D01*
X-35181Y87560D01*
X-35195Y87574D01*
X-35223Y87608D01*
X-35271Y87650D01*
X-35340Y87705D01*
X-35431Y87761D01*
X-35535Y87803D01*
X-35646Y87837D01*
X-35778Y87851D01*
D02*
G37*
G36*
X-46202Y87886D02*
X-46257D01*
X-46327Y87872D01*
X-46410Y87858D01*
X-46514Y87837D01*
X-46625Y87803D01*
X-46750Y87747D01*
X-46875Y87685D01*
X-47000Y87594D01*
X-47125Y87490D01*
X-47236Y87358D01*
X-47291Y87282D01*
X-47340Y87199D01*
X-47381Y87109D01*
X-47423Y87011D01*
X-47458Y86907D01*
X-47493Y86796D01*
X-47513Y86672D01*
X-47534Y86540D01*
X-47541Y86401D01*
X-47548Y86255D01*
Y86248D01*
Y86220D01*
Y86186D01*
X-47541Y86130D01*
Y86068D01*
X-47534Y85998D01*
X-47520Y85915D01*
X-47513Y85832D01*
X-47479Y85644D01*
X-47423Y85450D01*
X-47354Y85270D01*
X-47305Y85179D01*
X-47256Y85103D01*
X-47250Y85096D01*
X-47243Y85089D01*
X-47229Y85068D01*
X-47201Y85040D01*
X-47139Y84978D01*
X-47041Y84902D01*
X-46923Y84825D01*
X-46778Y84763D01*
X-46694Y84735D01*
X-46611Y84721D01*
X-46514Y84707D01*
X-46417Y84701D01*
X-46347D01*
X-46299Y84707D01*
X-46236Y84714D01*
X-46167Y84721D01*
X-46091Y84735D01*
X-46007Y84756D01*
X-45827Y84805D01*
X-45737Y84839D01*
X-45646Y84881D01*
X-45549Y84930D01*
X-45466Y84992D01*
X-45376Y85054D01*
X-45299Y85131D01*
X-45292Y85138D01*
X-45279Y85152D01*
X-45265Y85179D01*
X-45237Y85214D01*
X-45202Y85256D01*
X-45168Y85311D01*
X-45133Y85374D01*
X-45091Y85450D01*
X-45057Y85526D01*
X-45022Y85617D01*
X-44987Y85721D01*
X-44952Y85825D01*
X-44925Y85943D01*
X-44911Y86068D01*
X-44897Y86207D01*
X-44890Y86345D01*
Y86352D01*
Y86380D01*
Y86415D01*
X-44897Y86463D01*
X-44904Y86526D01*
X-44911Y86595D01*
X-44918Y86672D01*
X-44932Y86755D01*
X-44973Y86942D01*
X-45036Y87129D01*
X-45077Y87220D01*
X-45126Y87310D01*
X-45181Y87393D01*
X-45244Y87476D01*
X-45251Y87483D01*
X-45258Y87497D01*
X-45279Y87511D01*
X-45306Y87539D01*
X-45341Y87574D01*
X-45383Y87608D01*
X-45438Y87643D01*
X-45494Y87685D01*
X-45556Y87719D01*
X-45632Y87754D01*
X-45792Y87823D01*
X-45889Y87851D01*
X-45987Y87865D01*
X-46091Y87879D01*
X-46202Y87886D01*
D02*
G37*
%LPD*%
D17*
X87787Y-11803D02*
G03*
X79252Y-8268I-8535J-8535D01*
G01*
X36811Y-4035D02*
G03*
X41043Y-8268I4232J0D01*
G01*
X36811Y10551D02*
G03*
X33287Y14075I-3524J0D01*
G01*
X-11142D02*
G03*
X-14665Y10551I0J-3524D01*
G01*
X-1575Y-20965D02*
G03*
X-5709Y-25098I0J-4134D01*
G01*
X461Y-20965D02*
G03*
X2362Y-20177I0J2688D01*
G01*
D02*
G03*
X4035Y-16138I-4039J4039D01*
G01*
X7283Y-4724D02*
G03*
X4035Y-7972I0J-3248D01*
G01*
X19980Y-7915D02*
G03*
X16790Y-4724I-3191J0D01*
G01*
X-5709Y-33976D02*
G03*
X-709Y-38976I5000J0D01*
G01*
X46945Y-53934D02*
G03*
X45570Y-52559I-1375J0D01*
G01*
X46945Y-51088D02*
G03*
X46949Y-51085I0J3D01*
G01*
X45474Y-52559D02*
G03*
X46949Y-51085I0J1474D01*
G01*
X-14665Y-47559D02*
G03*
X-9665Y-52559I5000J0D01*
G01*
X46945Y-41511D02*
G03*
X44411Y-38976I-2534J0D01*
G01*
X98425Y-22441D02*
G03*
X101039Y-23524I2614J2614D01*
G01*
X117717Y-28524D02*
G03*
X112716Y-23524I-5000J0D01*
G01*
X89378Y-31602D02*
G03*
X97913Y-35138I8535J8535D01*
G01*
X88514Y-30738D02*
G03*
X79978Y-27203I-8535J-8535D01*
G01*
X19980Y-22203D02*
G03*
X24980Y-27203I5000J0D01*
G01*
X46945Y-66358D02*
G03*
X51651Y-71063I4705J0D01*
G01*
X112716D02*
G03*
X117717Y-66063I0J5000D01*
G01*
X87787Y-11803D02*
X93496Y-17512D01*
X41043Y-8268D02*
X79252D01*
X36811Y-4035D02*
Y-2975D01*
X-11142Y14075D02*
X33287D01*
X-1575Y-20965D02*
X461D01*
X4035Y-16138D02*
Y-7972D01*
X7283Y-4724D02*
X16790D01*
X44783Y-52559D02*
X46949D01*
X44783D02*
X45570D01*
X44783D02*
X45474D01*
X-9665D02*
X44783D01*
X-14665Y-47559D02*
Y10551D01*
X36811Y-2975D02*
Y10551D01*
X46945Y-66358D02*
Y-41511D01*
X-709Y-38976D02*
X44411D01*
X93496Y-17512D02*
X98425Y-22441D01*
X101039Y-23524D02*
X112716D01*
X117717Y-37992D02*
Y-28524D01*
X97913Y-35138D02*
X117717D01*
X88514Y-30738D02*
X89378Y-31602D01*
X24980Y-27203D02*
X79978D01*
X19980Y-22203D02*
Y-19902D01*
X51651Y-71063D02*
X112716D01*
X117717Y-66063D02*
Y-59992D01*
Y-52658D02*
Y-37992D01*
X19980Y-19902D02*
Y-7915D01*
X-5709Y-33976D02*
Y-25098D01*
X117717Y-59992D02*
Y-52658D01*
D29*
X-59547Y-65453D02*
D03*
X-67421D02*
D03*
X-75295D02*
D03*
D30*
X112122Y-49431D02*
D03*
X134878Y-49431D02*
D03*
D31*
X144783Y-10039D02*
D03*
X143799Y69291D02*
D03*
X148917Y64862D02*
D03*
X126279Y34154D02*
D03*
X126575Y41831D02*
D03*
X135630D02*
D03*
X144685D02*
D03*
X107874Y-2854D02*
D03*
X98671D02*
D03*
Y6791D02*
D03*
Y34154D02*
D03*
Y25787D02*
D03*
X135482Y34154D02*
D03*
Y25787D02*
D03*
X117077Y-2854D02*
D03*
X126279D02*
D03*
X135482D02*
D03*
X144685D02*
D03*
X89468Y6791D02*
D03*
X135482D02*
D03*
X144685D02*
D03*
X89468Y16929D02*
D03*
X98671D02*
D03*
X135482D02*
D03*
X144685D02*
D03*
X89468Y25787D02*
D03*
X107874D02*
D03*
X117077D02*
D03*
X126279D02*
D03*
X144685D02*
D03*
X89468Y34154D02*
D03*
X107874D02*
D03*
X117077D02*
D03*
X144685D02*
D03*
X8790Y-70374D02*
D03*
X-1316D02*
D03*
X-11423D02*
D03*
X-21531D02*
D03*
X-31638D02*
D03*
X-41745D02*
D03*
X-51852D02*
D03*
X-61959D02*
D03*
X-72066D02*
D03*
X-82173D02*
D03*
X-92280D02*
D03*
X-102387D02*
D03*
X-112494D02*
D03*
X-122601D02*
D03*
X-132708D02*
D03*
X-142815D02*
D03*
X18898D02*
D03*
X-46798Y69488D02*
D03*
X-36556D02*
D03*
X-26314D02*
D03*
X-16072D02*
D03*
X-5830D02*
D03*
X4412D02*
D03*
X14654D02*
D03*
X24896D02*
D03*
X35138D02*
D03*
X-138976D02*
D03*
X-128734D02*
D03*
X-118492D02*
D03*
X-108250D02*
D03*
X-98008D02*
D03*
X-87766D02*
D03*
X-77524D02*
D03*
X-67282D02*
D03*
X-57040D02*
D03*
X162500Y-49409D02*
D03*
X155512D02*
D03*
X150394Y-53051D02*
D03*
X148327Y-57972D02*
D03*
Y-64026D02*
D03*
Y-70079D02*
D03*
X-148031Y57284D02*
D03*
X-155217Y48720D02*
D03*
X-162205D02*
D03*
X-169193D02*
D03*
X-150098Y52362D02*
D03*
X-148031Y63337D02*
D03*
Y69390D02*
D03*
X-170177Y-47736D02*
D03*
X-164124D02*
D03*
X-153150Y-49803D02*
D03*
X-149508Y-68898D02*
D03*
Y-61910D02*
D03*
Y-54921D02*
D03*
X-158071Y-47736D02*
D03*
X-164469Y-40846D02*
D03*
Y-30598D02*
D03*
Y-20349D02*
D03*
Y-10101D02*
D03*
Y148D02*
D03*
Y10396D02*
D03*
Y20645D02*
D03*
Y30893D02*
D03*
Y41142D02*
D03*
X169291Y-26181D02*
D03*
Y-48819D02*
D03*
Y-41273D02*
D03*
Y-33727D02*
D03*
X149606Y57579D02*
D03*
X74902Y-61614D02*
D03*
X72441Y-52362D02*
D03*
X-14469Y27657D02*
D03*
X-59646Y17126D02*
D03*
X-52362Y-35236D02*
D03*
X-109941Y23819D02*
D03*
X-114469D02*
D03*
X-118996D02*
D03*
X-30906Y42717D02*
D03*
X-31841Y9646D02*
D03*
X-26870D02*
D03*
X-36811D02*
D03*
X-26673Y-886D02*
D03*
X-31791D02*
D03*
X-36909D02*
D03*
X-55905Y35335D02*
D03*
X-64764Y38484D02*
D03*
X-85827Y38189D02*
D03*
X-5020Y-1969D02*
D03*
X-4980Y9843D02*
D03*
X-5020Y-5906D02*
D03*
Y5906D02*
D03*
X-4980Y13780D02*
D03*
Y1969D02*
D03*
X6102Y-1476D02*
D03*
X-111024Y5906D02*
D03*
X-11516Y-21198D02*
D03*
X56024Y37034D02*
D03*
X61024D02*
D03*
X-11516Y-26575D02*
D03*
X37984Y49500D02*
D03*
X4181Y57972D02*
D03*
X37984Y44500D02*
D03*
X219Y57972D02*
D03*
X76000Y44700D02*
D03*
Y49300D02*
D03*
X-22441Y60402D02*
D03*
X85335Y40650D02*
D03*
X-70866Y38878D02*
D03*
X-45500Y-52000D02*
D03*
X-25500Y38500D02*
D03*
X123500Y60100D02*
D03*
Y55500D02*
D03*
X-55610Y-38831D02*
D03*
Y-42397D02*
D03*
X-63214Y-10433D02*
D03*
X-59449D02*
D03*
X-111024Y-5906D02*
D03*
Y-1969D02*
D03*
Y1969D02*
D03*
Y9843D02*
D03*
Y13780D02*
D03*
X86663Y-2411D02*
D03*
X51772Y-56496D02*
D03*
X84252Y-43209D02*
D03*
X50295Y-24705D02*
D03*
X64272Y-21752D02*
D03*
X43012D02*
D03*
X40945Y-40551D02*
D03*
X36417Y-31496D02*
D03*
X-133847Y37390D02*
D03*
X-133858Y41339D02*
D03*
X-93815Y-19965D02*
D03*
X-93996Y-12303D02*
D03*
X-95197Y-41339D02*
D03*
X-110925D02*
D03*
Y-33421D02*
D03*
X-95197Y-33386D02*
D03*
X-70866Y33169D02*
D03*
X6102Y-23425D02*
D03*
X9827D02*
D03*
Y-1476D02*
D03*
X47047Y-29429D02*
D03*
X50984Y-15748D02*
D03*
X61024D02*
D03*
X56024Y-12658D02*
D03*
X46024D02*
D03*
X47047Y-34154D02*
D03*
X126476Y-52461D02*
D03*
X120866D02*
D03*
X132874Y-39394D02*
D03*
D32*
X-163276Y-57087D02*
X-162135Y-57314D01*
X-161060Y-57759D01*
X-160093Y-58405D01*
X-159271Y-59228D01*
X-158624Y-60195D01*
X-158179Y-61270D01*
X-157952Y-62410D01*
Y-62992D02*
Y-62410D01*
Y-63574D02*
Y-62992D01*
X-158179Y-64715D02*
X-157952Y-63574D01*
X-158624Y-65789D02*
X-158179Y-64715D01*
X-159271Y-66757D02*
X-158624Y-65789D01*
X-160093Y-67579D02*
X-159271Y-66757D01*
X-161060Y-68226D02*
X-160093Y-67579D01*
X-162135Y-68671D02*
X-161060Y-68226D01*
X-163276Y-68898D02*
X-162135Y-68671D01*
X-164439Y-68898D02*
X-163276D01*
X-165580Y-68671D02*
X-164439Y-68898D01*
X-166655Y-68226D02*
X-165580Y-68671D01*
X-167622Y-67579D02*
X-166655Y-68226D01*
X-168445Y-66757D02*
X-167622Y-67579D01*
X-169091Y-65789D02*
X-168445Y-66757D01*
X-169536Y-64715D02*
X-169091Y-65789D01*
X-169763Y-63574D02*
X-169536Y-64715D01*
X-169763Y-63574D02*
Y-62992D01*
Y-62410D01*
X-169536Y-61270D01*
X-169091Y-60195D01*
X-168445Y-59228D01*
X-167622Y-58405D01*
X-166655Y-57759D01*
X-165580Y-57314D01*
X-164439Y-57087D01*
X-163276D01*
X165464D02*
X166605Y-57314D01*
X167680Y-57759D01*
X168647Y-58405D01*
X169470Y-59228D01*
X170116Y-60195D01*
X170561Y-61270D01*
X170788Y-62410D01*
Y-62992D02*
Y-62410D01*
Y-63574D02*
Y-62992D01*
X170561Y-64715D02*
X170788Y-63574D01*
X170116Y-65789D02*
X170561Y-64715D01*
X169470Y-66757D02*
X170116Y-65789D01*
X168647Y-67579D02*
X169470Y-66757D01*
X167680Y-68226D02*
X168647Y-67579D01*
X166605Y-68671D02*
X167680Y-68226D01*
X165464Y-68898D02*
X166605Y-68671D01*
X164301Y-68898D02*
X165464D01*
X163160Y-68671D02*
X164301Y-68898D01*
X162085Y-68226D02*
X163160Y-68671D01*
X161118Y-67579D02*
X162085Y-68226D01*
X160295Y-66757D02*
X161118Y-67579D01*
X159649Y-65789D02*
X160295Y-66757D01*
X159204Y-64715D02*
X159649Y-65789D01*
X158977Y-63574D02*
X159204Y-64715D01*
X158977Y-63574D02*
Y-62992D01*
Y-62410D01*
X159204Y-61270D01*
X159649Y-60195D01*
X160295Y-59228D01*
X161118Y-58405D01*
X162085Y-57759D01*
X163160Y-57314D01*
X164301Y-57087D01*
X165464D01*
X-163276Y68898D02*
X-162135Y68671D01*
X-161060Y68226D01*
X-160093Y67579D01*
X-159271Y66757D01*
X-158624Y65789D01*
X-158179Y64715D01*
X-157952Y63574D01*
Y62992D02*
Y63574D01*
Y62410D02*
Y62992D01*
X-158179Y61270D02*
X-157952Y62410D01*
X-158624Y60195D02*
X-158179Y61270D01*
X-159271Y59228D02*
X-158624Y60195D01*
X-160093Y58405D02*
X-159271Y59228D01*
X-161060Y57759D02*
X-160093Y58405D01*
X-162135Y57314D02*
X-161060Y57759D01*
X-163276Y57087D02*
X-162135Y57314D01*
X-164439Y57087D02*
X-163276D01*
X-165580Y57314D02*
X-164439Y57087D01*
X-166655Y57759D02*
X-165580Y57314D01*
X-167622Y58405D02*
X-166655Y57759D01*
X-168445Y59228D02*
X-167622Y58405D01*
X-169091Y60195D02*
X-168445Y59228D01*
X-169536Y61270D02*
X-169091Y60195D01*
X-169763Y62410D02*
X-169536Y61270D01*
X-169763Y62410D02*
Y62992D01*
Y63574D01*
X-169536Y64715D01*
X-169091Y65789D01*
X-168445Y66757D01*
X-167622Y67579D01*
X-166655Y68226D01*
X-165580Y68671D01*
X-164439Y68898D01*
X-163276D01*
X165464D02*
X166605Y68671D01*
X167680Y68226D01*
X168647Y67579D01*
X169470Y66757D01*
X170116Y65789D01*
X170561Y64715D01*
X170788Y63574D01*
Y62992D02*
Y63574D01*
Y62410D02*
Y62992D01*
X170561Y61270D02*
X170788Y62410D01*
X170116Y60195D02*
X170561Y61270D01*
X169470Y59228D02*
X170116Y60195D01*
X168647Y58405D02*
X169470Y59228D01*
X167680Y57759D02*
X168647Y58405D01*
X166605Y57314D02*
X167680Y57759D01*
X165464Y57087D02*
X166605Y57314D01*
X164301Y57087D02*
X165464D01*
X163160Y57314D02*
X164301Y57087D01*
X162085Y57759D02*
X163160Y57314D01*
X161118Y58405D02*
X162085Y57759D01*
X160295Y59228D02*
X161118Y58405D01*
X159649Y60195D02*
X160295Y59228D01*
X159204Y61270D02*
X159649Y60195D01*
X158977Y62410D02*
X159204Y61270D01*
X158977Y62410D02*
Y62992D01*
Y63574D01*
X159204Y64715D01*
X159649Y65789D01*
X160295Y66757D01*
X161118Y67579D01*
X162085Y68226D01*
X163160Y68671D01*
X164301Y68898D01*
X165464D01*
X-167795Y74803D02*
X168820Y74803D01*
X-168570Y74803D02*
X-167795Y74803D01*
X-170091Y74501D02*
X-168570Y74803D01*
X-171524Y73907D02*
X-170091Y74501D01*
X-172814Y73045D02*
X-171524Y73907D01*
X-173911Y71948D02*
X-172814Y73045D01*
X-174773Y70659D02*
X-173911Y71948D01*
X-175366Y69226D02*
X-174773Y70659D01*
X-175669Y67705D02*
X-175366Y69226D01*
X-175669Y67705D02*
X-175669Y66929D01*
Y35433D02*
Y66929D01*
Y35433D02*
X-175669Y35041D01*
X-175369Y34318D01*
X-174815Y33764D01*
X-174092Y33465D01*
X-173700D01*
X-171732Y33465D01*
Y-33465D02*
Y33465D01*
X-173700Y-33465D02*
X-171732D01*
X-174092Y-33465D02*
X-173700Y-33465D01*
X-174815Y-33764D02*
X-174092Y-33465D01*
X-175369Y-34318D02*
X-174815Y-33764D01*
X-175669Y-35041D02*
X-175369Y-34318D01*
X-175669Y-35433D02*
Y-35041D01*
X-175669Y-66929D02*
X-175669Y-35433D01*
X-175669Y-66929D02*
X-175669Y-67705D01*
X-175366Y-69226D01*
X-174773Y-70659D01*
X-173911Y-71948D01*
X-172814Y-73045D01*
X-171524Y-73907D01*
X-170091Y-74501D01*
X-168570Y-74803D01*
X-167795D01*
X168820Y-74803D01*
X169595Y-74803D01*
X171116Y-74501D01*
X172549Y-73907D01*
X173839Y-73045D01*
X174936Y-71948D01*
X175797Y-70659D01*
X176391Y-69226D01*
X176694Y-67705D01*
Y-66929D01*
X176694Y-19980D01*
X152559D02*
X176694D01*
X152559D02*
Y51801D01*
X176694D01*
Y66929D01*
X176694Y67705D02*
X176694Y66929D01*
X176391Y69226D02*
X176694Y67705D01*
X175797Y70659D02*
X176391Y69226D01*
X174936Y71948D02*
X175797Y70659D01*
X173839Y73045D02*
X174936Y71948D01*
X172549Y73907D02*
X173839Y73045D01*
X171116Y74501D02*
X172549Y73907D01*
X169595Y74803D02*
X171116Y74501D01*
X168820Y74803D02*
X169595D01*
D33*
X60974Y-40650D02*
D03*
D34*
X106492Y-63801D02*
D03*
X140508Y-63801D02*
D03*
D35*
X106492Y-47463D02*
D03*
X140508Y-47463D02*
D03*
D36*
X65425Y-40453D02*
D03*
X60925Y-44953D02*
D03*
X56425Y-40453D02*
D03*
X60925Y-35953D02*
D03*
Y-40453D02*
D03*
X56425Y-44953D02*
D03*
Y-35953D02*
D03*
X65425D02*
D03*
Y-44953D02*
D03*
M02*
