G04*
G04 #@! TF.GenerationSoftware,Altium Limited,Altium Designer,18.1.9 (240)*
G04*
G04 Layer_Physical_Order=2*
G04 Layer_Color=32768*
%FSLAX25Y25*%
%MOIN*%
G70*
G01*
G75*
%ADD28C,0.04000*%
%ADD29C,0.07543*%
%ADD30C,0.06559*%
%ADD31C,0.05200*%
G36*
X166605Y68671D02*
X167680Y68226D01*
X168647Y67579D01*
X169470Y66757D01*
X170116Y65789D01*
X170561Y64715D01*
X170788Y63574D01*
Y62992D01*
Y62410D01*
X170561Y61270D01*
X170116Y60195D01*
X169470Y59228D01*
X168647Y58405D01*
X167680Y57759D01*
X166605Y57314D01*
X165464Y57087D01*
X164301D01*
X163160Y57314D01*
X162085Y57759D01*
X161118Y58405D01*
X160295Y59228D01*
X159649Y60195D01*
X159204Y61270D01*
X158977Y62410D01*
Y62992D01*
Y63574D01*
X159204Y64715D01*
X159649Y65789D01*
X160295Y66757D01*
X161118Y67579D01*
X162085Y68226D01*
X163160Y68671D01*
X164301Y68898D01*
X165464D01*
X166605Y68671D01*
D02*
G37*
G36*
X-162135D02*
X-161060Y68226D01*
X-160093Y67579D01*
X-159271Y66757D01*
X-158624Y65789D01*
X-158179Y64715D01*
X-157952Y63574D01*
Y62992D01*
Y62410D01*
X-158179Y61270D01*
X-158624Y60195D01*
X-159271Y59228D01*
X-160093Y58405D01*
X-161060Y57759D01*
X-162135Y57314D01*
X-163276Y57087D01*
X-164439D01*
X-165580Y57314D01*
X-166655Y57759D01*
X-167622Y58405D01*
X-168445Y59228D01*
X-169091Y60195D01*
X-169536Y61270D01*
X-169763Y62410D01*
Y62992D01*
Y63574D01*
X-169536Y64715D01*
X-169091Y65789D01*
X-168445Y66757D01*
X-167622Y67579D01*
X-166655Y68226D01*
X-165580Y68671D01*
X-164439Y68898D01*
X-163276D01*
X-162135Y68671D01*
D02*
G37*
G36*
X166605Y-57314D02*
X167680Y-57759D01*
X168647Y-58405D01*
X169470Y-59228D01*
X170116Y-60195D01*
X170561Y-61270D01*
X170788Y-62410D01*
Y-62992D01*
Y-63574D01*
X170561Y-64715D01*
X170116Y-65789D01*
X169470Y-66757D01*
X168647Y-67579D01*
X167680Y-68226D01*
X166605Y-68671D01*
X165464Y-68898D01*
X164301D01*
X163160Y-68671D01*
X162085Y-68226D01*
X161118Y-67579D01*
X160295Y-66757D01*
X159649Y-65789D01*
X159204Y-64715D01*
X158977Y-63574D01*
Y-62992D01*
Y-62410D01*
X159204Y-61270D01*
X159649Y-60195D01*
X160295Y-59228D01*
X161118Y-58405D01*
X162085Y-57759D01*
X163160Y-57314D01*
X164301Y-57087D01*
X165464D01*
X166605Y-57314D01*
D02*
G37*
G36*
X-162135D02*
X-161060Y-57759D01*
X-160093Y-58405D01*
X-159271Y-59228D01*
X-158624Y-60195D01*
X-158179Y-61270D01*
X-157952Y-62410D01*
Y-62992D01*
Y-63574D01*
X-158179Y-64715D01*
X-158624Y-65789D01*
X-159271Y-66757D01*
X-160093Y-67579D01*
X-161060Y-68226D01*
X-162135Y-68671D01*
X-163276Y-68898D01*
X-164439D01*
X-165580Y-68671D01*
X-166655Y-68226D01*
X-167622Y-67579D01*
X-168445Y-66757D01*
X-169091Y-65789D01*
X-169536Y-64715D01*
X-169763Y-63574D01*
Y-62992D01*
Y-62410D01*
X-169536Y-61270D01*
X-169091Y-60195D01*
X-168445Y-59228D01*
X-167622Y-58405D01*
X-166655Y-57759D01*
X-165580Y-57314D01*
X-164439Y-57087D01*
X-163276D01*
X-162135Y-57314D01*
D02*
G37*
G36*
X-72405Y89378D02*
X-72336D01*
X-72253Y89371D01*
X-72162Y89364D01*
X-72058Y89350D01*
X-71843Y89323D01*
X-71614Y89274D01*
X-71378Y89211D01*
X-71149Y89121D01*
X-71142D01*
X-71128Y89107D01*
X-71100Y89100D01*
X-71066Y89080D01*
X-70976Y89031D01*
X-70878Y88969D01*
X-70781Y88892D01*
X-70691Y88809D01*
X-70656Y88760D01*
X-70628Y88712D01*
X-70615Y88663D01*
X-70608Y88615D01*
Y88608D01*
Y88594D01*
X-70615Y88566D01*
X-70622Y88531D01*
X-70635Y88490D01*
X-70649Y88448D01*
X-70677Y88399D01*
X-70712Y88358D01*
X-70719Y88351D01*
X-70733Y88344D01*
X-70754Y88323D01*
X-70781Y88309D01*
X-70851Y88268D01*
X-70892Y88261D01*
X-70941Y88254D01*
X-70955D01*
X-70976Y88261D01*
X-70996D01*
X-71073Y88282D01*
X-71163Y88323D01*
X-71170Y88330D01*
X-71198Y88344D01*
X-71239Y88365D01*
X-71288Y88386D01*
X-71336Y88413D01*
X-71378Y88434D01*
X-71413Y88455D01*
X-71434Y88462D01*
X-71441D01*
X-71454Y88469D01*
X-71482Y88483D01*
X-71524Y88497D01*
X-71565Y88511D01*
X-71628Y88531D01*
X-71690Y88552D01*
X-71760Y88573D01*
X-71926Y88608D01*
X-72107Y88642D01*
X-72315Y88670D01*
X-72530Y88677D01*
X-72586D01*
X-72648Y88670D01*
X-72731Y88663D01*
X-72829Y88656D01*
X-72947Y88642D01*
X-73078Y88615D01*
X-73217Y88587D01*
X-73370Y88552D01*
X-73523Y88504D01*
X-73675Y88448D01*
X-73828Y88379D01*
X-73981Y88295D01*
X-74126Y88205D01*
X-74265Y88094D01*
X-74397Y87969D01*
X-74404Y87962D01*
X-74425Y87934D01*
X-74459Y87893D01*
X-74501Y87837D01*
X-74550Y87768D01*
X-74605Y87678D01*
X-74661Y87567D01*
X-74723Y87449D01*
X-74786Y87310D01*
X-74841Y87157D01*
X-74897Y86991D01*
X-74945Y86810D01*
X-74987Y86609D01*
X-75022Y86401D01*
X-75042Y86172D01*
X-75049Y85929D01*
Y85915D01*
Y85880D01*
Y85825D01*
X-75042Y85748D01*
X-75035Y85658D01*
X-75029Y85554D01*
X-75015Y85436D01*
X-74994Y85311D01*
X-74938Y85040D01*
X-74904Y84902D01*
X-74862Y84763D01*
X-74806Y84624D01*
X-74744Y84492D01*
X-74675Y84367D01*
X-74598Y84249D01*
X-74591Y84242D01*
X-74577Y84222D01*
X-74550Y84194D01*
X-74515Y84159D01*
X-74473Y84118D01*
X-74418Y84062D01*
X-74355Y84013D01*
X-74279Y83958D01*
X-74196Y83902D01*
X-74106Y83854D01*
X-74008Y83805D01*
X-73897Y83757D01*
X-73779Y83722D01*
X-73647Y83694D01*
X-73516Y83673D01*
X-73370Y83666D01*
X-73335D01*
X-73300Y83673D01*
X-73245D01*
X-73182Y83680D01*
X-73113Y83694D01*
X-73030Y83715D01*
X-72947Y83736D01*
X-72856Y83764D01*
X-72759Y83805D01*
X-72662Y83847D01*
X-72565Y83902D01*
X-72461Y83965D01*
X-72370Y84041D01*
X-72273Y84124D01*
X-72190Y84222D01*
X-72183Y84229D01*
X-72169Y84249D01*
X-72148Y84277D01*
X-72114Y84326D01*
X-72079Y84381D01*
X-72037Y84458D01*
X-71989Y84541D01*
X-71940Y84638D01*
X-71885Y84749D01*
X-71836Y84874D01*
X-71781Y85013D01*
X-71725Y85166D01*
X-71670Y85332D01*
X-71621Y85513D01*
X-71572Y85707D01*
X-71531Y85915D01*
X-71545D01*
X-71586Y85929D01*
X-71649Y85936D01*
X-71725Y85950D01*
X-71815Y85964D01*
X-71905Y85970D01*
X-72003Y85984D01*
X-72141D01*
X-72197Y85977D01*
X-72266Y85970D01*
X-72357Y85964D01*
X-72461Y85950D01*
X-72572Y85922D01*
X-72690Y85894D01*
X-72704Y85887D01*
X-72738Y85880D01*
X-72794Y85866D01*
X-72856Y85852D01*
X-72926Y85832D01*
X-72988Y85818D01*
X-73037Y85811D01*
X-73071Y85804D01*
X-73092D01*
X-73113Y85811D01*
X-73148Y85818D01*
X-73182Y85832D01*
X-73217Y85846D01*
X-73259Y85873D01*
X-73294Y85908D01*
X-73300Y85915D01*
X-73307Y85929D01*
X-73321Y85950D01*
X-73335Y85984D01*
X-73370Y86061D01*
X-73377Y86109D01*
X-73384Y86165D01*
Y86172D01*
X-73377Y86207D01*
X-73363Y86248D01*
X-73335Y86297D01*
X-73294Y86359D01*
X-73224Y86422D01*
X-73182Y86456D01*
X-73134Y86484D01*
X-73071Y86519D01*
X-73009Y86546D01*
X-73002D01*
X-72988Y86554D01*
X-72967Y86560D01*
X-72933Y86574D01*
X-72891Y86581D01*
X-72842Y86595D01*
X-72787Y86609D01*
X-72717Y86630D01*
X-72648Y86644D01*
X-72565Y86658D01*
X-72475Y86672D01*
X-72377Y86678D01*
X-72273Y86692D01*
X-72155Y86699D01*
X-72037Y86706D01*
X-71829D01*
X-71767Y86699D01*
X-71697D01*
X-71614Y86692D01*
X-71517Y86685D01*
X-71413Y86672D01*
X-71302Y86658D01*
X-71184Y86637D01*
X-70941Y86588D01*
X-70698Y86519D01*
X-70462Y86428D01*
X-70455D01*
X-70441Y86415D01*
X-70413Y86401D01*
X-70379Y86387D01*
X-70288Y86331D01*
X-70184Y86262D01*
X-70087Y86179D01*
X-69997Y86089D01*
X-69962Y86040D01*
X-69934Y85984D01*
X-69921Y85936D01*
X-69914Y85880D01*
Y85873D01*
Y85860D01*
X-69921Y85832D01*
X-69928Y85797D01*
X-69942Y85755D01*
X-69962Y85714D01*
X-69990Y85672D01*
X-70025Y85630D01*
X-70032Y85624D01*
X-70046Y85617D01*
X-70066Y85596D01*
X-70094Y85575D01*
X-70170Y85540D01*
X-70219Y85526D01*
X-70268Y85519D01*
X-70281D01*
X-70302Y85526D01*
X-70330Y85533D01*
X-70372Y85540D01*
X-70413Y85561D01*
X-70462Y85582D01*
X-70524Y85617D01*
X-70531Y85624D01*
X-70559Y85637D01*
X-70601Y85658D01*
X-70642Y85686D01*
X-70746Y85742D01*
X-70795Y85762D01*
X-70837Y85783D01*
Y85776D01*
Y85762D01*
X-70844Y85735D01*
Y85700D01*
X-70851Y85651D01*
Y85603D01*
X-70858Y85540D01*
X-70864Y85478D01*
X-70871Y85332D01*
X-70885Y85166D01*
X-70892Y84992D01*
Y84812D01*
Y84805D01*
Y84784D01*
Y84756D01*
Y84714D01*
Y84666D01*
X-70885Y84610D01*
Y84541D01*
X-70878Y84471D01*
X-70871Y84305D01*
X-70858Y84131D01*
X-70837Y83951D01*
X-70809Y83771D01*
Y83764D01*
X-70802Y83750D01*
Y83729D01*
X-70795Y83694D01*
X-70781Y83625D01*
X-70767Y83542D01*
X-70754Y83458D01*
X-70740Y83396D01*
X-70733Y83368D01*
X-70726Y83354D01*
Y83347D01*
Y83333D01*
X-70733Y83306D01*
X-70740Y83278D01*
X-70754Y83243D01*
X-70767Y83208D01*
X-70795Y83167D01*
X-70830Y83132D01*
X-70837Y83125D01*
X-70851Y83118D01*
X-70871Y83104D01*
X-70899Y83083D01*
X-70976Y83049D01*
X-71024Y83042D01*
X-71080Y83035D01*
X-71100D01*
X-71114Y83042D01*
X-71142Y83056D01*
X-71177Y83070D01*
X-71211Y83090D01*
X-71253Y83125D01*
X-71295Y83174D01*
X-71336Y83229D01*
X-71378Y83306D01*
X-71420Y83389D01*
X-71454Y83500D01*
X-71489Y83625D01*
X-71524Y83771D01*
X-71545Y83937D01*
X-71565Y84131D01*
X-71572Y84118D01*
X-71593Y84083D01*
X-71628Y84027D01*
X-71676Y83951D01*
X-71739Y83861D01*
X-71822Y83764D01*
X-71912Y83659D01*
X-72023Y83555D01*
X-72141Y83444D01*
X-72280Y83340D01*
X-72433Y83243D01*
X-72600Y83153D01*
X-72787Y83077D01*
X-72981Y83021D01*
X-73196Y82986D01*
X-73425Y82972D01*
X-73474D01*
X-73529Y82979D01*
X-73606Y82986D01*
X-73696Y82993D01*
X-73807Y83014D01*
X-73925Y83035D01*
X-74050Y83070D01*
X-74189Y83111D01*
X-74328Y83160D01*
X-74473Y83222D01*
X-74619Y83299D01*
X-74758Y83389D01*
X-74904Y83493D01*
X-75035Y83611D01*
X-75160Y83750D01*
X-75167Y83757D01*
X-75188Y83784D01*
X-75223Y83833D01*
X-75265Y83895D01*
X-75313Y83972D01*
X-75369Y84069D01*
X-75424Y84187D01*
X-75486Y84312D01*
X-75549Y84458D01*
X-75604Y84624D01*
X-75660Y84798D01*
X-75709Y84992D01*
X-75750Y85200D01*
X-75785Y85422D01*
X-75806Y85658D01*
X-75813Y85908D01*
Y85915D01*
Y85929D01*
Y85950D01*
Y85977D01*
X-75806Y86019D01*
Y86068D01*
Y86116D01*
X-75799Y86179D01*
X-75785Y86317D01*
X-75764Y86477D01*
X-75743Y86651D01*
X-75702Y86845D01*
X-75660Y87046D01*
X-75598Y87254D01*
X-75528Y87463D01*
X-75445Y87678D01*
X-75348Y87886D01*
X-75230Y88087D01*
X-75098Y88282D01*
X-74945Y88462D01*
X-74938Y88476D01*
X-74904Y88504D01*
X-74855Y88545D01*
X-74786Y88608D01*
X-74695Y88677D01*
X-74591Y88753D01*
X-74466Y88837D01*
X-74321Y88927D01*
X-74154Y89010D01*
X-73974Y89094D01*
X-73779Y89170D01*
X-73564Y89239D01*
X-73328Y89302D01*
X-73085Y89343D01*
X-72815Y89378D01*
X-72537Y89385D01*
X-72461D01*
X-72405Y89378D01*
D02*
G37*
G36*
X-61496Y89586D02*
X-61447Y89572D01*
X-61391Y89545D01*
X-61336Y89496D01*
X-61308Y89468D01*
X-61287Y89427D01*
X-61266Y89378D01*
X-61253Y89329D01*
X-61239Y89267D01*
Y89198D01*
Y89191D01*
Y89177D01*
X-61246Y89142D01*
Y89114D01*
X-61253Y89080D01*
Y89031D01*
X-61260Y88982D01*
X-61266Y88920D01*
X-61273Y88844D01*
X-61280Y88760D01*
X-61287Y88663D01*
Y88656D01*
Y88635D01*
X-61294Y88601D01*
Y88552D01*
X-61301Y88490D01*
Y88420D01*
X-61308Y88337D01*
X-61315Y88247D01*
Y88143D01*
X-61322Y88039D01*
X-61329Y87921D01*
X-61336Y87803D01*
X-61350Y87546D01*
X-61364Y87275D01*
Y87261D01*
Y87227D01*
Y87171D01*
X-61371Y87095D01*
Y86998D01*
X-61378Y86880D01*
Y86748D01*
Y86602D01*
X-61384Y86436D01*
Y86262D01*
X-61391Y86082D01*
Y85887D01*
X-61398Y85679D01*
Y85471D01*
Y85034D01*
Y85020D01*
Y84992D01*
Y84943D01*
Y84881D01*
Y84805D01*
Y84721D01*
Y84534D01*
Y84520D01*
Y84492D01*
Y84451D01*
X-61391Y84402D01*
Y84354D01*
Y84312D01*
Y84277D01*
Y84263D01*
Y84256D01*
Y84242D01*
Y84215D01*
X-61398Y84180D01*
X-61412Y84097D01*
X-61433Y84000D01*
X-61475Y83895D01*
X-61537Y83812D01*
X-61572Y83777D01*
X-61620Y83750D01*
X-61669Y83736D01*
X-61731Y83729D01*
X-61745D01*
X-61787Y83736D01*
X-61849Y83764D01*
X-61884Y83777D01*
X-61919Y83805D01*
X-61954Y83833D01*
X-61988Y83875D01*
X-62016Y83923D01*
X-62051Y83979D01*
X-62072Y84048D01*
X-62092Y84131D01*
X-62099Y84222D01*
X-62106Y84326D01*
Y84333D01*
Y84347D01*
Y84374D01*
Y84409D01*
X-62099Y84478D01*
X-62092Y84548D01*
X-62099Y84541D01*
X-62120Y84520D01*
X-62162Y84485D01*
X-62210Y84444D01*
X-62280Y84395D01*
X-62356Y84340D01*
X-62446Y84277D01*
X-62543Y84215D01*
X-62655Y84152D01*
X-62773Y84090D01*
X-62904Y84034D01*
X-63043Y83986D01*
X-63189Y83944D01*
X-63341Y83909D01*
X-63501Y83889D01*
X-63668Y83882D01*
X-63737D01*
X-63793Y83889D01*
X-63855Y83895D01*
X-63924Y83909D01*
X-64008Y83923D01*
X-64091Y83944D01*
X-64188Y83965D01*
X-64278Y84000D01*
X-64382Y84034D01*
X-64480Y84083D01*
X-64577Y84138D01*
X-64674Y84201D01*
X-64764Y84277D01*
X-64847Y84360D01*
X-64855Y84367D01*
X-64868Y84381D01*
X-64889Y84409D01*
X-64917Y84451D01*
X-64945Y84499D01*
X-64986Y84562D01*
X-65021Y84631D01*
X-65063Y84707D01*
X-65104Y84798D01*
X-65139Y84895D01*
X-65181Y85006D01*
X-65208Y85124D01*
X-65236Y85249D01*
X-65257Y85387D01*
X-65271Y85533D01*
X-65278Y85686D01*
Y85700D01*
Y85735D01*
X-65271Y85797D01*
Y85880D01*
X-65257Y85977D01*
X-65243Y86089D01*
X-65222Y86213D01*
X-65201Y86352D01*
X-65167Y86498D01*
X-65125Y86644D01*
X-65070Y86803D01*
X-65014Y86956D01*
X-64938Y87109D01*
X-64855Y87261D01*
X-64757Y87407D01*
X-64646Y87546D01*
X-64639Y87553D01*
X-64618Y87574D01*
X-64584Y87608D01*
X-64528Y87657D01*
X-64466Y87713D01*
X-64389Y87768D01*
X-64306Y87837D01*
X-64202Y87900D01*
X-64091Y87969D01*
X-63966Y88032D01*
X-63827Y88087D01*
X-63682Y88143D01*
X-63529Y88191D01*
X-63355Y88226D01*
X-63182Y88247D01*
X-62994Y88254D01*
X-62911D01*
X-62870Y88247D01*
X-62814Y88240D01*
X-62759Y88233D01*
X-62689Y88226D01*
X-62543Y88198D01*
X-62377Y88164D01*
X-62190Y88108D01*
X-62002Y88032D01*
Y88046D01*
Y88073D01*
Y88122D01*
X-61995Y88191D01*
Y88268D01*
Y88358D01*
X-61988Y88455D01*
Y88552D01*
X-61974Y88760D01*
X-61967Y88858D01*
X-61961Y88955D01*
X-61954Y89038D01*
X-61947Y89114D01*
X-61940Y89177D01*
X-61933Y89225D01*
Y89232D01*
X-61926Y89239D01*
X-61919Y89281D01*
X-61891Y89343D01*
X-61856Y89413D01*
X-61801Y89475D01*
X-61738Y89538D01*
X-61648Y89579D01*
X-61600Y89586D01*
X-61544Y89593D01*
X-61530D01*
X-61496Y89586D01*
D02*
G37*
G36*
X-68901Y88517D02*
X-68866Y88511D01*
X-68789Y88490D01*
X-68748Y88462D01*
X-68713Y88434D01*
X-68706Y88427D01*
X-68699Y88420D01*
X-68664Y88379D01*
X-68630Y88316D01*
X-68623Y88282D01*
X-68616Y88240D01*
Y88233D01*
Y88226D01*
Y88205D01*
X-68623Y88177D01*
Y88136D01*
X-68630Y88080D01*
X-68644Y88018D01*
X-68658Y87941D01*
Y87934D01*
X-68664Y87907D01*
X-68672Y87865D01*
X-68678Y87817D01*
X-68685Y87754D01*
X-68692Y87699D01*
X-68699Y87574D01*
Y87497D01*
X-68692Y87504D01*
X-68672Y87532D01*
X-68644Y87567D01*
X-68602Y87608D01*
X-68554Y87664D01*
X-68491Y87726D01*
X-68422Y87789D01*
X-68338Y87858D01*
X-68248Y87928D01*
X-68151Y87990D01*
X-68047Y88052D01*
X-67929Y88108D01*
X-67811Y88150D01*
X-67686Y88191D01*
X-67547Y88212D01*
X-67408Y88219D01*
X-67339D01*
X-67290Y88212D01*
X-67235Y88205D01*
X-67165Y88191D01*
X-67089Y88177D01*
X-67006Y88157D01*
X-66923Y88129D01*
X-66832Y88094D01*
X-66742Y88052D01*
X-66652Y87997D01*
X-66562Y87941D01*
X-66478Y87872D01*
X-66395Y87789D01*
X-66319Y87699D01*
X-66312Y87692D01*
X-66305Y87678D01*
X-66284Y87643D01*
X-66256Y87601D01*
X-66229Y87546D01*
X-66194Y87483D01*
X-66159Y87407D01*
X-66118Y87317D01*
X-66083Y87220D01*
X-66048Y87109D01*
X-66013Y86984D01*
X-65986Y86852D01*
X-65958Y86706D01*
X-65937Y86554D01*
X-65930Y86387D01*
X-65923Y86213D01*
Y86207D01*
Y86172D01*
Y86130D01*
X-65930Y86068D01*
Y85991D01*
X-65937Y85894D01*
X-65944Y85790D01*
X-65958Y85679D01*
X-65972Y85554D01*
X-65993Y85422D01*
X-66013Y85277D01*
X-66041Y85131D01*
X-66111Y84825D01*
X-66208Y84513D01*
Y84506D01*
X-66215Y84492D01*
X-66222Y84465D01*
X-66236Y84430D01*
X-66277Y84347D01*
X-66326Y84256D01*
X-66381Y84159D01*
X-66458Y84076D01*
X-66499Y84041D01*
X-66541Y84013D01*
X-66583Y84000D01*
X-66631Y83993D01*
X-66652D01*
X-66680Y84000D01*
X-66714Y84007D01*
X-66791Y84027D01*
X-66825Y84048D01*
X-66867Y84076D01*
X-66874Y84083D01*
X-66881Y84090D01*
X-66909Y84131D01*
X-66943Y84194D01*
X-66950Y84236D01*
X-66957Y84277D01*
Y84291D01*
X-66950Y84319D01*
X-66943Y84347D01*
X-66936Y84374D01*
X-66930Y84409D01*
X-66916Y84451D01*
X-66902Y84506D01*
X-66881Y84569D01*
X-66867Y84638D01*
X-66839Y84721D01*
X-66812Y84819D01*
X-66784Y84930D01*
Y84936D01*
X-66777Y84957D01*
X-66770Y84992D01*
X-66756Y85034D01*
X-66742Y85096D01*
X-66728Y85158D01*
X-66714Y85235D01*
X-66694Y85318D01*
X-66680Y85408D01*
X-66666Y85505D01*
X-66638Y85714D01*
X-66617Y85936D01*
X-66610Y86165D01*
Y86172D01*
Y86179D01*
Y86199D01*
Y86227D01*
X-66617Y86297D01*
X-66624Y86387D01*
X-66638Y86491D01*
X-66659Y86609D01*
X-66687Y86734D01*
X-66721Y86866D01*
X-66770Y86998D01*
X-66825Y87123D01*
X-66895Y87240D01*
X-66985Y87345D01*
X-67082Y87435D01*
X-67200Y87504D01*
X-67263Y87532D01*
X-67339Y87553D01*
X-67408Y87560D01*
X-67492Y87567D01*
X-67540D01*
X-67575Y87560D01*
X-67617Y87553D01*
X-67665Y87546D01*
X-67783Y87518D01*
X-67908Y87476D01*
X-68047Y87407D01*
X-68116Y87365D01*
X-68186Y87317D01*
X-68248Y87261D01*
X-68311Y87192D01*
Y87185D01*
X-68325Y87171D01*
X-68338Y87150D01*
X-68359Y87123D01*
X-68387Y87088D01*
X-68415Y87039D01*
X-68442Y86984D01*
X-68470Y86921D01*
X-68505Y86852D01*
X-68533Y86775D01*
X-68588Y86609D01*
X-68623Y86408D01*
X-68630Y86297D01*
X-68637Y86186D01*
Y86179D01*
Y86172D01*
Y86151D01*
Y86123D01*
Y86089D01*
X-68630Y86040D01*
Y85991D01*
X-68623Y85936D01*
X-68616Y85866D01*
Y85797D01*
X-68602Y85714D01*
X-68595Y85630D01*
X-68574Y85436D01*
X-68540Y85214D01*
Y85207D01*
X-68533Y85186D01*
Y85158D01*
X-68526Y85117D01*
X-68512Y85061D01*
X-68505Y85006D01*
X-68484Y84874D01*
X-68470Y84728D01*
X-68449Y84576D01*
X-68442Y84444D01*
X-68436Y84381D01*
Y84326D01*
Y84319D01*
Y84298D01*
Y84270D01*
X-68442Y84229D01*
X-68449Y84187D01*
X-68456Y84131D01*
X-68477Y84020D01*
X-68519Y83909D01*
X-68554Y83854D01*
X-68581Y83812D01*
X-68623Y83771D01*
X-68672Y83743D01*
X-68727Y83722D01*
X-68789Y83715D01*
X-68817D01*
X-68852Y83722D01*
X-68887D01*
X-68970Y83750D01*
X-69011Y83764D01*
X-69039Y83791D01*
X-69046Y83805D01*
X-69053Y83819D01*
X-69067Y83847D01*
X-69081Y83882D01*
X-69095Y83923D01*
X-69109Y83979D01*
X-69123Y84041D01*
Y84055D01*
Y84069D01*
Y84090D01*
X-69130Y84124D01*
Y84166D01*
Y84222D01*
X-69136Y84284D01*
X-69143Y84360D01*
X-69150Y84451D01*
X-69157Y84555D01*
X-69164Y84680D01*
X-69171Y84812D01*
X-69185Y84964D01*
X-69199Y85138D01*
X-69213Y85325D01*
Y85332D01*
Y85339D01*
Y85360D01*
X-69220Y85387D01*
Y85422D01*
X-69227Y85464D01*
X-69234Y85568D01*
X-69248Y85686D01*
X-69261Y85825D01*
X-69275Y85984D01*
X-69282Y86144D01*
X-69296Y86317D01*
X-69310Y86491D01*
X-69338Y86845D01*
X-69345Y87011D01*
X-69352Y87164D01*
X-69358Y87310D01*
Y87435D01*
Y87449D01*
Y87483D01*
Y87539D01*
X-69352Y87608D01*
X-69345Y87685D01*
X-69338Y87782D01*
X-69310Y87983D01*
X-69261Y88177D01*
X-69227Y88275D01*
X-69185Y88358D01*
X-69136Y88427D01*
X-69081Y88476D01*
X-69019Y88511D01*
X-68949Y88524D01*
X-68928D01*
X-68901Y88517D01*
D02*
G37*
%LPC*%
G36*
X-62988Y87629D02*
X-63057D01*
X-63106Y87622D01*
X-63168Y87615D01*
X-63237Y87601D01*
X-63321Y87587D01*
X-63404Y87567D01*
X-63494Y87539D01*
X-63591Y87504D01*
X-63682Y87463D01*
X-63779Y87414D01*
X-63876Y87358D01*
X-63966Y87289D01*
X-64056Y87213D01*
X-64140Y87123D01*
X-64147Y87116D01*
X-64161Y87102D01*
X-64181Y87067D01*
X-64202Y87032D01*
X-64237Y86977D01*
X-64271Y86914D01*
X-64313Y86845D01*
X-64348Y86762D01*
X-64389Y86672D01*
X-64431Y86567D01*
X-64466Y86456D01*
X-64494Y86331D01*
X-64521Y86199D01*
X-64542Y86061D01*
X-64556Y85915D01*
X-64563Y85755D01*
Y85748D01*
Y85728D01*
Y85700D01*
X-64556Y85658D01*
Y85610D01*
X-64549Y85547D01*
X-64528Y85415D01*
X-64494Y85270D01*
X-64445Y85117D01*
X-64376Y84964D01*
X-64278Y84832D01*
X-64271D01*
X-64265Y84819D01*
X-64223Y84784D01*
X-64161Y84728D01*
X-64070Y84673D01*
X-63959Y84610D01*
X-63827Y84555D01*
X-63668Y84520D01*
X-63584Y84513D01*
X-63494Y84506D01*
X-63432D01*
X-63390Y84513D01*
X-63335Y84520D01*
X-63279Y84527D01*
X-63133Y84562D01*
X-62981Y84610D01*
X-62897Y84645D01*
X-62821Y84680D01*
X-62745Y84728D01*
X-62668Y84784D01*
X-62592Y84846D01*
X-62530Y84923D01*
X-62523Y84930D01*
X-62516Y84943D01*
X-62495Y84971D01*
X-62474Y85013D01*
X-62419Y85103D01*
X-62349Y85207D01*
X-62342Y85214D01*
X-62328Y85235D01*
X-62308Y85256D01*
X-62280Y85290D01*
X-62238Y85318D01*
X-62196Y85346D01*
X-62141Y85374D01*
X-62085Y85387D01*
Y85401D01*
Y85436D01*
Y85485D01*
Y85561D01*
Y85651D01*
Y85755D01*
X-62078Y85873D01*
Y86012D01*
Y86151D01*
Y86304D01*
X-62072Y86470D01*
X-62065Y86637D01*
X-62058Y86984D01*
X-62044Y87338D01*
X-62051Y87345D01*
X-62065Y87352D01*
X-62092Y87365D01*
X-62127Y87386D01*
X-62169Y87407D01*
X-62217Y87428D01*
X-62335Y87483D01*
X-62481Y87539D01*
X-62641Y87581D01*
X-62814Y87615D01*
X-62988Y87629D01*
D02*
G37*
%LPD*%
D28*
X-163276Y-57087D02*
X-162135Y-57314D01*
X-161060Y-57759D01*
X-160093Y-58405D01*
X-159271Y-59228D01*
X-158624Y-60195D01*
X-158179Y-61270D01*
X-157952Y-62410D01*
Y-62992D02*
Y-62410D01*
Y-63574D02*
Y-62992D01*
X-158179Y-64715D02*
X-157952Y-63574D01*
X-158624Y-65789D02*
X-158179Y-64715D01*
X-159271Y-66757D02*
X-158624Y-65789D01*
X-160093Y-67579D02*
X-159271Y-66757D01*
X-161060Y-68226D02*
X-160093Y-67579D01*
X-162135Y-68671D02*
X-161060Y-68226D01*
X-163276Y-68898D02*
X-162135Y-68671D01*
X-164439Y-68898D02*
X-163276D01*
X-165580Y-68671D02*
X-164439Y-68898D01*
X-166655Y-68226D02*
X-165580Y-68671D01*
X-167622Y-67579D02*
X-166655Y-68226D01*
X-168445Y-66757D02*
X-167622Y-67579D01*
X-169091Y-65789D02*
X-168445Y-66757D01*
X-169536Y-64715D02*
X-169091Y-65789D01*
X-169763Y-63574D02*
X-169536Y-64715D01*
X-169763Y-63574D02*
Y-62992D01*
Y-62410D01*
X-169536Y-61270D01*
X-169091Y-60195D01*
X-168445Y-59228D01*
X-167622Y-58405D01*
X-166655Y-57759D01*
X-165580Y-57314D01*
X-164439Y-57087D01*
X-163276D01*
X165464D02*
X166605Y-57314D01*
X167680Y-57759D01*
X168647Y-58405D01*
X169470Y-59228D01*
X170116Y-60195D01*
X170561Y-61270D01*
X170788Y-62410D01*
Y-62992D02*
Y-62410D01*
Y-63574D02*
Y-62992D01*
X170561Y-64715D02*
X170788Y-63574D01*
X170116Y-65789D02*
X170561Y-64715D01*
X169470Y-66757D02*
X170116Y-65789D01*
X168647Y-67579D02*
X169470Y-66757D01*
X167680Y-68226D02*
X168647Y-67579D01*
X166605Y-68671D02*
X167680Y-68226D01*
X165464Y-68898D02*
X166605Y-68671D01*
X164301Y-68898D02*
X165464D01*
X163160Y-68671D02*
X164301Y-68898D01*
X162085Y-68226D02*
X163160Y-68671D01*
X161118Y-67579D02*
X162085Y-68226D01*
X160295Y-66757D02*
X161118Y-67579D01*
X159649Y-65789D02*
X160295Y-66757D01*
X159204Y-64715D02*
X159649Y-65789D01*
X158977Y-63574D02*
X159204Y-64715D01*
X158977Y-63574D02*
Y-62992D01*
Y-62410D01*
X159204Y-61270D01*
X159649Y-60195D01*
X160295Y-59228D01*
X161118Y-58405D01*
X162085Y-57759D01*
X163160Y-57314D01*
X164301Y-57087D01*
X165464D01*
X-163276Y68898D02*
X-162135Y68671D01*
X-161060Y68226D01*
X-160093Y67579D01*
X-159271Y66757D01*
X-158624Y65789D01*
X-158179Y64715D01*
X-157952Y63574D01*
Y62992D02*
Y63574D01*
Y62410D02*
Y62992D01*
X-158179Y61270D02*
X-157952Y62410D01*
X-158624Y60195D02*
X-158179Y61270D01*
X-159271Y59228D02*
X-158624Y60195D01*
X-160093Y58405D02*
X-159271Y59228D01*
X-161060Y57759D02*
X-160093Y58405D01*
X-162135Y57314D02*
X-161060Y57759D01*
X-163276Y57087D02*
X-162135Y57314D01*
X-164439Y57087D02*
X-163276D01*
X-165580Y57314D02*
X-164439Y57087D01*
X-166655Y57759D02*
X-165580Y57314D01*
X-167622Y58405D02*
X-166655Y57759D01*
X-168445Y59228D02*
X-167622Y58405D01*
X-169091Y60195D02*
X-168445Y59228D01*
X-169536Y61270D02*
X-169091Y60195D01*
X-169763Y62410D02*
X-169536Y61270D01*
X-169763Y62410D02*
Y62992D01*
Y63574D01*
X-169536Y64715D01*
X-169091Y65789D01*
X-168445Y66757D01*
X-167622Y67579D01*
X-166655Y68226D01*
X-165580Y68671D01*
X-164439Y68898D01*
X-163276D01*
X165464D02*
X166605Y68671D01*
X167680Y68226D01*
X168647Y67579D01*
X169470Y66757D01*
X170116Y65789D01*
X170561Y64715D01*
X170788Y63574D01*
Y62992D02*
Y63574D01*
Y62410D02*
Y62992D01*
X170561Y61270D02*
X170788Y62410D01*
X170116Y60195D02*
X170561Y61270D01*
X169470Y59228D02*
X170116Y60195D01*
X168647Y58405D02*
X169470Y59228D01*
X167680Y57759D02*
X168647Y58405D01*
X166605Y57314D02*
X167680Y57759D01*
X165464Y57087D02*
X166605Y57314D01*
X164301Y57087D02*
X165464D01*
X163160Y57314D02*
X164301Y57087D01*
X162085Y57759D02*
X163160Y57314D01*
X161118Y58405D02*
X162085Y57759D01*
X160295Y59228D02*
X161118Y58405D01*
X159649Y60195D02*
X160295Y59228D01*
X159204Y61270D02*
X159649Y60195D01*
X158977Y62410D02*
X159204Y61270D01*
X158977Y62410D02*
Y62992D01*
Y63574D01*
X159204Y64715D01*
X159649Y65789D01*
X160295Y66757D01*
X161118Y67579D01*
X162085Y68226D01*
X163160Y68671D01*
X164301Y68898D01*
X165464D01*
X-167795Y74803D02*
X168820Y74803D01*
X-168570Y74803D02*
X-167795Y74803D01*
X-170091Y74501D02*
X-168570Y74803D01*
X-171524Y73907D02*
X-170091Y74501D01*
X-172814Y73045D02*
X-171524Y73907D01*
X-173911Y71948D02*
X-172814Y73045D01*
X-174773Y70659D02*
X-173911Y71948D01*
X-175366Y69226D02*
X-174773Y70659D01*
X-175669Y67705D02*
X-175366Y69226D01*
X-175669Y67705D02*
X-175669Y66929D01*
Y35433D02*
Y66929D01*
Y35433D02*
X-175669Y35041D01*
X-175369Y34318D01*
X-174815Y33764D01*
X-174092Y33465D01*
X-173700D01*
X-171732Y33465D01*
Y-33465D02*
Y33465D01*
X-173700Y-33465D02*
X-171732D01*
X-174092Y-33465D02*
X-173700Y-33465D01*
X-174815Y-33764D02*
X-174092Y-33465D01*
X-175369Y-34318D02*
X-174815Y-33764D01*
X-175669Y-35041D02*
X-175369Y-34318D01*
X-175669Y-35433D02*
Y-35041D01*
X-175669Y-66929D02*
X-175669Y-35433D01*
X-175669Y-66929D02*
X-175669Y-67705D01*
X-175366Y-69226D01*
X-174773Y-70659D01*
X-173911Y-71948D01*
X-172814Y-73045D01*
X-171524Y-73907D01*
X-170091Y-74501D01*
X-168570Y-74803D01*
X-167795D01*
X168820Y-74803D01*
X169595Y-74803D01*
X171116Y-74501D01*
X172549Y-73907D01*
X173839Y-73045D01*
X174936Y-71948D01*
X175797Y-70659D01*
X176391Y-69226D01*
X176694Y-67705D01*
Y-66929D01*
X176694Y-19980D01*
X152559D02*
X176694D01*
X152559D02*
Y51801D01*
X176694D01*
Y66929D01*
X176694Y67705D02*
X176694Y66929D01*
X176391Y69226D02*
X176694Y67705D01*
X175797Y70659D02*
X176391Y69226D01*
X174936Y71948D02*
X175797Y70659D01*
X173839Y73045D02*
X174936Y71948D01*
X172549Y73907D02*
X173839Y73045D01*
X171116Y74501D02*
X172549Y73907D01*
X169595Y74803D02*
X171116Y74501D01*
X168820Y74803D02*
X169595D01*
D29*
X-67421Y-65453D02*
D03*
X-75295D02*
D03*
X-83169D02*
D03*
D30*
X112122Y-49431D02*
D03*
X134878Y-49431D02*
D03*
D31*
X96752Y-44390D02*
D03*
X-63681Y17224D02*
D03*
X-5020Y-1969D02*
D03*
X-4980Y9843D02*
D03*
X-5020Y-5906D02*
D03*
Y5906D02*
D03*
X-4980Y13780D02*
D03*
Y1969D02*
D03*
X6102Y-1476D02*
D03*
X-111024Y5906D02*
D03*
X-11516Y-21198D02*
D03*
X56024Y37034D02*
D03*
X61024D02*
D03*
X-11516Y-26575D02*
D03*
X37984Y49500D02*
D03*
X4181Y57972D02*
D03*
X37984Y44500D02*
D03*
X219Y57972D02*
D03*
X76000Y44700D02*
D03*
Y49300D02*
D03*
X-22441Y60402D02*
D03*
X-15087Y43968D02*
D03*
X85335Y40650D02*
D03*
X-70866Y38878D02*
D03*
X-85728Y42421D02*
D03*
X-45500Y-52000D02*
D03*
X-25098Y-20141D02*
D03*
X-25500Y38500D02*
D03*
X123500Y60100D02*
D03*
Y55500D02*
D03*
X-83801Y18369D02*
D03*
X-89961Y20965D02*
D03*
X-55807Y-10433D02*
D03*
X-55610Y-38831D02*
D03*
Y-42397D02*
D03*
X-63214Y-10433D02*
D03*
X-59449D02*
D03*
X-98492Y23000D02*
D03*
X-111024Y-5906D02*
D03*
Y-1969D02*
D03*
Y1969D02*
D03*
Y9843D02*
D03*
Y13780D02*
D03*
X-52449Y30402D02*
D03*
X86663Y-2411D02*
D03*
X51772Y-56496D02*
D03*
X84252Y-43209D02*
D03*
X50295Y-24705D02*
D03*
X64272Y-21752D02*
D03*
X43012D02*
D03*
X40945Y-40551D02*
D03*
X36417Y-31496D02*
D03*
X-133847Y37390D02*
D03*
X-133858Y41339D02*
D03*
X-93815Y-19965D02*
D03*
X-93996Y-12303D02*
D03*
X-95197Y-41339D02*
D03*
X-110925D02*
D03*
Y-33421D02*
D03*
X-95197Y-33386D02*
D03*
X-15087Y32969D02*
D03*
X-70866Y33169D02*
D03*
X-3102Y60473D02*
D03*
X6102Y-23425D02*
D03*
X9827D02*
D03*
Y-1476D02*
D03*
X36374Y30752D02*
D03*
X114173Y67323D02*
D03*
X145866Y-33213D02*
D03*
X-59201Y-22933D02*
D03*
X-22441Y63748D02*
D03*
X-102067D02*
D03*
X2461Y-42520D02*
D03*
X18406Y11516D02*
D03*
X31532Y-14405D02*
D03*
X106299Y-29134D02*
D03*
X47047Y-29429D02*
D03*
X50984Y-15748D02*
D03*
X61024D02*
D03*
X56024Y-12658D02*
D03*
X46024D02*
D03*
X47047Y-34154D02*
D03*
X23130Y-68504D02*
D03*
X80020Y67421D02*
D03*
X0Y-25492D02*
D03*
X16043D02*
D03*
X13583Y-10138D02*
D03*
X16634Y-19488D02*
D03*
X84153Y-35244D02*
D03*
X59252Y-68504D02*
D03*
X126476Y-52461D02*
D03*
X120866D02*
D03*
X98980Y-68173D02*
D03*
X132874Y-39394D02*
D03*
X114051Y-39394D02*
D03*
M02*
