G04*
G04 #@! TF.GenerationSoftware,Altium Limited,Altium Designer,21.3.2 (30)*
G04*
G04 Layer_Color=16711935*
%FSLAX25Y25*%
%MOIN*%
G70*
G04*
G04 #@! TF.SameCoordinates,D336144A-5441-4EE2-8883-8E06B423CE8D*
G04*
G04*
G04 #@! TF.FilePolarity,Positive*
G04*
G01*
G75*
%ADD10C,0.00051*%
%ADD143C,0.00050*%
D10*
X176694Y-66929D02*
Y-19980D01*
X152559D02*
X176694D01*
X152559D02*
Y51801D01*
X176694D01*
Y66929D01*
Y-66929D02*
Y-19980D01*
X152559D02*
X176694D01*
X152559D02*
Y51801D01*
X176694D01*
Y66929D01*
D143*
D02*
G03*
X168820Y74803I-7874J0D01*
G01*
Y-74803D02*
G03*
X176694Y-66929I0J7874D01*
G01*
X-175669Y35433D02*
G03*
X-173700Y33465I1969J0D01*
G01*
Y-33465D02*
G03*
X-175669Y-35433I0J-1969D01*
G01*
X-167795Y74803D02*
G03*
X-175669Y66929I0J-7874D01*
G01*
Y-66929D02*
G03*
X-167795Y-74803I7874J0D01*
G01*
X176694Y66929D02*
G03*
X168820Y74803I-7874J0D01*
G01*
Y-74803D02*
G03*
X176694Y-66929I0J7874D01*
G01*
X-175669Y35433D02*
G03*
X-173700Y33465I1969J0D01*
G01*
Y-33465D02*
G03*
X-175669Y-35433I0J-1969D01*
G01*
X-167795Y74803D02*
G03*
X-175669Y66929I0J-7874D01*
G01*
Y-66929D02*
G03*
X-167795Y-74803I7874J0D01*
G01*
X-173700Y33465D02*
X-171732D01*
Y-33465D02*
Y33465D01*
X-173700Y-33465D02*
X-171732D01*
X-175669Y35433D02*
Y66929D01*
X-167795Y74803D02*
X168820D01*
X-167795Y-74803D02*
X168820D01*
X-175669Y-66929D02*
Y-35433D01*
X-167795Y74803D02*
X168820D01*
X-173700Y33465D02*
X-171732D01*
Y-33465D02*
Y33465D01*
X-173700Y-33465D02*
X-171732D01*
X-175669Y35433D02*
Y66929D01*
X-167795Y-74803D02*
X168820D01*
X-175669Y-66929D02*
Y-35433D01*
M02*
