G04*
G04 #@! TF.GenerationSoftware,Altium Limited,Altium Designer,21.6.1 (37)*
G04*
G04 Layer_Color=128*
%FSLAX25Y25*%
%MOIN*%
G70*
G04*
G04 #@! TF.SameCoordinates,2E3D6A0A-ABA2-4879-AB81-27CE6CF8F1C7*
G04*
G04*
G04 #@! TF.FilePolarity,Positive*
G04*
G01*
G75*
%ADD145C,0.00200*%
D145*
X110842Y-49431D02*
X113401D01*
X112122Y-50710D02*
Y-48151D01*
X133598Y-49431D02*
X136157D01*
X134878Y-50710D02*
Y-48151D01*
X105311Y-63801D02*
X107673D01*
X106492Y-64982D02*
Y-62620D01*
X139327Y-63801D02*
X141689D01*
X140508Y-64982D02*
Y-62620D01*
X105311Y-47463D02*
X107673D01*
X106492Y-48644D02*
Y-46282D01*
X139327Y-47463D02*
X141689D01*
X140508Y-48644D02*
Y-46282D01*
X-84941Y-65453D02*
X-81398D01*
X-83169Y-67224D02*
Y-63681D01*
X-77067Y-65453D02*
X-73524D01*
X-75295Y-67224D02*
Y-63681D01*
X-69193Y-65453D02*
X-65650D01*
X-67421Y-67224D02*
Y-63681D01*
X-61319Y-65453D02*
X-57776D01*
X-59547Y-67224D02*
Y-63681D01*
X64776Y-40453D02*
X66075D01*
X65425Y-41102D02*
Y-39803D01*
X60276Y-44953D02*
X61575D01*
X60925Y-45602D02*
Y-44303D01*
X55776Y-40453D02*
X57075D01*
X56425Y-41102D02*
Y-39803D01*
X60276Y-35953D02*
X61575D01*
X60925Y-36602D02*
Y-35303D01*
X60276Y-40453D02*
X61575D01*
X60925Y-41102D02*
Y-39803D01*
X55776Y-44953D02*
X57075D01*
X56425Y-45602D02*
Y-44303D01*
X55776Y-35953D02*
X57075D01*
X56425Y-36602D02*
Y-35303D01*
X64776Y-35953D02*
X66075D01*
X65425Y-36602D02*
Y-35303D01*
X64776Y-44953D02*
X66075D01*
X65425Y-45602D02*
Y-44303D01*
X-112903Y-61910D02*
X-111703D01*
X-112303Y-62510D02*
Y-61309D01*
X-123385Y-61910D02*
X-122185D01*
X-122785Y-62510D02*
Y-61309D01*
X-133868Y-61910D02*
X-132668D01*
X-133268Y-62510D02*
Y-61309D01*
X-120876Y-53347D02*
X-119676D01*
X-120276Y-53947D02*
Y-52746D01*
X-130423Y-53347D02*
X-129223D01*
X-129823Y-53947D02*
Y-52746D01*
X-139970Y-53347D02*
X-138770D01*
X-139370Y-53947D02*
Y-52746D01*
X-134360Y-45276D02*
X-133160D01*
X-133760Y-45876D02*
Y-44676D01*
X-145384Y-45276D02*
X-144184D01*
X-144783Y-45876D02*
Y-44676D01*
X-129734Y-36811D02*
X-128534D01*
X-129134Y-37411D02*
Y-36211D01*
X-140413Y-36811D02*
X-139213D01*
X-139813Y-37411D02*
Y-36211D01*
X-151092Y-36811D02*
X-149892D01*
X-150492Y-37411D02*
Y-36211D01*
X-125256Y49705D02*
X-124056D01*
X-124655Y49105D02*
Y50305D01*
X-125256Y58366D02*
X-124056D01*
X-124655Y57766D02*
Y58966D01*
X-125256Y41043D02*
X-124056D01*
X-124655Y40443D02*
Y41643D01*
X-112017Y41043D02*
X-110817D01*
X-111417Y40443D02*
Y41643D01*
X-112017Y49705D02*
X-110817D01*
X-111417Y49105D02*
Y50305D01*
X-112017Y58366D02*
X-110817D01*
X-111417Y57766D02*
Y58966D01*
X-92824Y49705D02*
X-91624D01*
X-92224Y49105D02*
Y50305D01*
X-102470Y49705D02*
X-101270D01*
X-101870Y49105D02*
Y50305D01*
X-101584Y41043D02*
X-100384D01*
X-100984Y40443D02*
Y41643D01*
X-138494Y41043D02*
X-137294D01*
X-137894Y40443D02*
Y41643D01*
X-149124Y41043D02*
X-147924D01*
X-148524Y40443D02*
Y41643D01*
X-138494Y49705D02*
X-137294D01*
X-137894Y49105D02*
Y50305D01*
X-138494Y58366D02*
X-137294D01*
X-137894Y57766D02*
Y58966D01*
X-139970Y19354D02*
X-138770D01*
X-139370Y18754D02*
Y19954D01*
X-139970Y24016D02*
X-138770D01*
X-139370Y23416D02*
Y24616D01*
X144184Y-10039D02*
X145384D01*
X144783Y-10639D02*
Y-9439D01*
X143199Y69291D02*
X144399D01*
X143799Y68691D02*
Y69891D01*
X148317Y64862D02*
X149517D01*
X148917Y64262D02*
Y65462D01*
X125680Y34154D02*
X126880D01*
X126279Y33553D02*
Y34754D01*
X125975Y41831D02*
X127175D01*
X126575Y41231D02*
Y42431D01*
X135030Y41831D02*
X136230D01*
X135630Y41231D02*
Y42431D01*
X144085Y41831D02*
X145285D01*
X144685Y41231D02*
Y42431D01*
X107274Y-2854D02*
X108474D01*
X107874Y-3454D02*
Y-2254D01*
X98071Y-2854D02*
X99271D01*
X98671Y-3454D02*
Y-2254D01*
X98071Y6791D02*
X99271D01*
X98671Y6191D02*
Y7391D01*
X98071Y34154D02*
X99271D01*
X98671Y33553D02*
Y34754D01*
X98071Y25787D02*
X99271D01*
X98671Y25187D02*
Y26387D01*
X134882Y34154D02*
X136082D01*
X135482Y33553D02*
Y34754D01*
X134882Y25787D02*
X136082D01*
X135482Y25187D02*
Y26387D01*
X116477Y-2854D02*
X117677D01*
X117077Y-3454D02*
Y-2254D01*
X125680Y-2854D02*
X126880D01*
X126279Y-3454D02*
Y-2254D01*
X134882Y-2854D02*
X136082D01*
X135482Y-3454D02*
Y-2254D01*
X144085Y-2854D02*
X145285D01*
X144685Y-3454D02*
Y-2254D01*
X88868Y6791D02*
X90069D01*
X89468Y6191D02*
Y7391D01*
X134882Y6791D02*
X136082D01*
X135482Y6191D02*
Y7391D01*
X144085Y6791D02*
X145285D01*
X144685Y6191D02*
Y7391D01*
X88868Y16929D02*
X90069D01*
X89468Y16329D02*
Y17529D01*
X98071Y16929D02*
X99271D01*
X98671Y16329D02*
Y17529D01*
X134882Y16929D02*
X136082D01*
X135482Y16329D02*
Y17529D01*
X144085Y16929D02*
X145285D01*
X144685Y16329D02*
Y17529D01*
X88868Y25787D02*
X90069D01*
X89468Y25187D02*
Y26387D01*
X107274Y25787D02*
X108474D01*
X107874Y25187D02*
Y26387D01*
X116477Y25787D02*
X117677D01*
X117077Y25187D02*
Y26387D01*
X125680Y25787D02*
X126880D01*
X126279Y25187D02*
Y26387D01*
X144085Y25787D02*
X145285D01*
X144685Y25187D02*
Y26387D01*
X88868Y34154D02*
X90069D01*
X89468Y33553D02*
Y34754D01*
X107274Y34154D02*
X108474D01*
X107874Y33553D02*
Y34754D01*
X116477Y34154D02*
X117677D01*
X117077Y33553D02*
Y34754D01*
X144085Y34154D02*
X145285D01*
X144685Y33553D02*
Y34754D01*
X8190Y-70374D02*
X9391D01*
X8790Y-70974D02*
Y-69774D01*
X-1916Y-70374D02*
X-716D01*
X-1316Y-70974D02*
Y-69774D01*
X-12024Y-70374D02*
X-10824D01*
X-11423Y-70974D02*
Y-69774D01*
X-22131Y-70374D02*
X-20931D01*
X-21531Y-70974D02*
Y-69774D01*
X-32238Y-70374D02*
X-31038D01*
X-31638Y-70974D02*
Y-69774D01*
X-42345Y-70374D02*
X-41145D01*
X-41745Y-70974D02*
Y-69774D01*
X-52452Y-70374D02*
X-51252D01*
X-51852Y-70974D02*
Y-69774D01*
X-62559Y-70374D02*
X-61359D01*
X-61959Y-70974D02*
Y-69774D01*
X-72666Y-70374D02*
X-71466D01*
X-72066Y-70974D02*
Y-69774D01*
X-82773Y-70374D02*
X-81573D01*
X-82173Y-70974D02*
Y-69774D01*
X-92880Y-70374D02*
X-91680D01*
X-92280Y-70974D02*
Y-69774D01*
X-102987Y-70374D02*
X-101787D01*
X-102387Y-70974D02*
Y-69774D01*
X-113094Y-70374D02*
X-111894D01*
X-112494Y-70974D02*
Y-69774D01*
X-123201Y-70374D02*
X-122001D01*
X-122601Y-70974D02*
Y-69774D01*
X-133308Y-70374D02*
X-132108D01*
X-132708Y-70974D02*
Y-69774D01*
X-143415Y-70374D02*
X-142215D01*
X-142815Y-70974D02*
Y-69774D01*
X18298Y-70374D02*
X19498D01*
X18898Y-70974D02*
Y-69774D01*
X-47398Y69488D02*
X-46198D01*
X-46798Y68888D02*
Y70088D01*
X-37156Y69488D02*
X-35956D01*
X-36556Y68888D02*
Y70088D01*
X-26914Y69488D02*
X-25714D01*
X-26314Y68888D02*
Y70088D01*
X-16672Y69488D02*
X-15472D01*
X-16072Y68888D02*
Y70088D01*
X-6430Y69488D02*
X-5230D01*
X-5830Y68888D02*
Y70088D01*
X3812Y69488D02*
X5012D01*
X4412Y68888D02*
Y70088D01*
X14054Y69488D02*
X15254D01*
X14654Y68888D02*
Y70088D01*
X24296Y69488D02*
X25496D01*
X24896Y68888D02*
Y70088D01*
X34538Y69488D02*
X35738D01*
X35138Y68888D02*
Y70088D01*
X-139576Y69488D02*
X-138376D01*
X-138976Y68888D02*
Y70088D01*
X-129334Y69488D02*
X-128134D01*
X-128734Y68888D02*
Y70088D01*
X-119092Y69488D02*
X-117892D01*
X-118492Y68888D02*
Y70088D01*
X-108850Y69488D02*
X-107650D01*
X-108250Y68888D02*
Y70088D01*
X-98608Y69488D02*
X-97408D01*
X-98008Y68888D02*
Y70088D01*
X-88366Y69488D02*
X-87166D01*
X-87766Y68888D02*
Y70088D01*
X-78124Y69488D02*
X-76924D01*
X-77524Y68888D02*
Y70088D01*
X-67882Y69488D02*
X-66682D01*
X-67282Y68888D02*
Y70088D01*
X-57640Y69488D02*
X-56440D01*
X-57040Y68888D02*
Y70088D01*
X161900Y-49409D02*
X163100D01*
X162500Y-50009D02*
Y-48809D01*
X154912Y-49409D02*
X156112D01*
X155512Y-50009D02*
Y-48809D01*
X149794Y-53051D02*
X150994D01*
X150394Y-53651D02*
Y-52451D01*
X147727Y-57972D02*
X148927D01*
X148327Y-58572D02*
Y-57372D01*
X147727Y-64026D02*
X148927D01*
X148327Y-64626D02*
Y-63426D01*
X147727Y-70079D02*
X148927D01*
X148327Y-70679D02*
Y-69479D01*
X-148632Y57284D02*
X-147432D01*
X-148031Y56683D02*
Y57884D01*
X-155816Y48720D02*
X-154616D01*
X-155217Y48120D02*
Y49321D01*
X-162805Y48720D02*
X-161605D01*
X-162205Y48120D02*
Y49321D01*
X-169793Y48720D02*
X-168593D01*
X-169193Y48120D02*
Y49321D01*
X-150698Y52362D02*
X-149498D01*
X-150098Y51762D02*
Y52962D01*
X-148632Y63337D02*
X-147432D01*
X-148031Y62737D02*
Y63937D01*
X-148632Y69390D02*
X-147432D01*
X-148031Y68790D02*
Y69990D01*
X-170777Y-47736D02*
X-169577D01*
X-170177Y-48336D02*
Y-47136D01*
X-164724Y-47736D02*
X-163524D01*
X-164124Y-48336D02*
Y-47136D01*
X-153750Y-49803D02*
X-152550D01*
X-153150Y-50403D02*
Y-49203D01*
X-150108Y-68898D02*
X-148908D01*
X-149508Y-69498D02*
Y-68298D01*
X-150108Y-61910D02*
X-148908D01*
X-149508Y-62510D02*
Y-61309D01*
X-150108Y-54921D02*
X-148908D01*
X-149508Y-55521D02*
Y-54321D01*
X-158671Y-47736D02*
X-157471D01*
X-158071Y-48336D02*
Y-47136D01*
X-165068Y-40846D02*
X-163868D01*
X-164469Y-41447D02*
Y-40246D01*
X-165068Y-30598D02*
X-163868D01*
X-164469Y-31198D02*
Y-29998D01*
X-165068Y-20349D02*
X-163868D01*
X-164469Y-20949D02*
Y-19749D01*
X-165068Y-10101D02*
X-163868D01*
X-164469Y-10701D02*
Y-9501D01*
X-165068Y148D02*
X-163868D01*
X-164469Y-452D02*
Y748D01*
X-165068Y10396D02*
X-163868D01*
X-164469Y9796D02*
Y10996D01*
X-165068Y20645D02*
X-163868D01*
X-164469Y20045D02*
Y21245D01*
X-165068Y30893D02*
X-163868D01*
X-164469Y30293D02*
Y31493D01*
X-165068Y41142D02*
X-163868D01*
X-164469Y40542D02*
Y41742D01*
X168691Y-26181D02*
X169891D01*
X169291Y-26781D02*
Y-25581D01*
X168691Y-48819D02*
X169891D01*
X169291Y-49419D02*
Y-48219D01*
X168691Y-41273D02*
X169891D01*
X169291Y-41873D02*
Y-40673D01*
X168691Y-33727D02*
X169891D01*
X169291Y-34327D02*
Y-33127D01*
X149006Y57579D02*
X150206D01*
X149606Y56979D02*
Y58179D01*
X74302Y-61614D02*
X75502D01*
X74902Y-62214D02*
Y-61014D01*
X71841Y-52362D02*
X73041D01*
X72441Y-52962D02*
Y-51762D01*
X96152Y-44390D02*
X97352D01*
X96752Y-44990D02*
Y-43790D01*
X-15068Y27657D02*
X-13869D01*
X-14469Y27057D02*
Y28258D01*
X-60246Y17126D02*
X-59046D01*
X-59646Y16526D02*
Y17726D01*
X-64281Y17224D02*
X-63081D01*
X-63681Y16624D02*
Y17824D01*
X-52962Y-35236D02*
X-51762D01*
X-52362Y-35836D02*
Y-34636D01*
X-110541Y23819D02*
X-109341D01*
X-109941Y23219D02*
Y24419D01*
X-31506Y42717D02*
X-30305D01*
X-30906Y42116D02*
Y43317D01*
X-32441Y9646D02*
X-31241D01*
X-31841Y9046D02*
Y10246D01*
X-27470Y9646D02*
X-26270D01*
X-26870Y9046D02*
Y10246D01*
X-37411Y9646D02*
X-36211D01*
X-36811Y9046D02*
Y10246D01*
X-27273Y-886D02*
X-26073D01*
X-26673Y-1486D02*
Y-286D01*
X-32391Y-886D02*
X-31191D01*
X-31791Y-1486D02*
Y-286D01*
X-37509Y-886D02*
X-36309D01*
X-36909Y-1486D02*
Y-286D01*
X-56506Y35335D02*
X-55305D01*
X-55905Y34735D02*
Y35935D01*
X-65364Y38484D02*
X-64164D01*
X-64764Y37884D02*
Y39084D01*
X-86427Y38189D02*
X-85227D01*
X-85827Y37589D02*
Y38789D01*
X-5620Y-1969D02*
X-4420D01*
X-5020Y-2568D02*
Y-1369D01*
X-5580Y9843D02*
X-4380D01*
X-4980Y9243D02*
Y10442D01*
X-5620Y-5906D02*
X-4420D01*
X-5020Y-6505D02*
Y-5305D01*
X-5620Y5906D02*
X-4420D01*
X-5020Y5305D02*
Y6505D01*
X-5580Y13780D02*
X-4380D01*
X-4980Y13180D02*
Y14379D01*
X-5580Y1969D02*
X-4380D01*
X-4980Y1369D02*
Y2568D01*
X5502Y-1476D02*
X6702D01*
X6102Y-2076D02*
Y-876D01*
X-111624Y5906D02*
X-110424D01*
X-111024Y5305D02*
Y6505D01*
X-12116Y-21198D02*
X-10916D01*
X-11516Y-21798D02*
Y-20598D01*
X55424Y37034D02*
X56624D01*
X56024Y36435D02*
Y37635D01*
X60424Y37034D02*
X61624D01*
X61024Y36435D02*
Y37635D01*
X-12116Y-26575D02*
X-10916D01*
X-11516Y-27175D02*
Y-25975D01*
X37384Y49500D02*
X38584D01*
X37984Y48900D02*
Y50100D01*
X3581Y57972D02*
X4781D01*
X4181Y57372D02*
Y58572D01*
X37384Y44500D02*
X38584D01*
X37984Y43900D02*
Y45100D01*
X-381Y57972D02*
X819D01*
X219Y57372D02*
Y58572D01*
X75400Y44700D02*
X76600D01*
X76000Y44100D02*
Y45300D01*
X75400Y49300D02*
X76600D01*
X76000Y48700D02*
Y49900D01*
X-23041Y60402D02*
X-21841D01*
X-22441Y59802D02*
Y61002D01*
X-15687Y43968D02*
X-14487D01*
X-15087Y43369D02*
Y44568D01*
X84735Y40650D02*
X85935D01*
X85335Y40050D02*
Y41250D01*
X-71466Y38878D02*
X-70266D01*
X-70866Y38278D02*
Y39478D01*
X-86328Y42421D02*
X-85128D01*
X-85728Y41821D02*
Y43021D01*
X-46100Y-52000D02*
X-44900D01*
X-45500Y-52600D02*
Y-51400D01*
X-25698Y-20141D02*
X-24498D01*
X-25098Y-20741D02*
Y-19541D01*
X-26100Y38500D02*
X-24900D01*
X-25500Y37900D02*
Y39100D01*
X122900Y60100D02*
X124100D01*
X123500Y59500D02*
Y60700D01*
X122900Y55500D02*
X124100D01*
X123500Y54900D02*
Y56100D01*
X-84401Y18369D02*
X-83201D01*
X-83801Y17769D02*
Y18969D01*
X-90561Y20965D02*
X-89361D01*
X-89961Y20365D02*
Y21565D01*
X-56407Y-10433D02*
X-55207D01*
X-55807Y-11033D02*
Y-9833D01*
X-56210Y-38831D02*
X-55010D01*
X-55610Y-39432D02*
Y-38232D01*
X-56210Y-42397D02*
X-55010D01*
X-55610Y-42997D02*
Y-41797D01*
X-63814Y-10433D02*
X-62614D01*
X-63214Y-11033D02*
Y-9833D01*
X-60049Y-10433D02*
X-58849D01*
X-59449Y-11033D02*
Y-9833D01*
X-99092Y23000D02*
X-97892D01*
X-98492Y22400D02*
Y23600D01*
X-111624Y-5906D02*
X-110424D01*
X-111024Y-6505D02*
Y-5305D01*
X-111624Y-1969D02*
X-110424D01*
X-111024Y-2568D02*
Y-1369D01*
X-111624Y1969D02*
X-110424D01*
X-111024Y1369D02*
Y2568D01*
X-111624Y9843D02*
X-110424D01*
X-111024Y9243D02*
Y10442D01*
X-111624Y13780D02*
X-110424D01*
X-111024Y13180D02*
Y14379D01*
X-53049Y30402D02*
X-51849D01*
X-52449Y29802D02*
Y31002D01*
X86063Y-2411D02*
X87263D01*
X86663Y-3011D02*
Y-1811D01*
X51172Y-56496D02*
X52372D01*
X51772Y-57096D02*
Y-55896D01*
X83652Y-43209D02*
X84852D01*
X84252Y-43809D02*
Y-42609D01*
X49695Y-24705D02*
X50895D01*
X50295Y-25305D02*
Y-24105D01*
X63672Y-21752D02*
X64872D01*
X64272Y-22352D02*
Y-21152D01*
X42412Y-21752D02*
X43612D01*
X43012Y-22352D02*
Y-21152D01*
X40345Y-40551D02*
X41545D01*
X40945Y-41151D02*
Y-39951D01*
X35817Y-31496D02*
X37017D01*
X36417Y-32096D02*
Y-30896D01*
X-94415Y-19965D02*
X-93215D01*
X-93815Y-20565D02*
Y-19365D01*
X-94596Y-12303D02*
X-93396D01*
X-93996Y-12903D02*
Y-11703D01*
X-95797Y-41339D02*
X-94597D01*
X-95197Y-41939D02*
Y-40739D01*
X-111525Y-41339D02*
X-110325D01*
X-110925Y-41939D02*
Y-40739D01*
X-111525Y-33421D02*
X-110325D01*
X-110925Y-34021D02*
Y-32821D01*
X-95797Y-33386D02*
X-94597D01*
X-95197Y-33986D02*
Y-32786D01*
X-15687Y32969D02*
X-14487D01*
X-15087Y32368D02*
Y33569D01*
X-71466Y33169D02*
X-70266D01*
X-70866Y32569D02*
Y33769D01*
X-3702Y60473D02*
X-2502D01*
X-3102Y59873D02*
Y61072D01*
X5502Y-23425D02*
X6702D01*
X6102Y-24025D02*
Y-22825D01*
X9227Y-23425D02*
X10427D01*
X9827Y-24025D02*
Y-22825D01*
X9227Y-1476D02*
X10427D01*
X9827Y-2076D02*
Y-876D01*
X35774Y30752D02*
X36974D01*
X36374Y30152D02*
Y31352D01*
X113573Y67323D02*
X114773D01*
X114173Y66723D02*
Y67923D01*
X145266Y-33213D02*
X146466D01*
X145866Y-33813D02*
Y-32613D01*
X-59801Y-22933D02*
X-58601D01*
X-59201Y-23533D02*
Y-22333D01*
X-23041Y63748D02*
X-21841D01*
X-22441Y63148D02*
Y64348D01*
X-102667Y63748D02*
X-101467D01*
X-102067Y63148D02*
Y64348D01*
X1861Y-42520D02*
X3061D01*
X2461Y-43120D02*
Y-41920D01*
X17806Y11516D02*
X19005D01*
X18406Y10916D02*
Y12116D01*
X30931Y-14405D02*
X32131D01*
X31532Y-15006D02*
Y-13805D01*
X105699Y-29134D02*
X106899D01*
X106299Y-29734D02*
Y-28534D01*
X46447Y-29429D02*
X47647D01*
X47047Y-30029D02*
Y-28829D01*
X50384Y-15748D02*
X51584D01*
X50984Y-16348D02*
Y-15148D01*
X60424Y-15748D02*
X61624D01*
X61024Y-16348D02*
Y-15148D01*
X55424Y-12658D02*
X56624D01*
X56024Y-13258D02*
Y-12058D01*
X45424Y-12658D02*
X46624D01*
X46024Y-13258D02*
Y-12058D01*
X46447Y-34154D02*
X47647D01*
X47047Y-34754D02*
Y-33553D01*
X22530Y-68504D02*
X23730D01*
X23130Y-69104D02*
Y-67904D01*
X79420Y67421D02*
X80620D01*
X80020Y66821D02*
Y68021D01*
X-600Y-25492D02*
X600D01*
X0Y-26092D02*
Y-24892D01*
X15443Y-25492D02*
X16643D01*
X16043Y-26092D02*
Y-24892D01*
X12983Y-10138D02*
X14183D01*
X13583Y-10738D02*
Y-9538D01*
X16034Y-19488D02*
X17234D01*
X16634Y-20088D02*
Y-18888D01*
X83553Y-35244D02*
X84754D01*
X84153Y-35844D02*
Y-34644D01*
X58652Y-68504D02*
X59852D01*
X59252Y-69104D02*
Y-67904D01*
X125876Y-52461D02*
X127076D01*
X126476Y-53061D02*
Y-51861D01*
X120266Y-52461D02*
X121466D01*
X120866Y-53061D02*
Y-51861D01*
X98380Y-68173D02*
X99580D01*
X98980Y-68773D02*
Y-67573D01*
X132274Y-39394D02*
X133474D01*
X132874Y-39994D02*
Y-38794D01*
X113451Y-39394D02*
X114651D01*
X114051Y-39994D02*
Y-38794D01*
M02*
