G04*
G04 #@! TF.GenerationSoftware,Altium Limited,Altium Designer,21.6.1 (37)*
G04*
G04 Layer_Physical_Order=1*
G04 Layer_Color=255*
%FSLAX25Y25*%
%MOIN*%
G70*
G04*
G04 #@! TF.SameCoordinates,2E3D6A0A-ABA2-4879-AB81-27CE6CF8F1C7*
G04*
G04*
G04 #@! TF.FilePolarity,Positive*
G04*
G01*
G75*
%ADD17C,0.01000*%
%ADD18C,0.00800*%
%ADD19C,0.02000*%
%ADD20C,0.02559*%
%ADD21O,0.03937X0.07087*%
%ADD22O,0.03937X0.08268*%
%ADD23R,0.05906X0.05906*%
%ADD24C,0.05906*%
%ADD25C,0.02598*%
%ADD26C,0.02598*%
%ADD27C,0.02400*%
G36*
X153248Y71777D02*
Y57972D01*
Y57265D01*
X153524Y55877D01*
X153787Y55243D01*
X153509Y54827D01*
X152559D01*
X151776Y54724D01*
X151046Y54422D01*
X150419Y53941D01*
X149939Y53314D01*
X149636Y52584D01*
X149533Y51801D01*
Y-19980D01*
X149636Y-20763D01*
X149939Y-21493D01*
X150419Y-22120D01*
X151046Y-22601D01*
X151776Y-22903D01*
X152559Y-23006D01*
X173668D01*
X173668Y-51378D01*
X159135D01*
X157747Y-51654D01*
X156439Y-52196D01*
X155262Y-52982D01*
X154262Y-53983D01*
X153475Y-55160D01*
X152934Y-56467D01*
X152657Y-57855D01*
Y-58563D01*
Y-71777D01*
X-152264Y-71777D01*
Y-57874D01*
Y-57166D01*
X-152540Y-55778D01*
X-153082Y-54471D01*
X-153868Y-53294D01*
X-154869Y-52293D01*
X-156045Y-51507D01*
X-157353Y-50965D01*
X-158741Y-50689D01*
X-172643D01*
X-172643Y-36490D01*
X-171732D01*
X-170949Y-36387D01*
X-170219Y-36085D01*
X-169592Y-35604D01*
X-169111Y-34977D01*
X-168809Y-34248D01*
X-168706Y-33465D01*
Y33465D01*
X-168809Y34248D01*
X-169111Y34977D01*
X-169592Y35604D01*
X-170219Y36085D01*
X-170949Y36387D01*
X-171732Y36490D01*
X-172643D01*
Y51378D01*
X-158151D01*
X-156763Y51654D01*
X-155455Y52196D01*
X-154278Y52982D01*
X-153277Y53983D01*
X-152491Y55160D01*
X-151949Y56467D01*
X-151673Y57855D01*
Y58563D01*
Y71777D01*
X153248Y71777D01*
D02*
G37*
G36*
X-101753Y89607D02*
X-101683D01*
X-101607Y89600D01*
X-101523Y89593D01*
X-101343Y89572D01*
X-101163Y89538D01*
X-100982Y89496D01*
X-100892Y89468D01*
X-100816Y89434D01*
X-100809D01*
X-100802Y89427D01*
X-100753Y89406D01*
X-100698Y89371D01*
X-100621Y89323D01*
X-100552Y89260D01*
X-100496Y89191D01*
X-100448Y89107D01*
X-100441Y89059D01*
X-100434Y89010D01*
Y89003D01*
Y88989D01*
X-100441Y88962D01*
X-100448Y88927D01*
X-100462Y88885D01*
X-100476Y88844D01*
X-100503Y88802D01*
X-100538Y88760D01*
X-100545Y88753D01*
X-100559Y88747D01*
X-100580Y88726D01*
X-100608Y88712D01*
X-100684Y88670D01*
X-100725Y88663D01*
X-100774Y88656D01*
X-100788D01*
X-100809Y88663D01*
X-100843Y88670D01*
X-100885Y88677D01*
X-100941Y88698D01*
X-101003Y88719D01*
X-101079Y88753D01*
X-101086Y88760D01*
X-101121Y88774D01*
X-101163Y88788D01*
X-101218Y88809D01*
X-101281Y88837D01*
X-101350Y88858D01*
X-101419Y88871D01*
X-101482Y88885D01*
Y88878D01*
Y88871D01*
X-101489Y88851D01*
Y88823D01*
X-101496Y88781D01*
X-101503Y88740D01*
X-101510Y88691D01*
X-101517Y88635D01*
X-101531Y88504D01*
X-101551Y88344D01*
X-101572Y88170D01*
X-101593Y87976D01*
X-101614Y87761D01*
X-101635Y87539D01*
X-101655Y87296D01*
X-101669Y87053D01*
X-101683Y86796D01*
X-101697Y86533D01*
X-101704Y86005D01*
Y85998D01*
Y85977D01*
Y85936D01*
Y85887D01*
X-101697Y85811D01*
Y85728D01*
X-101690Y85624D01*
X-101683Y85505D01*
X-101676Y85367D01*
X-101669Y85214D01*
X-101655Y85048D01*
X-101648Y84853D01*
X-101628Y84645D01*
X-101614Y84423D01*
X-101586Y84173D01*
X-101565Y83909D01*
X-101558D01*
X-101531Y83902D01*
X-101482D01*
X-101426Y83895D01*
X-101357Y83889D01*
X-101274Y83882D01*
X-101183Y83875D01*
X-101079Y83868D01*
X-100871Y83847D01*
X-100642Y83833D01*
X-100427Y83826D01*
X-100323Y83819D01*
X-100143D01*
X-100080Y83826D01*
X-100004D01*
X-99914Y83833D01*
X-99816Y83847D01*
X-99712Y83861D01*
X-99483Y83895D01*
X-99247Y83951D01*
X-99018Y84034D01*
X-98914Y84083D01*
X-98810Y84138D01*
X-98803Y84145D01*
X-98782Y84173D01*
X-98755Y84229D01*
X-98720Y84298D01*
X-98685Y84402D01*
X-98664Y84458D01*
X-98643Y84527D01*
X-98630Y84603D01*
X-98609Y84687D01*
X-98588Y84777D01*
X-98574Y84874D01*
Y84881D01*
Y84888D01*
X-98567Y84930D01*
X-98553Y84992D01*
X-98546Y85068D01*
X-98526Y85145D01*
X-98512Y85214D01*
X-98498Y85283D01*
X-98477Y85325D01*
X-98470Y85332D01*
X-98463Y85353D01*
X-98442Y85374D01*
X-98414Y85408D01*
X-98380Y85436D01*
X-98331Y85457D01*
X-98269Y85478D01*
X-98199Y85485D01*
X-98185D01*
X-98144Y85478D01*
X-98081Y85457D01*
X-98012Y85422D01*
X-97984Y85395D01*
X-97949Y85360D01*
X-97915Y85318D01*
X-97887Y85270D01*
X-97866Y85214D01*
X-97845Y85145D01*
X-97838Y85068D01*
X-97831Y84978D01*
Y84964D01*
Y84936D01*
X-97838Y84881D01*
Y84819D01*
X-97852Y84735D01*
X-97866Y84638D01*
X-97880Y84534D01*
X-97908Y84423D01*
X-97936Y84305D01*
X-97977Y84187D01*
X-98026Y84062D01*
X-98088Y83944D01*
X-98158Y83826D01*
X-98234Y83715D01*
X-98331Y83611D01*
X-98435Y83514D01*
Y83500D01*
X-98442Y83493D01*
X-98463Y83486D01*
X-98491Y83472D01*
X-98539Y83444D01*
X-98595Y83424D01*
X-98664Y83396D01*
X-98747Y83361D01*
X-98845Y83333D01*
X-98956Y83299D01*
X-99081Y83271D01*
X-99212Y83236D01*
X-99365Y83215D01*
X-99525Y83195D01*
X-99698Y83174D01*
X-99886Y83167D01*
X-100087Y83160D01*
X-100358D01*
X-100489Y83167D01*
X-100649Y83174D01*
X-100823D01*
X-101017Y83188D01*
X-101218Y83195D01*
X-101426Y83208D01*
X-101850Y83243D01*
X-102065Y83271D01*
X-102266Y83292D01*
X-102467Y83326D01*
X-102648Y83361D01*
X-102662D01*
X-102690Y83375D01*
X-102738Y83382D01*
X-102801Y83403D01*
X-102925Y83444D01*
X-102988Y83472D01*
X-103036Y83500D01*
X-103043Y83507D01*
X-103057Y83514D01*
X-103071Y83542D01*
X-103092Y83569D01*
X-103120Y83604D01*
X-103134Y83653D01*
X-103147Y83708D01*
X-103154Y83771D01*
Y83784D01*
X-103147Y83812D01*
X-103134Y83861D01*
X-103106Y83909D01*
X-103064Y83958D01*
X-102995Y84007D01*
X-102946Y84020D01*
X-102898Y84034D01*
X-102842Y84048D01*
X-102703D01*
X-102648Y84041D01*
X-102578Y84034D01*
X-102495Y84027D01*
X-102405Y84013D01*
X-102301Y83993D01*
Y84007D01*
X-102308Y84048D01*
Y84104D01*
X-102315Y84187D01*
X-102329Y84291D01*
X-102336Y84409D01*
X-102342Y84541D01*
X-102356Y84687D01*
X-102363Y84839D01*
X-102377Y84999D01*
X-102391Y85332D01*
X-102405Y85672D01*
X-102412Y85832D01*
Y85991D01*
Y85998D01*
Y86005D01*
Y86026D01*
Y86054D01*
Y86089D01*
Y86130D01*
Y86227D01*
X-102405Y86359D01*
Y86505D01*
X-102398Y86678D01*
X-102391Y86866D01*
X-102377Y87074D01*
X-102363Y87303D01*
X-102349Y87539D01*
X-102336Y87789D01*
X-102308Y88052D01*
X-102287Y88323D01*
X-102225Y88878D01*
X-102405Y88858D01*
X-102447D01*
X-102481Y88864D01*
X-102537Y88878D01*
X-102599Y88899D01*
X-102662Y88941D01*
X-102710Y88996D01*
X-102752Y89080D01*
X-102759Y89128D01*
X-102766Y89184D01*
Y89198D01*
Y89225D01*
X-102752Y89267D01*
X-102738Y89316D01*
X-102717Y89371D01*
X-102682Y89427D01*
X-102634Y89482D01*
X-102565Y89524D01*
X-102558Y89531D01*
X-102530Y89538D01*
X-102481Y89552D01*
X-102412Y89572D01*
X-102322Y89586D01*
X-102217Y89600D01*
X-102086Y89607D01*
X-101933Y89614D01*
X-101815D01*
X-101753Y89607D01*
D02*
G37*
G36*
X-116681Y89343D02*
X-116590D01*
X-116486Y89336D01*
X-116375D01*
X-116257Y89329D01*
X-116000Y89309D01*
X-115723Y89288D01*
X-115438Y89260D01*
X-115161Y89218D01*
X-114883Y89170D01*
X-114626Y89107D01*
X-114508Y89073D01*
X-114397Y89038D01*
X-114293Y88996D01*
X-114196Y88955D01*
X-114120Y88906D01*
X-114050Y88851D01*
X-113995Y88795D01*
X-113953Y88740D01*
X-113925Y88677D01*
X-113918Y88608D01*
Y88601D01*
Y88587D01*
X-113925Y88559D01*
X-113932Y88524D01*
X-113946Y88483D01*
X-113967Y88441D01*
X-113995Y88399D01*
X-114029Y88358D01*
X-114036Y88351D01*
X-114050Y88344D01*
X-114071Y88323D01*
X-114099Y88302D01*
X-114168Y88268D01*
X-114210Y88254D01*
X-114258Y88247D01*
X-114293D01*
X-114321Y88254D01*
X-114390Y88268D01*
X-114474Y88302D01*
X-114480Y88309D01*
X-114501Y88316D01*
X-114529Y88330D01*
X-114564Y88344D01*
X-114626Y88379D01*
X-114654Y88393D01*
X-114675Y88399D01*
X-114682D01*
X-114696Y88406D01*
X-114723Y88413D01*
X-114765Y88427D01*
X-114821Y88434D01*
X-114890Y88448D01*
X-114973Y88469D01*
X-115077Y88483D01*
X-115188Y88504D01*
X-115320Y88517D01*
X-115466Y88538D01*
X-115633Y88559D01*
X-115820Y88580D01*
X-116021Y88594D01*
X-116243Y88615D01*
X-116486Y88629D01*
Y88622D01*
Y88608D01*
Y88587D01*
Y88559D01*
Y88517D01*
X-116479Y88469D01*
Y88358D01*
Y88219D01*
X-116472Y88066D01*
Y87886D01*
X-116465Y87705D01*
X-116458Y87504D01*
Y87303D01*
X-116452Y86901D01*
Y86706D01*
X-116445Y86519D01*
Y86345D01*
Y86193D01*
Y86186D01*
Y86179D01*
Y86151D01*
Y86123D01*
Y86089D01*
Y86047D01*
Y85936D01*
Y85811D01*
Y85658D01*
X-116452Y85485D01*
Y85304D01*
X-116458Y85103D01*
Y84895D01*
X-116472Y84465D01*
X-116493Y84034D01*
X-116500Y83819D01*
X-116514Y83618D01*
Y83611D01*
Y83604D01*
X-116521Y83562D01*
X-116528Y83500D01*
X-116535Y83430D01*
X-116569Y83264D01*
X-116597Y83195D01*
X-116625Y83132D01*
X-116632Y83125D01*
X-116639Y83104D01*
X-116667Y83083D01*
X-116694Y83056D01*
X-116736Y83021D01*
X-116791Y83000D01*
X-116854Y82979D01*
X-116923Y82972D01*
X-116937D01*
X-116979Y82979D01*
X-117027Y83000D01*
X-117090Y83028D01*
X-117152Y83083D01*
X-117187Y83125D01*
X-117208Y83167D01*
X-117229Y83222D01*
X-117250Y83285D01*
X-117256Y83354D01*
X-117263Y83437D01*
Y83458D01*
Y83472D01*
Y83493D01*
X-117256Y83528D01*
Y83569D01*
Y83618D01*
X-117250Y83680D01*
X-117243Y83764D01*
Y83854D01*
X-117236Y83965D01*
X-117229Y84090D01*
X-117215Y84236D01*
X-117208Y84402D01*
Y84416D01*
Y84444D01*
X-117201Y84492D01*
Y84562D01*
X-117194Y84652D01*
X-117187Y84749D01*
Y84860D01*
X-117180Y84992D01*
X-117173Y85124D01*
X-117166Y85270D01*
Y85429D01*
X-117159Y85589D01*
X-117152Y85922D01*
Y86269D01*
Y86276D01*
Y86297D01*
Y86331D01*
Y86380D01*
Y86442D01*
Y86533D01*
Y86630D01*
X-117159Y86755D01*
Y86901D01*
Y87074D01*
X-117166Y87268D01*
Y87483D01*
Y87601D01*
X-117173Y87726D01*
Y87865D01*
Y88004D01*
X-117180Y88150D01*
Y88302D01*
X-117187Y88469D01*
Y88635D01*
X-117243D01*
X-117312Y88629D01*
X-117402D01*
X-117506Y88622D01*
X-117631Y88615D01*
X-117770Y88601D01*
X-117916Y88587D01*
X-118221Y88545D01*
X-118534Y88490D01*
X-118679Y88455D01*
X-118818Y88413D01*
X-118943Y88372D01*
X-119054Y88316D01*
Y88309D01*
X-119061Y88288D01*
Y88254D01*
X-119068Y88205D01*
X-119082Y88150D01*
X-119096Y88087D01*
X-119137Y87962D01*
X-119193Y87830D01*
X-119228Y87768D01*
X-119269Y87713D01*
X-119318Y87671D01*
X-119373Y87629D01*
X-119429Y87608D01*
X-119498Y87601D01*
X-119512D01*
X-119547Y87608D01*
X-119595Y87622D01*
X-119644Y87657D01*
X-119699Y87713D01*
X-119727Y87747D01*
X-119748Y87789D01*
X-119769Y87837D01*
X-119783Y87900D01*
X-119790Y87969D01*
X-119797Y88046D01*
Y88052D01*
Y88080D01*
Y88115D01*
X-119790Y88164D01*
X-119783Y88219D01*
X-119776Y88288D01*
X-119741Y88434D01*
X-119685Y88594D01*
X-119651Y88670D01*
X-119609Y88747D01*
X-119554Y88816D01*
X-119491Y88878D01*
X-119422Y88934D01*
X-119345Y88982D01*
X-119339Y88989D01*
X-119311Y88996D01*
X-119262Y89017D01*
X-119200Y89038D01*
X-119116Y89066D01*
X-119019Y89100D01*
X-118894Y89135D01*
X-118756Y89170D01*
X-118603Y89198D01*
X-118422Y89232D01*
X-118228Y89267D01*
X-118013Y89295D01*
X-117784Y89316D01*
X-117527Y89336D01*
X-117256Y89343D01*
X-116965Y89350D01*
X-116764D01*
X-116681Y89343D01*
D02*
G37*
G36*
X-85714Y88323D02*
X-85686Y88316D01*
X-85652Y88302D01*
X-85617Y88282D01*
X-85575Y88254D01*
X-85527Y88212D01*
X-85478Y88164D01*
X-85430Y88101D01*
X-85374Y88025D01*
X-85319Y87934D01*
X-85270Y87830D01*
X-85215Y87705D01*
X-85166Y87560D01*
X-85117Y87393D01*
X-85110Y87400D01*
X-85097Y87428D01*
X-85076Y87463D01*
X-85048Y87504D01*
X-85006Y87560D01*
X-84958Y87622D01*
X-84902Y87685D01*
X-84840Y87754D01*
X-84770Y87823D01*
X-84687Y87886D01*
X-84597Y87948D01*
X-84500Y88004D01*
X-84396Y88046D01*
X-84278Y88087D01*
X-84160Y88108D01*
X-84028Y88115D01*
X-83965D01*
X-83903Y88108D01*
X-83820Y88094D01*
X-83729Y88073D01*
X-83632Y88046D01*
X-83542Y88004D01*
X-83452Y87948D01*
X-83445Y87941D01*
X-83417Y87921D01*
X-83382Y87879D01*
X-83334Y87830D01*
X-83292Y87775D01*
X-83258Y87699D01*
X-83230Y87615D01*
X-83223Y87525D01*
Y87518D01*
Y87504D01*
X-83230Y87476D01*
Y87442D01*
X-83258Y87372D01*
X-83278Y87331D01*
X-83306Y87296D01*
X-83313Y87289D01*
X-83320Y87282D01*
X-83362Y87254D01*
X-83424Y87220D01*
X-83466Y87213D01*
X-83507Y87206D01*
X-83521D01*
X-83542Y87213D01*
X-83570Y87220D01*
X-83605Y87234D01*
X-83653Y87261D01*
X-83702Y87289D01*
X-83764Y87331D01*
X-83771Y87338D01*
X-83792Y87352D01*
X-83827Y87372D01*
X-83861Y87400D01*
X-83958Y87442D01*
X-84014Y87456D01*
X-84062Y87463D01*
X-84076D01*
X-84118Y87456D01*
X-84180Y87449D01*
X-84264Y87428D01*
X-84347Y87386D01*
X-84444Y87331D01*
X-84534Y87261D01*
X-84576Y87213D01*
X-84618Y87157D01*
X-84625Y87143D01*
X-84652Y87102D01*
X-84680Y87039D01*
X-84722Y86942D01*
X-84756Y86831D01*
X-84791Y86692D01*
X-84819Y86526D01*
X-84826Y86345D01*
Y85880D01*
Y85873D01*
Y85846D01*
Y85804D01*
Y85748D01*
X-84833Y85686D01*
Y85603D01*
X-84840Y85519D01*
X-84847Y85429D01*
X-84868Y85228D01*
X-84895Y85020D01*
X-84937Y84812D01*
X-84965Y84714D01*
X-84992Y84624D01*
Y84617D01*
X-84999Y84603D01*
X-85006Y84583D01*
X-85020Y84555D01*
X-85055Y84485D01*
X-85097Y84409D01*
X-85159Y84333D01*
X-85228Y84263D01*
X-85263Y84236D01*
X-85305Y84215D01*
X-85346Y84201D01*
X-85395Y84194D01*
X-85409D01*
X-85444Y84201D01*
X-85499Y84208D01*
X-85555Y84236D01*
X-85610Y84270D01*
X-85666Y84326D01*
X-85700Y84409D01*
X-85707Y84458D01*
X-85714Y84513D01*
Y84520D01*
Y84527D01*
X-85707Y84555D01*
X-85700Y84596D01*
X-85693Y84659D01*
X-85673Y84742D01*
X-85659Y84791D01*
X-85652Y84846D01*
X-85631Y84916D01*
X-85617Y84985D01*
Y84992D01*
X-85610Y85006D01*
Y85027D01*
X-85603Y85054D01*
X-85589Y85096D01*
X-85582Y85138D01*
X-85562Y85242D01*
X-85548Y85360D01*
X-85527Y85492D01*
X-85520Y85624D01*
X-85513Y85762D01*
Y85776D01*
Y85804D01*
Y85860D01*
X-85520Y85929D01*
Y86012D01*
X-85527Y86109D01*
X-85534Y86220D01*
X-85548Y86338D01*
X-85562Y86463D01*
X-85582Y86595D01*
X-85638Y86866D01*
X-85707Y87123D01*
X-85756Y87248D01*
X-85804Y87366D01*
X-85811Y87372D01*
X-85818Y87393D01*
X-85832Y87421D01*
X-85853Y87463D01*
X-85888Y87532D01*
X-85936Y87615D01*
X-85964Y87671D01*
X-85999Y87733D01*
X-86006Y87740D01*
X-86013Y87761D01*
X-86027Y87796D01*
X-86047Y87830D01*
X-86082Y87921D01*
X-86089Y87969D01*
X-86096Y88011D01*
Y88018D01*
Y88032D01*
X-86089Y88052D01*
X-86082Y88080D01*
X-86068Y88115D01*
X-86047Y88150D01*
X-86020Y88191D01*
X-85985Y88226D01*
X-85978Y88233D01*
X-85964Y88240D01*
X-85943Y88261D01*
X-85915Y88282D01*
X-85839Y88316D01*
X-85798Y88323D01*
X-85749Y88330D01*
X-85735D01*
X-85714Y88323D01*
D02*
G37*
G36*
X-90926Y88941D02*
X-90878Y88927D01*
X-90815Y88892D01*
X-90753Y88844D01*
X-90725Y88809D01*
X-90697Y88760D01*
X-90676Y88712D01*
X-90662Y88656D01*
X-90655Y88587D01*
X-90649Y88511D01*
Y88504D01*
Y88490D01*
Y88462D01*
X-90655Y88420D01*
X-90662Y88372D01*
X-90669Y88309D01*
X-90676Y88233D01*
X-90697Y88143D01*
X-90711Y88046D01*
X-90739Y87928D01*
X-90767Y87803D01*
X-90801Y87657D01*
X-90843Y87504D01*
X-90891Y87331D01*
X-90954Y87143D01*
X-91016Y86942D01*
X-91023Y86928D01*
X-91030Y86893D01*
X-91051Y86838D01*
X-91086Y86762D01*
X-91120Y86658D01*
X-91169Y86540D01*
X-91225Y86394D01*
X-91294Y86234D01*
X-91370Y86054D01*
X-91461Y85860D01*
X-91565Y85644D01*
X-91669Y85415D01*
X-91794Y85172D01*
X-91926Y84909D01*
X-92071Y84638D01*
X-92231Y84347D01*
Y84340D01*
X-92238Y84333D01*
X-92245Y84312D01*
X-92259Y84284D01*
X-92293Y84215D01*
X-92342Y84124D01*
X-92391Y84013D01*
X-92453Y83895D01*
X-92515Y83771D01*
X-92585Y83639D01*
X-92592Y83625D01*
X-92613Y83597D01*
X-92647Y83548D01*
X-92689Y83500D01*
X-92744Y83451D01*
X-92807Y83403D01*
X-92876Y83375D01*
X-92953Y83361D01*
X-92974D01*
X-92994Y83368D01*
X-93029Y83375D01*
X-93064Y83389D01*
X-93098Y83410D01*
X-93140Y83437D01*
X-93182Y83472D01*
X-93189Y83479D01*
X-93195Y83493D01*
X-93209Y83514D01*
X-93230Y83542D01*
X-93265Y83618D01*
X-93272Y83659D01*
X-93279Y83708D01*
Y83722D01*
X-93272Y83757D01*
X-93265Y83812D01*
X-93237Y83895D01*
X-93203Y84000D01*
X-93147Y84131D01*
X-93071Y84291D01*
X-93022Y84381D01*
X-92967Y84478D01*
Y84485D01*
X-92960Y84492D01*
X-92932Y84534D01*
X-92897Y84596D01*
X-92856Y84680D01*
X-92800Y84770D01*
X-92738Y84881D01*
X-92668Y84999D01*
X-92599Y85117D01*
X-92467Y85353D01*
X-92404Y85464D01*
X-92349Y85561D01*
X-92293Y85644D01*
X-92259Y85714D01*
X-92231Y85762D01*
X-92224Y85776D01*
X-92217Y85783D01*
X-92224Y85797D01*
X-92245Y85825D01*
X-92286Y85873D01*
X-92335Y85943D01*
X-92391Y86026D01*
X-92460Y86130D01*
X-92536Y86241D01*
X-92620Y86359D01*
X-92703Y86491D01*
X-92793Y86630D01*
X-92980Y86928D01*
X-93161Y87240D01*
X-93327Y87546D01*
Y87553D01*
X-93341Y87574D01*
X-93355Y87608D01*
X-93376Y87650D01*
X-93404Y87705D01*
X-93432Y87768D01*
X-93487Y87900D01*
X-93550Y88046D01*
X-93605Y88191D01*
X-93640Y88323D01*
X-93647Y88379D01*
X-93654Y88427D01*
Y88434D01*
Y88441D01*
X-93647Y88476D01*
X-93640Y88531D01*
X-93612Y88594D01*
X-93577Y88649D01*
X-93522Y88705D01*
X-93445Y88740D01*
X-93404Y88753D01*
X-93341D01*
X-93313Y88747D01*
X-93279Y88733D01*
X-93223Y88712D01*
X-93168Y88670D01*
X-93105Y88608D01*
X-93071Y88573D01*
X-93029Y88524D01*
X-92994Y88476D01*
X-92960Y88413D01*
Y88406D01*
X-92953Y88399D01*
X-92939Y88379D01*
X-92932Y88351D01*
X-92897Y88275D01*
X-92848Y88177D01*
X-92800Y88066D01*
X-92738Y87934D01*
X-92675Y87803D01*
X-92613Y87657D01*
X-92606Y87650D01*
X-92599Y87629D01*
X-92578Y87594D01*
X-92557Y87546D01*
X-92529Y87490D01*
X-92495Y87421D01*
X-92453Y87345D01*
X-92404Y87261D01*
X-92300Y87074D01*
X-92182Y86873D01*
X-92044Y86658D01*
X-91898Y86442D01*
Y86449D01*
X-91884Y86470D01*
X-91870Y86512D01*
X-91856Y86560D01*
X-91828Y86623D01*
X-91808Y86699D01*
X-91780Y86782D01*
X-91745Y86873D01*
X-91710Y86977D01*
X-91676Y87088D01*
X-91606Y87331D01*
X-91537Y87594D01*
X-91474Y87865D01*
Y87872D01*
X-91467Y87900D01*
X-91461Y87934D01*
X-91447Y87983D01*
X-91433Y88046D01*
X-91419Y88108D01*
X-91391Y88254D01*
X-91363Y88393D01*
X-91350Y88462D01*
X-91336Y88524D01*
X-91322Y88573D01*
X-91315Y88615D01*
X-91308Y88635D01*
Y88649D01*
Y88656D01*
X-91301Y88663D01*
X-91287Y88698D01*
X-91266Y88747D01*
X-91225Y88802D01*
X-91183Y88851D01*
X-91127Y88899D01*
X-91058Y88934D01*
X-91023Y88948D01*
X-90968D01*
X-90926Y88941D01*
D02*
G37*
G36*
X-95902Y88483D02*
X-95867D01*
X-95819Y88476D01*
X-95708Y88455D01*
X-95576Y88420D01*
X-95430Y88365D01*
X-95278Y88288D01*
X-95111Y88191D01*
X-95035Y88136D01*
X-94951Y88066D01*
X-94875Y87997D01*
X-94799Y87914D01*
X-94722Y87823D01*
X-94653Y87719D01*
X-94583Y87608D01*
X-94521Y87490D01*
X-94466Y87358D01*
X-94410Y87220D01*
X-94362Y87067D01*
X-94327Y86907D01*
X-94292Y86727D01*
X-94271Y86540D01*
X-94257Y86338D01*
X-94250Y86123D01*
Y86109D01*
Y86082D01*
Y86026D01*
X-94257Y85957D01*
Y85866D01*
X-94264Y85755D01*
X-94271Y85637D01*
X-94285Y85499D01*
X-94299Y85353D01*
X-94320Y85193D01*
X-94348Y85020D01*
X-94375Y84846D01*
X-94403Y84659D01*
X-94445Y84465D01*
X-94542Y84069D01*
Y84062D01*
X-94549Y84048D01*
X-94556Y84020D01*
X-94570Y83986D01*
X-94597Y83902D01*
X-94646Y83805D01*
X-94709Y83701D01*
X-94778Y83618D01*
X-94819Y83583D01*
X-94868Y83555D01*
X-94917Y83542D01*
X-94965Y83535D01*
X-94979D01*
X-95014Y83542D01*
X-95056Y83555D01*
X-95111Y83576D01*
X-95166Y83618D01*
X-95208Y83673D01*
X-95243Y83757D01*
X-95250Y83812D01*
X-95257Y83868D01*
Y83882D01*
Y83909D01*
X-95250Y83944D01*
X-95243Y83972D01*
X-95250D01*
X-95257Y83965D01*
X-95278Y83951D01*
X-95305Y83944D01*
X-95382Y83909D01*
X-95479Y83875D01*
X-95590Y83840D01*
X-95722Y83805D01*
X-95860Y83784D01*
X-96006Y83777D01*
X-96076D01*
X-96117Y83784D01*
X-96180Y83791D01*
X-96249Y83798D01*
X-96319Y83812D01*
X-96402Y83826D01*
X-96575Y83875D01*
X-96756Y83944D01*
X-96846Y83986D01*
X-96929Y84041D01*
X-97013Y84097D01*
X-97089Y84166D01*
X-97096Y84173D01*
X-97103Y84187D01*
X-97124Y84208D01*
X-97151Y84236D01*
X-97179Y84277D01*
X-97214Y84326D01*
X-97249Y84381D01*
X-97283Y84451D01*
X-97318Y84520D01*
X-97353Y84603D01*
X-97387Y84694D01*
X-97415Y84791D01*
X-97443Y84902D01*
X-97464Y85013D01*
X-97471Y85131D01*
X-97478Y85263D01*
Y85270D01*
Y85297D01*
Y85332D01*
X-97471Y85381D01*
X-97464Y85443D01*
X-97457Y85513D01*
X-97443Y85589D01*
X-97422Y85672D01*
X-97373Y85852D01*
X-97339Y85950D01*
X-97304Y86040D01*
X-97255Y86137D01*
X-97200Y86227D01*
X-97137Y86311D01*
X-97061Y86394D01*
X-97054Y86401D01*
X-97040Y86415D01*
X-97019Y86436D01*
X-96985Y86463D01*
X-96943Y86491D01*
X-96888Y86526D01*
X-96832Y86567D01*
X-96763Y86609D01*
X-96686Y86644D01*
X-96603Y86685D01*
X-96513Y86720D01*
X-96409Y86755D01*
X-96305Y86775D01*
X-96194Y86796D01*
X-96069Y86810D01*
X-95944Y86817D01*
X-95888D01*
X-95840Y86810D01*
X-95791Y86803D01*
X-95729Y86796D01*
X-95659Y86782D01*
X-95590Y86769D01*
X-95430Y86720D01*
X-95340Y86685D01*
X-95257Y86651D01*
X-95166Y86602D01*
X-95083Y86546D01*
X-95000Y86484D01*
X-94917Y86415D01*
Y86422D01*
Y86428D01*
Y86449D01*
X-94924Y86477D01*
X-94930Y86546D01*
X-94944Y86637D01*
X-94965Y86741D01*
X-94993Y86859D01*
X-95028Y86991D01*
X-95076Y87123D01*
X-95132Y87248D01*
X-95201Y87379D01*
X-95291Y87497D01*
X-95389Y87601D01*
X-95507Y87692D01*
X-95645Y87761D01*
X-95715Y87789D01*
X-95798Y87810D01*
X-95881Y87817D01*
X-95972Y87823D01*
X-96013D01*
X-96055Y87817D01*
X-96110Y87810D01*
X-96187Y87789D01*
X-96263Y87768D01*
X-96353Y87733D01*
X-96443Y87692D01*
X-96457Y87685D01*
X-96485Y87671D01*
X-96527Y87650D01*
X-96575Y87629D01*
X-96686Y87587D01*
X-96735Y87574D01*
X-96770Y87567D01*
X-96790D01*
X-96811Y87574D01*
X-96846Y87581D01*
X-96915Y87608D01*
X-96957Y87629D01*
X-96992Y87664D01*
X-96999Y87671D01*
X-97006Y87685D01*
X-97019Y87699D01*
X-97033Y87726D01*
X-97068Y87803D01*
X-97075Y87844D01*
X-97082Y87893D01*
Y87900D01*
X-97075Y87928D01*
X-97068Y87969D01*
X-97040Y88025D01*
X-97006Y88087D01*
X-96950Y88150D01*
X-96874Y88219D01*
X-96825Y88254D01*
X-96770Y88288D01*
X-96763D01*
X-96756Y88295D01*
X-96735Y88309D01*
X-96707Y88323D01*
X-96638Y88351D01*
X-96548Y88393D01*
X-96430Y88427D01*
X-96298Y88462D01*
X-96145Y88483D01*
X-95978Y88490D01*
X-95937D01*
X-95902Y88483D01*
D02*
G37*
G36*
X-88074Y88698D02*
X-88011Y88691D01*
X-87942Y88677D01*
X-87859Y88663D01*
X-87775Y88642D01*
X-87685Y88622D01*
X-87588Y88587D01*
X-87491Y88552D01*
X-87394Y88504D01*
X-87296Y88448D01*
X-87199Y88386D01*
X-87102Y88309D01*
X-87012Y88226D01*
X-87005Y88219D01*
X-86991Y88205D01*
X-86970Y88177D01*
X-86936Y88143D01*
X-86901Y88094D01*
X-86866Y88039D01*
X-86825Y87969D01*
X-86776Y87893D01*
X-86734Y87810D01*
X-86693Y87719D01*
X-86658Y87622D01*
X-86616Y87511D01*
X-86589Y87400D01*
X-86568Y87275D01*
X-86554Y87143D01*
X-86547Y87011D01*
Y87005D01*
Y86998D01*
Y86977D01*
X-86554Y86949D01*
X-86561Y86887D01*
X-86582Y86803D01*
X-86610Y86713D01*
X-86658Y86623D01*
X-86721Y86533D01*
X-86811Y86456D01*
X-86818D01*
X-86839Y86442D01*
X-86880Y86429D01*
X-86908Y86415D01*
X-86943Y86401D01*
X-86984Y86387D01*
X-87040Y86373D01*
X-87095Y86359D01*
X-87165Y86338D01*
X-87241Y86317D01*
X-87331Y86297D01*
X-87428Y86276D01*
X-87539Y86255D01*
X-87546D01*
X-87574Y86248D01*
X-87616Y86241D01*
X-87678Y86227D01*
X-87748Y86213D01*
X-87824Y86199D01*
X-87921Y86186D01*
X-88018Y86172D01*
X-88233Y86144D01*
X-88469Y86116D01*
X-88705Y86095D01*
X-88927Y86089D01*
X-89025D01*
X-89101Y86095D01*
X-89191D01*
X-89302Y86102D01*
X-89420Y86109D01*
X-89552Y86123D01*
Y86116D01*
Y86109D01*
Y86089D01*
Y86068D01*
X-89545Y85998D01*
X-89538Y85908D01*
X-89517Y85811D01*
X-89496Y85693D01*
X-89469Y85568D01*
X-89420Y85443D01*
X-89372Y85318D01*
X-89302Y85193D01*
X-89219Y85075D01*
X-89122Y84978D01*
X-89004Y84888D01*
X-88865Y84819D01*
X-88789Y84798D01*
X-88705Y84777D01*
X-88615Y84770D01*
X-88525Y84763D01*
X-88476D01*
X-88428Y84770D01*
X-88358Y84784D01*
X-88282Y84805D01*
X-88192Y84832D01*
X-88108Y84867D01*
X-88018Y84923D01*
X-88011Y84930D01*
X-87998Y84936D01*
X-87963Y84964D01*
X-87921Y84999D01*
X-87866Y85048D01*
X-87789Y85117D01*
X-87706Y85200D01*
X-87602Y85304D01*
X-87595Y85311D01*
X-87581Y85325D01*
X-87560Y85339D01*
X-87533Y85367D01*
X-87463Y85401D01*
X-87422Y85415D01*
X-87380Y85422D01*
X-87352D01*
X-87324Y85415D01*
X-87290Y85408D01*
X-87248Y85395D01*
X-87206Y85374D01*
X-87158Y85346D01*
X-87116Y85304D01*
X-87109Y85297D01*
X-87095Y85283D01*
X-87081Y85263D01*
X-87061Y85228D01*
X-87040Y85186D01*
X-87019Y85138D01*
X-87012Y85089D01*
X-87005Y85027D01*
Y85020D01*
Y85006D01*
X-87012Y84978D01*
X-87019Y84943D01*
X-87033Y84909D01*
X-87047Y84867D01*
X-87075Y84819D01*
X-87109Y84777D01*
X-87116Y84770D01*
X-87137Y84749D01*
X-87172Y84714D01*
X-87220Y84673D01*
X-87276Y84624D01*
X-87345Y84569D01*
X-87428Y84506D01*
X-87519Y84444D01*
X-87623Y84381D01*
X-87734Y84319D01*
X-87852Y84263D01*
X-87984Y84215D01*
X-88116Y84173D01*
X-88261Y84138D01*
X-88407Y84118D01*
X-88560Y84111D01*
X-88601D01*
X-88636Y84118D01*
X-88671D01*
X-88719Y84124D01*
X-88823Y84145D01*
X-88955Y84173D01*
X-89101Y84215D01*
X-89254Y84277D01*
X-89413Y84360D01*
X-89573Y84465D01*
X-89649Y84527D01*
X-89726Y84596D01*
X-89802Y84673D01*
X-89871Y84756D01*
X-89941Y84846D01*
X-90003Y84950D01*
X-90059Y85054D01*
X-90107Y85172D01*
X-90156Y85304D01*
X-90191Y85443D01*
X-90225Y85589D01*
X-90246Y85748D01*
X-90260Y85915D01*
X-90267Y86095D01*
Y86109D01*
Y86144D01*
X-90260Y86193D01*
Y86269D01*
X-90253Y86352D01*
X-90239Y86456D01*
X-90218Y86574D01*
X-90197Y86699D01*
X-90170Y86831D01*
X-90135Y86977D01*
X-90093Y87123D01*
X-90038Y87268D01*
X-89975Y87421D01*
X-89906Y87567D01*
X-89823Y87719D01*
X-89726Y87858D01*
X-89719Y87865D01*
X-89698Y87893D01*
X-89663Y87934D01*
X-89614Y87990D01*
X-89552Y88052D01*
X-89483Y88129D01*
X-89399Y88205D01*
X-89302Y88282D01*
X-89198Y88358D01*
X-89080Y88434D01*
X-88955Y88511D01*
X-88816Y88573D01*
X-88671Y88629D01*
X-88518Y88670D01*
X-88358Y88698D01*
X-88192Y88705D01*
X-88122D01*
X-88074Y88698D01*
D02*
G37*
G36*
X-108790Y88434D02*
X-108734Y88427D01*
X-108672Y88399D01*
X-108609Y88358D01*
X-108547Y88302D01*
X-108505Y88219D01*
X-108498Y88164D01*
X-108491Y88108D01*
X-108477Y87893D01*
X-108470Y87900D01*
X-108457Y87914D01*
X-108436Y87934D01*
X-108401Y87955D01*
X-108359Y87990D01*
X-108304Y88025D01*
X-108248Y88060D01*
X-108179Y88101D01*
X-108103Y88143D01*
X-108019Y88177D01*
X-107929Y88212D01*
X-107832Y88247D01*
X-107721Y88268D01*
X-107610Y88288D01*
X-107492Y88302D01*
X-107367Y88309D01*
X-107291D01*
X-107235Y88302D01*
X-107166Y88295D01*
X-107082Y88282D01*
X-106992Y88261D01*
X-106902Y88240D01*
X-106798Y88212D01*
X-106694Y88177D01*
X-106583Y88129D01*
X-106472Y88080D01*
X-106368Y88018D01*
X-106257Y87941D01*
X-106159Y87858D01*
X-106062Y87761D01*
X-106055Y87754D01*
X-106042Y87733D01*
X-106014Y87705D01*
X-105986Y87657D01*
X-105944Y87601D01*
X-105903Y87539D01*
X-105854Y87456D01*
X-105806Y87365D01*
X-105764Y87261D01*
X-105715Y87150D01*
X-105674Y87025D01*
X-105632Y86893D01*
X-105604Y86748D01*
X-105577Y86595D01*
X-105563Y86436D01*
X-105556Y86262D01*
Y86255D01*
Y86220D01*
Y86172D01*
X-105563Y86109D01*
X-105570Y86033D01*
X-105583Y85943D01*
X-105604Y85839D01*
X-105625Y85735D01*
X-105653Y85617D01*
X-105687Y85499D01*
X-105736Y85374D01*
X-105785Y85249D01*
X-105847Y85131D01*
X-105923Y85013D01*
X-106007Y84895D01*
X-106104Y84791D01*
X-106111Y84784D01*
X-106132Y84770D01*
X-106159Y84742D01*
X-106201Y84707D01*
X-106257Y84666D01*
X-106326Y84617D01*
X-106402Y84569D01*
X-106493Y84520D01*
X-106590Y84471D01*
X-106701Y84423D01*
X-106826Y84374D01*
X-106951Y84333D01*
X-107089Y84298D01*
X-107242Y84270D01*
X-107402Y84256D01*
X-107568Y84249D01*
X-107617D01*
X-107659Y84256D01*
X-107700D01*
X-107756Y84263D01*
X-107818Y84270D01*
X-107887Y84277D01*
X-108040Y84305D01*
X-108207Y84347D01*
X-108387Y84402D01*
X-108568Y84478D01*
Y84471D01*
X-108575Y84444D01*
Y84402D01*
X-108581Y84347D01*
X-108589Y84277D01*
X-108595Y84208D01*
X-108616Y84041D01*
X-108644Y83861D01*
X-108665Y83694D01*
X-108679Y83618D01*
X-108686Y83548D01*
X-108700Y83493D01*
X-108706Y83451D01*
X-108713Y83437D01*
X-108727Y83403D01*
X-108748Y83347D01*
X-108783Y83292D01*
X-108824Y83236D01*
X-108887Y83181D01*
X-108956Y83146D01*
X-108998Y83139D01*
X-109040Y83132D01*
X-109060D01*
X-109088Y83139D01*
X-109123Y83146D01*
X-109206Y83174D01*
X-109248Y83195D01*
X-109289Y83229D01*
X-109296Y83236D01*
X-109303Y83243D01*
X-109324Y83264D01*
X-109338Y83292D01*
X-109380Y83361D01*
X-109387Y83410D01*
X-109394Y83458D01*
Y83465D01*
Y83479D01*
X-109387Y83507D01*
Y83535D01*
X-109380Y83562D01*
X-109373Y83597D01*
Y83646D01*
X-109366Y83694D01*
X-109359Y83757D01*
X-109345Y83833D01*
X-109338Y83916D01*
Y83923D01*
Y83944D01*
X-109331Y83972D01*
X-109324Y84013D01*
X-109317Y84062D01*
X-109310Y84124D01*
X-109303Y84194D01*
X-109296Y84270D01*
X-109289Y84360D01*
X-109283Y84451D01*
X-109262Y84652D01*
X-109241Y84881D01*
X-109227Y85117D01*
Y85131D01*
Y85158D01*
X-109220Y85207D01*
Y85277D01*
X-109213Y85367D01*
X-109206Y85471D01*
X-109199Y85589D01*
X-109192Y85721D01*
Y85860D01*
X-109185Y86019D01*
X-109178Y86186D01*
X-109171Y86359D01*
Y86540D01*
X-109165Y86734D01*
Y87129D01*
Y87136D01*
Y87171D01*
Y87213D01*
Y87275D01*
Y87345D01*
X-109171Y87428D01*
Y87518D01*
X-109178Y87622D01*
Y87636D01*
Y87664D01*
Y87713D01*
Y87768D01*
X-109185Y87830D01*
Y87886D01*
Y87928D01*
Y87962D01*
Y87969D01*
Y87983D01*
Y88004D01*
X-109178Y88039D01*
X-109165Y88115D01*
X-109144Y88205D01*
X-109102Y88288D01*
X-109040Y88365D01*
X-109005Y88399D01*
X-108956Y88420D01*
X-108908Y88434D01*
X-108845Y88441D01*
X-108831D01*
X-108790Y88434D01*
D02*
G37*
G36*
X-111732Y88733D02*
X-111677D01*
X-111600Y88719D01*
X-111517Y88705D01*
X-111427Y88691D01*
X-111323Y88663D01*
X-111212Y88635D01*
X-111101Y88594D01*
X-110990Y88545D01*
X-110872Y88483D01*
X-110761Y88413D01*
X-110643Y88337D01*
X-110539Y88240D01*
X-110434Y88136D01*
X-110428Y88129D01*
X-110414Y88108D01*
X-110386Y88073D01*
X-110351Y88025D01*
X-110310Y87969D01*
X-110268Y87893D01*
X-110219Y87810D01*
X-110164Y87713D01*
X-110115Y87608D01*
X-110067Y87490D01*
X-110025Y87358D01*
X-109983Y87220D01*
X-109949Y87067D01*
X-109921Y86907D01*
X-109907Y86734D01*
X-109900Y86554D01*
Y86540D01*
Y86505D01*
X-109907Y86449D01*
Y86380D01*
X-109921Y86290D01*
X-109935Y86186D01*
X-109949Y86075D01*
X-109976Y85950D01*
X-110011Y85818D01*
X-110053Y85679D01*
X-110101Y85540D01*
X-110164Y85401D01*
X-110233Y85263D01*
X-110317Y85124D01*
X-110407Y84999D01*
X-110518Y84874D01*
X-110525Y84867D01*
X-110546Y84846D01*
X-110580Y84819D01*
X-110629Y84777D01*
X-110691Y84728D01*
X-110768Y84680D01*
X-110858Y84617D01*
X-110955Y84562D01*
X-111066Y84506D01*
X-111191Y84451D01*
X-111330Y84395D01*
X-111476Y84347D01*
X-111635Y84305D01*
X-111802Y84277D01*
X-111982Y84256D01*
X-112170Y84249D01*
X-112204D01*
X-112253Y84256D01*
X-112308D01*
X-112385Y84270D01*
X-112468Y84277D01*
X-112558Y84298D01*
X-112655Y84326D01*
X-112759Y84354D01*
X-112870Y84395D01*
X-112981Y84437D01*
X-113093Y84492D01*
X-113204Y84562D01*
X-113315Y84638D01*
X-113412Y84728D01*
X-113509Y84832D01*
X-113516Y84839D01*
X-113530Y84860D01*
X-113551Y84895D01*
X-113585Y84936D01*
X-113620Y84999D01*
X-113662Y85068D01*
X-113703Y85158D01*
X-113745Y85256D01*
X-113794Y85360D01*
X-113835Y85485D01*
X-113877Y85617D01*
X-113911Y85762D01*
X-113946Y85915D01*
X-113967Y86082D01*
X-113981Y86262D01*
X-113988Y86449D01*
Y86463D01*
Y86498D01*
X-113981Y86554D01*
Y86630D01*
X-113967Y86720D01*
X-113960Y86824D01*
X-113939Y86942D01*
X-113911Y87067D01*
X-113884Y87206D01*
X-113842Y87345D01*
X-113800Y87483D01*
X-113745Y87622D01*
X-113675Y87761D01*
X-113599Y87900D01*
X-113509Y88025D01*
X-113405Y88143D01*
X-113398Y88150D01*
X-113377Y88170D01*
X-113342Y88198D01*
X-113301Y88233D01*
X-113238Y88282D01*
X-113169Y88330D01*
X-113086Y88386D01*
X-112988Y88441D01*
X-112884Y88497D01*
X-112766Y88552D01*
X-112635Y88601D01*
X-112489Y88649D01*
X-112336Y88684D01*
X-112176Y88712D01*
X-112003Y88733D01*
X-111816Y88740D01*
X-111781D01*
X-111732Y88733D01*
D02*
G37*
%LPC*%
G36*
X80020Y69664D02*
X79161Y69494D01*
X78434Y69007D01*
X77947Y68280D01*
X77777Y67421D01*
X77947Y66563D01*
X78434Y65835D01*
X79161Y65349D01*
X80020Y65178D01*
X80878Y65349D01*
X81606Y65835D01*
X82092Y66563D01*
X82263Y67421D01*
X82092Y68280D01*
X81606Y69007D01*
X80878Y69494D01*
X80020Y69664D01*
D02*
G37*
G36*
X114173Y69566D02*
X113315Y69395D01*
X112587Y68909D01*
X112101Y68181D01*
X111930Y67323D01*
X112101Y66464D01*
X112587Y65737D01*
X113315Y65250D01*
X114173Y65080D01*
X115032Y65250D01*
X115759Y65737D01*
X116246Y66464D01*
X116416Y67323D01*
X116246Y68181D01*
X115759Y68909D01*
X115032Y69395D01*
X114173Y69566D01*
D02*
G37*
G36*
X-102067Y65991D02*
X-102925Y65820D01*
X-103653Y65334D01*
X-104139Y64606D01*
X-104310Y63748D01*
X-104139Y62890D01*
X-103653Y62162D01*
X-102925Y61676D01*
X-102067Y61505D01*
X-101208Y61676D01*
X-100481Y62162D01*
X-99995Y62890D01*
X-99824Y63748D01*
X-99995Y64606D01*
X-100481Y65334D01*
X-101208Y65820D01*
X-102067Y65991D01*
D02*
G37*
G36*
X-22441D02*
X-23299Y65820D01*
X-24027Y65334D01*
X-24513Y64606D01*
X-24684Y63748D01*
X-24513Y62890D01*
X-24027Y62162D01*
Y61988D01*
X-24513Y61260D01*
X-24684Y60402D01*
X-24513Y59543D01*
X-24027Y58815D01*
X-23299Y58329D01*
X-22441Y58158D01*
X-21583Y58329D01*
X-20855Y58815D01*
X-20817Y58872D01*
X-14480D01*
X-12159Y56551D01*
Y44783D01*
X-12043Y44198D01*
X-11711Y43702D01*
X-8501Y40491D01*
X-8692Y40029D01*
X-23876D01*
X-23914Y40086D01*
X-24642Y40572D01*
X-25500Y40743D01*
X-26358Y40572D01*
X-27086Y40086D01*
X-27572Y39358D01*
X-27743Y38500D01*
X-27572Y37642D01*
X-27086Y36914D01*
X-26358Y36428D01*
X-25500Y36257D01*
X-24642Y36428D01*
X-23914Y36914D01*
X-23876Y36971D01*
X-6634D01*
X-1529Y31866D01*
Y-11867D01*
X-5633Y-15971D01*
X-38000D01*
X-38585Y-16087D01*
X-39081Y-16419D01*
X-46581Y-23919D01*
X-46913Y-24415D01*
X-47029Y-25000D01*
Y-50376D01*
X-47086Y-50414D01*
X-47572Y-51142D01*
X-47743Y-52000D01*
X-47572Y-52858D01*
X-47086Y-53586D01*
X-46358Y-54072D01*
X-45500Y-54243D01*
X-44642Y-54072D01*
X-43914Y-53586D01*
X-43428Y-52858D01*
X-43257Y-52000D01*
X-43428Y-51142D01*
X-43914Y-50414D01*
X-43971Y-50376D01*
Y-25633D01*
X-37367Y-19029D01*
X-27557D01*
X-27220Y-19529D01*
X-27341Y-20141D01*
X-27171Y-20999D01*
X-26684Y-21727D01*
X-25957Y-22213D01*
X-25098Y-22384D01*
X-24240Y-22213D01*
X-23512Y-21727D01*
X-23026Y-20999D01*
X-22855Y-20141D01*
X-22977Y-19529D01*
X-22640Y-19029D01*
X-13131D01*
X-12979Y-19529D01*
X-13102Y-19612D01*
X-13588Y-20339D01*
X-13759Y-21198D01*
X-13588Y-22056D01*
X-13102Y-22784D01*
X-12374Y-23270D01*
X-11516Y-23441D01*
X-11449Y-23427D01*
X-10990Y-23886D01*
X-11449Y-24345D01*
X-11516Y-24332D01*
X-12374Y-24502D01*
X-13102Y-24989D01*
X-13588Y-25716D01*
X-13759Y-26575D01*
X-13588Y-27433D01*
X-13102Y-28161D01*
X-12374Y-28647D01*
X-11516Y-28818D01*
X-10657Y-28647D01*
X-9930Y-28161D01*
X-9443Y-27433D01*
X-9273Y-26575D01*
X-8926Y-26216D01*
X-7090D01*
X-5663Y-27642D01*
Y-31174D01*
X-5547Y-31760D01*
X-5215Y-32256D01*
X-2900Y-34571D01*
X-2404Y-34903D01*
X-1819Y-35019D01*
X1300D01*
Y-35025D01*
X2370Y-34884D01*
X3368Y-34471D01*
X3871Y-34085D01*
X4371Y-34332D01*
Y-38943D01*
X4365D01*
X4506Y-40014D01*
X4919Y-41011D01*
X5576Y-41868D01*
X6432Y-42525D01*
X7430Y-42938D01*
X8500Y-43079D01*
X9570Y-42938D01*
X10568Y-42525D01*
X11424Y-41868D01*
X11785Y-41398D01*
X12415D01*
X12776Y-41868D01*
X13632Y-42525D01*
X14630Y-42938D01*
X15700Y-43079D01*
X16770Y-42938D01*
X17768Y-42525D01*
X18624Y-41868D01*
X19281Y-41011D01*
X19694Y-40014D01*
X19835Y-38943D01*
X19829D01*
Y-35019D01*
X28813D01*
X29399Y-34903D01*
X29895Y-34571D01*
X33837Y-30629D01*
X34298Y-30876D01*
X34174Y-31496D01*
X34345Y-32355D01*
X34831Y-33082D01*
X35559Y-33568D01*
X36417Y-33739D01*
X37276Y-33568D01*
X38003Y-33082D01*
X38490Y-32355D01*
X38660Y-31496D01*
X38647Y-31429D01*
X39118Y-30959D01*
X45423D01*
X45461Y-31015D01*
X46189Y-31501D01*
X46365Y-31536D01*
Y-32046D01*
X46189Y-32081D01*
X45461Y-32567D01*
X44975Y-33295D01*
X44804Y-34154D01*
X44975Y-35012D01*
X45461Y-35740D01*
X45518Y-35778D01*
Y-36473D01*
X43012Y-38979D01*
X42531Y-38965D01*
X41803Y-38479D01*
X40945Y-38308D01*
X40086Y-38479D01*
X39359Y-38965D01*
X38873Y-39693D01*
X38702Y-40551D01*
X38873Y-41410D01*
X39359Y-42137D01*
X40086Y-42624D01*
X40945Y-42794D01*
X41803Y-42624D01*
X42531Y-42137D01*
X42597Y-42038D01*
X43645D01*
X44230Y-41922D01*
X44726Y-41590D01*
X48129Y-38188D01*
X48460Y-37692D01*
X48577Y-37106D01*
Y-35778D01*
X48633Y-35740D01*
X49120Y-35012D01*
X49290Y-34154D01*
X49120Y-33295D01*
X48633Y-32567D01*
X47906Y-32081D01*
X47730Y-32046D01*
Y-31536D01*
X47906Y-31501D01*
X48633Y-31015D01*
X49120Y-30288D01*
X49290Y-29429D01*
X49120Y-28571D01*
X48633Y-27843D01*
X47906Y-27357D01*
X47047Y-27186D01*
X46189Y-27357D01*
X45461Y-27843D01*
X45423Y-27900D01*
X38484D01*
X37899Y-28016D01*
X37403Y-28348D01*
X36484Y-29266D01*
X36417Y-29253D01*
X35797Y-29376D01*
X35550Y-28916D01*
X38747Y-25719D01*
X39079Y-25223D01*
X39195Y-24638D01*
Y-3224D01*
X41775Y-644D01*
X56495D01*
X57080Y-527D01*
X57577Y-196D01*
X60405Y2633D01*
X60737Y3129D01*
X60853Y3715D01*
Y7796D01*
X60859D01*
X60718Y8866D01*
X60305Y9864D01*
X59919Y10367D01*
X60166Y10867D01*
X62724D01*
Y10861D01*
X63794Y11002D01*
X64792Y11415D01*
X65648Y12072D01*
X66305Y12928D01*
X66718Y13926D01*
X66859Y14996D01*
X66718Y16066D01*
X66305Y17064D01*
X65648Y17920D01*
X65178Y18281D01*
Y18911D01*
X65648Y19272D01*
X66305Y20128D01*
X66718Y21126D01*
X66859Y22196D01*
X66718Y23266D01*
X66305Y24264D01*
X65648Y25120D01*
X64792Y25777D01*
X63794Y26191D01*
X62724Y26331D01*
Y26326D01*
X60166D01*
X59919Y26825D01*
X60305Y27328D01*
X60718Y28326D01*
X60859Y29396D01*
X60853D01*
Y34318D01*
X61024Y34791D01*
X61882Y34962D01*
X62610Y35448D01*
X63096Y36176D01*
X63267Y37034D01*
X63096Y37893D01*
X62610Y38621D01*
X62762Y39120D01*
X83711D01*
X83749Y39064D01*
X84476Y38577D01*
X85335Y38407D01*
X86193Y38577D01*
X86921Y39064D01*
X87407Y39791D01*
X87507Y40292D01*
X87628Y40367D01*
X88046Y40441D01*
X89368Y39119D01*
X89865Y38787D01*
X90450Y38671D01*
X92775D01*
X93361Y38787D01*
X93857Y39119D01*
X95294Y40556D01*
X95626Y41052D01*
X95742Y41637D01*
Y45377D01*
X96204Y45569D01*
X96654Y45119D01*
X97150Y44787D01*
X97736Y44671D01*
X105200D01*
X105785Y44787D01*
X106281Y45119D01*
X108239Y47076D01*
X109392Y48230D01*
X109724Y48726D01*
X109840Y49311D01*
Y49948D01*
X110302Y50139D01*
X111533Y48909D01*
X112029Y48577D01*
X112614Y48461D01*
X114647D01*
X115232Y48577D01*
X115728Y48909D01*
X117373Y50553D01*
X117704Y51049D01*
X117821Y51634D01*
Y53667D01*
X117704Y54252D01*
X117373Y54748D01*
X117113Y55009D01*
X117304Y55471D01*
X121263D01*
X121428Y54642D01*
X121914Y53914D01*
X122642Y53428D01*
X123500Y53257D01*
X124358Y53428D01*
X125086Y53914D01*
X125572Y54642D01*
X125743Y55500D01*
X125572Y56358D01*
X125086Y57086D01*
X124421Y57530D01*
X124387Y57800D01*
X124421Y58070D01*
X125086Y58514D01*
X125572Y59242D01*
X125743Y60100D01*
X125572Y60958D01*
X125086Y61686D01*
X124358Y62172D01*
X123500Y62343D01*
X122642Y62172D01*
X121914Y61686D01*
X121428Y60958D01*
X121263Y60129D01*
X117083D01*
X115163Y62050D01*
X114666Y62381D01*
X114081Y62498D01*
X112049D01*
X111463Y62381D01*
X110967Y62050D01*
X109323Y60405D01*
X108991Y59909D01*
X108875Y59324D01*
Y57407D01*
X106957D01*
X106372Y57290D01*
X105876Y56959D01*
X104232Y55314D01*
X103900Y54818D01*
X103784Y54233D01*
Y52200D01*
X103900Y51615D01*
X104232Y51119D01*
X104962Y50388D01*
X103904Y49329D01*
X99342D01*
Y52363D01*
X99226Y52948D01*
X98894Y53444D01*
X97457Y54881D01*
X96961Y55213D01*
X96376Y55329D01*
X94050D01*
X93465Y55213D01*
X92968Y54881D01*
X91613Y53526D01*
X90257Y54881D01*
X89761Y55213D01*
X89175Y55329D01*
X86850D01*
X86265Y55213D01*
X85769Y54881D01*
X84331Y53444D01*
X84000Y52948D01*
X83883Y52363D01*
Y49329D01*
X78237D01*
X78072Y50158D01*
X77586Y50886D01*
X76858Y51372D01*
X76000Y51543D01*
X75142Y51372D01*
X74414Y50886D01*
X73928Y50158D01*
X73757Y49300D01*
X73928Y48442D01*
X74414Y47714D01*
X75079Y47270D01*
X75113Y47000D01*
X75079Y46730D01*
X74414Y46286D01*
X73928Y45558D01*
X73757Y44700D01*
X73928Y43842D01*
X74414Y43114D01*
X75065Y42679D01*
X75041Y42346D01*
X74982Y42179D01*
X39371D01*
X39219Y42679D01*
X39570Y42914D01*
X40057Y43642D01*
X40227Y44500D01*
X40057Y45358D01*
X39570Y46086D01*
X38843Y46572D01*
X38428Y46655D01*
X38258Y47000D01*
X38428Y47345D01*
X38843Y47428D01*
X39570Y47914D01*
X40057Y48642D01*
X40227Y49500D01*
X40057Y50358D01*
X39570Y51086D01*
X38843Y51572D01*
X37984Y51743D01*
X37126Y51572D01*
X36398Y51086D01*
X35912Y50358D01*
X35741Y49500D01*
X35268Y49329D01*
X31599D01*
Y50200D01*
X31605D01*
X31464Y51270D01*
X31051Y52268D01*
X30393Y53124D01*
X29537Y53781D01*
X28540Y54194D01*
X27469Y54335D01*
X26399Y54194D01*
X25402Y53781D01*
X24545Y53124D01*
X24184Y52654D01*
X23554D01*
X23193Y53124D01*
X22337Y53781D01*
X21340Y54194D01*
X20269Y54335D01*
X19199Y54194D01*
X18202Y53781D01*
X17345Y53124D01*
X16984Y52654D01*
X16354D01*
X15993Y53124D01*
X15137Y53781D01*
X14140Y54194D01*
X13069Y54335D01*
X11999Y54194D01*
X11002Y53781D01*
X10145Y53124D01*
X9488Y52268D01*
X9075Y51270D01*
X8934Y50200D01*
X8940D01*
Y49329D01*
X6030D01*
X4529Y50830D01*
Y55799D01*
X5040Y55900D01*
X5767Y56386D01*
X6254Y57114D01*
X6424Y57972D01*
X6254Y58831D01*
X5767Y59559D01*
X5040Y60045D01*
X4181Y60216D01*
X3323Y60045D01*
X2595Y59559D01*
X2450Y59342D01*
X1950D01*
X1805Y59559D01*
X1077Y60045D01*
X219Y60216D01*
X-426Y60087D01*
X-864Y60451D01*
X-859Y60473D01*
X-1030Y61331D01*
X-1516Y62059D01*
X-2244Y62545D01*
X-3102Y62716D01*
X-3961Y62545D01*
X-4688Y62059D01*
X-5175Y61331D01*
X-5345Y60473D01*
X-5175Y59614D01*
X-4688Y58886D01*
X-3961Y58400D01*
X-3102Y58229D01*
X-2457Y58358D01*
X-2020Y57994D01*
X-2024Y57972D01*
X-1853Y57114D01*
X-1367Y56386D01*
X-640Y55900D01*
X-129Y55799D01*
Y49534D01*
X-13Y48949D01*
X319Y48453D01*
X319Y48453D01*
X3653Y45119D01*
X4149Y44787D01*
X4734Y44671D01*
X9469D01*
Y44665D01*
X10540Y44805D01*
X11537Y45219D01*
X12040Y45605D01*
X12540Y45358D01*
Y44850D01*
X12534D01*
X12675Y43779D01*
X13088Y42782D01*
X13206Y42627D01*
X12985Y42179D01*
X-5863D01*
X-9100Y45417D01*
Y57185D01*
X-9217Y57770D01*
X-9549Y58267D01*
X-12765Y61483D01*
X-13261Y61814D01*
X-13847Y61931D01*
X-20408D01*
X-20675Y62431D01*
X-20369Y62890D01*
X-20198Y63748D01*
X-20369Y64606D01*
X-20855Y65334D01*
X-21583Y65820D01*
X-22441Y65991D01*
D02*
G37*
G36*
X-15087Y46212D02*
X-15945Y46041D01*
X-16673Y45555D01*
X-17159Y44827D01*
X-17330Y43968D01*
X-17159Y43110D01*
X-16673Y42382D01*
X-15945Y41896D01*
X-15087Y41725D01*
X-14228Y41896D01*
X-13500Y42382D01*
X-13014Y43110D01*
X-12844Y43968D01*
X-13014Y44827D01*
X-13500Y45555D01*
X-14228Y46041D01*
X-15087Y46212D01*
D02*
G37*
G36*
X-85728Y44664D02*
X-86587Y44494D01*
X-87314Y44007D01*
X-87801Y43280D01*
X-87972Y42421D01*
X-87801Y41563D01*
X-87314Y40835D01*
X-86587Y40349D01*
X-85728Y40178D01*
X-84870Y40349D01*
X-84142Y40835D01*
X-83656Y41563D01*
X-83485Y42421D01*
X-83656Y43280D01*
X-84142Y44007D01*
X-84870Y44494D01*
X-85728Y44664D01*
D02*
G37*
G36*
X-70866Y41121D02*
X-71724Y40950D01*
X-72452Y40464D01*
X-72939Y39736D01*
X-73109Y38878D01*
X-72939Y38020D01*
X-72452Y37292D01*
X-72395Y37254D01*
Y34793D01*
X-72452Y34755D01*
X-72939Y34028D01*
X-73109Y33169D01*
X-72939Y32311D01*
X-72452Y31583D01*
X-71724Y31097D01*
X-70866Y30926D01*
X-70008Y31097D01*
X-69280Y31583D01*
X-68794Y32311D01*
X-68623Y33169D01*
X-68794Y34028D01*
X-69280Y34755D01*
X-69337Y34793D01*
Y37254D01*
X-69280Y37292D01*
X-68794Y38020D01*
X-68623Y38878D01*
X-68794Y39736D01*
X-69280Y40464D01*
X-70008Y40950D01*
X-70866Y41121D01*
D02*
G37*
G36*
X-15087Y35212D02*
X-15945Y35041D01*
X-16673Y34555D01*
X-17159Y33827D01*
X-17330Y32969D01*
X-17159Y32110D01*
X-16673Y31382D01*
X-15945Y30896D01*
X-15087Y30725D01*
X-14228Y30896D01*
X-13500Y31382D01*
X-13014Y32110D01*
X-12844Y32969D01*
X-13014Y33827D01*
X-13500Y34555D01*
X-14228Y35041D01*
X-15087Y35212D01*
D02*
G37*
G36*
X-52449Y32645D02*
X-53307Y32474D01*
X-54035Y31988D01*
X-54521Y31260D01*
X-54692Y30402D01*
X-54521Y29543D01*
X-54035Y28815D01*
X-53307Y28329D01*
X-52449Y28159D01*
X-51590Y28329D01*
X-50863Y28815D01*
X-50376Y29543D01*
X-50206Y30402D01*
X-50376Y31260D01*
X-50863Y31988D01*
X-51590Y32474D01*
X-52449Y32645D01*
D02*
G37*
G36*
X-98492Y25243D02*
X-99351Y25072D01*
X-100078Y24586D01*
X-100565Y23858D01*
X-100735Y23000D01*
X-100565Y22142D01*
X-100078Y21414D01*
X-99351Y20928D01*
X-98492Y20757D01*
X-97634Y20928D01*
X-96906Y21414D01*
X-96420Y22142D01*
X-96249Y23000D01*
X-96420Y23858D01*
X-96906Y24586D01*
X-97634Y25072D01*
X-98492Y25243D01*
D02*
G37*
G36*
X-89961Y23208D02*
X-90819Y23037D01*
X-91547Y22551D01*
X-92033Y21823D01*
X-92204Y20965D01*
X-92033Y20106D01*
X-91547Y19378D01*
X-90819Y18892D01*
X-89961Y18722D01*
X-89102Y18892D01*
X-88375Y19378D01*
X-87888Y20106D01*
X-87717Y20965D01*
X-87888Y21823D01*
X-88375Y22551D01*
X-89102Y23037D01*
X-89961Y23208D01*
D02*
G37*
G36*
X-139370Y26259D02*
X-140228Y26088D01*
X-140278Y26055D01*
X-142618D01*
X-143398Y25900D01*
X-144060Y25458D01*
X-147251Y22267D01*
X-147693Y21606D01*
X-147848Y20825D01*
Y-10526D01*
X-147693Y-11306D01*
X-147251Y-11968D01*
X-140413Y-18806D01*
X-139751Y-19248D01*
X-138971Y-19403D01*
X-97369D01*
X-95764Y-21008D01*
X-95401Y-21551D01*
X-94673Y-22037D01*
X-93815Y-22208D01*
X-92957Y-22037D01*
X-92229Y-21551D01*
X-91743Y-20823D01*
X-91572Y-19965D01*
X-91743Y-19106D01*
X-92229Y-18379D01*
X-92957Y-17892D01*
X-93150Y-17854D01*
X-94961Y-16043D01*
X-93331Y-14414D01*
X-93138Y-14376D01*
X-92410Y-13889D01*
X-91924Y-13161D01*
X-91753Y-12303D01*
X-91924Y-11445D01*
X-92410Y-10717D01*
X-93138Y-10231D01*
X-93996Y-10060D01*
X-94854Y-10231D01*
X-95582Y-10717D01*
X-95945Y-11260D01*
X-97410Y-12725D01*
X-137049D01*
X-141170Y-8604D01*
Y16970D01*
X-140825Y17315D01*
X-140278D01*
X-140228Y17282D01*
X-139370Y17111D01*
X-138512Y17282D01*
X-137784Y17768D01*
X-137298Y18496D01*
X-137127Y19354D01*
X-137298Y20213D01*
X-137784Y20940D01*
X-138512Y21427D01*
X-138529Y21430D01*
Y21940D01*
X-138512Y21943D01*
X-137784Y22430D01*
X-137298Y23157D01*
X-137127Y24016D01*
X-137298Y24874D01*
X-137784Y25602D01*
X-138512Y26088D01*
X-139370Y26259D01*
D02*
G37*
G36*
X-83801Y20612D02*
X-84659Y20442D01*
X-85387Y19955D01*
X-85873Y19228D01*
X-86044Y18369D01*
X-85873Y17511D01*
X-85387Y16783D01*
X-84659Y16297D01*
X-83801Y16126D01*
X-82942Y16297D01*
X-82215Y16783D01*
X-81728Y17511D01*
X-81558Y18369D01*
X-81728Y19228D01*
X-82215Y19955D01*
X-82942Y20442D01*
X-83801Y20612D01*
D02*
G37*
G36*
X-63681Y19467D02*
X-64539Y19297D01*
X-65267Y18811D01*
X-65753Y18083D01*
X-65924Y17224D01*
X-65753Y16366D01*
X-65381Y15809D01*
X-65606Y15309D01*
X-109400D01*
X-109438Y15366D01*
X-110165Y15852D01*
X-111024Y16023D01*
X-111882Y15852D01*
X-112610Y15366D01*
X-113096Y14638D01*
X-113267Y13780D01*
X-113096Y12921D01*
X-112610Y12193D01*
X-112412Y12061D01*
Y11561D01*
X-112610Y11429D01*
X-113096Y10701D01*
X-113267Y9843D01*
X-113096Y8984D01*
X-112610Y8256D01*
X-112412Y8124D01*
Y7624D01*
X-112610Y7492D01*
X-113096Y6764D01*
X-113267Y5906D01*
X-113096Y5047D01*
X-112610Y4319D01*
X-112412Y4187D01*
Y3687D01*
X-112610Y3555D01*
X-113096Y2827D01*
X-113267Y1969D01*
X-113096Y1110D01*
X-112610Y382D01*
X-112412Y250D01*
Y-250D01*
X-112610Y-382D01*
X-113096Y-1110D01*
X-113267Y-1969D01*
X-113096Y-2827D01*
X-112610Y-3555D01*
X-112412Y-3687D01*
Y-4187D01*
X-112610Y-4319D01*
X-113096Y-5047D01*
X-113267Y-5906D01*
X-113096Y-6764D01*
X-112610Y-7492D01*
X-111882Y-7978D01*
X-111024Y-8149D01*
X-110165Y-7978D01*
X-109438Y-7492D01*
X-109400Y-7435D01*
X-44137D01*
X-41239Y-10333D01*
X-40743Y-10665D01*
X-40157Y-10781D01*
X-24902D01*
X-24316Y-10665D01*
X-23820Y-10333D01*
X-20922Y-7435D01*
X-6644D01*
X-6606Y-7492D01*
X-5878Y-7978D01*
X-5020Y-8149D01*
X-4161Y-7978D01*
X-3434Y-7492D01*
X-2947Y-6764D01*
X-2777Y-5906D01*
X-2947Y-5047D01*
X-3434Y-4319D01*
X-3632Y-4187D01*
Y-3687D01*
X-3434Y-3555D01*
X-2947Y-2827D01*
X-2777Y-1969D01*
X-2947Y-1110D01*
X-3434Y-382D01*
X-3612Y-263D01*
Y237D01*
X-3394Y382D01*
X-2908Y1110D01*
X-2737Y1969D01*
X-2908Y2827D01*
X-3394Y3555D01*
X-3612Y3700D01*
Y4200D01*
X-3434Y4319D01*
X-2947Y5047D01*
X-2777Y5906D01*
X-2947Y6764D01*
X-3434Y7492D01*
X-3612Y7611D01*
Y8111D01*
X-3394Y8256D01*
X-2908Y8984D01*
X-2737Y9843D01*
X-2908Y10701D01*
X-3394Y11429D01*
X-3592Y11561D01*
Y12061D01*
X-3394Y12193D01*
X-2908Y12921D01*
X-2737Y13780D01*
X-2908Y14638D01*
X-3394Y15366D01*
X-4122Y15852D01*
X-4980Y16023D01*
X-5839Y15852D01*
X-6566Y15366D01*
X-6604Y15309D01*
X-20429D01*
X-23525Y18404D01*
X-24021Y18736D01*
X-24606Y18852D01*
X-40059D01*
X-40644Y18736D01*
X-41140Y18404D01*
X-44236Y15309D01*
X-61756D01*
X-61981Y15809D01*
X-61609Y16366D01*
X-61438Y17224D01*
X-61609Y18083D01*
X-62095Y18811D01*
X-62823Y19297D01*
X-63681Y19467D01*
D02*
G37*
G36*
X-55807Y-8190D02*
X-56665Y-8361D01*
X-57393Y-8847D01*
X-57863D01*
X-58590Y-8361D01*
X-59449Y-8190D01*
X-60307Y-8361D01*
X-61035Y-8847D01*
X-61081Y-8917D01*
X-61581D01*
X-61628Y-8847D01*
X-62356Y-8361D01*
X-63214Y-8190D01*
X-64073Y-8361D01*
X-64800Y-8847D01*
X-65286Y-9575D01*
X-65457Y-10433D01*
X-65286Y-11292D01*
X-64800Y-12019D01*
X-64073Y-12505D01*
X-63459Y-12628D01*
Y-14468D01*
X-66167Y-17176D01*
X-66476Y-17639D01*
X-66585Y-18185D01*
X-66585Y-18185D01*
Y-21358D01*
Y-25131D01*
X-67857D01*
Y-25126D01*
X-68823Y-25254D01*
X-69723Y-25626D01*
X-70496Y-26219D01*
X-71089Y-26992D01*
X-71462Y-27892D01*
X-71589Y-28858D01*
X-71462Y-29824D01*
X-71089Y-30724D01*
X-70496Y-31497D01*
X-69723Y-32090D01*
X-68823Y-32463D01*
X-67857Y-32590D01*
Y-32586D01*
X-66101D01*
X-65854Y-33086D01*
X-66089Y-33392D01*
X-66462Y-34292D01*
X-66589Y-35258D01*
X-66585D01*
Y-38594D01*
X-66585Y-38594D01*
X-66476Y-39140D01*
X-66167Y-39603D01*
X-64899Y-40872D01*
X-64899Y-40872D01*
X-63447Y-42323D01*
X-62984Y-42633D01*
X-62437Y-42742D01*
X-62437Y-42742D01*
X-57785D01*
X-57683Y-43255D01*
X-57196Y-43983D01*
X-56469Y-44469D01*
X-55610Y-44640D01*
X-54752Y-44469D01*
X-54024Y-43983D01*
X-53538Y-43255D01*
X-53367Y-42397D01*
X-53538Y-41539D01*
X-53928Y-40955D01*
X-53989Y-40614D01*
X-53928Y-40274D01*
X-53538Y-39690D01*
X-53367Y-38831D01*
X-53538Y-37973D01*
X-54024Y-37245D01*
X-54752Y-36759D01*
X-55610Y-36588D01*
X-56469Y-36759D01*
X-57196Y-37245D01*
X-57683Y-37973D01*
X-57785Y-38487D01*
X-61266D01*
X-62330Y-37423D01*
Y-35786D01*
X-61058D01*
Y-35790D01*
X-60092Y-35663D01*
X-59192Y-35290D01*
X-58419Y-34697D01*
X-57825Y-33924D01*
X-57453Y-33024D01*
X-57326Y-32058D01*
X-57453Y-31092D01*
X-57825Y-30192D01*
X-58419Y-29419D01*
X-59192Y-28826D01*
X-60092Y-28454D01*
X-61058Y-28326D01*
Y-28331D01*
X-62814D01*
X-63061Y-27831D01*
X-62826Y-27524D01*
X-62453Y-26624D01*
X-62326Y-25658D01*
X-62330D01*
Y-21358D01*
Y-19356D01*
X-59622Y-16648D01*
X-59622Y-16648D01*
X-59313Y-16185D01*
X-59204Y-15639D01*
Y-12628D01*
X-58590Y-12505D01*
X-57954Y-12080D01*
X-57628Y-12045D01*
X-57302Y-12080D01*
X-56665Y-12505D01*
X-55807Y-12676D01*
X-54949Y-12505D01*
X-54221Y-12019D01*
X-53735Y-11292D01*
X-53564Y-10433D01*
X-53735Y-9575D01*
X-54221Y-8847D01*
X-54949Y-8361D01*
X-55807Y-8190D01*
D02*
G37*
G36*
X56024Y-10414D02*
X55165Y-10585D01*
X54438Y-11072D01*
X54400Y-11128D01*
X47648D01*
X47610Y-11072D01*
X46882Y-10585D01*
X46024Y-10414D01*
X45165Y-10585D01*
X44438Y-11072D01*
X43951Y-11799D01*
X43781Y-12658D01*
X43951Y-13516D01*
X44438Y-14244D01*
X45165Y-14730D01*
X46024Y-14901D01*
X46882Y-14730D01*
X47610Y-14244D01*
X47648Y-14187D01*
X48851D01*
X49087Y-14628D01*
X48912Y-14890D01*
X48741Y-15748D01*
X48912Y-16606D01*
X49398Y-17334D01*
X50126Y-17820D01*
X50984Y-17991D01*
X51843Y-17820D01*
X52570Y-17334D01*
X52608Y-17277D01*
X59400D01*
X59438Y-17334D01*
X60165Y-17820D01*
X61024Y-17991D01*
X61882Y-17820D01*
X62610Y-17334D01*
X63096Y-16606D01*
X63267Y-15748D01*
X63096Y-14890D01*
X62610Y-14162D01*
X61882Y-13676D01*
X61024Y-13505D01*
X60165Y-13676D01*
X59438Y-14162D01*
X59400Y-14219D01*
X58157D01*
X57921Y-13778D01*
X58096Y-13516D01*
X58267Y-12658D01*
X58096Y-11799D01*
X57610Y-11072D01*
X56882Y-10585D01*
X56024Y-10414D01*
D02*
G37*
G36*
X64272Y-19509D02*
X63413Y-19680D01*
X62686Y-20166D01*
X62648Y-20223D01*
X44636D01*
X44598Y-20166D01*
X43870Y-19680D01*
X43012Y-19509D01*
X42153Y-19680D01*
X41426Y-20166D01*
X40940Y-20894D01*
X40769Y-21752D01*
X40940Y-22610D01*
X41426Y-23338D01*
X42153Y-23824D01*
X43012Y-23995D01*
X43870Y-23824D01*
X44598Y-23338D01*
X44636Y-23281D01*
X48070D01*
X48306Y-23722D01*
X48223Y-23846D01*
X48052Y-24705D01*
X48223Y-25563D01*
X48709Y-26291D01*
X49437Y-26777D01*
X50295Y-26948D01*
X51154Y-26777D01*
X51881Y-26291D01*
X51919Y-26234D01*
X69445D01*
X71896Y-28685D01*
Y-39665D01*
X72012Y-40251D01*
X72344Y-40747D01*
X75887Y-44290D01*
X76383Y-44622D01*
X76968Y-44738D01*
X82628D01*
X82666Y-44795D01*
X83394Y-45281D01*
X84252Y-45452D01*
X85110Y-45281D01*
X85838Y-44795D01*
X86324Y-44067D01*
X86495Y-43209D01*
X86324Y-42350D01*
X85838Y-41623D01*
X85110Y-41136D01*
X84252Y-40966D01*
X83394Y-41136D01*
X82666Y-41623D01*
X82628Y-41679D01*
X77602D01*
X74955Y-39032D01*
Y-28051D01*
X74838Y-27466D01*
X74507Y-26970D01*
X71160Y-23623D01*
X70664Y-23292D01*
X70079Y-23175D01*
X66497D01*
X66261Y-22734D01*
X66344Y-22610D01*
X66515Y-21752D01*
X66344Y-20894D01*
X65858Y-20166D01*
X65130Y-19680D01*
X64272Y-19509D01*
D02*
G37*
G36*
X-59201Y-20690D02*
X-60059Y-20861D01*
X-60787Y-21347D01*
X-61273Y-22075D01*
X-61444Y-22933D01*
X-61273Y-23791D01*
X-60787Y-24519D01*
X-60059Y-25005D01*
X-59201Y-25176D01*
X-58342Y-25005D01*
X-57615Y-24519D01*
X-57128Y-23791D01*
X-56958Y-22933D01*
X-57128Y-22075D01*
X-57615Y-21347D01*
X-58342Y-20861D01*
X-59201Y-20690D01*
D02*
G37*
G36*
X-95197Y-31143D02*
X-96055Y-31313D01*
X-96131Y-31364D01*
X-110044D01*
X-110067Y-31349D01*
X-110925Y-31178D01*
X-111784Y-31349D01*
X-112511Y-31835D01*
X-112998Y-32563D01*
X-113168Y-33421D01*
X-112998Y-34280D01*
X-112511Y-35007D01*
X-111784Y-35494D01*
X-110925Y-35664D01*
X-110067Y-35494D01*
X-109991Y-35443D01*
X-96078D01*
X-96055Y-35458D01*
X-95197Y-35629D01*
X-94339Y-35458D01*
X-93611Y-34972D01*
X-93125Y-34244D01*
X-92954Y-33386D01*
X-93125Y-32527D01*
X-93611Y-31800D01*
X-94339Y-31313D01*
X-95197Y-31143D01*
D02*
G37*
G36*
X106299Y-26891D02*
X105441Y-27062D01*
X104713Y-27548D01*
X104227Y-28275D01*
X104056Y-29134D01*
X104227Y-29992D01*
X104713Y-30720D01*
X105441Y-31206D01*
X106299Y-31377D01*
X107158Y-31206D01*
X107885Y-30720D01*
X108372Y-29992D01*
X108542Y-29134D01*
X108372Y-28275D01*
X107885Y-27548D01*
X107158Y-27062D01*
X106299Y-26891D01*
D02*
G37*
G36*
X145866Y-30970D02*
X145008Y-31140D01*
X144280Y-31626D01*
X143794Y-32354D01*
X143623Y-33213D01*
X143794Y-34071D01*
X144280Y-34799D01*
X145008Y-35285D01*
X145866Y-35456D01*
X146724Y-35285D01*
X147452Y-34799D01*
X147939Y-34071D01*
X148109Y-33213D01*
X147939Y-32354D01*
X147452Y-31626D01*
X146724Y-31140D01*
X145866Y-30970D01*
D02*
G37*
G36*
X84153Y-33001D02*
X83295Y-33172D01*
X82567Y-33658D01*
X82081Y-34386D01*
X81910Y-35244D01*
X82081Y-36103D01*
X82567Y-36830D01*
X83295Y-37316D01*
X84153Y-37487D01*
X85012Y-37316D01*
X85740Y-36830D01*
X86226Y-36103D01*
X86397Y-35244D01*
X86226Y-34386D01*
X85740Y-33658D01*
X85012Y-33172D01*
X84153Y-33001D01*
D02*
G37*
G36*
X-95197Y-39096D02*
X-96055Y-39266D01*
X-96105Y-39299D01*
X-110017D01*
X-110067Y-39266D01*
X-110925Y-39096D01*
X-111784Y-39266D01*
X-112511Y-39753D01*
X-112998Y-40480D01*
X-113168Y-41339D01*
X-112998Y-42197D01*
X-112511Y-42925D01*
X-111784Y-43411D01*
X-110925Y-43582D01*
X-110067Y-43411D01*
X-110017Y-43378D01*
X-96105D01*
X-96055Y-43411D01*
X-95197Y-43582D01*
X-94339Y-43411D01*
X-93611Y-42925D01*
X-93125Y-42197D01*
X-92954Y-41339D01*
X-93125Y-40480D01*
X-93611Y-39753D01*
X-94339Y-39266D01*
X-95197Y-39096D01*
D02*
G37*
G36*
X114051Y-37150D02*
X113193Y-37321D01*
X112465Y-37808D01*
X111979Y-38535D01*
X111808Y-39394D01*
X111979Y-40252D01*
X112465Y-40980D01*
X113193Y-41466D01*
X114051Y-41637D01*
X114910Y-41466D01*
X114959Y-41433D01*
X131966D01*
X132016Y-41466D01*
X132874Y-41637D01*
X133732Y-41466D01*
X134460Y-40980D01*
X134946Y-40252D01*
X135117Y-39394D01*
X134946Y-38535D01*
X134460Y-37808D01*
X133732Y-37321D01*
X132874Y-37150D01*
X132016Y-37321D01*
X131966Y-37354D01*
X114959D01*
X114910Y-37321D01*
X114051Y-37150D01*
D02*
G37*
G36*
X2461Y-40277D02*
X1602Y-40447D01*
X874Y-40934D01*
X388Y-41661D01*
X218Y-42520D01*
X388Y-43378D01*
X874Y-44106D01*
X1602Y-44592D01*
X2461Y-44763D01*
X3319Y-44592D01*
X4047Y-44106D01*
X4533Y-43378D01*
X4704Y-42520D01*
X4533Y-41661D01*
X4047Y-40934D01*
X3319Y-40447D01*
X2461Y-40277D01*
D02*
G37*
G36*
X96752Y-42147D02*
X95894Y-42317D01*
X95166Y-42804D01*
X94680Y-43531D01*
X94509Y-44390D01*
X94680Y-45248D01*
X95166Y-45976D01*
X95894Y-46462D01*
X96752Y-46633D01*
X97610Y-46462D01*
X98338Y-45976D01*
X98824Y-45248D01*
X98995Y-44390D01*
X98824Y-43531D01*
X98338Y-42804D01*
X97610Y-42317D01*
X96752Y-42147D01*
D02*
G37*
G36*
X126476Y-50217D02*
X125618Y-50388D01*
X124890Y-50875D01*
X124784Y-51033D01*
X122558D01*
X122452Y-50875D01*
X121724Y-50388D01*
X120866Y-50217D01*
X120008Y-50388D01*
X119280Y-50875D01*
X118794Y-51602D01*
X118623Y-52461D01*
X118794Y-53319D01*
X119280Y-54047D01*
X120008Y-54533D01*
X120866Y-54704D01*
X121724Y-54533D01*
X122452Y-54047D01*
X122558Y-53888D01*
X124784D01*
X124890Y-54047D01*
X125618Y-54533D01*
X126476Y-54704D01*
X127335Y-54533D01*
X128062Y-54047D01*
X128549Y-53319D01*
X128719Y-52461D01*
X128549Y-51602D01*
X128062Y-50875D01*
X127335Y-50388D01*
X126476Y-50217D01*
D02*
G37*
G36*
X134878Y-47107D02*
X133988Y-47284D01*
X133235Y-47788D01*
X132731Y-48542D01*
X132554Y-49431D01*
X132731Y-50321D01*
X133235Y-51074D01*
X133988Y-51578D01*
X134878Y-51755D01*
X135767Y-51578D01*
X136521Y-51074D01*
X137025Y-50321D01*
X137202Y-49431D01*
X137025Y-48542D01*
X136521Y-47788D01*
X135767Y-47284D01*
X134878Y-47107D01*
D02*
G37*
G36*
X112122D02*
X111232Y-47284D01*
X110478Y-47788D01*
X109975Y-48542D01*
X109798Y-49431D01*
X109975Y-50321D01*
X110478Y-51074D01*
X111232Y-51578D01*
X112122Y-51755D01*
X113011Y-51578D01*
X113765Y-51074D01*
X114269Y-50321D01*
X114446Y-49431D01*
X114269Y-48542D01*
X113765Y-47788D01*
X113011Y-47284D01*
X112122Y-47107D01*
D02*
G37*
G36*
X86663Y-168D02*
X85805Y-339D01*
X85077Y-825D01*
X84591Y-1553D01*
X84420Y-2411D01*
X84591Y-3270D01*
X85077Y-3997D01*
X85805Y-4484D01*
X86663Y-4654D01*
X86730Y-4641D01*
X88136Y-6047D01*
Y-48382D01*
X81551Y-54967D01*
X53396D01*
X53358Y-54910D01*
X52630Y-54424D01*
X51772Y-54253D01*
X50913Y-54424D01*
X50186Y-54910D01*
X49699Y-55638D01*
X49529Y-56496D01*
X49699Y-57354D01*
X50186Y-58082D01*
X50913Y-58568D01*
X51772Y-58739D01*
X52630Y-58568D01*
X53358Y-58082D01*
X53396Y-58025D01*
X82185D01*
X82770Y-57909D01*
X83267Y-57578D01*
X90747Y-50097D01*
X91078Y-49601D01*
X91195Y-49016D01*
Y-5413D01*
X91078Y-4828D01*
X90747Y-4332D01*
X88893Y-2478D01*
X88907Y-2411D01*
X88736Y-1553D01*
X88249Y-825D01*
X87522Y-339D01*
X86663Y-168D01*
D02*
G37*
G36*
X-67421Y-61466D02*
X-68453Y-61602D01*
X-69415Y-62000D01*
X-70240Y-62634D01*
X-70874Y-63459D01*
X-71088Y-63975D01*
X-71629D01*
X-71843Y-63459D01*
X-72476Y-62634D01*
X-73302Y-62000D01*
X-74263Y-61602D01*
X-75295Y-61466D01*
X-76327Y-61602D01*
X-77289Y-62000D01*
X-78114Y-62634D01*
X-78716Y-63418D01*
X-78772Y-63419D01*
X-79216Y-63083D01*
Y-61500D01*
X-87122D01*
Y-69406D01*
X-79216D01*
Y-67822D01*
X-78772Y-67487D01*
X-78716Y-67487D01*
X-78114Y-68272D01*
X-77289Y-68906D01*
X-76327Y-69304D01*
X-75295Y-69440D01*
X-74263Y-69304D01*
X-73302Y-68906D01*
X-72476Y-68272D01*
X-71843Y-67446D01*
X-71629Y-66930D01*
X-71088D01*
X-70874Y-67446D01*
X-70240Y-68272D01*
X-69415Y-68906D01*
X-68453Y-69304D01*
X-67421Y-69440D01*
X-66389Y-69304D01*
X-65428Y-68906D01*
X-64602Y-68272D01*
X-63968Y-67446D01*
X-63570Y-66485D01*
X-63434Y-65453D01*
X-63570Y-64421D01*
X-63968Y-63459D01*
X-64602Y-62634D01*
X-65428Y-62000D01*
X-66389Y-61602D01*
X-67421Y-61466D01*
D02*
G37*
G36*
X98980Y-65930D02*
X98122Y-66101D01*
X97394Y-66587D01*
X96908Y-67315D01*
X96737Y-68173D01*
X96908Y-69032D01*
X97394Y-69759D01*
X98122Y-70246D01*
X98980Y-70416D01*
X99839Y-70246D01*
X100566Y-69759D01*
X101053Y-69032D01*
X101223Y-68173D01*
X101053Y-67315D01*
X100566Y-66587D01*
X99839Y-66101D01*
X98980Y-65930D01*
D02*
G37*
G36*
X59252Y-66261D02*
X58394Y-66432D01*
X57666Y-66918D01*
X57180Y-67646D01*
X57009Y-68504D01*
X57180Y-69362D01*
X57666Y-70090D01*
X58394Y-70576D01*
X59252Y-70747D01*
X60110Y-70576D01*
X60838Y-70090D01*
X61324Y-69362D01*
X61495Y-68504D01*
X61324Y-67646D01*
X60838Y-66918D01*
X60110Y-66432D01*
X59252Y-66261D01*
D02*
G37*
G36*
X23130D02*
X22272Y-66432D01*
X21544Y-66918D01*
X21058Y-67646D01*
X20887Y-68504D01*
X21058Y-69362D01*
X21544Y-70090D01*
X22272Y-70576D01*
X23130Y-70747D01*
X23988Y-70576D01*
X24716Y-70090D01*
X25202Y-69362D01*
X25373Y-68504D01*
X25202Y-67646D01*
X24716Y-66918D01*
X23988Y-66432D01*
X23130Y-66261D01*
D02*
G37*
%LPD*%
G36*
X-22833Y8761D02*
X-22337Y8429D01*
X-21752Y8313D01*
X-6604D01*
X-6566Y8256D01*
X-6565Y8256D01*
X-6530Y7694D01*
X-6804Y7435D01*
X-41929D01*
Y8696D01*
X-41832Y8761D01*
X-38737Y11856D01*
X-25929D01*
X-22833Y8761D01*
D02*
G37*
G36*
X-6566Y382D02*
X-6565Y382D01*
X-6530Y-180D01*
X-6804Y-439D01*
X-22047D01*
X-22633Y-556D01*
X-23129Y-887D01*
X-26322Y-4081D01*
X-38540D01*
X-41479Y-1142D01*
X-41831Y-787D01*
Y439D01*
X-6604D01*
X-6566Y382D01*
D02*
G37*
%LPC*%
G36*
X-95840Y86207D02*
X-95881D01*
X-95923Y86199D01*
X-95985Y86193D01*
X-96055Y86179D01*
X-96138Y86158D01*
X-96221Y86130D01*
X-96305Y86095D01*
X-96395Y86047D01*
X-96478Y85984D01*
X-96561Y85908D01*
X-96631Y85825D01*
X-96693Y85721D01*
X-96735Y85596D01*
X-96763Y85457D01*
X-96777Y85297D01*
Y85290D01*
Y85256D01*
X-96770Y85214D01*
X-96763Y85158D01*
X-96749Y85089D01*
X-96728Y85013D01*
X-96700Y84930D01*
X-96659Y84846D01*
X-96610Y84756D01*
X-96548Y84673D01*
X-96471Y84596D01*
X-96381Y84534D01*
X-96277Y84471D01*
X-96152Y84430D01*
X-96013Y84402D01*
X-95847Y84388D01*
X-95805D01*
X-95777Y84395D01*
X-95708Y84402D01*
X-95618Y84416D01*
X-95513Y84444D01*
X-95409Y84485D01*
X-95305Y84548D01*
X-95215Y84624D01*
X-95208Y84638D01*
X-95180Y84666D01*
X-95139Y84721D01*
X-95097Y84798D01*
X-95056Y84888D01*
X-95014Y85006D01*
X-94986Y85138D01*
X-94979Y85290D01*
Y85304D01*
Y85332D01*
X-94986Y85374D01*
X-94993Y85436D01*
X-95007Y85505D01*
X-95028Y85582D01*
X-95048Y85665D01*
X-95083Y85748D01*
X-95132Y85832D01*
X-95187Y85915D01*
X-95257Y85991D01*
X-95340Y86061D01*
X-95437Y86123D01*
X-95555Y86165D01*
X-95687Y86199D01*
X-95840Y86207D01*
D02*
G37*
G36*
X-88122Y88052D02*
X-88164D01*
X-88199Y88046D01*
X-88240D01*
X-88289Y88039D01*
X-88400Y88011D01*
X-88525Y87969D01*
X-88664Y87914D01*
X-88802Y87830D01*
X-88872Y87775D01*
X-88941Y87719D01*
X-88948Y87713D01*
X-88955Y87705D01*
X-88976Y87685D01*
X-89004Y87657D01*
X-89031Y87622D01*
X-89066Y87581D01*
X-89108Y87532D01*
X-89149Y87476D01*
X-89191Y87407D01*
X-89233Y87338D01*
X-89281Y87261D01*
X-89323Y87178D01*
X-89406Y86984D01*
X-89483Y86769D01*
X-89469D01*
X-89441Y86762D01*
X-89385D01*
X-89323Y86755D01*
X-89240Y86748D01*
X-89149D01*
X-89052Y86741D01*
X-88879D01*
X-88823Y86748D01*
X-88754D01*
X-88678Y86755D01*
X-88580Y86762D01*
X-88476Y86769D01*
X-88358Y86782D01*
X-88226Y86796D01*
X-88088Y86817D01*
X-87942Y86838D01*
X-87782Y86866D01*
X-87616Y86893D01*
X-87442Y86928D01*
X-87262Y86970D01*
Y86977D01*
Y86991D01*
X-87269Y87019D01*
Y87053D01*
X-87276Y87095D01*
X-87283Y87143D01*
X-87304Y87254D01*
X-87338Y87386D01*
X-87387Y87518D01*
X-87449Y87643D01*
X-87526Y87761D01*
X-87539Y87775D01*
X-87567Y87810D01*
X-87616Y87851D01*
X-87685Y87907D01*
X-87775Y87962D01*
X-87880Y88004D01*
X-87990Y88039D01*
X-88122Y88052D01*
D02*
G37*
G36*
X-107422Y87657D02*
X-107499D01*
X-107554Y87650D01*
X-107624Y87643D01*
X-107700Y87629D01*
X-107867Y87587D01*
X-107957Y87560D01*
X-108047Y87525D01*
X-108137Y87483D01*
X-108221Y87428D01*
X-108297Y87365D01*
X-108359Y87296D01*
X-108422Y87213D01*
X-108464Y87116D01*
Y86762D01*
Y86755D01*
Y86727D01*
Y86678D01*
Y86616D01*
Y86546D01*
Y86456D01*
Y86359D01*
X-108470Y86248D01*
Y86123D01*
Y85998D01*
X-108477Y85721D01*
X-108491Y85422D01*
X-108505Y85124D01*
X-108498D01*
X-108484Y85117D01*
X-108457Y85103D01*
X-108429Y85089D01*
X-108387Y85075D01*
X-108332Y85054D01*
X-108214Y85013D01*
X-108075Y84971D01*
X-107915Y84936D01*
X-107749Y84909D01*
X-107568Y84902D01*
X-107506D01*
X-107464Y84909D01*
X-107416Y84916D01*
X-107353Y84923D01*
X-107214Y84943D01*
X-107062Y84985D01*
X-106902Y85054D01*
X-106826Y85089D01*
X-106749Y85138D01*
X-106680Y85193D01*
X-106611Y85256D01*
X-106604Y85263D01*
X-106597Y85270D01*
X-106576Y85290D01*
X-106555Y85318D01*
X-106534Y85360D01*
X-106500Y85401D01*
X-106472Y85457D01*
X-106437Y85513D01*
X-106409Y85582D01*
X-106375Y85658D01*
X-106347Y85742D01*
X-106326Y85832D01*
X-106298Y85929D01*
X-106284Y86033D01*
X-106277Y86151D01*
X-106271Y86269D01*
Y86276D01*
Y86297D01*
Y86331D01*
X-106277Y86380D01*
Y86436D01*
X-106284Y86498D01*
X-106298Y86567D01*
X-106305Y86644D01*
X-106347Y86810D01*
X-106402Y86977D01*
X-106472Y87143D01*
X-106520Y87220D01*
X-106576Y87289D01*
Y87296D01*
X-106590Y87303D01*
X-106611Y87324D01*
X-106631Y87345D01*
X-106701Y87407D01*
X-106798Y87476D01*
X-106916Y87539D01*
X-107062Y87601D01*
X-107228Y87643D01*
X-107325Y87650D01*
X-107422Y87657D01*
D02*
G37*
G36*
X-111927Y88087D02*
X-111982D01*
X-112051Y88073D01*
X-112135Y88060D01*
X-112239Y88039D01*
X-112350Y88004D01*
X-112475Y87948D01*
X-112600Y87886D01*
X-112725Y87796D01*
X-112850Y87692D01*
X-112961Y87560D01*
X-113016Y87483D01*
X-113065Y87400D01*
X-113106Y87310D01*
X-113148Y87213D01*
X-113183Y87109D01*
X-113217Y86998D01*
X-113238Y86873D01*
X-113259Y86741D01*
X-113266Y86602D01*
X-113273Y86456D01*
Y86449D01*
Y86422D01*
Y86387D01*
X-113266Y86331D01*
Y86269D01*
X-113259Y86199D01*
X-113245Y86116D01*
X-113238Y86033D01*
X-113204Y85846D01*
X-113148Y85651D01*
X-113079Y85471D01*
X-113030Y85381D01*
X-112981Y85304D01*
X-112975Y85297D01*
X-112968Y85290D01*
X-112954Y85270D01*
X-112926Y85242D01*
X-112864Y85179D01*
X-112766Y85103D01*
X-112648Y85027D01*
X-112503Y84964D01*
X-112419Y84936D01*
X-112336Y84923D01*
X-112239Y84909D01*
X-112142Y84902D01*
X-112072D01*
X-112024Y84909D01*
X-111961Y84916D01*
X-111892Y84923D01*
X-111816Y84936D01*
X-111732Y84957D01*
X-111552Y85006D01*
X-111462Y85040D01*
X-111371Y85082D01*
X-111274Y85131D01*
X-111191Y85193D01*
X-111101Y85256D01*
X-111024Y85332D01*
X-111018Y85339D01*
X-111004Y85353D01*
X-110990Y85381D01*
X-110962Y85415D01*
X-110927Y85457D01*
X-110892Y85513D01*
X-110858Y85575D01*
X-110816Y85651D01*
X-110782Y85728D01*
X-110747Y85818D01*
X-110712Y85922D01*
X-110677Y86026D01*
X-110650Y86144D01*
X-110636Y86269D01*
X-110622Y86408D01*
X-110615Y86546D01*
Y86554D01*
Y86581D01*
Y86616D01*
X-110622Y86664D01*
X-110629Y86727D01*
X-110636Y86796D01*
X-110643Y86873D01*
X-110657Y86956D01*
X-110698Y87143D01*
X-110761Y87331D01*
X-110802Y87421D01*
X-110851Y87511D01*
X-110906Y87594D01*
X-110969Y87678D01*
X-110976Y87685D01*
X-110983Y87699D01*
X-111004Y87713D01*
X-111031Y87740D01*
X-111066Y87775D01*
X-111108Y87810D01*
X-111163Y87844D01*
X-111219Y87886D01*
X-111281Y87921D01*
X-111357Y87955D01*
X-111517Y88025D01*
X-111614Y88052D01*
X-111712Y88066D01*
X-111816Y88080D01*
X-111927Y88087D01*
D02*
G37*
%LPD*%
D17*
X28469Y48800D02*
G03*
X31069Y46200I2600J0D01*
G01*
X28469Y50200D02*
G03*
X26469Y50200I-1000J0D01*
G01*
X21269Y44850D02*
G03*
X26469Y44850I2600J0D01*
G01*
X21269Y50200D02*
G03*
X19269Y50200I-1000J0D01*
G01*
X14069Y44850D02*
G03*
X19269Y44850I2600J0D01*
G01*
X14069Y50200D02*
G03*
X12069Y50200I-1000J0D01*
G01*
X9469Y46200D02*
G03*
X12069Y48800I0J2600D01*
G01*
X30069D02*
G03*
X31069Y47800I1000J0D01*
G01*
X30069Y50200D02*
G03*
X24869Y50200I-2600J0D01*
G01*
X22869Y44850D02*
G03*
X24869Y44850I1000J0D01*
G01*
X22869Y50200D02*
G03*
X17669Y50200I-2600J0D01*
G01*
X15669Y44850D02*
G03*
X17669Y44850I1000J0D01*
G01*
X15669Y50200D02*
G03*
X10469Y50200I-2600J0D01*
G01*
X9469Y47800D02*
G03*
X10469Y48800I0J1000D01*
G01*
X19300Y-33490D02*
G03*
X18300Y-34490I0J-1000D01*
G01*
X13100Y-38943D02*
G03*
X18300Y-38943I2600J0D01*
G01*
X13100Y-29533D02*
G03*
X11100Y-29533I-1000J0D01*
G01*
X5900Y-38943D02*
G03*
X11100Y-38943I2600J0D01*
G01*
X5900Y-28490D02*
G03*
X3900Y-28490I-1000J0D01*
G01*
X1300Y-33490D02*
G03*
X3900Y-30890I0J2600D01*
G01*
X19300Y-31890D02*
G03*
X16700Y-34490I0J-2600D01*
G01*
X14700Y-38943D02*
G03*
X16700Y-38943I1000J0D01*
G01*
X14700Y-29533D02*
G03*
X9500Y-29533I-2600J0D01*
G01*
X7500Y-38943D02*
G03*
X9500Y-38943I1000J0D01*
G01*
X7500Y-28490D02*
G03*
X2300Y-28490I-2600J0D01*
G01*
X1300Y-31890D02*
G03*
X2300Y-30890I0J1000D01*
G01*
X56724Y26796D02*
G03*
X59324Y29396I0J2600D01*
G01*
X54324Y26796D02*
G03*
X54324Y24796I0J-1000D01*
G01*
X62724Y19596D02*
G03*
X62724Y24796I0J2600D01*
G01*
X54324Y19596D02*
G03*
X54324Y17596I0J-1000D01*
G01*
X62724Y12396D02*
G03*
X62724Y17596I0J2600D01*
G01*
X54324Y12396D02*
G03*
X54324Y10396I0J-1000D01*
G01*
X59324Y7796D02*
G03*
X56724Y10396I-2600J0D01*
G01*
Y28396D02*
G03*
X57724Y29396I0J1000D01*
G01*
X54324Y28396D02*
G03*
X54324Y23196I0J-2600D01*
G01*
X62724Y21196D02*
G03*
X62724Y23196I0J1000D01*
G01*
X54324Y21196D02*
G03*
X54324Y15996I0J-2600D01*
G01*
X62724Y13996D02*
G03*
X62724Y15996I0J1000D01*
G01*
X54324Y13996D02*
G03*
X54324Y8796I0J-2600D01*
G01*
X57724Y7796D02*
G03*
X56724Y8796I-1000J0D01*
G01*
X-111024Y1969D02*
X-4980D01*
X-111024Y5906D02*
X-5020D01*
X-111024Y-1969D02*
X-42815D01*
X-39173Y-5610D01*
X-25689D01*
X-111024Y13780D02*
X-43602D01*
X-40059Y17323D02*
X-24606D01*
X-43602Y13780D02*
X-40059Y17323D01*
X-21063Y13780D02*
X-4980D01*
X-24606Y17323D02*
X-21063Y13780D01*
X-39370Y13386D02*
X-25295D01*
X-21752Y9843D01*
X-4980D01*
X-42913D02*
X-39370Y13386D01*
X-25689Y-5610D02*
X-22047Y-1969D01*
X-43504Y-5906D02*
X-40157Y-9252D01*
X-24902D02*
X-21555Y-5906D01*
X-40157Y-9252D02*
X-24902D01*
X-111024Y-5906D02*
X-43504D01*
X-22047Y-1969D02*
X-5020D01*
X-21555Y-5906D02*
X-5020D01*
X-111024Y9843D02*
X-42913D01*
X-5020Y-5906D02*
X-5020Y-5906D01*
X6102Y-23425D02*
Y-1476D01*
X0Y-12500D02*
Y32500D01*
X-5000Y-17500D02*
X0Y-12500D01*
X-6000Y38500D02*
X0Y32500D01*
X31069Y46200D02*
X34350D01*
X28469Y48800D02*
Y50200D01*
X26469Y44850D02*
Y50200D01*
X21269Y44850D02*
Y50200D01*
X19269Y44850D02*
Y50200D01*
X14069Y44850D02*
Y50200D01*
X12069Y48800D02*
Y50200D01*
X8169Y46200D02*
X9469D01*
X31069Y47800D02*
X34350D01*
X30069Y48800D02*
Y50200D01*
X24869Y44850D02*
Y50200D01*
X22869Y44850D02*
Y50200D01*
X17669Y44850D02*
Y50200D01*
X15669Y44850D02*
Y50200D01*
X10469Y48800D02*
Y50200D01*
X8169Y47800D02*
X9469D01*
X34350Y46200D02*
X34449D01*
X6201D02*
X8169D01*
X34350Y47800D02*
X34449D01*
X6201D02*
X8169D01*
X19300Y-33490D02*
X24409D01*
X18300Y-38943D02*
Y-34490D01*
X13100Y-38943D02*
Y-29533D01*
X11100Y-38943D02*
Y-29533D01*
X5900Y-38943D02*
Y-28490D01*
X3900Y-30890D02*
Y-28490D01*
X0Y-33490D02*
X1300D01*
X19300Y-31890D02*
X24409D01*
X16700Y-38943D02*
Y-34490D01*
X14700Y-38943D02*
Y-29533D01*
X9500Y-38943D02*
Y-29533D01*
X7500Y-38943D02*
Y-28490D01*
X2300Y-30890D02*
Y-28490D01*
X0Y-31890D02*
X1300D01*
X24409Y-33490D02*
X28813D01*
X-1819D02*
X0D01*
X24409Y-31890D02*
X28151D01*
X-1156D02*
X0D01*
X59324Y29396D02*
Y33760D01*
X54324Y26796D02*
X56724D01*
X54324Y24796D02*
X62724D01*
X54324Y19596D02*
X62724D01*
X54324Y17596D02*
X62724D01*
X54324Y12396D02*
X62724D01*
X54324Y10396D02*
X56724D01*
X59324Y6496D02*
Y7796D01*
X57724Y29396D02*
Y33760D01*
X54324Y28396D02*
X56724D01*
X54324Y23196D02*
X62724D01*
X54324Y21196D02*
X62724D01*
X54324Y15996D02*
X62724D01*
X54324Y13996D02*
X62724D01*
X54324Y8796D02*
X56724D01*
X57724Y6496D02*
Y7796D01*
X59324Y33760D02*
Y35335D01*
Y3715D02*
Y6496D01*
X57724Y33760D02*
Y35335D01*
Y4377D02*
Y6496D01*
X55832Y2486D02*
X57724Y4377D01*
X56495Y886D02*
X59324Y3715D01*
X40479Y2486D02*
X55832D01*
X37666Y-24638D02*
Y-2590D01*
X41142Y886D02*
X56495D01*
X37666Y-2590D02*
X41142Y886D01*
X36066Y-23975D02*
Y-1928D01*
X40479Y2486D01*
X28813Y-33490D02*
X37666Y-24638D01*
X28151Y-31890D02*
X36066Y-23975D01*
X-5793Y-23086D02*
X-2534Y-26346D01*
X-9627Y-23086D02*
X-5793D01*
X-2534Y-30512D02*
Y-26346D01*
Y-30512D02*
X-1156Y-31890D01*
X-11516Y-21198D02*
X-9627Y-23086D01*
X56024Y37034D02*
X57724Y35335D01*
X-6456Y-24686D02*
X-4134Y-27008D01*
Y-31174D02*
Y-27008D01*
Y-31174D02*
X-1819Y-33490D01*
X-9627Y-24686D02*
X-6456D01*
X59324Y35335D02*
X61024Y37034D01*
X-11516Y-26575D02*
X-9627Y-24686D01*
X34449Y47800D02*
X36284D01*
X37984Y49500D01*
X4181Y57868D02*
Y57972D01*
X3000Y56687D02*
X4181Y57868D01*
X3000Y50197D02*
X5397Y47800D01*
X6201D01*
X3000Y50197D02*
Y56687D01*
X36284Y46200D02*
X37984Y44500D01*
X34449Y46200D02*
X36284D01*
X1400Y49534D02*
X4734Y46200D01*
X219Y57868D02*
X1400Y56687D01*
X219Y57868D02*
Y57972D01*
X1400Y49534D02*
X1400Y49534D01*
X1400D02*
X1400D01*
X1400Y49534D02*
Y56687D01*
X4734Y46200D02*
X6201D01*
X115787Y57000D02*
X121346D01*
X113418Y59368D02*
X115787Y57000D01*
X112711Y59368D02*
X113418D01*
X112004Y58661D02*
X112711Y59368D01*
X112004Y57954D02*
Y58661D01*
Y57954D02*
X116291Y53667D01*
Y51634D02*
Y53667D01*
X114647Y49990D02*
X116291Y51634D01*
X112614Y49990D02*
X114647D01*
X108327Y54277D02*
X112614Y49990D01*
X107620Y54277D02*
X108327D01*
X106913Y53570D02*
X107620Y54277D01*
X106913Y52863D02*
Y53570D01*
Y52863D02*
X108311Y51465D01*
Y49311D02*
Y51465D01*
X107158Y48158D02*
X108311Y49311D01*
X116449Y58600D02*
X119746D01*
X114081Y60968D02*
X116449Y58600D01*
X112049Y60968D02*
X114081D01*
X110404Y59324D02*
X112049Y60968D01*
X110404Y57291D02*
Y59324D01*
Y57291D02*
X114691Y53004D01*
Y52297D02*
Y53004D01*
X113984Y51590D02*
X114691Y52297D01*
X113277Y51590D02*
X113984D01*
X108990Y55877D02*
X113277Y51590D01*
X106957Y55877D02*
X108990D01*
X105313Y54233D02*
X106957Y55877D01*
X105313Y52200D02*
Y54233D01*
Y52200D02*
X106711Y50802D01*
Y49974D02*
Y50802D01*
X106026Y49289D02*
X106711Y49974D01*
X121346Y57000D02*
X122000D01*
X105200Y46200D02*
X107158Y48158D01*
X119746Y58600D02*
X122000D01*
X104537Y47800D02*
X106026Y49289D01*
X97736Y46200D02*
X99803D01*
X96213Y47723D02*
X97736Y46200D01*
X96213Y47723D02*
Y51700D01*
X95713Y52200D02*
X96213Y51700D01*
X94713Y52200D02*
X95713D01*
X94213Y51700D02*
X94713Y52200D01*
X94213Y41637D02*
Y51700D01*
X92775Y40200D02*
X94213Y41637D01*
X90450Y40200D02*
X92775D01*
X89013Y41637D02*
X90450Y40200D01*
X89013Y41637D02*
Y51700D01*
X88513Y52200D02*
X89013Y51700D01*
X87513Y52200D02*
X88513D01*
X87013Y51700D02*
X87513Y52200D01*
X87013Y47723D02*
Y51700D01*
X85490Y46200D02*
X87013Y47723D01*
X83858Y46200D02*
X85490D01*
X98399Y47800D02*
X99803D01*
X97813Y48386D02*
X98399Y47800D01*
X97813Y48386D02*
Y52363D01*
X96376Y53800D02*
X97813Y52363D01*
X94050Y53800D02*
X96376D01*
X92613Y52363D02*
X94050Y53800D01*
X92613Y42300D02*
Y52363D01*
X92113Y41800D02*
X92613Y42300D01*
X91113Y41800D02*
X92113D01*
X90613Y42300D02*
X91113Y41800D01*
X90613Y42300D02*
Y52363D01*
X89175Y53800D02*
X90613Y52363D01*
X86850Y53800D02*
X89175D01*
X85413Y52363D02*
X86850Y53800D01*
X85413Y48386D02*
Y52363D01*
X84827Y47800D02*
X85413Y48386D01*
X83858Y47800D02*
X84827D01*
X99803Y46200D02*
X105200D01*
X77500D02*
X83858D01*
X99803Y47800D02*
X104537D01*
X77500D02*
X83858D01*
X-10630Y44783D02*
X-6496Y40650D01*
X85335D01*
X-10630Y44783D02*
Y57185D01*
X-22441Y60402D02*
X-13847D01*
X-10630Y57185D01*
X-25500Y38500D02*
X-6000D01*
X-70866Y33169D02*
Y38878D01*
X-70866Y38878D02*
X-70866Y38878D01*
X-38000Y-17500D02*
X-5000D01*
X-45500Y-25000D02*
X-38000Y-17500D01*
X-45500Y-52000D02*
Y-25000D01*
X76000Y49300D02*
X77500Y47800D01*
X76000Y44700D02*
X77500Y46200D01*
X122000Y58600D02*
X123500Y60100D01*
X122000Y57000D02*
X123500Y55500D01*
X51772Y-56496D02*
X82185D01*
X89665Y-49016D02*
Y-5413D01*
X82185Y-56496D02*
X89665Y-49016D01*
X86663Y-2411D02*
X89665Y-5413D01*
X50295Y-24705D02*
X70079D01*
X73425Y-39665D02*
Y-28051D01*
X70079Y-24705D02*
X73425Y-28051D01*
Y-39665D02*
X76968Y-43209D01*
X84252D01*
X43012Y-21752D02*
X64272D01*
X43645Y-40509D02*
X47047Y-37106D01*
X40987Y-40509D02*
X43645D01*
X40945Y-40551D02*
X40987Y-40509D01*
X47047Y-37106D02*
Y-34154D01*
X36417Y-31496D02*
X38484Y-29429D01*
X47047D01*
X9827Y-23425D02*
Y-1476D01*
X50984Y-15748D02*
X61024D01*
X46024Y-12658D02*
X56024D01*
D18*
X-62858Y-32958D02*
G03*
X-65158Y-35258I0J-2300D01*
G01*
X-61058Y-32958D02*
G03*
X-61058Y-31158I0J900D01*
G01*
X-67857Y-26558D02*
G03*
X-67857Y-31158I0J-2300D01*
G01*
X-66057Y-26558D02*
G03*
X-65158Y-25658I0J900D01*
G01*
X-62858Y-34358D02*
G03*
X-63757Y-35258I0J-900D01*
G01*
X-61058Y-34358D02*
G03*
X-61058Y-29758I0J2300D01*
G01*
X-67857Y-27958D02*
G03*
X-67857Y-29758I0J-900D01*
G01*
X-66057Y-27958D02*
G03*
X-63757Y-25658I0J2300D01*
G01*
X120866Y-52461D02*
X126476D01*
X-65158Y-38594D02*
X-63889Y-39862D01*
X-65158Y-38594D02*
Y-35258D01*
X-62858Y-32958D02*
X-61058D01*
X-67857Y-31158D02*
X-61058D01*
X-67857Y-26558D02*
X-66057D01*
X-65158Y-25658D02*
Y-21358D01*
X-61910Y-39862D02*
X-61909Y-39862D01*
X-63757Y-38014D02*
X-61909Y-39862D01*
X-63757Y-38014D02*
Y-35258D01*
X-62858Y-34358D02*
X-61058D01*
X-67857Y-29758D02*
X-61058D01*
X-67857Y-27958D02*
X-66057D01*
X-63757Y-25658D02*
Y-21358D01*
X-63889Y-39862D02*
X-62437Y-41314D01*
X-65158Y-21358D02*
Y-18185D01*
X-61909Y-39862D02*
X-61857Y-39914D01*
X-63757Y-21358D02*
Y-18765D01*
X-61857Y-39914D02*
X-56879D01*
X-63757Y-18765D02*
X-60632Y-15639D01*
X-65158Y-18185D02*
X-62032Y-15059D01*
X-55796Y-38831D02*
X-55610D01*
X-56879Y-39914D02*
X-55796Y-38831D01*
X-59449Y-10519D02*
Y-10433D01*
X-60632Y-11702D02*
X-59449Y-10519D01*
X-60632Y-15639D02*
Y-11702D01*
X-56879Y-41314D02*
X-55796Y-42397D01*
X-55610D01*
X-63214Y-10519D02*
X-62032Y-11702D01*
Y-15059D02*
Y-11702D01*
X-62437Y-41314D02*
X-56879D01*
X-63214Y-10519D02*
Y-10433D01*
D19*
X-145809Y-10526D02*
Y20825D01*
X-142618Y24016D02*
X-139370D01*
X-145809Y20825D02*
X-142618Y24016D01*
X-145809Y-10526D02*
X-138971Y-17364D01*
X-137894Y-14764D02*
X-96565D01*
X-138971Y-17364D02*
X-96524D01*
X-143209Y-9449D02*
Y17815D01*
Y-9449D02*
X-137894Y-14764D01*
X-143209Y17815D02*
X-141669Y19354D01*
X-139370D01*
X-93923Y-19965D02*
X-93815D01*
X-96524Y-17364D02*
X-93923Y-19965D01*
X-96565Y-14764D02*
X-94104Y-12303D01*
X-93996D01*
X-110925Y-41339D02*
X-95197D01*
X-110907Y-33404D02*
X-95215D01*
X-95197Y-33386D01*
X-110925Y-33421D02*
X-110907Y-33404D01*
X114051Y-39394D02*
X132874D01*
D20*
X112122Y-49431D02*
D03*
X134878D02*
D03*
D21*
X106492Y-63801D02*
D03*
X140508Y-63801D02*
D03*
D22*
X106492Y-47463D02*
D03*
X140508Y-47463D02*
D03*
D23*
X-83169Y-65453D02*
D03*
D24*
X-75295D02*
D03*
X-67421D02*
D03*
X-59547D02*
D03*
D25*
X65425Y-40453D02*
D03*
X60925Y-44953D02*
D03*
X56425Y-40453D02*
D03*
X60925Y-35953D02*
D03*
X56425D02*
D03*
D26*
X60925Y-40453D02*
D03*
X56425Y-44953D02*
D03*
X65425Y-35953D02*
D03*
Y-44953D02*
D03*
D27*
X-112303Y-61910D02*
D03*
X-122785D02*
D03*
X-133268D02*
D03*
X-120276Y-53347D02*
D03*
X-129823D02*
D03*
X-139370D02*
D03*
X-133760Y-45276D02*
D03*
X-144783D02*
D03*
X-129134Y-36811D02*
D03*
X-139813D02*
D03*
X-150492D02*
D03*
X-124655Y49705D02*
D03*
Y58366D02*
D03*
Y41043D02*
D03*
X-111417D02*
D03*
Y49705D02*
D03*
Y58366D02*
D03*
X-92224Y49705D02*
D03*
X-101870D02*
D03*
X-100984Y41043D02*
D03*
X-137894D02*
D03*
X-148524D02*
D03*
X-137894Y49705D02*
D03*
Y58366D02*
D03*
X-139370Y19354D02*
D03*
Y24016D02*
D03*
X144783Y-10039D02*
D03*
X143799Y69291D02*
D03*
X148917Y64862D02*
D03*
X126279Y34154D02*
D03*
X126575Y41831D02*
D03*
X135630D02*
D03*
X144685D02*
D03*
X107874Y-2854D02*
D03*
X98671D02*
D03*
Y6791D02*
D03*
Y34154D02*
D03*
Y25787D02*
D03*
X135482Y34154D02*
D03*
Y25787D02*
D03*
X117077Y-2854D02*
D03*
X126279D02*
D03*
X135482D02*
D03*
X144685D02*
D03*
X89468Y6791D02*
D03*
X135482D02*
D03*
X144685D02*
D03*
X89468Y16929D02*
D03*
X98671D02*
D03*
X135482D02*
D03*
X144685D02*
D03*
X89468Y25787D02*
D03*
X107874D02*
D03*
X117077D02*
D03*
X126279D02*
D03*
X144685D02*
D03*
X89468Y34154D02*
D03*
X107874D02*
D03*
X117077D02*
D03*
X144685D02*
D03*
X8790Y-70374D02*
D03*
X-1316D02*
D03*
X-11423D02*
D03*
X-21531D02*
D03*
X-31638D02*
D03*
X-41745D02*
D03*
X-51852D02*
D03*
X-61959D02*
D03*
X-72066D02*
D03*
X-82173D02*
D03*
X-92280D02*
D03*
X-102387D02*
D03*
X-112494D02*
D03*
X-122601D02*
D03*
X-132708D02*
D03*
X-142815D02*
D03*
X18898D02*
D03*
X-46798Y69488D02*
D03*
X-36556D02*
D03*
X-26314D02*
D03*
X-16072D02*
D03*
X-5830D02*
D03*
X4412D02*
D03*
X14654D02*
D03*
X24896D02*
D03*
X35138D02*
D03*
X-138976D02*
D03*
X-128734D02*
D03*
X-118492D02*
D03*
X-108250D02*
D03*
X-98008D02*
D03*
X-87766D02*
D03*
X-77524D02*
D03*
X-67282D02*
D03*
X-57040D02*
D03*
X162500Y-49409D02*
D03*
X155512D02*
D03*
X150394Y-53051D02*
D03*
X148327Y-57972D02*
D03*
Y-64026D02*
D03*
Y-70079D02*
D03*
X-148031Y57284D02*
D03*
X-155217Y48720D02*
D03*
X-162205D02*
D03*
X-169193D02*
D03*
X-150098Y52362D02*
D03*
X-148031Y63337D02*
D03*
Y69390D02*
D03*
X-170177Y-47736D02*
D03*
X-164124D02*
D03*
X-153150Y-49803D02*
D03*
X-149508Y-68898D02*
D03*
Y-61910D02*
D03*
Y-54921D02*
D03*
X-158071Y-47736D02*
D03*
X-164469Y-40846D02*
D03*
Y-30598D02*
D03*
Y-20349D02*
D03*
Y-10101D02*
D03*
Y148D02*
D03*
Y10396D02*
D03*
Y20645D02*
D03*
Y30893D02*
D03*
Y41142D02*
D03*
X169291Y-26181D02*
D03*
Y-48819D02*
D03*
Y-41273D02*
D03*
Y-33727D02*
D03*
X149606Y57579D02*
D03*
X74902Y-61614D02*
D03*
X72441Y-52362D02*
D03*
X96752Y-44390D02*
D03*
X-14469Y27657D02*
D03*
X-59646Y17126D02*
D03*
X-63681Y17224D02*
D03*
X-52362Y-35236D02*
D03*
X-109941Y23819D02*
D03*
X-30906Y42717D02*
D03*
X-31841Y9646D02*
D03*
X-26870D02*
D03*
X-36811D02*
D03*
X-26673Y-886D02*
D03*
X-31791D02*
D03*
X-36909D02*
D03*
X-55905Y35335D02*
D03*
X-64764Y38484D02*
D03*
X-85827Y38189D02*
D03*
X-5020Y-1969D02*
D03*
X-4980Y9843D02*
D03*
X-5020Y-5906D02*
D03*
Y5906D02*
D03*
X-4980Y13780D02*
D03*
Y1969D02*
D03*
X6102Y-1476D02*
D03*
X-111024Y5906D02*
D03*
X-11516Y-21198D02*
D03*
X56024Y37034D02*
D03*
X61024D02*
D03*
X-11516Y-26575D02*
D03*
X37984Y49500D02*
D03*
X4181Y57972D02*
D03*
X37984Y44500D02*
D03*
X219Y57972D02*
D03*
X76000Y44700D02*
D03*
Y49300D02*
D03*
X-22441Y60402D02*
D03*
X-15087Y43968D02*
D03*
X85335Y40650D02*
D03*
X-70866Y38878D02*
D03*
X-85728Y42421D02*
D03*
X-45500Y-52000D02*
D03*
X-25098Y-20141D02*
D03*
X-25500Y38500D02*
D03*
X123500Y60100D02*
D03*
Y55500D02*
D03*
X-83801Y18369D02*
D03*
X-89961Y20965D02*
D03*
X-55807Y-10433D02*
D03*
X-55610Y-38831D02*
D03*
Y-42397D02*
D03*
X-63214Y-10433D02*
D03*
X-59449D02*
D03*
X-98492Y23000D02*
D03*
X-111024Y-5906D02*
D03*
Y-1969D02*
D03*
Y1969D02*
D03*
Y9843D02*
D03*
Y13780D02*
D03*
X-52449Y30402D02*
D03*
X86663Y-2411D02*
D03*
X51772Y-56496D02*
D03*
X84252Y-43209D02*
D03*
X50295Y-24705D02*
D03*
X64272Y-21752D02*
D03*
X43012D02*
D03*
X40945Y-40551D02*
D03*
X36417Y-31496D02*
D03*
X-93815Y-19965D02*
D03*
X-93996Y-12303D02*
D03*
X-95197Y-41339D02*
D03*
X-110925D02*
D03*
Y-33421D02*
D03*
X-95197Y-33386D02*
D03*
X-15087Y32969D02*
D03*
X-70866Y33169D02*
D03*
X-3102Y60473D02*
D03*
X6102Y-23425D02*
D03*
X9827D02*
D03*
Y-1476D02*
D03*
X36374Y30752D02*
D03*
X114173Y67323D02*
D03*
X145866Y-33213D02*
D03*
X-59201Y-22933D02*
D03*
X-22441Y63748D02*
D03*
X-102067D02*
D03*
X2461Y-42520D02*
D03*
X18406Y11516D02*
D03*
X31532Y-14405D02*
D03*
X106299Y-29134D02*
D03*
X47047Y-29429D02*
D03*
X50984Y-15748D02*
D03*
X61024D02*
D03*
X56024Y-12658D02*
D03*
X46024D02*
D03*
X47047Y-34154D02*
D03*
X23130Y-68504D02*
D03*
X80020Y67421D02*
D03*
X0Y-25492D02*
D03*
X16043D02*
D03*
X13583Y-10138D02*
D03*
X16634Y-19488D02*
D03*
X84153Y-35244D02*
D03*
X59252Y-68504D02*
D03*
X126476Y-52461D02*
D03*
X120866D02*
D03*
X98980Y-68173D02*
D03*
X132874Y-39394D02*
D03*
X114051Y-39394D02*
D03*
M02*
