G04*
G04 #@! TF.GenerationSoftware,Altium Limited,Altium Designer,18.1.9 (240)*
G04*
G04 Layer_Physical_Order=4*
G04 Layer_Color=16711680*
%FSLAX25Y25*%
%MOIN*%
G70*
G01*
G75*
%ADD17C,0.01000*%
%ADD18C,0.00800*%
%ADD19C,0.02000*%
%ADD20C,0.05906*%
%ADD21R,0.05906X0.05906*%
%ADD22C,0.02559*%
%ADD23O,0.03937X0.07087*%
%ADD24O,0.03937X0.08268*%
%ADD25C,0.02400*%
%ADD26C,0.02598*%
%ADD27C,0.02598*%
%ADD37R,0.02559X0.02362*%
%ADD38R,0.06890X0.02992*%
%ADD39R,0.02362X0.02559*%
%ADD40R,0.01200X0.02400*%
%ADD41R,0.02400X0.01200*%
%ADD42R,0.13780X0.13780*%
%ADD43R,0.04528X0.02559*%
%ADD44R,0.03661X0.03858*%
%ADD45R,0.02362X0.05906*%
%ADD46R,0.01181X0.05906*%
%ADD47R,0.07378X0.13858*%
%ADD48R,0.04921X0.03937*%
%ADD49R,0.03937X0.07087*%
%ADD50R,0.02362X0.04331*%
%ADD51R,0.08661X0.02362*%
%ADD52R,0.02559X0.02756*%
%ADD53R,0.04921X0.02756*%
%ADD54R,0.03500X0.05900*%
%ADD55R,0.05900X0.03500*%
%ADD56R,0.03500X0.03500*%
%ADD57R,0.13780X0.13780*%
%ADD58O,0.01102X0.03543*%
%ADD59O,0.03543X0.01102*%
%ADD60R,0.04331X0.02362*%
%ADD61R,0.06000X0.06000*%
%ADD62R,0.03858X0.03661*%
%ADD63R,0.03000X0.01000*%
%ADD64R,0.04700X0.07500*%
%ADD65R,0.03937X0.07874*%
%ADD66R,0.01968X0.06299*%
%ADD67R,0.08268X0.11811*%
%ADD68R,0.11024X0.07087*%
%ADD69R,0.08661X0.02362*%
%ADD70R,0.02992X0.06890*%
G36*
X153248Y71777D02*
Y57972D01*
Y57265D01*
X153524Y55877D01*
X153787Y55243D01*
X153509Y54827D01*
X152559D01*
X151776Y54724D01*
X151046Y54422D01*
X150419Y53941D01*
X149939Y53314D01*
X149636Y52584D01*
X149533Y51801D01*
Y-19980D01*
X149636Y-20763D01*
X149939Y-21493D01*
X150419Y-22120D01*
X151046Y-22601D01*
X151776Y-22903D01*
X152559Y-23006D01*
X173668D01*
X173668Y-51378D01*
X159135D01*
X157747Y-51654D01*
X156439Y-52196D01*
X155262Y-52982D01*
X154262Y-53983D01*
X153475Y-55160D01*
X152934Y-56467D01*
X152657Y-57855D01*
Y-58563D01*
Y-71777D01*
X67080D01*
X66724Y-71429D01*
X66724Y-71277D01*
Y-65571D01*
X65933D01*
Y-64429D01*
X66724D01*
Y-58571D01*
X65405D01*
Y-57296D01*
X65867Y-57104D01*
X66733Y-57971D01*
X67230Y-58303D01*
X67815Y-58419D01*
X78599D01*
X80471Y-60291D01*
Y-62646D01*
X79720D01*
Y-67008D01*
X84280D01*
Y-66356D01*
X86221D01*
Y-67008D01*
X90780D01*
Y-66356D01*
X93221D01*
Y-70354D01*
X97780D01*
X97780Y-70354D01*
X98280Y-70277D01*
X98980Y-70416D01*
X99839Y-70246D01*
X100566Y-69759D01*
X101053Y-69032D01*
X101223Y-68173D01*
X101053Y-67315D01*
X100566Y-66587D01*
X99839Y-66101D01*
X98980Y-65930D01*
X98280Y-66070D01*
X97852Y-65817D01*
X97780Y-65741D01*
Y-62646D01*
X93221D01*
Y-63297D01*
X90780D01*
Y-62646D01*
X86221D01*
Y-63297D01*
X84280D01*
Y-62646D01*
X83529D01*
Y-59658D01*
X83413Y-59072D01*
X83081Y-58576D01*
X80314Y-55808D01*
X79818Y-55477D01*
X79232Y-55360D01*
X68448D01*
X67375Y-54286D01*
Y-51976D01*
X67427Y-51713D01*
Y-49272D01*
X67306Y-48667D01*
X66963Y-48154D01*
X66451Y-47811D01*
X65845Y-47691D01*
X65240Y-47811D01*
X64860Y-48065D01*
X64480Y-47811D01*
X63875Y-47691D01*
X63270Y-47811D01*
X62757Y-48154D01*
X62414Y-48667D01*
X62294Y-49272D01*
Y-51713D01*
X62346Y-51976D01*
Y-58571D01*
X61475D01*
Y-51976D01*
X61527Y-51713D01*
Y-49272D01*
X61406Y-48667D01*
X61063Y-48154D01*
X60550Y-47811D01*
X59945Y-47691D01*
X59340Y-47811D01*
X58960Y-48065D01*
X58580Y-47811D01*
X57975Y-47691D01*
X57370Y-47811D01*
X56990Y-48065D01*
X56611Y-47811D01*
X56005Y-47691D01*
X55400Y-47811D01*
X54887Y-48154D01*
X54544Y-48667D01*
X54424Y-49272D01*
Y-51713D01*
X54544Y-52319D01*
X54887Y-52832D01*
X55400Y-53174D01*
X56005Y-53295D01*
X56059Y-53284D01*
X56446Y-53601D01*
Y-57139D01*
X53614Y-59971D01*
X45650D01*
Y-58571D01*
X40087D01*
X39988Y-58571D01*
X39587Y-58571D01*
X39488Y-58571D01*
X33925D01*
Y-59971D01*
X32642D01*
Y-59220D01*
X28280D01*
Y-59220D01*
X24933D01*
Y-63779D01*
X25075D01*
Y-66220D01*
X24933D01*
Y-66463D01*
X24035D01*
X23988Y-66432D01*
X23130Y-66261D01*
X22272Y-66432D01*
X21544Y-66918D01*
X21058Y-67646D01*
X20887Y-68504D01*
X21058Y-69362D01*
X21544Y-70090D01*
X22272Y-70576D01*
X23130Y-70747D01*
X23988Y-70576D01*
X24041Y-70541D01*
X24933D01*
Y-70780D01*
X29295D01*
Y-70780D01*
X32642D01*
Y-70029D01*
X33925D01*
Y-71277D01*
X33569Y-71777D01*
X-152264Y-71777D01*
Y-57874D01*
Y-57166D01*
X-152540Y-55778D01*
X-153082Y-54471D01*
X-153868Y-53294D01*
X-154869Y-52293D01*
X-156045Y-51507D01*
X-157353Y-50965D01*
X-158741Y-50689D01*
X-172643D01*
X-172643Y-36490D01*
X-171732D01*
X-170949Y-36387D01*
X-170219Y-36085D01*
X-169592Y-35604D01*
X-169111Y-34977D01*
X-168809Y-34248D01*
X-168706Y-33465D01*
Y33465D01*
X-168809Y34248D01*
X-169111Y34977D01*
X-169592Y35604D01*
X-170219Y36085D01*
X-170949Y36387D01*
X-171732Y36490D01*
X-172643D01*
Y51378D01*
X-158151D01*
X-156763Y51654D01*
X-155455Y52196D01*
X-154278Y52982D01*
X-153277Y53983D01*
X-152491Y55160D01*
X-151949Y56467D01*
X-151673Y57855D01*
Y58563D01*
Y71777D01*
X153248Y71777D01*
D02*
G37*
G36*
X7623Y89482D02*
X7693D01*
X7769Y89475D01*
X7852Y89468D01*
X8033Y89447D01*
X8213Y89413D01*
X8394Y89371D01*
X8484Y89343D01*
X8560Y89309D01*
X8567D01*
X8574Y89302D01*
X8623Y89281D01*
X8678Y89246D01*
X8754Y89198D01*
X8824Y89135D01*
X8879Y89066D01*
X8928Y88982D01*
X8935Y88934D01*
X8942Y88885D01*
Y88878D01*
Y88864D01*
X8935Y88837D01*
X8928Y88802D01*
X8914Y88760D01*
X8900Y88719D01*
X8872Y88677D01*
X8838Y88635D01*
X8831Y88629D01*
X8817Y88622D01*
X8796Y88601D01*
X8768Y88587D01*
X8692Y88545D01*
X8650Y88538D01*
X8602Y88531D01*
X8588D01*
X8567Y88538D01*
X8532Y88545D01*
X8491Y88552D01*
X8435Y88573D01*
X8373Y88594D01*
X8296Y88629D01*
X8289Y88635D01*
X8255Y88649D01*
X8213Y88663D01*
X8157Y88684D01*
X8095Y88712D01*
X8026Y88733D01*
X7956Y88747D01*
X7894Y88760D01*
Y88753D01*
Y88747D01*
X7887Y88726D01*
Y88698D01*
X7880Y88656D01*
X7873Y88615D01*
X7866Y88566D01*
X7859Y88511D01*
X7845Y88379D01*
X7824Y88219D01*
X7804Y88046D01*
X7783Y87851D01*
X7762Y87636D01*
X7741Y87414D01*
X7720Y87171D01*
X7706Y86928D01*
X7693Y86672D01*
X7679Y86408D01*
X7672Y85880D01*
Y85873D01*
Y85852D01*
Y85811D01*
Y85762D01*
X7679Y85686D01*
Y85603D01*
X7686Y85499D01*
X7693Y85381D01*
X7700Y85242D01*
X7706Y85089D01*
X7720Y84923D01*
X7727Y84728D01*
X7748Y84520D01*
X7762Y84298D01*
X7790Y84048D01*
X7811Y83784D01*
X7818D01*
X7845Y83777D01*
X7894D01*
X7949Y83771D01*
X8019Y83764D01*
X8102Y83757D01*
X8192Y83750D01*
X8296Y83743D01*
X8505Y83722D01*
X8733Y83708D01*
X8949Y83701D01*
X9053Y83694D01*
X9233D01*
X9296Y83701D01*
X9372D01*
X9462Y83708D01*
X9559Y83722D01*
X9663Y83736D01*
X9893Y83771D01*
X10129Y83826D01*
X10357Y83909D01*
X10462Y83958D01*
X10566Y84013D01*
X10573Y84020D01*
X10593Y84048D01*
X10621Y84104D01*
X10656Y84173D01*
X10691Y84277D01*
X10711Y84333D01*
X10732Y84402D01*
X10746Y84478D01*
X10767Y84562D01*
X10788Y84652D01*
X10802Y84749D01*
Y84756D01*
Y84763D01*
X10809Y84805D01*
X10823Y84867D01*
X10829Y84943D01*
X10850Y85020D01*
X10864Y85089D01*
X10878Y85158D01*
X10899Y85200D01*
X10906Y85207D01*
X10913Y85228D01*
X10933Y85249D01*
X10961Y85283D01*
X10996Y85311D01*
X11045Y85332D01*
X11107Y85353D01*
X11176Y85360D01*
X11190D01*
X11232Y85353D01*
X11294Y85332D01*
X11364Y85297D01*
X11392Y85270D01*
X11426Y85235D01*
X11461Y85193D01*
X11489Y85145D01*
X11509Y85089D01*
X11530Y85020D01*
X11537Y84943D01*
X11544Y84853D01*
Y84839D01*
Y84812D01*
X11537Y84756D01*
Y84694D01*
X11523Y84610D01*
X11509Y84513D01*
X11496Y84409D01*
X11468Y84298D01*
X11440Y84180D01*
X11399Y84062D01*
X11350Y83937D01*
X11287Y83819D01*
X11218Y83701D01*
X11142Y83590D01*
X11045Y83486D01*
X10941Y83389D01*
Y83375D01*
X10933Y83368D01*
X10913Y83361D01*
X10885Y83347D01*
X10836Y83319D01*
X10781Y83299D01*
X10711Y83271D01*
X10628Y83236D01*
X10531Y83208D01*
X10420Y83174D01*
X10295Y83146D01*
X10163Y83111D01*
X10011Y83090D01*
X9851Y83070D01*
X9677Y83049D01*
X9490Y83042D01*
X9289Y83035D01*
X9018D01*
X8886Y83042D01*
X8727Y83049D01*
X8553D01*
X8359Y83063D01*
X8157Y83070D01*
X7949Y83083D01*
X7526Y83118D01*
X7311Y83146D01*
X7110Y83167D01*
X6908Y83201D01*
X6728Y83236D01*
X6714D01*
X6686Y83250D01*
X6638Y83257D01*
X6575Y83278D01*
X6450Y83319D01*
X6388Y83347D01*
X6339Y83375D01*
X6332Y83382D01*
X6318Y83389D01*
X6305Y83417D01*
X6284Y83444D01*
X6256Y83479D01*
X6242Y83528D01*
X6228Y83583D01*
X6221Y83646D01*
Y83659D01*
X6228Y83687D01*
X6242Y83736D01*
X6270Y83784D01*
X6312Y83833D01*
X6381Y83882D01*
X6430Y83895D01*
X6478Y83909D01*
X6534Y83923D01*
X6672D01*
X6728Y83916D01*
X6797Y83909D01*
X6881Y83902D01*
X6971Y83889D01*
X7075Y83868D01*
Y83882D01*
X7068Y83923D01*
Y83979D01*
X7061Y84062D01*
X7047Y84166D01*
X7040Y84284D01*
X7033Y84416D01*
X7019Y84562D01*
X7012Y84714D01*
X6999Y84874D01*
X6985Y85207D01*
X6971Y85547D01*
X6964Y85707D01*
Y85866D01*
Y85873D01*
Y85880D01*
Y85901D01*
Y85929D01*
Y85964D01*
Y86005D01*
Y86102D01*
X6971Y86234D01*
Y86380D01*
X6978Y86554D01*
X6985Y86741D01*
X6999Y86949D01*
X7012Y87178D01*
X7026Y87414D01*
X7040Y87664D01*
X7068Y87928D01*
X7089Y88198D01*
X7151Y88753D01*
X6971Y88733D01*
X6929D01*
X6894Y88740D01*
X6839Y88753D01*
X6776Y88774D01*
X6714Y88816D01*
X6665Y88871D01*
X6624Y88955D01*
X6617Y89003D01*
X6610Y89059D01*
Y89073D01*
Y89100D01*
X6624Y89142D01*
X6638Y89191D01*
X6658Y89246D01*
X6693Y89302D01*
X6742Y89357D01*
X6811Y89399D01*
X6818Y89406D01*
X6846Y89413D01*
X6894Y89427D01*
X6964Y89447D01*
X7054Y89461D01*
X7158Y89475D01*
X7290Y89482D01*
X7443Y89489D01*
X7561D01*
X7623Y89482D01*
D02*
G37*
G36*
X-7999Y88594D02*
X-7964Y88587D01*
X-7902Y88566D01*
X-7867Y88538D01*
X-7832Y88511D01*
X-7825Y88504D01*
X-7818Y88497D01*
X-7805Y88476D01*
X-7791Y88448D01*
X-7763Y88379D01*
X-7749Y88344D01*
Y88295D01*
Y88288D01*
Y88282D01*
Y88261D01*
X-7756Y88233D01*
X-7770Y88157D01*
X-7805Y88060D01*
Y88052D01*
X-7811Y88039D01*
X-7825Y88011D01*
X-7839Y87976D01*
X-7874Y87886D01*
X-7915Y87782D01*
X-7853D01*
X-7784Y87775D01*
X-7693Y87768D01*
X-7589Y87754D01*
X-7471Y87740D01*
X-7346Y87713D01*
X-7215Y87685D01*
X-7083Y87650D01*
X-6958Y87608D01*
X-6840Y87560D01*
X-6736Y87504D01*
X-6645Y87435D01*
X-6576Y87358D01*
X-6548Y87317D01*
X-6527Y87268D01*
X-6521Y87220D01*
X-6514Y87171D01*
Y87164D01*
Y87150D01*
X-6521Y87129D01*
Y87095D01*
X-6548Y87025D01*
X-6569Y86991D01*
X-6597Y86956D01*
X-6611Y86942D01*
X-6645Y86914D01*
X-6708Y86887D01*
X-6743Y86880D01*
X-6784Y86873D01*
X-6798D01*
X-6819Y86880D01*
X-6854Y86893D01*
X-6909Y86907D01*
X-6986Y86928D01*
X-7076Y86963D01*
X-7138Y86991D01*
X-7201Y87011D01*
X-7208D01*
X-7215Y87018D01*
X-7235Y87025D01*
X-7263Y87032D01*
X-7333Y87053D01*
X-7423Y87081D01*
X-7527Y87109D01*
X-7645Y87129D01*
X-7770Y87143D01*
X-7902Y87150D01*
X-7971D01*
X-8040Y87143D01*
X-8124Y87136D01*
Y87129D01*
X-8131Y87109D01*
X-8138Y87081D01*
X-8145Y87039D01*
X-8151Y86984D01*
X-8165Y86921D01*
X-8179Y86859D01*
X-8186Y86782D01*
X-8214Y86616D01*
X-8235Y86436D01*
X-8249Y86248D01*
X-8256Y86061D01*
Y86054D01*
Y86033D01*
Y85998D01*
X-8249Y85957D01*
Y85901D01*
X-8242Y85846D01*
X-8228Y85700D01*
X-8207Y85547D01*
X-8165Y85387D01*
X-8117Y85228D01*
X-8047Y85089D01*
Y85082D01*
X-8040Y85075D01*
X-8006Y85040D01*
X-7957Y84985D01*
X-7895Y84923D01*
X-7805Y84860D01*
X-7707Y84812D01*
X-7582Y84770D01*
X-7520Y84763D01*
X-7451Y84756D01*
X-7430D01*
X-7402Y84763D01*
X-7374D01*
X-7326Y84770D01*
X-7277Y84784D01*
X-7221Y84805D01*
X-7152Y84825D01*
X-7145Y84832D01*
X-7117Y84839D01*
X-7083Y84853D01*
X-7041Y84867D01*
X-6951Y84888D01*
X-6909Y84902D01*
X-6861D01*
X-6826Y84895D01*
X-6784Y84881D01*
X-6729Y84860D01*
X-6673Y84819D01*
X-6632Y84756D01*
X-6611Y84721D01*
X-6597Y84673D01*
X-6583Y84624D01*
Y84562D01*
Y84555D01*
X-6590Y84527D01*
X-6597Y84485D01*
X-6611Y84437D01*
X-6645Y84381D01*
X-6687Y84319D01*
X-6743Y84263D01*
X-6826Y84208D01*
X-6840Y84201D01*
X-6868Y84187D01*
X-6923Y84166D01*
X-6993Y84145D01*
X-7090Y84118D01*
X-7201Y84097D01*
X-7326Y84083D01*
X-7471Y84076D01*
X-7506D01*
X-7534Y84083D01*
X-7610Y84090D01*
X-7707Y84111D01*
X-7825Y84138D01*
X-7950Y84180D01*
X-8089Y84242D01*
X-8228Y84333D01*
X-8374Y84437D01*
X-8443Y84499D01*
X-8512Y84569D01*
X-8575Y84652D01*
X-8637Y84735D01*
X-8700Y84825D01*
X-8755Y84930D01*
X-8804Y85040D01*
X-8852Y85166D01*
X-8894Y85290D01*
X-8929Y85436D01*
X-8957Y85582D01*
X-8977Y85748D01*
X-8984Y85922D01*
X-8991Y86102D01*
Y86109D01*
Y86123D01*
Y86144D01*
Y86179D01*
Y86220D01*
X-8984Y86269D01*
Y86317D01*
X-8977Y86380D01*
X-8963Y86519D01*
X-8950Y86685D01*
X-8922Y86859D01*
X-8887Y87046D01*
X-8894D01*
X-8908Y87039D01*
X-8936D01*
X-8977Y87025D01*
X-9040Y87018D01*
X-9116Y87005D01*
X-9206Y86984D01*
X-9324Y86963D01*
X-9331D01*
X-9359Y86956D01*
X-9401Y86949D01*
X-9442Y86942D01*
X-9546Y86928D01*
X-9602Y86921D01*
X-9657D01*
X-9706Y86928D01*
X-9762Y86935D01*
X-9831Y86956D01*
X-9907Y86991D01*
X-9963Y87046D01*
X-9984Y87076D01*
X-10005Y87025D01*
X-10025Y86991D01*
X-10053Y86956D01*
X-10067Y86942D01*
X-10102Y86914D01*
X-10164Y86887D01*
X-10199Y86880D01*
X-10240Y86873D01*
X-10254D01*
X-10275Y86880D01*
X-10310Y86893D01*
X-10365Y86907D01*
X-10442Y86928D01*
X-10532Y86963D01*
X-10594Y86991D01*
X-10657Y87011D01*
X-10664D01*
X-10671Y87018D01*
X-10691Y87025D01*
X-10719Y87032D01*
X-10789Y87053D01*
X-10879Y87081D01*
X-10983Y87109D01*
X-11101Y87129D01*
X-11226Y87143D01*
X-11358Y87150D01*
X-11427D01*
X-11497Y87143D01*
X-11580Y87136D01*
Y87129D01*
X-11587Y87109D01*
X-11594Y87081D01*
X-11601Y87039D01*
X-11608Y86984D01*
X-11621Y86921D01*
X-11635Y86859D01*
X-11642Y86782D01*
X-11670Y86616D01*
X-11691Y86436D01*
X-11705Y86248D01*
X-11712Y86061D01*
Y86054D01*
Y86033D01*
Y85998D01*
X-11705Y85957D01*
Y85901D01*
X-11698Y85846D01*
X-11684Y85700D01*
X-11663Y85547D01*
X-11621Y85387D01*
X-11573Y85228D01*
X-11503Y85089D01*
Y85082D01*
X-11497Y85075D01*
X-11462Y85040D01*
X-11413Y84985D01*
X-11351Y84923D01*
X-11261Y84860D01*
X-11163Y84812D01*
X-11039Y84770D01*
X-10976Y84763D01*
X-10907Y84756D01*
X-10886D01*
X-10858Y84763D01*
X-10830D01*
X-10782Y84770D01*
X-10733Y84784D01*
X-10678Y84805D01*
X-10608Y84825D01*
X-10601Y84832D01*
X-10573Y84839D01*
X-10539Y84853D01*
X-10497Y84867D01*
X-10407Y84888D01*
X-10365Y84902D01*
X-10317D01*
X-10282Y84895D01*
X-10240Y84881D01*
X-10185Y84860D01*
X-10129Y84819D01*
X-10088Y84756D01*
X-10067Y84721D01*
X-10053Y84673D01*
X-10039Y84624D01*
Y84562D01*
Y84555D01*
X-10046Y84527D01*
X-10053Y84485D01*
X-10067Y84437D01*
X-10102Y84381D01*
X-10143Y84319D01*
X-10199Y84263D01*
X-10282Y84208D01*
X-10296Y84201D01*
X-10324Y84187D01*
X-10379Y84166D01*
X-10449Y84145D01*
X-10546Y84118D01*
X-10657Y84097D01*
X-10782Y84083D01*
X-10927Y84076D01*
X-10962D01*
X-10990Y84083D01*
X-11066Y84090D01*
X-11163Y84111D01*
X-11281Y84138D01*
X-11406Y84180D01*
X-11545Y84242D01*
X-11684Y84333D01*
X-11830Y84437D01*
X-11899Y84499D01*
X-11969Y84569D01*
X-12031Y84652D01*
X-12093Y84735D01*
X-12156Y84825D01*
X-12211Y84930D01*
X-12260Y85040D01*
X-12308Y85166D01*
X-12350Y85290D01*
X-12385Y85436D01*
X-12413Y85582D01*
X-12433Y85748D01*
X-12440Y85922D01*
X-12447Y86102D01*
Y86109D01*
Y86123D01*
Y86144D01*
Y86179D01*
Y86220D01*
X-12440Y86269D01*
Y86317D01*
X-12433Y86380D01*
X-12420Y86519D01*
X-12406Y86685D01*
X-12378Y86859D01*
X-12343Y87046D01*
X-12350D01*
X-12364Y87039D01*
X-12392D01*
X-12433Y87025D01*
X-12496Y87018D01*
X-12572Y87005D01*
X-12663Y86984D01*
X-12780Y86963D01*
X-12787D01*
X-12815Y86956D01*
X-12857Y86949D01*
X-12898Y86942D01*
X-13002Y86928D01*
X-13058Y86921D01*
X-13114D01*
X-13162Y86928D01*
X-13218Y86935D01*
X-13287Y86956D01*
X-13363Y86991D01*
X-13419Y87046D01*
X-13467Y87116D01*
X-13475Y87164D01*
X-13481Y87213D01*
Y87220D01*
Y87234D01*
X-13475Y87254D01*
X-13461Y87275D01*
X-13440Y87310D01*
X-13412Y87345D01*
X-13370Y87386D01*
X-13315Y87428D01*
X-13245Y87476D01*
X-13162Y87518D01*
X-13051Y87560D01*
X-12926Y87608D01*
X-12774Y87643D01*
X-12600Y87685D01*
X-12503Y87699D01*
X-12392Y87713D01*
X-12281Y87726D01*
X-12163Y87740D01*
Y87747D01*
X-12149Y87775D01*
X-12135Y87817D01*
X-12114Y87872D01*
X-12087Y87941D01*
X-12059Y88011D01*
X-11975Y88170D01*
X-11878Y88330D01*
X-11823Y88399D01*
X-11767Y88469D01*
X-11705Y88524D01*
X-11635Y88566D01*
X-11566Y88594D01*
X-11497Y88601D01*
X-11476D01*
X-11455Y88594D01*
X-11420Y88587D01*
X-11358Y88566D01*
X-11323Y88538D01*
X-11288Y88511D01*
X-11281Y88504D01*
X-11275Y88497D01*
X-11261Y88476D01*
X-11247Y88448D01*
X-11219Y88379D01*
X-11205Y88344D01*
Y88295D01*
Y88288D01*
Y88282D01*
Y88261D01*
X-11212Y88233D01*
X-11226Y88157D01*
X-11261Y88060D01*
Y88052D01*
X-11268Y88039D01*
X-11281Y88011D01*
X-11295Y87976D01*
X-11330Y87886D01*
X-11372Y87782D01*
X-11309D01*
X-11240Y87775D01*
X-11150Y87768D01*
X-11045Y87754D01*
X-10927Y87740D01*
X-10803Y87713D01*
X-10671Y87685D01*
X-10539Y87650D01*
X-10414Y87608D01*
X-10296Y87560D01*
X-10192Y87504D01*
X-10102Y87435D01*
X-10032Y87358D01*
X-10005Y87317D01*
X-9994Y87293D01*
X-9984Y87310D01*
X-9956Y87345D01*
X-9914Y87386D01*
X-9859Y87428D01*
X-9789Y87476D01*
X-9706Y87518D01*
X-9595Y87560D01*
X-9470Y87608D01*
X-9317Y87643D01*
X-9144Y87685D01*
X-9047Y87699D01*
X-8936Y87713D01*
X-8825Y87726D01*
X-8707Y87740D01*
Y87747D01*
X-8693Y87775D01*
X-8679Y87817D01*
X-8658Y87872D01*
X-8630Y87941D01*
X-8603Y88011D01*
X-8519Y88170D01*
X-8422Y88330D01*
X-8367Y88399D01*
X-8311Y88469D01*
X-8249Y88524D01*
X-8179Y88566D01*
X-8110Y88594D01*
X-8040Y88601D01*
X-8020D01*
X-7999Y88594D01*
D02*
G37*
G36*
X23662Y88198D02*
X23689Y88191D01*
X23724Y88177D01*
X23759Y88157D01*
X23800Y88129D01*
X23849Y88087D01*
X23897Y88039D01*
X23946Y87976D01*
X24002Y87900D01*
X24057Y87810D01*
X24106Y87705D01*
X24161Y87581D01*
X24210Y87435D01*
X24258Y87268D01*
X24265Y87275D01*
X24279Y87303D01*
X24300Y87338D01*
X24328Y87379D01*
X24369Y87435D01*
X24418Y87497D01*
X24474Y87560D01*
X24536Y87629D01*
X24605Y87699D01*
X24689Y87761D01*
X24779Y87823D01*
X24876Y87879D01*
X24980Y87921D01*
X25098Y87962D01*
X25216Y87983D01*
X25348Y87990D01*
X25410D01*
X25473Y87983D01*
X25556Y87969D01*
X25646Y87948D01*
X25743Y87921D01*
X25834Y87879D01*
X25924Y87823D01*
X25931Y87817D01*
X25959Y87796D01*
X25993Y87754D01*
X26042Y87705D01*
X26083Y87650D01*
X26118Y87574D01*
X26146Y87490D01*
X26153Y87400D01*
Y87393D01*
Y87379D01*
X26146Y87352D01*
Y87317D01*
X26118Y87248D01*
X26097Y87206D01*
X26070Y87171D01*
X26063Y87164D01*
X26056Y87157D01*
X26014Y87129D01*
X25952Y87095D01*
X25910Y87088D01*
X25868Y87081D01*
X25855D01*
X25834Y87088D01*
X25806Y87095D01*
X25771Y87109D01*
X25723Y87136D01*
X25674Y87164D01*
X25612Y87206D01*
X25605Y87213D01*
X25584Y87227D01*
X25549Y87248D01*
X25515Y87275D01*
X25417Y87317D01*
X25362Y87331D01*
X25313Y87338D01*
X25299D01*
X25258Y87331D01*
X25195Y87324D01*
X25112Y87303D01*
X25029Y87261D01*
X24931Y87206D01*
X24841Y87136D01*
X24800Y87088D01*
X24758Y87032D01*
X24751Y87019D01*
X24723Y86977D01*
X24696Y86914D01*
X24654Y86817D01*
X24619Y86706D01*
X24585Y86567D01*
X24557Y86401D01*
X24550Y86220D01*
Y85755D01*
Y85748D01*
Y85721D01*
Y85679D01*
Y85624D01*
X24543Y85561D01*
Y85478D01*
X24536Y85395D01*
X24529Y85304D01*
X24508Y85103D01*
X24480Y84895D01*
X24439Y84687D01*
X24411Y84589D01*
X24383Y84499D01*
Y84492D01*
X24376Y84478D01*
X24369Y84458D01*
X24355Y84430D01*
X24321Y84360D01*
X24279Y84284D01*
X24217Y84208D01*
X24147Y84138D01*
X24113Y84111D01*
X24071Y84090D01*
X24029Y84076D01*
X23981Y84069D01*
X23967D01*
X23932Y84076D01*
X23877Y84083D01*
X23821Y84111D01*
X23766Y84145D01*
X23710Y84201D01*
X23675Y84284D01*
X23668Y84333D01*
X23662Y84388D01*
Y84395D01*
Y84402D01*
X23668Y84430D01*
X23675Y84471D01*
X23682Y84534D01*
X23703Y84617D01*
X23717Y84666D01*
X23724Y84721D01*
X23745Y84791D01*
X23759Y84860D01*
Y84867D01*
X23766Y84881D01*
Y84902D01*
X23773Y84930D01*
X23786Y84971D01*
X23793Y85013D01*
X23814Y85117D01*
X23828Y85235D01*
X23849Y85367D01*
X23856Y85499D01*
X23863Y85637D01*
Y85651D01*
Y85679D01*
Y85735D01*
X23856Y85804D01*
Y85887D01*
X23849Y85984D01*
X23842Y86095D01*
X23828Y86213D01*
X23814Y86338D01*
X23793Y86470D01*
X23738Y86741D01*
X23668Y86998D01*
X23620Y87123D01*
X23571Y87240D01*
X23564Y87248D01*
X23557Y87268D01*
X23543Y87296D01*
X23523Y87338D01*
X23488Y87407D01*
X23439Y87490D01*
X23412Y87546D01*
X23377Y87608D01*
X23370Y87615D01*
X23363Y87636D01*
X23349Y87671D01*
X23328Y87705D01*
X23294Y87796D01*
X23287Y87844D01*
X23280Y87886D01*
Y87893D01*
Y87907D01*
X23287Y87928D01*
X23294Y87955D01*
X23307Y87990D01*
X23328Y88025D01*
X23356Y88066D01*
X23391Y88101D01*
X23398Y88108D01*
X23412Y88115D01*
X23433Y88136D01*
X23460Y88157D01*
X23537Y88191D01*
X23578Y88198D01*
X23627Y88205D01*
X23641D01*
X23662Y88198D01*
D02*
G37*
G36*
X18450Y88816D02*
X18498Y88802D01*
X18561Y88767D01*
X18623Y88719D01*
X18651Y88684D01*
X18679Y88635D01*
X18699Y88587D01*
X18713Y88531D01*
X18720Y88462D01*
X18727Y88386D01*
Y88379D01*
Y88365D01*
Y88337D01*
X18720Y88295D01*
X18713Y88247D01*
X18706Y88184D01*
X18699Y88108D01*
X18679Y88018D01*
X18665Y87921D01*
X18637Y87803D01*
X18609Y87678D01*
X18575Y87532D01*
X18533Y87379D01*
X18484Y87206D01*
X18422Y87019D01*
X18359Y86817D01*
X18352Y86803D01*
X18345Y86769D01*
X18325Y86713D01*
X18290Y86637D01*
X18255Y86533D01*
X18207Y86415D01*
X18151Y86269D01*
X18082Y86109D01*
X18005Y85929D01*
X17915Y85735D01*
X17811Y85519D01*
X17707Y85290D01*
X17582Y85048D01*
X17450Y84784D01*
X17304Y84513D01*
X17145Y84222D01*
Y84215D01*
X17138Y84208D01*
X17131Y84187D01*
X17117Y84159D01*
X17082Y84090D01*
X17034Y84000D01*
X16985Y83889D01*
X16923Y83771D01*
X16860Y83646D01*
X16791Y83514D01*
X16784Y83500D01*
X16763Y83472D01*
X16728Y83424D01*
X16687Y83375D01*
X16631Y83326D01*
X16569Y83278D01*
X16499Y83250D01*
X16423Y83236D01*
X16402D01*
X16381Y83243D01*
X16347Y83250D01*
X16312Y83264D01*
X16277Y83285D01*
X16236Y83312D01*
X16194Y83347D01*
X16187Y83354D01*
X16180Y83368D01*
X16166Y83389D01*
X16146Y83417D01*
X16111Y83493D01*
X16104Y83535D01*
X16097Y83583D01*
Y83597D01*
X16104Y83632D01*
X16111Y83687D01*
X16138Y83771D01*
X16173Y83875D01*
X16229Y84007D01*
X16305Y84166D01*
X16354Y84256D01*
X16409Y84354D01*
Y84360D01*
X16416Y84367D01*
X16444Y84409D01*
X16479Y84471D01*
X16520Y84555D01*
X16576Y84645D01*
X16638Y84756D01*
X16708Y84874D01*
X16777Y84992D01*
X16909Y85228D01*
X16971Y85339D01*
X17027Y85436D01*
X17082Y85519D01*
X17117Y85589D01*
X17145Y85637D01*
X17152Y85651D01*
X17159Y85658D01*
X17152Y85672D01*
X17131Y85700D01*
X17089Y85748D01*
X17041Y85818D01*
X16985Y85901D01*
X16916Y86005D01*
X16839Y86116D01*
X16756Y86234D01*
X16673Y86366D01*
X16583Y86505D01*
X16395Y86803D01*
X16215Y87116D01*
X16048Y87421D01*
Y87428D01*
X16034Y87449D01*
X16021Y87483D01*
X16000Y87525D01*
X15972Y87581D01*
X15944Y87643D01*
X15889Y87775D01*
X15826Y87921D01*
X15771Y88066D01*
X15736Y88198D01*
X15729Y88254D01*
X15722Y88302D01*
Y88309D01*
Y88316D01*
X15729Y88351D01*
X15736Y88406D01*
X15764Y88469D01*
X15799Y88524D01*
X15854Y88580D01*
X15930Y88615D01*
X15972Y88629D01*
X16034D01*
X16062Y88622D01*
X16097Y88608D01*
X16152Y88587D01*
X16208Y88545D01*
X16270Y88483D01*
X16305Y88448D01*
X16347Y88399D01*
X16381Y88351D01*
X16416Y88288D01*
Y88282D01*
X16423Y88275D01*
X16437Y88254D01*
X16444Y88226D01*
X16479Y88150D01*
X16527Y88052D01*
X16576Y87941D01*
X16638Y87810D01*
X16701Y87678D01*
X16763Y87532D01*
X16770Y87525D01*
X16777Y87504D01*
X16798Y87470D01*
X16819Y87421D01*
X16846Y87366D01*
X16881Y87296D01*
X16923Y87220D01*
X16971Y87136D01*
X17075Y86949D01*
X17193Y86748D01*
X17332Y86533D01*
X17478Y86317D01*
Y86325D01*
X17492Y86345D01*
X17506Y86387D01*
X17520Y86436D01*
X17547Y86498D01*
X17568Y86574D01*
X17596Y86658D01*
X17631Y86748D01*
X17665Y86852D01*
X17700Y86963D01*
X17769Y87206D01*
X17839Y87470D01*
X17901Y87740D01*
Y87747D01*
X17908Y87775D01*
X17915Y87810D01*
X17929Y87858D01*
X17943Y87921D01*
X17957Y87983D01*
X17985Y88129D01*
X18012Y88268D01*
X18026Y88337D01*
X18040Y88399D01*
X18054Y88448D01*
X18061Y88490D01*
X18068Y88511D01*
Y88524D01*
Y88531D01*
X18075Y88538D01*
X18089Y88573D01*
X18110Y88622D01*
X18151Y88677D01*
X18193Y88726D01*
X18248Y88774D01*
X18318Y88809D01*
X18352Y88823D01*
X18408D01*
X18450Y88816D01*
D02*
G37*
G36*
X13474Y88358D02*
X13508D01*
X13557Y88351D01*
X13668Y88330D01*
X13800Y88295D01*
X13946Y88240D01*
X14098Y88164D01*
X14265Y88066D01*
X14341Y88011D01*
X14424Y87941D01*
X14501Y87872D01*
X14577Y87789D01*
X14653Y87699D01*
X14723Y87594D01*
X14792Y87483D01*
X14855Y87366D01*
X14910Y87234D01*
X14966Y87095D01*
X15014Y86942D01*
X15049Y86782D01*
X15084Y86602D01*
X15104Y86415D01*
X15118Y86213D01*
X15125Y85998D01*
Y85984D01*
Y85957D01*
Y85901D01*
X15118Y85832D01*
Y85742D01*
X15111Y85631D01*
X15104Y85513D01*
X15091Y85374D01*
X15077Y85228D01*
X15056Y85068D01*
X15028Y84895D01*
X15000Y84721D01*
X14973Y84534D01*
X14931Y84340D01*
X14834Y83944D01*
Y83937D01*
X14827Y83923D01*
X14820Y83895D01*
X14806Y83861D01*
X14778Y83777D01*
X14730Y83680D01*
X14667Y83576D01*
X14598Y83493D01*
X14556Y83458D01*
X14508Y83430D01*
X14459Y83417D01*
X14411Y83410D01*
X14397D01*
X14362Y83417D01*
X14320Y83430D01*
X14265Y83451D01*
X14209Y83493D01*
X14168Y83548D01*
X14133Y83632D01*
X14126Y83687D01*
X14119Y83743D01*
Y83757D01*
Y83784D01*
X14126Y83819D01*
X14133Y83847D01*
X14126D01*
X14119Y83840D01*
X14098Y83826D01*
X14070Y83819D01*
X13994Y83784D01*
X13897Y83750D01*
X13786Y83715D01*
X13654Y83680D01*
X13515Y83659D01*
X13370Y83653D01*
X13300D01*
X13258Y83659D01*
X13196Y83666D01*
X13127Y83673D01*
X13057Y83687D01*
X12974Y83701D01*
X12800Y83750D01*
X12620Y83819D01*
X12530Y83861D01*
X12446Y83916D01*
X12363Y83972D01*
X12287Y84041D01*
X12280Y84048D01*
X12273Y84062D01*
X12252Y84083D01*
X12224Y84111D01*
X12197Y84152D01*
X12162Y84201D01*
X12127Y84256D01*
X12093Y84326D01*
X12058Y84395D01*
X12023Y84478D01*
X11988Y84569D01*
X11961Y84666D01*
X11933Y84777D01*
X11912Y84888D01*
X11905Y85006D01*
X11898Y85138D01*
Y85145D01*
Y85172D01*
Y85207D01*
X11905Y85256D01*
X11912Y85318D01*
X11919Y85388D01*
X11933Y85464D01*
X11954Y85547D01*
X12002Y85728D01*
X12037Y85825D01*
X12072Y85915D01*
X12120Y86012D01*
X12176Y86102D01*
X12238Y86186D01*
X12315Y86269D01*
X12321Y86276D01*
X12335Y86290D01*
X12356Y86311D01*
X12391Y86338D01*
X12433Y86366D01*
X12488Y86401D01*
X12544Y86442D01*
X12613Y86484D01*
X12689Y86519D01*
X12773Y86560D01*
X12863Y86595D01*
X12967Y86630D01*
X13071Y86651D01*
X13182Y86672D01*
X13307Y86685D01*
X13432Y86692D01*
X13487D01*
X13536Y86685D01*
X13585Y86678D01*
X13647Y86672D01*
X13716Y86658D01*
X13786Y86644D01*
X13946Y86595D01*
X14036Y86560D01*
X14119Y86526D01*
X14209Y86477D01*
X14292Y86422D01*
X14376Y86359D01*
X14459Y86290D01*
Y86297D01*
Y86304D01*
Y86325D01*
X14452Y86352D01*
X14445Y86422D01*
X14431Y86512D01*
X14411Y86616D01*
X14383Y86734D01*
X14348Y86866D01*
X14299Y86998D01*
X14244Y87123D01*
X14175Y87254D01*
X14084Y87372D01*
X13987Y87476D01*
X13869Y87567D01*
X13730Y87636D01*
X13661Y87664D01*
X13578Y87685D01*
X13494Y87692D01*
X13404Y87699D01*
X13363D01*
X13321Y87692D01*
X13265Y87685D01*
X13189Y87664D01*
X13113Y87643D01*
X13023Y87608D01*
X12932Y87567D01*
X12918Y87560D01*
X12891Y87546D01*
X12849Y87525D01*
X12800Y87504D01*
X12689Y87463D01*
X12641Y87449D01*
X12606Y87442D01*
X12585D01*
X12564Y87449D01*
X12530Y87456D01*
X12460Y87483D01*
X12419Y87504D01*
X12384Y87539D01*
X12377Y87546D01*
X12370Y87560D01*
X12356Y87574D01*
X12342Y87601D01*
X12308Y87678D01*
X12301Y87719D01*
X12294Y87768D01*
Y87775D01*
X12301Y87803D01*
X12308Y87844D01*
X12335Y87900D01*
X12370Y87962D01*
X12426Y88025D01*
X12502Y88094D01*
X12551Y88129D01*
X12606Y88164D01*
X12613D01*
X12620Y88170D01*
X12641Y88184D01*
X12668Y88198D01*
X12738Y88226D01*
X12828Y88268D01*
X12946Y88302D01*
X13078Y88337D01*
X13231Y88358D01*
X13397Y88365D01*
X13439D01*
X13474Y88358D01*
D02*
G37*
G36*
X21302Y88573D02*
X21364Y88566D01*
X21434Y88552D01*
X21517Y88538D01*
X21600Y88517D01*
X21690Y88497D01*
X21788Y88462D01*
X21885Y88427D01*
X21982Y88379D01*
X22079Y88323D01*
X22176Y88261D01*
X22274Y88184D01*
X22364Y88101D01*
X22371Y88094D01*
X22385Y88080D01*
X22405Y88052D01*
X22440Y88018D01*
X22475Y87969D01*
X22509Y87914D01*
X22551Y87844D01*
X22600Y87768D01*
X22641Y87685D01*
X22683Y87594D01*
X22718Y87497D01*
X22759Y87386D01*
X22787Y87275D01*
X22808Y87150D01*
X22822Y87019D01*
X22829Y86887D01*
Y86880D01*
Y86873D01*
Y86852D01*
X22822Y86824D01*
X22815Y86762D01*
X22794Y86678D01*
X22766Y86588D01*
X22718Y86498D01*
X22655Y86408D01*
X22565Y86331D01*
X22558D01*
X22537Y86317D01*
X22496Y86304D01*
X22468Y86290D01*
X22433Y86276D01*
X22391Y86262D01*
X22336Y86248D01*
X22280Y86234D01*
X22211Y86213D01*
X22135Y86193D01*
X22045Y86172D01*
X21947Y86151D01*
X21836Y86130D01*
X21829D01*
X21802Y86123D01*
X21760Y86116D01*
X21698Y86102D01*
X21628Y86089D01*
X21552Y86075D01*
X21455Y86061D01*
X21357Y86047D01*
X21142Y86019D01*
X20906Y85991D01*
X20670Y85970D01*
X20448Y85964D01*
X20351D01*
X20275Y85970D01*
X20185D01*
X20074Y85978D01*
X19955Y85984D01*
X19824Y85998D01*
Y85991D01*
Y85984D01*
Y85964D01*
Y85943D01*
X19831Y85873D01*
X19838Y85783D01*
X19858Y85686D01*
X19879Y85568D01*
X19907Y85443D01*
X19955Y85318D01*
X20004Y85193D01*
X20074Y85068D01*
X20157Y84950D01*
X20254Y84853D01*
X20372Y84763D01*
X20511Y84694D01*
X20587Y84673D01*
X20670Y84652D01*
X20761Y84645D01*
X20851Y84638D01*
X20899D01*
X20948Y84645D01*
X21017Y84659D01*
X21094Y84680D01*
X21184Y84707D01*
X21267Y84742D01*
X21357Y84798D01*
X21364Y84805D01*
X21378Y84812D01*
X21413Y84839D01*
X21455Y84874D01*
X21510Y84923D01*
X21586Y84992D01*
X21670Y85075D01*
X21774Y85179D01*
X21781Y85186D01*
X21795Y85200D01*
X21815Y85214D01*
X21843Y85242D01*
X21913Y85277D01*
X21954Y85290D01*
X21996Y85297D01*
X22024D01*
X22051Y85290D01*
X22086Y85283D01*
X22128Y85270D01*
X22169Y85249D01*
X22218Y85221D01*
X22260Y85179D01*
X22266Y85172D01*
X22280Y85158D01*
X22294Y85138D01*
X22315Y85103D01*
X22336Y85061D01*
X22357Y85013D01*
X22364Y84964D01*
X22371Y84902D01*
Y84895D01*
Y84881D01*
X22364Y84853D01*
X22357Y84819D01*
X22343Y84784D01*
X22329Y84742D01*
X22301Y84694D01*
X22266Y84652D01*
X22260Y84645D01*
X22239Y84624D01*
X22204Y84589D01*
X22155Y84548D01*
X22100Y84499D01*
X22031Y84444D01*
X21947Y84381D01*
X21857Y84319D01*
X21753Y84256D01*
X21642Y84194D01*
X21524Y84138D01*
X21392Y84090D01*
X21260Y84048D01*
X21114Y84013D01*
X20969Y83993D01*
X20816Y83986D01*
X20774D01*
X20740Y83993D01*
X20705D01*
X20656Y84000D01*
X20552Y84020D01*
X20421Y84048D01*
X20275Y84090D01*
X20122Y84152D01*
X19963Y84236D01*
X19803Y84340D01*
X19726Y84402D01*
X19650Y84471D01*
X19574Y84548D01*
X19504Y84631D01*
X19435Y84721D01*
X19373Y84825D01*
X19317Y84930D01*
X19268Y85048D01*
X19220Y85179D01*
X19185Y85318D01*
X19150Y85464D01*
X19130Y85624D01*
X19116Y85790D01*
X19109Y85970D01*
Y85984D01*
Y86019D01*
X19116Y86068D01*
Y86144D01*
X19123Y86227D01*
X19137Y86331D01*
X19157Y86449D01*
X19178Y86574D01*
X19206Y86706D01*
X19241Y86852D01*
X19282Y86998D01*
X19338Y87143D01*
X19400Y87296D01*
X19470Y87442D01*
X19553Y87594D01*
X19650Y87733D01*
X19657Y87740D01*
X19678Y87768D01*
X19713Y87810D01*
X19761Y87865D01*
X19824Y87928D01*
X19893Y88004D01*
X19976Y88080D01*
X20074Y88157D01*
X20178Y88233D01*
X20296Y88309D01*
X20421Y88386D01*
X20559Y88448D01*
X20705Y88504D01*
X20858Y88545D01*
X21017Y88573D01*
X21184Y88580D01*
X21253D01*
X21302Y88573D01*
D02*
G37*
G36*
X-3988Y88608D02*
X-3932D01*
X-3856Y88594D01*
X-3772Y88580D01*
X-3682Y88566D01*
X-3578Y88538D01*
X-3467Y88511D01*
X-3356Y88469D01*
X-3245Y88420D01*
X-3127Y88358D01*
X-3016Y88288D01*
X-2898Y88212D01*
X-2794Y88115D01*
X-2690Y88011D01*
X-2683Y88004D01*
X-2669Y87983D01*
X-2641Y87948D01*
X-2606Y87900D01*
X-2565Y87844D01*
X-2523Y87768D01*
X-2475Y87685D01*
X-2419Y87587D01*
X-2371Y87483D01*
X-2322Y87365D01*
X-2280Y87234D01*
X-2239Y87095D01*
X-2204Y86942D01*
X-2176Y86782D01*
X-2162Y86609D01*
X-2155Y86428D01*
Y86415D01*
Y86380D01*
X-2162Y86325D01*
Y86255D01*
X-2176Y86165D01*
X-2190Y86061D01*
X-2204Y85950D01*
X-2232Y85825D01*
X-2266Y85693D01*
X-2308Y85554D01*
X-2357Y85415D01*
X-2419Y85277D01*
X-2488Y85138D01*
X-2572Y84999D01*
X-2662Y84874D01*
X-2773Y84749D01*
X-2780Y84742D01*
X-2801Y84721D01*
X-2835Y84694D01*
X-2884Y84652D01*
X-2946Y84603D01*
X-3023Y84555D01*
X-3113Y84492D01*
X-3210Y84437D01*
X-3321Y84381D01*
X-3446Y84326D01*
X-3585Y84270D01*
X-3731Y84222D01*
X-3890Y84180D01*
X-4057Y84152D01*
X-4237Y84131D01*
X-4425Y84124D01*
X-4459D01*
X-4508Y84131D01*
X-4563D01*
X-4640Y84145D01*
X-4723Y84152D01*
X-4813Y84173D01*
X-4910Y84201D01*
X-5015Y84229D01*
X-5126Y84270D01*
X-5237Y84312D01*
X-5348Y84367D01*
X-5459Y84437D01*
X-5570Y84513D01*
X-5667Y84603D01*
X-5764Y84707D01*
X-5771Y84714D01*
X-5785Y84735D01*
X-5806Y84770D01*
X-5841Y84812D01*
X-5875Y84874D01*
X-5917Y84943D01*
X-5958Y85034D01*
X-6000Y85131D01*
X-6049Y85235D01*
X-6090Y85360D01*
X-6132Y85492D01*
X-6167Y85637D01*
X-6201Y85790D01*
X-6222Y85957D01*
X-6236Y86137D01*
X-6243Y86325D01*
Y86338D01*
Y86373D01*
X-6236Y86428D01*
Y86505D01*
X-6222Y86595D01*
X-6215Y86699D01*
X-6194Y86817D01*
X-6167Y86942D01*
X-6139Y87081D01*
X-6097Y87220D01*
X-6056Y87358D01*
X-6000Y87497D01*
X-5931Y87636D01*
X-5854Y87775D01*
X-5764Y87900D01*
X-5660Y88018D01*
X-5653Y88025D01*
X-5632Y88046D01*
X-5598Y88073D01*
X-5556Y88108D01*
X-5494Y88157D01*
X-5424Y88205D01*
X-5341Y88261D01*
X-5244Y88316D01*
X-5139Y88372D01*
X-5021Y88427D01*
X-4890Y88476D01*
X-4744Y88524D01*
X-4591Y88559D01*
X-4432Y88587D01*
X-4258Y88608D01*
X-4071Y88615D01*
X-4036D01*
X-3988Y88608D01*
D02*
G37*
G36*
X-15411D02*
X-15355D01*
X-15279Y88594D01*
X-15196Y88580D01*
X-15105Y88566D01*
X-15001Y88538D01*
X-14890Y88511D01*
X-14779Y88469D01*
X-14668Y88420D01*
X-14550Y88358D01*
X-14439Y88288D01*
X-14321Y88212D01*
X-14217Y88115D01*
X-14113Y88011D01*
X-14106Y88004D01*
X-14092Y87983D01*
X-14064Y87948D01*
X-14030Y87900D01*
X-13988Y87844D01*
X-13946Y87768D01*
X-13898Y87685D01*
X-13842Y87587D01*
X-13794Y87483D01*
X-13745Y87365D01*
X-13703Y87234D01*
X-13662Y87095D01*
X-13627Y86942D01*
X-13599Y86782D01*
X-13586Y86609D01*
X-13579Y86428D01*
Y86415D01*
Y86380D01*
X-13586Y86325D01*
Y86255D01*
X-13599Y86165D01*
X-13613Y86061D01*
X-13627Y85950D01*
X-13655Y85825D01*
X-13690Y85693D01*
X-13731Y85554D01*
X-13780Y85415D01*
X-13842Y85277D01*
X-13912Y85138D01*
X-13995Y84999D01*
X-14085Y84874D01*
X-14196Y84749D01*
X-14203Y84742D01*
X-14224Y84721D01*
X-14259Y84694D01*
X-14307Y84652D01*
X-14370Y84603D01*
X-14446Y84555D01*
X-14536Y84492D01*
X-14633Y84437D01*
X-14744Y84381D01*
X-14869Y84326D01*
X-15008Y84270D01*
X-15154Y84222D01*
X-15314Y84180D01*
X-15480Y84152D01*
X-15661Y84131D01*
X-15848Y84124D01*
X-15883D01*
X-15931Y84131D01*
X-15987D01*
X-16063Y84145D01*
X-16146Y84152D01*
X-16237Y84173D01*
X-16334Y84201D01*
X-16438Y84229D01*
X-16549Y84270D01*
X-16660Y84312D01*
X-16771Y84367D01*
X-16882Y84437D01*
X-16993Y84513D01*
X-17090Y84603D01*
X-17187Y84707D01*
X-17194Y84714D01*
X-17208Y84735D01*
X-17229Y84770D01*
X-17264Y84812D01*
X-17298Y84874D01*
X-17340Y84943D01*
X-17382Y85034D01*
X-17423Y85131D01*
X-17472Y85235D01*
X-17514Y85360D01*
X-17555Y85492D01*
X-17590Y85637D01*
X-17625Y85790D01*
X-17645Y85957D01*
X-17659Y86137D01*
X-17666Y86325D01*
Y86338D01*
Y86373D01*
X-17659Y86428D01*
Y86505D01*
X-17645Y86595D01*
X-17639Y86699D01*
X-17618Y86817D01*
X-17590Y86942D01*
X-17562Y87081D01*
X-17521Y87220D01*
X-17479Y87358D01*
X-17423Y87497D01*
X-17354Y87636D01*
X-17278Y87775D01*
X-17187Y87900D01*
X-17083Y88018D01*
X-17076Y88025D01*
X-17055Y88046D01*
X-17021Y88073D01*
X-16979Y88108D01*
X-16917Y88157D01*
X-16847Y88205D01*
X-16764Y88261D01*
X-16667Y88316D01*
X-16563Y88372D01*
X-16445Y88427D01*
X-16313Y88476D01*
X-16167Y88524D01*
X-16014Y88559D01*
X-15855Y88587D01*
X-15681Y88608D01*
X-15494Y88615D01*
X-15459D01*
X-15411Y88608D01*
D02*
G37*
G36*
X-20990Y89857D02*
X-20900Y89850D01*
X-20796Y89836D01*
X-20685Y89822D01*
X-20560Y89801D01*
X-20428Y89781D01*
X-20290Y89746D01*
X-20151Y89711D01*
X-20012Y89663D01*
X-19873Y89607D01*
X-19741Y89545D01*
X-19609Y89468D01*
X-19491Y89385D01*
X-19485Y89378D01*
X-19464Y89364D01*
X-19436Y89336D01*
X-19394Y89302D01*
X-19353Y89253D01*
X-19297Y89198D01*
X-19242Y89128D01*
X-19186Y89052D01*
X-19131Y88962D01*
X-19075Y88871D01*
X-19019Y88767D01*
X-18978Y88656D01*
X-18936Y88531D01*
X-18909Y88406D01*
X-18888Y88268D01*
X-18881Y88122D01*
Y88115D01*
Y88087D01*
Y88052D01*
X-18888Y87997D01*
X-18895Y87934D01*
X-18909Y87865D01*
X-18929Y87782D01*
X-18950Y87692D01*
X-18978Y87594D01*
X-19013Y87497D01*
X-19061Y87393D01*
X-19110Y87289D01*
X-19172Y87185D01*
X-19249Y87081D01*
X-19332Y86984D01*
X-19429Y86887D01*
X-19422D01*
X-19401Y86880D01*
X-19374Y86866D01*
X-19332Y86852D01*
X-19283Y86831D01*
X-19228Y86803D01*
X-19103Y86741D01*
X-18957Y86658D01*
X-18804Y86546D01*
X-18659Y86415D01*
X-18527Y86262D01*
X-18520Y86255D01*
X-18513Y86241D01*
X-18499Y86220D01*
X-18478Y86186D01*
X-18450Y86144D01*
X-18423Y86089D01*
X-18395Y86033D01*
X-18360Y85964D01*
X-18332Y85894D01*
X-18305Y85811D01*
X-18249Y85637D01*
X-18214Y85436D01*
X-18201Y85332D01*
Y85221D01*
Y85207D01*
Y85179D01*
X-18207Y85131D01*
X-18214Y85068D01*
X-18228Y84985D01*
X-18242Y84895D01*
X-18270Y84791D01*
X-18305Y84673D01*
X-18346Y84555D01*
X-18402Y84430D01*
X-18471Y84298D01*
X-18548Y84173D01*
X-18645Y84041D01*
X-18756Y83909D01*
X-18881Y83784D01*
X-19026Y83666D01*
X-19033Y83659D01*
X-19054Y83646D01*
X-19096Y83618D01*
X-19151Y83583D01*
X-19214Y83548D01*
X-19290Y83507D01*
X-19387Y83458D01*
X-19485Y83410D01*
X-19602Y83361D01*
X-19727Y83312D01*
X-19859Y83271D01*
X-19998Y83236D01*
X-20151Y83201D01*
X-20310Y83174D01*
X-20477Y83160D01*
X-20650Y83153D01*
X-20734D01*
X-20775Y83160D01*
X-20824D01*
X-20886Y83167D01*
X-20956Y83174D01*
X-21025Y83181D01*
X-21109Y83195D01*
X-21289Y83222D01*
X-21490Y83264D01*
X-21705Y83319D01*
Y83312D01*
Y83306D01*
X-21719Y83264D01*
X-21740Y83208D01*
X-21775Y83146D01*
X-21823Y83083D01*
X-21886Y83028D01*
X-21962Y82986D01*
X-22011Y82979D01*
X-22059Y82972D01*
X-22094D01*
X-22129Y82979D01*
X-22177Y82993D01*
X-22226Y83021D01*
X-22281Y83049D01*
X-22323Y83097D01*
X-22365Y83160D01*
Y83167D01*
X-22378Y83195D01*
X-22385Y83236D01*
X-22399Y83299D01*
X-22413Y83375D01*
X-22427Y83479D01*
X-22434Y83597D01*
X-22441Y83736D01*
Y83743D01*
Y83777D01*
Y83833D01*
X-22434Y83909D01*
Y83965D01*
Y84020D01*
Y84083D01*
X-22427Y84152D01*
Y84236D01*
X-22420Y84319D01*
Y84416D01*
X-22413Y84520D01*
X-22406Y84631D01*
X-22399Y84749D01*
X-22392Y84881D01*
X-22385Y85020D01*
X-22378Y85166D01*
X-22365Y85325D01*
X-22358Y85492D01*
X-22344Y85665D01*
X-22330Y85860D01*
X-22316Y86054D01*
X-22302Y86262D01*
X-22288Y86484D01*
X-22267Y86720D01*
X-22254Y86963D01*
X-22233Y87220D01*
X-22212Y87483D01*
X-22184Y87893D01*
Y87900D01*
Y87921D01*
X-22177Y87955D01*
Y87997D01*
X-22170Y88052D01*
X-22163Y88108D01*
X-22150Y88247D01*
X-22136Y88386D01*
X-22115Y88524D01*
X-22101Y88587D01*
X-22094Y88649D01*
X-22080Y88698D01*
X-22066Y88740D01*
X-22059Y88753D01*
X-22045Y88781D01*
X-22025Y88823D01*
X-21990Y88878D01*
X-21941Y88927D01*
X-21879Y88969D01*
X-21802Y88996D01*
X-21712Y89010D01*
X-21698D01*
X-21664Y89003D01*
X-21608Y88989D01*
X-21546Y88955D01*
X-21490Y88906D01*
X-21462Y88871D01*
X-21435Y88823D01*
X-21414Y88774D01*
X-21400Y88719D01*
X-21386Y88649D01*
Y88573D01*
X-21393Y88559D01*
Y88538D01*
Y88504D01*
X-21400Y88462D01*
X-21407Y88393D01*
X-21414Y88316D01*
X-21428Y88212D01*
X-21442Y88080D01*
X-21449Y88011D01*
X-21455Y87928D01*
X-21462Y87837D01*
X-21469Y87747D01*
X-21476Y87643D01*
X-21490Y87532D01*
X-21497Y87414D01*
X-21511Y87282D01*
Y87275D01*
Y87268D01*
Y87240D01*
X-21518Y87213D01*
Y87178D01*
X-21525Y87129D01*
X-21532Y87081D01*
Y87018D01*
X-21539Y86949D01*
X-21546Y86880D01*
X-21560Y86713D01*
X-21573Y86526D01*
X-21587Y86311D01*
X-21601Y86082D01*
X-21622Y85825D01*
X-21636Y85561D01*
X-21650Y85277D01*
X-21664Y84985D01*
X-21678Y84680D01*
X-21691Y84367D01*
X-21698Y84048D01*
X-21691D01*
X-21671Y84041D01*
X-21636Y84034D01*
X-21594Y84020D01*
X-21539Y84007D01*
X-21476Y83986D01*
X-21407Y83972D01*
X-21330Y83958D01*
X-21157Y83923D01*
X-20970Y83889D01*
X-20782Y83868D01*
X-20595Y83861D01*
X-20526D01*
X-20477Y83868D01*
X-20414Y83875D01*
X-20345Y83882D01*
X-20262Y83895D01*
X-20178Y83909D01*
X-19991Y83958D01*
X-19887Y83993D01*
X-19790Y84027D01*
X-19693Y84076D01*
X-19595Y84124D01*
X-19498Y84187D01*
X-19408Y84256D01*
X-19401Y84263D01*
X-19387Y84277D01*
X-19366Y84298D01*
X-19339Y84326D01*
X-19304Y84360D01*
X-19269Y84409D01*
X-19228Y84458D01*
X-19186Y84520D01*
X-19103Y84659D01*
X-19033Y84819D01*
X-19006Y84909D01*
X-18985Y85006D01*
X-18971Y85110D01*
X-18964Y85214D01*
Y85228D01*
Y85263D01*
X-18971Y85318D01*
X-18985Y85387D01*
X-19013Y85478D01*
X-19047Y85568D01*
X-19096Y85672D01*
X-19158Y85776D01*
X-19242Y85880D01*
X-19346Y85984D01*
X-19471Y86075D01*
X-19616Y86165D01*
X-19707Y86199D01*
X-19797Y86234D01*
X-19901Y86262D01*
X-20005Y86290D01*
X-20123Y86311D01*
X-20248Y86325D01*
X-20380Y86338D01*
X-20609D01*
X-20685Y86331D01*
X-20748D01*
X-20803Y86325D01*
X-20866D01*
X-20900Y86331D01*
X-20956Y86338D01*
X-21011Y86366D01*
X-21074Y86401D01*
X-21129Y86456D01*
X-21164Y86533D01*
X-21171Y86574D01*
X-21178Y86630D01*
Y86637D01*
Y86664D01*
X-21171Y86706D01*
X-21157Y86748D01*
X-21136Y86803D01*
X-21102Y86852D01*
X-21060Y86893D01*
X-20997Y86928D01*
X-20990D01*
X-20977Y86935D01*
X-20949Y86942D01*
X-20914Y86956D01*
X-20873Y86970D01*
X-20817Y86977D01*
X-20754Y86991D01*
X-20678Y86998D01*
X-20664D01*
X-20637Y87005D01*
X-20595D01*
X-20539Y87011D01*
X-20428Y87025D01*
X-20373Y87039D01*
X-20331Y87046D01*
X-20324D01*
X-20317Y87053D01*
X-20283Y87060D01*
X-20227Y87081D01*
X-20158Y87116D01*
X-20074Y87157D01*
X-19991Y87220D01*
X-19915Y87296D01*
X-19838Y87386D01*
X-19831Y87400D01*
X-19811Y87435D01*
X-19776Y87497D01*
X-19741Y87574D01*
X-19707Y87671D01*
X-19672Y87782D01*
X-19651Y87914D01*
X-19644Y88052D01*
Y88060D01*
Y88073D01*
Y88101D01*
X-19651Y88143D01*
X-19658Y88184D01*
X-19665Y88233D01*
X-19700Y88351D01*
X-19748Y88483D01*
X-19783Y88552D01*
X-19831Y88622D01*
X-19880Y88691D01*
X-19936Y88753D01*
X-20005Y88816D01*
X-20081Y88871D01*
X-20088Y88878D01*
X-20102Y88885D01*
X-20130Y88899D01*
X-20165Y88920D01*
X-20206Y88941D01*
X-20262Y88969D01*
X-20324Y88996D01*
X-20401Y89024D01*
X-20484Y89052D01*
X-20574Y89073D01*
X-20678Y89100D01*
X-20789Y89121D01*
X-20907Y89142D01*
X-21039Y89156D01*
X-21178Y89170D01*
X-21379D01*
X-21421Y89163D01*
X-21469D01*
X-21532Y89156D01*
X-21601Y89149D01*
X-21678Y89135D01*
X-21768Y89121D01*
X-21858Y89107D01*
X-22059Y89059D01*
X-22281Y88989D01*
X-22517Y88899D01*
X-22524D01*
X-22545Y88885D01*
X-22573Y88871D01*
X-22614Y88858D01*
X-22663Y88837D01*
X-22712Y88809D01*
X-22830Y88753D01*
X-22837D01*
X-22857Y88740D01*
X-22892Y88733D01*
X-22934Y88719D01*
X-23038Y88698D01*
X-23142Y88684D01*
X-23163D01*
X-23190Y88691D01*
X-23225Y88698D01*
X-23295Y88719D01*
X-23336Y88740D01*
X-23371Y88767D01*
X-23378Y88774D01*
X-23385Y88781D01*
X-23399Y88802D01*
X-23419Y88830D01*
X-23454Y88899D01*
X-23461Y88941D01*
X-23468Y88982D01*
Y88989D01*
X-23461Y89017D01*
X-23447Y89052D01*
X-23426Y89107D01*
X-23385Y89163D01*
X-23315Y89232D01*
X-23281Y89274D01*
X-23232Y89309D01*
X-23177Y89343D01*
X-23114Y89385D01*
X-23107Y89392D01*
X-23079Y89406D01*
X-23031Y89427D01*
X-22968Y89461D01*
X-22892Y89496D01*
X-22795Y89538D01*
X-22691Y89579D01*
X-22566Y89628D01*
X-22427Y89670D01*
X-22281Y89711D01*
X-22122Y89753D01*
X-21948Y89788D01*
X-21768Y89822D01*
X-21573Y89843D01*
X-21372Y89857D01*
X-21164Y89864D01*
X-21060D01*
X-20990Y89857D01*
D02*
G37*
G36*
X-656Y88719D02*
X-601Y88705D01*
X-538Y88684D01*
X-476Y88635D01*
X-427Y88573D01*
X-399Y88531D01*
X-386Y88483D01*
X-379Y88427D01*
X-372Y88365D01*
Y88351D01*
X-379Y88337D01*
Y88323D01*
X-386Y88295D01*
X-393Y88261D01*
X-399Y88219D01*
X-413Y88164D01*
X-427Y88101D01*
X-441Y88025D01*
X-462Y87928D01*
X-483Y87823D01*
X-510Y87699D01*
X-538Y87553D01*
X-531Y87560D01*
X-524Y87574D01*
X-504Y87594D01*
X-483Y87622D01*
X-448Y87657D01*
X-413Y87692D01*
X-316Y87775D01*
X-191Y87851D01*
X-39Y87921D01*
X45Y87948D01*
X142Y87969D01*
X239Y87983D01*
X343Y87990D01*
X385D01*
X419Y87983D01*
X503Y87969D01*
X607Y87941D01*
X718Y87900D01*
X843Y87830D01*
X898Y87789D01*
X961Y87733D01*
X1016Y87678D01*
X1065Y87608D01*
X1072Y87615D01*
X1086Y87643D01*
X1113Y87678D01*
X1148Y87726D01*
X1197Y87782D01*
X1252Y87844D01*
X1322Y87914D01*
X1398Y87983D01*
X1481Y88052D01*
X1578Y88122D01*
X1682Y88184D01*
X1801Y88240D01*
X1918Y88288D01*
X2057Y88323D01*
X2196Y88351D01*
X2349Y88358D01*
X2363D01*
X2404Y88351D01*
X2460Y88344D01*
X2536Y88323D01*
X2633Y88295D01*
X2730Y88254D01*
X2842Y88184D01*
X2960Y88101D01*
X3070Y87997D01*
X3126Y87934D01*
X3181Y87858D01*
X3230Y87782D01*
X3279Y87699D01*
X3327Y87601D01*
X3376Y87497D01*
X3418Y87386D01*
X3452Y87268D01*
X3487Y87136D01*
X3515Y86998D01*
X3536Y86845D01*
X3549Y86685D01*
X3563Y86512D01*
Y86325D01*
Y86317D01*
Y86297D01*
Y86255D01*
Y86207D01*
Y86144D01*
X3556Y86068D01*
Y85984D01*
Y85894D01*
X3549Y85797D01*
X3542Y85686D01*
X3528Y85457D01*
X3508Y85207D01*
X3480Y84950D01*
X3445Y84694D01*
X3404Y84444D01*
X3348Y84215D01*
X3320Y84104D01*
X3286Y84007D01*
X3251Y83916D01*
X3216Y83833D01*
X3175Y83757D01*
X3126Y83694D01*
X3077Y83646D01*
X3029Y83604D01*
X2973Y83583D01*
X2911Y83576D01*
X2897D01*
X2869Y83583D01*
X2834Y83590D01*
X2786Y83618D01*
X2737Y83653D01*
X2703Y83708D01*
X2675Y83784D01*
X2661Y83833D01*
Y83889D01*
Y83902D01*
X2668Y83916D01*
Y83937D01*
Y83958D01*
X2675Y83993D01*
X2682Y84034D01*
X2689Y84090D01*
X2703Y84159D01*
X2710Y84236D01*
X2723Y84333D01*
X2737Y84437D01*
X2758Y84562D01*
X2779Y84707D01*
Y84714D01*
X2786Y84742D01*
X2793Y84791D01*
X2800Y84846D01*
X2807Y84923D01*
X2821Y85013D01*
X2828Y85110D01*
X2842Y85221D01*
X2855Y85339D01*
X2862Y85464D01*
X2876Y85603D01*
X2883Y85742D01*
X2897Y86033D01*
X2904Y86338D01*
Y86345D01*
Y86352D01*
Y86373D01*
Y86394D01*
X2897Y86463D01*
Y86554D01*
X2883Y86651D01*
X2869Y86769D01*
X2848Y86887D01*
X2828Y87018D01*
X2793Y87143D01*
X2751Y87261D01*
X2696Y87379D01*
X2633Y87483D01*
X2564Y87567D01*
X2474Y87636D01*
X2432Y87657D01*
X2376Y87678D01*
X2321Y87685D01*
X2266Y87692D01*
X2245D01*
X2210Y87685D01*
X2175Y87678D01*
X2127Y87671D01*
X2078Y87657D01*
X2023Y87636D01*
X1960Y87608D01*
X1905Y87567D01*
X1842Y87525D01*
X1780Y87470D01*
X1717Y87400D01*
X1662Y87324D01*
X1613Y87234D01*
X1564Y87123D01*
X1530Y87005D01*
Y86998D01*
X1523Y86977D01*
X1516Y86949D01*
X1509Y86901D01*
X1502Y86838D01*
X1488Y86762D01*
X1474Y86664D01*
X1467Y86554D01*
X1453Y86422D01*
X1440Y86276D01*
X1426Y86102D01*
X1419Y85915D01*
X1412Y85707D01*
X1405Y85478D01*
X1398Y85221D01*
Y84943D01*
Y84930D01*
Y84902D01*
Y84853D01*
X1405Y84791D01*
Y84714D01*
X1412Y84624D01*
X1419Y84527D01*
X1433Y84423D01*
Y84409D01*
X1440Y84381D01*
X1446Y84333D01*
X1453Y84277D01*
Y84215D01*
X1460Y84159D01*
X1467Y84118D01*
Y84090D01*
Y84083D01*
Y84076D01*
X1460Y84034D01*
X1446Y83979D01*
X1426Y83916D01*
X1384Y83847D01*
X1322Y83791D01*
X1287Y83771D01*
X1238Y83750D01*
X1190Y83743D01*
X1127Y83736D01*
X1113D01*
X1093Y83743D01*
X1065Y83757D01*
X1037Y83777D01*
X1002Y83805D01*
X961Y83847D01*
X926Y83895D01*
X891Y83965D01*
X850Y84048D01*
X815Y84152D01*
X787Y84284D01*
X759Y84430D01*
X746Y84603D01*
X732Y84694D01*
Y84798D01*
X725Y84909D01*
Y85027D01*
Y85034D01*
Y85054D01*
Y85082D01*
Y85124D01*
Y85172D01*
Y85235D01*
Y85297D01*
X732Y85374D01*
Y85547D01*
X739Y85742D01*
X746Y85950D01*
X759Y86165D01*
Y86172D01*
Y86193D01*
X766Y86220D01*
Y86262D01*
Y86304D01*
X773Y86359D01*
X780Y86470D01*
X787Y86581D01*
X794Y86685D01*
Y86727D01*
X801Y86762D01*
Y86789D01*
Y86803D01*
Y86810D01*
Y86824D01*
Y86852D01*
X794Y86887D01*
X773Y86970D01*
X732Y87074D01*
X704Y87123D01*
X669Y87171D01*
X621Y87213D01*
X565Y87254D01*
X503Y87289D01*
X426Y87317D01*
X343Y87331D01*
X246Y87338D01*
X197D01*
X163Y87331D01*
X121Y87324D01*
X72Y87310D01*
X-46Y87282D01*
X-170Y87220D01*
X-233Y87185D01*
X-295Y87136D01*
X-351Y87088D01*
X-413Y87018D01*
X-462Y86949D01*
X-510Y86866D01*
Y86859D01*
X-518Y86845D01*
X-531Y86817D01*
X-545Y86782D01*
X-566Y86727D01*
X-580Y86672D01*
X-601Y86595D01*
X-622Y86512D01*
X-649Y86422D01*
X-670Y86311D01*
X-684Y86193D01*
X-705Y86061D01*
X-719Y85922D01*
X-733Y85769D01*
X-740Y85603D01*
Y85422D01*
Y85415D01*
Y85395D01*
Y85360D01*
Y85311D01*
Y85256D01*
Y85193D01*
Y85117D01*
X-733Y85034D01*
Y84853D01*
X-726Y84659D01*
X-719Y84451D01*
X-705Y84242D01*
Y84236D01*
Y84222D01*
Y84194D01*
X-698Y84159D01*
X-691Y84076D01*
X-684Y83986D01*
Y83895D01*
X-677Y83854D01*
Y83819D01*
X-670Y83798D01*
Y83777D01*
Y83764D01*
X-677Y83736D01*
X-684Y83701D01*
X-698Y83666D01*
X-712Y83632D01*
X-740Y83590D01*
X-774Y83555D01*
X-781Y83548D01*
X-788Y83542D01*
X-816Y83528D01*
X-844Y83514D01*
X-878Y83493D01*
X-920Y83479D01*
X-969Y83472D01*
X-1024Y83465D01*
X-1038D01*
X-1073Y83472D01*
X-1128Y83500D01*
X-1163Y83514D01*
X-1191Y83542D01*
X-1225Y83576D01*
X-1260Y83618D01*
X-1295Y83666D01*
X-1323Y83722D01*
X-1357Y83791D01*
X-1378Y83875D01*
X-1406Y83972D01*
X-1420Y84076D01*
Y84083D01*
Y84118D01*
X-1427Y84138D01*
Y84173D01*
Y84208D01*
Y84256D01*
X-1434Y84312D01*
Y84374D01*
Y84451D01*
Y84534D01*
X-1441Y84631D01*
Y84735D01*
Y84853D01*
Y84985D01*
Y84992D01*
Y85006D01*
Y85027D01*
Y85054D01*
Y85089D01*
Y85138D01*
Y85186D01*
X-1434Y85249D01*
Y85387D01*
X-1427Y85547D01*
X-1420Y85728D01*
X-1406Y85929D01*
X-1399Y86151D01*
X-1378Y86380D01*
X-1357Y86623D01*
X-1336Y86880D01*
X-1274Y87400D01*
X-1191Y87928D01*
Y87934D01*
X-1184Y87948D01*
Y87969D01*
X-1177Y88004D01*
X-1163Y88080D01*
X-1135Y88177D01*
X-1114Y88282D01*
X-1087Y88379D01*
X-1052Y88469D01*
X-1038Y88504D01*
X-1024Y88538D01*
X-1017Y88545D01*
X-1003Y88566D01*
X-982Y88601D01*
X-948Y88635D01*
X-906Y88663D01*
X-851Y88698D01*
X-788Y88719D01*
X-712Y88726D01*
X-698D01*
X-656Y88719D01*
D02*
G37*
%LPC*%
G36*
X97642Y70291D02*
Y70291D01*
X91980D01*
Y68892D01*
X89197D01*
Y69642D01*
X81488D01*
Y69431D01*
X80972D01*
X80878Y69494D01*
X80020Y69664D01*
X79161Y69494D01*
X78434Y69007D01*
X77947Y68280D01*
X77777Y67421D01*
X77947Y66563D01*
X78254Y66104D01*
X77987Y65604D01*
X13575D01*
X12990Y65488D01*
X12493Y65156D01*
X6498Y59161D01*
X6000Y59210D01*
X5767Y59559D01*
X5040Y60045D01*
X4181Y60216D01*
X3323Y60045D01*
X2595Y59559D01*
X2450Y59342D01*
X1950D01*
X1805Y59559D01*
X1077Y60045D01*
X219Y60216D01*
X-426Y60087D01*
X-864Y60451D01*
X-859Y60473D01*
X-1030Y61331D01*
X-1516Y62059D01*
X-2244Y62545D01*
X-3102Y62716D01*
X-3961Y62545D01*
X-4688Y62059D01*
X-5175Y61331D01*
X-5345Y60473D01*
X-5243Y59957D01*
X-5361Y59532D01*
X-5467Y59396D01*
X-5576Y59315D01*
X-7823D01*
Y59457D01*
X-12382D01*
Y55094D01*
Y51748D01*
X-11632D01*
Y48965D01*
X-13032D01*
Y45697D01*
X-13180Y45652D01*
X-13532Y45575D01*
X-14228Y46041D01*
X-15087Y46212D01*
X-15945Y46041D01*
X-15995Y46008D01*
X-16504D01*
Y46248D01*
X-24213D01*
Y41689D01*
X-23561D01*
Y40748D01*
X-24213D01*
X-24213Y40748D01*
X-24713Y40587D01*
X-25500Y40743D01*
X-26358Y40572D01*
X-27086Y40086D01*
X-27572Y39358D01*
X-27743Y38500D01*
X-27572Y37642D01*
X-27086Y36914D01*
X-27029Y36876D01*
Y24137D01*
X-27219Y23947D01*
X-27968D01*
Y31764D01*
X-29408D01*
Y32866D01*
X-28657D01*
Y37228D01*
X-33217D01*
Y32866D01*
X-32466D01*
Y31764D01*
X-33906D01*
Y24840D01*
X-35938Y22808D01*
X-37811Y24681D01*
Y31764D01*
X-39250D01*
Y32866D01*
X-38500D01*
Y37228D01*
X-43059D01*
Y32866D01*
X-42309D01*
Y31764D01*
X-43748D01*
Y23029D01*
X-50268D01*
Y23779D01*
X-50410D01*
Y24720D01*
X-50268D01*
Y29280D01*
X-50268Y29280D01*
X-50330Y29779D01*
X-50206Y30402D01*
X-50376Y31260D01*
X-50863Y31988D01*
X-51590Y32474D01*
X-52449Y32645D01*
X-53307Y32474D01*
X-54035Y31988D01*
X-54521Y31260D01*
X-54692Y30402D01*
X-54568Y29779D01*
X-54630Y29280D01*
X-54630D01*
Y24720D01*
X-54488D01*
Y23779D01*
X-54630D01*
Y19285D01*
X-55705D01*
X-58707Y22287D01*
Y41437D01*
X-58823Y42022D01*
X-59155Y42518D01*
X-62993Y46357D01*
X-63490Y46689D01*
X-64075Y46805D01*
X-81453D01*
X-82089Y47441D01*
X-81882Y47941D01*
X-81831D01*
Y52500D01*
X-82427D01*
Y58661D01*
X-82544Y59247D01*
X-82875Y59743D01*
X-84631Y61499D01*
X-85127Y61830D01*
X-85713Y61947D01*
X-88913D01*
Y65354D01*
X-94850D01*
Y61931D01*
X-96059D01*
Y65929D01*
X-100618D01*
Y65787D01*
X-101159D01*
X-101208Y65820D01*
X-102067Y65991D01*
X-102925Y65820D01*
X-103653Y65334D01*
X-104139Y64606D01*
X-104310Y63748D01*
X-104139Y62890D01*
X-103653Y62162D01*
X-102925Y61676D01*
X-102067Y61505D01*
X-101208Y61676D01*
X-101159Y61709D01*
X-100618D01*
Y58220D01*
X-96059D01*
Y58872D01*
X-94850D01*
Y55480D01*
X-88913D01*
Y58888D01*
X-86346D01*
X-85486Y58028D01*
Y52500D01*
X-86193D01*
Y47941D01*
X-85541D01*
Y47201D01*
X-85425Y46615D01*
X-85093Y46119D01*
X-83934Y44960D01*
X-84141Y44460D01*
X-84820D01*
X-84870Y44494D01*
X-85728Y44664D01*
X-86587Y44494D01*
X-87314Y44007D01*
X-87801Y43280D01*
X-87972Y42421D01*
X-87801Y41563D01*
X-87314Y40835D01*
X-86587Y40349D01*
X-85728Y40178D01*
X-84870Y40349D01*
X-84820Y40382D01*
X-83677D01*
Y40142D01*
X-75968D01*
Y40892D01*
X-73047D01*
Y40142D01*
X-73047Y40142D01*
X-72957Y39642D01*
X-73109Y38878D01*
X-72960Y38126D01*
X-73231Y37626D01*
X-76661D01*
Y32658D01*
Y28721D01*
X-71661D01*
Y28793D01*
X-69976D01*
X-69976Y28793D01*
X-69430Y28902D01*
X-68967Y29211D01*
X-67249Y30929D01*
X-65821D01*
X-64739Y29847D01*
Y25371D01*
X-69240Y20869D01*
X-69550Y20406D01*
X-69658Y19860D01*
X-69658Y19860D01*
Y4929D01*
X-78098D01*
Y-10929D01*
X-75449D01*
Y-15323D01*
X-75293Y-16103D01*
X-74851Y-16765D01*
X-72330Y-19286D01*
Y-19425D01*
X-72291Y-19622D01*
Y-21984D01*
X-71149D01*
Y-31347D01*
X-74067D01*
Y-30417D01*
X-80988D01*
Y-36354D01*
X-74067D01*
Y-35425D01*
X-71472D01*
Y-39287D01*
Y-42287D01*
X-74098D01*
Y-41323D01*
X-81020D01*
Y-47260D01*
X-79598D01*
Y-52445D01*
X-81020D01*
Y-58382D01*
X-74098D01*
X-74069Y-58870D01*
Y-61181D01*
X-74569Y-61562D01*
X-75295Y-61466D01*
X-76327Y-61602D01*
X-77289Y-62000D01*
X-78114Y-62634D01*
X-78716Y-63418D01*
X-78772Y-63419D01*
X-79216Y-63083D01*
Y-61500D01*
X-87122D01*
Y-69406D01*
X-79216D01*
Y-67822D01*
X-78772Y-67487D01*
X-78716Y-67487D01*
X-78114Y-68272D01*
X-77289Y-68906D01*
X-76327Y-69304D01*
X-75295Y-69440D01*
X-74263Y-69304D01*
X-73302Y-68906D01*
X-72476Y-68272D01*
X-71843Y-67446D01*
X-71629Y-66930D01*
X-71088D01*
X-70874Y-67446D01*
X-70240Y-68272D01*
X-69415Y-68906D01*
X-68453Y-69304D01*
X-67421Y-69440D01*
X-66389Y-69304D01*
X-65428Y-68906D01*
X-64602Y-68272D01*
X-63968Y-67446D01*
X-63570Y-66485D01*
X-63434Y-65453D01*
X-63570Y-64421D01*
X-63968Y-63459D01*
X-64602Y-62634D01*
X-65428Y-62000D01*
X-66389Y-61602D01*
X-67421Y-61466D01*
X-68148Y-61562D01*
X-68648Y-61181D01*
Y-54767D01*
X-65016Y-51136D01*
X-48081D01*
X-47671Y-51636D01*
X-47743Y-52000D01*
X-47631Y-52563D01*
X-47991Y-53063D01*
X-48417D01*
Y-62937D01*
X-42480D01*
Y-53063D01*
X-43009D01*
X-43369Y-52563D01*
X-43257Y-52000D01*
X-43329Y-51636D01*
X-42919Y-51136D01*
X-39665D01*
X-39080Y-51019D01*
X-38584Y-50688D01*
X-35841Y-47945D01*
X-35509Y-47449D01*
X-35393Y-46863D01*
Y-7346D01*
X-32545D01*
Y-21937D01*
X-32429Y-22523D01*
X-32097Y-23019D01*
X-29231Y-25885D01*
X-28735Y-26216D01*
X-28150Y-26333D01*
X-14184D01*
X-13759Y-26575D01*
X-13588Y-27433D01*
X-13102Y-28161D01*
X-12374Y-28647D01*
X-11516Y-28818D01*
X-10657Y-28647D01*
X-9930Y-28161D01*
X-9443Y-27433D01*
X-9273Y-26575D01*
X-9443Y-25716D01*
X-9930Y-24989D01*
X-10657Y-24502D01*
X-11516Y-24332D01*
X-11583Y-24345D01*
X-12042Y-23886D01*
X-11583Y-23427D01*
X-11516Y-23441D01*
X-10657Y-23270D01*
X-9930Y-22784D01*
X-9443Y-22056D01*
X-9273Y-21198D01*
X-9443Y-20339D01*
X-9930Y-19612D01*
X-10657Y-19125D01*
X-11516Y-18955D01*
X-12374Y-19125D01*
X-13102Y-19612D01*
X-13588Y-20339D01*
X-13759Y-21198D01*
X-14184Y-21440D01*
X-22791D01*
X-22965Y-21113D01*
X-23014Y-20940D01*
X-22880Y-20264D01*
X-22855Y-20141D01*
X-22917Y-19780D01*
X-22917D01*
Y-15221D01*
X-23059D01*
Y-14287D01*
X-22917D01*
Y-9728D01*
X-23574D01*
Y-7346D01*
X-23508D01*
Y-3991D01*
X-20154D01*
Y-3921D01*
X-18813D01*
X-18459Y-4275D01*
Y-7087D01*
X-18342Y-7672D01*
X-18011Y-8168D01*
X-15944Y-10235D01*
X-15448Y-10566D01*
X-14862Y-10683D01*
X-14681D01*
Y-11433D01*
X-6972D01*
Y-10584D01*
X-6201D01*
X-5615Y-10468D01*
X-5119Y-10137D01*
X-3938Y-8956D01*
X-3607Y-8459D01*
X-3490Y-7874D01*
Y-7530D01*
X-3434Y-7492D01*
X-2947Y-6764D01*
X-2777Y-5906D01*
X-2790Y-5839D01*
X3423Y375D01*
X3749Y313D01*
X3923Y264D01*
X4227Y-83D01*
X4298Y-216D01*
X4030Y-618D01*
X3859Y-1476D01*
X4030Y-2335D01*
X4109Y-2453D01*
X3906Y-2835D01*
X3906D01*
Y-9165D01*
X4565D01*
Y-10614D01*
X3921D01*
Y-15173D01*
X8283D01*
Y-10614D01*
X7624D01*
Y-9165D01*
X11031D01*
X11434Y-9665D01*
X11340Y-10138D01*
X11510Y-10996D01*
X11997Y-11724D01*
X12724Y-12210D01*
X13583Y-12381D01*
X14441Y-12210D01*
X15169Y-11724D01*
X15655Y-10996D01*
X15826Y-10138D01*
X15732Y-9665D01*
X15748Y-9165D01*
X15748Y-9165D01*
Y-2835D01*
X12095D01*
X11860Y-2394D01*
X11899Y-2335D01*
X12070Y-1476D01*
X11899Y-618D01*
X11631Y-216D01*
X11898Y283D01*
X15748D01*
Y6614D01*
X15604D01*
Y8587D01*
X16394D01*
Y9477D01*
X17497D01*
X17547Y9443D01*
X18406Y9273D01*
X19264Y9443D01*
X19992Y9930D01*
X20478Y10657D01*
X20649Y11516D01*
X20478Y12374D01*
X19992Y13102D01*
X19264Y13588D01*
X18406Y13759D01*
X17547Y13588D01*
X17497Y13555D01*
X16394D01*
Y14445D01*
X10732D01*
Y8587D01*
X11526D01*
Y6614D01*
X11386D01*
Y729D01*
X10886Y462D01*
X10685Y596D01*
X9827Y767D01*
X8968Y596D01*
X8768Y462D01*
X8268Y729D01*
Y6614D01*
X5329D01*
Y13993D01*
X6539Y15203D01*
X11713D01*
X12298Y15319D01*
X12794Y15651D01*
X22881Y25738D01*
X23213Y26234D01*
X23329Y26820D01*
Y32667D01*
X24665Y34002D01*
X28334D01*
X28701Y33681D01*
X28701Y33502D01*
Y27823D01*
X29492D01*
Y26177D01*
X28701D01*
Y20319D01*
X30020D01*
Y15157D01*
X30059Y14961D01*
Y12374D01*
X26941D01*
Y18142D01*
X22579D01*
Y11811D01*
X23770D01*
X23978Y11311D01*
X23271Y10605D01*
X22829Y9943D01*
X22674Y9163D01*
Y8693D01*
X22579D01*
Y2362D01*
X26941D01*
Y8296D01*
X30059D01*
Y2362D01*
X30201D01*
Y181D01*
X28701D01*
Y-5677D01*
X29492D01*
Y-6819D01*
X28701D01*
Y-12677D01*
X29492D01*
Y-13498D01*
X29459Y-13547D01*
X29288Y-14405D01*
X29459Y-15264D01*
X29945Y-15992D01*
X30673Y-16478D01*
X31532Y-16649D01*
X32390Y-16478D01*
X33118Y-15992D01*
X33604Y-15264D01*
X33775Y-14405D01*
X33604Y-13547D01*
X33571Y-13498D01*
Y-12677D01*
X34362D01*
Y-6819D01*
X33571D01*
Y-5677D01*
X34362D01*
Y181D01*
X34279D01*
Y2362D01*
X34421D01*
Y8693D01*
X34279D01*
Y9163D01*
X34124Y9943D01*
X33682Y10605D01*
X33682Y10605D01*
X32976Y11311D01*
X33183Y11811D01*
X34421D01*
Y18142D01*
X34098D01*
Y20319D01*
X34362D01*
Y26177D01*
X33571D01*
Y27823D01*
X34362D01*
Y28713D01*
X35466D01*
X35516Y28680D01*
X36374Y28509D01*
X37232Y28680D01*
X37960Y29166D01*
X38446Y29894D01*
X38617Y30752D01*
X38446Y31610D01*
X37960Y32338D01*
X37232Y32824D01*
X36374Y32995D01*
X35516Y32824D01*
X35466Y32791D01*
X34362D01*
Y33681D01*
X33794D01*
X33781Y33713D01*
X33710Y34181D01*
X34113Y34450D01*
X35481Y35818D01*
X35813Y36315D01*
X35929Y36900D01*
Y42715D01*
X36263Y42857D01*
X36429Y42893D01*
X37126Y42428D01*
X37984Y42257D01*
X38123Y42285D01*
X38465Y42004D01*
Y42004D01*
X45965D01*
X46194Y41724D01*
Y33492D01*
X43744D01*
Y29130D01*
Y25784D01*
X44494D01*
Y24032D01*
X43528D01*
Y15142D01*
X48520D01*
Y15142D01*
X48528D01*
Y15142D01*
X53028D01*
X53520Y15142D01*
X54020Y15142D01*
X58520D01*
Y15142D01*
X58528D01*
Y15142D01*
X63520D01*
Y24032D01*
X62553D01*
Y25784D01*
X63303D01*
Y29130D01*
Y33492D01*
X60853D01*
Y34318D01*
X61024Y34791D01*
X61882Y34962D01*
X62610Y35448D01*
X63096Y36176D01*
X63267Y37034D01*
X63096Y37893D01*
X62610Y38621D01*
X61882Y39107D01*
X61024Y39278D01*
X60165Y39107D01*
X59438Y38621D01*
X58951Y37893D01*
X58869Y37479D01*
X58524Y37308D01*
X58179Y37479D01*
X58096Y37893D01*
X57610Y38621D01*
X56882Y39107D01*
X56024Y39278D01*
X55166Y39107D01*
X54438Y38621D01*
X53952Y37893D01*
X53781Y37034D01*
X53952Y36176D01*
X54438Y35448D01*
X55166Y34962D01*
X56024Y34791D01*
X56194Y34318D01*
Y33492D01*
X53803D01*
X53744Y33492D01*
X53303D01*
X53244Y33492D01*
X50853D01*
Y40428D01*
X55096Y44671D01*
X64646D01*
Y42004D01*
X73535D01*
Y43529D01*
X74035Y43681D01*
X74414Y43114D01*
X75142Y42628D01*
X76000Y42457D01*
X76858Y42628D01*
X77586Y43114D01*
X78072Y43842D01*
X78243Y44700D01*
X78072Y45558D01*
X77586Y46286D01*
X76921Y46730D01*
X76887Y47000D01*
X76921Y47270D01*
X77586Y47714D01*
X78072Y48442D01*
X78243Y49300D01*
X78072Y50158D01*
X77586Y50886D01*
X76858Y51372D01*
X76000Y51543D01*
X75142Y51372D01*
X74414Y50886D01*
X74035Y50320D01*
X73535Y50471D01*
Y51996D01*
X64646D01*
Y49329D01*
X53800D01*
X53215Y49213D01*
X52719Y48882D01*
X47816Y43979D01*
X47354Y44171D01*
Y46996D01*
X47354D01*
X47355Y47004D01*
X47354D01*
Y51996D01*
X38465D01*
Y51996D01*
X38123Y51715D01*
X37984Y51743D01*
X37126Y51572D01*
X36429Y51107D01*
X36122Y51174D01*
X35929Y51235D01*
Y52959D01*
X37467Y54497D01*
X78685D01*
X79121Y54344D01*
Y46444D01*
X80342D01*
Y41195D01*
X72998D01*
Y35695D01*
Y30695D01*
Y25695D01*
X72998D01*
Y21195D01*
X72998D01*
Y15695D01*
Y10695D01*
X72998D01*
Y6195D01*
X72998D01*
Y695D01*
Y-4305D01*
X80898D01*
Y484D01*
X81398Y691D01*
X84434Y-2345D01*
X84420Y-2411D01*
X84591Y-3270D01*
X85077Y-3997D01*
X85805Y-4484D01*
X86663Y-4654D01*
X87522Y-4484D01*
X88249Y-3997D01*
X88736Y-3270D01*
X88907Y-2411D01*
X88736Y-1553D01*
X88249Y-825D01*
X87522Y-339D01*
X86663Y-168D01*
X86597Y-182D01*
X83400Y3015D01*
Y38753D01*
X83900Y38962D01*
X84476Y38577D01*
X85335Y38407D01*
X86193Y38577D01*
X86921Y39064D01*
X86959Y39120D01*
X119193D01*
X119778Y39237D01*
X120274Y39568D01*
X122952Y42246D01*
X123284Y42742D01*
X123400Y43328D01*
Y46444D01*
X139121D01*
Y46444D01*
X144621D01*
Y54344D01*
X143400D01*
Y63838D01*
X143284Y64423D01*
X142952Y64919D01*
X139428Y68444D01*
X138932Y68775D01*
X138347Y68892D01*
X137705D01*
Y70291D01*
X132127D01*
X132043Y70291D01*
Y70291D01*
X131642D01*
X131642Y70291D01*
X131558Y70291D01*
X125980D01*
Y68892D01*
X123197D01*
Y69642D01*
X115488D01*
Y69560D01*
X115093Y69417D01*
X114988Y69404D01*
X114173Y69566D01*
X113315Y69395D01*
X112587Y68909D01*
X112101Y68181D01*
X112035Y67852D01*
X111493Y67688D01*
X110737Y68444D01*
X110241Y68775D01*
X109655Y68892D01*
X103705D01*
Y70291D01*
X98043D01*
Y70291D01*
X97642D01*
D02*
G37*
G36*
X-22441Y65991D02*
X-23071Y65866D01*
X-23571Y65929D01*
Y65929D01*
X-28130D01*
Y61931D01*
X-29098D01*
Y65354D01*
X-35035D01*
Y61947D01*
X-36433D01*
X-37018Y61830D01*
X-37514Y61499D01*
X-40613Y58400D01*
X-40944Y57904D01*
X-41061Y57319D01*
Y52500D01*
X-41713D01*
Y47941D01*
X-37350D01*
Y52500D01*
X-38002D01*
Y56685D01*
X-35800Y58888D01*
X-35035D01*
Y55480D01*
X-29098D01*
Y58872D01*
X-28130D01*
Y58220D01*
X-23571D01*
X-23571Y58220D01*
X-23071Y58284D01*
X-22441Y58158D01*
X-21583Y58329D01*
X-20855Y58815D01*
X-20369Y59543D01*
X-20198Y60402D01*
X-20369Y61260D01*
X-20855Y61988D01*
Y62162D01*
X-20369Y62890D01*
X-20198Y63748D01*
X-20369Y64606D01*
X-20855Y65334D01*
X-21583Y65820D01*
X-22441Y65991D01*
D02*
G37*
G36*
X-121736Y47457D02*
X-132398D01*
Y43378D01*
X-132950D01*
X-133000Y43411D01*
X-133858Y43582D01*
X-134717Y43411D01*
X-135444Y42925D01*
X-135931Y42197D01*
X-136101Y41339D01*
X-135931Y40480D01*
X-135444Y39752D01*
X-135232Y39610D01*
Y39110D01*
X-135433Y38976D01*
X-135919Y38249D01*
X-136090Y37390D01*
X-135919Y36532D01*
X-135433Y35804D01*
X-134705Y35318D01*
X-133847Y35147D01*
X-132988Y35318D01*
X-132930Y35357D01*
X-132398D01*
Y31283D01*
Y27346D01*
Y23409D01*
Y19472D01*
Y15535D01*
Y11598D01*
Y7661D01*
Y3724D01*
Y-213D01*
Y-4150D01*
Y-8087D01*
Y-12024D01*
Y-15961D01*
X-121736D01*
Y-11960D01*
X-107598D01*
Y-12280D01*
X-103236D01*
Y-7721D01*
X-103378D01*
Y-5671D01*
X-102699Y-4992D01*
X-93280D01*
Y-9809D01*
X-93666Y-10126D01*
X-93996Y-10060D01*
X-94854Y-10231D01*
X-95582Y-10717D01*
X-96068Y-11445D01*
X-96239Y-12303D01*
X-96068Y-13161D01*
X-95582Y-13889D01*
X-94854Y-14376D01*
X-93996Y-14546D01*
X-93138Y-14376D01*
X-93088Y-14342D01*
X-88882D01*
Y-15784D01*
X-88842Y-15980D01*
Y-17925D01*
X-92907D01*
X-92957Y-17892D01*
X-93815Y-17721D01*
X-94673Y-17892D01*
X-95401Y-18379D01*
X-95887Y-19106D01*
X-96058Y-19965D01*
X-95887Y-20823D01*
X-95401Y-21551D01*
X-94673Y-22037D01*
X-93815Y-22208D01*
X-92957Y-22037D01*
X-92907Y-22004D01*
X-88842D01*
Y-25724D01*
X-84480D01*
Y-25484D01*
X-83906D01*
Y-25724D01*
X-77378D01*
Y-21165D01*
X-83906D01*
Y-21406D01*
X-84480D01*
Y-21165D01*
X-84622D01*
Y-21136D01*
X-84777Y-20356D01*
X-85220Y-19694D01*
X-85220Y-19694D01*
X-86170Y-18744D01*
X-85962Y-18244D01*
X-84480D01*
Y-18004D01*
X-83906D01*
Y-18244D01*
X-77378D01*
Y-13685D01*
X-83906D01*
Y-13925D01*
X-84480D01*
Y-13685D01*
X-84803D01*
Y-13475D01*
X-84958Y-12694D01*
X-85401Y-12033D01*
X-85401Y-12033D01*
X-86042Y-11391D01*
X-85851Y-10929D01*
X-83902D01*
Y4929D01*
X-84288D01*
Y6221D01*
X-84146D01*
Y10780D01*
X-84288D01*
Y14984D01*
X-83216Y16055D01*
X-82791Y16236D01*
X-82791Y16236D01*
Y16236D01*
X-82791Y16236D01*
X-78429D01*
Y20795D01*
X-78571D01*
Y21736D01*
X-78429D01*
Y26295D01*
X-80629D01*
X-80905Y26350D01*
X-81182Y26295D01*
X-82231D01*
Y28721D01*
X-81261D01*
Y33689D01*
X-83613D01*
X-83761Y33718D01*
X-87681D01*
Y37614D01*
X-92240D01*
Y33252D01*
X-91498D01*
Y30713D01*
X-92256D01*
Y26350D01*
Y23004D01*
X-92008D01*
Y21861D01*
X-92033Y21823D01*
X-92204Y20965D01*
X-92033Y20106D01*
X-91547Y19378D01*
X-90819Y18892D01*
X-89961Y18722D01*
X-89102Y18892D01*
X-88375Y19378D01*
X-87888Y20106D01*
X-87717Y20965D01*
X-87888Y21823D01*
X-87929Y21884D01*
Y23004D01*
X-87697D01*
Y26350D01*
Y30660D01*
X-86261D01*
Y28721D01*
X-85290D01*
Y25198D01*
X-85174Y24612D01*
X-84842Y24116D01*
X-83956Y23230D01*
X-83459Y22898D01*
X-82874Y22782D01*
X-82791D01*
Y21736D01*
X-82649D01*
Y20795D01*
X-82791D01*
Y20549D01*
X-83482D01*
X-83801Y20612D01*
X-84659Y20442D01*
X-85387Y19955D01*
X-85873Y19228D01*
X-85888Y19151D01*
X-87769Y17271D01*
X-88211Y16609D01*
X-88366Y15829D01*
Y10780D01*
X-88508D01*
Y6221D01*
X-88366D01*
Y4929D01*
X-93280D01*
Y-914D01*
X-103543D01*
X-103543Y-914D01*
X-104324Y-1069D01*
X-104985Y-1511D01*
X-106859Y-3385D01*
X-107301Y-4046D01*
X-107457Y-4827D01*
Y-7721D01*
X-107598D01*
Y-7882D01*
X-109190D01*
X-109364Y-7382D01*
X-108951Y-6764D01*
X-108781Y-5906D01*
X-108951Y-5047D01*
X-109438Y-4319D01*
X-109636Y-4187D01*
Y-3687D01*
X-109438Y-3555D01*
X-108951Y-2827D01*
X-108781Y-1969D01*
X-108951Y-1110D01*
X-109438Y-382D01*
X-109636Y-250D01*
Y250D01*
X-109438Y382D01*
X-108951Y1110D01*
X-108781Y1969D01*
X-108951Y2827D01*
X-109438Y3555D01*
X-109636Y3687D01*
Y4187D01*
X-109438Y4319D01*
X-108951Y5047D01*
X-108781Y5906D01*
X-108951Y6764D01*
X-109438Y7492D01*
X-109636Y7624D01*
Y8124D01*
X-109438Y8256D01*
X-108951Y8984D01*
X-108781Y9843D01*
X-108951Y10701D01*
X-109438Y11429D01*
X-109636Y11561D01*
Y12061D01*
X-109438Y12193D01*
X-108951Y12921D01*
X-108781Y13780D01*
X-108951Y14638D01*
X-109438Y15366D01*
X-109919Y15687D01*
X-109767Y16187D01*
X-107598D01*
Y15437D01*
X-103236D01*
Y19996D01*
X-103888D01*
Y20720D01*
X-99890D01*
Y20862D01*
X-99390Y20954D01*
X-99351Y20928D01*
X-98492Y20757D01*
X-97634Y20928D01*
X-96906Y21414D01*
X-96420Y22142D01*
X-96249Y23000D01*
X-96420Y23858D01*
X-96906Y24586D01*
X-97634Y25072D01*
X-98492Y25243D01*
X-99351Y25072D01*
X-99390Y25046D01*
X-99890Y25138D01*
Y25280D01*
X-107598D01*
Y20720D01*
X-106947D01*
Y19996D01*
X-107598D01*
Y19246D01*
X-121736D01*
Y23409D01*
Y27998D01*
X-107598D01*
Y26221D01*
X-103236D01*
Y30779D01*
X-105619D01*
X-105859Y30940D01*
X-106445Y31057D01*
X-121736D01*
Y32203D01*
X-107598D01*
Y31721D01*
X-103236D01*
Y36279D01*
X-107598D01*
Y35262D01*
X-121736D01*
Y39157D01*
Y43095D01*
Y47457D01*
D02*
G37*
G36*
X53520Y-2149D02*
Y-2149D01*
X48528Y-2149D01*
X48028Y-2149D01*
X43528D01*
Y-11039D01*
X43858D01*
X44125Y-11539D01*
X43951Y-11799D01*
X43781Y-12658D01*
X43951Y-13516D01*
X44438Y-14244D01*
X45165Y-14730D01*
X46024Y-14901D01*
X46882Y-14730D01*
X47610Y-14244D01*
X48096Y-13516D01*
X48267Y-12658D01*
X48096Y-11799D01*
X47922Y-11539D01*
X48190Y-11039D01*
X48520D01*
X49141Y-11039D01*
X49494Y-11393D01*
Y-14098D01*
X49398Y-14162D01*
X48912Y-14890D01*
X48741Y-15748D01*
X48912Y-16606D01*
X49398Y-17334D01*
X49494Y-17399D01*
Y-18618D01*
X45617Y-22496D01*
X45156Y-22250D01*
X45255Y-21752D01*
X45084Y-20894D01*
X44598Y-20166D01*
X43870Y-19680D01*
X43012Y-19509D01*
X42153Y-19680D01*
X41426Y-20166D01*
X41388Y-20223D01*
X26969D01*
X26383Y-20339D01*
X25887Y-20671D01*
X21997Y-24560D01*
X21666Y-25056D01*
X21549Y-25642D01*
Y-29122D01*
X19618D01*
Y-33878D01*
X26047D01*
X26254Y-34378D01*
X23919Y-36714D01*
X23587Y-37210D01*
X23471Y-37795D01*
Y-43646D01*
X22720D01*
Y-48008D01*
Y-51354D01*
X25117D01*
X26084Y-52322D01*
X26580Y-52653D01*
X27165Y-52770D01*
X29618D01*
Y-53618D01*
X36539D01*
Y-48862D01*
X29618D01*
Y-49711D01*
X27799D01*
X27279Y-49191D01*
Y-43646D01*
X26529D01*
Y-38429D01*
X28189Y-36770D01*
X29461D01*
Y-37618D01*
X36382D01*
Y-33768D01*
X36417Y-33739D01*
X37276Y-33568D01*
X38003Y-33082D01*
X38165Y-32840D01*
X38665Y-32991D01*
Y-35350D01*
X39415D01*
Y-38927D01*
X39359Y-38965D01*
X38873Y-39693D01*
X38702Y-40551D01*
X38715Y-40618D01*
X37103Y-42230D01*
X36539D01*
Y-41382D01*
X29618D01*
Y-46138D01*
X36539D01*
Y-45289D01*
X37736D01*
X38322Y-45173D01*
X38818Y-44841D01*
X40878Y-42781D01*
X40945Y-42794D01*
X41803Y-42624D01*
X42531Y-42137D01*
X43017Y-41410D01*
X43188Y-40551D01*
X43017Y-39693D01*
X42531Y-38965D01*
X42474Y-38927D01*
Y-36153D01*
X42974Y-36104D01*
X42977Y-36117D01*
X43308Y-36613D01*
X45280Y-38584D01*
X45776Y-38916D01*
X46361Y-39032D01*
X47777D01*
X48094Y-39419D01*
X48083Y-39473D01*
X48204Y-40078D01*
X48454Y-40453D01*
X48204Y-40828D01*
X48083Y-41433D01*
X48204Y-42038D01*
X48457Y-42418D01*
X48204Y-42797D01*
X48083Y-43403D01*
X48204Y-44008D01*
X48546Y-44521D01*
X49060Y-44864D01*
X49665Y-44984D01*
X52106D01*
X52711Y-44864D01*
X53224Y-44521D01*
X53567Y-44008D01*
X53687Y-43403D01*
X53567Y-42797D01*
X53313Y-42418D01*
X53567Y-42038D01*
X53687Y-41433D01*
X53567Y-40828D01*
X53316Y-40453D01*
X53567Y-40078D01*
X53687Y-39473D01*
X53567Y-38868D01*
X53313Y-38488D01*
X53567Y-38108D01*
X53687Y-37503D01*
X53567Y-36898D01*
X53313Y-36518D01*
X53567Y-36138D01*
X53687Y-35533D01*
X53567Y-34927D01*
X53313Y-34548D01*
X53567Y-34168D01*
X53687Y-33563D01*
X54035Y-33215D01*
X54640Y-33094D01*
X55020Y-32841D01*
X55400Y-33094D01*
X56005Y-33215D01*
X56611Y-33094D01*
X56990Y-32841D01*
X57370Y-33094D01*
X57975Y-33215D01*
X58580Y-33094D01*
X59094Y-32752D01*
X59436Y-32239D01*
X59557Y-31633D01*
Y-29192D01*
X59436Y-28587D01*
X59094Y-28074D01*
X58580Y-27731D01*
X57975Y-27611D01*
X57930Y-27620D01*
X57544Y-27302D01*
Y-18209D01*
Y-14288D01*
X57610Y-14244D01*
X58096Y-13516D01*
X58267Y-12658D01*
X58096Y-11799D01*
X57922Y-11539D01*
X58190Y-11039D01*
X58520D01*
X59141Y-11039D01*
X59494Y-11393D01*
Y-14124D01*
X59438Y-14162D01*
X58951Y-14890D01*
X58781Y-15748D01*
X58951Y-16606D01*
X59438Y-17334D01*
X60165Y-17820D01*
X61024Y-17991D01*
X61882Y-17820D01*
X62610Y-17334D01*
X63096Y-16606D01*
X63267Y-15748D01*
X63096Y-14890D01*
X62610Y-14162D01*
X62553Y-14124D01*
Y-11039D01*
X63520D01*
Y-2149D01*
X59020D01*
X58528Y-2149D01*
X58028Y-2149D01*
X53528D01*
Y-2149D01*
X53520D01*
D02*
G37*
G36*
X-103236Y-14598D02*
X-107598D01*
Y-16995D01*
X-110728Y-20124D01*
X-121736D01*
Y-19473D01*
X-132398D01*
Y-23835D01*
Y-27772D01*
Y-31709D01*
Y-35646D01*
Y-39583D01*
Y-43520D01*
Y-47457D01*
X-121736D01*
Y-46805D01*
X-110555D01*
X-107598Y-49761D01*
Y-52157D01*
X-103236D01*
Y-47598D01*
X-105436D01*
X-105915Y-47119D01*
X-105723Y-46657D01*
X-103236D01*
Y-42098D01*
X-104715D01*
X-105194Y-41619D01*
X-105002Y-41157D01*
X-103236D01*
Y-36598D01*
X-105436D01*
X-105714Y-36320D01*
X-105957Y-36158D01*
X-105806Y-35658D01*
X-103236D01*
Y-31098D01*
X-105719D01*
X-105875Y-30644D01*
X-105877Y-30598D01*
X-105436Y-30158D01*
X-103236D01*
Y-25598D01*
X-105723D01*
X-105915Y-25137D01*
X-105436Y-24657D01*
X-103236D01*
Y-20098D01*
X-105723D01*
X-105915Y-19636D01*
X-105436Y-19158D01*
X-103236D01*
Y-14598D01*
D02*
G37*
G36*
X15689Y-16571D02*
X10028D01*
Y-21017D01*
X9827Y-21182D01*
X8968Y-21353D01*
X8241Y-21839D01*
X8215Y-21878D01*
X7715D01*
X7688Y-21839D01*
X6961Y-21353D01*
X6102Y-21182D01*
X5244Y-21353D01*
X4516Y-21839D01*
X4030Y-22567D01*
X3859Y-23425D01*
X4030Y-24284D01*
X4269Y-24642D01*
X4039Y-25142D01*
X4039D01*
Y-29898D01*
X11945D01*
Y-25142D01*
X11927D01*
X11660Y-24642D01*
X11899Y-24284D01*
X12070Y-23425D01*
X11971Y-22929D01*
X12363Y-22429D01*
X15689D01*
Y-22053D01*
X16189Y-21643D01*
X16634Y-21731D01*
X17492Y-21561D01*
X18220Y-21074D01*
X18706Y-20347D01*
X18877Y-19488D01*
X18706Y-18630D01*
X18220Y-17902D01*
X17492Y-17416D01*
X16634Y-17245D01*
X16189Y-17334D01*
X15689Y-16923D01*
Y-16571D01*
D02*
G37*
G36*
X16043Y-23249D02*
X15185Y-23420D01*
X14457Y-23906D01*
X13971Y-24634D01*
X13800Y-25492D01*
X13886Y-25921D01*
X13713Y-26421D01*
X13713D01*
Y-31502D01*
X11945D01*
Y-30654D01*
X4039D01*
Y-31502D01*
X2272D01*
Y-26421D01*
X2272D01*
X2158Y-25921D01*
X2243Y-25492D01*
X2072Y-24634D01*
X1586Y-23906D01*
X858Y-23420D01*
X0Y-23249D01*
X-858Y-23420D01*
X-1586Y-23906D01*
X-2072Y-24634D01*
X-2243Y-25492D01*
X-2158Y-25921D01*
X-2287Y-26421D01*
X-2287D01*
Y-30783D01*
Y-34130D01*
X117D01*
X588Y-34444D01*
X1173Y-34561D01*
X4039D01*
Y-35409D01*
X11945D01*
Y-34561D01*
X14811D01*
X15396Y-34444D01*
X15867Y-34130D01*
X18272D01*
Y-30783D01*
Y-26421D01*
X18272Y-26421D01*
X18272D01*
X18201Y-25921D01*
X18286Y-25492D01*
X18116Y-24634D01*
X17629Y-23906D01*
X16902Y-23420D01*
X16043Y-23249D01*
D02*
G37*
G36*
X67815Y-27611D02*
X67210Y-27731D01*
X66830Y-27985D01*
X66451Y-27731D01*
X65845Y-27611D01*
X65240Y-27731D01*
X64860Y-27985D01*
X64480Y-27731D01*
X63875Y-27611D01*
X63270Y-27731D01*
X62890Y-27985D01*
X62511Y-27731D01*
X61905Y-27611D01*
X61300Y-27731D01*
X60787Y-28074D01*
X60444Y-28587D01*
X60324Y-29192D01*
Y-31633D01*
X60444Y-32239D01*
X60787Y-32752D01*
X61300Y-33094D01*
X61905Y-33215D01*
X62511Y-33094D01*
X62890Y-32841D01*
X63270Y-33094D01*
X63875Y-33215D01*
X64480Y-33094D01*
X64860Y-32841D01*
X65240Y-33094D01*
X65845Y-33215D01*
X66451Y-33094D01*
X66830Y-32841D01*
X67210Y-33094D01*
X67726Y-33197D01*
X67963Y-33362D01*
X68015Y-33415D01*
X68181Y-33652D01*
X68284Y-34168D01*
X68537Y-34548D01*
X68284Y-34927D01*
X68163Y-35533D01*
X68284Y-36138D01*
X68537Y-36518D01*
X68284Y-36898D01*
X68163Y-37503D01*
X68284Y-38108D01*
X68537Y-38488D01*
X68284Y-38868D01*
X68163Y-39473D01*
X68284Y-40078D01*
X68534Y-40453D01*
X68284Y-40828D01*
X68163Y-41433D01*
X68284Y-42038D01*
X68537Y-42418D01*
X68284Y-42797D01*
X68163Y-43403D01*
X68284Y-44008D01*
X68537Y-44388D01*
X68284Y-44767D01*
X68163Y-45373D01*
X68284Y-45978D01*
X68537Y-46358D01*
X68284Y-46738D01*
X68163Y-47343D01*
X68284Y-47948D01*
X68626Y-48461D01*
X69139Y-48804D01*
X69745Y-48924D01*
X72186D01*
X72375Y-48887D01*
X72540Y-48919D01*
X81441D01*
Y-50370D01*
X87102D01*
Y-44512D01*
X86558D01*
X86373Y-44166D01*
X86335Y-44012D01*
X86495Y-43209D01*
X86324Y-42350D01*
X85867Y-41665D01*
X85985Y-41165D01*
X91091D01*
Y-37425D01*
Y-33685D01*
Y-29323D01*
X84760D01*
Y-29807D01*
X84342Y-30077D01*
X83796Y-30185D01*
X83333Y-30495D01*
X83333Y-30495D01*
X80730Y-33098D01*
X79550D01*
X79550Y-33098D01*
X79003Y-33206D01*
X78540Y-33516D01*
X78540Y-33516D01*
X75861Y-36195D01*
X75551Y-36658D01*
X75443Y-37205D01*
X75443Y-37205D01*
Y-42023D01*
X74044D01*
X73727Y-41636D01*
X73767Y-41433D01*
X73647Y-40828D01*
X73396Y-40453D01*
X73647Y-40078D01*
X73767Y-39473D01*
X73647Y-38868D01*
X73393Y-38488D01*
X73647Y-38108D01*
X73767Y-37503D01*
X73647Y-36898D01*
X73393Y-36518D01*
X73647Y-36138D01*
X73767Y-35533D01*
X73647Y-34927D01*
X73393Y-34548D01*
X73647Y-34168D01*
X73767Y-33563D01*
X73647Y-32958D01*
X73304Y-32444D01*
X72791Y-32102D01*
X72186Y-31981D01*
X69837D01*
X69591Y-31787D01*
X69397Y-31541D01*
Y-29192D01*
X69276Y-28587D01*
X68934Y-28074D01*
X68420Y-27731D01*
X67815Y-27611D01*
D02*
G37*
G36*
X-85681Y-30417D02*
X-92602D01*
Y-31347D01*
X-94289D01*
X-94339Y-31313D01*
X-95197Y-31143D01*
X-96055Y-31313D01*
X-96783Y-31800D01*
X-97269Y-32527D01*
X-97440Y-33386D01*
X-97269Y-34244D01*
X-96783Y-34972D01*
X-96055Y-35458D01*
X-95197Y-35629D01*
X-94339Y-35458D01*
X-94289Y-35425D01*
X-92602D01*
Y-36354D01*
X-85681D01*
Y-30417D01*
D02*
G37*
G36*
X129921Y-23784D02*
X122539D01*
X122149Y-23861D01*
X121818Y-24082D01*
X121130Y-24771D01*
X121129Y-24771D01*
X120908Y-25102D01*
X120831Y-25492D01*
Y-32283D01*
X120897Y-32617D01*
X120867Y-32734D01*
X120603Y-33117D01*
X115697D01*
Y-25134D01*
X107697D01*
Y-26996D01*
X107197Y-27088D01*
X107158Y-27062D01*
X106299Y-26891D01*
X105441Y-27062D01*
X104713Y-27548D01*
X104227Y-28275D01*
X104056Y-29134D01*
X104227Y-29992D01*
X104713Y-30720D01*
X105441Y-31206D01*
X106299Y-31377D01*
X107158Y-31206D01*
X107197Y-31180D01*
X107697Y-31272D01*
Y-33117D01*
X105805D01*
X103183Y-30495D01*
X102719Y-30185D01*
X102173Y-30077D01*
X102173Y-30077D01*
X100539D01*
Y-29323D01*
X94209D01*
Y-33685D01*
X100539D01*
Y-32931D01*
X101582D01*
X103895Y-35244D01*
X101582Y-37557D01*
X100539D01*
Y-36803D01*
X94209D01*
Y-41165D01*
X100539D01*
Y-40412D01*
X102173D01*
X102173Y-40412D01*
X102719Y-40303D01*
X103183Y-39994D01*
X105805Y-37372D01*
X112286D01*
X112422Y-37872D01*
X111979Y-38535D01*
X111808Y-39394D01*
X111970Y-40205D01*
X111963Y-40243D01*
X111870Y-40705D01*
X111870D01*
Y-47157D01*
X111232Y-47284D01*
X110478Y-47788D01*
X109975Y-48542D01*
X109798Y-49431D01*
X109975Y-50321D01*
X110478Y-51074D01*
X110582Y-51144D01*
X110431Y-51644D01*
X102279D01*
Y-50992D01*
X97720D01*
Y-55354D01*
X102279D01*
Y-54703D01*
X114398D01*
X114983Y-54586D01*
X115479Y-54255D01*
X116122Y-53612D01*
X116584Y-53803D01*
Y-54921D01*
X116584Y-54921D01*
X116693Y-55467D01*
X117002Y-55931D01*
X117987Y-56915D01*
X118450Y-57224D01*
X118996Y-57333D01*
X118996Y-57333D01*
X122539D01*
X122539Y-57333D01*
X123086Y-57224D01*
X123549Y-56915D01*
X124362Y-56101D01*
X124362Y-56101D01*
X124672Y-55638D01*
X124780Y-55092D01*
X124780Y-55092D01*
Y-54575D01*
X125280Y-54307D01*
X125618Y-54533D01*
X126476Y-54704D01*
X127335Y-54533D01*
X128062Y-54047D01*
X128293Y-53702D01*
X128937Y-53639D01*
X129552Y-54255D01*
X130049Y-54586D01*
X130634Y-54703D01*
X144720D01*
Y-55354D01*
X149279D01*
Y-50992D01*
X144720D01*
Y-51644D01*
X136569D01*
X136417Y-51144D01*
X136521Y-51074D01*
X137025Y-50320D01*
X137202Y-49431D01*
X137025Y-48542D01*
X136521Y-47788D01*
X135767Y-47284D01*
X135549Y-47240D01*
X135145Y-46945D01*
X135222Y-46555D01*
Y-41470D01*
X154413D01*
Y-41650D01*
X158972D01*
Y-38191D01*
X161071D01*
Y-39012D01*
X166929D01*
Y-33350D01*
X161071D01*
Y-34112D01*
X158972D01*
Y-33941D01*
X154413D01*
Y-37392D01*
X135222D01*
Y-29085D01*
X135145Y-28694D01*
X134924Y-28364D01*
X130642Y-24082D01*
X130311Y-23861D01*
X129921Y-23784D01*
D02*
G37*
G36*
X134350Y-8411D02*
X83366D01*
X82781Y-8528D01*
X82285Y-8860D01*
X70922Y-20223D01*
X65896D01*
X65858Y-20166D01*
X65130Y-19680D01*
X64272Y-19509D01*
X63413Y-19680D01*
X62686Y-20166D01*
X62199Y-20894D01*
X62028Y-21752D01*
X62199Y-22610D01*
X62686Y-23338D01*
X63413Y-23824D01*
X64272Y-23995D01*
X65130Y-23824D01*
X65858Y-23338D01*
X65896Y-23281D01*
X71555D01*
X72140Y-23165D01*
X72636Y-22833D01*
X78659Y-16811D01*
X79121Y-17002D01*
Y-22454D01*
X89621D01*
Y-22454D01*
X94121D01*
Y-22454D01*
X114621D01*
Y-22454D01*
X119121D01*
Y-22454D01*
X139621D01*
X139865Y-22853D01*
Y-25433D01*
X139756D01*
Y-29992D01*
X139898D01*
Y-30933D01*
X139756D01*
Y-35492D01*
X144118D01*
Y-35252D01*
X144958D01*
X145008Y-35285D01*
X145866Y-35456D01*
X146724Y-35285D01*
X147452Y-34799D01*
X147939Y-34071D01*
X148109Y-33213D01*
X147939Y-32354D01*
X147452Y-31626D01*
X146724Y-31140D01*
X145866Y-30970D01*
X145008Y-31140D01*
X144958Y-31173D01*
X144118D01*
Y-30933D01*
X143976D01*
Y-29992D01*
X144118D01*
Y-25433D01*
X143943D01*
Y-22454D01*
X144621D01*
Y-14554D01*
X139121D01*
Y-14554D01*
X138400D01*
Y-12461D01*
X138284Y-11876D01*
X137952Y-11380D01*
X135432Y-8860D01*
X134936Y-8528D01*
X134350Y-8411D01*
D02*
G37*
G36*
X96752Y-42147D02*
X95894Y-42317D01*
X95166Y-42804D01*
X94680Y-43531D01*
X94509Y-44390D01*
X94680Y-45248D01*
X95166Y-45976D01*
X95894Y-46462D01*
X96752Y-46633D01*
X97610Y-46462D01*
X98338Y-45976D01*
X98824Y-45248D01*
X98995Y-44390D01*
X98824Y-43531D01*
X98338Y-42804D01*
X97610Y-42317D01*
X96752Y-42147D01*
D02*
G37*
G36*
X-95197Y-39096D02*
X-96055Y-39266D01*
X-96783Y-39753D01*
X-97269Y-40480D01*
X-97440Y-41339D01*
X-97269Y-42197D01*
X-96783Y-42925D01*
X-96055Y-43411D01*
X-95197Y-43582D01*
X-94556Y-43454D01*
X-93386D01*
X-92634Y-44207D01*
Y-47260D01*
X-85713D01*
Y-41323D01*
X-89750D01*
X-91100Y-39973D01*
X-91761Y-39531D01*
X-92541Y-39376D01*
X-94174D01*
X-94339Y-39266D01*
X-95197Y-39096D01*
D02*
G37*
G36*
X52106Y-45761D02*
X49665D01*
X49060Y-45882D01*
X48546Y-46224D01*
X48204Y-46738D01*
X48083Y-47343D01*
X48204Y-47948D01*
X48546Y-48461D01*
X49060Y-48804D01*
X49665Y-48924D01*
X52106D01*
X52711Y-48804D01*
X53224Y-48461D01*
X53567Y-47948D01*
X53687Y-47343D01*
X53567Y-46738D01*
X53224Y-46224D01*
X52711Y-45882D01*
X52106Y-45761D01*
D02*
G37*
G36*
X2461Y-40277D02*
X1602Y-40447D01*
X874Y-40934D01*
X388Y-41661D01*
X218Y-42520D01*
X388Y-43378D01*
X422Y-43428D01*
Y-47791D01*
X477Y-48068D01*
Y-51941D01*
X4445D01*
Y-48068D01*
X4500Y-47791D01*
X4500Y-47791D01*
Y-43428D01*
X4533Y-43378D01*
X4704Y-42520D01*
X4533Y-41661D01*
X4047Y-40934D01*
X3319Y-40447D01*
X2461Y-40277D01*
D02*
G37*
G36*
X46382Y-45122D02*
X39461D01*
Y-49878D01*
X41392D01*
Y-52469D01*
X41508Y-53054D01*
X41840Y-53550D01*
X45867Y-57578D01*
X46363Y-57909D01*
X46949Y-58025D01*
X50148D01*
X50186Y-58082D01*
X50913Y-58568D01*
X51772Y-58739D01*
X52630Y-58568D01*
X53358Y-58082D01*
X53844Y-57354D01*
X54015Y-56496D01*
X53844Y-55638D01*
X53358Y-54910D01*
X52630Y-54424D01*
X51772Y-54253D01*
X50913Y-54424D01*
X50186Y-54910D01*
X50148Y-54967D01*
X47582D01*
X44451Y-51835D01*
Y-49878D01*
X46382D01*
Y-45122D01*
D02*
G37*
G36*
X17634Y-52303D02*
X7367D01*
Y-66114D01*
X17634D01*
Y-52303D01*
D02*
G37*
G36*
X-7366D02*
X-17634D01*
Y-66114D01*
X-7366D01*
Y-52303D01*
D02*
G37*
%LPD*%
G36*
X-13366Y42326D02*
X-13032Y42184D01*
Y37240D01*
X-11632D01*
Y27145D01*
X-15496Y23281D01*
X-16892D01*
X-17225Y23781D01*
X-17156Y24130D01*
Y25189D01*
X-16504D01*
Y29748D01*
X-16646D01*
Y30689D01*
X-16504D01*
Y30929D01*
X-15995D01*
X-15945Y30896D01*
X-15087Y30725D01*
X-14228Y30896D01*
X-13500Y31382D01*
X-13014Y32110D01*
X-12844Y32969D01*
X-13014Y33827D01*
X-13500Y34555D01*
X-14228Y35041D01*
X-15087Y35212D01*
X-15945Y35041D01*
X-15995Y35008D01*
X-16504D01*
Y35248D01*
X-20866D01*
Y30689D01*
X-20724D01*
Y29748D01*
X-20866D01*
Y25189D01*
X-21234Y24881D01*
X-21819Y24765D01*
X-22315Y24433D01*
X-23515Y23234D01*
X-23975Y23480D01*
X-23971Y23504D01*
Y36189D01*
X-19850D01*
Y40748D01*
X-20502D01*
Y41689D01*
X-16504D01*
Y41929D01*
X-15995D01*
X-15945Y41896D01*
X-15087Y41725D01*
X-14228Y41896D01*
X-13532Y42362D01*
X-13366Y42326D01*
D02*
G37*
G36*
X-61766Y40804D02*
Y33827D01*
X-62227Y33636D01*
X-63558Y34966D01*
X-64021Y35276D01*
X-64567Y35384D01*
X-64567Y35384D01*
X-67322D01*
X-68927Y36989D01*
X-69073Y37135D01*
X-69011Y37695D01*
X-68794Y38020D01*
X-68623Y38878D01*
X-68775Y39642D01*
X-68685Y40142D01*
X-68685D01*
Y43746D01*
X-64708D01*
X-61766Y40804D01*
D02*
G37*
G36*
X-24554Y11022D02*
X-24554D01*
Y7823D01*
X-24554D01*
Y5853D01*
Y5116D01*
X-24554D01*
Y1915D01*
X-24554D01*
Y-53D01*
Y-792D01*
X-24554D01*
Y-2946D01*
X-39446D01*
Y-792D01*
X-39446D01*
Y-53D01*
Y1915D01*
X-39446D01*
Y5116D01*
X-39446D01*
Y5853D01*
Y7823D01*
X-39446D01*
Y11022D01*
X-39446D01*
Y11946D01*
X-36553D01*
Y11946D01*
X-33353D01*
Y11946D01*
X-30646D01*
Y11946D01*
X-27446D01*
Y11946D01*
X-24554D01*
Y11022D01*
D02*
G37*
G36*
X-61948Y21749D02*
X-61760Y21625D01*
X-61649Y21068D01*
X-61318Y20572D01*
X-57420Y16674D01*
X-56924Y16343D01*
X-56338Y16226D01*
X-54642D01*
Y12878D01*
X-53990D01*
Y11728D01*
X-57988D01*
Y11488D01*
X-61065D01*
X-61642Y12065D01*
Y16316D01*
X-61609Y16366D01*
X-61438Y17224D01*
X-61609Y18083D01*
X-62095Y18811D01*
X-62823Y19297D01*
X-63681Y19467D01*
X-63976Y19409D01*
X-64222Y19870D01*
X-62227Y21864D01*
X-61948Y21749D01*
D02*
G37*
G36*
X-43846Y3884D02*
X-43846D01*
Y3147D01*
X-43846D01*
Y-53D01*
Y-2022D01*
X-43846D01*
Y-3991D01*
X-40492D01*
Y-7346D01*
X-40421D01*
Y-25933D01*
X-50248D01*
Y-26075D01*
X-52248D01*
X-52248Y-26075D01*
X-53028Y-26230D01*
X-53289Y-26404D01*
X-53433Y-26433D01*
X-55697D01*
Y-26581D01*
X-56921D01*
Y-26445D01*
X-57162D01*
Y-23841D01*
X-57128Y-23791D01*
X-56958Y-22933D01*
X-57128Y-22075D01*
X-57615Y-21347D01*
X-58342Y-20861D01*
X-59201Y-20690D01*
X-60059Y-20861D01*
X-60787Y-21347D01*
X-61273Y-22075D01*
X-61444Y-22933D01*
X-61273Y-23791D01*
X-61240Y-23841D01*
Y-26445D01*
X-61480D01*
Y-30807D01*
X-56921D01*
Y-30659D01*
X-55697D01*
Y-30795D01*
X-51138D01*
Y-30153D01*
X-50248D01*
Y-30295D01*
X-40421D01*
Y-35933D01*
X-50248D01*
Y-38487D01*
X-53436D01*
X-53538Y-37973D01*
X-54024Y-37245D01*
X-54752Y-36759D01*
X-55610Y-36588D01*
X-56469Y-36759D01*
X-57196Y-37245D01*
X-57683Y-37973D01*
X-57853Y-38831D01*
X-57683Y-39690D01*
X-57196Y-40418D01*
Y-40811D01*
X-57683Y-41539D01*
X-57853Y-42397D01*
X-57683Y-43255D01*
X-57196Y-43983D01*
X-56469Y-44469D01*
X-55610Y-44640D01*
X-54752Y-44469D01*
X-54024Y-43983D01*
X-53538Y-43255D01*
X-53436Y-42742D01*
X-50623D01*
X-50623Y-42742D01*
X-50248D01*
Y-45295D01*
X-41418D01*
X-41227Y-45757D01*
X-41668Y-46198D01*
X-66831D01*
X-67416Y-46314D01*
X-67912Y-46646D01*
X-73621Y-52354D01*
X-73630Y-52368D01*
X-74098Y-52445D01*
X-74098Y-52445D01*
X-75520D01*
Y-47260D01*
X-74098D01*
Y-46365D01*
X-70177D01*
X-69397Y-46210D01*
X-68735Y-45768D01*
X-67751Y-44784D01*
X-67751Y-44784D01*
X-67309Y-44122D01*
X-67154Y-43342D01*
X-67154Y-43342D01*
Y-42634D01*
X-66913D01*
Y-39287D01*
Y-34925D01*
X-67071D01*
Y-33661D01*
Y-21984D01*
X-65764D01*
Y-17493D01*
X-62424D01*
X-62424Y-17493D01*
X-61877Y-17384D01*
X-61414Y-17075D01*
X-59622Y-15283D01*
X-59622Y-15283D01*
X-59313Y-14819D01*
X-59204Y-14273D01*
Y-12628D01*
X-58590Y-12505D01*
X-57954Y-12080D01*
X-57628Y-12045D01*
X-57302Y-12080D01*
X-56665Y-12505D01*
X-55807Y-12676D01*
X-54949Y-12505D01*
X-54221Y-12019D01*
X-53735Y-11292D01*
X-53564Y-10433D01*
X-53735Y-9575D01*
X-53768Y-9525D01*
Y-4831D01*
X-50279D01*
Y-1568D01*
X-48763D01*
X-48763Y-1568D01*
X-48217Y-1460D01*
X-47753Y-1150D01*
X-45447Y1156D01*
X-45447Y1156D01*
X-45138Y1619D01*
X-45029Y2165D01*
X-45029Y2165D01*
Y3838D01*
X-44810Y4057D01*
X-43846D01*
Y3884D01*
D02*
G37*
G36*
X134203Y-29085D02*
Y-46555D01*
X131693D01*
Y-35827D01*
X128789Y-32923D01*
X122490D01*
X121850Y-32283D01*
Y-25492D01*
X122539Y-24803D01*
X129921D01*
X134203Y-29085D01*
D02*
G37*
%LPC*%
G36*
X13536Y86082D02*
X13494D01*
X13453Y86075D01*
X13390Y86068D01*
X13321Y86054D01*
X13238Y86033D01*
X13154Y86005D01*
X13071Y85970D01*
X12981Y85922D01*
X12898Y85860D01*
X12814Y85783D01*
X12745Y85700D01*
X12682Y85596D01*
X12641Y85471D01*
X12613Y85332D01*
X12599Y85172D01*
Y85166D01*
Y85131D01*
X12606Y85089D01*
X12613Y85034D01*
X12627Y84964D01*
X12648Y84888D01*
X12675Y84805D01*
X12717Y84721D01*
X12766Y84631D01*
X12828Y84548D01*
X12904Y84471D01*
X12995Y84409D01*
X13099Y84347D01*
X13224Y84305D01*
X13363Y84277D01*
X13529Y84263D01*
X13571D01*
X13599Y84270D01*
X13668Y84277D01*
X13758Y84291D01*
X13862Y84319D01*
X13966Y84360D01*
X14070Y84423D01*
X14161Y84499D01*
X14168Y84513D01*
X14195Y84541D01*
X14237Y84596D01*
X14279Y84673D01*
X14320Y84763D01*
X14362Y84881D01*
X14390Y85013D01*
X14397Y85166D01*
Y85179D01*
Y85207D01*
X14390Y85249D01*
X14383Y85311D01*
X14369Y85381D01*
X14348Y85457D01*
X14327Y85540D01*
X14292Y85624D01*
X14244Y85707D01*
X14188Y85790D01*
X14119Y85866D01*
X14036Y85936D01*
X13938Y85998D01*
X13821Y86040D01*
X13689Y86075D01*
X13536Y86082D01*
D02*
G37*
G36*
X21253Y87928D02*
X21212D01*
X21177Y87921D01*
X21135D01*
X21087Y87914D01*
X20976Y87886D01*
X20851Y87844D01*
X20712Y87789D01*
X20573Y87705D01*
X20504Y87650D01*
X20434Y87594D01*
X20427Y87587D01*
X20421Y87581D01*
X20400Y87560D01*
X20372Y87532D01*
X20344Y87497D01*
X20310Y87456D01*
X20268Y87407D01*
X20226Y87352D01*
X20185Y87282D01*
X20143Y87213D01*
X20094Y87136D01*
X20053Y87053D01*
X19969Y86859D01*
X19893Y86644D01*
X19907D01*
X19935Y86637D01*
X19990D01*
X20053Y86630D01*
X20136Y86623D01*
X20226D01*
X20323Y86616D01*
X20497D01*
X20552Y86623D01*
X20622D01*
X20698Y86630D01*
X20795Y86637D01*
X20899Y86644D01*
X21017Y86658D01*
X21149Y86672D01*
X21288Y86692D01*
X21434Y86713D01*
X21593Y86741D01*
X21760Y86769D01*
X21933Y86803D01*
X22114Y86845D01*
Y86852D01*
Y86866D01*
X22107Y86893D01*
Y86928D01*
X22100Y86970D01*
X22093Y87019D01*
X22072Y87129D01*
X22038Y87261D01*
X21989Y87393D01*
X21926Y87518D01*
X21850Y87636D01*
X21836Y87650D01*
X21809Y87685D01*
X21760Y87726D01*
X21690Y87782D01*
X21600Y87837D01*
X21496Y87879D01*
X21385Y87914D01*
X21253Y87928D01*
D02*
G37*
G36*
X-4182Y87962D02*
X-4237D01*
X-4307Y87948D01*
X-4390Y87934D01*
X-4494Y87914D01*
X-4605Y87879D01*
X-4730Y87823D01*
X-4855Y87761D01*
X-4980Y87671D01*
X-5105Y87567D01*
X-5216Y87435D01*
X-5271Y87358D01*
X-5320Y87275D01*
X-5362Y87185D01*
X-5403Y87088D01*
X-5438Y86984D01*
X-5473Y86873D01*
X-5494Y86748D01*
X-5514Y86616D01*
X-5521Y86477D01*
X-5528Y86331D01*
Y86325D01*
Y86297D01*
Y86262D01*
X-5521Y86207D01*
Y86144D01*
X-5514Y86075D01*
X-5500Y85991D01*
X-5494Y85908D01*
X-5459Y85721D01*
X-5403Y85526D01*
X-5334Y85346D01*
X-5285Y85256D01*
X-5237Y85179D01*
X-5230Y85172D01*
X-5223Y85166D01*
X-5209Y85145D01*
X-5181Y85117D01*
X-5119Y85054D01*
X-5021Y84978D01*
X-4904Y84902D01*
X-4758Y84839D01*
X-4674Y84812D01*
X-4591Y84798D01*
X-4494Y84784D01*
X-4397Y84777D01*
X-4327D01*
X-4279Y84784D01*
X-4216Y84791D01*
X-4147Y84798D01*
X-4071Y84812D01*
X-3988Y84832D01*
X-3807Y84881D01*
X-3717Y84916D01*
X-3627Y84957D01*
X-3529Y85006D01*
X-3446Y85068D01*
X-3356Y85131D01*
X-3280Y85207D01*
X-3273Y85214D01*
X-3259Y85228D01*
X-3245Y85256D01*
X-3217Y85290D01*
X-3182Y85332D01*
X-3148Y85387D01*
X-3113Y85450D01*
X-3071Y85526D01*
X-3037Y85603D01*
X-3002Y85693D01*
X-2967Y85797D01*
X-2933Y85901D01*
X-2905Y86019D01*
X-2891Y86144D01*
X-2877Y86283D01*
X-2870Y86422D01*
Y86428D01*
Y86456D01*
Y86491D01*
X-2877Y86540D01*
X-2884Y86602D01*
X-2891Y86672D01*
X-2898Y86748D01*
X-2912Y86831D01*
X-2953Y87018D01*
X-3016Y87206D01*
X-3057Y87296D01*
X-3106Y87386D01*
X-3162Y87470D01*
X-3224Y87553D01*
X-3231Y87560D01*
X-3238Y87574D01*
X-3259Y87587D01*
X-3286Y87615D01*
X-3321Y87650D01*
X-3363Y87685D01*
X-3418Y87719D01*
X-3474Y87761D01*
X-3536Y87796D01*
X-3613Y87830D01*
X-3772Y87900D01*
X-3870Y87928D01*
X-3967Y87941D01*
X-4071Y87955D01*
X-4182Y87962D01*
D02*
G37*
G36*
X-15605D02*
X-15661D01*
X-15730Y87948D01*
X-15813Y87934D01*
X-15917Y87914D01*
X-16028Y87879D01*
X-16153Y87823D01*
X-16278Y87761D01*
X-16403Y87671D01*
X-16528Y87567D01*
X-16639Y87435D01*
X-16695Y87358D01*
X-16743Y87275D01*
X-16785Y87185D01*
X-16826Y87088D01*
X-16861Y86984D01*
X-16896Y86873D01*
X-16917Y86748D01*
X-16938Y86616D01*
X-16944Y86477D01*
X-16951Y86331D01*
Y86325D01*
Y86297D01*
Y86262D01*
X-16944Y86207D01*
Y86144D01*
X-16938Y86075D01*
X-16924Y85991D01*
X-16917Y85908D01*
X-16882Y85721D01*
X-16826Y85526D01*
X-16757Y85346D01*
X-16709Y85256D01*
X-16660Y85179D01*
X-16653Y85172D01*
X-16646Y85166D01*
X-16632Y85145D01*
X-16604Y85117D01*
X-16542Y85054D01*
X-16445Y84978D01*
X-16327Y84902D01*
X-16181Y84839D01*
X-16098Y84812D01*
X-16014Y84798D01*
X-15917Y84784D01*
X-15820Y84777D01*
X-15751D01*
X-15702Y84784D01*
X-15640Y84791D01*
X-15570Y84798D01*
X-15494Y84812D01*
X-15411Y84832D01*
X-15230Y84881D01*
X-15140Y84916D01*
X-15050Y84957D01*
X-14953Y85006D01*
X-14869Y85068D01*
X-14779Y85131D01*
X-14703Y85207D01*
X-14696Y85214D01*
X-14682Y85228D01*
X-14668Y85256D01*
X-14640Y85290D01*
X-14606Y85332D01*
X-14571Y85387D01*
X-14536Y85450D01*
X-14495Y85526D01*
X-14460Y85603D01*
X-14425Y85693D01*
X-14390Y85797D01*
X-14356Y85901D01*
X-14328Y86019D01*
X-14314Y86144D01*
X-14300Y86283D01*
X-14293Y86422D01*
Y86428D01*
Y86456D01*
Y86491D01*
X-14300Y86540D01*
X-14307Y86602D01*
X-14314Y86672D01*
X-14321Y86748D01*
X-14335Y86831D01*
X-14377Y87018D01*
X-14439Y87206D01*
X-14481Y87296D01*
X-14529Y87386D01*
X-14585Y87470D01*
X-14647Y87553D01*
X-14654Y87560D01*
X-14661Y87574D01*
X-14682Y87587D01*
X-14710Y87615D01*
X-14744Y87650D01*
X-14786Y87685D01*
X-14842Y87719D01*
X-14897Y87761D01*
X-14960Y87796D01*
X-15036Y87830D01*
X-15196Y87900D01*
X-15293Y87928D01*
X-15390Y87941D01*
X-15494Y87955D01*
X-15605Y87962D01*
D02*
G37*
%LPD*%
D17*
X3153Y23377D02*
X7728D01*
X11200Y26850D01*
X3816Y21777D02*
X9623D01*
X3521Y21482D02*
X3521D01*
X4183Y19882D02*
X4479Y20177D01*
X4183Y19882D02*
X4183D01*
X9623Y21777D02*
X17000Y29154D01*
X3800Y14627D02*
X5906Y16732D01*
X2200Y15636D02*
X5141Y18577D01*
X2838Y23130D02*
X2906D01*
X3521Y21482D02*
X3816Y21777D01*
X4479Y20177D02*
X10286D01*
X11713Y16732D02*
X21800Y26820D01*
X5906Y16732D02*
X11713D01*
X10948Y18577D02*
X20200Y27829D01*
X5141Y18577D02*
X10948D01*
X10286Y20177D02*
X18600Y28492D01*
X2906Y23130D02*
X3153Y23377D01*
X21800Y26820D02*
Y33300D01*
X17000Y29154D02*
Y45500D01*
X20200Y27829D02*
Y34200D01*
X18600Y28492D02*
Y35100D01*
X11200Y26850D02*
Y45500D01*
X-18685Y24130D02*
Y27468D01*
X-19463Y23352D02*
X-18685Y24130D01*
X-27804Y20818D02*
X-23767D01*
X-21234Y23352D01*
X-19463D01*
X-20571Y21752D02*
X-14862D01*
X-10102Y26512D02*
Y40071D01*
X-14862Y21752D02*
X-10102Y26512D01*
X-23105Y19218D02*
X-20571Y21752D01*
X-22276Y17618D02*
X-19815Y20079D01*
X-9921D02*
X-3102Y26898D01*
X-19815Y20079D02*
X-9921D01*
X-23594Y14037D02*
X-19201Y18431D01*
X-18538Y16831D02*
X-8466D01*
X-22463Y12906D02*
X-18538Y16831D01*
X-19201Y18431D02*
X-9128D01*
X-8466Y16831D02*
X3000Y28296D01*
X-9128Y18431D02*
X1400Y28959D01*
X-4980Y17817D02*
X5400Y28198D01*
X-4980Y13780D02*
Y17817D01*
X-9154Y13583D02*
X-8957Y13780D01*
X-4980D02*
X-4980Y13780D01*
X-8957Y13780D02*
X-4980D01*
X-5790Y9033D02*
X-4980Y9843D01*
X-9114Y9033D02*
X-5790D01*
X-9154Y-9055D02*
X-6201D01*
X-5020Y-7874D02*
Y-5906D01*
X-6201Y-9055D02*
X-5020Y-7874D01*
Y-5906D02*
X3800Y2914D01*
X-9154Y-9154D02*
Y-9055D01*
X-9154Y-4626D02*
X-8661Y-4134D01*
X-7185D01*
X-5020Y-1969D01*
X-6960Y-11D02*
X-4980Y1969D01*
X-9114Y-11D02*
X-6960D01*
X-6472Y4528D02*
X-5094Y5906D01*
X-9154Y4528D02*
X-6472D01*
X-5094Y5906D02*
X-5020D01*
X3800Y2914D02*
Y14627D01*
X2200Y5251D02*
Y15636D01*
X-5020Y-1969D02*
X2200Y5251D01*
X600Y7549D02*
Y16299D01*
X-4980Y1969D02*
X600Y7549D01*
X-1000Y9925D02*
Y16961D01*
X-5020Y5906D02*
X-1000Y9925D01*
X-2680Y17612D02*
X2838Y23130D01*
X-2680Y12143D02*
Y17612D01*
X-4980Y9843D02*
X-2680Y12143D01*
X-1000Y16961D02*
X3521Y21482D01*
X600Y16299D02*
X4183Y19882D01*
X6095Y-1469D02*
Y3441D01*
Y-1469D02*
X6102Y-1476D01*
X6087Y3449D02*
X6095Y3441D01*
X-16929Y8563D02*
Y11811D01*
X-15157Y13583D02*
X-12500D01*
X-16929Y11811D02*
X-15157Y13583D01*
X-16929Y-7087D02*
Y-3642D01*
X-14862Y-9154D02*
X-12500D01*
X-16929Y-7087D02*
X-14862Y-9154D01*
X-16408Y-422D02*
X-15256Y-1575D01*
X-22354Y-422D02*
X-16408D01*
X-15256Y-4035D02*
Y-1575D01*
X-14665Y-4626D02*
X-12500D01*
X-12500Y-4626D01*
X-15256Y-4035D02*
X-14665Y-4626D01*
X-15256Y6496D02*
Y8366D01*
X-22354Y5485D02*
X-16267D01*
X-15256Y6496D01*
X-14589Y9033D02*
X-12461D01*
X-15256Y8366D02*
X-14589Y9033D01*
X-18039Y7453D02*
X-16929Y8563D01*
X-56338Y17756D02*
X-49131D01*
X-60236Y21654D02*
Y41437D01*
Y21654D02*
X-56338Y17756D01*
X-127067Y5906D02*
X-111024D01*
X-22326Y1575D02*
X-13948D01*
X-22354Y1546D02*
X-22326Y1575D01*
X-13948D02*
X-12461Y87D01*
X-13512Y3515D02*
X-12500Y4528D01*
X-12461Y-11D02*
Y87D01*
X-22354Y3515D02*
X-13512D01*
X-12500Y4429D02*
Y4528D01*
X-13287Y-22969D02*
X-11516Y-21198D01*
X-29046Y-21250D02*
X-27327Y-22969D01*
X-13287D01*
X56705Y31992D02*
X57138D01*
X56024Y31311D02*
X56705Y31992D01*
X57138D02*
X57724Y32578D01*
Y35335D01*
X56024Y37034D02*
X57724Y35335D01*
X-29046Y-21250D02*
Y-5146D01*
X-31016Y-21937D02*
X-28150Y-24803D01*
X-13287D02*
X-11516Y-26575D01*
X-28150Y-24803D02*
X-13287D01*
X59910Y31992D02*
X60343D01*
X59324Y32578D02*
Y35335D01*
Y32578D02*
X59910Y31992D01*
X60343D02*
X61024Y31311D01*
X59324Y35335D02*
X61024Y37034D01*
X-31016Y-21937D02*
Y-5146D01*
X-26943Y19218D02*
X-23105D01*
X-25886Y17618D02*
X-22276D01*
X-22463Y11491D02*
Y12906D01*
X-25008Y14037D02*
X-23594D01*
X-22463Y11491D02*
X-22363Y11391D01*
X-22354D01*
X3000Y28296D02*
Y56791D01*
X1400Y28959D02*
Y56791D01*
X5400Y28198D02*
Y45500D01*
X37984Y49500D02*
X42910D01*
X3000Y56791D02*
X4181Y57972D01*
X37984Y44500D02*
X42910D01*
X219Y57972D02*
X1400Y56791D01*
X-25109Y14137D02*
X-25008Y14037D01*
X-25109Y14137D02*
Y14146D01*
X34400Y48847D02*
Y53593D01*
X33031Y35531D02*
X34400Y36900D01*
X24032Y35531D02*
X33031D01*
X34400Y36900D02*
Y45500D01*
X119193Y40650D02*
X121871Y43328D01*
X85335Y40650D02*
X119193D01*
X121871Y43328D02*
Y50394D01*
X86195Y51070D02*
Y54258D01*
X84426Y56027D02*
X86195Y54258D01*
X36834Y56027D02*
X84426D01*
X86195Y51070D02*
X86871Y50394D01*
X34400Y53593D02*
X36834Y56027D01*
X17975Y62475D02*
X101600D01*
X97736Y60827D02*
X101871Y56692D01*
X22827Y60827D02*
X97736D01*
X17000Y55000D02*
X22827Y60827D01*
X101600Y62475D02*
X106871Y57204D01*
X106988Y64075D02*
X111871Y59192D01*
X28600Y54600D02*
X31627Y57627D01*
X22800Y54800D02*
X27227Y59227D01*
X93824D02*
X96871Y56180D01*
X11200Y55700D02*
X17975Y62475D01*
X13575Y64075D02*
X106988D01*
X5500Y56000D02*
X13575Y64075D01*
X89125Y57627D02*
X91871Y54881D01*
X31627Y57627D02*
X89125D01*
X27227Y59227D02*
X93824D01*
X72621Y47800D02*
X74500D01*
Y46200D02*
X76000Y44700D01*
X72621Y46200D02*
X74500D01*
X72035Y45614D02*
X72621Y46200D01*
X72035Y45496D02*
Y45614D01*
X71039Y44500D02*
X72035Y45496D01*
X69090Y44500D02*
X71039D01*
X69090Y49500D02*
X71039D01*
X72035Y48504D01*
Y48386D02*
Y48504D01*
Y48386D02*
X72621Y47800D01*
X74500D02*
X76000Y49300D01*
X-25850Y60402D02*
X-22441D01*
X-70866Y38878D02*
Y42421D01*
X-78150D02*
X-70866D01*
X-84012Y47201D02*
X-82087Y45276D01*
X-64075D01*
X-84012Y47201D02*
Y50221D01*
X-64075Y45276D02*
X-60236Y41437D01*
X-45500Y-57949D02*
Y-52000D01*
Y-57949D02*
X-45449Y-58000D01*
X-25484Y38484D02*
X-22047D01*
X-25500Y38500D02*
X-25484Y38484D01*
X-22047D02*
X-22031Y38469D01*
X-26586Y22418D02*
X-25500Y23504D01*
Y38500D01*
X-28763Y22418D02*
X-26586D01*
X-32985Y18197D02*
X-28763Y22418D01*
X-32985Y14146D02*
Y18197D01*
X67142Y49500D02*
X69090D01*
X66146Y48504D02*
X67142Y49500D01*
X66146Y48386D02*
Y48504D01*
X53800Y47800D02*
X65560D01*
X66146Y48386D01*
X47724Y41724D02*
X53800Y47800D01*
X47138Y31992D02*
X47724Y32578D01*
Y41724D01*
X46705Y31992D02*
X47138D01*
X46024Y31311D02*
X46705Y31992D01*
X125000Y58600D02*
X128234D01*
X130171Y56663D01*
Y53294D02*
X131871Y51594D01*
X130171Y53294D02*
Y56663D01*
X123500Y60100D02*
X125000Y58600D01*
X131871Y50394D02*
Y51594D01*
X67142Y44500D02*
X69090D01*
X65560Y46200D02*
X66146Y45614D01*
X54463Y46200D02*
X65560D01*
X66146Y45496D02*
X67142Y44500D01*
X66146Y45496D02*
Y45614D01*
X49324Y41061D02*
X54463Y46200D01*
X49324Y32578D02*
X49910Y31992D01*
X49324Y32578D02*
Y41061D01*
X50343Y31992D02*
X51024Y31311D01*
X49910Y31992D02*
X50343D01*
X125000Y57000D02*
X127571D01*
X128571Y56000D01*
Y53294D02*
Y56000D01*
X126871Y51594D02*
X128571Y53294D01*
X123500Y55500D02*
X125000Y57000D01*
X126871Y50394D02*
Y51594D01*
X17000Y48847D02*
Y55000D01*
X11200Y48846D02*
Y55700D01*
X28600Y48847D02*
Y54600D01*
X5500Y48946D02*
Y56000D01*
X22800Y48847D02*
Y54800D01*
X5400Y48846D02*
X5500Y48946D01*
X20200Y34200D02*
X23376Y37376D01*
X21800Y33300D02*
X24032Y35531D01*
X18600Y35100D02*
X22800Y39300D01*
Y45500D01*
X23376Y37376D02*
X26376D01*
X28600Y39600D02*
Y45500D01*
X26376Y37376D02*
X28600Y39600D01*
X-3102Y26898D02*
Y40071D01*
X-127067Y-5906D02*
X-111024D01*
X-127067Y-1969D02*
X-111024D01*
X-127067Y1969D02*
X-111024D01*
X-127067Y9843D02*
X-111024D01*
X-127067Y13780D02*
X-111024D01*
X81871Y2381D02*
Y50394D01*
Y2381D02*
X86663Y-2411D01*
X42921Y-52469D02*
Y-47500D01*
X46949Y-56496D02*
X51772D01*
X42921Y-52469D02*
X46949Y-56496D01*
X84221Y-47390D02*
X84252Y-47421D01*
Y-43209D01*
Y-47421D02*
X84272Y-47441D01*
X50295Y-28150D02*
Y-24705D01*
Y-28150D02*
X52558Y-30413D01*
X49137Y-29452D02*
X50885Y-31200D01*
Y-33563D02*
Y-31200D01*
X47071Y-29452D02*
X49137D01*
X47047Y-29429D02*
X47071Y-29452D01*
X56015Y-27165D02*
Y-18209D01*
Y-6604D01*
Y-30404D02*
Y-27165D01*
X52558Y-30413D02*
X54035D01*
X83366Y-9941D02*
X134350D01*
X136871Y-12461D01*
Y-18504D02*
Y-12461D01*
X71555Y-21752D02*
X83366Y-9941D01*
X64272Y-21752D02*
X71555D01*
X26969D02*
X43012D01*
X23079Y-31500D02*
Y-25642D01*
X26969Y-21752D01*
X9665Y-33031D02*
X14811D01*
X15894Y-31949D01*
X15992D01*
X34350Y-31496D02*
X36417D01*
X32921Y-32925D02*
X34350Y-31496D01*
X32921Y-35240D02*
Y-32925D01*
X33079Y-43760D02*
X37736D01*
X40945Y-40551D02*
Y-33169D01*
X37736Y-43760D02*
X40945Y-40551D01*
X27555Y-35240D02*
X32921D01*
X25000Y-37795D02*
X27555Y-35240D01*
X25000Y-45827D02*
Y-37795D01*
X25098Y-49173D02*
X27165Y-51240D01*
X33079D01*
X25000Y-49173D02*
X25098D01*
X-109921Y-45276D02*
X-105417Y-49779D01*
X-127067Y-45276D02*
X-109921D01*
X-105417Y-49878D02*
Y-49779D01*
Y-16976D02*
Y-16878D01*
X-127067Y-21654D02*
X-110095D01*
X-105417Y-16976D01*
X-127067Y-25591D02*
X-108532D01*
X-105417Y-22476D01*
Y-22378D01*
X-106795Y-37402D02*
X-105417Y-38780D01*
X-127067Y-37402D02*
X-106795D01*
X-105417Y-38878D02*
Y-38780D01*
X-106969Y-29528D02*
X-105417Y-27976D01*
Y-27878D01*
X-127067Y-29528D02*
X-106969D01*
X-86661Y-23445D02*
X-86661Y-23445D01*
X-105685Y33732D02*
X-105417Y34000D01*
X-127067Y33465D02*
X-126799Y33732D01*
X-105685D01*
X-106098Y29280D02*
X-105417Y28598D01*
X-106197Y29280D02*
X-106098D01*
X-106445Y29528D02*
X-106197Y29280D01*
X-105417Y28500D02*
Y28598D01*
X-127067Y29528D02*
X-106445D01*
X-105417Y23000D02*
X-105417Y23000D01*
X-105417Y17717D02*
X-105417Y17717D01*
Y23000D01*
X-105417Y17717D02*
X-105417Y17717D01*
X-127067Y17717D02*
X-127067Y17717D01*
X-105417D01*
X-18179Y-2392D02*
X-16929Y-3642D01*
X-22354Y-2392D02*
X-18179D01*
X-22354Y7453D02*
X-18039D01*
X-52449Y21500D02*
X-42465D01*
X-38892Y14146D02*
Y17927D01*
X-42465Y21500D02*
X-38892Y17927D01*
X-31016Y14146D02*
Y17606D01*
X-27804Y20818D01*
X-29046Y17115D02*
X-26943Y19218D01*
X-29046Y14146D02*
Y17115D01*
X-27077Y16426D02*
X-25886Y17618D01*
X-27077Y14146D02*
Y16426D01*
X-82874Y24311D02*
X-80905D01*
X-83761Y25198D02*
Y30220D01*
Y25198D02*
X-82874Y24311D01*
X-74161Y34157D02*
X-71854D01*
X-70866Y33169D01*
X-89969Y31982D02*
Y35425D01*
Y28539D02*
Y31982D01*
X-89762Y32189D01*
X-83761D01*
X-89976Y28532D02*
X-89969Y28539D01*
Y35425D02*
X-89961Y35433D01*
X-47539Y12894D02*
Y16164D01*
X-46037Y11391D02*
X-41646D01*
X-47539Y12894D02*
X-46037Y11391D01*
X-49131Y17756D02*
X-47539Y16164D01*
X109655Y67362D02*
X113829Y63189D01*
X132776D01*
X100874Y67362D02*
X109655D01*
X111871Y50394D02*
Y59192D01*
X101871Y50394D02*
Y56692D01*
X96871Y50394D02*
Y56180D01*
X132776Y63189D02*
X136871Y59094D01*
X-22031Y38469D02*
Y43968D01*
X-22031Y38469D02*
X-22031Y38469D01*
Y43968D02*
X-22031Y43968D01*
X9665Y-27520D02*
X9827Y-27358D01*
Y-23425D01*
X6102Y-27303D02*
X6319Y-27520D01*
X6102Y-27303D02*
Y-23425D01*
X9827Y-6000D02*
Y-1476D01*
X6095Y-12886D02*
X6102Y-12894D01*
X6095Y-12886D02*
Y-6008D01*
X6087Y-6000D02*
X6095Y-6008D01*
X40846Y-29823D02*
X40945D01*
X38783Y-27760D02*
X40846Y-29823D01*
X32921Y-27760D02*
X38783D01*
X-3102Y46134D02*
X-3102Y46134D01*
Y53929D01*
X-10102Y46134D02*
X-10102Y46134D01*
Y53929D01*
X-36922Y-46863D02*
Y-5146D01*
X-39665Y-49606D02*
X-36922Y-46863D01*
X-65650Y-49606D02*
X-39665D01*
X-70177Y-54134D02*
X-65650Y-49606D01*
X-70177Y-62697D02*
Y-54134D01*
X-72539Y-53436D02*
X-66831Y-47727D01*
X-41034D01*
X-72539Y-62697D02*
Y-53436D01*
X-70177Y-62697D02*
X-67421Y-65453D01*
Y-65453D02*
Y-65453D01*
X-75295Y-65453D02*
Y-65453D01*
X-72539Y-62697D01*
X-38892Y-45584D02*
Y-5146D01*
X-41034Y-47727D02*
X-38892Y-45584D01*
X134874Y67362D02*
X138347D01*
X141871Y50394D02*
Y63838D01*
X138347Y67362D02*
X141871Y63838D01*
X121016Y67362D02*
X128811D01*
X128811Y67362D01*
X91871Y50394D02*
Y54881D01*
X106871Y50394D02*
Y57204D01*
X-25109Y-5146D02*
X-25104Y-5151D01*
Y-12003D02*
X-25098Y-12008D01*
X-25104Y-12003D02*
Y-5151D01*
X-52461Y9449D02*
X-52461Y9449D01*
Y15157D01*
X-52447Y9436D02*
X-41659D01*
X-52461Y9449D02*
X-52447Y9436D01*
X-41659D02*
X-41646Y9422D01*
X-83957Y50276D02*
Y58661D01*
X-84012Y50221D02*
X-83957Y50276D01*
X-85713Y60417D02*
X-83957Y58661D01*
X-91882Y60417D02*
X-85713D01*
X-91898Y60402D02*
X-91882Y60417D01*
X-98339Y60402D02*
X-91898D01*
X-32051D02*
X-25850D01*
X-32067Y60417D02*
X-32051Y60402D01*
X-36433Y60417D02*
X-32067D01*
X-39531Y57319D02*
X-36433Y60417D01*
X-39531Y50221D02*
Y57319D01*
X-30937Y27220D02*
X-30937Y27220D01*
X-30937Y27220D02*
Y35047D01*
X-40939Y25646D02*
Y27220D01*
X-40780Y27220D02*
X-40780Y27220D01*
Y35047D01*
X-36922Y14146D02*
Y21629D01*
X-40939Y25646D02*
X-36922Y21629D01*
X-34953Y21629D02*
X-30937Y25646D01*
Y27220D01*
X-34953Y14146D02*
Y21629D01*
X44390Y-35531D02*
X46361Y-37503D01*
X44390Y-35531D02*
Y-25886D01*
X51024Y-19252D02*
Y-6594D01*
X46361Y-37503D02*
X50885D01*
X44390Y-25886D02*
X51024Y-19252D01*
X61024Y-15748D02*
Y-6594D01*
X46024Y-12658D02*
Y-6594D01*
X48407Y-35513D02*
X50866D01*
X47047Y-34154D02*
X48407Y-35513D01*
X50866D02*
X50885Y-35533D01*
X56005Y-30413D02*
X56015Y-30404D01*
X61024Y19587D02*
Y27965D01*
X56024Y19587D02*
Y27965D01*
X51024Y19587D02*
Y27965D01*
X46024Y19587D02*
Y27965D01*
X136871Y50394D02*
Y59094D01*
X87016Y67362D02*
X94811D01*
X94811Y67362D01*
X-8Y-31949D02*
X91D01*
X1173Y-33031D02*
X6319D01*
X91Y-31949D02*
X1173Y-33031D01*
X56015Y-6604D02*
X56024Y-6594D01*
X79232Y-56890D02*
X82000Y-59658D01*
Y-64827D02*
Y-59658D01*
X67815Y-56890D02*
X79232D01*
X57975Y-57773D02*
Y-50493D01*
X42819Y-61500D02*
X54248D01*
X57975Y-57773D01*
X30461Y-68500D02*
X36756D01*
X36756Y-68500D01*
X36756Y-61500D02*
X36756Y-61500D01*
X30461Y-61500D02*
X36756D01*
X63875Y-61481D02*
Y-50493D01*
Y-61481D02*
X63894Y-61500D01*
X42819Y-68500D02*
X54433D01*
X59945Y-62988D01*
Y-50493D01*
X65845Y-54920D02*
X67815Y-56890D01*
X65845Y-54920D02*
Y-50493D01*
X72540Y-47390D02*
X84221D01*
X116520Y-51051D02*
Y-44748D01*
X114398Y-53173D02*
X116520Y-51051D01*
X100000Y-53173D02*
X114398D01*
X82000Y-64827D02*
X88500D01*
X88500Y-64827D01*
X95500D02*
X95500Y-64827D01*
X88500Y-64827D02*
X95500D01*
X116520Y-44748D02*
X116610Y-44657D01*
X130634Y-53173D02*
X147000D01*
X128512Y-51051D02*
X130634Y-53173D01*
X128512Y-51051D02*
Y-44748D01*
X128421Y-44657D02*
X128512Y-44748D01*
D18*
X123353Y-55092D02*
Y-52473D01*
X118996Y-55905D02*
X122539D01*
X123353Y-55092D01*
X118012Y-54921D02*
X118996Y-55905D01*
X118012Y-54921D02*
Y-52204D01*
X120547Y-49668D01*
Y-44657D01*
X-63311Y24780D02*
Y29860D01*
X-68231Y-8268D02*
Y19860D01*
X-66831Y19280D02*
X-61911Y24200D01*
X-68231Y19860D02*
X-63311Y24780D01*
X-61911Y24200D02*
Y29858D01*
X-66831Y-8268D02*
Y19280D01*
X-61911Y29858D02*
X-61910Y29860D01*
X121476Y-35944D02*
X122047Y-36516D01*
X105213Y-35944D02*
X121476D01*
X105213Y-34544D02*
X122055D01*
X-68231Y-14359D02*
Y-8268D01*
X-63311Y29860D02*
Y30438D01*
X-66831Y-13780D02*
Y-8268D01*
X-61910Y29860D02*
Y31299D01*
X-69976Y30220D02*
X-67840Y32357D01*
X-65230D01*
X-67913Y33957D02*
X-64567D01*
X-65230Y32357D02*
X-63311Y30438D01*
X-64567Y33957D02*
X-61910Y31299D01*
X-74161Y30220D02*
X-69976D01*
X-70083Y36126D02*
X-67913Y33957D01*
X-74161Y36126D02*
X-70083D01*
X-62424Y-16065D02*
X-60632Y-14273D01*
X-66935Y-15655D02*
X-66935D01*
X-66525Y-16065D02*
X-62424D01*
X-63003Y-14665D02*
X-62032Y-13693D01*
X-66935Y-15655D02*
X-66525Y-16065D01*
X-68231Y-14359D02*
X-66935Y-15655D01*
X-66831Y-13780D02*
X-65945Y-14665D01*
X-63003D01*
X-60632Y-14273D02*
Y-11702D01*
X-59449Y-10519D02*
Y-7776D01*
X-62032Y-13693D02*
Y-11702D01*
X-63214Y-10519D02*
Y-7776D01*
X-45401Y5485D02*
X-41646D01*
X-46457Y4429D02*
X-45401Y5485D01*
X-46457Y2165D02*
Y4429D01*
X-48067Y-38114D02*
X-44917D01*
X-48763Y-141D02*
X-46457Y2165D01*
X-52461Y-141D02*
X-48763D01*
X-52461Y-2551D02*
Y-141D01*
X-58507D02*
X-52461D01*
X-48848Y-38895D02*
X-48067Y-38114D01*
X-48848Y-39446D02*
Y-38895D01*
X-50043Y-39914D02*
X-49317D01*
X-48848Y-39446D01*
X-50043Y-39914D02*
X-50043Y-39914D01*
X-54527Y-39914D02*
X-50043D01*
X-55610Y-38831D02*
X-54527Y-39914D01*
X-60532Y-2165D02*
X-58507Y-141D01*
X-60532Y-6693D02*
X-59449Y-7776D01*
X-60532Y-6693D02*
Y-2165D01*
X-45794Y7453D02*
X-41646D01*
X-48057Y5190D02*
X-45794Y7453D01*
X-48057Y2828D02*
Y5190D01*
X-49426Y1459D02*
X-48057Y2828D01*
X-52362Y1459D02*
X-49426D01*
X-52461Y1558D02*
Y3937D01*
Y1558D02*
X-52362Y1459D01*
X-59170D02*
X-52362D01*
X-49317Y-41314D02*
X-48848Y-41783D01*
Y-42333D02*
Y-41783D01*
X-50623Y-41314D02*
X-49317D01*
X-48848Y-42333D02*
X-48067Y-43114D01*
X-44917D01*
X-55610Y-42397D02*
X-54527Y-41314D01*
X-50623D01*
X-50623Y-41314D01*
X-62132Y-1503D02*
X-59170Y1459D01*
X-62132Y-6693D02*
Y-1503D01*
X-63214Y-7776D02*
X-62132Y-6693D01*
X-63214Y-10519D02*
X-62032Y-11702D01*
X-60632D02*
X-59449Y-10519D01*
X124484Y-51341D02*
Y-44657D01*
X123353Y-52473D02*
X124484Y-51341D01*
X126465Y-52449D02*
Y-44669D01*
Y-52449D02*
X126476Y-52461D01*
X120866Y-52366D02*
X122516Y-50716D01*
X120866Y-52461D02*
Y-52366D01*
X122516Y-50716D02*
Y-44657D01*
X126453D02*
X126465Y-44669D01*
X124484Y-44657D02*
Y-36973D01*
X122055Y-34544D02*
X124484Y-36973D01*
X97374Y-31504D02*
X102173D01*
X105213Y-34544D01*
X122047Y-36516D02*
X122516Y-36984D01*
Y-44657D02*
Y-36984D01*
X97374Y-38984D02*
X102173D01*
X105213Y-35944D01*
X79550Y-34525D02*
X81321D01*
X84342Y-31504D02*
X87925D01*
X81321Y-34525D02*
X84342Y-31504D01*
X80129Y-35925D02*
X81382D01*
X76870Y-37205D02*
X79550Y-34525D01*
X84441Y-38984D02*
X87925D01*
X81382Y-35925D02*
X84441Y-38984D01*
X78270Y-37785D02*
X80129Y-35925D01*
X76870Y-42618D02*
Y-37205D01*
X78270Y-43198D02*
Y-37785D01*
X72540Y-45420D02*
X76048D01*
X78270Y-43198D01*
X72540Y-43450D02*
X76038D01*
X76870Y-42618D01*
D19*
X-127024Y-33421D02*
X-105461D01*
X-63681Y11220D02*
X-61910Y9449D01*
X-63681Y11220D02*
Y17224D01*
X-61910Y9449D02*
X-55807D01*
Y3937D02*
Y9449D01*
X-25098Y-20141D02*
Y-12008D01*
X-10102Y57276D02*
X-3102D01*
Y60473D01*
X-18685Y43968D02*
X-15087D01*
X-85728Y42421D02*
X-81496D01*
X-81496Y42421D01*
X-83801Y18355D02*
Y18369D01*
X-86327Y15829D02*
X-83801Y18355D01*
X-83760Y18396D02*
Y18504D01*
X-86327Y8500D02*
Y15829D01*
X-89969Y20973D02*
Y25177D01*
X-89976Y25185D02*
X-89969Y25177D01*
Y20973D02*
X-89961Y20965D01*
X-88638Y-2953D02*
X-88591Y-3000D01*
X-103543Y-2953D02*
X-88638D01*
X-105417Y-4827D02*
X-103543Y-2953D01*
X-105417Y-10000D02*
Y-4827D01*
X-83754Y18510D02*
X-80616D01*
X-83760Y18504D02*
X-83754Y18510D01*
X-25098Y-12008D02*
X-25098Y-12008D01*
X-55807Y-10433D02*
Y-2551D01*
X-102071Y23000D02*
X-98492D01*
X-86327Y-736D02*
Y8500D01*
X-80616Y18510D02*
X-80610Y18516D01*
Y24016D01*
X-52449Y27000D02*
Y30402D01*
X-127067Y-13780D02*
Y-9843D01*
X-126988Y-9921D02*
X-105496D01*
X-105417Y-10000D01*
X-127067Y-9843D02*
X-126988Y-9921D01*
X-127073Y37396D02*
X-127067Y37402D01*
X-133841Y37396D02*
X-127073D01*
X-133847Y37390D02*
X-133841Y37396D01*
X-133858Y41339D02*
X-127067D01*
X-93815Y-19965D02*
X-87833D01*
X-86661Y-21136D01*
Y-23445D02*
Y-21136D01*
X-86843Y-15784D02*
Y-13475D01*
X-88014Y-12303D02*
X-86843Y-13475D01*
X-93996Y-12303D02*
X-88014D01*
X-86843Y-15784D02*
X-86661Y-15965D01*
X-73409Y-15323D02*
X-70291Y-18441D01*
X-73409Y-15323D02*
Y-3000D01*
X-70291Y-19425D02*
Y-18441D01*
Y-19425D02*
X-70012Y-19705D01*
X-69028D01*
X-95197Y-41339D02*
X-95120Y-41415D01*
X-89665Y-44291D02*
X-89173D01*
X-92541Y-41415D02*
X-89665Y-44291D01*
X-95120Y-41415D02*
X-92541D01*
X-110925Y-41339D02*
X-108358D01*
X-127067D02*
X-110925D01*
X-95197Y-33386D02*
X-89142D01*
X-88591Y-3000D02*
X-86327Y-736D01*
X-86661Y-23445D02*
X-80642D01*
X-86661Y-15965D02*
X-80642D01*
X-69110Y-33661D02*
Y-19787D01*
Y-37024D02*
Y-33661D01*
X-77527Y-33386D02*
X-69386D01*
X-69110Y-33661D01*
X-69193Y-37106D02*
X-69110Y-37024D01*
Y-19787D02*
X-69028Y-19705D01*
X-77559Y-55413D02*
Y-44291D01*
X-77524Y-44326D01*
X-70177D01*
X-69193Y-43342D02*
Y-40453D01*
X-70177Y-44326D02*
X-69193Y-43342D01*
X-108358Y-41339D02*
X-105417Y-44280D01*
Y-44378D02*
Y-44280D01*
X-105461Y-33421D02*
X-105417Y-33378D01*
X-127067Y-33465D02*
X-127024Y-33421D01*
X-18685Y32969D02*
X-15087D01*
X-80905Y24311D02*
X-80610Y24016D01*
X-59201Y-28626D02*
Y-22933D01*
Y-28626D02*
X-59201Y-28626D01*
X-59201Y-22933D02*
X-59201Y-22933D01*
X31532Y30752D02*
X36374D01*
X114193Y67343D02*
X117650D01*
X114173Y67323D02*
X114193Y67343D01*
X117650D02*
X117669Y67362D01*
X141937Y-33213D02*
X145866D01*
X-53236Y-28433D02*
X-52567D01*
X-52248Y-28114D02*
X-44917D01*
X-53417Y-28614D02*
X-53236Y-28433D01*
X-52567D02*
X-52248Y-28114D01*
X-59201Y-28626D02*
X-59195Y-28620D01*
X-53423D01*
X-53417Y-28614D01*
X-52449Y21500D02*
Y27000D01*
X-18685Y32969D02*
X-18685Y32969D01*
Y27468D02*
Y32969D01*
X-25850Y63748D02*
X-22441D01*
X-25850Y63748D02*
X-25850Y63748D01*
X-22441D02*
X-22441Y63748D01*
X-102067Y63748D02*
X-98339D01*
X-98339Y63748D01*
X-102067Y63748D02*
X-102067Y63748D01*
X2461Y-47791D02*
Y-42520D01*
Y-47791D02*
X2461Y-47791D01*
X2461Y-42520D02*
X2461Y-42520D01*
X13563Y11516D02*
X18406D01*
X13565Y3451D02*
Y11514D01*
X13563Y11516D02*
X13565Y11514D01*
Y3451D02*
X13567Y3449D01*
X31532Y-14405D02*
Y-9748D01*
X106299Y-29134D02*
X111697D01*
X25885Y10335D02*
X31069D01*
X24713Y5574D02*
Y9163D01*
X32240Y-2039D02*
Y9163D01*
X24713Y5574D02*
X24760Y5528D01*
X24713Y9163D02*
X25885Y10335D01*
X31069D02*
X32240Y9163D01*
X31532Y-2748D02*
X32240Y-2039D01*
X31532Y-9748D02*
Y-2748D01*
X32059Y15157D02*
X32240Y14976D01*
X32059Y15157D02*
Y22720D01*
X31532Y23248D02*
X32059Y22720D01*
X31532Y23248D02*
Y30752D01*
X23130Y-68504D02*
X23132Y-68502D01*
X27112D02*
X27114Y-68500D01*
X23132Y-68502D02*
X27112D01*
X80020Y67421D02*
X80049Y67392D01*
X83640D02*
X83669Y67362D01*
X80049Y67392D02*
X83640D01*
X16018Y-28577D02*
Y-25518D01*
X15992Y-28602D02*
X16018Y-28577D01*
Y-25518D02*
X16043Y-25492D01*
X-4Y-28598D02*
Y-25496D01*
X-8Y-28602D02*
X-4Y-28598D01*
Y-25496D02*
X0Y-25492D01*
X13575Y-10130D02*
Y-6008D01*
X13567Y-6000D02*
X13575Y-6008D01*
Y-10130D02*
X13583Y-10138D01*
X16628Y-19494D02*
X16634Y-19488D01*
X12858Y-19500D02*
X12864Y-19494D01*
X16628D01*
X84153Y-35244D02*
X84153Y-35244D01*
X87925D01*
X27114Y-68500D02*
Y-61500D01*
X59252Y-68504D02*
X59254Y-68502D01*
X63892D02*
X63894Y-68500D01*
X59254Y-68502D02*
X63892D01*
X63894Y-68500D02*
Y-61500D01*
X95500Y-68173D02*
X98980D01*
X156722Y-36152D02*
X163970D01*
X164000Y-36181D01*
X156693Y-36122D02*
X156722Y-36152D01*
X132912Y-39431D02*
X156655D01*
X132874Y-39394D02*
X132912Y-39431D01*
X156655D02*
X156693Y-39469D01*
X141871Y-18504D02*
X141904Y-18537D01*
Y-27680D02*
X141937Y-27713D01*
X141904Y-27680D02*
Y-18537D01*
X141937Y-33213D02*
Y-27713D01*
X114051Y-44657D02*
Y-39394D01*
D20*
X-59547Y-65453D02*
D03*
X-67421D02*
D03*
X-75295D02*
D03*
D21*
X-83169D02*
D03*
D22*
X112122Y-49431D02*
D03*
X134878Y-49431D02*
D03*
D23*
X106492Y-63801D02*
D03*
X140508Y-63801D02*
D03*
D24*
X106492Y-47463D02*
D03*
X140508Y-47463D02*
D03*
D25*
X144783Y-10039D02*
D03*
X143799Y69291D02*
D03*
X148917Y64862D02*
D03*
X126279Y34154D02*
D03*
X126575Y41831D02*
D03*
X135630D02*
D03*
X144685D02*
D03*
X107874Y-2854D02*
D03*
X98671D02*
D03*
Y6791D02*
D03*
Y34154D02*
D03*
Y25787D02*
D03*
X135482Y34154D02*
D03*
Y25787D02*
D03*
X117077Y-2854D02*
D03*
X126279D02*
D03*
X135482D02*
D03*
X144685D02*
D03*
X89468Y6791D02*
D03*
X135482D02*
D03*
X144685D02*
D03*
X89468Y16929D02*
D03*
X98671D02*
D03*
X135482D02*
D03*
X144685D02*
D03*
X89468Y25787D02*
D03*
X107874D02*
D03*
X117077D02*
D03*
X126279D02*
D03*
X144685D02*
D03*
X89468Y34154D02*
D03*
X107874D02*
D03*
X117077D02*
D03*
X144685D02*
D03*
X8790Y-70374D02*
D03*
X-1316D02*
D03*
X-11423D02*
D03*
X-21531D02*
D03*
X-31638D02*
D03*
X-41745D02*
D03*
X-51852D02*
D03*
X-61959D02*
D03*
X-72066D02*
D03*
X-82173D02*
D03*
X-92280D02*
D03*
X-102387D02*
D03*
X-112494D02*
D03*
X-122601D02*
D03*
X-132708D02*
D03*
X-142815D02*
D03*
X18898D02*
D03*
X-46798Y69488D02*
D03*
X-36556D02*
D03*
X-26314D02*
D03*
X-16072D02*
D03*
X-5830D02*
D03*
X4412D02*
D03*
X14654D02*
D03*
X24896D02*
D03*
X35138D02*
D03*
X-138976D02*
D03*
X-128734D02*
D03*
X-118492D02*
D03*
X-108250D02*
D03*
X-98008D02*
D03*
X-87766D02*
D03*
X-77524D02*
D03*
X-67282D02*
D03*
X-57040D02*
D03*
X162500Y-49409D02*
D03*
X155512D02*
D03*
X150394Y-53051D02*
D03*
X148327Y-57972D02*
D03*
Y-64026D02*
D03*
Y-70079D02*
D03*
X-148031Y57284D02*
D03*
X-155217Y48720D02*
D03*
X-162205D02*
D03*
X-169193D02*
D03*
X-150098Y52362D02*
D03*
X-148031Y63337D02*
D03*
Y69390D02*
D03*
X-170177Y-47736D02*
D03*
X-164124D02*
D03*
X-153150Y-49803D02*
D03*
X-149508Y-68898D02*
D03*
Y-61910D02*
D03*
Y-54921D02*
D03*
X-158071Y-47736D02*
D03*
X-164469Y-40846D02*
D03*
Y-30598D02*
D03*
Y-20349D02*
D03*
Y-10101D02*
D03*
Y148D02*
D03*
Y10396D02*
D03*
Y20645D02*
D03*
Y30893D02*
D03*
Y41142D02*
D03*
X169291Y-26181D02*
D03*
Y-48819D02*
D03*
Y-41273D02*
D03*
Y-33727D02*
D03*
X149606Y57579D02*
D03*
X74902Y-61614D02*
D03*
X72441Y-52362D02*
D03*
X96752Y-44390D02*
D03*
X-14469Y27657D02*
D03*
X-59646Y17126D02*
D03*
X-63681Y17224D02*
D03*
X-52362Y-35236D02*
D03*
X-109941Y23819D02*
D03*
X-114469D02*
D03*
X-118996D02*
D03*
X-30906Y42717D02*
D03*
X-31841Y9646D02*
D03*
X-26870D02*
D03*
X-36811D02*
D03*
X-26673Y-886D02*
D03*
X-31791D02*
D03*
X-36909D02*
D03*
X-55905Y35335D02*
D03*
X-64764Y38484D02*
D03*
X-85827Y38189D02*
D03*
X-5020Y-1969D02*
D03*
X-4980Y9843D02*
D03*
X-5020Y-5906D02*
D03*
Y5906D02*
D03*
X-4980Y13780D02*
D03*
Y1969D02*
D03*
X6102Y-1476D02*
D03*
X-111024Y5906D02*
D03*
X-11516Y-21198D02*
D03*
X56024Y37034D02*
D03*
X61024D02*
D03*
X-11516Y-26575D02*
D03*
X37984Y49500D02*
D03*
X4181Y57972D02*
D03*
X37984Y44500D02*
D03*
X219Y57972D02*
D03*
X76000Y44700D02*
D03*
Y49300D02*
D03*
X-22441Y60402D02*
D03*
X-15087Y43968D02*
D03*
X85335Y40650D02*
D03*
X-70866Y38878D02*
D03*
X-85728Y42421D02*
D03*
X-45500Y-52000D02*
D03*
X-25098Y-20141D02*
D03*
X-25500Y38500D02*
D03*
X123500Y60100D02*
D03*
Y55500D02*
D03*
X-83801Y18369D02*
D03*
X-89961Y20965D02*
D03*
X-55807Y-10433D02*
D03*
X-55610Y-38831D02*
D03*
Y-42397D02*
D03*
X-63214Y-10433D02*
D03*
X-59449D02*
D03*
X-98492Y23000D02*
D03*
X-111024Y-5906D02*
D03*
Y-1969D02*
D03*
Y1969D02*
D03*
Y9843D02*
D03*
Y13780D02*
D03*
X-52449Y30402D02*
D03*
X86663Y-2411D02*
D03*
X51772Y-56496D02*
D03*
X84252Y-43209D02*
D03*
X50295Y-24705D02*
D03*
X64272Y-21752D02*
D03*
X43012D02*
D03*
X40945Y-40551D02*
D03*
X36417Y-31496D02*
D03*
X-133847Y37390D02*
D03*
X-133858Y41339D02*
D03*
X-93815Y-19965D02*
D03*
X-93996Y-12303D02*
D03*
X-95197Y-41339D02*
D03*
X-110925D02*
D03*
Y-33421D02*
D03*
X-95197Y-33386D02*
D03*
X-15087Y32969D02*
D03*
X-70866Y33169D02*
D03*
X-3102Y60473D02*
D03*
X6102Y-23425D02*
D03*
X9827D02*
D03*
Y-1476D02*
D03*
X36374Y30752D02*
D03*
X114173Y67323D02*
D03*
X145866Y-33213D02*
D03*
X-59201Y-22933D02*
D03*
X-22441Y63748D02*
D03*
X-102067D02*
D03*
X2461Y-42520D02*
D03*
X18406Y11516D02*
D03*
X31532Y-14405D02*
D03*
X106299Y-29134D02*
D03*
X47047Y-29429D02*
D03*
X50984Y-15748D02*
D03*
X61024D02*
D03*
X56024Y-12658D02*
D03*
X46024D02*
D03*
X47047Y-34154D02*
D03*
X23130Y-68504D02*
D03*
X80020Y67421D02*
D03*
X0Y-25492D02*
D03*
X16043D02*
D03*
X13583Y-10138D02*
D03*
X16634Y-19488D02*
D03*
X84153Y-35244D02*
D03*
X59252Y-68504D02*
D03*
X126476Y-52461D02*
D03*
X120866D02*
D03*
X98980Y-68173D02*
D03*
X132874Y-39394D02*
D03*
X114051Y-39394D02*
D03*
D26*
X65425Y-40453D02*
D03*
X60925Y-44953D02*
D03*
X56425Y-40453D02*
D03*
X60925Y-35953D02*
D03*
X56425D02*
D03*
D27*
X60925Y-40453D02*
D03*
X56425Y-44953D02*
D03*
X65425Y-35953D02*
D03*
Y-44953D02*
D03*
D37*
X-3102Y57276D02*
D03*
Y53929D02*
D03*
X46024Y27965D02*
D03*
Y31311D02*
D03*
X51024Y27965D02*
D03*
Y31311D02*
D03*
X56024D02*
D03*
Y27965D02*
D03*
X61024Y31311D02*
D03*
Y27965D02*
D03*
X5400Y45500D02*
D03*
Y48846D02*
D03*
X11200D02*
D03*
X11200Y45500D02*
D03*
X17000Y48847D02*
D03*
X17000Y45500D02*
D03*
X22800Y48847D02*
D03*
Y45500D02*
D03*
X28600Y48847D02*
D03*
Y45500D02*
D03*
X34400Y48847D02*
D03*
Y45500D02*
D03*
X100000Y-49827D02*
D03*
Y-53173D02*
D03*
X-89961Y38780D02*
D03*
Y35433D02*
D03*
X-89976Y28532D02*
D03*
Y25185D02*
D03*
X-40780Y35047D02*
D03*
Y38394D02*
D03*
X-30937Y35047D02*
D03*
Y38394D02*
D03*
X-59201Y-28626D02*
D03*
Y-31972D02*
D03*
X-53417Y-28614D02*
D03*
X-53417Y-31961D02*
D03*
X15992Y-31949D02*
D03*
Y-28602D02*
D03*
X25000Y-45827D02*
D03*
Y-49173D02*
D03*
X40945Y-33169D02*
D03*
Y-29823D02*
D03*
X82000Y-64827D02*
D03*
Y-68173D02*
D03*
X88500Y-64827D02*
D03*
Y-68173D02*
D03*
X95500Y-68173D02*
D03*
Y-64827D02*
D03*
X156693Y-36122D02*
D03*
Y-39469D02*
D03*
X-10102Y53929D02*
D03*
Y57276D02*
D03*
X-98339Y60402D02*
D03*
Y63748D02*
D03*
X-25850Y60402D02*
D03*
Y63748D02*
D03*
X-8Y-28602D02*
D03*
Y-31949D02*
D03*
X147000Y-53173D02*
D03*
Y-49827D02*
D03*
X-69193Y-40453D02*
D03*
Y-37106D02*
D03*
D38*
X69090Y44500D02*
D03*
X69090Y49500D02*
D03*
X42910Y44500D02*
D03*
X42910Y49500D02*
D03*
D39*
X-9154Y-9154D02*
D03*
X-12500D02*
D03*
X-55795Y21500D02*
D03*
X-52449Y21500D02*
D03*
X-102071Y34000D02*
D03*
X-105417D02*
D03*
Y28500D02*
D03*
X-102071D02*
D03*
X-78150Y42421D02*
D03*
X-81496D02*
D03*
X138591Y-33213D02*
D03*
X141937Y-33213D02*
D03*
X138591Y-27713D02*
D03*
X141937Y-27713D02*
D03*
X-70866Y42421D02*
D03*
X-67520D02*
D03*
X83669Y67362D02*
D03*
X87016D02*
D03*
X117669D02*
D03*
X121016D02*
D03*
X-52461Y-2551D02*
D03*
X-55807D02*
D03*
X-52461Y3937D02*
D03*
X-55807D02*
D03*
X-55807Y9449D02*
D03*
X-52461Y9449D02*
D03*
X-52461Y15157D02*
D03*
X-55807Y15157D02*
D03*
X-52449Y27000D02*
D03*
X-55795Y27000D02*
D03*
X-86661Y-15965D02*
D03*
X-90008D02*
D03*
X-86661Y-23445D02*
D03*
X-90008D02*
D03*
X-102071Y17717D02*
D03*
X-105417D02*
D03*
X-105417Y23000D02*
D03*
X-102071D02*
D03*
X-102071Y-49878D02*
D03*
X-105417D02*
D03*
X-102071Y-44378D02*
D03*
X-105417D02*
D03*
Y-38878D02*
D03*
X-102071D02*
D03*
X-105417Y-33378D02*
D03*
X-102071D02*
D03*
X-105417Y-27878D02*
D03*
X-102071D02*
D03*
X-105417Y-22378D02*
D03*
X-102071D02*
D03*
X-102071Y-10000D02*
D03*
X-105417D02*
D03*
X-105417Y-16878D02*
D03*
X-102071D02*
D03*
X-86327Y8500D02*
D03*
X-89673D02*
D03*
X-77264Y18516D02*
D03*
X-80610D02*
D03*
X-80665Y50221D02*
D03*
X-84012D02*
D03*
X-42878Y50221D02*
D03*
X-39531D02*
D03*
X-18685Y27468D02*
D03*
X-22031D02*
D03*
X-18685Y32969D02*
D03*
X-22031D02*
D03*
X-22031Y38469D02*
D03*
X-18685D02*
D03*
X-18685Y43968D02*
D03*
X-22031D02*
D03*
X-12500Y-4626D02*
D03*
X-9154Y-4626D02*
D03*
X-12461Y-11D02*
D03*
X-9114Y-11D02*
D03*
X6102Y-12894D02*
D03*
X9449D02*
D03*
X27114Y-68500D02*
D03*
X30461Y-68500D02*
D03*
X27114Y-61500D02*
D03*
X30461Y-61500D02*
D03*
X-21752Y-17500D02*
D03*
X-25098D02*
D03*
X-21752Y-12008D02*
D03*
X-25098Y-12008D02*
D03*
X-80610Y24016D02*
D03*
X-77264D02*
D03*
X-9114Y9033D02*
D03*
X-12461Y9033D02*
D03*
X-9154Y13583D02*
D03*
X-12500D02*
D03*
X-9154Y4528D02*
D03*
X-12500Y4528D02*
D03*
D40*
X-27077Y14146D02*
D03*
X-38892D02*
D03*
X-36922D02*
D03*
X-34953Y14146D02*
D03*
X-32985Y14146D02*
D03*
X-31016D02*
D03*
X-29046Y14146D02*
D03*
X-25109Y14146D02*
D03*
X-32985Y-5146D02*
D03*
X-34953D02*
D03*
X-36922D02*
D03*
X-38892D02*
D03*
X-27077D02*
D03*
X-29046D02*
D03*
X-31016D02*
D03*
X-25109D02*
D03*
D41*
X-22354Y-422D02*
D03*
Y1546D02*
D03*
X-22354Y-2392D02*
D03*
Y3515D02*
D03*
X-22354Y5485D02*
D03*
Y7453D02*
D03*
X-22354Y9422D02*
D03*
X-22354Y11391D02*
D03*
X-41646Y-2392D02*
D03*
X-41646Y-422D02*
D03*
Y1546D02*
D03*
X-41646Y3515D02*
D03*
X-41646Y5485D02*
D03*
Y7453D02*
D03*
X-41646Y9422D02*
D03*
X-41646Y11391D02*
D03*
D42*
X-32000Y4500D02*
D03*
D43*
X-80642Y-23445D02*
D03*
Y-15965D02*
D03*
X-69028Y-19705D02*
D03*
D44*
X90335Y-47441D02*
D03*
X84272D02*
D03*
X94811Y67362D02*
D03*
X100874D02*
D03*
X128811D02*
D03*
X134874D02*
D03*
X25469Y-9748D02*
D03*
X31532D02*
D03*
X25469Y-2748D02*
D03*
X31532D02*
D03*
X25469Y23248D02*
D03*
X31532D02*
D03*
X25469Y30752D02*
D03*
X31532D02*
D03*
X6795Y-19500D02*
D03*
X12858D02*
D03*
X42819Y-68500D02*
D03*
X36756Y-68500D02*
D03*
X42819Y-61500D02*
D03*
X36756Y-61500D02*
D03*
X63894Y-68500D02*
D03*
X69957D02*
D03*
X63894Y-61500D02*
D03*
X69957D02*
D03*
X7500Y11516D02*
D03*
X13563D02*
D03*
D45*
X110902Y-44657D02*
D03*
X114051D02*
D03*
X132949D02*
D03*
X136099D02*
D03*
D46*
X116610D02*
D03*
X118579D02*
D03*
X120547D02*
D03*
X122516D02*
D03*
X124484D02*
D03*
X126453D02*
D03*
X128421D02*
D03*
X130390D02*
D03*
D47*
X-88591Y-3000D02*
D03*
X-73409D02*
D03*
D48*
X-77559Y-55413D02*
D03*
X-89173D02*
D03*
Y-44291D02*
D03*
X-77559D02*
D03*
X-77527Y-33386D02*
D03*
X-89142D02*
D03*
D49*
X-40780Y27220D02*
D03*
X-30937D02*
D03*
D50*
X32240Y5528D02*
D03*
X28500D02*
D03*
X24760D02*
D03*
Y14976D02*
D03*
X32240D02*
D03*
X6087Y3449D02*
D03*
X9827D02*
D03*
X13567D02*
D03*
Y-6000D02*
D03*
X9827D02*
D03*
X6087D02*
D03*
D51*
X-44917Y-43114D02*
D03*
Y-38114D02*
D03*
Y-33114D02*
D03*
Y-28114D02*
D03*
X-26020Y-43114D02*
D03*
Y-38114D02*
D03*
Y-33114D02*
D03*
Y-28114D02*
D03*
D52*
X9665Y-33031D02*
D03*
Y-27520D02*
D03*
X6319Y-33031D02*
D03*
Y-27520D02*
D03*
D53*
X32921Y-27760D02*
D03*
Y-35240D02*
D03*
X23079Y-31500D02*
D03*
X33079Y-51240D02*
D03*
Y-43760D02*
D03*
X42921Y-47500D02*
D03*
D54*
X146871Y-18504D02*
D03*
X141871Y-18504D02*
D03*
X136871Y-18504D02*
D03*
X131871D02*
D03*
X126871D02*
D03*
X121871D02*
D03*
X116871Y-18504D02*
D03*
X111871Y-18504D02*
D03*
X106871D02*
D03*
X101871D02*
D03*
X96871D02*
D03*
X91871Y-18504D02*
D03*
X86871Y-18504D02*
D03*
X81871D02*
D03*
X146871Y50394D02*
D03*
X141871Y50394D02*
D03*
X136871Y50394D02*
D03*
X131871D02*
D03*
X126871D02*
D03*
X121871D02*
D03*
X116871Y50394D02*
D03*
X111871Y50394D02*
D03*
X106871D02*
D03*
X101871D02*
D03*
X96871D02*
D03*
X91871Y50394D02*
D03*
X86871Y50394D02*
D03*
X81871D02*
D03*
D55*
X76948Y-6555D02*
D03*
Y-1555D02*
D03*
Y3445D02*
D03*
X76948Y8445D02*
D03*
X76948Y13445D02*
D03*
Y18445D02*
D03*
X76948Y23445D02*
D03*
X76948Y28445D02*
D03*
Y33445D02*
D03*
Y38445D02*
D03*
D56*
X117974Y4511D02*
D03*
Y10023D02*
D03*
Y15534D02*
D03*
X112462Y4511D02*
D03*
Y10023D02*
D03*
Y15535D02*
D03*
X123486Y4511D02*
D03*
Y10023D02*
D03*
Y15534D02*
D03*
D57*
X60925Y-40553D02*
D03*
D58*
X54035Y-30413D02*
D03*
X56005D02*
D03*
X57975D02*
D03*
X59945D02*
D03*
X61905D02*
D03*
X63875D02*
D03*
X65845D02*
D03*
X67815D02*
D03*
Y-50493D02*
D03*
X65845D02*
D03*
X63875D02*
D03*
X61905D02*
D03*
X59945D02*
D03*
X57975D02*
D03*
X56005D02*
D03*
X54035D02*
D03*
D59*
X70965Y-33563D02*
D03*
Y-35533D02*
D03*
Y-37503D02*
D03*
Y-39473D02*
D03*
Y-41433D02*
D03*
Y-43403D02*
D03*
Y-45373D02*
D03*
Y-47343D02*
D03*
X50885D02*
D03*
Y-45373D02*
D03*
Y-43403D02*
D03*
Y-41433D02*
D03*
Y-39473D02*
D03*
Y-37503D02*
D03*
Y-35533D02*
D03*
Y-33563D02*
D03*
D60*
X97374Y-31504D02*
D03*
Y-35244D02*
D03*
Y-38984D02*
D03*
X87925D02*
D03*
Y-35244D02*
D03*
Y-31504D02*
D03*
D61*
X125197Y-29134D02*
D03*
X111697D02*
D03*
D62*
X164000Y-42244D02*
D03*
Y-36181D02*
D03*
X-10102Y40071D02*
D03*
Y46134D02*
D03*
X-3102Y40071D02*
D03*
Y46134D02*
D03*
D63*
X-74161Y34157D02*
D03*
Y32189D02*
D03*
Y30220D02*
D03*
X-83761D02*
D03*
Y32189D02*
D03*
Y34157D02*
D03*
Y36126D02*
D03*
X-74161D02*
D03*
D64*
X-78961Y33173D02*
D03*
D65*
X-72984Y60417D02*
D03*
X-91882D02*
D03*
X-50965D02*
D03*
X-32067D02*
D03*
X-26551Y-58000D02*
D03*
X-45449D02*
D03*
D66*
X2461Y-47791D02*
D03*
X-2460Y-47791D02*
D03*
D67*
X-12500Y-59209D02*
D03*
X12500D02*
D03*
D68*
X-135728Y54331D02*
D03*
Y-54331D02*
D03*
D69*
X-127067Y-45276D02*
D03*
Y-41339D02*
D03*
Y-37402D02*
D03*
Y-33465D02*
D03*
Y-29528D02*
D03*
Y-25591D02*
D03*
Y-21654D02*
D03*
Y-17717D02*
D03*
Y-13780D02*
D03*
Y-9843D02*
D03*
Y-5906D02*
D03*
Y-1969D02*
D03*
Y1969D02*
D03*
Y5906D02*
D03*
Y9843D02*
D03*
Y13780D02*
D03*
Y17717D02*
D03*
Y21654D02*
D03*
Y25591D02*
D03*
Y29528D02*
D03*
Y33465D02*
D03*
Y37402D02*
D03*
Y41339D02*
D03*
Y45276D02*
D03*
D70*
X46024Y-6594D02*
D03*
X51024D02*
D03*
X56024D02*
D03*
X61024D02*
D03*
X46024Y19587D02*
D03*
X51024D02*
D03*
X56024D02*
D03*
X61024D02*
D03*
M02*
